<svg xmlns="http://www.w3.org/2000/svg" width="115" height="116" viewBox="0 0 115 116">
    <g fill="none" fill-rule="evenodd">
        <g fill="#FCE7D0">
            <g>
                <g>
                    <path d="M115 95.39c0-3.014-2.375-5.45-5.37-5.594-16.722-.82-33.478-5.622-48.842-14.788-26.784-15.971-44.01-42.02-49.744-70.5C10.521 1.888 8.244 0 5.582 0 2.052 0-.588 3.255.113 6.73c6.337 31.475 25.37 60.26 54.971 77.917 17.026 10.153 35.599 15.464 54.131 16.347 3.157.15 5.785-2.425 5.785-5.6v-.005z" transform="translate(-970 -547) translate(0 262) matrix(1 0 0 -1 970 400) rotate(-180 57.5 50.5)"/>
                </g>
            </g>
        </g>
    </g>
</svg>
