<svg xmlns="http://www.w3.org/2000/svg" width="29" height="29" viewBox="0 0 29 29">
    <g fill="none" fill-rule="evenodd">
        <g fill="#C8A3EC">
            <g>
                <g>
                    <path d="M31 25.611c0-.746-.599-1.349-1.354-1.384-4.217-.203-8.442-1.392-12.317-3.66C10.575 16.612 6.231 10.164 4.785 3.115 4.653 2.467 4.08 2 3.408 2c-.89 0-1.556.806-1.38 1.666 1.599 7.79 6.398 14.916 13.863 19.286 4.293 2.513 8.977 3.828 13.65 4.046.796.038 1.459-.6 1.459-1.385v-.002z" transform="translate(-231 -687) translate(1 685) rotate(-90 130.5 -99.5) rotate(-180 16.5 14.5)"/>
                </g>
            </g>
        </g>
    </g>
</svg>
