<svg xmlns="http://www.w3.org/2000/svg" width="29" height="29" viewBox="0 0 29 29">
    <g fill="none" fill-rule="evenodd">
        <g fill="#A6D5E9">
            <g>
                <path d="M29 27.611c0-.746-.599-1.349-1.354-1.384-4.217-.203-8.442-1.392-12.317-3.66C8.575 18.612 4.231 12.164 2.785 5.115 2.653 4.467 2.08 4 1.408 4c-.89 0-1.556.806-1.38 1.666 1.599 7.79 6.398 14.916 13.863 19.286 4.293 2.513 8.977 3.828 13.65 4.046.796.038 1.459-.6 1.459-1.385v-.002z" transform="translate(-1325 -503) translate(1325 503) rotate(-180 14.5 16.5)"/>
            </g>
        </g>
    </g>
</svg>
