<svg xmlns="http://www.w3.org/2000/svg" width="115" height="115" viewBox="0 0 115 115">
    <g fill="none" fill-rule="evenodd">
        <g fill="#FCE7D0">
            <g>
                <path d="M115 109.39c0-3.014-2.375-5.45-5.37-5.594-16.722-.82-33.478-5.622-48.842-14.788-26.784-15.971-44.01-42.02-49.744-70.5-.523-2.62-2.8-4.508-5.462-4.508-3.53 0-6.17 3.255-5.469 6.73 6.337 31.475 25.37 60.26 54.971 77.917 17.026 10.153 35.599 15.464 54.131 16.347 3.157.15 5.785-2.425 5.785-5.6v-.005z" transform="translate(-240 -252) matrix(-1 0 0 1 355 252) rotate(-180 57.5 64.5)"/>
            </g>
        </g>
    </g>
</svg>
