<svg xmlns="http://www.w3.org/2000/svg" width="150" height="43" viewBox="0 0 150 43">
    <g fill="none">
        <path fill="#FFF" d="M1.141 6.377L6.295 5.215 13.782 3.859 22.631 2.599 32.355 1.631 40.038 1.146 44.025 0.856 46.067 0.856 46.067 4.731 51.901 5.021 45.872 41.35 36.342 39.315 29.049 37.959 20.589 37.087 15.824 36.7 5.906 36.7 4.252 21.006 2.891 13.934z"/>
        <path fill="#174269" d="M139.17 27.523c.976.583 2.733 1.166 4.197 1.166 1.756 0 2.633-.68 2.633-1.75 0-1.07-.682-1.653-2.633-2.333-3.123-1.071-4.49-2.723-4.49-4.57 0-2.723 2.342-4.96 6.148-4.96 1.757 0 3.317.487 4.293.973l-.78 2.82c-.684-.39-1.952-.875-3.416-.875-1.463 0-2.244.68-2.244 1.653 0 .972.78 1.458 2.829 2.236 2.927 1.07 4.293 2.528 4.293 4.764 0 2.82-2.342 4.96-6.635 4.96-1.952 0-3.709-.486-4.977-1.166l.782-2.918zm-16.88-7.39c0-1.848 0-3.306-.098-4.668h3.61l.195 2.334h.098c.683-1.264 2.44-2.723 5.172-2.723 2.83 0 5.757 1.75 5.757 6.71v9.334h-4.099v-8.848c0-2.237-.878-3.987-3.122-3.987-1.659 0-2.732 1.167-3.22 2.334-.099.389-.195.875-.195 1.264v9.237h-4.098V20.133zm-5.952 1.555c0-.388 0-.777-.099-1.07-.39-1.458-1.561-2.527-3.316-2.527-2.342 0-4.002 1.944-4.002 5.153 0 2.723 1.366 4.862 4.002 4.862 1.56 0 2.828-.972 3.316-2.43.099-.389.195-.973.195-1.46v-2.528h-.096zm4.098 7.196c0 3.306-.683 5.64-2.44 7.099-1.658 1.459-4.001 1.945-6.244 1.945-2.05 0-4.294-.39-5.66-1.265l.878-3.015c1.075.584 2.734 1.167 4.685 1.167 2.634 0 4.684-1.361 4.684-4.764v-1.362h-.099c-.976 1.36-2.633 2.333-4.684 2.333-4 0-6.927-3.209-6.927-7.68 0-5.154 3.415-8.266 7.318-8.266 2.44 0 3.903 1.167 4.683 2.431h.098l.195-2.139h3.514c-.099 1.07-.099 2.334-.099 4.473v9.043h.098zM99.164 15.465h4.099V31.12h-4.099V15.465zm4.391-4.375c0 1.167-.877 2.139-2.34 2.139-1.367 0-2.245-.972-2.245-2.14 0-1.263.976-2.138 2.341-2.138 1.366-.098 2.244.875 2.244 2.139M87.163 27.523c.976.583 2.732 1.166 4.196 1.166 1.757 0 2.634-.68 2.634-1.75 0-1.07-.683-1.653-2.634-2.333-3.123-1.07-4.489-2.723-4.489-4.57 0-2.723 2.342-4.96 6.147-4.96 1.757 0 3.318.487 4.294.973l-.781 2.82c-.683-.39-1.952-.875-3.415-.875-1.464 0-2.244.68-2.244 1.653 0 .972.781 1.458 2.83 2.236 2.927 1.07 4.293 2.528 4.293 4.764 0 2.82-2.342 4.96-6.636 4.96-1.952 0-3.708-.486-4.977-1.166l.782-2.918zm-4.977-5.932c0-1.458-.683-3.792-3.317-3.792-2.537 0-3.61 2.236-3.805 3.792h7.122zm-7.122 2.82c.097 2.82 2.439 4.084 4.976 4.084 1.854 0 3.22-.292 4.488-.68l.587 2.722c-1.366.584-3.318.972-5.66.972-5.269 0-8.392-3.111-8.392-7.973 0-4.376 2.732-8.46 7.904-8.46 5.269 0 7.025 4.182 7.025 7.682 0 .778-.098 1.361-.098 1.653h-10.83zm-8.977-2.43c0-.293 0-.681-.098-1.07-.39-1.556-1.659-2.82-3.513-2.82-2.634 0-4.098 2.236-4.098 5.153 0 2.82 1.464 4.96 4.098 4.96 1.66 0 3.123-1.07 3.513-2.82.098-.389.098-.778.098-1.166V21.98zM70.185 8.27v18.475c0 1.652.097 3.305.097 4.375h-3.707l-.196-2.528c-.975 1.75-2.927 2.82-5.269 2.82-3.903 0-6.927-3.209-6.927-7.973 0-5.251 3.317-8.363 7.22-8.363 2.244 0 3.805.876 4.586 2.042h.098V8.27h4.098z"/>
        <path fill="#9EB0C9" d="M46.475 3.707c0 .39-.096.778-.096 1.07l4.82.389-5.688 33.74 1.157.194c1.928-11.473 3.856-22.947 5.785-34.323.096-.39-.193-.68-.482-.68l-5.496-.39M19.962 37.058c8.58 1.166 17.161 2.82 25.549 4.862h.386c.192-.098.385-.194.385-.486.097-.389.193-.875.193-1.265l-1.157-.194-.096.778-16.68-3.792c-.096 0-8.387.097-8.58.097"/>
        <path fill="#4C7196" d="M50.27 39.608c-1.08-.196-2.16-.39-3.24-.488l-1.177-.195-1.865-.293c.099-.098.197-.195.197-.39l2.453-33.566c0-.39.098-.78.098-1.073L46.933.87c0-.293-.197-.586-.49-.586C34.86.383 23.377 1.456 12.09 3.31c-1.668.195-3.239.488-4.809.78l-3.042.586c0-1.268 0-2.537.098-3.805 0-.39-.295-.586-.59-.586-.294 0-.49.195-.49.488L3.16 4.871c-.982.195-1.767.39-2.65.586-.294 0-.589.292-.49.585 2.453 8.684 3.14 17.759 4.416 26.638-.196-1.757-.393-3.513-.49-5.367.195 1.757.294 3.513.588 5.367.098.78.196 1.561.294 2.244h-.294c-.687 0-.785 1.073-.098 1.073h.589l.196 1.366c0 .293.294.488.49.488.295 0 .688-.195.59-.683v-.097c2.355-.098 4.809-.098 7.164-.098 2.16 0 4.319 0 6.38.099.196 0 11.286.877 18.745 1.853 2.356.292 4.81.683 7.165 1.074l1.178.194 3.337.586h.098c.49 0 .589-1.074-.098-1.171zM3.16 14.824c-.49-2.83-1.08-5.66-1.865-8.392.589-.097 1.178-.195 1.767-.39 0 2.927 0 5.855.098 8.782l.098 3.317c0-1.17-.098-2.244-.098-3.317zm2.846 20.198l-.392-2.537c.098.78.196 1.56.294 2.244l-.294-2.342-.491-4.586c-.59-5.854-.883-11.806-.883-17.66V5.748c13.642-2.732 27.578-4.293 41.515-4.488-.883 12.1-1.865 24.198-2.65 36.2-6.968-.78-13.937-1.268-20.905-1.464-5.398-.39-10.796-.78-16.194-.975z"/>
        <path fill="#F36830" d="M16.244 12.86c-2.07 0-3.549 1.726-3.549 4.22 0 2.11 1.282 3.74 3.55 3.74 1.675 0 2.858-.767 3.548-1.726.099-.288.197-.575.197-1.151 0-2.686-1.084-5.084-3.746-5.084zm-5.717 15.154c.591.096 1.281 0 2.267-.096 1.577-.096 3.253-.671 4.436-1.535 1.38-1.055 2.366-2.59 2.76-4.508h-.098c-1.085 1.152-2.662 1.823-4.732 1.823-3.845 0-6.605-2.59-6.605-6.426 0-3.933 3.253-7.29 7.886-7.29 5.028 0 7.788 3.74 7.788 8.728 0 4.414-1.577 7.482-3.746 9.496-1.873 1.63-4.535 2.59-7.393 2.78-.887.098-1.873.098-2.465.098v-3.07h-.098zM32.51 12.86c-2.07 0-3.55 1.727-3.55 4.22 0 2.111 1.282 3.742 3.55 3.742 1.675 0 2.858-.768 3.548-1.727.099-.288.197-.575.197-1.151.099-2.686-.985-5.084-3.745-5.084zm-5.718 15.155c.591.096 1.282 0 2.267-.096 1.578-.096 3.253-.671 4.436-1.535 1.38-1.055 2.366-2.59 2.76-4.508h-.098c-1.084 1.15-2.662 1.822-4.732 1.822-3.844 0-6.605-2.59-6.605-6.426 0-3.933 3.254-7.29 7.887-7.29 5.027 0 7.787 3.74 7.787 8.728 0 4.414-1.577 7.482-3.746 9.496-1.873 1.63-4.534 2.59-7.393 2.78-.986.098-1.873.098-2.464.098v-3.07h-.099v.001z"/>
    </g>
</svg>
