<svg xmlns="http://www.w3.org/2000/svg" width="141" height="44" viewBox="0 0 141 44">
    <path fill="#FF5A5F" d="M74.311 11.056c0 1.585-1.277 2.862-2.863 2.862s-2.863-1.277-2.863-2.862c0-1.586 1.233-2.863 2.863-2.863 1.63.044 2.863 1.321 2.863 2.863zm-11.805 5.77v.705s-1.365-1.763-4.272-1.763c-4.801 0-8.546 3.656-8.546 8.72 0 5.022 3.7 8.721 8.546 8.721 2.951 0 4.272-1.806 4.272-1.806v.749c0 .352.265.616.617.616h3.567v-16.56h-3.567c-.352 0-.617.31-.617.618zm0 10.614c-.66.969-1.982 1.806-3.567 1.806-2.82 0-4.978-1.762-4.978-4.757 0-2.995 2.159-4.757 4.978-4.757 1.542 0 2.951.88 3.567 1.806v5.902zm6.828-11.232h4.228V32.77h-4.228V16.21zm63.165-.44c-2.907 0-4.273 1.762-4.273 1.762V8.237h-4.228V32.77h3.568c.352 0 .616-.308.616-.617v-.748s1.366 1.806 4.272 1.806c4.802 0 8.546-3.699 8.546-8.72 0-5.021-3.744-8.722-8.5-8.722zm-.705 13.433c-1.63 0-2.907-.836-3.568-1.805v-5.902c.661-.881 2.07-1.806 3.568-1.806 2.82 0 4.978 1.762 4.978 4.757 0 2.995-2.158 4.756-4.978 4.756zm-9.998-6.253v9.865h-4.23v-9.381c0-2.73-.88-3.832-3.258-3.832-1.277 0-2.598.66-3.437 1.63v11.54h-4.227V16.209h3.346c.353 0 .617.308.617.617v.705c1.234-1.278 2.863-1.763 4.493-1.763 1.85 0 3.392.53 4.625 1.586 1.497 1.233 2.07 2.819 2.07 5.594zm-25.417-7.18c-2.906 0-4.272 1.762-4.272 1.762V8.237h-4.229V32.77h3.568c.352 0 .617-.308.617-.617v-.748s1.366 1.806 4.272 1.806c4.802 0 8.546-3.699 8.546-8.72.044-5.022-3.7-8.722-8.502-8.722zM95.674 29.2c-1.63 0-2.906-.836-3.567-1.805v-5.902c.66-.881 2.07-1.806 3.567-1.806 2.82 0 4.978 1.762 4.978 4.757 0 2.995-2.158 4.756-4.978 4.756zM84.222 15.768c1.277 0 1.938.22 1.938.22v3.92s-3.524-1.19-5.726 1.322v11.583h-4.229V16.208h3.568c.353 0 .616.309.616.617v.705c.794-.925 2.512-1.762 3.833-1.762zM40.307 31.27c-.22-.528-.441-1.1-.661-1.585-.353-.793-.705-1.542-1.013-2.246l-.044-.044c-3.04-6.607-6.299-13.301-9.735-19.907l-.132-.265c-.361-.686-.714-1.376-1.057-2.07-.44-.794-.88-1.63-1.585-2.423C24.67.969 22.644 0 20.486 0c-2.203 0-4.185.97-5.638 2.643-.661.792-1.146 1.629-1.586 2.422-.344.694-.696 1.385-1.056 2.07l-.133.265C8.681 14.006 5.378 20.7 2.34 27.307l-.045.088c-.308.705-.66 1.454-1.013 2.246-.22.485-.44 1.013-.66 1.586-.573 1.629-.75 3.17-.529 4.757.485 3.303 2.687 6.077 5.726 7.311 1.146.485 2.335.705 3.568.705.353 0 .793-.044 1.146-.088 1.454-.176 2.951-.66 4.405-1.497 1.806-1.014 3.524-2.466 5.462-4.58 1.938 2.114 3.7 3.566 5.461 4.58 1.455.837 2.952 1.32 4.405 1.497.353.044.794.088 1.146.088 1.234 0 2.467-.22 3.568-.705 3.083-1.234 5.241-4.052 5.726-7.311.35-1.541.174-3.082-.398-4.713zm-19.866 2.29c-2.379-2.994-3.92-5.813-4.448-8.19-.22-1.014-.265-1.895-.132-2.688.087-.705.352-1.321.704-1.85.837-1.188 2.247-1.938 3.877-1.938s3.084.705 3.877 1.938c.352.529.616 1.146.705 1.85.131.794.087 1.718-.133 2.687-.53 2.334-2.072 5.153-4.45 8.192zm17.575 2.07c-.308 2.291-1.85 4.274-4.008 5.154-1.057.44-2.203.573-3.348.44-1.1-.132-2.202-.484-3.347-1.144-1.586-.882-3.171-2.247-5.022-4.273 2.907-3.567 4.67-6.827 5.33-9.733.308-1.366.353-2.599.22-3.745-.176-1.1-.572-2.114-1.189-2.995-1.366-1.982-3.657-3.127-6.211-3.127-2.554 0-4.845 1.19-6.21 3.127-.617.881-1.014 1.895-1.19 2.995-.176 1.146-.132 2.423.22 3.745.66 2.906 2.467 6.21 5.33 9.777-1.806 2.026-3.436 3.392-5.022 4.273-1.146.66-2.246 1.013-3.347 1.144-1.19.133-2.335-.044-3.348-.44-2.158-.88-3.7-2.863-4.008-5.153-.132-1.101-.044-2.202.397-3.435.131-.441.352-.881.572-1.41.309-.704.66-1.454 1.013-2.202l.045-.088c3.038-6.563 6.298-13.257 9.69-19.775l.132-.265c.353-.66.705-1.365 1.057-2.026.353-.705.749-1.365 1.234-1.938.924-1.056 2.157-1.63 3.523-1.63s2.6.574 3.524 1.63c.485.574.881 1.235 1.234 1.938.353.661.705 1.366 1.057 2.026l.132.265c3.34 6.545 6.556 13.153 9.647 19.82v.043c.353.706.66 1.498 1.013 2.204.22.527.44.967.573 1.408.351 1.144.483 2.246.307 3.39z"/>
</svg>
