<?xml version="1.0" encoding="UTF-8"?>
<svg width="33px" height="30px" viewBox="0 0 33 30" version="1.1" xmlns="http://www.w3.org/2000/svg" xmlns:xlink="http://www.w3.org/1999/xlink">
    <title>Icon</title>
    <g id="Page-1" stroke="none" stroke-width="1" fill="none" fill-rule="evenodd">
        <g id="Modul/Icon-Box/Color-Dotted" transform="translate(-40.000000, -57.000000)">
            <g id="Group" transform="translate(40.000000, 56.000000)">
                <g id="20200406_ICON_ICON-206" transform="translate(0.000000, 2.000000)">
                    <path d="M16.55,1.92988539 C12.8838529,1.91494914 9.3673736,3.38285383 6.8,6 L6.8,6 C5.69445984,7.49141659 4.90500988,9.19281736 4.48,11 L4.48,11.46 L10.82,11.46 C11.1940522,11.4496327 11.5507226,11.2998312 11.82,11.04 L11.82,11.42 C11.82,12.2594728 11.1394728,12.94 10.3,12.94 L3.43,12.94 C2.71117624,12.9384842 2.01058811,13.1661753 1.43,13.59 L1.3,16.38 L4.56,17.68 C5.8196829,22.4054509 9.51951512,26.0907133 14.2498996,27.3317412 C18.980284,28.572769 24.0127573,27.1784481 27.43,23.68 C27.43,23.68 27.43,23.68 27.43,23.68 C30.5148361,19.559004 31.0085682,14.0494763 28.7055999,9.44565625 C26.4026315,4.84183623 21.6976999,1.9328355 16.55,1.92988539 Z M24.62,16 L24.62,16 C24.525754,15.6283203 24.2979208,15.30437 23.98,15.09 L14.23,6.89 C13.6566581,6.47579797 12.8711245,6.52176004 12.3499521,7 L12.3499521,6.66 C12.3455382,6.09828811 12.6532508,5.58052697 13.1487783,5.31596569 C13.6443058,5.05140441 14.2457338,5.08377687 14.71,5.4 L24.46,13.59 C24.7785817,13.808163 25.0062482,14.1354336 25.1,14.51 C25.1098272,14.6064169 25.1098272,14.7035831 25.1,14.8 C25.1308387,15.2521855 24.9541835,15.6938234 24.62,16 L24.62,16 Z" id="Shape" fill="#FFFFFF" fill-rule="nonzero"></path>
                    <path d="M0.82,14.64 C0.820774506,15.7913817 1.3991811,16.8655653 2.36,17.5 C2.50012405,17.5914514 2.64724755,17.6717006 2.8,17.74 L2.8,17.74 C3.25556262,17.9471165 3.74958052,18.0561411 4.25,18.06 L11.17,18.06 C12.0094728,18.06 12.69,18.7405272 12.69,19.58 L12.69,22.84 C12.6870462,23.6146986 13.2782495,24.262414 14.05,24.33 C14.1725249,24.3499706 14.2974751,24.3499706 14.42,24.33 C14.6453523,24.3047364 14.8613771,24.2258702 15.05,24.1 L24.8,15.9 C25.2431423,15.6113179 25.4985601,15.1081068 25.47,14.58 C25.4798272,14.4835831 25.4798272,14.3864169 25.47,14.29 C25.375754,13.9183203 25.1479208,13.59437 24.83,13.38 L15.08,5.18 C14.6128945,4.87026784 14.0132439,4.84271477 13.5197031,5.10830664 C13.0261624,5.3738985 12.7188218,5.88953576 12.72,6.45 L12.72,9.69 C12.72,10.5294728 12.0394728,11.21 11.2,11.21 L4.25,11.21 C2.35566331,11.21 0.82,12.7456633 0.82,14.64 Z" id="Path" stroke="#1D1D1B" stroke-width="1.4" stroke-linecap="round" stroke-linejoin="round"></path>
                    <path d="M4.48,11 C4.91343056,9.22698797 5.69527309,7.55792413 6.78,6.09 L6.78,6.09 C9.78953,1.97937377 14.844071,-0.104521626 19.876185,0.690680911 C24.9082991,1.48588345 29.0739748,5.02680857 30.6693431,9.86512633 C32.2647114,14.7034441 31.0221891,20.0276476 27.45,23.66 C27.45,23.66 27.45,23.66 27.45,23.66 C24.1397172,27.0619719 19.2961305,28.4935021 14.6683287,27.4376444 C10.0405269,26.3817867 6.29715561,22.9910962 4.79,18.49" id="Path" stroke="#1D1D1B" stroke-width="1.4" stroke-linecap="round" stroke-linejoin="round"></path>
                </g>
            </g>
        </g>
    </g>
</svg>