<svg xmlns="http://www.w3.org/2000/svg" width="32" height="33" viewBox="0 0 32 33">
    <g fill="none" fill-rule="evenodd">
        <path fill="#E0F1FA" fill-rule="nonzero" d="M22.91 7.92l-7.12 7.6c-.36.3-.828.442-1.295.393-.467-.049-.894-.284-1.185-.653l-.31-.32-3.57-3.67-1.49 1.05c-.608.187-1.245.262-1.88.22-1.225.006-2.42-.372-3.42-1.08L.16 7.54h22.59c.092-.004.176.05.212.134.036.085.015.183-.052.246z" transform="translate(2 .5)"/>
        <path fill="#E0F1FA" fill-rule="nonzero" d="M11.48 7.67L9.3 11.51l-.54.94c-.608.187-1.245.262-1.88.22-1.225.006-2.42-.372-3.42-1.08L1 7.67c-.061-.33-.092-.665-.09-1 0-1.277.406-2.52 1.16-3.55 1.471-1 3.311-1.297 5.022-.808 1.711.488 3.117 1.711 3.838 3.338.294.638.48 1.32.55 2.02z" transform="translate(2 .5)"/>
        <path stroke="#1D1D1B" stroke-linecap="round" stroke-linejoin="round" stroke-width="1.4" d="M16 17.05L16 31.25 10.9 31.3 21.1 31.3M26.2.7L22.02 5.37M9.51 12.12c-.29.203-.606.364-.94.48-.608.187-1.245.262-1.88.22-1.225.006-2.42-.372-3.42-1.08-1.326-.914-2.222-2.33-2.48-3.92-.061-.33-.092-.665-.09-1C.738 3.869 2.918 1.383 5.839.96 8.76.537 11.555 2.3 12.43 5.12" transform="translate(2 .5)"/>
        <path stroke="#1D1D1B" stroke-linecap="round" stroke-linejoin="round" stroke-width="1.4" d="M4.69 5.84h22c.082.003.154.052.187.127.032.075.017.162-.037.223L18 15.88c-.531.563-1.27.883-2.045.883-.774 0-1.514-.32-2.045-.883L4.54 6.19c-.054-.06-.069-.148-.037-.223.033-.075.105-.124.187-.127z" transform="translate(2 .5)"/>
    </g>
</svg>
