<svg xmlns="http://www.w3.org/2000/svg" width="168" height="168" viewBox="0 0 168 168">
    <g fill="none" fill-rule="evenodd">
        <g stroke-width="8">
            <g transform="translate(-160 -4684) translate(164 4688)">
                <circle cx="80" cy="80" r="80" stroke="#F2F6FF"/>
                <circle cx="80" cy="80" r="65" stroke="#F2F6FF"/>
                <circle cx="80" cy="80" r="50" stroke="#F2F6FF"/>
                <circle cx="80" cy="80" r="35" stroke="#F2F6FF"/>
                <circle cx="80" cy="80" r="20" stroke="#F2F6FF"/>
                <circle cx="80" cy="80" r="80" stroke="#5089FD" stroke-linecap="round"/>
                <path stroke="#97E0C7" stroke-linecap="round" d="M80 15c16.18 0 31.78 6.035 43.75 16.924 11.96 10.889 19.44 25.851 20.96 41.959 1.52 16.108-3.02 32.205-12.73 45.144-9.72 12.939-23.91 21.79-39.8 24.822-15.89 3.032-32.35.027-46.14-8.427-13.8-8.454-23.94-21.75-28.46-37.288-4.51-15.537-3.07-32.2 4.05-46.73 7.12-14.53 19.4-25.883 34.44-31.839"/>
                <path stroke="#F1A0A0" stroke-linecap="round" d="M80 30c11.77 0 23.16 4.152 32.17 11.726 9.01 7.573 15.06 18.083 17.09 29.678 2.02 11.594-.11 23.531-6.02 33.709-5.92 10.178-15.23 17.944-26.3 21.931-11.08 3.987-23.2 3.939-34.25-.134-11.04-4.074-20.29-11.913-26.12-22.137-5.83-10.224-7.87-22.177-5.76-33.756 2.12-11.579 8.25-22.04 17.32-29.543"/>
                <path stroke="#C8A3EC" stroke-linecap="round" d="M80 45c7.67 0 15.13 2.522 21.23 7.177 6.1 4.655 10.51 11.186 12.53 18.587 2.02 7.402 1.56 15.263-1.32 22.376-2.88 7.112-8.02 13.08-14.62 16.986-6.61 3.906-14.31 5.533-21.93 4.631-7.62-.902-14.74-4.283-20.25-9.623-5.51-5.34-9.11-12.342-10.25-19.93-1.14-7.589.24-15.341 3.94-22.065"/>
                <path stroke="#F3D699" stroke-linecap="round" d="M80 60c4.22 0 8.34 1.337 11.76 3.82 3.41 2.482 5.96 5.983 7.26 10 1.31 4.017 1.31 8.343 0 12.36-1.3 4.017-3.85 7.518-7.26 10C88.34 98.663 84.22 100 80 100s-8.34-1.337-11.76-3.82c-3.41-2.482-5.96-5.983-7.26-10-1.31-4.017-1.31-8.343 0-12.36"/>
            </g>
        </g>
    </g>
</svg>
