<svg xmlns="http://www.w3.org/2000/svg" width="168" height="168" viewBox="0 0 168 168">
    <g fill="none" fill-rule="evenodd">
        <g stroke-width="8">
            <g transform="translate(-764 -3373) translate(768 3377)">
                <circle cx="80.002" cy="80" r="80" stroke="#F2F6FF"/>
                <circle cx="80.002" cy="80" r="65" stroke="#F2F6FF"/>
                <path stroke="#F3D699" stroke-linecap="round" d="M80.002 15c13.73 0 27.1 4.345 38.21 12.414"/>
                <path stroke="#5089FD" stroke-linecap="round" d="M80.002 0c16.25 0 32.12 4.949 45.48 14.189 13.37 9.239 23.61 22.331 29.36 37.533 5.74 15.202 6.72 31.792 2.8 47.564-3.92 15.772-12.55 29.976-24.74 40.723-12.19 10.747-27.36 17.526-43.5 19.436-16.14 1.911-32.47-1.139-46.83-8.744-14.37-7.604-26.07-19.402-33.56-33.823-7.49-14.421-10.42-30.782-8.38-46.905"/>
            </g>
        </g>
    </g>
</svg>
