<svg xmlns="http://www.w3.org/2000/svg" width="168" height="168" viewBox="0 0 168 168">
    <g fill="none" fill-rule="evenodd">
        <g>
            <g transform="translate(-520 -7644) translate(524 7647)">
                <circle cx="80.003" cy="81.001" r="80" stroke="#F2F6FF" stroke-width="8"/>
                <path stroke="#97E0C7" stroke-linecap="round" stroke-width="8" d="M41.478 151.113c-12.556-6.899-23.03-17.044-30.325-29.375C3.857 109.408.007 95.345.003 81.018.002 66.69 3.846 52.624 11.137 40.291c7.29-12.334 17.76-22.483 30.313-29.388"/>
                <path stroke="#F1A0A0" stroke-linecap="round" stroke-width="8" d="M41.412 10.924c5.879-3.237 12.141-5.722 18.64-7.396"/>
                <path stroke="#C8A3EC" stroke-linecap="round" stroke-width="8" d="M59.967 3.55c2.271-.587 4.567-1.074 6.882-1.46"/>
                <path stroke="#F3D699" stroke-linecap="round" stroke-width="8" d="M68.004 1.906c2.32-.352 4.654-.602 6.995-.749"/>
                <path stroke="#FD8550" stroke-linecap="round" stroke-width="8" d="M74.995 1.157c.397-.025.794-.046 1.192-.065C77.463 1.03 78.74 1 80.018 1"/>
                <path stroke="#5089FD" stroke-linecap="round" stroke-width="8" d="M80.004 1.001c12.2 0 24.239 2.79 35.195 8.158 10.956 5.367 20.539 13.17 28.017 22.81 7.478 9.64 12.651 20.862 15.126 32.809 2.474 11.947 2.182 24.301-.852 36.118-3.034 11.817-8.73 22.784-16.654 32.061-7.923 9.277-17.864 16.619-29.06 21.464-11.197 4.846-23.354 7.066-35.541 6.491-12.187-.575-24.08-3.929-34.772-9.806"/>
                <path stroke="#97E0C7" stroke-linecap="round" stroke-width="8" d="M41.481 151.111c-12.556-6.9-23.03-17.045-30.325-29.375"/>
                <path fill="#E8E8E8" fill-rule="nonzero" d="M81.005 142L80.005 142 80.005 149 81.005 149zM81.005 13.001L80.005 13.001 80.005 20 81.005 20zM19.005 81.001L19.005 80.001 12.005 80.001 12.005 81.001zM148.005 81.001L148.005 80.001 141.005 80.001 141.005 81.001z"/>
            </g>
        </g>
    </g>
</svg>
