<svg xmlns="http://www.w3.org/2000/svg" width="168" height="168" viewBox="0 0 168 168">
    <g fill="none" fill-rule="evenodd">
        <g stroke-width="8">
            <g transform="translate(-160 -5558) translate(164 5562)">
                <circle cx="80" cy="80" r="80" stroke="#F2F6FF"/>
                <circle cx="80" cy="80" r="65" stroke="#F2F6FF"/>
                <circle cx="80" cy="80" r="50" stroke="#F2F6FF"/>
                <circle cx="80" cy="80" r="35" stroke="#F2F6FF"/>
                <circle cx="80" cy="80" r="20" stroke="#F2F6FF"/>
                <path stroke="#5089FD" stroke-linecap="round" d="M80 0c12.63 0 25.07 2.988 36.32 8.72 11.25 5.731 20.98 14.044 28.4 24.257 7.42 10.214 12.32 22.039 14.3 34.508 1.97 12.47.97 25.23-2.93 37.236"/>
                <path stroke="#97E0C7" stroke-linecap="round" d="M80 15c15.48 0 30.45 5.523 42.21 15.574 11.77 10.051 19.57 23.972 21.99 39.258 2.42 15.286-.69 30.935-8.78 44.131-8.09 13.196-20.62 23.073-35.33 27.856-14.72 4.782-30.67 4.156-44.96-1.767-14.3-5.922-26.02-16.753-33.05-30.542-7.02-13.79-8.9-29.635-5.28-44.684 3.61-15.049 12.47-28.315 24.99-37.412"/>
                <path stroke="#F1A0A0" stroke-linecap="round" d="M80 30c10.56 0 20.85 3.343 29.39 9.549 8.54 6.207 14.9 14.958 18.16 25 3.27 10.043 3.27 20.86 0 30.902-3.26 10.042-9.62 18.794-18.16 25"/>
                <path stroke="#C8A3EC" stroke-linecap="round" d="M80 45c5.52 0 10.97 1.307 15.89 3.815s9.18 6.144 12.43 10.613c3.24 4.468 5.39 9.642 6.25 15.097.86 5.455.42 11.038-1.28 16.291-1.71 5.253-4.64 10.027-8.54 13.933-3.91 3.906-8.68 6.831-13.93 8.538-5.26 1.707-10.84 2.146-16.29 1.282-5.46-.864-10.63-3.007-15.1-6.253"/>
                <path stroke="#F3D699" stroke-linecap="round" d="M80 60c4.22 0 8.34 1.337 11.76 3.82 3.41 2.482 5.96 5.983 7.26 10 1.31 4.017 1.31 8.344 0 12.361-1.3 4.016-3.85 7.517-7.26 10C88.34 98.663 84.22 100 80 100s-8.34-1.337-11.76-3.819c-3.41-2.483-5.96-5.984-7.26-10-1.31-4.017-1.31-8.344 0-12.361"/>
            </g>
        </g>
    </g>
</svg>
