<svg xmlns="http://www.w3.org/2000/svg" width="168" height="168" viewBox="0 0 168 168">
    <g fill="none" fill-rule="evenodd">
        <g>
            <g transform="translate(-159 -8525) translate(163 8529)">
                <circle cx="80.003" cy="80.001" r="80" stroke="#F2F6FF" stroke-width="8"/>
                <path stroke="#5089FD" stroke-linecap="round" stroke-width="8" d="M80.003.001c14.754 0 29.22 4.08 41.8 11.789 12.58 7.709 22.782 18.746 29.48 31.892 6.699 13.146 9.631 27.888 8.473 42.596-1.157 14.708-6.36 28.81-15.032 40.746-8.672 11.936-20.476 21.242-34.106 26.888-13.631 5.646-28.558 7.412-43.13 5.104-14.572-2.308-28.222-8.601-39.44-18.182-11.22-9.582-19.57-22.08-24.13-36.111"/>
                <path fill="#E8E8E8" fill-rule="nonzero" d="M81.005 141L80.005 141 80.005 148 81.005 148zM81.005 12.001L80.005 12.001 80.005 19 81.005 19zM19.005 80.001L19.005 79.001 12.005 79.001 12.005 80.001zM148.005 80.001L148.005 79.001 141.005 79.001 141.005 80.001z"/>
            </g>
        </g>
    </g>
</svg>
