<svg xmlns="http://www.w3.org/2000/svg" width="168" height="168" viewBox="0 0 168 168">
    <g fill="none" fill-rule="evenodd">
        <g>
            <g transform="translate(-160 -2936) translate(164 2940)">
                <circle cx="80" cy="80" r="80" stroke="#F2F6FF" stroke-width="8"/>
                <path stroke="#5089FD" stroke-linecap="round" stroke-width="8" d="M80 0c19.05 0 37.47 6.797 51.96 19.168 14.48 12.37 24.08 29.504 27.05 48.317 2.98 18.814-.85 38.074-10.8 54.315-9.95 16.241-25.37 28.398-43.49 34.284"/>
                <path fill="#E8E8E8" fill-rule="nonzero" d="M81 141L80 141 80 148 81 148zM81 12L80 12 80 19 81 19zM19 80L19 79 12 79 12 80zM148 80L148 79 141 79 141 80z"/>
            </g>
        </g>
    </g>
</svg>
