<svg xmlns="http://www.w3.org/2000/svg" width="168" height="168" viewBox="0 0 168 168">
    <g fill="none" fill-rule="evenodd">
        <g stroke-width="8">
            <g transform="translate(-764 -786) translate(768 790)">
                <circle cx="80" cy="80" r="80" stroke="#F2F6FF"/>
                <circle cx="80" cy="80" r="65" stroke="#F2F6FF"/>
                <path stroke="#5089FD" stroke-linecap="round" d="M80 0c15.181 0 30.049 4.32 42.866 12.454"/>
                <path stroke="#F3D699" stroke-linecap="round" d="M80 15c12.334 0 24.414 3.51 34.829 10.119 10.414 6.61 18.733 16.045 23.985 27.206 5.251 11.16 7.219 23.585 5.673 35.822-1.546 12.237-6.541 23.782-14.404 33.286-7.862 9.504-18.266 16.574-29.997 20.386-11.73 3.811-24.304 4.207-36.25 1.139-11.948-3.067-22.776-9.471-31.219-18.462-8.444-8.992-14.154-20.2-16.466-32.316"/>
            </g>
        </g>
    </g>
</svg>
