<svg xmlns="http://www.w3.org/2000/svg" width="168" height="168" viewBox="0 0 168 168">
    <g fill="none" fill-rule="evenodd">
        <g>
            <g transform="translate(-160 -2097) translate(164 2101)">
                <circle cx="80" cy="80" r="80" stroke="#F2F6FF" stroke-width="8"/>
                <path stroke="#5089FD" stroke-linecap="round" stroke-width="8" d="M80 0c12.624 0 25.07 2.988 36.319 8.72 11.248 5.731 20.981 14.044 28.402 24.257 7.42 10.214 12.318 22.039 14.293 34.508 1.975 12.47.971 25.229-2.93 37.236-3.902 12.007-10.589 22.92-19.516 31.848-8.927 8.927-19.84 15.614-31.847 19.516-12.007 3.901-24.767 4.905-37.237 2.93-12.469-1.975-24.294-6.873-34.508-14.294"/>
                <path fill="#E8E8E8" fill-rule="nonzero" d="M81 141L80 141 80 148 81 148zM81 12L80 12 80 19 81 19zM19 80L19 79 12 79 12 80zM148 80L148 79 141 79 141 80z"/>
            </g>
        </g>
    </g>
</svg>
