<svg xmlns="http://www.w3.org/2000/svg" width="168" height="168" viewBox="0 0 168 168">
    <g fill="none" fill-rule="evenodd">
        <g stroke-width="8">
            <g transform="translate(-520 -7256) translate(524 7260)">
                <circle cx="80.001" cy="80" r="80" stroke="#F2F6FF"/>
                <circle cx="80.001" cy="80" r="65" stroke="#F2F6FF"/>
                <path stroke="#F3D699" stroke-linecap="round" d="M80 15c15.477 0 30.446 5.523 42.214 15.574 11.769 10.051 19.565 23.972 21.986 39.258 2.421 15.286-.692 30.935-8.778 44.131-8.087 13.196-20.617 23.073-35.336 27.856"/>
                <path stroke="#5089FD" stroke-linecap="round" d="M80 0c13.689 0 27.148 3.512 39.09 10.2 11.943 6.689 21.97 16.33 29.122 28 7.152 11.671 11.19 24.982 11.727 38.66.537 13.677-2.444 27.263-8.658 39.459-6.214 12.196-15.454 22.594-26.835 30.199-11.381 7.604-24.523 12.161-38.169 13.235-13.645 1.074-27.339-1.371-39.77-7.102-12.43-5.73-23.182-14.554-31.228-25.628"/>
            </g>
        </g>
    </g>
</svg>
