<svg xmlns="http://www.w3.org/2000/svg" width="168" height="168" viewBox="0 0 168 168">
    <g fill="none" fill-rule="evenodd">
        <g stroke-width="8">
            <g transform="translate(-160 -5995) translate(164 5999)">
                <circle cx="80" cy="80" r="80" stroke="#F2F6FF"/>
                <path stroke="#5089FD" stroke-linecap="round" d="M80 0c16.895 0 33.355 5.348 47.023 15.279 13.668 9.93 23.841 23.932 29.062 40 5.221 16.067 5.221 33.375 0 49.442-5.221 16.068-15.394 30.07-29.062 40C113.355 154.652 96.895 160 80.001 160c-16.895 0-33.356-5.348-47.023-15.279-13.668-9.93-23.841-23.932-29.062-40-5.22-16.067-5.22-33.375 0-49.442"/>
                <circle cx="80" cy="80" r="65" stroke="#F2F6FF"/>
                <path stroke="#F3D699" stroke-linecap="round" d="M80 15c11.987 0 23.741 3.315 33.962 9.578 10.221 6.264 18.511 15.232 23.953 25.913 5.442 10.68 7.824 22.658 6.884 34.609-.941 11.95-5.168 23.408-12.214 33.106s-16.636 17.259-27.711 21.846c-11.075 4.588-23.203 6.023-35.043 4.148-11.84-1.876-22.93-6.988-32.046-14.774-9.115-7.785-15.9-17.939-19.604-29.34"/>
            </g>
        </g>
    </g>
</svg>
