<svg xmlns="http://www.w3.org/2000/svg" width="168" height="168" viewBox="0 0 168 168">
    <g fill="none" fill-rule="evenodd">
        <g stroke-width="8">
            <g transform="translate(-764 -345) translate(768 349)">
                <circle cx="80" cy="80" r="80" stroke="#F2F6FF"/>
                <circle cx="80" cy="80" r="65" stroke="#F2F6FF"/>
                <circle cx="80" cy="80" r="50" stroke="#F2F6FF"/>
                <circle cx="80" cy="80" r="35" stroke="#F2F6FF"/>
                <circle cx="80" cy="80" r="20" stroke="#F2F6FF"/>
                <path stroke="#5089FD" stroke-linecap="round" d="M80 0c14.967 0 29.634 4.199 42.334 12.119 12.7 7.921 22.923 19.245 29.508 32.686 6.585 13.441 9.267 28.46 7.74 43.349-1.524 14.889-7.196 29.052-16.37 40.879-9.173 11.826-21.48 20.842-35.523 26.022-14.042 5.181-29.256 6.318-43.912 3.283-14.656-3.035-28.167-10.121-38.997-20.452-10.83-10.332-18.545-23.494-22.267-37.991"/>
                <path stroke="#97E0C7" stroke-linecap="round" d="M80 15c11.987 0 23.742 3.315 33.963 9.578 10.22 6.264 18.51 15.232 23.953 25.913 5.442 10.68 7.824 22.658 6.884 34.609-.941 11.95-5.168 23.408-12.214 33.106s-16.636 17.259-27.711 21.846c-11.075 4.588-23.203 6.023-35.043 4.148-11.84-1.876-22.93-6.988-32.046-14.774-9.115-7.785-15.9-17.939-19.605-29.34"/>
                <path stroke="#F1A0A0" stroke-linecap="round" d="M80 30c12.717 0 24.957 4.846 34.227 13.552 9.27 8.705 14.876 20.616 15.674 33.309.799 12.692-3.27 25.212-11.375 35.01-8.107 9.799-19.642 16.141-32.26 17.735"/>
                <path stroke="#C8A3EC" stroke-linecap="round" d="M80 45c5.895 0 11.695 1.489 16.86 4.33 5.168 2.84 9.533 6.939 12.69 11.916 3.16 4.978 5.01 10.673 5.38 16.557.37 5.883-.751 11.765-3.261 17.1"/>
                <path stroke="#F3D699" stroke-linecap="round" d="M80 60c3.262 0 6.475.798 9.359 2.325 2.883 1.527 5.349 3.735 7.183 6.434 1.833 2.698 2.979 5.804 3.337 9.047.358 3.242-.082 6.523-1.283 9.557"/>
            </g>
        </g>
    </g>
</svg>
