<svg xmlns="http://www.w3.org/2000/svg" width="168" height="168" viewBox="0 0 168 168">
    <g fill="none" fill-rule="evenodd">
        <g stroke-width="8">
            <g transform="translate(-764 -2499) translate(768 2503)">
                <circle cx="80" cy="80" r="80" stroke="#F2F6FF"/>
                <circle cx="80" cy="80" r="65" stroke="#F2F6FF"/>
                <circle cx="80" cy="80" r="50" stroke="#F2F6FF"/>
                <circle cx="80" cy="80" r="35" stroke="#F2F6FF"/>
                <circle cx="80" cy="80" r="20" stroke="#F2F6FF"/>
                <path stroke="#5089FD" stroke-linecap="round" d="M80 0c16.251 0 32.116 4.949 45.485 14.189 13.368 9.239 23.606 22.331 29.35 37.533 5.745 15.202 6.723 31.792 2.805 47.564-3.917 15.772-12.545 29.976-24.735 40.723s-27.364 17.526-43.502 19.436c-16.138 1.911-32.476-1.139-46.838-8.744-14.362-7.604-26.067-19.402-33.558-33.823C1.515 102.457-1.406 86.096.631 69.973"/>
                <path stroke="#97E0C7" stroke-linecap="round" d="M80 15c13.727 0 27.101 4.345 38.206 12.414"/>
                <path stroke="#F1A0A0" stroke-linecap="round" d="M80 30c7.36 0 14.63 1.625 21.29 4.759"/>
                <path stroke="#C8A3EC" stroke-linecap="round" d="M80 45c3.673 0 7.323.578 10.816 1.713"/>
            </g>
        </g>
    </g>
</svg>
