<svg xmlns="http://www.w3.org/2000/svg" width="168" height="169" viewBox="0 0 168 169">
    <g fill="none" fill-rule="evenodd" transform="translate(0 .5)">
        <circle cx="84" cy="84" r="80" stroke="#F2F6FF" stroke-width="8"/>
        <path fill="#5089FD" d="M84 0c17.739 0 35.023 5.616 49.374 16.043 14.351 10.426 25.033 25.128 30.515 42 5.481 16.87 5.481 35.044 0 51.914-5.482 16.872-16.164 31.574-30.515 42C119.024 162.384 101.74 168 84 168c-17.74 0-35.023-5.616-49.374-16.043-14.351-10.427-25.033-25.129-30.515-42-5.481-16.87-5.481-35.044 0-51.914.683-2.101 2.94-3.251 5.04-2.569 2.102.683 3.251 2.94 2.569 5.04-4.96 15.265-4.96 31.707 0 46.971 4.96 15.264 14.624 28.566 27.608 38C52.312 154.919 67.95 160 84 160c16.05 0 31.688-5.081 44.672-14.515 12.984-9.434 22.649-22.735 27.609-38 4.959-15.264 4.959-31.706 0-46.97-4.96-15.265-14.625-28.567-27.61-38C115.688 13.08 100.05 8 84 8c-2.21 0-4-1.79-4-4s1.79-4 4-4z"/>
        <path fill="#E8E8E8" d="M84 145H85V152H84zM84 16H85V23H84z"/>
        <path fill="#E8E8E8" d="M19 80H20V87H19z" transform="rotate(90 19.5 83.5)"/>
        <path fill="#E8E8E8" d="M148 80H149V87H148z" transform="rotate(90 148.5 83.5)"/>
    </g>
</svg>
