<?xml version="1.0" encoding="UTF-8"?>
<svg width="32px" height="32px" viewBox="0 0 32 32" version="1.1" xmlns="http://www.w3.org/2000/svg" xmlns:xlink="http://www.w3.org/1999/xlink">
    <!-- Generator: Sketch 62 (91390) - https://sketch.com -->
    <title>Icon/32/Status/X</title>
    <desc>Created with Sketch.</desc>
    <g id="Icon/32/Status/X" stroke="none" stroke-width="1" fill="none" fill-rule="evenodd">
        <g id="x-icon">
            <circle id="Oval" fill="#F1A0A0" cx="16" cy="16" r="16"></circle>
            <path d="M11.779264,10.2630047 L16,14.484 L20.220736,10.2630047 C20.6112603,9.87248042 21.2444252,9.87248042 21.6349495,10.2630047 L21.7369953,10.3650505 C22.1275196,10.7555748 22.1275196,11.3887397 21.7369953,11.779264 L17.516,16 L21.7369953,20.220736 C22.1275196,20.6112603 22.1275196,21.2444252 21.7369953,21.6349495 L21.6349495,21.7369953 C21.2444252,22.1275196 20.6112603,22.1275196 20.220736,21.7369953 L16,17.516 L11.779264,21.7369953 C11.3887397,22.1275196 10.7555748,22.1275196 10.3650505,21.7369953 L10.2630047,21.6349495 C9.87248042,21.2444252 9.87248042,20.6112603 10.2630047,20.220736 L14.484,16 L10.2630047,11.779264 C9.87248042,11.3887397 9.87248042,10.7555748 10.2630047,10.3650505 L10.3650505,10.2630047 C10.7555748,9.87248042 11.3887397,9.87248042 11.779264,10.2630047 Z" id="Combined-Shape" fill="#FFFFFF"></path>
        </g>
    </g>
</svg>