<svg xmlns="http://www.w3.org/2000/svg" width="168" height="168" viewBox="0 0 168 168">
    <g fill="none" fill-rule="evenodd">
        <g stroke-width="8">
            <g>
                <g>
                    <g>
                        <g>
                            <g transform="translate(-1106 -2480) translate(0 2038) translate(955 333) translate(99 109) translate(0 4) translate(56)">
                                <circle cx="80" cy="80" r="80" stroke="#F2F6FF"/>
                                <g stroke="#5089FD" stroke-linecap="round">
                                    <path d="M160 80c0-15.823-4.692-31.29-13.482-44.446-8.791-13.156-21.285-23.41-35.903-29.464C95.997.035 79.911-1.55 64.393 1.537 48.874 4.624 34.62 12.243 23.43 23.432 12.243 34.62 4.625 48.873 1.538 64.392-1.55 79.913.035 95.998 6.09 110.616c6.055 14.618 16.308 27.112 29.464 35.903C48.71 155.308 64.177 160 80 160" transform="rotate(-180 80 80)"/>
                                </g>
                            </g>
                        </g>
                    </g>
                </g>
            </g>
        </g>
    </g>
</svg>
