<?xml version="1.0" encoding="UTF-8"?>
<svg width="101px" height="115px" viewBox="0 0 101 115" version="1.1" xmlns="http://www.w3.org/2000/svg" xmlns:xlink="http://www.w3.org/1999/xlink">
    <title>Miscellaneous/Curve/Big/Yellow 2</title>
    <g id="Start-a-business/airbnb" stroke="none" stroke-width="1" fill="none" fill-rule="evenodd">
        <g id="start-a-business/airbnb-1" transform="translate(-154.000000, -10062.000000)" fill="#FCE7D0">
            <g id="CTA" transform="translate(0.000000, 9998.000000)">
                <g id="Group" transform="translate(140.000000, 64.000000)">
                    <g id="Miscellaneous/Curve/Big/Yellow-2" transform="translate(57.500000, 57.500000) rotate(-90.000000) translate(-57.500000, -57.500000) ">
                        <path d="M115,109.389083 C115,106.376067 112.625219,103.940258 109.629429,103.795956 C92.9082099,102.976323 76.1524898,98.1739685 60.788288,89.0079353 C34.0044362,73.036642 16.77721,46.9873298 11.0443847,18.5079798 C10.5211278,15.887464 8.24409791,14 5.58181294,14 C2.05126657,14 -0.588018089,17.2554425 0.113491124,20.7302234 C6.45007435,52.2052731 25.4828243,80.9905423 55.0842131,98.6472775 C72.1101867,108.800333 90.6829306,114.110629 109.215424,114.993755 C112.372215,115.143828 115,112.569489 115,109.394855 L115,109.389083 Z" id="curve" transform="translate(57.500000, 64.500000) rotate(-180.000000) translate(-57.500000, -64.500000) "></path>
                    </g>
                </g>
            </g>
        </g>
    </g>
</svg>