<svg xmlns="http://www.w3.org/2000/svg" xmlns:xlink="http://www.w3.org/1999/xlink" width="150" height="40" viewBox="0 0 150 40">
    <defs>
        <path id="g5kxfc0rza" d="M0 0H149.565V40H0z"/>
        <path id="2pd414qeec" d="M0 0L0 39.756 149.441 39.756 149.441 0z"/>
        <path id="8qx9ipfz2e" d="M0 0L0 39.756 149.441 39.756 149.441 0z"/>
        <path id="gitlcw23ug" d="M0 0L0 39.756 149.441 39.756 149.441 0z"/>
        <path id="jrl2ndor9i" d="M0 0L0 39.756 149.441 39.756 149.441 0z"/>
        <path id="37g8lygfkk" d="M0 0L0 39.756 149.441 39.756 149.441 0z"/>
        <path id="5prqr2jc6m" d="M0 0L0 39.756 149.441 39.756 149.441 0z"/>
        <path id="z19o1x8e7o" d="M0 0L0 39.756 149.441 39.756 149.441 0z"/>
        <path id="ojsv92v27q" d="M0 0L0 39.756 149.441 39.756 149.441 0z"/>
        <path id="vsanzgixgs" d="M0 0L0 39.756 149.441 39.756 149.441 0z"/>
    </defs>
    <g fill="none" fill-rule="evenodd">
        <mask id="xnfepzgbpb" fill="#fff">
            <use xlink:href="#g5kxfc0rza"/>
        </mask>
        <g mask="url(#xnfepzgbpb)">
            <mask id="rh6dyhlp7d" fill="#fff">
                <use xlink:href="#2pd414qeec"/>
            </mask>
            <path fill="#373535" fill-rule="nonzero" d="M31.674 32.743h3.236v6.362H19.637c-.07-.245-.097-5.772-.026-6.357 1.061-.012 2.13.001 3.192-.007.073-.266.09-13.086.02-13.493H12.355c-.073.261-.084 13.128-.005 13.49h3.77v6.364H.262v-6.359h3.24V19.23H0v-6.376c1.156-.022 2.314.003 3.522-.014v-.451c-.008-1.028.036-2.05.24-3.061.595-2.958 2.311-4.984 5.04-6.168 1.234-.535 2.531-.83 3.862-.993 1.512-.185 3.025-.17 4.54-.05.314.024.626.074.95.114v6.92c-.414-.033-.815-.068-1.216-.096-.838-.056-1.676-.062-2.502.102-.35.07-.702.19-1.02.354-.662.343-1.031.92-1.082 1.666-.037.542-.008 1.088-.008 1.661h19.215c.04.037.05.044.056.052.007.009.013.018.017.028.004.01.007.022.008.033l.006.068c.002.023.002.046.002.069v19.428l.003.069c0 .011 0 .023.002.034l.009.033.03.09z" mask="url(#rh6dyhlp7d)"/>
            <mask id="84c79v3f7f" fill="#fff">
                <use xlink:href="#8qx9ipfz2e"/>
            </mask>
            <path fill="#373535" fill-rule="nonzero" d="M73.731 22.732h7.394c.01-.067.03-.123.023-.174-.062-.392-.089-.797-.204-1.173-.308-1.013-.883-1.841-1.885-2.245-1.374-.554-2.653-.267-3.777.653-.879.719-1.3 1.73-1.565 2.812-.007.03.007.065.014.127zm16.351 13.334c-.579.473-1.175.861-1.795 1.215-2.12 1.213-4.397 1.966-6.809 2.285-2.679.355-5.338.253-7.906-.659-4.737-1.682-7.65-5.042-8.745-9.963-.664-2.982-.393-5.93.771-8.75 1.707-4.133 4.805-6.633 9.122-7.611 1.805-.41 3.633-.461 5.464-.21 2.341.323 4.45 1.185 6.22 2.8 1.629 1.49 2.67 3.344 3.261 5.463.501 1.794.668 3.624.502 5.483-.033.363-.06.727-.094 1.09-.012.123-.037.245-.06.395H73.518c.006.108-.001.184.016.255.662 2.807 2.693 4.173 4.92 4.491 1.32.19 2.615.033 3.894-.318 1.516-.418 2.928-1.071 4.257-1.913.085-.054.171-.104.287-.174l3.19 6.121z" mask="url(#84c79v3f7f)"/>
            <mask id="hyib25v5vh" fill="#fff">
                <use xlink:href="#gitlcw23ug"/>
            </mask>
            <path fill="#373535" fill-rule="nonzero" d="M54.393 39.11h-10.35l-7.236-19.887h-2.922v-6.32c.241-.07 13.366-.094 13.856-.024v6.337h-2.288c.032.138.049.232.077.323.983 3.126 1.965 6.251 2.952 9.376.289.915.473 1.85.59 2.802.019.153.05.304.076.46.227-.032.18-.184.194-.295.107-.906.258-1.804.526-2.677.328-1.066.669-2.127 1.003-3.19l2.015-6.416c.033-.105.06-.213.1-.363h-2.278v-6.367h13.826v6.343h-2.9l-7.24 19.898z" mask="url(#hyib25v5vh)"/>
            <g>
                <mask id="udns9o69lj" fill="#fff">
                    <use xlink:href="#jrl2ndor9i"/>
                </mask>
                <path fill="#373535" fill-rule="nonzero" d="M104.522 32.742h3.502v6.362H92.242c-.065-.244-.089-5.783-.021-6.354 1.15-.018 2.308.004 3.488-.012.007-.14.017-.251.017-.362 0-3.967-.007-7.935.007-11.902.002-.855-.406-1.256-1.244-1.248-.645.006-1.29.002-1.934 0-.11 0-.22-.01-.347-.017v-6.333c.08-.01.166-.03.251-.03 2.761 0 5.522 0 8.283.005.5 0 .99.082 1.467.238 1.049.343 1.647 1.08 1.852 2.154.049.255.075.52.078.78.008.695.004 1.39-.007 2.086-.003.248-.04.496-.001.766.046-.116.095-.232.139-.35.825-2.203 2.227-3.92 4.262-5.093 1.108-.639 2.308-.977 3.582-1.047.441-.025.878.01 1.324.107v8.64c-.515-.037-1.017-.089-1.521-.104-1.013-.03-2.011.075-2.978.397-1.98.661-3.249 2.036-3.92 4.003-.363 1.067-.499 2.173-.514 3.295-.016 1.253-.005 2.508-.005 3.762 0 .067.01.134.022.257z" mask="url(#udns9o69lj)"/>
            </g>
            <g>
                <mask id="w9l8yoto7l" fill="#fff">
                    <use xlink:href="#37g8lygfkk"/>
                </mask>
                <path fill="#373535" fill-rule="nonzero" d="M136.653 21.138c-.444-.035-.85-.075-1.255-.099-1.024-.06-2.036.023-3.022.316-2.16.642-3.518 2.1-4.199 4.236-.303.952-.44 1.934-.456 2.928-.022 1.333-.009 2.667-.01 4.001 0 .056.01.112.02.215 1.161.02 2.32 0 3.499.013v6.357h-15.803v-6.35h3.488c.01-.128.027-.225.027-.321.001-4.014 0-8.027.002-12.04 0-.293-.047-.57-.237-.802-.246-.301-.591-.36-.95-.363-.645-.006-1.29-.002-1.935-.002h-.393v-6.36c.1-.007.197-.02.295-.02 2.682-.002 5.364-.001 8.045-.001.558 0 1.106.063 1.638.238 1.09.356 1.697 1.125 1.879 2.246.049.302.07.612.07.919 0 .864-.017 1.728-.027 2.645.047-.113.084-.195.115-.279.788-2.148 2.123-3.851 4.07-5.049 1.17-.72 2.447-1.107 3.817-1.182.441-.024.877.013 1.322.108v8.646z" mask="url(#w9l8yoto7l)"/>
            </g>
            <g>
                <mask id="sis933epen" fill="#fff">
                    <use xlink:href="#5prqr2jc6m"/>
                </mask>
                <path fill="#373535" fill-rule="nonzero" d="M23.045 5.794c.01-2.349 1.89-4.238 4.214-4.233 2.33.005 4.226 1.932 4.212 4.28-.014 2.33-1.92 4.224-4.242 4.212-2.33-.012-4.193-1.91-4.184-4.26z" mask="url(#sis933epen)"/>
            </g>
            <g>
                <mask id="jaak0i8tcp" fill="#fff">
                    <use xlink:href="#z19o1x8e7o"/>
                </mask>
                <path fill="#373535" fill-rule="nonzero" d="M143.84 9.785c.834.007 1.581-.25 2.242-.754 2.014-1.54 2.14-4.764.256-6.468-1.554-1.406-3.92-1.25-5.277.346-1.319 1.55-1.308 4.078.033 5.605.727.828 1.64 1.267 2.746 1.27zm5.601-4.115c-.031 2.791-1.959 5.18-4.677 5.635-2.192.366-3.99-.418-5.317-2.202-1.86-2.497-1.33-6.131 1.127-7.997 3.14-2.384 7.709-.723 8.645 3.15.111.463.15.942.222 1.414z" mask="url(#jaak0i8tcp)"/>
            </g>
            <g>
                <mask id="vm8xyrpuyr" fill="#fff">
                    <use xlink:href="#ojsv92v27q"/>
                </mask>
                <path fill="#FEFEFE" fill-rule="nonzero" d="M146.488 8.309l-1.119-2.166c.012-.019.016-.03.024-.037.027-.02.056-.038.085-.055.535-.329.776-.82.736-1.438-.043-.674-.336-1.21-.982-1.473-.246-.1-.524-.157-.79-.165-.79-.021-1.583-.009-2.375-.007-.064 0-.13.018-.211.03v5.307h1.666V6.523h.406l.745 1.786h1.815z" mask="url(#vm8xyrpuyr)"/>
            </g>
            <g>
                <mask id="19955ng1bt" fill="#fff">
                    <use xlink:href="#vsanzgixgs"/>
                </mask>
                <path fill="#373535" fill-rule="nonzero" d="M143.534 4.106v1.268c.328-.001.66.086.875-.232.164-.243.167-.525.02-.774-.2-.336-.544-.247-.895-.262zm2.954 4.203h-1.815l-.745-1.786h-.406v1.782h-1.666V2.998c.081-.012.147-.03.211-.03.792-.002 1.584-.014 2.376.007.265.008.543.065.789.165.646.263.94.799.982 1.473.04.618-.201 1.109-.736 1.438-.029.017-.058.035-.085.055-.008.006-.012.018-.024.037l1.12 2.166z" mask="url(#19955ng1bt)"/>
            </g>
        </g>
    </g>
</svg>
