<svg xmlns="http://www.w3.org/2000/svg" width="182" height="44" viewBox="0 0 182 44">
    <g fill="none">
        <path fill="#29B2FE" d="M25.062 6.604L.333 5.219 16.45 22.616l8.613-16.012zM12.69 4.748l11.407.82L9.96 0l2.73 4.748zm14.28.82L33.048 0l4.097 5.915-10.175-.348zm-.684 1.1l-8.951 16.637 8.13 9.003 9.145-8.59L37.138 7.22l-10.852-.551zm-8.469 19.246L13.511 44 24.71 33.272l-6.892-7.358zM34.344.275l4.37 5.64L59 .275H34.344z"/>
        <path fill="#000" d="M52.673 10.667c.007 1.425-.08 2.843-.261 4.254-1.444.051-3.25-.48-3.2 2.045 2.22-.051 2.815 0 2.815 0s-.102 4.468-3.41 4.299c-1.19 6.83-2.321 12.82-2.321 12.82H41l2.887-19.105s.668-3.885 4.128-4.299l4.658-.014zM50.35 34.1l2.786-17.437h4.853l.378 1.315s1.218-1.735 4.882-1.315c-.878 4.254-1.03 4.89-1.03 4.89s-4.027-.421-4.338.893c-.312 1.315-1.908 11.661-1.908 11.661L50.35 34.1zm42.984-14.29c-1.081-1.994-3.047-3.819-7.69-3.22-4.643.598-7.973 5.25-7.74 11.565.47 5.25 4.135 6.181 5.419 6.359 8.72 1.048 8.828-3.575 8.88-5.31-1.807 0-2.656.037-3.41.051-.218.724-3.751.37-3.751.37s-1.342-.104-1.444-2.519h9.758c-.008 0 1.066-5.295-.022-7.296zm-5.006 4.254c-.98.103-4.28 0-4.28 0 1.291-5.2 4.846-2.94 4.28 0zm73.533-4.254c-1.08-1.994-3.047-3.819-7.69-3.22-4.643.598-7.972 5.25-7.74 11.565.471 5.25 4.135 6.181 5.419 6.359 8.72 1.048 8.829-3.575 8.88-5.31-1.807 0-2.656.037-3.41.051-.218.724-3.75.37-3.75.37s-1.343-.104-1.444-2.519h9.743c-.008 0 1.051-5.295-.008-7.296zm-5.005 4.254c-.98.103-4.28 0-4.28 0 1.269-5.2 4.831-2.94 4.258 0h.022z"/>
        <path fill="#000" d="M77.7 19.944c-1.076-1.968-3.032-3.77-7.652-3.179-4.62.59-7.934 5.184-7.703 11.418.469 5.184 4.115 6.103 5.393 6.278 8.677 1.035 8.785-3.529 8.836-5.242-1.798 0-2.642.036-3.393.05-.217.715-3.733.365-3.733.365s-1.335-.102-1.436-2.486h9.695c-.007 0 1.076-5.228-.007-7.204zm-4.988 4.2c-.975.102-4.26 0-4.26 0 1.307-5.133 4.83-2.902 4.26 0zm24.48-12.81l-3.544 22.711H99.3l3.798-22.712h-5.906zm18.95 22.719l2.874-17.28h5.032v1.32s1.747-1.918 6.367-1.32c4.62.59 2.31 8.88 2.31 8.88l-1.234 8.414h-5.544s1.285-8.487 1.537-10.74c-.26-2.544-3.234-2.435-3.956-.62-.36 2.232-2 11.36-2 11.36l-5.385-.014zm25.008-12.344h5.083l.47-3.369s.613-1.553-1.539-1.582c-2.151-.03-5.392 0-5.392 0s-6.317.904-5.956 13.408c.332 2.231 2.014 4.018 4.201 4.455.47.102 3.733 0 3.733 0s3.645-.474 3.133-5.082c-3.798.102-5.393.263-5.602-.83-.217-1.087.433-6.585 1.87-7zm21.875.824l6.642-5.782-2.534 17.302h-5.61l1.502-11.52z"/>
        <path fill="#29B2FE" d="M171.324 16.757L170.333 22.667 181 16.667z"/>
        <path fill="#000" d="M113.389 16.01c-4.21-.036-5.18.037-6.75 0-1.576-.036-2.64 2.372-2.54 4.927h6.458s.656-.103.713.477c.029.558.029 1.116 0 1.674h-4.68s-6.6.624-4.517 8.825c.407 1.256 2.433 2.13 3.553 2.085 1.12-.044 3.91-1.094 4.367-1.512l.05.991 4.973-.051s1.676-10.705 1.876-11.593c.2-.889.557-4.317-3.503-5.822zm-4.352 13.613c-1.962 0-2.233-1.953-.67-2.996 1.555-.697 2.503-.279 2.503-.279s.072 3.348-1.833 3.275z"/>
    </g>
</svg>
