<svg xmlns="http://www.w3.org/2000/svg" width="168" height="25" viewBox="0 0 168 25">
    <g fill="none" fill-rule="evenodd">
        <g fill="#FD8550" fill-rule="nonzero">
            <g>
                <g>
                    <path d="M23.937 8.713c-.158-.486-.59-.83-1.097-.876l-6.928-.629-2.738-6.41C12.972.328 12.512.023 12 .023c-.512 0-.972.304-1.173.775l-2.738 6.41-6.93.63c-.507.046-.937.39-1.096.875-.158.486-.012 1.02.372 1.356l5.237 4.592-1.544 6.801c-.113.5.08 1.017.496 1.317.223.162.485.243.748.243.226 0 .452-.06.654-.18L12 19.268l5.973 3.572c.438.262.989.238 1.403-.062.415-.3.609-.817.496-1.317l-1.544-6.8 5.237-4.593c.384-.337.53-.869.372-1.356z" transform="translate(-904 -414) translate(904 414) translate(0 .938)"/>
                </g>
                <g>
                    <g>
                        <path d="M23.937 8.713c-.158-.486-.59-.83-1.097-.876l-6.928-.629-2.738-6.41C12.972.328 12.512.023 12 .023c-.512 0-.972.304-1.173.775l-2.738 6.41-6.93.63c-.507.046-.937.39-1.096.875-.158.486-.012 1.02.372 1.356l5.237 4.592-1.544 6.801c-.113.5.08 1.017.496 1.317.223.162.485.243.748.243.226 0 .452-.06.654-.18L12 19.268l5.973 3.572c.438.262.989.238 1.403-.062.415-.3.609-.817.496-1.317l-1.544-6.8 5.237-4.593c.384-.337.53-.869.372-1.356z" transform="translate(-904 -414) translate(904 414) translate(36) translate(0 .938)"/>
                    </g>
                </g>
                <g>
                    <g>
                        <path d="M23.937 8.713c-.158-.486-.59-.83-1.097-.876l-6.928-.629-2.738-6.41C12.972.328 12.512.023 12 .023c-.512 0-.972.304-1.173.775l-2.738 6.41-6.93.63c-.507.046-.937.39-1.096.875-.158.486-.012 1.02.372 1.356l5.237 4.592-1.544 6.801c-.113.5.08 1.017.496 1.317.223.162.485.243.748.243.226 0 .452-.06.654-.18L12 19.268l5.973 3.572c.438.262.989.238 1.403-.062.415-.3.609-.817.496-1.317l-1.544-6.8 5.237-4.593c.384-.337.53-.869.372-1.356z" transform="translate(-904 -414) translate(904 414) translate(72) translate(0 .938)"/>
                    </g>
                </g>
                <g>
                    <g>
                        <path d="M23.937 8.713c-.158-.486-.59-.83-1.097-.876l-6.928-.629-2.738-6.41C12.972.328 12.512.023 12 .023c-.512 0-.972.304-1.173.775l-2.738 6.41-6.93.63c-.507.046-.937.39-1.096.875-.158.486-.012 1.02.372 1.356l5.237 4.592-1.544 6.801c-.113.5.08 1.017.496 1.317.223.162.485.243.748.243.226 0 .452-.06.654-.18L12 19.268l5.973 3.572c.438.262.989.238 1.403-.062.415-.3.609-.817.496-1.317l-1.544-6.8 5.237-4.593c.384-.337.53-.869.372-1.356z" transform="translate(-904 -414) translate(904 414) translate(108) translate(0 .938)"/>
                    </g>
                </g>
                <g>
                    <g>
                        <path d="M23.937 8.713c-.158-.486-.59-.83-1.097-.876l-6.928-.629-2.738-6.41C12.972.328 12.512.023 12 .023c-.512 0-.972.304-1.173.775l-2.738 6.41-6.93.63c-.507.046-.937.39-1.096.875-.158.486-.012 1.02.372 1.356l5.237 4.592-1.544 6.801c-.113.5.08 1.017.496 1.317.223.162.485.243.748.243.226 0 .452-.06.654-.18L12 19.268l5.973 3.572c.438.262.989.238 1.403-.062.415-.3.609-.817.496-1.317l-1.544-6.8 5.237-4.593c.384-.337.53-.869.372-1.356z" transform="translate(-904 -414) translate(904 414) translate(144) translate(0 .938)"/>
                    </g>
                </g>
            </g>
        </g>
    </g>
</svg>
