<svg xmlns="http://www.w3.org/2000/svg" width="32" height="32" viewBox="0 0 32 32">
    <g fill="none" fill-rule="evenodd">
        <g>
            <g>
                <g>
                    <g>
                        <g transform="translate(-279 -892) translate(255 780) translate(0 88) translate(24 24) matrix(1 0 0 -1 0 32)">
                            <circle cx="16" cy="16" r="16" fill="#F1A0A0"/>
                            <path fill="#FFF" d="M11.78 10.263L16 14.484l4.22-4.221c.391-.39 1.024-.39 1.415 0l.102.102c.39.39.39 1.024 0 1.414L17.516 16l4.221 4.22c.39.391.39 1.024 0 1.415l-.102.102c-.39.39-1.024.39-1.414 0L16 17.516l-4.22 4.221c-.391.39-1.024.39-1.415 0l-.102-.102c-.39-.39-.39-1.024 0-1.414L14.484 16l-4.221-4.22c-.39-.391-.39-1.024 0-1.415l.102-.102c.39-.39 1.024-.39 1.414 0z"/>
                        </g>
                    </g>
                </g>
            </g>
        </g>
    </g>
</svg>
