<?xml version="1.0" encoding="UTF-8"?>
<svg width="32px" height="32px" viewBox="0 0 32 32" version="1.1" xmlns="http://www.w3.org/2000/svg" xmlns:xlink="http://www.w3.org/1999/xlink">
    <title>0E7C32DD-A8D8-481D-BC93-C88E489434BC</title>
    <g id="Nonprofit" stroke="none" stroke-width="1" fill="none" fill-rule="evenodd">
        <g id="review-entity-types/nonprofit@2x" transform="translate(-1350.000000, -4790.000000)" fill="#72AFD7" fill-rule="nonzero">
            <g id="footer" transform="translate(0.000000, 4102.000000)">
                <g id="icons-social">
                    <g transform="translate(1218.000000, 688.000000)">
                        <path d="M148,0 C139.164,0 132,7.164 132,16 C132,24.836 139.164,32 148,32 C156.836,32 164,24.836 164,16 C164,7.164 156.836,0 148,0 Z M145.333333,21.3333333 L142.666667,21.3333333 L142.666667,13.3333333 L145.333333,13.3333333 L145.333333,21.3333333 Z M144,12.1453333 C143.190667,12.1453333 142.533333,11.484 142.533333,10.6666667 C142.533333,9.85066667 143.189333,9.188 144,9.188 C144.810667,9.188 145.466667,9.85066667 145.466667,10.6666667 C145.466667,11.484 144.809333,12.1453333 144,12.1453333 Z M154.666667,21.3333333 L152.002667,21.3333333 L152.002667,17.5186667 C152.002667,15.0106667 149.333333,15.2226667 149.333333,17.5186667 L149.333333,21.3333333 L146.666667,21.3333333 L146.666667,13.3333333 L149.333333,13.3333333 L149.333333,14.7906667 C150.496,12.636 154.666667,12.476 154.666667,16.8546667 L154.666667,21.3333333 Z" id="linkedin"></path>
                    </g>
                </g>
            </g>
        </g>
    </g>
</svg>