<?xml version="1.0" encoding="UTF-8"?>
<svg width="80px" height="24px" viewBox="0 0 80 24" version="1.1" xmlns="http://www.w3.org/2000/svg" xmlns:xlink="http://www.w3.org/1999/xlink">
    <!-- Generator: sketchtool 63.1 (101010) - https://sketch.com -->
    <title>49780ED1-F69A-4606-923F-AAC7B3BC03D2</title>
    <desc>Created with sketchtool.</desc>
    <g id="Nonprofit" stroke="none" stroke-width="1" fill="none" fill-rule="evenodd">
        <g id="review-entity-type/nonprofit@2x" transform="translate(-256.000000, -4190.000000)">
            <g id="footer" transform="translate(0.000000, 4102.000000)">
                <g id="Logo/Color">
                    <g transform="translate(256.000000, 88.000000)">
                        <polygon id="Path" fill="#035496" points="0.340586329 22.882238 4.76012759 22.882238 4.76012759 6.24683544 0.340586329 6.24683544"></polygon>
                        <path d="M21.8161114,22.8823089 L17.3965772,22.8823089 L17.3965772,12.8339241 C17.3965772,11.6678481 17.2168101,10.8455696 16.860962,10.3653873 C16.4213975,9.80552911 15.6417924,9.52375696 14.5120101,9.52375696 C12.2328101,9.52375696 11.0927494,10.8020456 11.0927494,13.3641519 L11.0927494,22.8823089 L6.67605063,22.8823089 L6.67605063,6.24688506 L10.9064608,6.24688506 L10.9064608,7.80788861 C10.9064608,8.41226329 10.9195038,8.71260759 10.9381468,8.71260759 C10.9381468,8.69134177 10.9465114,8.68113418 10.9689114,8.68113418 C11.4932557,7.76528608 12.2393316,7.05149873 13.2099038,6.54351494 C14.1813266,6.03275241 15.2124354,5.77783899 16.3002532,5.77783899 C18.5133165,5.77783899 20.1237063,6.64455595 21.1258937,8.36873924 C21.5888506,9.20115443 21.8161114,10.1985924 21.8161114,11.3655899 L21.8161114,22.8823089 Z" id="Path" fill="#035496"></path>
                        <path d="M38.3683646,12.2087089 L33.9488304,12.2087089 C33.799757,11.354957 33.4542582,10.6847291 32.9131139,10.1952608 C32.3709772,9.70586329 31.7422886,9.46208608 31.0316557,9.46208608 C29.8608304,9.46208608 28.9527089,10.0015291 28.3035342,11.0833215 C27.7837975,12.0000911 27.520243,13.0716759 27.520243,14.2980759 C27.520243,17.8771139 28.6164962,19.6874734 30.811838,19.7301468 C31.5849215,19.7301468 32.2694684,19.476162 32.8655494,18.965357 C33.4607797,18.4537013 33.799757,17.753843 33.8854582,16.8583392 L38.3348354,16.8583392 C38.0861671,18.8152203 37.2451038,20.3910886 35.8134886,21.5859443 C34.3828658,22.782643 32.6616101,23.3907747 30.656243,23.4120405 C28.1470886,23.4120405 26.2236658,22.6018835 24.8861873,20.9787342 C23.6288101,19.4594329 23.0047291,17.432162 23.0047291,14.892243 C23.0047291,12.1873722 23.6110886,10.0442025 24.8256506,8.46372658 C26.1817722,6.69412658 28.1806177,5.81072304 30.811838,5.81072304 C32.9009924,5.81072304 34.6250127,6.3511443 35.9858127,7.43290127 C37.4481215,8.5990481 38.2426127,10.1906532 38.3683646,12.2087089 Z" id="Path" fill="#035496"></path>
                        <path d="M48.9525063,9.40062785 L46.0986329,9.40062785 L46.0986329,22.8825215 L41.7415494,22.8825215 L41.7415494,9.40062785 L39.2947038,9.40062785 L39.2947038,6.24707646 L41.7415494,6.24707646 C41.7415494,2.21197165 44.1026228,0.19209843 48.8285975,0.19209843 L48.8285975,3.75166684 C47.7183797,3.75166684 46.9862684,3.92779747 46.6351696,4.28282329 C46.2737924,4.63414886 46.0986329,5.29044051 46.0986329,6.24707646 L48.9525063,6.24707646 L48.9525063,9.40062785 Z" id="Path" fill="#035496"></path>
                        <polygon id="Path" fill="#035496" points="50.7859747 22.882238 55.2045873 22.882238 55.2045873 6.24683544 50.7859747 6.24683544"></polygon>
                        <polygon id="Path" fill="#035496" points="57.1823797 22.8823797 61.6019139 22.8823797 61.6019139 0.441307646 57.1823797 0.441307646"></polygon>
                        <path d="M79.3931139,15.7348658 L67.8890835,15.7348658 C67.9942785,17.1077165 68.4329924,18.1690937 69.2069975,18.9180759 C69.8748152,19.5437873 70.6890127,19.8534177 71.6530633,19.8534177 C72.3597975,19.8534177 73.0013165,19.6874734 73.5648608,19.3547342 C74.1276962,19.0237671 74.4948861,18.5742076 74.6614684,18.0142785 L79.1740759,18.0142785 C78.675038,19.697681 77.7762025,21.003757 76.4796962,21.9307342 C75.1831899,22.8567899 73.6470886,23.3193924 71.8678481,23.3193924 C66.2898228,23.3193924 63.5011646,20.2909266 63.5011646,14.2359797 C63.5011646,11.678481 64.2071899,9.63355949 65.6192405,8.10312911 C67.0265418,6.57362025 69.0085873,5.81072304 71.5580759,5.81072304 C76.7830886,5.81072304 79.3931139,9.11722532 79.3931139,15.7348658 Z M74.8790886,12.9586127 C74.7770127,11.8425114 74.3942278,10.9655797 73.7371139,10.3268962 C73.0757468,9.68821266 72.3186835,9.36936709 71.4630886,9.36936709 C70.6273418,9.36936709 69.9046582,9.66694684 69.3010633,10.2657215 C68.630481,10.9053266 68.2113316,11.8017519 68.0464506,12.9586127 L74.8790886,12.9586127 Z" id="Shape" fill="#035496"></path>
                        <path d="M55.3192101,2.34290532 C55.3192101,3.59060658 54.3058228,4.60193114 53.0502886,4.60193114 C51.799362,4.60193114 50.7832101,3.59060658 50.7832101,2.34290532 C50.7832101,1.09427544 51.799362,0.0848003038 53.0502886,0.0848003038 C54.3058228,0.0848003038 55.3192101,1.09427544 55.3192101,2.34290532 Z" id="Path" fill="#ED5726"></path>
                        <path d="M4.70764354,2.34290532 C4.70764354,3.59060658 3.69333468,4.60193114 2.43872911,4.60193114 C1.18784506,4.60193114 0.171678987,3.59060658 0.171678987,2.34290532 C0.171678987,1.09427544 1.18784506,0.0848003038 2.43872911,0.0848003038 C3.69333468,0.0848003038 4.70764354,1.09427544 4.70764354,2.34290532 Z" id="Path" fill="#ED5726"></path>
                    </g>
                </g>
            </g>
        </g>
    </g>
</svg>