<svg xmlns="http://www.w3.org/2000/svg" width="70" height="48" viewBox="0 0 70 48">
    <path fill="#EA0B8C" fill-rule="evenodd" d="M.489.838h10.376v27.639c0 4.374 2.016 6.98 3.61 8.096-1.688 1.489-6.845 2.792-10.69-.372C1.52 34.335.49 31.268.49 28.383V.838zm64.846 22.959v-2.905H68.5v-10.19h-3.475C63.69 4.584 58.203 0 51.64 0c-7.56 0-13.69 6.083-13.69 13.587v23.797c2.155.3 4.72-.038 6.904-1.835 2.266-1.865 3.297-4.932 3.297-7.817v-.877h5.182v-10.19h-5.182v-3.078h.012c0-1.906 1.557-3.45 3.477-3.45s3.483 1.544 3.483 3.45v10.21c0 7.503 6.135 13.587 13.695 13.587V27.247c-1.92 0-3.483-1.545-3.483-3.45zM26.037 10.702v14.955c0 .849-.71 1.537-1.585 1.537-.876 0-1.586-.688-1.586-1.537V10.702H12.6v17.589c0 3.164 1.081 7.165 6.001 8.468 4.925 1.304 7.782-1.396 7.782-1.396-.26 1.779-1.948 3.082-4.667 3.361-2.057.211-4.688-.465-6-1.024v9.319c3.344.979 6.88 1.295 10.342.628 6.282-1.21 10.247-6.42 10.247-13.354v-23.59H26.037z"/>
</svg>
