<?xml version="1.0" encoding="UTF-8"?>
<svg width="29px" height="25px" viewBox="0 0 29 25" version="1.1" xmlns="http://www.w3.org/2000/svg" xmlns:xlink="http://www.w3.org/1999/xlink">
    <title>62CF6A13-70E9-4D07-B326-B41D09E683B9</title>
    <g id="Nonprofit" stroke="none" stroke-width="1" fill="none" fill-rule="evenodd">
        <g id="review-entity-types/nonprofit@2x" transform="translate(-425.000000, -2452.000000)" fill="#FD8550">
            <g id="FAQ" transform="translate(425.000000, 2247.000000)">
                <g id="Miscellaneous/Curve/Small/Orange-1" transform="translate(14.500000, 217.500000) scale(-1, 1) translate(-14.500000, -217.500000) translate(0.000000, 205.000000)">
                    <path d="M29,23.6111593 C29,22.8653632 28.4011421,22.26244 27.6456822,22.2267218 C23.4290268,22.0238424 19.2036713,20.8351407 15.3292205,18.5663206 C8.57503175,14.6130302 4.23077469,8.16518063 2.7851057,1.11583658 C2.65315397,0.467194062 2.07894643,0 1.40758761,0 C0.517275919,0 -0.148282822,0.805802603 0.0286195009,1.66589687 C1.62654049,9.45675076 6.42610352,16.5818174 13.8908016,20.9522964 C18.184308,23.465429 22.8678695,24.7798588 27.5412808,24.9984542 C28.3373413,25.0356011 29,24.3983884 29,23.612588 L29,23.6111593 Z" id="curve" transform="translate(14.500000, 12.500000) scale(-1, -1) rotate(-360.000000) translate(-14.500000, -12.500000) "></path>
                </g>
            </g>
        </g>
    </g>
</svg>