<?xml version="1.0" encoding="UTF-8"?>
<svg width="32px" height="20px" viewBox="0 0 32 20" version="1.1" xmlns="http://www.w3.org/2000/svg" xmlns:xlink="http://www.w3.org/1999/xlink">
    <title>FFECC2CA-08D6-498E-8DB7-E22F83A578D7</title>
    <g id="Nonprofit" stroke="none" stroke-width="1" fill="none" fill-rule="evenodd">
        <g id="review-entity-type/nonprofit@2x" transform="translate(-279.000000, -800.000000)">
            <g id="Information" transform="translate(255.000000, 770.000000)">
                <g id="Modul/Tab/Active">
                    <g id="icon/review-entity-types/color/overview" transform="translate(24.000000, 23.500000)">
                        <g id="20200406_ICON_ICON-135" transform="translate(1.000000, 7.000000)">
                            <path d="M28.69,9.64 C26.345468,6.48608932 23.0281709,4.19139122 19.25,3.11 C21.6182938,4.57086189 23.0573617,7.15739711 23.05,9.94 C23.05,11.69 21.93,13.14 20.32,14.28 C20.9787212,13.136635 21.3236935,11.8395391 21.32,10.52 C21.3226545,8.50792695 20.5252216,6.57735427 19.103408,5.15366497 C17.6815945,3.72997567 15.7520748,2.92999825 13.74,2.93 C9.55,2.93 8.9,3.85 11.74,2.59 C7.17571098,3.22026071 3.03092072,5.58820052 0.17,9.2 C0.09456074,9.74915051 0.238246178,10.3059316 0.57,10.75 C2.86,13.82 10.64,18.44 14.84,18 C20.05,18.71 26.4,14.61 29.09,11.2 C29.1648814,10.6477529 29.0213752,10.0880788 28.69,9.64 Z" id="Path" fill="#E0F1FA" fill-rule="nonzero"></path>
                            <path d="M29.42,10.75 L29.09,11.18 C25.6160505,15.5533556 20.3087766,18.0663176 14.7242019,17.9821182 C9.13962722,17.8979188 3.910525,15.2260984 0.57,10.75 C0.238246178,10.3059316 0.09456074,9.74915051 0.17,9.2 C0.213223303,8.83732896 0.351181678,8.49243303 0.57,8.2 C3.96764689,3.64785541 9.31468093,0.966586042 14.995,0.966586042 C20.6753191,0.966586042 26.0223531,3.64785541 29.42,8.2 C29.9883389,8.95499733 29.9883389,9.99500267 29.42,10.75 Z" id="Path" stroke="#1D1D1B" stroke-width="1.4" stroke-linecap="round" stroke-linejoin="round"></path>
                            <circle id="Oval" stroke="#1D1D1B" stroke-width="1.4" stroke-linecap="round" stroke-linejoin="round" cx="15" cy="9.48" r="7.58"></circle>
                        </g>
                    </g>
                </g>
            </g>
        </g>
    </g>
</svg>