<?xml version="1.0" encoding="UTF-8"?>
<svg width="24px" height="21px" viewBox="0 0 24 21" version="1.1" xmlns="http://www.w3.org/2000/svg" xmlns:xlink="http://www.w3.org/1999/xlink">
    <title>8C82320A-C446-4A6D-9685-85C9C6FEDE2A</title>
    <g id="Nonprofit" stroke="none" stroke-width="1" fill="none" fill-rule="evenodd">
        <g id="review-entity-type/nonprofit@2x" transform="translate(-231.000000, -3966.000000)" fill="#F2CFCF">
            <g id="Section/Related-Articles" transform="translate(231.000000, 3579.000000)">
                <path d="M24,406.833374 C24,406.206905 23.5043935,405.70045 22.8791853,405.670446 C19.3895394,405.500028 15.8926935,404.501518 12.6862514,402.595709 C7.096578,399.274945 3.50133078,393.858752 2.30491506,387.937303 C2.19571363,387.392443 1.72050739,387 1.16490009,387 C0.428090415,387 -0.122716819,387.676874 0.0236851042,388.399353 C1.34610247,394.943671 5.31815464,400.928727 11.4958358,404.599929 C15.0490824,406.71096 18.9251333,407.815081 22.7927841,407.998701 C23.4515928,408.029905 24,407.494646 24,406.834574 L24,406.833374 Z" id="curve" transform="translate(12.000000, 397.500000) scale(-1, -1) rotate(-180.000000) translate(-12.000000, -397.500000) "></path>
            </g>
        </g>
    </g>
</svg>