<?xml version="1.0" encoding="UTF-8"?>
<svg width="32px" height="32px" viewBox="0 0 32 32" version="1.1" xmlns="http://www.w3.org/2000/svg" xmlns:xlink="http://www.w3.org/1999/xlink">
    <title>118BDA63-A6D9-42B7-9652-B15891FC4411</title>
    <g id="Nonprofit" stroke="none" stroke-width="1" fill="none" fill-rule="evenodd">
        <g id="review-entity-types/nonprofit@2x" transform="translate(-1394.000000, -4790.000000)" fill="#E18370" fill-rule="nonzero">
            <g id="footer" transform="translate(0.000000, 4102.000000)">
                <g id="icons-social">
                    <g transform="translate(1218.000000, 688.000000)">
                        <path d="M192,0 C183.164,0 176,7.164 176,16 C176,24.836 183.164,32 192,32 C200.836,32 208,24.836 208,16 C208,7.164 200.836,0 192,0 Z M192,25.3333333 C191.038667,25.3333333 190.109333,25.188 189.236,24.9173333 C189.617333,24.2973333 190.186667,23.2813333 190.396,22.4706667 L190.978667,20.252 C191.284,20.8333333 192.172,21.324 193.117333,21.324 C195.932,21.324 197.961333,18.736 197.961333,15.5186667 C197.961333,12.436 195.444,10.1293333 192.206667,10.1293333 C188.178667,10.1293333 186.04,12.832 186.04,15.776 C186.04,17.1453333 186.769333,18.8493333 187.936,19.392 C188.112,19.4746667 188.206667,19.4373333 188.248,19.2666667 L188.505333,18.2093333 C188.528,18.1146667 188.517333,18.0333333 188.44,17.94 C188.056,17.4733333 187.745333,16.6133333 187.745333,15.8106667 C187.745333,13.752 189.304,11.76 191.96,11.76 C194.253333,11.76 195.858667,13.3226667 195.858667,15.5573333 C195.858667,18.0826667 194.582667,19.8306667 192.924,19.8306667 C192.008,19.8306667 191.322667,19.0733333 191.542667,18.144 C191.805333,17.0333333 192.316,15.8373333 192.316,15.036 C192.316,14.32 191.932,13.7213333 191.134667,13.7213333 C190.198667,13.7213333 189.444,14.6906667 189.444,15.988 C189.444,16.816 189.725333,17.3746667 189.725333,17.3746667 C189.725333,17.3746667 188.8,21.2866667 188.630667,22.0133333 C188.441333,22.82 188.516,23.952 188.597333,24.6906667 C185.126667,23.3306667 182.666667,19.9533333 182.666667,16 C182.666667,10.8453333 186.846667,6.66666667 192,6.66666667 C197.153333,6.66666667 201.333333,10.8453333 201.333333,16 C201.333333,21.1546667 197.153333,25.3333333 192,25.3333333 L192,25.3333333 Z" id="pinterest"></path>
                    </g>
                </g>
            </g>
        </g>
    </g>
</svg>