<?xml version="1.0" encoding="UTF-8"?>
<svg width="29px" height="25px" viewBox="0 0 29 25" version="1.1" xmlns="http://www.w3.org/2000/svg" xmlns:xlink="http://www.w3.org/1999/xlink">
    <title>586771F7-D78B-488C-B890-1E1CB935DAF5</title>
    <g id="Nonprofit" stroke="none" stroke-width="1" fill="none" fill-rule="evenodd">
        <g id="review-entity-types/nonprofit@2x" transform="translate(-1425.000000, -3664.000000)" fill="#C9A3EE">
            <g id="Section/Related-Articles" transform="translate(231.000000, 3579.000000)">
                <path d="M1223,108.611159 C1223,107.865363 1222.40114,107.26244 1221.64568,107.226722 C1217.42903,107.023842 1213.20367,105.835141 1209.32922,103.566321 C1202.57503,99.6130302 1198.23077,93.1651806 1196.78511,86.1158366 C1196.65315,85.4671941 1196.07895,85 1195.40759,85 C1194.51728,85 1193.85172,85.8058026 1194.02862,86.6658969 C1195.62654,94.4567508 1200.4261,101.581817 1207.8908,105.952296 C1212.18431,108.465429 1216.86787,109.779859 1221.54128,109.998454 C1222.33734,110.035601 1223,109.398388 1223,108.612588 L1223,108.611159 Z" id="curve" transform="translate(1208.500000, 97.500000) rotate(-180.000000) translate(-1208.500000, -97.500000) "></path>
            </g>
        </g>
    </g>
</svg>