<?xml version="1.0" encoding="UTF-8"?>
<svg width="168px" height="168px" viewBox="0 0 168 168" version="1.1" xmlns="http://www.w3.org/2000/svg" xmlns:xlink="http://www.w3.org/1999/xlink">
    <title>Rings</title>
    <g id="/start-a-business/amazon-business" stroke="none" stroke-width="1" fill="none" fill-rule="evenodd">
        <g id="/start-a-business/amazon-business_2" transform="translate(-791.000000, -2293.000000)" stroke-width="8">
            <g id="Modul/Chart/Static2-Copy-2" transform="translate(755.000000, 2257.000000)">
                <g id="Rings" transform="translate(40.000000, 40.000000)">
                    <circle id="Oval" stroke="#F2F6FF" cx="80" cy="80" r="80"></circle>
                    <g id="Group" transform="translate(15.000000, 15.000000)" stroke="#F2F6FF">
                        <circle id="Oval-Copy" cx="65" cy="65" r="65"></circle>
                    </g>
                    <circle id="Oval-Copy" stroke="#F2F6FF" cx="80" cy="80" r="50"></circle>
                    <circle id="Oval-Copy-4" stroke="#F2F6FF" cx="80" cy="81" r="35"></circle>
                    <circle id="Oval-Copy-4" stroke="#F2F6FF" cx="80" cy="81" r="20"></circle>
                    <circle id="Oval-Copy-4" stroke="#F2F6FF" cx="80" cy="81" r="5"></circle>
                    <g id="Group" stroke-linecap="round">
                        <path d="M80,0 C96.894,0 113.355,5.3484 127.023,15.2786 C140.691,25.2089 150.864,39.2112 156.085,55.2786 C161.305,71.3461 161.305,88.6539 156.085,104.721 C150.864,120.789 140.691,134.791 127.023,144.721 C113.355,154.652 96.894,160 80,160 C63.1057,160 46.645,154.652 32.9772,144.721 C19.3094,134.791 9.1361,120.789 3.91548,104.721 C-1.30516,88.6539 -1.30516,71.3461 3.91548,55.2786" id="Path" stroke="#5089FD"></path>
                        <path d="M80,15 C93.7266,15 107.101,19.3456 118.206,27.4139 C129.311,35.4822 137.577,46.8591 141.819,59.9139 C146.06,72.9687 146.06,87.0313 141.819,100.086 C137.577,113.141 129.311,124.518 118.206,132.586 C107.101,140.654 93.7266,145 80,145 C66.2733,145 52.899,140.654 41.794,132.586 C30.6889,124.518 22.4231,113.141 18.1813,100.086 C13.9396,87.0313 13.9396,72.9687 18.1813,59.9139" id="Path" stroke="#97E0C7"></path>
                        <path d="M80,30 C90.1568,30 100.073,33.0932 108.428,38.868 C116.783,44.6427 123.182,52.8252 126.772,62.3263 C130.362,71.8274 130.974,82.1965 128.525,92.0538 C126.077,101.911 120.684,110.789 113.066,117.506 C105.447,124.222 95.9633,128.46 85.8769,129.653 C75.7905,130.847 65.5797,128.941 56.6035,124.188 C47.6273,119.436 40.3113,112.062 35.6293,103.049 C30.9473,94.0355 29.1213,83.81 30.3943,73.7333" id="Path" stroke="#F1A0A0"></path>
                        <path d="M80,45 C89.0923,45 97.828,48.5382 104.357,54.8656 C110.886,61.1929 114.697,69.8129 114.983,78.9006 C115.268,87.9883 112.006,96.831 105.887,103.555 C99.768,110.28 91.272,114.36 82.1977,114.931" id="Path" stroke="#C8A3EC"></path>
                        <path d="M80,60 C83.7952,60 87.5121,61.0799 90.7165,63.1134 C93.9209,65.147 96.481,68.0504 98.097,71.4844 C99.712,74.9184 100.318,78.7414 99.842,82.5067 C99.367,86.272 97.829,89.8242 95.4103,92.7485" id="Path" stroke="#F3D699"></path>
                        <path d="M80,75 C80.789,75 81.5669,75.1868 82.2699,75.545 C82.973,75.9032 83.5813,76.4227 84.045,77.0611" id="Path" stroke="#A6D5E9"></path>
                    </g>
                </g>
            </g>
        </g>
    </g>
</svg>