<svg xmlns="http://www.w3.org/2000/svg" width="168" height="168" viewBox="0 0 168 168">
    <g fill="none" fill-rule="evenodd" stroke-width="8" transform="translate(4 4)">
        <circle cx="80" cy="80" r="80" stroke="#F2F6FF"/>
        <g stroke-linecap="round">
            <path stroke="#5089FD" d="M80 0c18.185 0 35.827 6.196 50.019 17.566 14.193 11.37 24.087 27.235 28.054 44.983 3.967 17.747 1.769 36.316-6.231 52.646-8 16.331-21.325 29.448-37.78 37.191"/>
            <path stroke="#97E0C7" d="M124.366 146.57c-9.446 6.296-20.125 10.509-31.325 12.36-11.2 1.85-22.666 1.296-33.636-1.626-10.97-2.923-21.192-8.147-29.987-15.324-8.795-7.178-15.962-16.146-21.024-26.307"/>
            <path stroke="#F1A0A0" d="M7.793 114.099C2.101 101.885-.414 88.431.483 74.986c.896-13.446 5.173-26.447 12.436-37.797"/>
            <path stroke="#C8A3EC" d="M13.523 36.09c9.278-14.12 22.408-24.962 38.212-30.93"/>
            <path stroke="#F3D699" d="M53.507 4.514c4.747-1.666 9.64-2.88 14.614-3.627"/>
        </g>
    </g>
</svg>
