<svg xmlns="http://www.w3.org/2000/svg" width="168" height="168" viewBox="0 0 168 168">
    <g fill="none" fill-rule="evenodd" stroke-width="8" transform="translate(4 4)">
        <circle cx="80" cy="80" r="80" stroke="#F2F6FF"/>
        <path stroke="#5089FD" stroke-linecap="round" d="M80 0c13.475 0 26.732 3.404 38.54 9.896 11.809 6.491 21.786 15.86 29.006 27.238 7.22 11.377 11.45 24.394 12.296 37.843.846 13.448-1.718 26.893-7.456 39.085"/>
        <g transform="translate(15 15)">
            <circle cx="65" cy="65" r="65" stroke="#F2F6FF"/>
            <path stroke="#97E0C7" stroke-linecap="round" d="M65 0c13.727 0 27.101 4.346 38.206 12.414 11.105 8.068 19.371 19.445 23.613 32.5"/>
        </g>
        <circle cx="80" cy="80" r="50" stroke="#F2F6FF"/>
        <path stroke="#F1A0A0" stroke-linecap="round" d="M80 30c10.023 0 19.814 3.012 28.104 8.646s14.695 13.629 18.385 22.948"/>
        <circle cx="80" cy="81" r="35" stroke="#F2F6FF"/>
        <path stroke="#C8A3EC" stroke-linecap="round" d="M98.092 51.033C92.812 47.838 86.621 46 80 46"/>
        <circle cx="80" cy="81" r="20" stroke="#F2F6FF"/>
        <path stroke="#F3D699" stroke-linecap="round" d="M80 61c3.795 0 7.512 1.08 10.717 3.113"/>
    </g>
</svg>
