<svg xmlns="http://www.w3.org/2000/svg" width="168" height="168" viewBox="0 0 168 168">
    <g fill="none" fill-rule="evenodd">
        <g stroke-width="8">
            <g>
                <g transform="translate(-36 -2035) translate(0 1999) translate(40 40)">
                    <circle cx="80" cy="80" r="80" stroke="#F2F6FF"/>
                    <g stroke="#F2F6FF" transform="translate(15 15)">
                        <circle cx="65" cy="65" r="65"/>
                    </g>
                    <circle cx="80" cy="80" r="50" stroke="#F2F6FF"/>
                    <circle cx="80" cy="81" r="35" stroke="#F2F6FF"/>
                    <path stroke="#C8A3EC" stroke-linecap="round" d="M109.313 61.867C103.063 52.313 92.269 46 80 46"/>
                    <circle cx="80" cy="81" r="20" stroke="#F2F6FF"/>
                    <path stroke="#F3D699" stroke-linecap="round" d="M93.588 66.324C90.02 63.02 85.246 61 80 61"/>
                    <circle cx="80" cy="81" r="5" stroke="#F2F6FF"/>
                    <path stroke="#A6D5E9" stroke-linecap="round" d="M80.843 76.07c-.274-.046-.556-.07-.843-.07"/>
                    <g stroke-linecap="round">
                        <path stroke="#5089FD" d="M0 0c16.894 0 33.355 5.348 47.023 15.279 13.668 9.93 23.841 23.932 29.062 40 5.22 16.067 5.22 33.375 0 49.442-5.221 16.068-15.394 30.07-29.062 40" transform="translate(80)"/>
                        <path stroke="#97E0C7" d="M0 15c13.727 0 27.101 4.346 38.206 12.414 11.105 8.068 19.371 19.445 23.613 32.5 1.8 5.538 2.835 11.258 3.108 17.005" transform="translate(80)"/>
                        <path stroke="#F1A0A0" d="M0 30c10.157 0 20.073 3.093 28.428 8.868s14.754 13.957 18.344 23.458" transform="translate(80)"/>
                    </g>
                </g>
            </g>
        </g>
    </g>
</svg>
