<?xml version="1.0" encoding="UTF-8"?>
<svg width="16px" height="16px" viewBox="0 0 16 16" version="1.1" xmlns="http://www.w3.org/2000/svg" xmlns:xlink="http://www.w3.org/1999/xlink">
    <title>649829EC-D951-4634-A237-2B50DE523393</title>
    <g id="Nonprofit" stroke="none" stroke-width="1" fill="none" fill-rule="evenodd">
        <g id="review-entity-type/nonprofit@2x" transform="translate(-795.000000, -1880.000000)" fill="#FD8550" fill-rule="nonzero">
            <g id="Launch+Dropdown" transform="translate(0.000000, 1512.000000)">
                <g id="Modul/Search/Active" transform="translate(755.000000, 336.000000)">
                    <g id="form-a-limited">
                        <g id="1">
                            <g id="Icon/16/search" transform="translate(40.000000, 32.000000)">
                                <path d="M6.8,0 C10.5555363,0 13.6,3.0444637 13.6,6.8 C13.6,8.38952318 13.0546182,9.85166562 12.1407728,11.0095092 L15.7656854,14.6343146 C16.0781049,14.946734 16.0781049,15.453266 15.7656854,15.7656854 C15.4772983,16.0540726 15.0235134,16.0762562 14.7096804,15.8322363 L14.6343146,15.7656854 L11.0095092,12.1407728 C9.85166562,13.0546182 8.38952318,13.6 6.8,13.6 C3.0444637,13.6 0,10.5555363 0,6.8 C0,3.0444637 3.0444637,0 6.8,0 Z M6.8,1.6 C3.9281193,1.6 1.6,3.9281193 1.6,6.8 C1.6,9.6718807 3.9281193,12 6.8,12 C8.22552946,12 9.51708263,11.4263793 10.456431,10.4973663 C10.4605835,10.4882957 10.4673719,10.4812572 10.4743146,10.4743146 L10.498359,10.455427 C11.4267879,9.51616237 12,8.22502162 12,6.8 C12,3.9281193 9.6718807,1.6 6.8,1.6 Z" id="Combined-Shape"></path>
                            </g>
                        </g>
                    </g>
                </g>
            </g>
        </g>
    </g>
</svg>