<svg xmlns="http://www.w3.org/2000/svg" width="180" height="36" viewBox="0 0 180 36">
    <g fill="none">
        <path fill="#51AF33" d="M130.967 28.44h-2.734c-.408.008-.803-.148-1.093-.432-.29-.284-.45-.672-.445-1.075h-.05c-.72 1.377-2.501 1.996-4.171 1.996-4.525 0-7.177-3.512-7.177-7.543 0-4.62 3.37-7.523 7.177-7.523 1.648-.098 3.23.658 4.17 1.996h.05c-.007-.4.15-.787.436-1.071.286-.284.677-.441 1.083-.436h2.754V28.44zm-7.845-3.472c.966.014 1.896-.364 2.571-1.045.676-.68 1.038-1.605 1.002-2.557.135-1.338-.516-2.634-1.678-3.339-1.16-.704-2.628-.694-3.78.027-1.15.721-1.782 2.026-1.628 3.362-.023 1.932 1.542 3.519 3.502 3.552h.01zm12.693-15.325h1.306v5.817c1.097-1.08 2.602-1.658 4.15-1.597 2.986 0 7.025 2.105 7.025 7.433 0 5.068-3.573 7.613-7.207 7.613-1.605.052-3.129-.698-4.049-1.996v1.507h-4.272V12.566c.039-1.63 1.393-2.929 3.047-2.923zm4.606 15.335c1.938-.078 3.475-1.638 3.497-3.55.021-1.91-1.48-3.504-3.416-3.624-.955-.011-1.873.361-2.543 1.031-.67.67-1.035 1.58-1.01 2.521-.053.94.29 1.86.946 2.543.657.684 1.57 1.07 2.526 1.069v.01zm11.975-15.335h1.265v5.817c1.098-1.079 2.602-1.657 4.15-1.597 2.987 0 7.026 2.105 7.026 7.433 0 5.068-3.574 7.613-7.208 7.613-1.605.052-3.128-.698-4.049-1.996v1.507h-4.18V12.566c.038-1.61 1.362-2.902 2.996-2.923zm4.596 15.335c1.938-.078 3.475-1.638 3.496-3.55.022-1.91-1.48-3.504-3.415-3.624-.955-.011-1.873.361-2.543 1.031-.67.67-1.035 1.58-1.01 2.521-.053.94.289 1.86.946 2.543.657.684 1.57 1.07 2.526 1.069v.01zm13.24 3.462h-4.18V17.295c-.025-.785.274-1.547.83-2.11.554-.565 1.318-.883 2.115-.883h1.225l.01 14.138z"/>
        <circle cx="168.186" cy="11.104" r="2.045" fill="#51AF33"/>
        <path fill="#51AF33" d="M113.258 24.536c-.735-.044-1.422-.378-1.911-.929l-.685-.877-.347-.409c2.884-.53 4.924-3.118 4.763-6.043.054-2.01-.802-3.938-2.33-5.247-1.248-.96-2.556-1.388-5.929-1.388h-6.133v19.242h4.723v-5.757l1.83 2.297.725.908c1.317 1.569 3.245 2.498 5.294 2.552h1.912v-4.349h-1.912zm-6.132-5.195h-1.687V14h1.738c1.89 0 3.168.848 3.168 2.594.031.928-.306 2.746-3.189 2.746h-.03zm71.833 5.195c-.456-.017-.903-.135-1.308-.347-.651-.353-1.01-1.075-.9-1.806v-4.635h2.811v-3.369h-2.81V9.653h-1.278c-1.694 0-3.067 1.371-3.067 3.062v9.708c-.04 1.744.64 3.428 1.878 4.657 1.239 1.23 2.928 1.897 4.674 1.846h.624v-4.39h-.624z"/>
        <path fill="#254F17" d="M49.514 14.059H45.17v-1.356c-.036-.803.258-1.585.814-2.164.556-.578 1.325-.902 2.126-.896h10.499v4.345h-4.202v14.94h-1.831c-1.686 0-3.052-1.37-3.052-3.059l-.01-11.81z"/>
        <path fill="#254F17" d="M71.617 28.44h-2.77c-.414.008-.814-.148-1.108-.432-.294-.284-.457-.672-.451-1.075h-.103c-.728 1.377-2.533 1.996-4.226 1.996-4.585 0-7.273-3.512-7.273-7.542 0-4.619 3.416-7.522 7.273-7.522 1.67-.098 3.273.658 4.226 1.996h.052c-.009-.4.15-.787.44-1.071.29-.284.687-.441 1.098-.436h2.79l.052 14.086zm-7.95-3.472c.98.015 1.921-.363 2.606-1.044.685-.68 1.052-1.605 1.015-2.557.137-1.337-.523-2.633-1.7-3.338-1.177-.705-2.664-.694-3.83.027-1.166.72-1.807 2.026-1.65 3.361-.023 1.935 1.569 3.524 3.559 3.551zm16.145-6.683c0-.28-.082-1.058-1.354-1.058-.913 0-1.22.559-1.22.938 0 .758 1.026 1.197 2.215 1.526 2.452.659 5.057 1.367 5.057 4.41 0 3.042-2.687 4.768-5.887 4.768-2.196 0-5.499-.998-5.888-4.689h4.298c.026.392.214.758.52 1.013.308.256.708.38 1.11.344.729 0 1.508-.39 1.508-1.077 0-1.088-1.025-1.208-3.836-2.255-1.877-.579-3.436-1.776-3.446-3.671 0-2.793 2.605-4.649 5.61-4.649 1.908 0 5.19.729 5.55 4.43l-4.237-.03zm5.775 6.394v3.76h4.37v-6.693s.605.868 2.298 3.382c2.226 3.322 6.637 3.342 6.821 3.342h1.026v-3.731h-1.026s-2.605 0-3.713-1.686l-1.508-2.205-.174-.299 5.447-6.205h-5.13l-4.01 5.078h-.051v-6.853c.018-.793-.303-1.557-.887-2.111-.583-.554-1.376-.848-2.19-.812h-1.273v15.033z"/>
        <path fill="#51AF33" d="M39.052 16.239c-2.025-3.364-3.504-3.78-4.78-4.154-1.083-.314-2.025-.587-3.827-3.617-1.29-2.174-2.933-4.118-4.86-5.754C23.175.708 21.433.293 20.42.293c-.661-.014-1.31.18-1.853.557l-.82.588c-.244-.075-.495-.12-.75-.132-.408-.013-.81.116-1.134.365-.407.35-.6.889-.506 1.418.195.885.637 1.697 1.276 2.34.283.335.607.7 1.012 1.074-5.277-.96-10.654 1.07-13.983 5.278h-.314c-1.098-.014-2.123.547-2.704 1.48-.487.761-.609 1.7-.334 2.562.142.46.38.885.699 1.246-1.913 7.096 1.78 14.501 8.595 17.24 6.816 2.74 14.602-.053 18.126-6.501.247.014.493.014.74 0 .612.02 1.22-.11 1.772-.375.618-.298 1.037-.897 1.103-1.58.059-.701-.272-1.378-.86-1.763-.379-.244-.787-.438-1.216-.577.061-.325.112-.662.152-1.014 1.01.332 2.068.486 3.13.456.455 0 .94 0 1.579-.06 3.473-.213 4.85-1.5 5.397-2.533.445-.76.719-2.178-.476-4.123z"/>
        <path fill="#FFF" d="M38.736 17.126c-3.63-6.041-4.882-1.685-8.759-7.91C26.9 4.18 22.131.595 19.823 1.643c-.06.023-.098.08-.098.144 0 .063.039.12.098.143 2.287.935 7.18 5.024 9.323 9.144.019.029.02.066.004.096-.016.031-.048.05-.082.052-.035.001-.067-.016-.086-.046C26.357 7.85 18.244 1.541 16.85 2.65c-1.149.915 4.954 6.72 9.928 9.246.055.027.097.075.117.133.02.058.014.121-.014.176-.226.41-.78 1.027-2.298.976-2.625 0-5.128-3.884-10.81-3.956-3.49-.046-6.822 1.46-9.098 4.11-.041.034-.102.034-.143 0-1.005-.531-2.248-.211-2.872.74-.61.979-.333 2.266.626 2.907.087.052.126.16.092.257-.415 1.295-.629 2.646-.636 4.006.05 6.51 5.327 11.762 11.826 11.773 2.24.033 4.44-.604 6.318-1.828 1.815-1.1 3.149-2.548 2.8-3.596-.503-1.52-2.698-1.027-4.923-.154-.062.017-.128-.01-.161-.064-.033-.055-.026-.125.017-.172 1.897-1.975 2.432-4.894 1.359-7.415s-3.546-4.156-6.282-4.153c-2.79-.165-5.365 1.497-6.37 4.11-.022.087-.112.14-.2.117-.087-.022-.14-.112-.117-.2.711-3.262 3.521-5.639 6.851-5.794 2.761-.168 5.386 1.217 6.809 3.592 1.423 2.376 1.408 5.348-.04 7.709-.057.083-.049.195.02.27.07.074.18.09.268.038.815-.455 1.538-1.057 2.133-1.778.02-.022.047-.034.077-.034s.057.012.077.034c3.692 4.048 8.42 4.11 8.544 2.548.143-1.787-4.421-.626-4.708-5.065 0-.038.022-.074.056-.091.035-.018.077-.014.108.01.273.223.646.28.973.148.327-.133.556-.434.596-.786.007-.035.031-.064.065-.077.033-.012.071-.006.1.016 1.968 1.92 3.968 2.054 6.697 1.849 3.897-.216 5.713-2.363 4.102-5.126zm-3.538 0c-.536-.026-.991-.403-1.118-.925-.058-.241 0-.496.157-.688.157-.191.395-.298.643-.288.559.023 1.03.426 1.138.976.06.247-.001.507-.166.7-.164.194-.412.296-.664.276l.01-.051z"/>
    </g>
</svg>
