<svg xmlns="http://www.w3.org/2000/svg" width="150" height="47" viewBox="0 0 150 47">
    <g fill="#204ECF">
        <path d="M8.648 27.574l11.6-11.67 2.39 2.405-11.603 11.668-2.387-2.403zm22.894-8.188L12.266 0 8.368 3.92l7.228 7.27L0 26.875l19.275 19.387 3.898-3.921-7.228-7.273 15.597-15.682zM44.005 5.607v5.989h6.462v3.458h-6.462v13.473c0 3.099.872 4.854 3.385 4.854 1.23 0 1.95-.104 2.616-.31l.204 3.46c-.87.308-2.256.619-4 .619-2.102 0-3.795-.725-4.872-1.911-1.23-1.393-1.743-3.613-1.743-6.557V15.054h-3.847v-3.458h3.847V6.949l4.41-1.342M55.002 24.207c0 5.444 3.022 9.551 7.356 9.551 4.232 0 7.407-4.056 7.407-9.654 0-4.211-2.067-9.5-7.306-9.5-5.19 0-7.457 4.93-7.457 9.603zm19.297-.256c0 9.191-6.298 13.199-12.142 13.199-6.551 0-11.69-4.931-11.69-12.788 0-8.268 5.391-13.147 12.093-13.147 7.003 0 11.74 5.186 11.74 12.736zM81.649 26.257c0 .66.05 1.267.2 1.823.8 3.09 3.446 5.216 6.595 5.216 4.645 0 7.343-3.849 7.343-9.47 0-4.862-2.548-9.066-7.193-9.066-2.999 0-5.846 2.128-6.646 5.47-.15.556-.3 1.216-.3 1.772v4.255zm-4.347-6.533c0-3.14-.1-5.673-.2-8.003h3.896l.252 4.203h.098c1.75-2.987 4.648-4.709 8.594-4.709 5.895 0 10.292 5.014 10.292 12.407 0 8.814-5.347 13.17-11.04 13.17-3.198 0-5.997-1.418-7.447-3.849h-.098v13.319h-4.347V19.724zM107.79 5.607v5.989h6.462v3.458h-6.461v13.473c0 3.099.871 4.854 3.385 4.854 1.23 0 1.947-.104 2.615-.31l.205 3.46c-.873.308-2.257.619-4 .619-2.103 0-3.795-.725-4.872-1.911-1.232-1.393-1.744-3.613-1.744-6.557V15.054h-3.847v-3.458h3.847V6.949l4.41-1.342M130.592 23.9c-4.896-.104-10.452.77-10.452 5.598 0 2.977 1.936 4.313 4.18 4.313 3.263 0 5.355-2.055 6.067-4.16.154-.513.205-1.028.205-1.438V23.9zm4.333 6.726c0 2.158.102 4.263.355 5.958h-4.027l-.355-3.133h-.153c-1.379 1.952-4.028 3.699-7.546 3.699-4.997 0-7.545-3.545-7.545-7.14 0-6.008 5.303-9.295 14.835-9.244v-.512c0-2.004-.56-5.752-5.609-5.701-2.345 0-4.74.667-6.474 1.848l-1.019-3.03c2.038-1.284 5.046-2.156 8.157-2.156 7.546 0 9.381 5.186 9.381 10.116v9.295zM138.084 36.449L142.29 36.449 142.29 0 138.084 0zM147.897 4.206c-1.16 0-2.103-.943-2.103-2.103 0-1.17.943-2.103 2.103-2.103 1.17 0 2.103.932 2.103 2.103 0 1.16-.932 2.103-2.103 2.103zm0-3.908c-1.002 0-1.815.793-1.815 1.805 0 .992.813 1.815 1.815 1.815s1.805-.823 1.805-1.815c0-1.012-.803-1.805-1.805-1.805zm.575 3.015l-.624-.952h-.437v.952h-.317V.903h.982c.416 0 .763.287.763.734 0 .535-.476.714-.614.714l.644.962h-.397zm-.396-2.123h-.665v.873h.665c.228 0 .436-.178.436-.426 0-.268-.208-.447-.436-.447z"/>
    </g>
</svg>
