<?xml version="1.0" encoding="UTF-8"?>
<svg width="32px" height="32px" viewBox="0 0 32 32" version="1.1" xmlns="http://www.w3.org/2000/svg" xmlns:xlink="http://www.w3.org/1999/xlink">
    <title>D40CC8B3-E566-4885-ACB6-1F7337BB1AA0</title>
    <g id="Nonprofit" stroke="none" stroke-width="1" fill="none" fill-rule="evenodd">
        <g id="review-entity-type/nonprofit@2x" transform="translate(-1262.000000, -4790.000000)" fill="#8AC7E0" fill-rule="nonzero">
            <g id="footer" transform="translate(0.000000, 4102.000000)">
                <g id="icons-social">
                    <g transform="translate(1218.000000, 688.000000)">
                        <path d="M60,0 C51.164,0 44,7.164 44,16 C44,24.836 51.164,32 60,32 C68.836,32 76,24.836 76,16 C76,7.164 68.836,0 60,0 Z M68.088,12.86 C68.332,18.2466667 64.3146667,24.252 57.2026667,24.252 C55.04,24.252 53.028,23.6173333 51.3333333,22.5306667 C53.3653333,22.7706667 55.3933333,22.2053333 57.0026667,20.9453333 C55.328,20.9146667 53.9133333,19.8066667 53.424,18.2853333 C54.0253333,18.4 54.6173333,18.3666667 55.1546667,18.22 C53.3133333,17.8493333 52.0413333,16.1906667 52.0826667,14.416 C52.6,14.7026667 53.1893333,14.8746667 53.8173333,14.8946667 C52.112,13.7546667 51.6293333,11.5026667 52.632,9.78133333 C54.52,12.0986667 57.3426667,13.6226667 60.5253333,13.7826667 C59.9666667,11.388 61.784,9.08 64.2573333,9.08 C65.3573333,9.08 66.3533333,9.54533333 67.052,10.2893333 C67.924,10.1186667 68.7453333,9.79866667 69.484,9.36 C69.1973333,10.2546667 68.5906667,11.004 67.8,11.4786667 C68.5746667,11.3853333 69.3133333,11.18 69.9986667,10.8746667 C69.4866667,11.6453333 68.8386667,12.32 68.088,12.86 L68.088,12.86 Z" id="twitter"></path>
                    </g>
                </g>
            </g>
        </g>
    </g>
</svg>