<svg xmlns="http://www.w3.org/2000/svg" width="663" height="646" viewBox="0 0 663 646">
    <defs>
        <linearGradient id="1nadlk2f5a" x1="-99.219%" x2="100%" y1="53.346%" y2="47.947%">
            <stop offset="0%" stop-color="#FFF" stop-opacity="0"/>
            <stop offset="100%" stop-color="#FCE7D0"/>
        </linearGradient>
    </defs>
    <g fill="none" fill-opacity=".6" fill-rule="evenodd">
        <path fill="url(#1nadlk2f5a)" d="M1192.569 689.304c0-.467-.466-5.652-1.036-11.563-.57-5.858-2.642-28.412-4.663-50.085-2.02-21.673-4.092-44.278-4.662-50.293-.57-5.962-2.642-28.62-4.662-50.293-2.02-21.672-4.093-44.278-4.663-50.292-.57-5.963-2.072-22.295-3.367-36.242-1.295-14-2.435-25.458-2.538-25.562-.104-.103-9.014.985-19.79 2.385-10.827 1.452-32.118 4.252-47.349 6.274-54.964 7.259-87.03 11.51-99.723 13.17-7.097.985-13.003 1.659-13.106 1.607-.104-.104.622-3.007 1.606-6.481l1.71-6.326 6.32-4.044 6.32-4.096v-8.866l34.708-36.242 34.71-36.294V329.165l4.144-5.444c2.279-3.007 4.144-5.755 4.144-6.066 0-.31-.674-4.2-1.502-8.607l-1.503-8.036 4.87-7.466 4.87-7.415 29.217-20.946 29.218-20.947h8.806l5.854 6.118 5.906 6.118 6.268 14.466 6.268 14.517 6.683.311c3.678.208 7.253.363 8.03.415.984.052 1.968.934 4.04 3.681 4.041 5.289 3.679 5.237 7.046 1.141l2.9-3.577 7.668-1.608c6.942-1.503 8.444-1.659 17.406-1.71h9.843l5.906-3.993 5.905-3.992-.051-3.993v-3.992l14.038-11.873 14.091-11.873 2.746-9.8c2.176-7.933 3.989-12.806 9.48-25.665l6.786-15.813 9.48-11.407 9.532-11.355.052-3.11c.052-2.956.208-3.319 3.782-8.556l3.73-5.444 4.766-.155 4.766-.156 1.813-5.548c1.71-5.08 1.865-6.066 1.865-11.562 0-5.651.155-6.48 2.59-14.88 2.331-8.14 3.16-10.11 10.465-24.732l7.977-15.865 21.862-9.852 21.913-9.85 14.557-2.852 14.609-2.852 7.408-5.444 7.408-5.496 3.16 2.904 3.16 2.851 4.04-2.851c2.228-1.504 4.145-2.8 4.352-2.8.156 0 .311 1.918.311 4.251v4.304l-4.87 4.925-4.921 4.926-5.957 20.791-5.958 20.74 2.85 8.243 2.849 8.192-2.228 3.681c-1.243 2.023-2.331 3.889-2.435 4.148-.103.208 1.45 2.074 3.471 4.148 3.626 3.681 3.678 3.733 5.491 9.8 1.036 3.37 1.865 6.377 1.865 6.688 0 .26-.829 2.385-1.813 4.666l-1.761 4.148 2.383 3.111 2.435 3.059 4.144-.363 4.196-.311 2.953 4.407c3.004 4.46 3.004 4.46 3.004 8.348v3.94l2.902 1.296c1.605.726 3.211 1.297 3.522 1.297.311 0 1.865-.83 3.42-1.815 1.553-.933 2.9-1.66 3.056-1.556.103.104.725 2.956 1.398 6.326.674 3.318 1.503 6.222 1.762 6.377.259.156 4.248 1.193 8.806 2.282 4.56 1.037 8.29 2.125 8.29 2.333 0 .207-1.4 2.333-3.11 4.718-1.709 2.385-3.107 4.459-3.107 4.614 0 .208.984.726 2.227 1.193 1.192.467 4.663 1.867 7.72 3.163l5.49 2.333 1.917-3.06c1.243-2.021 2.176-3.006 2.642-2.85 9.118 3.525 16.888 7.31 32.17 15.761l18.236 10.059 2.175 5.703 2.176 5.703 6.268 4.926c3.471 2.748 6.372 5.03 6.476 5.133.104.103-.984 2.23-2.383 4.718l-2.59 4.563.57 3.629.57 3.63 6.579 2.384 6.579 2.385.155-4.925.156-4.978 4.3-.674 4.247-.674 17.251 4.46c9.428 2.436 17.458 4.718 17.769 5.029.31.363 1.865 5.651 3.47 11.821l2.954 11.147v8.659c0 8.348.103 9.022 2.59 21.154l2.59 12.547v21.725l-6.268 14.206c-4.507 10.266-7.875 16.955-12.174 24.317l-5.906 10.162v91.564l-3.108 2.178-3.057 2.178-3.004-1.504c-6.528-3.215-4.196-3.889-21.706 6.43-8.496 5.029-17.355 10.265-19.686 11.613l-4.196 2.489-5.75-2.748-5.802-2.8-7.823 2.074-7.874 2.074-11.708-3.474-11.76-3.422-4.558-5.185c-2.538-2.851-4.766-4.977-4.973-4.718-.156.208-1.917 4.044-3.886 8.452-1.916 4.407-3.574 8.088-3.626 8.192-.052.103-4.3.933-9.376 1.918-5.13.985-9.791 1.918-10.413 2.074-1.088.26-1.658-.674-6.424-10.214-3.782-7.57-5.336-10.214-5.698-9.696-.26.415-1.762 4.77-3.42 9.696-1.605 4.873-3.056 8.918-3.211 8.918-.156 0-2.28-1.4-4.663-3.111-2.383-1.711-4.61-3.111-4.87-3.111-.31 0-2.641 1.607-5.231 3.526-2.59 1.97-4.974 3.68-5.284 3.888-.363.208-2.176-2.022-4.56-5.651l-3.988-6.015-1.399 1.193c-.777.674-5.232 4.874-9.946 9.28-4.714 4.408-9.325 8.711-10.257 9.54l-1.658 1.556-4.145-2.022-4.196-2.022-16.318 8.14-16.267 8.14-13.883 1.348c-7.615.726-13.987 1.504-14.194 1.66-.156.207-2.746 4.459-5.699 9.488l-5.336 9.073 2.383 47.182c1.347 25.924 2.487 49.93 2.59 53.352l.208 6.222-68.9 6.273c-37.869 3.474-70.609 6.482-72.63 6.637-3.315.311-3.781.26-3.781-.518z" transform="matrix(1 0 0 -1 -987 690)"/>
    </g>
</svg>
