<svg xmlns="http://www.w3.org/2000/svg" width="150" height="32" viewBox="0 0 150 32">
    <path d="M24.743 0h5.747v18.266c0 9.61-6.128 12.984-15.017 12.984C6.616 31.25.488 27.877.488 18.266V.732C.488.222.742 0 1.25 0h5.746v17.98c0 5.76 2.54 8.147 8.477 8.147 5.969 0 8.508-2.387 8.508-8.147V.732c0-.51.254-.732.762-.732zm65.05 4.996v7.701h14.54c.255 0 .35.128.255.382L103 17.025c-.16.35-.381.51-.858.51h-8.54c-2.793 0-3.81.859-3.81 2.736v5.442h19.684c.254 0 .35.127.254.382l-1.65 4.105c-.16.35-.382.509-.858.509H85.666c-1.65 0-2.285-.573-2.285-1.814V2.132C83.38.636 84.206 0 86.365 0h23.112c.254 0 .35.127.254.35l-1.65 4.137c-.16.35-.382.51-.858.51h-17.43zM71.54 22.212c0 6.142-4.318 8.497-10.382 8.497H45.093c-1.682 0-2.285-.573-2.285-1.814V2.132C42.808.636 43.6 0 45.792 0H58.84c5.714 0 11.239.987 11.239 7.797 0 2.927-1.048 5.41-3.556 6.714 3.46.923 5.016 4.042 5.016 7.701zm-22.414-9.42h10.191c3.365 0 4.318-1.304 4.318-3.977s-.953-3.946-4.318-3.946h-10.19v7.924zm15.97 8.848c0-2.833-.985-4.233-4.604-4.233h-7.524c-2.794 0-3.842.86-3.842 2.737v5.696h11.366c3.619 0 4.603-1.4 4.603-4.2zm84.447 9.069h-5.841c-.477 0-.667-.19-.858-.51l-6.19-11.2h-5.683c-2.794 0-3.841.858-3.841 2.736v8.974h-5.588c-.508 0-.762-.255-.762-.732V2.132c0-1.496.825-2.132 2.984-2.132h13.112c7.651 0 12.254 2.005 12.254 9.451 0 5.76-2.762 8.02-6.19 8.91l6.889 11.807c.127.191.127.541-.286.541zm-6.857-21.13c0-3.119-.857-4.646-4.858-4.646H127.13v9.292h10.698c4 0 4.858-1.496 4.858-4.646z"/>
</svg>
