<?xml version="1.0" encoding="UTF-8"?>
<svg width="26px" height="33px" viewBox="0 0 26 33" version="1.1" xmlns="http://www.w3.org/2000/svg" xmlns:xlink="http://www.w3.org/1999/xlink">
    <title>8B21C9D1-41EB-49E7-A949-F36CAE2FCE61</title>
    <g id="Nonprofit" stroke="none" stroke-width="1" fill="none" fill-rule="evenodd" opacity="0.75">
        <g id="review-entity-type/nonprofit@2x" transform="translate(-282.000000, -880.000000)">
            <g id="Information" transform="translate(255.000000, 770.000000)">
                <g id="Modul/Tab/Inactive" transform="translate(0.000000, 87.000000)">
                    <g id="icon/review-entity-types/color/what-is-a-nonprofit" transform="translate(24.000000, 23.500000)">
                        <g id="20200406_ICON_ICON-136" transform="translate(3.000000, 0.000000)">
                            <path d="M22.12,2.29 L3,2.29 C1.95295491,2.30096442 1.11,3.15289751 1.11,4.2 L1.11,16.79 C1.11,17.8945695 2.0054305,18.79 3.11,18.79 L23.68,18.79 L23.68,3.79 C23.7287542,3.36819165 23.5777,2.94781821 23.2716224,2.65351274 C22.9655447,2.35920727 22.5395729,2.22474813 22.12,2.29 Z M17.12,12.29 C16.45,12.99 12.73,15.38 12.4,15.11 C11.14,14.11 8.81,12.42 8.2,11.78 C7.17,10.68 6,8.94 6.55,7.41 C7.06,6.05 7.21,5.76 8.55,5.76 C9.89,5.76 10.42,6.69 11.31,7.47 C11.6691187,7.78752907 12.1556204,7.91972043 12.6260498,7.82759467 C13.0964792,7.73546891 13.497181,7.42953354 13.71,7 C14.29,6 13.88,5.8 15.04,5.8 C16.420981,5.87686172 17.6127513,6.79452491 18.04,8.11 C18.5791661,9.56121389 18.2325053,11.1932461 17.15,12.3 L17.12,12.29 Z" id="Shape" fill="#F6C4C6" fill-rule="nonzero"></path>
                            <path d="M0.759998954,2.66 L0.759998954,17.1 C0.75891574,18.170356 1.60072771,19.0518345 2.67,19.1 L23.28,19.1 C24.3845695,19.1 25.28,18.2045695 25.28,17.1 L25.28,2.66 C25.2846785,2.64027361 25.2846785,2.61972639 25.28,2.6 C25.2266674,1.53466631 24.346667,0.698665873 23.28,0.699998405 L2.72,0.699998405 C1.64645332,0.721264564 0.781264564,1.58645332 0.759998954,2.66 Z" id="Path" stroke="#1D1D1B" stroke-width="1.4" stroke-linecap="round" stroke-linejoin="round"></path>
                            <path d="M14.86,19.06 L14.86,29.44 C14.86,30.4672496 14.0272496,31.3 13,31.3 C11.9727504,31.3 11.14,30.4672496 11.14,29.44 L11.14,19.06 L14.86,19.06 Z" id="Path" stroke="#1D1D1B" stroke-width="1.4" fill="#F6C4C6" fill-rule="nonzero" stroke-linecap="round" stroke-linejoin="round"></path>
                            <path d="M7.63,11 C8.24,11.64 11.17,14.1 12.43,15.15 C12.7586407,15.4294032 13.2413593,15.4294032 13.57,15.15 C14.94,14 17.7,11.67 18.37,11 C19.4720675,9.8876903 19.8237849,8.23461873 19.27,6.77 C18.8427513,5.45452491 17.650981,4.53686172 16.27,4.46 C15.1116773,4.48092058 14.0538818,5.12247163 13.5,6.14 C13.3999926,6.32270953 13.2082889,6.43632136 13,6.43632136 C12.7917111,6.43632136 12.6000074,6.32270953 12.5,6.14 C11.9557348,5.11394195 10.9010723,4.46050971 9.74,4.43 C8.35798462,4.50407451 7.16481839,5.42281251 6.74,6.74 C6.17064507,8.21126201 6.51922606,9.87975083 7.63,11 Z" id="Path" stroke="#1D1D1B" stroke-width="1.4" stroke-linecap="round" stroke-linejoin="round"></path>
                        </g>
                    </g>
                </g>
            </g>
        </g>
    </g>
</svg>