<?xml version="1.0" encoding="UTF-8"?>
<svg width="32px" height="32px" viewBox="0 0 32 32" version="1.1" xmlns="http://www.w3.org/2000/svg" xmlns:xlink="http://www.w3.org/1999/xlink">
    <title>03975BE0-0AB6-4E83-8C3F-71361222105E</title>
    <g id="Nonprofit" stroke="none" stroke-width="1" fill="none" fill-rule="evenodd">
        <g id="review-entity-type/nonprofit@2x" transform="translate(-1306.000000, -4790.000000)" fill="#EB7978" fill-rule="nonzero">
            <g id="footer" transform="translate(0.000000, 4102.000000)">
                <g id="icons-social">
                    <g transform="translate(1218.000000, 688.000000)">
                        <path d="M104,0 C95.164,0 88,7.164 88,16 C88,24.836 95.164,32 104,32 C112.836,32 120,24.836 120,16 C120,7.164 112.836,0 104,0 Z M109.921333,22.5226667 C107.118667,22.7146667 100.876,22.7146667 98.0773333,22.5226667 C95.0426667,22.3146667 94.6893333,20.8293333 94.6666667,16 C94.6893333,11.1613333 95.0466667,9.68533333 98.0773333,9.47733333 C100.876,9.28533333 107.12,9.28533333 109.921333,9.47733333 C112.957333,9.68533333 113.309333,11.1706667 113.333333,16 C113.309333,20.8386667 112.953333,22.3146667 109.921333,22.5226667 Z M101.333333,12.8773333 L107.889333,15.9946667 L101.333333,19.1226667 L101.333333,12.8773333 L101.333333,12.8773333 Z" id="youtube"></path>
                    </g>
                </g>
            </g>
        </g>
    </g>
</svg>