<svg xmlns="http://www.w3.org/2000/svg" width="32" height="32" viewBox="0 0 32 32">
    <g fill="none" fill-rule="evenodd">
        <g transform="translate(4)">
            <path fill="#D5F3E8" fill-rule="nonzero" d="M10.45 1.77c-2.11-.01-4.182.55-6 1.62C1.72 5.644.139 9 .14 12.54c0 3.88 4.18 11.15 7.57 16.41 1.348 2.114 4.043 2.919 6.33 1.89.25-.249.47-.523.66-.82 3.4-5.26 7.58-12.53 7.58-16.42-.011-6.529-5.301-11.819-11.83-11.83zm3.8 14.89c-.755.639-1.71.993-2.7 1-2.361-.005-4.275-1.919-4.28-4.28.009-.983.363-1.932 1-2.68.755-.612 1.698-.944 2.67-.94 1.647-.01 3.153.927 3.871 2.41.718 1.482.519 3.245-.511 4.53l-.05-.04z"/>
            <path stroke="#1D1D1B" stroke-linecap="round" stroke-linejoin="round" stroke-width="1.4" d="M23.85 12.55c0 3.88-4.18 11.15-7.58 16.42-.53.835-1.301 1.49-2.21 1.88-2.277 1.036-4.97.25-6.33-1.85C4.34 23.7.16 16.43.16 12.55.159 9.01 1.74 5.654 4.47 3.4h0C8.012.492 12.913-.114 17.056 1.846c4.143 1.959 6.785 6.131 6.784 10.714l.01-.01z"/>
            <circle cx="12" cy="12.89" r="4.29" stroke="#1D1D1B" stroke-linecap="round" stroke-linejoin="round" stroke-width="1.4"/>
        </g>
    </g>
</svg>
