<svg xmlns="http://www.w3.org/2000/svg" width="32" height="32" viewBox="0 0 32 32">
    <g fill="none" fill-rule="evenodd">
        <g>
            <path fill="#E6D7EA" fill-rule="nonzero" d="M27.27 13.3c1.07 1.74-.08 3.49-1.82 5.23l-.71.69-.26.27-7.68 7.54-2.57 2.53c-.115.147-.25.278-.4.39l-.09.09c-.323.228-.698.372-1.09.42-.68.1-.45-.44-1-1l-2.81-2.8c-.06-.06-.71.59-.77.55-.66-.51-1.78 1.41-2.15 1.48 0 0-1.48-.65-1.5-.67l-.45-.45c-.382-.376-.597-.89-.597-1.425 0-.536.215-1.05.597-1.425L7.71 21v-.05L5.1 23.46l-3.61-3.61c-.877-.874-.938-2.274-.14-3.22.079-.094.166-.181.26-.26L12.9 4.75c.924-1.116 2.195-1.89 3.61-2.2.238.149.456.327.65.53l.57.57c.2-.202.414-.389.64-.56.195.142.38.3.55.47l.57.57C21.22 2.4 25.13.59 28 .77c.2.12.385.264.55.43 1.84 1.85-.46 8-1.44 10.41-.198.496-.16 1.054.1 1.52.016.058.036.115.06.17z"/>
            <path stroke="#1D1D1B" stroke-linecap="round" stroke-linejoin="round" stroke-width="1.4" d="M27.83 12.47c1.996-2.236 3.183-5.078 3.37-8.07.066-.993-.265-1.971-.92-2.72-.625-.569-1.435-.892-2.28-.91h0c-2.87-.18-6.78 1.63-8.51 3.36"/>
            <path stroke="#1D1D1B" stroke-linecap="round" stroke-linejoin="round" stroke-width="1.4" d="M1.35 16.63c.079-.094.166-.181.26-.26L12.9 4.75c.924-1.116 2.195-1.89 3.61-2.2.666-.057 1.329.135 1.86.54.195.142.38.3.55.47l.57.57L9.06 14.56M15.48 30.53L27.21 19c2-2 3.21-4 1.22-6l-.56-.57-10.34 10.36M26.57 6.69c-.116 1.37-.666 2.665-1.57 3.7l-13.9 13.9-.1-.05L7.71 21v-.05L21.56 7c.94-.94 3.75-2.22 4.68-1.29.235.27.353.623.33.98z"/>
            <path stroke="#1D1D1B" stroke-linecap="round" stroke-linejoin="round" stroke-width="1.4" d="M14.76 13.8L5.1 23.46l-3.61-3.61c-.877-.874-.938-2.274-.14-3.22.079-.094.166-.181.26-.26.333-.286.737-.477 1.17-.55l11.98-2.02zM14 21.48L18.47 17l-2 12c-.16.862-.781 1.567-1.616 1.836-.835.27-1.75.06-2.384-.546l-3.66-3.63L14 21.48M11 24.24l-3 3-.8.81c-.759.766-1.989.793-2.78.06L4.39 28l-.45-.45c-.382-.376-.597-.89-.597-1.425 0-.536.215-1.05.597-1.425L7.71 21 11 24.24z"/>
        </g>
    </g>
</svg>
