<svg xmlns="http://www.w3.org/2000/svg" width="32" height="32" viewBox="0 0 32 32">
    <g fill="none" fill-rule="evenodd">
        <g>
            <path fill="#FFF" fill-rule="nonzero" d="M9.66 16.36h.88-.88z" transform="translate(0 1)"/>
            <path fill="#F6C4C6" fill-rule="nonzero" d="M22.46 16.29l-11.92.07h-.88l-8.78.06c-.027-2.413.529-4.797 1.62-6.95.547-1.075 1.218-2.082 2-3 2.49-2.242 5.658-3.59 9-3.83.26-.014.52-.014.78 0h1.12c7.498.377 13.615 6.138 14.44 13.6l-7.38.05z" transform="translate(0 1)"/>
            <path stroke="#1D1D1B" stroke-linecap="round" stroke-linejoin="round" stroke-width="1.4" d="M31.28 16.5h-8.99l-11.92.06h-.88l-8.78.05c-.027-2.406.525-4.783 1.61-6.93.552-1.072 1.222-2.079 2-3 2.643-3.15 6.448-5.098 10.55-5.4.353-.02.707-.02 1.06 0h.83c8.115.41 14.493 7.094 14.52 15.22z" transform="translate(0 1)"/>
            <path stroke="#1D1D1B" stroke-linecap="round" stroke-linejoin="round" stroke-width="1.4" d="M31.28 16.5h-8.99l-11.92.07h0c-.233-1.054-.357-2.13-.37-3.21-.018-3.891 1.448-7.642 4.1-10.49.5-.549 1.045-1.054 1.63-1.51.333-.023.667-.023 1 0 8.096.392 14.48 7.034 14.55 15.14z" transform="translate(0 1)"/>
            <path stroke="#1D1D1B" stroke-linecap="round" stroke-linejoin="round" stroke-width="1.4" d="M22.29 16.55l-12.8.07h0H.7C.687 8.614 6.848 1.952 14.83 1.34h1.9c3.705 2.88 5.875 7.307 5.88 12 .006 1.078-.1 2.154-.32 3.21zM15.67 16.62l.07 11.47c.005.593.247 1.16.67 1.575.425.414.997.643 1.59.635h0c1.212-.005 2.198-.978 2.22-2.19v-.73M15.9 1.29L15.9.02" transform="translate(0 1)"/>
        </g>
    </g>
</svg>
