<svg xmlns="http://www.w3.org/2000/svg" width="32" height="32" viewBox="0 0 32 32">
    <g fill="none" fill-rule="evenodd">
        <g>
            <path fill="#FCE7D0" fill-rule="nonzero" d="M14.58 2.2c-3.81 0-7.481 1.427-10.29 4-5.116 6.17-4.603 15.241 1.174 20.796 5.778 5.554 14.863 5.709 20.826.354 3.83-4.553 4.674-10.914 2.163-16.308C25.94 5.648 20.53 2.199 14.58 2.2zm8.48 16.35l-8.67 5.95c-.847.583-1.948.648-2.858.17-.91-.478-1.481-1.422-1.482-2.45V9.78c-.002-.468.115-.93.34-1.34.899-.455 1.975-.378 2.8.2l9.06 6.22c1.197.827 1.55 2.438.81 3.69z"/>
            <path stroke="#1D1D1B" stroke-linecap="round" stroke-linejoin="round" stroke-width="1.4" d="M31.3 16c.008 4.313-1.808 8.429-5 11.33h0c-5.963 5.355-15.048 5.2-20.826-.354C-.303 21.42-.816 12.35 4.3 6.18 8.431 1.26 15.198-.554 21.236 1.642 27.274 3.838 31.296 9.575 31.3 16z"/>
            <path stroke="#1D1D1B" stroke-linecap="round" stroke-linejoin="round" stroke-width="1.4" d="M14.38 7.5l9.06 6.22c.75.517 1.197 1.37 1.197 2.28 0 .91-.448 1.763-1.197 2.28l-9.06 6.22c-.846.585-1.946.651-2.856.172-.91-.479-1.478-1.424-1.474-2.452V9.78c-.004-1.028.564-1.973 1.474-2.452.91-.48 2.01-.413 2.856.172z"/>
        </g>
    </g>
</svg>
