<svg xmlns="http://www.w3.org/2000/svg" width="32" height="33" viewBox="0 0 32 33">
    <g fill="none" fill-rule="evenodd">
        <path fill="#E6D7EA" fill-rule="nonzero" d="M25.37 14.74c-.426 4.805-2.243 9.382-5.23 13.17-.173.207-.43.325-.7.32H9.52c-.185 0-.366-.057-.52-.16-3.68-2.58-6.45-8.31-7.35-13.22-.054-.267.015-.544.187-.756.173-.21.43-.333.703-.334h21.93c.253-.001.495.105.666.291.172.187.257.437.234.689z" transform="translate(0 1.5)"/>
        <path stroke="#1D1D1B" stroke-linecap="round" stroke-linejoin="round" stroke-width="1.4" d="M22.89 25.24c-1.022 1.356-2.267 2.529-3.68 3.47M27 15.41c0-.25.06-.77.08-1.32.019-.51-.17-1.007-.525-1.375-.355-.368-.844-.575-1.355-.575H2.67c-.537-.003-1.05.223-1.41.623-.359.4-.53.933-.47 1.467h0C1.48 19.48 4.48 26 8.56 28.71M6.11 25.83L21.93 25.83M5.37 28.71L8.56 28.71 19.19 28.71 19.21 28.71 21.94 28.71M9.7 4.76L9.7 7.9M14.62.73L14.62 7.9M19.21 4.76L19.21 7.9" transform="translate(0 1.5)"/>
        <path stroke="#1D1D1B" stroke-linecap="round" stroke-linejoin="round" stroke-width="1.4" d="M22.88 25.24c1.018-1.305 1.874-2.729 2.55-4.24.797-1.775 1.326-3.66 1.57-5.59.338.03.673.09 1 .18 1.348.3 2.463 1.243 2.983 2.522.521 1.279.382 2.732-.373 3.888-2.4 4.1-7.07 4-7.67 3.5" transform="translate(0 1.5)"/>
    </g>
</svg>
