<svg xmlns="http://www.w3.org/2000/svg" width="32" height="33" viewBox="0 0 32 33">
    <g fill="none" fill-rule="evenodd">
        <path fill="#FCE7D0" fill-rule="nonzero" d="M27 15.86h-.62c-.113-.01-.227-.01-.34 0-.8.161-1.377.863-1.38 1.68v10.74c.005.333-.09.66-.27.94-.06.01-.12.01-.18 0H4.24c-.484.003-.948-.188-1.29-.53-.342-.342-.533-.806-.53-1.29L2.44 15H0c.14-.37 9.13-10.1 12.6-13.84.355 0 .694.144.94.4C16.26 4.38 23.85 12.34 26.25 15c.269.27.52.557.75.86z" transform="translate(2 1.5)"/>
        <path stroke="#1D1D1B" stroke-linecap="round" stroke-linejoin="round" stroke-width="1.4" d="M14 13.77c-1.6 0-2.89 1-2.89 2.18 0 1.18 1.38 1.82 2.44 2.1s2.92.46 3.28 1.86c.005.06.005.12 0 .18.22 1.54-1.58 2.39-2.87 2.39M16.5 14.05L14 13.77 14 11.83M14 24.43L14 22.48M11.2 22.16L14 22.48" transform="translate(2 1.5)"/>
        <path stroke="#1D1D1B" stroke-linecap="round" stroke-linejoin="round" stroke-width="1.4" d="M28.35 15H26V27.45c.009.937-.707 1.722-1.64 1.8-.06.01-.12.01-.18 0H4.24c-.484.003-.948-.188-1.29-.53-.342-.342-.533-.806-.53-1.29L2.44 15H0c.14-.37 9.13-10.1 12.6-13.84l.41-.44c.246-.263.59-.413.95-.413s.704.15.95.413C18.14 4 28.2 14.61 28.35 15z" transform="translate(2 1.5)"/>
    </g>
</svg>
