<svg xmlns="http://www.w3.org/2000/svg" width="32" height="32" viewBox="0 0 32 32">
    <g fill="none" fill-rule="evenodd" opacity=".75">
        <path fill="#FCE7D0" fill-rule="nonzero" d="M29 13.55c.005.077.005.153 0 .23-.13 1.046-.954 1.87-2 2-.1 0-.53.12-.66.76 0 0-1.74 10.75-4.61 10.88h-11c-2.122-.002-4.006-1.358-4.68-3.37L3.43 13.78h-.16C2.013 13.769 1 12.747 1 11.49c-.005-.08-.005-.16 0-.24h25.68c.613-.005 1.204.235 1.64.667.435.431.68 1.02.68 1.633z" transform="translate(0 2)"/>
        <path stroke="#1D1D1B" stroke-linecap="round" stroke-linejoin="round" stroke-width="1.4" d="M28.84 14.09L26.26 24.4c-.49 1.464-1.637 2.615-3.1 3.11-.509.173-1.043.26-1.58.26H10.45c-2.122-.002-4.006-1.358-4.68-3.37L3.15 14.09h25.69zM21.1.7L26.85 9.38M11.98.7L5.3 9.38" transform="translate(0 2)"/>
        <path stroke="#1D1D1B" stroke-linecap="round" stroke-linejoin="round" stroke-width="1.4" d="M31.29 11.8c0 1.265-1.025 2.29-2.29 2.29H3c-.61.003-1.194-.237-1.626-.667C.943 12.993.7 12.409.7 11.8c-.005-.08-.005-.16 0-.24.124-1.174 1.12-2.062 2.3-2.05h26c1.265 0 2.29 1.025 2.29 2.29zM10.26 20.86c3.48 2.31 8.21 1.43 11.41-2" transform="translate(0 2)"/>
        <path stroke="#1D1D1B" stroke-linecap="round" stroke-linejoin="round" stroke-width="1.4" d="M18.94 18.09L22.36 18.31 22.14 21.78" transform="translate(0 2)"/>
    </g>
</svg>
