<svg height="32" viewBox="0 0 32 32" width="32" xmlns="http://www.w3.org/2000/svg"><g fill="none" fill-rule="evenodd"><path d="m30.33 31.06c-.2489948.1555612-.5364086.2386688-.83.24h-6l-20.59-.05c-1.51.02-2.52-1.71-2.1-3.25l10.44-13.86c.1699063-.3021266.484152-.494719.8304832-.5089797.3463311-.0142607.6753468.1518444.8695168.4389797l3.8 4.8c.1590501.2060954.404669.3267993.665.3267993s.5059499-.1207039.665-.3267993l.34-.44.89-1.15c.1525524-.2362078.4109437-.3829197.6919544-.3928846.2810108-.009965.5491451.1180759.7180456.3428846l9.46 12.6c.1554505.3901489.2071307.8139266.15 1.23z" fill="#fff" fill-rule="nonzero"/><path d="m23.52 31.3h6c.2935914-.0013312.5810052-.0844388.83-.24.8907284-.6161274 1.2250895-1.7738529.8-2.77l-9.46-12.6c-.1710694-.2247969-.4406326-.3525424-.7229437-.3426019-.2823112.0099405-.5422217.1563295-.6970563.3926019l-1.88 2.44" stroke="#1d1d1b" stroke-linecap="round" stroke-linejoin="round" stroke-width="1.4"/><path d="m13.1 1.04h8.14v5h-8.14z" fill="#fff" fill-rule="nonzero" transform="matrix(-1 0 0 -1 34.34 7.08)"/><g stroke="#1d1d1b" stroke-linecap="round" stroke-linejoin="round" stroke-width="1.4"><path d="m13.1 12.12v-11.42"/><path d="m13.1.7h8.14v5.66h-8.14z"/><path d="m23.55 31.3-20.64-.05c-1.51.02-2.52-1.71-2.1-3.25.04018837-.1969473.1039823-.3883291.19-.57l11.19-14.82c.1668702-.3078716.4826282-.5060241.8324321-.5223892s.6826827.1514419.8775679.4423892l4.52 5.89 7.06 9.22c.69 1.69-.34 3.64-1.93 3.66z"/></g></g></svg>