<svg height="32" viewBox="0 0 32 32" width="32" xmlns="http://www.w3.org/2000/svg"><g fill="none" fill-rule="evenodd" transform="translate(7)"><path d="m16.25 8.64v19.62c0 .32 0 1.8-.55 2.28l.41.31c-.3227675.1059101-.6603004.16-1 .16h-11.71c-1.70103703 0-3.08-1.378963-3.08-3.08v-20.44c0-.31196409.04730772-.62212461.14-.92.66-1.48 3.22-2.16 3.22-2.16h1.94v-2h4c.4528735 0 .82.36712651.82.82v2c.0054899.64778739.5321893 1.17002326 1.18 1.17h2.38c.5958157-.00265992 1.1681408.23216463 1.5903876.65253477.4222468.42037013.6596124.99164362.6596124 1.58746523z" fill="#fff" fill-rule="nonzero"/><g stroke="#1d1d1b" stroke-linecap="round" stroke-linejoin="round" stroke-width="1.4"><path d="m17.9300206 7.78v20.44c.004783 1.3164338-.8329132 2.488403-2.0800206 2.91-.3227675.1059101-.6603004.16-1 .16h-11.71c-.81686679 0-1.60027684-.3244991-2.17788889-.9021111-.57761204-.5776121-.90211111-1.3610221-.90211111-2.1778889v-20.43c0-1.70103703 1.37896297-3.08 3.08-3.08h11.72c.8159502 0 1.598336.32481352 2.174361.90271483s.8982968 1.3613393.8956596 2.17728517z"/><path d="m12.12 2.46v2.24h-6.76v-2.24c0-.96649831.78350169-1.75 1.75-1.75h3.26c.4641289 0 .9092482.18437447 1.2374369.51256313.3281886.32818867.5125631.77330801.5125631 1.23743687z"/><path d="m10.02 11.3-3.19 6.14h3.83l-2.24 5.8"/></g></g></svg>