<svg width="32" height="33" viewBox="0 0 32 33" fill="none" xmlns="http://www.w3.org/2000/svg">
<path d="M24.56 7.27005V29.13C24.5631 29.6602 24.4541 30.185 24.24 30.67C23.747 30.8943 23.2116 31.0102 22.67 31.01H9.93001C7.81704 31.0046 6.10551 29.293 6.10001 27.18V4.24005C6.09772 3.7132 6.20677 3.19181 6.42001 2.71005C6.9157 2.48322 7.45489 2.36719 8.00001 2.37005H19.28L24.56 7.27005Z" fill="white"/>
<path d="M10.08 17.5701H21.83" stroke="#1D1D1B" stroke-width="1.4" stroke-linecap="round" stroke-linejoin="round"/>
<path d="M10.08 23.3201H21.83" stroke="#1D1D1B" stroke-width="1.4" stroke-linecap="round" stroke-linejoin="round"/>
<path fill-rule="evenodd" clip-rule="evenodd" d="M26.15 8.70004V27.56C26.1487 29.0666 25.2642 30.4325 23.89 31.05C23.3974 31.2754 22.8617 31.3914 22.32 31.39H9.58C7.46703 31.3845 5.7555 29.673 5.75 27.56V4.62004C5.75116 4.0925 5.86361 3.57115 6.08 3.09004C6.68499 1.69516 8.05958 0.791858 9.58 0.790039H18L26.15 8.70004Z" stroke="#1D1D1B" stroke-width="1.4" stroke-linecap="round" stroke-linejoin="round"/>
<path d="M17.99 0.790039L18.07 8.70004H26.2" stroke="#1D1D1B" stroke-width="1.4" stroke-linecap="round" stroke-linejoin="round"/>
</svg>
