<svg width="32" height="32" viewBox="0 0 32 32" fill="none" xmlns="http://www.w3.org/2000/svg">
<path d="M17.64 18.2799L16.86 16.8699L16.59 16.3799L16.33 17.1299L10.87 19.7399C10.1894 20.2521 9.6662 20.945 9.36 21.7399L7.61 25.9299C7 27.1899 8 27.8399 9 27.4599L13.6 25.6699L13.67 25.4799L13.76 25.6199L15.28 24.9999L19.13 30.7499L19.19 30.8399C19.2671 30.7206 19.3308 30.5932 19.38 30.4599L20.58 26.1199C20.8198 25.2868 20.8198 24.403 20.58 23.5699L17.64 18.2799Z" fill="white"/>
<path d="M23 2.99972L24.35 13.1097C24.3987 13.483 24.325 13.8619 24.14 14.1897C23.7153 14.1869 23.3077 14.0224 23 13.7297L20 10.8497L15.87 11.2397C15.1516 11.3093 14.4676 10.9178 14.1639 10.2631C13.8602 9.60837 14.0029 8.83324 14.52 8.32972L21.36 1.59972C22.1846 1.57734 22.8927 2.18183 23 2.99972Z" fill="white"/>
<path fill-rule="evenodd" clip-rule="evenodd" d="M22.34 23.3496C22.575 24.1834 22.575 25.0659 22.34 25.8996L21.14 30.2496C20.83 31.1696 19.79 31.6596 19.14 30.8496L19.08 30.7596L15.28 24.9996L17.64 18.2696L18.38 16.1396L22.34 23.3496Z" stroke="#1D1D1B" stroke-width="1.4" stroke-linecap="round" stroke-linejoin="round"/>
<path fill-rule="evenodd" clip-rule="evenodd" d="M18.38 16.1499L17.64 18.2799L15.28 24.9999L13.74 25.6099L13.58 25.6599L9.00001 27.4599C8.00001 27.8399 7.00001 27.1899 7.63001 25.9299L9.38001 21.6899C9.68621 20.895 10.2094 20.2021 10.89 19.6899C10.89 19.6899 10.89 19.6899 10.96 19.6899L16.34 17.1299L16.88 16.8699L18.38 16.1499Z" stroke="#1D1D1B" stroke-width="1.4" stroke-linecap="round" stroke-linejoin="round"/>
<path fill-rule="evenodd" clip-rule="evenodd" d="M24.52 2.16977L25.87 12.2798C25.9339 12.7691 25.782 13.2621 25.4538 13.6306C25.1256 13.9991 24.6535 14.2068 24.16 14.1998C23.727 14.1994 23.3111 14.0309 23 13.7298L20 10.8498L15.87 11.2398C15.1516 11.3094 14.4676 10.9178 14.1639 10.2631C13.8602 9.60841 14.0029 8.83329 14.52 8.32977L21.36 1.59977L21.76 1.20977C22.2022 0.775173 22.8526 0.629027 23.4381 0.8327C24.0237 1.03637 24.443 1.5546 24.52 2.16977V2.16977Z" stroke="#1D1D1B" stroke-width="1.4" stroke-linecap="round" stroke-linejoin="round"/>
<path d="M20 10.8496L18.15 16.8296" stroke="#1D1D1B" stroke-width="1.4" stroke-linecap="round" stroke-linejoin="round"/>
<path d="M21.8 27.9297L16.88 20.4297L8.93001 23.8097" stroke="#1D1D1B" stroke-width="1.4" stroke-linecap="round" stroke-linejoin="round"/>
</svg>
