<svg width="32" height="33" viewBox="0 0 32 33" fill="none" xmlns="http://www.w3.org/2000/svg">
<path d="M31.63 23.5502C31.6539 24.0222 31.4254 24.4714 31.03 24.7302L22.31 32.0702C22.03 32.2602 20.93 31.9702 20.63 31.9302L20.2 28.0002C20.2 27.2491 19.5911 26.6402 18.84 26.6402H14.84C14.22 26.6402 14.2 26.3402 13.71 26.0202C13.6 25.7202 12.99 25.5102 12.99 25.1702C12.99 24.3202 11.86 23.5502 12.42 23.0002C12.9909 22.4177 13.7744 22.0927 14.59 22.1002H20.03C20.7811 22.1002 21.39 21.4913 21.39 20.7402V17.8602C21.396 17.36 21.6741 16.9029 22.1155 16.6676C22.5569 16.4323 23.0914 16.4563 23.51 16.7302L31.63 23.5502Z" fill="white"/>
<path fill-rule="evenodd" clip-rule="evenodd" d="M31.29 23.5501C31.3139 24.0221 31.0854 24.4713 30.69 24.7301L22 32.0701C21.7362 32.2488 21.4156 32.3236 21.1 32.2801C20.4111 32.2129 19.8867 31.6322 19.89 30.9401V28.0001C19.89 27.249 19.2811 26.6401 18.53 26.6401H15.43C13.7345 26.6401 12.36 25.2656 12.36 23.5701C12.36 21.8745 13.7345 20.5001 15.43 20.5001H18.5C19.2511 20.5001 19.86 19.8912 19.86 19.1401V16.2401C19.858 15.7322 20.1412 15.2663 20.5928 15.0341C21.0445 14.8019 21.5882 14.8429 22 15.1401L30.72 22.4701C31.07 22.7197 31.2814 23.1202 31.29 23.5501Z" stroke="#1D1D1B" stroke-width="1.4" stroke-linecap="round" stroke-linejoin="round"/>
<path d="M0.38 10.35C0.360422 10.826 0.596918 11.2761 1 11.53L9.7 18.87C9.98 19.06 11.08 18.77 11.38 18.73L11.81 14.83C11.81 14.0789 12.4189 13.47 13.17 13.47H17.17C17.79 13.47 17.8 13.17 18.29 12.85C18.4 12.55 19.02 12.34 19.02 12C19.02 11.15 20.15 10.38 19.59 9.82999C19.0191 9.24747 18.2356 8.92253 17.42 8.92999H12C11.6324 8.94081 11.2761 8.80231 11.0124 8.54608C10.7486 8.28985 10.5998 7.93772 10.6 7.56999V4.65999C10.594 4.15983 10.3159 3.70269 9.87451 3.46742C9.4331 3.23214 8.89856 3.25613 8.48 3.52999L0.38 10.35Z" fill="white"/>
<path fill-rule="evenodd" clip-rule="evenodd" d="M0.720001 10.3501C0.696146 10.8221 0.924556 11.2713 1.32 11.5301L10 18.8701C10.2638 19.0488 10.5844 19.1236 10.9 19.0801C11.5889 19.0129 12.1133 18.4322 12.11 17.7401V14.8301C12.11 14.079 12.7189 13.4701 13.47 13.4701H16.54C18.2355 13.4701 19.61 12.0956 19.61 10.4001C19.61 8.70457 18.2355 7.33009 16.54 7.33009H13.51C12.7705 7.33027 12.1663 6.73945 12.15 6.00009V3.07009C12.1665 2.55333 11.8864 2.07254 11.4288 1.83201C10.9711 1.59147 10.4163 1.63344 10 1.94009L1.32 9.27009C0.958587 9.51323 0.735506 9.91477 0.720001 10.3501Z" stroke="#1D1D1B" stroke-width="1.4" stroke-linecap="round" stroke-linejoin="round"/>
</svg>
