<svg width="32" height="32" viewBox="0 0 32 32" fill="none" xmlns="http://www.w3.org/2000/svg">
<path d="M14.36 18.2804L15.14 16.8704L15.41 16.3804L15.67 17.1304L21.13 19.7404C21.8106 20.2526 22.3338 20.9455 22.64 21.7404L24.39 25.9304C25 27.1904 24 27.8404 23 27.4604L18.4 25.6704L18.33 25.4804L18.24 25.6204L16.72 25.0004L12.87 30.7504L12.81 30.8404C12.7329 30.7211 12.6692 30.5936 12.62 30.4604L11.42 26.1204C11.1802 25.2873 11.1802 24.4035 11.42 23.5704L14.36 18.2804Z" fill="white"/>
<path d="M9 3.00021L7.65 13.1102C7.60135 13.4834 7.67503 13.8624 7.86 14.1902C8.28467 14.1874 8.69231 14.0229 9 13.7302L12 10.8502L16.13 11.2402C16.8484 11.3098 17.5324 10.9183 17.8361 10.2636C18.1398 9.60886 17.9971 8.83373 17.48 8.33021L10.64 1.60021C9.8154 1.57783 9.10729 2.18232 9 3.00021Z" fill="white"/>
<path fill-rule="evenodd" clip-rule="evenodd" d="M9.66 23.3501C9.42501 24.1839 9.42501 25.0664 9.66 25.9001L10.86 30.2501C11.17 31.1701 12.21 31.6601 12.86 30.8501L12.92 30.7601L16.72 25.0001L14.36 18.2701L13.62 16.1401L9.66 23.3501Z" stroke="#1D1D1B" stroke-width="1.4" stroke-linecap="round" stroke-linejoin="round"/>
<path fill-rule="evenodd" clip-rule="evenodd" d="M13.62 16.1504L14.36 18.2804L16.72 25.0004L18.26 25.6104L18.42 25.6604L23 27.4604C24 27.8404 25 27.1904 24.37 25.9304L22.62 21.6904C22.3138 20.8955 21.7906 20.2026 21.11 19.6904C21.11 19.6904 21.11 19.6904 21.04 19.6904L15.66 17.1304L15.12 16.8704L13.62 16.1504Z" stroke="#1D1D1B" stroke-width="1.4" stroke-linecap="round" stroke-linejoin="round"/>
<path fill-rule="evenodd" clip-rule="evenodd" d="M7.48 2.17026L6.13 12.2803C6.06609 12.7696 6.21797 13.2626 6.54618 13.6311C6.8744 13.9996 7.34656 14.2073 7.84 14.2003C8.27298 14.1999 8.68888 14.0314 9 13.7303L12 10.8503L16.13 11.2403C16.8484 11.3099 17.5324 10.9183 17.8361 10.2636C18.1398 9.6089 17.9971 8.83378 17.48 8.33026L10.64 1.60026L10.24 1.21026C9.79786 0.775662 9.14745 0.629516 8.56189 0.833189C7.97633 1.03686 7.55701 1.55509 7.48 2.17026V2.17026Z" stroke="#1D1D1B" stroke-width="1.4" stroke-linecap="round" stroke-linejoin="round"/>
<path d="M12 10.8501L13.85 16.8301" stroke="#1D1D1B" stroke-width="1.4" stroke-linecap="round" stroke-linejoin="round"/>
<path d="M10.2 27.9302L15.12 20.4302L23.07 23.8102" stroke="#1D1D1B" stroke-width="1.4" stroke-linecap="round" stroke-linejoin="round"/>
</svg>
