<svg width="32" height="33" viewBox="0 0 32 33" fill="none" xmlns="http://www.w3.org/2000/svg">
<path d="M13.67 18.5599L13.59 16.9999V16.4399L13 16.9999L7.00003 16.9399C6.16213 17.0741 5.37892 17.4415 4.74003 17.9999L1.31003 21.0499C0.220027 21.9199 0.800027 22.9299 1.87003 23.0499L6.79003 23.4499L6.93003 23.3099V23.4699L8.58003 23.5999L9.58003 30.4499C9.57439 30.4864 9.57439 30.5235 9.58003 30.5599C9.70072 30.4878 9.81163 30.4004 9.91003 30.2999L12.91 26.9199C13.4858 26.2655 13.8639 25.4609 14 24.5999L13.67 18.5599Z" fill="white"/>
<path d="M29.25 3.25006L26 12.9301C25.8857 13.2895 25.6531 13.5997 25.34 13.8101C24.9594 13.6192 24.6661 13.2901 24.52 12.8901L23.11 9.00006L19.22 7.52006C18.5417 7.2693 18.0963 6.61683 18.1098 5.89374C18.1233 5.17066 18.5928 4.53529 19.28 4.31006L28.38 1.31006C29.1165 1.64605 29.489 2.47663 29.25 3.25006Z" fill="white"/>
<path fill-rule="evenodd" clip-rule="evenodd" d="M15.68 25.18C15.5303 26.0327 15.1499 26.8282 14.58 27.48L11.58 30.86C10.9 31.56 9.75002 31.54 9.58002 30.54C9.57438 30.5035 9.57438 30.4665 9.58002 30.43L8.58002 23.58L13.65 18.58L15.27 17L15.68 25.18Z" stroke="#1D1D1B" stroke-width="1.4" stroke-linecap="round" stroke-linejoin="round"/>
<path fill-rule="evenodd" clip-rule="evenodd" d="M15.27 16.9997L13.67 18.5897L8.60003 23.5897L7.00003 23.4497H6.84003L1.87003 22.9997C0.800027 22.8997 0.220027 21.8897 1.31003 20.9997L4.74003 17.9997C5.3754 17.4303 6.15892 17.0524 7.00003 16.9097H7.08003L13 16.9997H13.6H15.27Z" stroke="#1D1D1B" stroke-width="1.4" stroke-linecap="round" stroke-linejoin="round"/>
<path fill-rule="evenodd" clip-rule="evenodd" d="M31 3.14985L27.79 12.8298C27.6382 13.3024 27.2876 13.6849 26.83 13.8772C26.3725 14.0694 25.8538 14.0521 25.41 13.8298C25.0294 13.6389 24.7361 13.3098 24.59 12.9098L23.11 8.99985L19.22 7.51985C18.5417 7.26909 18.0963 6.61662 18.1098 5.89353C18.1233 5.17045 18.5928 4.53508 19.28 4.30985L28.38 1.30985L28.91 1.12985C29.4901 0.929522 30.1336 1.07201 30.5749 1.49852C31.0162 1.92503 31.1805 2.56326 31 3.14985V3.14985Z" stroke="#1D1D1B" stroke-width="1.4" stroke-linecap="round" stroke-linejoin="round"/>
<path d="M22.93 9.1499L15.27 16.9699" stroke="#1D1D1B" stroke-width="1.4" stroke-linecap="round" stroke-linejoin="round"/>
<path d="M13.1901 29.0497L12.0501 20.1497L3.43005 19.7197" stroke="#1D1D1B" stroke-width="1.4" stroke-linecap="round" stroke-linejoin="round"/>
</svg>
