<svg width="32" height="33" viewBox="0 0 32 33" fill="none" xmlns="http://www.w3.org/2000/svg">
<path d="M18.33 18.5599L18.41 16.9999V16.4399L19 16.9999L25 16.9399C25.8379 17.0741 26.6211 17.4415 27.26 17.9999L30.69 21.0499C31.78 21.9199 31.2 22.9299 30.13 23.0499L25.21 23.4499L25.07 23.3099V23.4699L23.42 23.5999L22.42 30.4499C22.4256 30.4864 22.4256 30.5235 22.42 30.5599C22.2993 30.4878 22.1884 30.4004 22.09 30.2999L19.09 26.9199C18.5142 26.2655 18.1362 25.4609 18 24.5999L18.33 18.5599Z" fill="white"/>
<path d="M2.75 3.25006L5.99999 12.9301C6.1143 13.2895 6.34693 13.5997 6.66 13.8101C7.04062 13.6192 7.33395 13.2901 7.47999 12.8901L8.89 9.00006L12.78 7.52006C13.4583 7.2693 13.9038 6.61683 13.8903 5.89374C13.8767 5.17066 13.4072 4.53529 12.72 4.31006L3.62 1.31006C2.88352 1.64605 2.51105 2.47663 2.75 3.25006Z" fill="white"/>
<path fill-rule="evenodd" clip-rule="evenodd" d="M16.32 25.18C16.4697 26.0327 16.8502 26.8282 17.42 27.48L20.42 30.86C21.1 31.56 22.25 31.54 22.42 30.54C22.4256 30.5035 22.4256 30.4665 22.42 30.43L23.42 23.58L18.35 18.58L16.73 17L16.32 25.18Z" stroke="#1D1D1B" stroke-width="1.4" stroke-linecap="round" stroke-linejoin="round"/>
<path fill-rule="evenodd" clip-rule="evenodd" d="M16.73 16.9997L18.33 18.5897L23.4 23.5897L25 23.4497H25.16L30.13 22.9997C31.2 22.8997 31.78 21.8897 30.69 20.9997L27.26 17.9997C26.6246 17.4303 25.8411 17.0524 25 16.9097H24.92L19 16.9997H18.4H16.73Z" stroke="#1D1D1B" stroke-width="1.4" stroke-linecap="round" stroke-linejoin="round"/>
<path fill-rule="evenodd" clip-rule="evenodd" d="M0.999995 3.14985L4.21 12.8298C4.36178 13.3024 4.71247 13.6849 5.17002 13.8772C5.62756 14.0694 6.14627 14.0521 6.58999 13.8298C6.97062 13.6389 7.26395 13.3098 7.41 12.9098L8.89 8.99985L12.78 7.51985C13.4583 7.26909 13.9038 6.61662 13.8903 5.89353C13.8767 5.17045 13.4072 4.53508 12.72 4.30985L3.62 1.30985L3.09 1.12985C2.50989 0.929522 1.86644 1.07201 1.42515 1.49852C0.983859 1.92503 0.81954 2.56326 0.999995 3.14985V3.14985Z" stroke="#1D1D1B" stroke-width="1.4" stroke-linecap="round" stroke-linejoin="round"/>
<path d="M9.07001 9.1499L16.73 16.9699" stroke="#1D1D1B" stroke-width="1.4" stroke-linecap="round" stroke-linejoin="round"/>
<path d="M18.81 29.0497L19.95 20.1497L28.57 19.7197" stroke="#1D1D1B" stroke-width="1.4" stroke-linecap="round" stroke-linejoin="round"/>
</svg>
