<svg width="56" height="56" viewBox="0 0 56 56" fill="none" xmlns="http://www.w3.org/2000/svg">
<path fill-rule="evenodd" clip-rule="evenodd" d="M28 56C43.464 56 56 43.464 56 28C56 12.536 43.464 0 28 0C12.536 0 0 12.536 0 28C0 43.464 12.536 56 28 56Z" fill="#FD8550"/>
<path d="M29.4521 21.4146C29.0627 21.0242 28.4307 21.0228 28.0395 21.4114L27.3833 22.0632C26.9906 22.4534 26.9895 23.0884 27.3809 23.4798L31.1748 27.2737H20.25C19.6977 27.2737 19.25 27.7214 19.25 28.2737V29.1845C19.25 29.7368 19.6977 30.1845 20.25 30.1845H31.1748L27.3809 33.9784C26.9895 34.3698 26.9906 35.0048 27.3833 35.3949L28.0395 36.0467C28.4307 36.4353 29.0627 36.4339 29.4521 36.0436L36.0453 29.4354C36.4348 29.045 36.4348 28.4131 36.0453 28.0228L29.4521 21.4146Z" fill="white"/>
</svg>
