<svg xmlns="http://www.w3.org/2000/svg" width="34" height="32" viewBox="0 0 34 32">
    <g fill="none" fill-rule="evenodd">
        <g>
            <g>
                <g>
                    <g>
                        <g>
                            <path fill="#D2E0FE" d="M4.7 12.26H7.640000000000001V21.2H4.7z" transform="translate(-271 -3895) translate(3 2846) translate(253 696) translate(0 337) translate(16 17)"/>
                            <path stroke="#1D1D1B" stroke-linecap="round" stroke-linejoin="round" stroke-width="1.4" d="M4.25 9.27H8.01V21.68H4.25z" transform="translate(-271 -3895) translate(3 2846) translate(253 696) translate(0 337) translate(16 17)"/>
                            <path fill="#D2E0FE" d="M29.78 10.6c0 .374-.085.744-.25 1.08-.36.184-.757.28-1.16.28H3C1.62 11.944.51 10.82.51 9.44c-.002-.382.087-.76.26-1.1 1.77-1.23 5-3.44 8-5.38C12.298.656 16.858.671 20.37 3l8.29 5.51c.694.47 1.113 1.252 1.12 2.09zM21.19 25.91c-.011.37-.075.738-.19 1.09-.301.33-.724.52-1.17.53H2.54c-1.12 0-2-1.3-2-2.9-.003-.369.048-.736.15-1.09.295-.322.704-.516 1.14-.54h17.33c1.12 0 2.03 1.31 2.03 2.91z" transform="translate(-271 -3895) translate(3 2846) translate(253 696) translate(0 337) translate(16 17)"/>
                            <path stroke="#1D1D1B" stroke-linecap="round" stroke-linejoin="round" stroke-width="1.4" d="M23.3 24.64c.012.733-.209 1.45-.63 2.05-.083.115-.177.223-.28.32-.33.336-.78.527-1.25.53H2.67c-1.19 0-2.16-1.3-2.16-2.9-.005-.37.05-.737.16-1.09h0c.095-.359.254-.698.47-1 .25-.348.598-.612 1-.76.163-.06.336-.091.51-.09h18.49c1.2.03 2.16 1.3 2.16 2.94zM15.72 12H3c-.67-.008-1.31-.282-1.777-.763C.756 10.757.5 10.11.51 9.44h0c-.002-.382.087-.76.26-1.1.179-.404.466-.75.83-1 1.7-1.18 5.14-3.52 8.25-5.57 3.527-2.33 8.103-2.33 11.63 0L30 7.38" transform="translate(-271 -3895) translate(3 2846) translate(253 696) translate(0 337) translate(16 17)"/>
                            <path fill="#D2E0FE" d="M29.78 10.6v17.72c-.004.489-.117.97-.33 1.41-.537.356-1.166.547-1.81.55h-9.27c-1.758 0-3.184-1.422-3.19-3.18V10c0-.483.113-.959.33-1.39.523-.384 1.152-.597 1.8-.61h9.9c.688-.003 1.348.271 1.831.76.483.49.75 1.152.739 1.84z" transform="translate(-271 -3895) translate(3 2846) translate(253 696) translate(0 337) translate(16 17)"/>
                            <path stroke="#1D1D1B" stroke-linecap="round" stroke-linejoin="round" stroke-width="1.4" d="M31.36 10v17.09c.006 1.047-.503 2.03-1.36 2.63-.533.356-1.16.547-1.8.55h-9.3c-1.756 0-3.18-1.424-3.18-3.18V10c-.004-.483.11-.96.33-1.39.52-1.104 1.63-1.81 2.85-1.81h9.28c.847 0 1.659.338 2.256.938.597.601.93 1.415.924 2.262zM19.53 15.48L27.54 15.48M19.53 21.68L27.54 21.68" transform="translate(-271 -3895) translate(3 2846) translate(253 696) translate(0 337) translate(16 17)"/>
                        </g>
                    </g>
                </g>
            </g>
        </g>
    </g>
</svg>
