<svg xmlns="http://www.w3.org/2000/svg" width="32" height="33" viewBox="0 0 32 33">
    <g fill="none" fill-rule="evenodd">
        <path fill="#F6C4C6" fill-rule="nonzero" d="M1.73 10h-.6l5-6.33c1.404-1.89 3.936-2.543 6.08-1.57h.1c.931.465 1.959.705 3 .7.978 0 1.944-.216 2.83-.63l.33-.15c2.138-.915 4.625-.236 6 1.64l4.65 6.07-5.6-1.43c-1.502-.389-3.093-.244-4.5.41l-.33.16c-1.851.86-3.993.83-5.82-.08-1.423-.702-3.049-.879-4.59-.5L1.73 10z" transform="translate(0 6.5)"/>
        <path fill="#F6C4C6" fill-rule="nonzero" d="M30.05 11.49l.33.12c-1.61 2.5-3.58 5.23-6.11 6.62-2.75 1.5-5.36 1-8.34 1-3.15 0-6.51.68-9.26-1.3-2.21-1.808-4.022-4.056-5.32-6.6h.38l6.59-1.64c1.542-.38 3.169-.2 4.59.51 1.83.902 3.97.927 5.82.07l.33-.16c1.407-.654 2.998-.799 4.5-.41l6.36 1.63h.34l.18.23-.39-.07z" transform="translate(0 6.5)"/>
        <path stroke="#1D1D1B" stroke-linecap="round" stroke-linejoin="round" stroke-width="1.4" d="M.7 10l6.24-7.87C8.369.288 10.871-.34 13 .61h.09c1.827.912 3.971.938 5.82.07l.32-.15h0c2.138-.915 4.625-.236 6 1.64l6 7.81" transform="translate(0 6.5)"/>
        <path fill="#E5E5E5" fill-rule="nonzero" d="M.81 10.35L1.35 11.29 1.28 11.29.68 10.29.51 10.29.66 10.29.66 10.22.51 10 1.13 10zM30.94 10.21h.16-.19c-.21.32-.41.65-.62 1l-1.13-1.49.76.2h1.18l-.16.29z" transform="translate(0 6.5)"/>
        <path stroke="#1D1D1B" stroke-linecap="round" stroke-linejoin="round" stroke-width="1.4" d="M.7 10l7.81-1.94c1.545-.378 3.173-.2 4.6.5h0c1.827.912 3.971.938 5.82.07l.32-.15c1.408-.65 2.996-.799 4.5-.42L31.3 10M31.29 10.16l-.82 1.31h0l-.07.12c-1.61 2.5-3.58 5.23-6.11 6.62-2.75 1.5-5.36 1-8.34 1-3.15 0-6.51.68-9.26-1.3C4.07 16 2.38 13.09.81 10.35l-.11-.19" transform="translate(0 6.5)"/>
    </g>
</svg>
