<svg xmlns="http://www.w3.org/2000/svg" width="32" height="32" viewBox="0 0 32 32">
    <g fill="none" fill-rule="evenodd" opacity=".75">
        <path fill="#FCE7D0" fill-rule="nonzero" d="M29.64 17.6v4.79c.007.342-.054.682-.18 1-.279.1-.573.151-.87.15H3.41c-.726 0-1.421-.29-1.93-.808-.51-.517-.79-1.216-.78-1.942V16c-.009-.342.053-.682.18-1 .27-.1.06-.15.06-.15.45-.955 1.414-1.56 2.47-1.55h-.92V7.66c-.004-1.475.473-2.911 1.36-4.09 1.135-.764 2.472-1.171 3.84-1.17h13c3.785 0 6.854 3.065 6.86 6.85v5.64c1.325.171 2.261 1.385 2.09 2.71z" transform="translate(0 3)"/>
        <path stroke="#1D1D1B" stroke-linecap="round" stroke-linejoin="round" stroke-width="1.4" d="M31.29 16v4.79c.005 1.158-.732 2.19-1.83 2.56-.279.1-.573.151-.87.15H3.41C1.913 23.5.7 22.287.7 20.79V16c-.009-.342.053-.682.18-1l.06-.15c.45-.955 1.414-1.56 2.47-1.55h25.18c1.491 0 2.7 1.209 2.7 2.7zM5.8 23.5L5.8 25.09 5.8 26M26.33 23.5L26.33 26" transform="translate(0 3)"/>
        <path stroke="#1D1D1B" stroke-linecap="round" stroke-linejoin="round" stroke-width="1.4" d="M7.59 9.23h3.72c.873 0 1.71.347 2.326.964.617.617.964 1.453.964 2.326v.78H4.3v-.78c0-1.817 1.473-3.29 3.29-3.29zM20.41 9.23h3.72c1.817 0 3.29 1.473 3.29 3.29v.78h-10.3v-.78c0-1.817 1.473-3.29 3.29-3.29h0z" transform="translate(0 3)"/>
        <path stroke="#1D1D1B" stroke-linecap="round" stroke-linejoin="round" stroke-width="1.4" d="M29.21 7.66v5.64H2.49V7.66c-.004-1.475.473-2.911 1.36-4.09h0C5.132 1.822 7.172.793 9.34.8h13c1.821-.003 3.569.719 4.857 2.006 1.289 1.286 2.013 3.033 2.013 4.854h0z" transform="translate(0 3)"/>
    </g>
</svg>
