<svg xmlns="http://www.w3.org/2000/svg" width="32" height="32" viewBox="0 0 32 32">
    <g fill="none" fill-rule="evenodd">
        <path fill="#FFF" fill-rule="nonzero" d="M24.69 19.18V29.5c.007.521-.113 1.036-.35 1.5-.441.206-.923.312-1.41.31h-8.64c-1.852 0-3.354-1.498-3.36-3.35v-1.87H5.25c-1.155 0-2.263-.46-3.08-1.278C1.355 23.994.898 22.885.9 21.73V5.06c-.002-.785.209-1.555.61-2.23.652-.37 1.39-.564 2.14-.56h11.12c1.212.01 2.198.979 2.23 2.19l.05 10.3H21c1.089.15 1.852 1.15 1.71 2.24.006.023.006.047 0 .07l.31.43c.924.005 1.67.756 1.67 1.68z" transform="translate(3)"/>
        <path stroke="#1D1D1B" stroke-linecap="round" stroke-linejoin="round" stroke-width="1.4" d="M26.3 17.62v10.32c-.02 1.292-.777 2.458-1.95 3-.44.21-.922.319-1.41.32h-8.65c-1.852-.006-3.35-1.508-3.35-3.36V17.62c0-.928.752-1.68 1.68-1.68h2.16c.022.938.792 1.686 1.73 1.68h4.72c.462.002.905-.182 1.23-.51.312-.31.491-.73.5-1.17h1.65c.93 0 1.685.75 1.69 1.68z" transform="translate(3)"/>
        <path stroke="#1D1D1B" stroke-linecap="round" stroke-linejoin="round" stroke-width="1.4" d="M18.62 14.13l.12-9.57c.013-1.017-.38-1.998-1.095-2.723C16.932 1.112 15.957.703 14.94.7H5.25c-1.155 0-2.263.46-3.08 1.278C1.355 2.796.898 3.905.9 5.06v16.67c0 2.404 1.946 4.354 4.35 4.36h5.69M11.05 20.47L26.29 20.47M5.97 7.29L13.66 7.29M5.97 11.2L13.66 11.2M17.25 23.61L20.35 23.61 17.64 29.09" transform="translate(3)"/>
        <path stroke="#1D1D1B" stroke-linecap="round" stroke-linejoin="round" stroke-width="1.4" d="M23 15.94h0c.003-.46-.178-.903-.503-1.23-.325-.326-.766-.51-1.227-.51h-4.76c-.462-.002-.905.182-1.23.51-.325.327-.509.769-.51 1.23" transform="translate(3)"/>
    </g>
</svg>
