<svg xmlns="http://www.w3.org/2000/svg" width="32" height="32" viewBox="0 0 32 32">
    <g fill="none" fill-rule="evenodd">
        <path fill="#FCE7D0" fill-rule="nonzero" d="M6.28 11.86v17.83c.002.446-.073.889-.22 1.31-.484.205-1.004.31-1.53.31-1.02 0-1.996-.406-2.715-1.129C1.095 29.46.695 28.48.7 27.46V9.63c0-.44.077-.877.23-1.29 1.44-.616 3.11-.295 4.22.81.724.716 1.13 1.692 1.13 2.71zM27.59 6.76v22.93c.002.446-.073.889-.22 1.31-.48.206-.997.312-1.52.31h-.14c-1.017.003-1.992-.4-2.711-1.119-.719-.719-1.122-1.694-1.119-2.711V4.53c0-.44.077-.877.23-1.29.477-.206.99-.312 1.51-.31h.14c2.113.005 3.825 1.717 3.83 3.83zM16.86 18.29v11.4c.003.447-.075.89-.23 1.31-.477.206-.99.312-1.51.31-2.115 0-3.83-1.715-3.83-3.83V16.06c0-.44.075-.875.22-1.29 1.184-.512 2.547-.393 3.625.316 1.078.71 1.727 1.914 1.725 3.204z" transform="translate(1)"/>
        <path stroke="#1D1D1B" stroke-linecap="round" stroke-linejoin="round" stroke-width="1.4" d="M8.37 9.63v17.83c.01 1.537-.9 2.93-2.31 3.54-.484.205-1.004.31-1.53.31-1.02 0-1.996-.406-2.715-1.129C1.095 29.46.695 28.48.7 27.46V9.63c0-.44.077-.877.23-1.29.544-1.521 1.984-2.537 3.6-2.54 1.018-.005 1.997.396 2.718 1.115.72.72 1.125 1.697 1.122 2.715h0zM29.68 4.53v22.93c.003 1.017-.4 1.992-1.119 2.711-.719.719-1.694 1.122-2.711 1.119h-.14c-1.017.003-1.992-.4-2.711-1.119-.719-.719-1.122-1.694-1.119-2.711V4.53c0-.44.077-.877.23-1.29.544-1.521 1.984-2.537 3.6-2.54h.14c2.113.005 3.825 1.717 3.83 3.83h0zM19 16.06v11.4c.005 1.553-.932 2.953-2.37 3.54-.477.206-.99.312-1.51.31-2.115 0-3.83-1.715-3.83-3.83V16.06c0-.44.075-.875.22-1.29.562-1.847 2.411-2.987 4.314-2.659 1.903.328 3.264 2.02 3.176 3.949z" transform="translate(1)"/>
    </g>
</svg>
