<?xml version="1.0" encoding="UTF-8"?>
<svg width="32px" height="32px" viewBox="0 0 32 32" version="1.1" xmlns="http://www.w3.org/2000/svg" xmlns:xlink="http://www.w3.org/1999/xlink">
    <title>Icon</title>
    <g id="Page-1" stroke="none" stroke-width="1" fill="none" fill-rule="evenodd">
        <g id="20200406_ICON_ICON-312">
            <path d="M29.6001566,4.46 L29.6001566,10.2 C29.6027616,10.4207003 29.5689716,10.6403356 29.5,10.85 C29.3597358,10.8868297 29.2149726,10.9036626 29.07,10.9 L27.22,10.9 C26.3100186,10.9211669 25.5291062,11.554117 25.32,12.44 C24.3311687,12.5424874 23.5798274,13.3758717 23.58,14.37 L23.58,24.57 C23.5813935,24.843785 23.5304813,25.1153166 23.43,25.37 C23.1536224,26.0859129 22.5637531,26.6352286 21.83,26.86 C21.4012582,26.998644 20.9914411,27.1901159 20.61,27.43 C19.31,28.22 19.49,28.89 19.03,30.43 C19.03,30.48 17.82,31.16 17.79,31.21 C17.5308055,31.2896525 17.2611574,31.3300997 16.99,31.33 L15,31.33 C13.8456701,31.3517232 12.8101179,30.6236006 12.44,29.53 C11.8495595,27.5938775 10.3593963,26.0627348 8.44,25.42 C7.41808896,25.1223138 6.70884694,24.1942199 6.69,23.13 L6.69,12.85 C6.66476977,11.7990399 5.83021153,10.947004 4.78,10.9 L2.94,10.9 C1.70840501,10.9 0.709843437,9.90159499 0.709843437,8.67 L0.709843437,2.93 C0.707238372,2.70929972 0.741028421,2.4896644 0.81,2.28 C0.952628013,2.25989071 1.09737199,2.25989071 1.24,2.28 L6.6,2.4 L7.33,2.4 C8.57796183,2.44535704 9.72146507,3.10896383 10.38,4.17 C11.27,5.57 11.75,7.35 14.3,7.31 C15.5576417,7.33861663 16.7322787,6.68434001 17.37,5.6 C18.8953569,5.16237253 20.1049644,3.997704 20.6,2.49 C20.7911728,2.45133322 20.9851171,2.42792615 21.18,2.42 L27.37,2.23 C28.601595,2.23 29.6001566,3.22840501 29.6001566,4.46 Z" id="Path" fill="#FFFFFF" fill-rule="nonzero"></path>
            <path d="M31.3,2.93 L31.3,8.67 C31.3,9.73416161 30.5449435,10.6486721 29.5,10.85 C29.3597358,10.8868297 29.2149726,10.9036626 29.07,10.9 L27.22,10.9 C26.3100186,10.9211669 25.5291062,11.554117 25.32,12.44 C25.3047118,12.5728951 25.3047118,12.7071049 25.32,12.84 L25.32,23 C25.2993218,24.0603653 24.5960463,24.9859406 23.58,25.29 L23.47,25.29 C22.3496018,25.6876848 21.3695633,26.4035994 20.65,27.35 C20.1723638,27.9652381 19.8129548,28.6637123 19.59,29.41 C19.3239505,30.2308231 18.6623034,30.8623953 17.83,31.09 C17.5708055,31.1696525 17.3011574,31.2100997 17.03,31.21 L15,31.21 C13.8456701,31.2317232 12.8101179,30.5036006 12.44,29.41 C11.8495595,27.4738775 10.3593963,25.9427348 8.44,25.3 C7.41808896,25.0023138 6.70884694,24.0742199 6.69,23.01 L6.69,12.85 C6.66476977,11.7990399 5.83021153,10.947004 4.78,10.9 L2.94,10.9 C1.70840501,10.9 0.709843437,9.90159499 0.709843437,8.67 L0.709843437,2.93 C0.707238372,2.70929972 0.741028421,2.4896644 0.81,2.28 C1.09844309,1.34446139 1.96101554,0.704618918 2.94,0.7 L11.16,0.7 C11.1550115,0.783258677 11.1550115,0.866741323 11.16,0.95 C11.1599943,3.62468065 13.325325,5.79448519 16,5.8 C16.4639016,5.79947074 16.9253076,5.73211221 17.37,5.6 C18.8953569,5.16237253 20.1049644,3.997704 20.6,2.49 C20.768108,2.01103495 20.8559568,1.50759381 20.86,1 C20.8649885,0.916741323 20.8649885,0.833258677 20.86,0.75 L29.08,0.75 C30.2884411,0.755115512 31.2729155,1.72185159 31.3,2.93 Z" id="Path" stroke="#1D1D1B" stroke-width="1.4" stroke-linecap="round" stroke-linejoin="round"></path>
        </g>
    </g>
</svg>