<svg xmlns="http://www.w3.org/2000/svg" width="32" height="33" viewBox="0 0 32 33">
    <g fill="none" fill-rule="evenodd">
        <path fill="#D5F3E8" fill-rule="nonzero" d="M24.62 4.32v27H5c-1.071.082-2.13-.27-2.94-.977-.808-.707-1.299-1.71-1.36-2.783V4.73c-.001-.66.16-1.308.47-1.89.61-.346 1.3-.525 2-.52h19.45c1.105 0 2 .895 2 2z" transform="translate(3 .5)"/>
        <path stroke="#1D1D1B" stroke-linecap="round" stroke-linejoin="round" stroke-width="1.4" d="M26.19 23.83H5c-1.098-.008-2.163.379-3 1.09-.8.647-1.274 1.612-1.3 2.64.066 1.07.559 2.067 1.367 2.77.808.703 1.865 1.052 2.933.97h21.19" transform="translate(3 .5)"/>
        <path stroke="#1D1D1B" stroke-linecap="round" stroke-linejoin="round" stroke-width="1.4" d="M10.05 31.3c-1.06.068-2.103-.287-2.9-.989-.798-.701-1.283-1.691-1.35-2.751h0c.067-1.06.552-2.05 1.35-2.751.797-.702 1.84-1.057 2.9-.989" transform="translate(3 .5)"/>
        <path stroke="#1D1D1B" stroke-linecap="round" stroke-linejoin="round" stroke-width="1.4" d="M26.19 23.83V2.71c0-1.105-.895-2-2-2H4.72c-2.21 0-4 1.79-4 4v22.85M7.51.7L7.51 23.65M26.2 23.82s-3.43 3.74 0 7.48" transform="translate(3 .5)"/>
    </g>
</svg>
