<svg xmlns="http://www.w3.org/2000/svg" width="32" height="33" viewBox="0 0 32 33">
    <g fill="none" fill-rule="evenodd">
        <path fill="#E0F1FA" fill-rule="nonzero" d="M24.55 16.37L23.15 31c-.01.105-.03.209-.06.31H9.45c-.908.004-1.68-.661-1.81-1.56L5.5 15.41c-.04-.286-.012-.577.08-.85.716-.09 1.419.25 1.79.87l1 1.74c.327.546.914.883 1.55.89l8.55.07c.66 0 1.269-.35 1.6-.92l.25-.44.91-1.56c.383-.655 1.194-.92 1.89-.62l.45.19c.643.254 1.042.901.98 1.59z" transform="translate(0 .5)"/>
        <path fill="#E0F1FA" fill-rule="nonzero" d="M24.55 16.37l-.45 4.73H3.78c-.82 0-1.607-.327-2.185-.91C1.017 19.61.695 18.82.7 18c-.004-.637.2-1.259.58-1.77l3.66-1.59v.1l.16-.07c.844-.362 1.825-.046 2.3.74l1 1.74c.327.546.914.883 1.55.89l8.55.07c.66 0 1.269-.35 1.6-.92l.33-.56c-.252.111-.524.169-.8.17l-8.55-.07c-.634-.005-1.22-.338-1.55-.88L8.5 14.13c-.173-.298-.43-.538-.74-.69l6.8-2.95 7.85 3.41-.38.66c.364-.154.776-.154 1.14 0l.45.19c.635.274 1.013.934.93 1.62zM29.85 19.14c.006.63-.186 1.246-.55 1.76-.348.132-.718.2-1.09.2h-3.1l.56-5.79 2.33 1c1.124.492 1.85 1.603 1.85 2.83z" transform="translate(0 .5)"/>
        <path stroke="#1D1D1B" stroke-linecap="round" stroke-linejoin="round" stroke-width="1.4" d="M19.15 3.91c0-1.75-1.4-3.177-3.15-3.21-1.76.032-3.178 1.45-3.21 3.21.007 1.349.859 2.549 2.13 3 .628.215 1.058.796 1.08 1.46v1" transform="translate(0 .5)"/>
        <path stroke="#1D1D1B" stroke-linecap="round" stroke-linejoin="round" stroke-width="1.4" d="M6.35 21.1H3.78c-.82 0-1.607-.327-2.185-.91C1.017 19.61.695 18.82.7 18c-.004-.637.2-1.259.58-1.77.323-.456.766-.812 1.28-1.03L16 9.37l13.44 5.83c.934.407 1.606 1.248 1.796 2.249.19 1-.126 2.03-.846 2.751-.308.31-.68.549-1.09.7-.348.132-.718.2-1.09.2h-2.48" transform="translate(0 .5)"/>
        <path fill="#F9F2D7" fill-rule="nonzero" d="M22 14.56l-.78 1.35c-.186.322-.465.58-.8.74l.83-1.44c.165-.299.43-.53.75-.65zM7.76 13.44l-2.82 1.22c.158-.528.548-.955 1.06-1.16l.24-.11c.49-.207 1.045-.189 1.52.05z" transform="translate(0 .5)"/>
        <path stroke="#1D1D1B" stroke-linecap="round" stroke-linejoin="round" stroke-width="1.4" d="M26.3 15.06v.16l-1.4 14.42c-.087.936-.87 1.654-1.81 1.66H9.45c-.908.004-1.68-.661-1.81-1.56L5.5 15.41c-.04-.286-.012-.577.08-.85.157-.495.522-.897 1-1.1l.25-.11c.84-.37 1.825-.052 2.29.74l1.05 1.74c.33.542.916.875 1.55.88l8.55.07h.1c.621-.022 1.188-.362 1.5-.9l.81-1.4.2-.35c.466-.802 1.459-1.129 2.31-.76.67.295 1.105.957 1.11 1.69z" transform="translate(0 .5)"/>
    </g>
</svg>
