<svg xmlns="http://www.w3.org/2000/svg" width="32" height="33" viewBox="0 0 32 33">
    <g fill="none" fill-rule="evenodd">
        <path fill="#E6D7EA" fill-rule="nonzero" d="M23.77 24.72c-.317-.52-.597-1.061-.84-1.62-.09-.13-.76 1.4-.76 1.4-1.054 2.312-2.678 4.318-4.72 5.83-.77.51-.77.19-1.6.48-.679-.5-1.244-1.137-1.66-1.87-.23-.35-.23-1.05-.41-1.42l-2.4.43s-5.21.61-7-1.21c-1.44-1.44 0-8.62 0-8.62-1.336-.867-2.576-1.872-3.7-3 .313-.854.729-1.667 1.24-2.42 1.337-2.137 3.27-3.836 5.56-4.89-.731-.49-1.402-1.064-2-1.71-.653-.683-1.18-1.475-1.56-2.34C10.6-1 18.16 0 24.26 5.83l.22.23c5.664 5.663 6.706 14.471 2.52 21.3-.19.35-2.42-1.83-3.23-2.64z" transform="translate(0 .5)"/>
        <path stroke="#1D1D1B" stroke-linecap="round" stroke-linejoin="round" stroke-width="1.4" d="M12.85 19c-.897 3.225-.35 6.68 1.5 9.47.67.998 1.479 1.897 2.4 2.67.851-.3 1.661-.706 2.41-1.21 2.168-1.424 3.792-3.538 4.61-6M21.53 19.38s-4.65 1.91-8.67-.36M12.85 19c-3.225.897-6.68.35-9.47-1.5-.998-.67-1.897-1.479-2.67-2.4.303-.847.709-1.653 1.21-2.4 1.424-2.168 3.538-3.792 6-4.61M12.53 10.2s-2 4.78.31 8.8" transform="translate(0 .5)"/>
        <path stroke="#1D1D1B" stroke-linecap="round" stroke-linejoin="round" stroke-width="1.4" d="M13.78 27.52S6.5 29 4.68 27.16c-1.82-1.84-.27-9-.27-9M3.92 3.76c.505.986 1.152 1.892 1.92 2.69.621.624 1.312 1.175 2.06 1.64 3 1.86 7.74 3.17 11 2.22 2.06-.58 5.21-3.05 6.84-4.66-1.014 1.167-1.918 2.426-2.7 3.76-1.18 1.859-1.776 4.029-1.71 6.23.09 2.188.57 4.342 1.42 6.36.277.693.611 1.363 1 2 .474.726 1.028 1.396 1.65 2 .785.787 1.677 1.46 2.65 2 4.92-6.896 4.139-16.338-1.85-22.33l-.2-.22C20.02-.387 10.718-1.099 3.92 3.76zM25.97 5.45L29.98 1.44" transform="translate(0 .5)"/>
    </g>
</svg>
