<svg width="32" height="33" viewBox="0 0 32 33" fill="none" xmlns="http://www.w3.org/2000/svg">
<path d="M28.39 7.23031L25.7 10.0603L23.7 13.8703C23.6693 13.9338 23.6325 13.994 23.59 14.0503C23.0154 14.8585 22.8018 15.8687 23 16.8403C23.7003 21.0822 22.1479 25.3834 18.9 28.2003C16.0774 30.4469 12.6056 31.7234 9 31.8403C6.37468 31.7245 3.79689 31.0996 1.41 30.0003C0.64 29.4103 0.47 28.2803 1 28.1403C1.35327 28.0585 1.69097 27.92 2 27.7303C3.59992 26.7782 4.46227 24.9506 4.18 23.1103C3.97 19.5603 4.55 8.74031 14.18 8.11031H14.5L15.25 8.23031C15.25 8.23031 15.99 8.50031 16.13 8.09031H16.46C16.71 8.09031 16.96 8.15031 17.2 8.20031L18.03 8.40031C18.0438 7.98305 18.2753 7.60356 18.64 7.40031L22.42 5.25031L25.29 2.25031C25.5452 1.92589 25.8945 1.68836 26.29 1.57031C27.5962 1.73343 28.6929 2.63176 29.11 3.88031C29.5235 5.04324 29.2448 6.33998 28.39 7.23031Z" fill="white"/>
<path fill-rule="evenodd" clip-rule="evenodd" d="M30.36 6.65024L27.66 9.48024L25.66 13.2902C25.4811 13.6238 25.1585 13.8565 24.7855 13.9209C24.4124 13.9854 24.0305 13.8745 23.75 13.6202L23.58 13.4702L18.49 8.76023C18.2341 8.51948 18.0924 8.18149 18.1 7.83024C18.1138 7.41298 18.3453 7.03349 18.71 6.83024L22.49 4.68024L25.36 1.68024C25.9615 1.06949 26.7828 0.725586 27.64 0.725586C28.4972 0.725586 29.3185 1.06949 29.92 1.68024L30.36 2.11024C31.5975 3.37058 31.5975 5.3899 30.36 6.65024V6.65024Z" stroke="#1D1D1B" stroke-width="1.4" stroke-linecap="round" stroke-linejoin="round"/>
<path d="M18.1 7.83045L17.27 7.63045C17.03 7.63045 16.78 7.55045 16.53 7.52045H16.2C15.551 7.4704 14.899 7.4704 14.25 7.52045C4.61 8.16045 4 19.0005 4.24 22.5305C4.52227 24.3707 3.65992 26.1983 2.06 27.1505C1.75098 27.3402 1.41327 27.4786 1.06 27.5605C0.5 27.7005 0.67 28.8305 1.44 29.3705C3.79869 30.477 6.3485 31.1187 8.95 31.2605H9C13.2845 31.5706 17.5309 30.2728 20.91 27.6205C24.7153 24.3135 26.1352 19.0293 24.5 14.2605V14.2605" stroke="#1D1D1B" stroke-width="1.4" stroke-linecap="round" stroke-linejoin="round"/>
<path d="M27.66 9.49016L22.5 4.66016" stroke="#1D1D1B" stroke-width="1.4" stroke-linecap="round" stroke-linejoin="round"/>
</svg>
