<svg xmlns="http://www.w3.org/2000/svg" width="32" height="32" viewBox="0 0 32 32">
    <g fill="none" fill-rule="evenodd">
        <g>
            <g>
                <g>
                    <g transform="translate(-287 -608) translate(255 584) translate(32 24) translate(1 1)">
                        <rect width="24" height="24" x="2.4" y="6" fill="#FCE7D0" rx="1.2"/>
                        <path fill="#1D1D1D" fill-rule="nonzero" d="M3.36 6.24v23.04h24.48V6.24H3.36zm25.92 0v23.04H30c.398 0 .72.322.72.72 0 .398-.322.72-.72.72H1.2c-.398 0-.72-.322-.72-.72 0-.398.322-.72.72-.72h.72V6.24H1.2c-.398 0-.72-.322-.72-.72V2.64c0-1.193.967-2.16 2.16-2.16h25.92c1.193 0 2.16.967 2.16 2.16v2.88c0 .398-.322.72-.72.72h-.72zm0-1.44V2.64c0-.398-.322-.72-.72-.72H2.64c-.398 0-.72.322-.72.72V4.8h27.36z"/>
                        <path fill="#1D1D1D" fill-rule="nonzero" d="M9.84 23.52c.398 0 .72.322.72.72 0 .398-.322.72-.72.72H6.96c-.398 0-.72-.322-.72-.72 0-.398.322-.72.72-.72h2.88zm14.4 0c.398 0 .72.322.72.72 0 .398-.322.72-.72.72h-2.88c-.398 0-.72-.322-.72-.72 0-.398.322-.72.72-.72h2.88zm-7.2 0c.398 0 .72.322.72.72 0 .398-.322.72-.72.72h-2.88c-.398 0-.72-.322-.72-.72 0-.398.322-.72.72-.72h2.88zm-7.2-4.32c.398 0 .72.322.72.72 0 .398-.322.72-.72.72H6.96c-.398 0-.72-.322-.72-.72 0-.398.322-.72.72-.72h2.88zm14.4 0c.398 0 .72.322.72.72 0 .398-.322.72-.72.72h-2.88c-.398 0-.72-.322-.72-.72 0-.398.322-.72.72-.72h2.88zm-7.2 0c.398 0 .72.322.72.72 0 .398-.322.72-.72.72h-2.88c-.398 0-.72-.322-.72-.72 0-.398.322-.72.72-.72h2.88zm-7.2-4.32c.398 0 .72.322.72.72 0 .398-.322.72-.72.72H6.96c-.398 0-.72-.322-.72-.72 0-.398.322-.72.72-.72h2.88zm14.4 0c.398 0 .72.322.72.72 0 .398-.322.72-.72.72h-2.88c-.398 0-.72-.322-.72-.72 0-.398.322-.72.72-.72h2.88zm-7.2 0c.398 0 .72.322.72.72 0 .398-.322.72-.72.72h-2.88c-.398 0-.72-.322-.72-.72 0-.398.322-.72.72-.72h2.88zm-7.2-4.32c.398 0 .72.322.72.72 0 .398-.322.72-.72.72H6.96c-.398 0-.72-.322-.72-.72 0-.398.322-.72.72-.72h2.88zm14.4 0c.398 0 .72.322.72.72 0 .398-.322.72-.72.72h-2.88c-.398 0-.72-.322-.72-.72 0-.398.322-.72.72-.72h2.88zm-7.2 0c.398 0 .72.322.72.72 0 .398-.322.72-.72.72h-2.88c-.398 0-.72-.322-.72-.72 0-.398.322-.72.72-.72h2.88z"/>
                    </g>
                </g>
            </g>
        </g>
    </g>
</svg>
