<svg width="32" height="32" viewBox="0 0 32 32" fill="none" xmlns="http://www.w3.org/2000/svg">
<path d="M29.81 10.7398V15.5098C29.8116 17.133 29.2773 18.7114 28.29 19.9998L21.57 26.7298C21.2607 27.0333 20.8728 27.2446 20.45 27.3398L7.00001 30.4198L4.42001 30.9998C3.63912 31.1788 2.82125 30.9404 2.25885 30.3698C1.69645 29.7993 1.46983 28.978 1.66001 28.1998L2.54001 24.7398L5.65001 12.5198C5.69962 12.3168 5.77702 12.1216 5.88001 11.9398L12.31 5.5098C13.7042 4.09757 15.6055 3.30178 17.59 3.2998H22.36C26.4706 3.2998 29.8045 6.62919 29.81 10.7398Z" fill="white"/>
<path fill-rule="evenodd" clip-rule="evenodd" d="M31.29 9.13977V13.9198C31.2906 15.893 30.5063 17.7855 29.11 19.1798L28.29 19.9998L22.62 25.6798C21.7031 26.6757 20.4962 27.3579 19.17 27.6298L7.00001 30.4198L4.42001 30.9998C3.63912 31.1787 2.82125 30.9403 2.25885 30.3698C1.69645 29.7992 1.46983 28.978 1.66001 28.1998L2.54001 24.7398L5.27001 13.9998C5.64464 12.796 6.23043 11.6684 7.00001 10.6698L13.78 3.87977C15.186 2.47643 17.0936 1.6918 19.08 1.69977H23.85C27.9567 1.70528 31.2845 5.03305 31.29 9.13977V9.13977Z" stroke="#1D1D1B" stroke-width="1.4" stroke-linecap="round" stroke-linejoin="round"/>
<path d="M8.63 9.06982L7.35 15.6798C7.2362 16.3215 7.44218 16.9784 7.90201 17.4402C8.36183 17.902 9.01783 18.1109 9.66 17.9998L13.41 17.2798C14.0501 17.1698 14.7039 17.3774 15.1631 17.8367C15.6224 18.296 15.8301 18.9497 15.72 19.5898L15 23.3298C14.8862 23.9715 15.0922 24.6284 15.552 25.0902C16.0118 25.552 16.6678 25.7609 17.31 25.6498L23.93 24.3698" stroke="#1D1D1B" stroke-width="1.4" stroke-linecap="round" stroke-linejoin="round"/>
<path d="M2.54001 24.75L7.04001 30.42" stroke="#1D1D1B" stroke-width="1.4" stroke-linecap="round" stroke-linejoin="round"/>
</svg>
