<svg width="26" height="32" viewBox="0 0 26 32" fill="none" xmlns="http://www.w3.org/2000/svg">
<path fill-rule="evenodd" clip-rule="evenodd" d="M3.11 2.20986H20C20.8732 2.19646 21.7153 2.534 22.3376 3.14683C22.9598 3.75966 23.3101 4.59652 23.31 5.46986V28.9399C23.3065 29.5358 23.1698 30.1235 22.91 30.6599C22.3698 30.9301 21.774 31.0705 21.17 31.0699H4.86C3.83626 31.0699 2.85446 30.6632 2.13057 29.9393C1.40668 29.2154 0.999999 28.2336 0.999999 27.2099V4.33986C0.994155 3.74617 1.12055 3.15863 1.37 2.61986C1.91056 2.35066 2.50612 2.21032 3.11 2.20986ZM16.21 13.7199L18.4 11.7199H18.44C18.791 11.4294 18.9353 10.9577 18.807 10.5205C18.6787 10.0833 18.3023 9.76455 17.85 9.70986L14.85 9.20986C14.4844 9.14712 14.1736 8.90747 14.02 8.56986L12.74 5.84986C12.5496 5.47234 12.1628 5.23424 11.74 5.23424C11.3172 5.23424 10.9304 5.47234 10.74 5.84986L9.26 7.60986C9.08 7.93986 6.13 8.49986 6.13 8.49986C5.19 8.61986 8.48 12.5499 8.48 12.5499C8.75 12.8099 8.4 16.9599 8.33 17.3299L10.96 17.3899C11.0203 17.3578 11.1171 17.3003 11.2368 17.2291C11.7524 16.9225 12.6922 16.3638 12.96 16.5099C12.96 16.5099 16.43 18.6399 16.29 17.7199L15.86 14.7199C15.8053 14.3493 15.9361 13.9754 16.21 13.7199Z" fill="white"/>
<path fill-rule="evenodd" clip-rule="evenodd" d="M25 4.55995V27.44C25.0002 28.8951 24.18 30.2261 22.88 30.88C22.3423 31.158 21.7454 31.3021 21.14 31.3H4.83C2.70991 31.2835 0.999936 29.5601 1 27.44V4.55995C1.00299 3.96712 1.13972 3.3826 1.4 2.84995C2.04568 1.54315 3.37243 0.711515 4.83 0.699951H21.17C23.2901 0.716429 25.0001 2.43979 25 4.55995Z" stroke="#1D1D1B" stroke-width="1.4" stroke-linecap="round" stroke-linejoin="round"/>
<path d="M14.7 26.1499H19.79" stroke="#1D1D1B" stroke-width="1.4" stroke-linecap="round" stroke-linejoin="round"/>
<path fill-rule="evenodd" clip-rule="evenodd" d="M6.86 8.14005L9.86 7.78005C10.229 7.7366 10.5518 7.51138 10.72 7.18005L12.11 4.52005C12.319 4.15942 12.7081 3.9416 13.1248 3.95202C13.5415 3.96243 13.9193 4.19943 14.11 4.57005L15.37 7.29005C15.527 7.62914 15.8414 7.86872 16.21 7.93005L19.21 8.43005C19.6349 8.49954 19.9834 8.80449 20.1087 9.21644C20.234 9.62839 20.1143 10.0757 19.8 10.37L17.6 12.42C17.3304 12.6784 17.2004 13.05 17.25 13.42L17.69 16.42C17.7448 16.847 17.5522 17.268 17.1934 17.5058C16.8346 17.7436 16.3719 17.7569 16 17.54L13.37 16.09C13.0417 15.9158 12.6483 15.9158 12.32 16.09L9.63 17.4C9.24096 17.5955 8.77459 17.5522 8.4281 17.2886C8.0816 17.025 7.91549 16.5871 8 16.16L8.58 13.22C8.64921 12.8577 8.53722 12.4844 8.28 12.22L6.18 10.06C5.88183 9.74908 5.78443 9.29658 5.92826 8.89047C6.07209 8.48437 6.43257 8.19404 6.86 8.14005Z" stroke="#1D1D1B" stroke-width="1.4" stroke-linecap="round" stroke-linejoin="round"/>
</svg>
