<svg xmlns="http://www.w3.org/2000/svg" width="32" height="33" viewBox="0 0 32 33">
    <g fill="none" fill-rule="evenodd">
        <path fill="#FCE7D0" fill-rule="nonzero" d="M29.73 6v12.49c.001.646-.16 1.283-.47 1.85-.317.618-.798 1.137-1.39 1.5l-.21.13c-.215.121-.443.218-.68.29-.202.286-.43.554-.68.8v7.18l-2.93-2.73-4.15 3.67c-.089.11-.234.156-.37.116-.135-.04-.234-.156-.25-.296v-9.81c-.114-.104-.214-.222-.3-.35H4.67c-2.21 0-4-1.79-4-4V4.4c-.003-.642.155-1.275.46-1.84.587-.329 1.248-.5 1.92-.5h22.72c2.17.021 3.928 1.77 3.96 3.94z" transform="translate(0 .5)"/>
        <path stroke="#1D1D1B" stroke-linecap="round" stroke-linejoin="round" stroke-width="1.4" d="M27.87 21.45v9.47c-.006.142-.097.267-.231.315-.134.049-.284.01-.379-.095l-1-.9-2.93-2.73-4.15 3.67c-.092.085-.222.115-.342.078-.12-.037-.21-.136-.238-.258v-9.81M28.55 20.65c.236-.074.463-.171.68-.29h0c1.236-.714 1.999-2.032 2-3.46V4.4c0-2.21-1.79-4-4-4H4.67c-1.472-.004-2.822.814-3.5 2.12C.858 3.097.7 3.744.71 4.4v12.48c0 2.21 1.79 4 4 4H18.3" transform="translate(0 .5)"/>
        <path stroke="#1D1D1B" stroke-linecap="round" stroke-linejoin="round" stroke-width="1.4" d="M29.76 16.89v.66c-.334 3.273-3.09 5.762-6.38 5.76-1.814.007-3.544-.765-4.75-2.12-.114-.104-.214-.222-.3-.35-1.673-2.146-1.81-5.115-.339-7.405s4.227-3.402 6.875-2.773c2.648.629 4.61 2.861 4.894 5.568v.66z" transform="translate(0 .5)"/>
        <path stroke="#1D1D1B" stroke-linecap="round" stroke-linejoin="round" stroke-width="1.4" d="M21.1 16.49L23.23 18.6 26.47 14.62M5.6 5.8L16 5.8" transform="translate(0 .5)"/>
    </g>
</svg>
