<svg xmlns="http://www.w3.org/2000/svg" width="32" height="32" viewBox="0 0 32 32">
    <g fill="none" fill-rule="evenodd">
        <g>
            <g>
                <g>
                    <g transform="translate(-1087 -816) translate(1087 578) translate(0 238) translate(0 2)">
                        <rect width="25" height="16" x="2" y="4" fill="#FFF" rx="4"/>
                        <path fill="#1D1D1D" fill-rule="nonzero" d="M5.92 1.76c-1.988 0-3.6 1.612-3.6 3.6v10.08c0 1.988 1.612 3.6 3.6 3.6h20.16c1.988 0 3.6-1.612 3.6-3.6V5.36c0-1.988-1.612-3.6-3.6-3.6H5.92zm.944 20.384c.679-.679 1.697.34 1.018 1.018l-1.65 1.651h6.901c.96 0 .96 1.44 0 1.44H6.231l1.651 1.65c.679.68-.34 1.698-1.018 1.02l-2.785-2.786c-.11-.072-.19-.174-.241-.29-.055-.103-.079-.21-.078-.314-.001-.104.023-.21.078-.314.05-.116.131-.218.241-.29zm18.298 0l2.785 2.784c.11.073.19.175.241.29.055.104.079.211.078.315.001.104-.023.21-.078.314-.05.116-.131.218-.241.29l-2.785 2.785c-.679.679-1.697-.34-1.018-1.018l1.65-1.651h-6.901c-.96 0-.96-1.44 0-1.44h6.902l-1.651-1.65c-.679-.68.34-1.698 1.018-1.02zM26.08.32c2.784 0 5.04 2.256 5.04 5.04v10.08c0 2.784-2.256 5.04-5.04 5.04H5.92c-2.784 0-5.04-2.256-5.04-5.04V5.36C.88 2.576 3.136.32 5.92.32h20.16z"/>
                        <path fill="#1D1D1D" fill-rule="nonzero" d="M16.72 6.08h2.092c.398 0 .72.322.72.72v.545c0 .398-.322.72-.72.72-.337 0-.62-.232-.698-.545H14.58c-.398 0-.72.322-.72.72v.721c0 .398.322.72.72.72h2.86c1.193 0 2.16.967 2.16 2.16v.719c0 1.193-.967 2.16-2.16 2.16h-.72v.707c0 .398-.322.72-.72.72-.398 0-.72-.322-.72-.72v-.707h-2.16c-.406 0-.732-.336-.72-.742l.02-.66c.013-.397.345-.71.742-.698.37.012.666.3.696.66h3.582c.398 0 .72-.322.72-.72v-.719c0-.398-.322-.72-.72-.72h-2.86c-1.193 0-2.16-.967-2.16-2.16V8.24c0-1.193.967-2.16 2.16-2.16h.7v-.72c0-.398.322-.72.72-.72.398 0 .72.322.72.72v.72z"/>
                    </g>
                </g>
            </g>
        </g>
    </g>
</svg>
