<svg xmlns="http://www.w3.org/2000/svg" width="36" height="36" viewBox="0 0 36 36">
    <g fill="none" fill-rule="evenodd">
        <path fill="#FFF" fill-rule="nonzero" d="M26.01 7.976c.513.083.89.527.889 1.047v7.785c.003 4.297-1.426 8.474-4.062 11.868l-7.874 6.233-6.57-4.905C3.487 26.347.833 19.125.833 13.016V6.604c.127-.126.267-.239.416-.338.201-.02.4-.057.596-.112.919-.222 1.757-.698 2.419-1.373.57-.55.998-1.229 1.248-1.98h15.02c.605.002 1.122.439 1.226 1.035.427 2.125 2.116 3.77 4.252 4.14z" transform="translate(3.375)"/>
        <path stroke="#1D1D1B" stroke-linecap="round" stroke-linejoin="round" stroke-width="1.4" d="M28.688 6.143v8.763c0 6-2.78 11.663-7.527 15.334l-.337.259-5.895 4.601-6.57-4.894C3.448 26.534.56 20.757.574 14.625V6.143h.675c.2-.03.4-.071.596-.124.923-.232 1.761-.72 2.419-1.407.57-.55.998-1.229 1.248-1.98v-.09C5.813 1.56 6.724.89 7.753.9H21.51c1.001.012 1.881.665 2.182 1.62.152.466.368.91.642 1.316.977 1.446 2.609 2.31 4.354 2.307h0z" transform="translate(3.375)"/>
        <path stroke="#1D1D1B" stroke-linecap="round" stroke-linejoin="round" stroke-width="1.4" d="M10.012 16.661L13.568 20.25 20.644 12.645" transform="translate(3.375)"/>
    </g>
</svg>
