<svg xmlns="http://www.w3.org/2000/svg" width="30" height="32" viewBox="0 0 30 32">
    <g fill="none" fill-rule="evenodd">
        <g>
            <g>
                <g>
                    <g>
                        <g>
                            <path fill="#EDE0FA" d="M20.8 11v17.84c-.07.23-.18.55-.26.77-.368.432-.83.774-1.35 1-.428.196-.89.308-1.36.33H5.72c-1.017.003-1.992-.4-2.711-1.119-.719-.719-1.122-1.694-1.119-2.711V4.21c-.015-.183-.015-.367 0-.55.044-.346.141-.684.29-1l.06-.12c.602-.366 1.296-.554 2-.54h7.25c1.751-.04 3.449.606 4.73 1.8 1.07 1.11 2.31 2.39 3.34 3.44.879 1.049 1.323 2.394 1.24 3.76z" transform="translate(-274 -3960) translate(3 2846) translate(253 696) translate(0 402) translate(18 16)"/>
                            <path stroke="#1D1D1B" stroke-linecap="round" stroke-linejoin="round" stroke-width="1.4" d="M18.24 31.3H5.5c-1.016 0-1.99-.404-2.708-1.122-.718-.718-1.122-1.692-1.122-2.708V4.54c-.015-.183-.015-.367 0-.55.057-.345.169-.68.33-.99l.06-.12C2.687 1.549 4.029.702 5.5.71h7.81" transform="translate(-274 -3960) translate(3 2846) translate(253 696) translate(0 402) translate(18 16)"/>
                            <path fill="#EDE0FA" d="M27.18 11v17.84c-.07.23-.18.55-.26.77-.368.432-.83.774-1.35 1-.428.196-.89.308-1.36.33H12.1c-1.017.003-1.992-.4-2.711-1.119-.719-.719-1.122-1.694-1.119-2.711V4.21c-.015-.183-.015-.367 0-.55.044-.346.141-.684.29-1l.06-.12c.599-.364 1.289-.552 1.99-.54h7.25c1.755-.043 3.456.603 4.74 1.8 1.07 1.11 2.31 2.39 3.34 3.44.879 1.049 1.323 2.394 1.24 3.76z" transform="translate(-274 -3960) translate(3 2846) translate(253 696) translate(0 402) translate(18 16)"/>
                            <path stroke="#1D1D1B" stroke-linecap="round" stroke-linejoin="round" stroke-width="1.4" d="M8.06 7.14v-2.6c-.001-.18.012-.361.04-.54.044-.346.141-.684.29-1l.06-.12C9.077 1.549 10.419.702 11.89.71h7.8c1.338-.001 2.619.54 3.55 1.5C24.46 3.45 26 5 27.17 6.24c.827.856 1.29 2 1.29 3.19v18c.003.78-.238 1.543-.69 2.18-.714 1.03-1.886 1.647-3.14 1.65H11.89c-1.017.003-1.992-.4-2.711-1.119-.719-.719-1.122-1.694-1.12-2.711V16.82" transform="translate(-274 -3960) translate(3 2846) translate(253 696) translate(0 402) translate(18 16)"/>
                            <path stroke="#1D1D1B" stroke-linecap="round" stroke-linejoin="round" stroke-width="1.4" d="M21.78 1.31v4.36c0 1.04.84 1.884 1.88 1.89h4.12M13.02 15.35L23.46 15.35M13.02 20.29L23.46 20.29M21.76 24.63L23.46 24.63" transform="translate(-274 -3960) translate(3 2846) translate(253 696) translate(0 402) translate(18 16)"/>
                            <path fill="#1D1D1B" fill-rule="nonzero" d="M8.06 20c-.387 0-.7-.313-.7-.7 0-5.68-.85-6.67-5.68-6.67-.387 0-.7-.313-.7-.7 0-.387.313-.7.7-.7 4.83 0 5.68-1 5.68-6.67 0-.387.313-.7.7-.7.387 0 .7.313.7.7 0 5.67.84 6.67 5.67 6.67.387 0 .7.313.7.7 0 .387-.313.7-.7.7-4.83 0-5.67 1-5.67 6.67-.005.384-.316.695-.7.7zm-2-8.07c.919.422 1.636 1.187 2 2.13.359-.946 1.078-1.712 2-2.13-.92-.425-1.639-1.193-2-2.14-.363.937-1.072 1.7-1.98 2.13l-.02.01z" transform="translate(-274 -3960) translate(3 2846) translate(253 696) translate(0 402) translate(18 16)"/>
                        </g>
                    </g>
                </g>
            </g>
        </g>
    </g>
</svg>
