<svg xmlns="http://www.w3.org/2000/svg" width="36" height="36" viewBox="0 0 36 36">
    <g fill="none" fill-rule="evenodd">
        <path fill="#FFF" fill-rule="nonzero" d="M33.446 6.75v14.051c.001.727-.18 1.443-.529 2.082-.356.695-.897 1.278-1.563 1.687l-.236.146c-.243.137-.5.246-.765.326-.228.323-.484.624-.766.9v8.078l-3.296-3.071-4.669 4.128c-.1.124-.263.175-.416.131-.152-.044-.263-.175-.281-.333V23.839c-.128-.118-.241-.25-.338-.394H5.254c-2.486 0-4.5-2.015-4.5-4.5V4.95c-.004-.722.174-1.434.517-2.07.66-.37 1.404-.563 2.16-.563h25.56c2.442.025 4.419 1.992 4.455 4.433z"/>
        <path stroke="#1D1D1B" stroke-linecap="round" stroke-linejoin="round" stroke-width="1.4" d="M31.354 24.131v10.654c-.007.16-.11.3-.26.355-.15.054-.32.012-.427-.108l-1.125-1.012-3.296-3.071-4.668 4.128c-.104.097-.25.13-.385.088-.135-.042-.237-.152-.268-.29V23.839M32.119 23.231c.265-.083.521-.192.765-.326h0c1.39-.803 2.248-2.286 2.25-3.893V4.95c0-2.485-2.015-4.5-4.5-4.5H5.254c-1.656-.005-3.175.916-3.938 2.385C.966 3.485.787 4.212.8 4.95v14.04c0 2.485 2.014 4.5 4.5 4.5h15.288"/>
        <path stroke="#1D1D1B" stroke-linecap="round" stroke-linejoin="round" stroke-width="1.4" d="M33.48 19.001v.743c-.375 3.682-3.477 6.482-7.177 6.48-2.041.007-3.987-.861-5.344-2.385-.128-.118-.241-.25-.338-.394-1.882-2.414-2.035-5.755-.38-8.33 1.654-2.577 4.755-3.828 7.733-3.12 2.98.707 5.187 3.219 5.506 6.264V19z"/>
        <path stroke="#1D1D1B" stroke-linecap="round" stroke-linejoin="round" stroke-width="1.4" d="M23.738 18.551L26.134 20.925 29.779 16.448M6.3 6.525L18 6.525"/>
    </g>
</svg>
