<?xml version="1.0" encoding="UTF-8"?>
<svg width="24px" height="32px" viewBox="0 0 24 32" version="1.1" xmlns="http://www.w3.org/2000/svg" xmlns:xlink="http://www.w3.org/1999/xlink">
    <title>Icon</title>
    <g id="Page-1" stroke="none" stroke-width="1" fill="none" fill-rule="evenodd">
        <g id="Group" transform="translate(-4.000000, 0.000000)">
            <g id="20200406_ICON_ICON-372" transform="translate(4.000000, 0.000000)">
                <path d="M2.39,26.85 C2.39,26.85 19.56,26.85 19.5200698,26.72 L19.5200698,26.72 C19.3762636,26.0437737 18.9455937,25.4634642 18.34,25.13 C17.1564145,24.5351099 16.172689,23.6070013 15.51,22.46 L14.57,16.92 C14.3877594,16.0026914 14.7841891,15.0671173 15.57,14.56 C15.623309,14.5280733 15.6735262,14.4912474 15.72,14.45 C16.1057003,14.118739 16.3313358,13.6383537 16.34,13.13 C16.3344998,12.1839778 15.5660382,11.419984 14.62,11.42 L13.69,11.32 C12.62,11.24 13.53,10.85 13.94,10.46 C15.4576166,9.02630426 15.9458652,6.81125322 15.1716404,4.8723825 C14.3974156,2.93351178 12.5177279,1.66401889 10.43,1.67 C9.80117269,1.66090287 9.17647328,1.77294135 8.59,2 C7.3096837,3.15324161 6.69827963,4.87500764 6.96453715,6.57744206 C7.23079466,8.27987648 8.33870555,9.73274491 9.91,10.44 L7.8,10.44 C7.55406787,10.4369841 7.3108671,10.4917899 7.09,10.6 C7.46,10.92 6.71,10.68 7.17,10.89 L6.27,11.4 C6.1619126,11.596788 6.10033799,11.81572 6.09,12.04 C6.07895531,12.531301 6.26926309,13.0057568 6.61675313,13.3532469 C6.96424317,13.7007369 7.438699,13.8910447 7.93,13.88 L8.38,13.88 L6.92,21.5 C6.61911275,22.8734309 5.64483202,24.0019414 4.33,24.5 C4.26045778,24.5272421 4.19351902,24.5607115 4.13,24.6 C3.92474426,24.7896116 3.70018479,24.9571933 3.46,25.1 C3.46,25.1 3.46,25.1 3.46,25.1 L2.39,26.85 Z" id="Path" fill="#FFFFFF" fill-rule="nonzero"></path>
                <path d="M21.9,31.05 C21.6776727,31.1634376 21.4375158,31.2378524 21.19,31.27 L20.88,31.27 L3.12,31.27 C2.29482861,31.2750085 1.53077638,30.8356785 1.11996896,30.12 L1.11996896,30.12 C1.11754456,29.6513866 1.26082181,29.1935983 1.53,28.81 L1.84,28.81 L19.61,28.81 C20.2172756,28.8107088 20.7996265,29.0515576 21.23,29.48 C21.6482026,29.896834 21.8883867,30.4596534 21.9,31.05 L21.9,31.05 Z" id="Path" fill="#FFFFFF" fill-rule="nonzero"></path>
                <path d="M9.91,10.45 C7.71641162,9.46450658 6.50930007,7.08058413 7.0132357,4.72918537 C7.51717134,2.37778661 9.59520744,0.697914446 12,0.697914446 C14.4047926,0.697914446 16.4828287,2.37778661 16.9867643,4.72918537 C17.4906999,7.08058413 16.2835884,9.46450658 14.09,10.45" id="Path" stroke="#1D1D1B" stroke-width="1.4" stroke-linecap="round" stroke-linejoin="round"></path>
                <path d="M17.91,12.17 C17.91,13.1199298 17.1399298,13.89 16.19,13.89 L7.8,13.89 C6.85007023,13.89 6.08,13.1199298 6.08,12.17 C6.07630531,11.9044708 6.14178504,11.6425518 6.27,11.41 C6.435226,11.0512661 6.72729637,10.7663194 7.09,10.61 C7.3108671,10.5017899 7.55406787,10.4469841 7.8,10.45 L16.19,10.45 C17.1399298,10.45 17.91,11.2200702 17.91,12.17 Z" id="Path" stroke="#1D1D1B" stroke-width="1.4" stroke-linecap="round" stroke-linejoin="round"></path>
                <path d="M8.38,13.89 L6.92,21.5 C6.61911275,22.8734309 5.64483202,24.0019414 4.33,24.5 C4.26045778,24.5272421 4.19351902,24.5607115 4.13,24.6 C3.87498525,24.7193644 3.64700322,24.8895002 3.46,25.1 C3.46,25.1 3.46,25.1 3.46,25.1 C3.07209174,25.5426281 2.85878351,26.1114501 2.85999483,26.7 L21.16,26.7 L21.16,26.26 C21.1596188,25.3865049 20.6846896,24.5821893 19.92,24.16 C18.7360484,23.5609818 17.7525452,22.6296077 17.09,21.48 L15.73,14.48 L15.62,13.93" id="Path" stroke="#1D1D1B" stroke-width="1.4" stroke-linecap="round" stroke-linejoin="round"></path>
                <path d="M23.17,29 C23.1534509,29.8515455 22.6636599,30.6228699 21.9,31 C21.6776727,31.1134376 21.4375158,31.1878524 21.19,31.2200424 L20.88,31.2200424 L3.12,31.2200424 C2.29482861,31.2250085 1.53077638,30.7856785 1.12,30.07 C0.683659941,29.3033647 0.726447305,28.3542631 1.23,27.63 L1.23,27.58 C1.2978909,27.488871 1.37136511,27.4020379 1.45,27.32 C1.70399003,27.0752188 2.00746358,26.8876789 2.34,26.77 C2.57476763,26.6888922 2.82162232,26.6483133 3.07,26.65 L20.88,26.65 C21.4978858,26.6497879 22.089637,26.8992739 22.5208625,27.3417978 C22.952088,27.7843218 23.1861892,28.3823263 23.17,29 L23.17,29 Z" id="Path" stroke="#1D1D1B" stroke-width="1.4" stroke-linecap="round" stroke-linejoin="round"></path>
            </g>
        </g>
    </g>
</svg>