<svg xmlns="http://www.w3.org/2000/svg" width="32" height="33" viewBox="0 0 32 33">
    <g fill="none" fill-rule="evenodd" opacity=".75">
        <path fill="#F6C4C6" fill-rule="nonzero" d="M23.12 7.09c.456.074.791.468.79.93v6.92c.003 3.82-1.267 7.533-3.61 10.55l-7 5.54-5.84-4.36C3.1 23.42.74 17 .74 11.57v-5.7c.114-.112.237-.212.37-.3.18-.018.357-.051.53-.1.817-.197 1.562-.62 2.15-1.22.506-.489.887-1.093 1.11-1.76h13.35c.538.002.998.39 1.09.92.38 1.889 1.881 3.35 3.78 3.68z" transform="translate(3 .5)"/>
        <path stroke="#1D1D1B" stroke-linecap="round" stroke-linejoin="round" stroke-width="1.4" d="M25.5 5.46v7.79c0 5.334-2.47 10.367-6.69 13.63l-.3.23-5.24 4.09-5.84-4.35C3.065 23.586.499 18.45.51 13V5.46h.6c.179-.026.356-.063.53-.11.82-.206 1.565-.64 2.15-1.25.506-.489.887-1.093 1.11-1.76v-.08C5.166 1.386 5.976.791 6.89.8h12.23c.89.01 1.672.591 1.94 1.44.135.415.327.808.57 1.17.869 1.285 2.32 2.053 3.87 2.05h0z" transform="translate(3 .5)"/>
        <path stroke="#1D1D1B" stroke-linecap="round" stroke-linejoin="round" stroke-width="1.4" d="M8.9 14.81L12.06 18 18.35 11.24" transform="translate(3 .5)"/>
    </g>
</svg>
