<svg xmlns="http://www.w3.org/2000/svg" width="32" height="33" viewBox="0 0 32 33">
    <g fill="none" fill-rule="evenodd" opacity=".75">
        <path fill="#E0F1FA" fill-rule="nonzero" d="M29.68 4.55v21.87c.005 1.874-.81 3.657-2.23 4.88H3.66c-1.657 0-3-1.343-3-3V4.53c1.232-1.424 3.027-2.236 4.91-2.22h21.87c1.235.005 2.235 1.005 2.24 2.24z" transform="translate(0 .5)"/>
        <path stroke="#1D1D1B" stroke-linecap="round" stroke-linejoin="round" stroke-width="1.4" d="M31.29 3.66v24.68c0 1.638-1.313 2.973-2.95 3H3.66c-1.657 0-3-1.343-3-3V3.66C.687 2.023 2.022.71 3.66.71h24.68c1.618.027 2.923 1.332 2.95 2.95zM.7 16L31.37 16M16.04.66L16.04 31.34M8.54 4.41L8.52 12.97M12.8 8.7L4.25 8.68M26.35 20.72L20.29 26.75M26.33 26.76L20.3 20.7M27.59 8.69L19.04 8.67M5.18 26.76L11.21 20.7" transform="translate(0 .5)"/>
    </g>
</svg>
