<svg xmlns="http://www.w3.org/2000/svg" width="32" height="32" viewBox="0 0 32 32">
    <g fill="none" fill-rule="evenodd" opacity=".75">
        <g>
            <g>
                <g>
                    <g transform="translate(-280 -6593) translate(-1 6238) translate(257 331) translate(24 24)">
                        <rect width="23" height="25" x="3" y="3" fill="#D2E0FE" rx="4"/>
                        <path fill="#1D1D1D" fill-rule="nonzero" d="M25.83 2.52c1.74 0 3.15 1.41 3.15 3.15v18.9c0 2.436-1.974 4.41-4.41 4.41H6.93c-2.436 0-4.41-1.974-4.41-4.41V5.67c0-1.74 1.41-3.15 3.15-3.15h20.16zm0 1.26H5.67c-1.044 0-1.89.846-1.89 1.89v18.9c0 1.74 1.41 3.15 3.15 3.15h17.64c1.74 0 3.15-1.41 3.15-3.15V5.67c0-1.044-.846-1.89-1.89-1.89zM9.45 22.68c.348 0 .63.282.63.63 0 .348-.282.63-.63.63H6.93c-.348 0-.63-.282-.63-.63 0-.348.282-.63.63-.63zm15.12 0c.348 0 .63.282.63.63 0 .348-.282.63-.63.63h-2.52c-.348 0-.63-.282-.63-.63 0-.348.282-.63.63-.63zm-7.56 0c.348 0 .63.282.63.63 0 .348-.282.63-.63.63h-2.52c-.348 0-.63-.282-.63-.63 0-.348.282-.63.63-.63zM9.45 18.9c.348 0 .63.282.63.63 0 .348-.282.63-.63.63H6.93c-.348 0-.63-.282-.63-.63 0-.348.282-.63.63-.63zm15.12 0c.348 0 .63.282.63.63 0 .348-.282.63-.63.63h-2.52c-.348 0-.63-.282-.63-.63 0-.348.282-.63.63-.63zm-7.56 0c.348 0 .63.282.63.63 0 .348-.282.63-.63.63h-2.52c-.348 0-.63-.282-.63-.63 0-.348.282-.63.63-.63zm-7.56-3.78c.348 0 .63.282.63.63 0 .348-.282.63-.63.63H6.93c-.348 0-.63-.282-.63-.63 0-.348.282-.63.63-.63zm15.12 0c.348 0 .63.282.63.63 0 .348-.282.63-.63.63h-2.52c-.348 0-.63-.282-.63-.63 0-.348.282-.63.63-.63zm-7.56 0c.348 0 .63.282.63.63 0 .348-.282.63-.63.63h-2.52c-.348 0-.63-.282-.63-.63 0-.348.282-.63.63-.63z"/>
                        <path fill="#1D1D1D" fill-rule="nonzero" d="M7.56 7.56v3.78h16.38V7.56H7.56zM6.93 6.3h17.64c.348 0 .63.282.63.63v5.04c0 .348-.282.63-.63.63H6.93c-.348 0-.63-.282-.63-.63V6.93c0-.348.282-.63.63-.63z"/>
                    </g>
                </g>
            </g>
        </g>
    </g>
</svg>
