<svg xmlns="http://www.w3.org/2000/svg" width="36" height="36" viewBox="0 0 36 36">
    <g fill="none" fill-rule="evenodd">
        <rect width="28.776" height="30.908" x="2.013" y="4.145" fill="#FFF" rx="4.737"/>
        <path fill="#1D1D1D" fill-rule="nonzero" d="M33.39 10.71V6.66c0-.447-.363-.81-.81-.81H3.42c-.447 0-.81.363-.81.81v4.05h30.78zm1.62-4.05v22.68c0 3.131-2.539 5.67-5.67 5.67H6.66c-3.131 0-5.67-2.539-5.67-5.67V6.66c0-1.342 1.088-2.43 2.43-2.43h29.16c1.342 0 2.43 1.088 2.43 2.43zm-32.4 5.67v17.01c0 2.237 1.813 4.05 4.05 4.05h22.68c2.237 0 4.05-1.813 4.05-4.05V12.33H2.61z"/>
        <path fill="#1D1D1D" fill-rule="nonzero" d="M13.923 23.916c.312.321.304.834-.017 1.146l-3.333 3.231c-.311.302-.803.305-1.119.01l-1.729-1.625c-.326-.306-.342-.819-.035-1.145.306-.326.819-.342 1.145-.035L10 26.592l2.778-2.694c.321-.31.834-.303 1.145.018zm4.08 1.374l8.095.008c.449 0 .812.363.812.81 0 .448-.365.81-.813.81l-8.095-.008c-.449 0-.812-.363-.812-.81 0-.448.365-.81.813-.81zm-4.08-9.474c.312.321.304.834-.017 1.146l-3.333 3.231c-.311.302-.803.305-1.119.01l-1.729-1.625c-.326-.306-.342-.819-.035-1.145.306-.326.819-.342 1.145-.035L10 18.492l2.778-2.694c.321-.31.834-.303 1.145.018zm4.08 1.374l8.095.008c.449 0 .812.363.812.81 0 .448-.365.81-.813.81l-8.095-.008c-.449 0-.812-.363-.812-.81 0-.448.365-.81.813-.81zM27.72.99c.447 0 .81.363.81.81v4.86c0 .447-.363.81-.81.81-.447 0-.81-.363-.81-.81V1.8c0-.447.363-.81.81-.81zM9.9.99c.447 0 .81.363.81.81v4.86c0 .447-.363.81-.81.81-.447 0-.81-.363-.81-.81V1.8c0-.447.363-.81.81-.81z"/>
    </g>
</svg>
