<svg xmlns="http://www.w3.org/2000/svg" width="32" height="33" viewBox="0 0 32 33">
    <g fill="none" fill-rule="evenodd">
        <path fill="#F6C4C6" fill-rule="nonzero" d="M27.464 25.026L27.266 28.527 25.873 27.501 23.784 29.092 23.784 25.44 25.751 24.122zM26.259 4.95c.386-.002.756.151 1.028.426.27.275.42.647.412 1.033l.085 11.473c-.048 2.702-2.72 4.847-5.318 4.847H4.584c-1.124-.032-2.189-.509-2.96-1.326-.771-.817-1.186-1.908-1.153-3.031V7.822c0-.766.304-1.5.846-2.04.543-.541 1.278-.843 2.043-.84l22.899.009z" transform="translate(0 1.5)"/>
        <path stroke="#1D1D1B" stroke-linecap="round" stroke-linejoin="round" stroke-width="1.4" d="M22.372 22.532H3.548c-1.567-.026-2.823-1.304-2.823-2.87V3.425H29.26v14.936" transform="translate(0 1.5)"/>
        <path stroke="#1D1D1B" stroke-linecap="round" stroke-linejoin="round" stroke-width="1.4" d="M29.176 3.426v3.501c-.006 1.22-.723 2.323-1.835 2.824-.484.232-1.015.35-1.553.348H4.048c-.872.033-1.72-.284-2.356-.88C1.055 8.625.683 7.8.659 6.928V3.426h28.517z" transform="translate(0 1.5)"/>
        <path stroke="#1D1D1B" stroke-linecap="round" stroke-linejoin="round" stroke-width="1.4" d="M18.41 10.07v2.071c0 .645-.523 1.167-1.168 1.167h-4.63c-.643-.005-1.162-.524-1.167-1.167v-2.07M11.652.659h6.588c.398-.018.786.128 1.074.403.288.276.451.657.45 1.056v1.308h-9.571V2.118c0-.806.653-1.46 1.459-1.46z" transform="translate(0 1.5)"/>
        <path fill="#F6C4C6" fill-rule="nonzero" d="M30.475 20.282L28.819 21.892 28.922 22.504 29.431 25.487 26.842 24.122 26.296 24.414 25.751 24.122 21.948 26.118 22.673 21.892 20.819 20.085 24.169 19.755 24.894 18.287 26.071 15.906 26.089 15.953 27.642 18.278 31.464 19.2z" transform="translate(0 1.5)"/>
        <path stroke="#1D1D1B" stroke-linecap="round" stroke-linejoin="round" stroke-width="1.4" d="M30.55 18.701c.251.042.457.22.535.462.077.242.012.507-.167.686l-.302.292-.15.141-1.647 1.61.103.612.405 2.352c.05.245-.049.497-.253.642-.203.144-.474.155-.688.027h0l-2.118-1.11-.546-.293-2.607 1.365h0c-.223.103-.484.076-.681-.072-.197-.147-.296-.39-.26-.634l.499-2.89-1.882-1.806-.245-.245c-.182-.177-.247-.442-.17-.683.079-.241.286-.418.537-.456l2.823-.414h.057L24.998 16l.15-.301c.113-.227.345-.37.598-.37s.484.143.598.37l1.298 2.626 2.909.376z" transform="translate(0 1.5)"/>
        <path stroke="#1D1D1B" stroke-linecap="round" stroke-linejoin="round" stroke-width="1.4" d="M23.784 25.44L23.784 29.092 23.784 29.459 24.715 28.584 25.873 27.501 26.362 28.028 27.699 29.449 27.699 25.214" transform="translate(0 1.5)"/>
    </g>
</svg>
