<svg xmlns="http://www.w3.org/2000/svg" width="32" height="32" viewBox="0 0 32 32">
    <g fill="none" fill-rule="evenodd" transform="translate(0 7)">
        <path fill="#F6C4C6" fill-rule="nonzero" d="M28.72 3.58c-.183-.027-.37-.003-.54.07L24.83 6 23 7.09V3.65c.003-.506-.196-.991-.553-1.35-.357-.358-.841-.56-1.347-.56H1v14.11c-.003.508.197.997.556 1.357.358.36.846.563 1.354.563H23l1.6-.7.22-2.81v-3l4.08 3.11c.175.096.388.092.559-.01.171-.104.274-.29.271-.49V5.1c.01-.57-.5-1.46-1.01-1.52zM5.77 15.29c-1.098-.027-1.968-.935-1.95-2.033.018-1.097.918-1.975 2.016-1.966 1.098.009 1.984.901 1.984 1.999 0 .54-.217 1.056-.603 1.432-.386.377-.908.581-1.447.568z"/>
        <path stroke="#1D1D1B" stroke-linecap="round" stroke-linejoin="round" stroke-width="1.4" d="M24.59 2.05v14.09c-.015 1.002-.81 1.818-1.81 1.86H2.62c-1.04.006-1.893-.82-1.92-1.86V2C.722.958 1.578.129 2.62.14h20.06c.507-.003.995.198 1.354.556.358.36.559.847.556 1.354zM31.3 3.73v10.74c.006.324-.125.636-.36.86-.054.055-.119.1-.19.13-.217.125-.483.125-.7 0l-.28-.16h0l-5.16-3.77V6.67l5.46-3.94c.57-.31 1.23.27 1.23 1zM28.23 4.05L28.23 14.18"/>
        <circle cx="5.77" cy="13.25" r="2.04" stroke="#1D1D1B" stroke-linecap="round" stroke-linejoin="round" stroke-width="1.4"/>
    </g>
</svg>
