<svg xmlns="http://www.w3.org/2000/svg" width="33" height="32" viewBox="0 0 33 32">
    <g fill="none" fill-rule="evenodd">
        <rect width="25" height="19" x="2" y="11" fill="#FFF" rx="2"/>
        <path fill="#1D1D1D" fill-rule="nonzero" d="M13.84 21.04h4.32v-2.88h-4.32v2.88zm5.76-4.32v4.464c0 .716-.58 1.296-1.296 1.296h-4.608c-.716 0-1.296-.58-1.296-1.296V16.72h7.2zm-.72-12.96c1.988 0 3.6 1.612 3.6 3.6v2.16H9.52V7.36c0-1.988 1.612-3.6 3.6-3.6h5.76zm0 1.44h-5.76c-1.193 0-2.16.967-2.16 2.16v.72h10.08v-.72c0-1.193-.967-2.16-2.16-2.16z"/>
        <path fill="#1D1D1D" fill-rule="nonzero" d="M29.68 17.44c-.602.452-1.35.72-2.16.72H4.48c-.81 0-1.558-.268-2.16-.72v7.2c0 1.988 1.612 3.6 3.6 3.6h20.16c1.988 0 3.6-1.612 3.6-3.6v-7.2zM3.04 8.08h25.92c1.193 0 2.16.967 2.16 2.16v14.4c0 2.784-2.256 5.04-5.04 5.04H5.92c-2.784 0-5.04-2.256-5.04-5.04v-14.4c0-1.193.967-2.16 2.16-2.16zm0 1.44c-.398 0-.72.322-.72.72v4.32c0 1.193.967 2.16 2.16 2.16h23.04c1.193 0 2.16-.967 2.16-2.16v-4.32c0-.398-.322-.72-.72-.72H3.04z"/>
    </g>
</svg>
