<svg xmlns="http://www.w3.org/2000/svg" width="32" height="33" viewBox="0 0 32 33">
    <g fill="none" fill-rule="evenodd">
        <path fill="#F6C4C6" fill-rule="nonzero" d="M19.72 28c-.625.614-1.293 1.183-2 1.7-1.66 1.25-3.09 0-5.08.05-1.99.05-3.06 1.07-4.48.2-3.245-2.054-5.709-5.134-7-8.75-.78-2.42-1-5.3.39-7.54.14-.175.291-.342.45-.5 1.181-.972 2.54-1.705 4-2.16 1.74-.59 3.63.76 5.42.76 1.47 0 3.44-1.37 5.37-.74 2.75.89 5.56 2.83 6.37 5.76.09.32.16.65.22 1 .56 3.56-1.19 7.31-3.66 10.22zM18.1 5.63c-1.533 1.19-3.613 1.396-5.35.53-.279-1.94.6-3.862 2.25-4.92C16.537.05 18.62-.155 20.36.71c.277 1.941-.607 3.865-2.26 4.92zM11.15 7.81L11.06 12" transform="translate(4 1.5)"/>
        <path stroke="#1D1D1B" stroke-linecap="round" stroke-linejoin="round" stroke-width="1.4" d="M19.7 28c-.625.614-1.293 1.183-2 1.7-1.66 1.25-3.09 0-5.08.05-1.99.05-3.06 1.07-4.48.2-3.914-2.341-6.582-6.303-7.28-10.81C.34 15 3 10.44 7.33 9.72c1.81-.31 3.53.63 5.33.63.842-.08 1.669-.272 2.46-.57 3.94-1 7.87 1.69 9.17 5.38 1.43 4.06-.71 8.43-3.32 11.51-.4.47-.83.93-1.27 1.33zM18.1 5.63c-1.533 1.19-3.613 1.396-5.35.53-.279-1.94.6-3.862 2.25-4.92C16.537.05 18.62-.155 20.36.71c.277 1.941-.607 3.865-2.26 4.92h0zM12.75 6.16L12.66 10.35" transform="translate(4 1.5)"/>
    </g>
</svg>
