<svg width="32" height="32" viewBox="0 0 32 32" fill="none" xmlns="http://www.w3.org/2000/svg">
<path d="M26 14.8202C25.7906 15.4041 25.4482 15.9314 25 16.3602L21 20.4102L20 21.4102L19.32 22.3502L19.4 29.3502L16.15 25.4202L15 26.7502L11 31.2802V19.8602L6.07 14.9102C4.87569 13.7319 4.48419 11.9623 5.07 10.3902L5.14 10.3202L12.07 3.40021C13.7456 1.7416 16.4444 1.7416 18.12 3.40021L25 10.3202C26.1908 11.4922 26.5824 13.2542 26 14.8202Z" fill="white"/>
<path d="M11.01 19.8601V22.0501V30.2701V31.2801L14.96 26.7501L16.13 25.4101L19.38 29.3401L20.08 30.1801L20.99 31.2801V20.4101V19.9601" stroke="#1D1D1B" stroke-width="1.4" stroke-linecap="round" stroke-linejoin="round"/>
<path fill-rule="evenodd" clip-rule="evenodd" d="M26 14.8201C25.9831 14.8546 25.9593 14.8852 25.93 14.9101L19 21.8301C17.3289 23.4997 14.6211 23.4997 12.95 21.8301L10.95 19.8301L6.07 14.9101C4.42809 13.2471 4.42809 10.5731 6.07 8.9101L13 2.0001C14.6652 0.363574 17.3348 0.363574 19 2.0001L25.91 8.9201C27.5228 10.5421 27.5626 13.1497 26 14.8201Z" stroke="#1D1D1B" stroke-width="1.4" stroke-linecap="round" stroke-linejoin="round"/>
<path d="M11.53 11.4701L14.17 14.7201L20.47 8.08008" stroke="#1D1D1B" stroke-width="1.4" stroke-linecap="round" stroke-linejoin="round"/>
</svg>
