<svg width="32" height="32" viewBox="0 0 32 32" fill="none" xmlns="http://www.w3.org/2000/svg">
<path d="M23.49 15.6301C23.24 16.4001 23.98 17.6901 24.07 18.6301C23.3035 18.5426 22.5272 18.6457 21.81 18.9301C21.527 19.1842 21.3223 19.5137 21.22 19.8801C20.8687 19.8807 20.5238 19.9738 20.22 20.1501C19.9702 20.3663 19.7836 20.6463 19.68 20.9601C19.53 21.3301 19.41 21.7701 19.26 22.1701C19.06 22.7901 18.81 23.3301 18.36 23.4701C17.36 23.7901 15.99 21.8801 14.9 21.8801C13.81 21.8801 12.51 23.6801 11.53 23.4901V21.0001H12.16C11.88 20.2201 11.68 19.3201 11.16 19.0001C10.3 18.3701 8.05 19.1101 7.42 18.2501C6.79 17.3901 8.2 15.4901 7.87 14.4701C7.54 13.4501 5.3 12.7001 5.3 11.6101C5.3 10.5201 7.56 9.79005 7.88 8.81005C8.13 8.04005 7.39 6.75005 7.29 5.81005C8.05654 5.89746 8.83281 5.79442 9.55 5.51005C9.84122 5.2424 10.0465 4.8944 10.14 4.51005C10.49 3.59005 10.7 2.37005 11.41 2.14005C11.6509 2.07993 11.9052 2.10465 12.13 2.21005C13 2.62005 14 3.77005 14.87 3.77005C15.96 3.77005 17.35 1.86005 18.33 2.18005C19.31 2.50005 19.33 4.88005 20.19 5.50005C21.05 6.12005 23.3 5.39005 23.93 6.25005C24.56 7.11005 23.16 9.00005 23.49 10.0001C23.82 11.0001 26.07 11.7101 26.07 12.8001C26.07 13.8901 23.81 14.6401 23.49 15.6301Z" fill="white"/>
<path d="M19.13 20.8899V29.4599L16.62 25.6199L15.28 27.1599L15.01 26.8399L11.5 30.8599V20.9699L19.13 20.8899Z" fill="white"/>
<path fill-rule="evenodd" clip-rule="evenodd" d="M27.2 11.4C27.2 12.49 24.94 13.21 24.62 14.2C24.3 15.19 25.68 17.13 25.06 17.98C24.44 18.83 22.18 18.1 21.32 18.73C20.46 19.36 20.48 21.73 19.46 22.05C18.44 22.37 17.09 20.45 16 20.45C14.91 20.45 13.53 22.37 12.54 22.05C11.55 21.73 11.54 19.34 10.68 18.73C9.82 18.12 7.57 18.84 6.94 17.98C6.31 17.12 7.72 15.22 7.38 14.2C7.04 13.18 4.8 12.49 4.8 11.4C4.8 10.31 7.06 9.58001 7.38 8.60001C7.7 7.62001 6.32 5.67001 6.94 4.82001C7.56 3.97001 9.82 4.70001 10.68 4.07001C11.54 3.44001 11.52 1.07001 12.54 0.750013C13.56 0.430013 14.91 2.34001 16 2.34001C17.09 2.34001 18.47 0.430013 19.46 0.750013C20.45 1.07001 20.46 3.45001 21.32 4.07001C22.18 4.69001 24.43 3.96001 25.06 4.82001C25.69 5.68001 24.28 7.58001 24.62 8.60001C24.96 9.62001 27.2 10.31 27.2 11.4Z" stroke="#1D1D1B" stroke-width="1.4" stroke-linecap="round" stroke-linejoin="round"/>
<path d="M20.99 19.54V31.29L16.13 25.41L11.01 31.29V19.54" stroke="#1D1D1B" stroke-width="1.4" stroke-linecap="round" stroke-linejoin="round"/>
<path d="M11.53 11.4701L14.17 14.7201L20.47 8.08008" stroke="#1D1D1B" stroke-width="1.4" stroke-linecap="round" stroke-linejoin="round"/>
</svg>
