<svg width="32" height="32" viewBox="0 0 32 32" fill="none" xmlns="http://www.w3.org/2000/svg">
<path d="M14.38 1.52993C13.0077 1.51793 11.6472 1.78324 10.38 2.30993C7.23933 4.25917 5.3507 7.71247 5.40394 11.4085C5.45718 15.1045 7.44449 18.502 10.64 20.3599L10.87 20.4699L11 30.2799L14.52 26.2799L14.95 26.7999L16.12 25.4599L19.37 29.3899V21.3899C18.8834 21.6394 18.3309 21.7303 17.79 21.6499C18.3265 21.5637 18.855 21.4332 19.37 21.2599V21.3899C19.58 21.2799 19.79 21.1599 19.99 21.0299C23.9876 18.5351 25.8459 13.6916 24.5431 9.16306C23.2403 4.63449 19.0922 1.51905 14.38 1.52993Z" fill="white"/>
<path d="M20.98 20.6599V31.2899L19.38 29.3499L16.13 25.4199L14.96 26.7599L11.01 31.2899V30.2799V22.0599V20.6599" stroke="#1D1D1B" stroke-width="1.4" stroke-linecap="round" stroke-linejoin="round"/>
<path fill-rule="evenodd" clip-rule="evenodd" d="M26.55 11.25C26.5396 15.5256 23.9544 19.3739 20 21L19.38 21.23C14.3194 22.9212 8.79313 20.5638 6.51148 15.7405C4.22984 10.9172 5.9126 5.14963 10.43 2.31001C12.0971 1.25869 14.0291 0.703723 16 0.710014C21.8204 0.715515 26.539 5.4296 26.55 11.25Z" stroke="#1D1D1B" stroke-width="1.4" stroke-linecap="round" stroke-linejoin="round"/>
<path d="M11.53 11.4701L14.17 14.7201L20.46 8.08008" stroke="#1D1D1B" stroke-width="1.4" stroke-linecap="round" stroke-linejoin="round"/>
</svg>
