<svg xmlns="http://www.w3.org/2000/svg" width="32" height="33" viewBox="0 0 32 33">
    <g fill="none" fill-rule="evenodd">
        <g>
            <g>
                <g>
                    <g>
                        <path fill="#E0F1FA" fill-rule="nonzero" d="M26.36 2.32H2.41c-.487-.005-.97.101-1.41.31C.802 3.06.7 3.527.7 4v24c.016 1.81 1.49 3.266 3.3 3.26h24c.457.013.911-.076 1.33-.26.214-.432.323-.908.32-1.39v-24c0-.873-.347-1.71-.964-2.326-.617-.617-1.453-.964-2.326-.964z" transform="translate(-279 -1141) translate(0 161) translate(255 957) translate(24 23.5)"/>
                        <path stroke="#1D1D1B" stroke-linecap="round" stroke-linejoin="round" stroke-width="1.4" d="M16 6.42c.289-.248.631-.426 1-.52 1.147-.292 2.341.26 2.862 1.323.52 1.063.224 2.345-.71 3.072-.934.727-2.25.7-3.152-.065M28 .74H4C2.195.745.727 2.195.7 4v24c.016 1.81 1.49 3.266 3.3 3.26h24c.457.013.911-.076 1.33-.26 1.168-.54 1.912-1.713 1.9-3V4C31.214 2.195 29.745.74 27.94.74H28zM16.03 1.22L16.01 6.42" transform="translate(-279 -1141) translate(0 161) translate(255 957) translate(24 23.5)"/>
                        <path stroke="#1D1D1B" stroke-linecap="round" stroke-linejoin="round" stroke-width="1.4" d="M15.91 30.76L15.93 25.63 15.95 21.87 15.99 10.23M21.9 15.99L10.15 15.99M31.3 15.99L25.75 15.99M6.56 15.99L1.21 15.99" transform="translate(-279 -1141) translate(0 161) translate(255 957) translate(24 23.5)"/>
                        <path stroke="#1D1D1B" stroke-linecap="round" stroke-linejoin="round" stroke-width="1.4" d="M16 21.87v3.76c-.286.256-.629.44-1 .54-1.151.306-2.359-.242-2.886-1.31-.526-1.069-.226-2.36.718-3.087.945-.727 2.27-.686 3.168.097h0zM25.75 16c.237.293.408.634.5 1 .282 1.144-.273 2.33-1.332 2.845-1.06.516-2.335.223-3.062-.704-.727-.926-.709-2.235.044-3.141M6.56 16c-.305-.31-.52-.697-.62-1.12-.302-1.168.273-2.385 1.368-2.893 1.094-.508 2.395-.162 3.093.822.697.985.592 2.327-.251 3.191" transform="translate(-279 -1141) translate(0 161) translate(255 957) translate(24 23.5)"/>
                    </g>
                </g>
            </g>
        </g>
    </g>
</svg>
