<?xml version="1.0" encoding="UTF-8"?>
<svg width="168px" height="168px" viewBox="0 0 168 168" version="1.1" xmlns="http://www.w3.org/2000/svg" xmlns:xlink="http://www.w3.org/1999/xlink">
    <title>Group 13</title>
    <g id="Page-1" stroke="none" stroke-width="1" fill="none" fill-rule="evenodd">
        <g id="Group-13" transform="translate(4.000000, 4.000000)">
            <circle id="Oval" stroke="#F2F6FF" stroke-width="8" cx="80" cy="80" r="80"></circle>
            <path d="M80,2.84217094e-14 C96.8943063,2.84217094e-14 113.355006,5.34839 127.022806,15.27868 C140.690606,25.20888 150.863906,39.21118 156.084506,55.27868 C161.305206,71.34608 161.305206,88.65388 156.084506,104.72098 C150.863906,120.78898 140.690606,134.79098 127.022806,144.72098" id="Path" stroke="#5089FD" stroke-width="8" stroke-linecap="round"></path>
            <rect id="Rectangle" fill="#E8E8E8" x="80" y="141" width="1" height="7"></rect>
            <rect id="Rectangle" fill="#E8E8E8" x="80" y="12" width="1" height="7"></rect>
            <rect id="Rectangle" fill="#E8E8E8" transform="translate(15.500000, 79.500000) rotate(-270.000000) translate(-15.500000, -79.500000) " x="15" y="76" width="1" height="7"></rect>
            <rect id="Rectangle" fill="#E8E8E8" transform="translate(144.500000, 79.500000) rotate(-270.000000) translate(-144.500000, -79.500000) " x="144" y="76" width="1" height="7"></rect>
        </g>
    </g>
</svg>