<svg xmlns="http://www.w3.org/2000/svg" width="32" height="33" viewBox="0 0 32 33">
    <g fill="none" fill-rule="evenodd" transform="translate(0 2.5)">
        <path fill="#E0F1FA" fill-rule="nonzero" d="M29.49 14.12c.005.677-.266 1.327-.75 1.8-.468.455-1.097.707-1.75.7l-1.86 8.78c-.238 1.158-.925 2.176-1.91 2.83-.222.032-.446.049-.67.05h-13c-2.159-.001-4.011-1.539-4.41-3.66L3.48 16h-.22c-1.03.003-1.96-.616-2.354-1.567-.395-.951-.176-2.046.554-2.773l.06-.05h.55v-.4c.37-.196.782-.3 1.2-.3h.62c-.114-1.857.795-3.629 2.37-4.62.65-.12 2-.48 2-.73.579-.082 1.168-.062 1.74.06-.057-1.812.858-3.516 2.4-4.47 2.243-.404 4.482.726 5.49 2.77.139.277.246.569.32.87 3.282-.563 6.541 1.107 8 4.1.302.636.52 1.308.65 2 0 .23.06.47.08.7 1.4 0 2.539 1.13 2.55 2.53z"/>
        <path stroke="#1D1D1B" stroke-linecap="round" stroke-linejoin="round" stroke-width="1.4" d="M31.3 13.42c.005.68-.26 1.335-.74 1.82-.478.484-1.13.757-1.81.76H3.26c-1.03.003-1.96-.616-2.354-1.567-.395-.951-.176-2.046.554-2.773l.06-.05c.16-.158.342-.293.54-.4.37-.196.782-.3 1.2-.3h25.49c1.393 0 2.528 1.117 2.55 2.51h0z"/>
        <path stroke="#1D1D1B" stroke-linecap="round" stroke-linejoin="round" stroke-width="1.4" d="M3.48 16l1.64 8.66c.399 2.121 2.251 3.659 4.41 3.66h13c.224-.001.448-.018.67-.05h0c1.857-.28 3.343-1.69 3.72-3.53L28.73 16M28.75 10.88H3.88c-.1-1.849.81-3.607 2.38-4.59.15-.106.307-.203.47-.29 1.026-.492 2.186-.632 3.3-.4-.056-1.799.846-3.492 2.37-4.45.153-.102.314-.192.48-.27 2.53-1.23 5.578-.184 6.82 2.34.139.277.246.569.32.87 2.074-.358 4.203.174 5.865 1.467 1.661 1.292 2.702 3.224 2.865 5.323h0z"/>
        <circle cx="5.86" cy="1.62" r="1.45" stroke="#1D1D1B" stroke-linecap="round" stroke-linejoin="round" stroke-width="1.4"/>
        <path stroke="#1D1D1B" stroke-linecap="round" stroke-linejoin="round" stroke-width="1.4" d="M12.62 19.94L19.38 19.94M12.62 24.02L19.38 24.02"/>
    </g>
</svg>
