<svg xmlns="http://www.w3.org/2000/svg" width="36" height="36" viewBox="0 0 36 36">
    <g fill="none" fill-rule="evenodd">
        <path fill="#1D1D1D" fill-rule="nonzero" d="M8.984 30.149c-3.895-2.75-6.438-7.286-6.438-12.415 0-2.675.691-5.188 1.905-7.37-.044-.036-.085-.076-.121-.122l-.89-1.104c-1.433-1.777-1.107-4.35.722-5.736 1.814-1.373 4.427-1.062 5.849.7l.303.377c2.194-1.231 4.725-1.933 7.42-1.933 2.694 0 5.225.702 7.42 1.933l.303-.377c1.42-1.762 4.034-2.073 5.848-.7 1.83 1.385 2.156 3.959.722 5.736l-.89 1.104c-.036.046-.077.086-.12.121 1.213 2.183 1.904 4.696 1.904 7.37 0 5.13-2.543 9.666-6.438 12.416l3.007 3.006c.312.312.312.818 0 1.13-.313.313-.819.313-1.13 0l-3.198-3.197c-.023-.022-.043-.045-.062-.07-2.182 1.213-4.694 1.903-7.366 1.903-2.673 0-5.185-.69-7.366-1.903-.02.025-.04.048-.063.07l-3.197 3.198c-.312.312-.818.312-1.13 0-.313-.313-.313-.819 0-1.13l3.006-3.007zM30.125 8.95l.658-.815c.865-1.073.67-2.616-.443-3.458-1.127-.853-2.762-.659-3.639.429l-.188.233c1.398.992 2.62 2.214 3.612 3.611zm-24.783 0c.992-1.397 2.215-2.619 3.612-3.61l-.188-.234c-.877-1.088-2.512-1.282-3.639-.429-1.112.842-1.308 2.385-.443 3.458l.658.815zm12.392 22.372c7.504 0 13.588-6.084 13.588-13.588 0-7.505-6.084-13.59-13.588-13.59-7.505 0-13.59 6.085-13.59 13.59 0 7.504 6.085 13.588 13.59 13.588z"/>
        <circle cx="16.934" cy="18" r="12.789" fill="#FFF"/>
        <path fill="#1D1D1D" fill-rule="nonzero" d="M13.517 13.67c-.304-.32-.81-.333-1.13-.029-.32.304-.333.81-.03 1.13l4.856 5.112c.31.327.83.332 1.147.012l7.934-7.993c.311-.313.31-.82-.004-1.13-.313-.312-.82-.31-1.13.004l-7.355 7.409-4.288-4.515z"/>
    </g>
</svg>
