<svg xmlns="http://www.w3.org/2000/svg" width="32" height="32" viewBox="0 0 32 32">
    <g fill="none" fill-rule="evenodd">
        <path fill="#FFF" fill-rule="nonzero" d="M28.1 5.26c.41-.003.804.16 1.092.452.288.292.446.688.438 1.098L29.72 19c0 2.87-2.89 5.15-5.65 5.15H5.12c-1.202-.02-2.346-.522-3.177-1.392-.83-.87-1.278-2.036-1.243-3.238V8.31c0-1.69 1.37-3.06 3.06-3.06l24.34.01z" transform="translate(0 4)"/>
        <path stroke="#1D1D1B" stroke-linecap="round" stroke-linejoin="round" stroke-width="1.4" d="M3.94 23.94c-1.657 0-3-1.343-3-3V3.64h30.35V21c0 1.657-1.343 3-3 3l-24.35-.06z" transform="translate(0 4)"/>
        <path stroke="#1D1D1B" stroke-linecap="round" stroke-linejoin="round" stroke-width="1.4" d="M31.22 3.64v3.72c-.01 1.295-.77 2.466-1.95 3-.515.247-1.08.373-1.65.37H4.5c-.926.035-1.827-.301-2.503-.934C1.321 9.163.926 8.286.9 7.36V3.64h30.32zM12.58.7h7c.856 0 1.55.694 1.55 1.55v1.39H11V2.25c0-.416.167-.815.465-1.107.297-.291.699-.451 1.115-.443zM12.85 13.31L19.91 20.34M19.91 13.31L12.85 20.34" transform="translate(0 4)"/>
    </g>
</svg>
