<svg xmlns="http://www.w3.org/2000/svg" width="32" height="33" viewBox="0 0 32 33">
    <g fill="none" fill-rule="evenodd">
        <path fill="#FCE7D0" fill-rule="nonzero" d="M30.9 16.54c-.11-1.51-1.82-2.74-2.26-4.11-.44-1.37.22-3.56-.67-4.79s-3.11-1.21-4.35-2.11c-1.24-.9-1.88-3-3.35-3.49-1.47-.49-3.19.85-4.77.85-1.58 0-3.34-1.31-4.76-.89-1.42.42-2.13 2.63-3.35 3.53-1.22.9-3.39.87-4.33 2.09-.71 1-.42 2.46-.5 3.77-.015.34-.072.675-.17 1-.497.99-1.097 1.926-1.79 2.79.13 1.49 1.82 2.73 2.26 4.09.44 1.36-.22 3.56.67 4.79s3.11 1.21 4.35 2.11c1.24.9 1.88 3 3.35 3.49 1.47.49 3.19-.85 4.77-.85 1.58 0 3.34 1.31 4.76.85 1.42-.46 2.13-2.6 3.35-3.49 1.22-.89 3.42-.87 4.33-2.09-.057-1.04.01-2.085.2-3.11.078-.24.185-.468.32-.68.68-1.16 1.95-2.26 1.95-3.59.002-.054-.002-.107-.01-.16zm-9.76 1.27l.06.37.6 3.47c.057.333-.025.675-.227.945-.203.27-.507.446-.843.485-.246.047-.5.02-.73-.08l-3.44-1.82c-.36-.19-.79-.19-1.15 0L12 23c-.415.216-.916.178-1.293-.098-.378-.275-.566-.741-.487-1.202l.66-3.84c.062-.4-.072-.806-.36-1.09L7.7 14l3.61-.52c.4-.06.745-.315.92-.68l1.73-3.49c.203-.423.63-.692 1.1-.692.47 0 .897.269 1.1.692l1.73 3.49c.177.368.526.623.93.68l3.85.56c.408.048.76.306.93.68l-2.08 2c-.3.278-.442.686-.38 1.09z" transform="translate(0 1.5)"/>
        <path stroke="#1D1D1B" stroke-linecap="round" stroke-linejoin="round" stroke-width="1.4" d="M31.41 15c-.025.55-.202 1.083-.51 1.54-.684.846-1.277 1.76-1.77 2.73-.098.325-.155.66-.17 1-.08 1.31.21 2.8-.5 3.77h0c-.91 1.22-3.1 1.2-4.33 2.09-1.23.89-1.88 3-3.35 3.49-1.47.49-3.19-.85-4.76-.85-1.57 0-3.34 1.31-4.77.85-1.43-.46-2.12-2.6-3.35-3.49-1.23-.89-3.45-.87-4.35-2.11-.9-1.24-.19-3.32-.67-4.79C2.4 17.76.73 16.67.6 15.18c-.005-.06-.005-.12 0-.18 0-1.33 1.27-2.43 2-3.59.135-.212.242-.44.32-.68.19-1.025.257-2.07.2-3.11-.018-.595.146-1.18.47-1.68.9-1.24 3.11-1.21 4.35-2.11 1.24-.9 1.88-3 3.35-3.49 1.47-.49 3.19.85 4.77.85 1.58 0 3.34-1.31 4.76-.85 1.42.46 2.13 2.59 3.35 3.49 1.22.9 3.45.87 4.35 2.11.9 1.24.2 3.32.67 4.79.47 1.47 2.22 2.69 2.22 4.27z" transform="translate(0 1.5)"/>
        <path stroke="#1D1D1B" stroke-linecap="round" stroke-linejoin="round" stroke-width="1.4" d="M17.1 6.72l1.73 3.49c.175.365.52.62.92.68l3.86.56c.464.067.85.392.994.838.144.446.022.936-.314 1.262l-2.79 2.71c-.289.284-.42.691-.35 1.09l.66 3.84c.088.47-.103.947-.491 1.226s-.902.307-1.319.074l-3.45-1.81c-.356-.19-.784-.19-1.14 0L12 22.49c-.415.222-.92.187-1.302-.09-.38-.277-.57-.746-.488-1.21l.66-3.84c.07-.399-.061-.806-.35-1.09l-2.81-2.71c-.336-.326-.458-.816-.314-1.262.145-.446.53-.77.994-.838l3.86-.56c.4-.06.745-.315.92-.68l1.73-3.49c.203-.423.63-.692 1.1-.692.47 0 .897.269 1.1.692z" transform="translate(0 1.5)"/>
    </g>
</svg>
