<svg height="32" viewBox="0 0 32 32" width="32" xmlns="http://www.w3.org/2000/svg"><g fill="none" fill-rule="evenodd"><path d="m29.5101529 5.38v25.7h-28.81022725v-14.08c-.00262842-.4354577.06837385-.8682335.21007435-1.28.78098202-.8205086 1.86727773-1.2803738 3-1.27h4.72c.05227812.0150037.10772188.0150037.16 0 1.16532082 0 2.11.9446792 2.11 2.11v14.19h1.95v-27c-.0005367-.38412044.0742049-.7646233.22-1.12.394074-.18551473.8244444-.28115261 1.26-.28026909h12.14c.8077859-.01054347 1.5857931.30488799 2.1579754.87518815s.8901755 1.34726385.8821775 2.15508094z" fill="#fce7d0" fill-rule="nonzero"/><g stroke="#1d1d1b" stroke-linecap="round" stroke-linejoin="round" stroke-width="1.4"><path d="m12.85 12.85v18.23h-12.15007435v-14.08c-.00262842-.4354577.06837385-.8682335.21007435-1.28.55434479-1.7355929 2.17819664-2.9047662 4-2.88z"/><path d="m31.08 3.74v27.34h-18.2300029v-27.34c-.0005338-.38412044.0742078-.7646233.2200029-1.12.4504889-1.1676573 1.5785226-1.9329664 2.83-1.92h12.1c.8164064-.02185519 1.6064363.29007945 2.1876917.86378605.5812554.57370661.9034901 1.35959161.8923083 2.17621395z"/><path d="m17.83 22.35h4.22v8.4h-4.22z"/><path d="m21.89 22.35h4.22v8.4h-4.22z"/><path d="m16.39 5.8h4.38"/><path d="m16.39 10.9h4.38"/><path d="m16.39 16h4.38"/><path d="m4.59 16.87h4.38"/><path d="m4.59 21.97h4.38"/><path d="m4.59 27.07h4.38"/><path d="m24.01 5.8h4.38"/><path d="m24.01 10.9h4.38"/><path d="m24.01 16h4.38"/></g></g></svg>