<?xml version="1.0" encoding="UTF-8"?>
<svg width="33px" height="32px" viewBox="0 0 33 32" version="1.1" xmlns="http://www.w3.org/2000/svg" xmlns:xlink="http://www.w3.org/1999/xlink">
    <title>Icon</title>
    <g id="Page-1" stroke="none" stroke-width="1" fill="none" fill-rule="evenodd">
        <g id="20200406_ICON_ICON-370" transform="translate(1.000000, 0.000000)">
            <path d="M29.41,7.28 C29.4567283,9.11783968 28.6293763,10.8690064 27.18,12 L12.58,24.47 L12.21,24.78 L7.38,20.23 L5,18 L5,18 L5,18 L6.76,18.74 L19.12,2.84 C20.21,1.71 20.95,0.84 22.52,0.84 L27.57,0.53 C28.42,0.53 29.21,0.68 29.24,1.53 L29.41,7.28 Z" id="Path" fill="#FFFFFF" fill-rule="nonzero"></path>
            <path d="M11.62,28.08 C11.1414252,28.5549323 10.4942355,28.8209992 9.82,28.82 L9.72,28.82 C9.15579166,28.7978465 8.61458211,28.5905 8.18,28.23 C8.12,28.23 8.07,28.13 8.01,28.08 L7.93,28 C7.62965165,27.6977154 7.22112802,27.52773 6.795,27.52773 C6.36887198,27.52773 5.96034835,27.6977154 5.66,28 L3.78,29.88 C3.29012646,30.3749577 2.61600501,30.6431566 1.92,30.62 L1.86,30.56 L1.36,30.07 C0.382713152,29.0806491 0.382713152,27.4893509 1.36,26.5 L3.25,24.62 C3.86875952,23.98983 3.86875952,22.98017 3.25,22.35 C2.73738721,21.8344983 2.4497547,21.1369895 2.45,20.41 C2.43271267,19.8214538 2.62795835,19.2463666 3,18.79 C3.49925332,18.2103728 4.23558811,17.8900672 5,17.92 L5,17.92 L5,17.92 L5,17.92 L5.06,17.98 L11.55,24.47 C12.562461,25.4491771 12.5937405,27.0623093 11.62,28.08 L11.62,28.08 Z" id="Path" fill="#FFFFFF" fill-rule="nonzero"></path>
            <path d="M14,25.48 L29,12.7 C30.4386897,11.571149 31.258313,9.82805865 31.21,8 L31,2.23 C30.9789555,1.39387635 30.3061237,0.721044467 29.47,0.7 L23.56,0.7 C21.9862959,0.704099627 20.4815693,1.34640499 19.39,2.48 L6.77,18.66" id="Path" stroke="#1D1D1B" stroke-width="1.4" stroke-linecap="round" stroke-linejoin="round"></path>
            <path d="M13.26,28.76 C12.2862635,29.7242799 10.7258553,29.7507275 9.72,28.82 L9.66,28.76 L9.58,28.68 C9.21309665,28.3131906 8.69191327,28.1456674 8.18,28.23 C7.84920875,28.2827065 7.54416704,28.4404867 7.31,28.68 L5.42,30.56 C4.46205833,31.5244503 2.91043596,31.5510496 1.92,30.62 L1.86,30.56 L1.36,30.07 C0.382713152,29.0806491 0.382713152,27.4893509 1.36,26.5 L3.25,24.62 C3.86875952,23.98983 3.86875952,22.98017 3.25,22.35 C2.73738721,21.8344983 2.4497547,21.1369895 2.45,20.41 C2.43271267,19.8214538 2.62795835,19.2463666 3,18.79 C3.49925332,18.2103728 4.23558811,17.8900672 5,17.92 L5.1,17.92 C5.74034158,17.9406652 6.34854267,18.2054115 6.8,18.66 L12.61,24.47 L13.29,25.15 C14.2745879,26.1567737 14.2611838,27.7697285 13.26,28.76 Z" id="Path" stroke="#1D1D1B" stroke-width="1.4" stroke-linecap="round" stroke-linejoin="round"></path>
        </g>
    </g>
</svg>