<svg xmlns="http://www.w3.org/2000/svg" width="32" height="32" viewBox="0 0 32 32">
    <g fill="none" fill-rule="evenodd">
        <g>
            <g>
                <g>
                    <g transform="translate(-421 -335) translate(357 311) translate(40) translate(24 24)">
                        <path fill="#FFF" fill-rule="nonzero" d="M26.038 20.853h1.803v7.34h-1.803c-1.323 0-2.396-1.072-2.396-2.395v-2.54c-.002-.637.25-1.25.699-1.7.449-.452 1.06-.705 1.697-.705z" transform="rotate(-160.06 25.742 24.523)"/>
                        <path fill="#FFF" fill-rule="nonzero" d="M14.798.688h1.425c1.178 0 2.133.956 2.133 2.134v.766h-5.692v-.756c-.002-.568.221-1.113.622-1.515.4-.402.944-.629 1.512-.629z" transform="rotate(-180 15.51 2.138)"/>
                        <path fill="#FFF" fill-rule="nonzero" d="M23.864 16.892L5.614 10.27c-.31-.111-.64-.164-.97-.155-.225.251-.4.545-.513.863L.815 20.005c-.52 1.438.221 3.025 1.658 3.549l18.25 6.623c.325.12.67.177 1.018.165.226-.255.4-.551.514-.873l3.277-9.018c.252-.693.218-1.458-.095-2.126-.313-.668-.879-1.183-1.573-1.433zm-2.143 4.645c-.99 0-1.794-.803-1.794-1.794 0-.99.803-1.794 1.794-1.794s1.794.803 1.794 1.794c.003.477-.185.934-.522 1.271-.337.337-.795.526-1.272.523z"/>
                        <path stroke="#1D1D1B" stroke-linecap="round" stroke-linejoin="round" stroke-width="1.4" d="M25.406.679L5.77.679M27.559 19.49l-3.317 9.029c-.39 1.072-1.399 1.796-2.54 1.823-.347.012-.693-.044-1.018-.165L2.473 23.554C1.036 23.03.294 21.443.815 20.004l3.267-9.027c.114-.318.288-.612.514-.863.748-.877 1.962-1.198 3.045-.805l18.25 6.623c.694.25 1.26.765 1.573 1.433.313.668.347 1.433.095 2.126zM26.363 28.07l-1.696-.615 2.504-6.9 1.695.615c1.244.451 1.886 1.825 1.435 3.068l-.87 2.398c-.45 1.243-1.825 1.886-3.068 1.434h0zM16.223 3.588h-1.425c-1.179 0-2.134-.955-2.134-2.133V.688h5.692v.757c.003.567-.22 1.112-.621 1.515-.4.402-.944.628-1.512.628h0zM15.573 4.034L15.573 11.976"/>
                        <circle cx="21.721" cy="19.753" r="1.794" stroke="#1D1D1B" stroke-linecap="round" stroke-linejoin="round" stroke-width="1.4"/>
                    </g>
                </g>
            </g>
        </g>
    </g>
</svg>
