<svg xmlns="http://www.w3.org/2000/svg" width="32" height="33" viewBox="0 0 32 33">
    <g fill="none" fill-rule="evenodd">
        <path fill="#E0F1FA" fill-rule="nonzero" d="M30.07 20.29c-.05.19 0 .39-.07.58-.38.217-.812.331-1.25.33H3.26c-1.408 0-2.55-1.142-2.55-2.55 0-.188.02-.376.06-.56.29-.16.21-.32.21-.32-.005-.09-.005-.18 0-.27.372-.735 1.076-1.245 1.89-1.37h-.66c-.002-2.63.75-5.206 2.17-7.42C5.73 7.151 7.41 5.914 9.3 5.09V3.46c.403-.158.813-.294 1.23-.41 1.387-.408 2.825-.613 4.27-.61 1.727-.003 3.441.287 5.07.86v1.62c.42.162.832.349 1.23.56 4.085 2.087 6.865 6.067 7.42 10.62.06.545.09 1.092.09 1.64 1.103.307 1.754 1.444 1.46 2.55z" transform="translate(0 5.5)"/>
        <path stroke="#1D1D1B" stroke-linecap="round" stroke-linejoin="round" stroke-width="1.4" d="M31.3 18.65c.005.677-.266 1.327-.75 1.8-.16.168-.346.31-.55.42-.38.217-.812.331-1.25.33H3.26c-1.408 0-2.55-1.142-2.55-2.55 0-.188.02-.376.06-.56.051-.206.128-.404.23-.59.372-.735 1.076-1.245 1.89-1.37.126-.01.254-.01.38 0h25.48c.676 0 1.325.269 1.803.747s.747 1.127.747 1.803v-.03zM10.53 15.45V1.82C13.923.518 17.669.461 21.1 1.66v13.79" transform="translate(0 5.5)"/>
        <path stroke="#1D1D1B" stroke-linecap="round" stroke-linejoin="round" stroke-width="1.4" d="M9.3 4.07c.398-.23.808-.437 1.23-.62v12.68H2.21c.006-5.007 2.718-9.62 7.09-12.06zM29.85 16.13H21.1V3.28c5.281 2.077 8.753 7.175 8.75 12.85h0z" transform="translate(0 5.5)"/>
    </g>
</svg>
