<svg xmlns="http://www.w3.org/2000/svg" width="32" height="32" viewBox="0 0 32 32">
    <g fill="none" fill-rule="evenodd">
        <path fill="#F9F2D7" fill-rule="nonzero" d="M25.69 3.69L22 18.61c-.61 2.446-2.809 4.162-5.33 4.16l-13.27.45c-1.215.015-2.248-.885-2.4-2.09V21c-.12-.892.321-1.766 1.11-2.2.134-.076.274-.14.42-.19.802-.294 1.629-.518 2.47-.67h8.09c2.069-.002 3.913-1.302 4.61-3.25l3.56-10c.061-.173.131-.344.21-.51.884-.922 2.114-1.43 3.39-1.4.53.05.96.4.83.91z" transform="translate(2)"/>
        <path stroke="#1D1D1B" stroke-linecap="round" stroke-linejoin="round" stroke-width="1.4" d="M28.07 1.59L23.52 19.8c-.609 2.415-2.78 4.108-5.27 4.11H3.45c-1.454.017-2.648-1.146-2.67-2.6v-.1c.007-.911.493-1.751 1.28-2.21.08-.053.163-.1.25-.14h0c.741-.409 1.565-.645 2.41-.69h8.09c2.069-.002 3.913-1.302 4.61-3.25L21 4.87c.061-.173.131-.344.21-.51h0c1.018-2.231 3.248-3.659 5.7-3.65h.47c.218 0 .425.1.56.272.134.172.182.396.13.608z" transform="translate(2)"/>
        <path stroke="#1D1D1B" stroke-linecap="round" stroke-linejoin="round" stroke-width="1.4" d="M5.09 18.11h0c0-3.203 2.597-5.8 5.8-5.8h7.47M11.82 23.91L11.82 31.11M5.87 31.19L17.78 31.19" transform="translate(2)"/>
    </g>
</svg>
