<svg height="32" viewBox="0 0 32 32" width="32" xmlns="http://www.w3.org/2000/svg"><g fill="none" fill-rule="evenodd" transform="translate(2 1)"><path d="m22.32 1.91h-15.1c-1.26705984-.02173459-2.43396999.6861909-3 1.82-.23841003.45280769-.38135873.94972459-.42 1.46v19.57c0 2.6564896 2.15351035 4.81 4.81 4.81l13.24.0500444c2.5642503.0110379 4.6534802-2.0558233 4.67-4.6200444v-18.89c0-2.31959595-1.8804041-4.2-4.2-4.2zm-9.73 8.09c.8030217-.77935438 1.8810157-1.21055199 3-1.2 1.5326754-.00420262 2.9522801.80585849 3.7283905 2.1275106.7761103 1.3216521.7919534 2.9560405.0416095 4.2924894-.6540611.5984039-1.4795983.9761921-2.36 1.08h-1.49c-2.0299902-.4220848-3.4738175-2.226869-3.44-4.3.0109464-.6986518.1892652-1.3844931.52-2zm8.34 12.81h-9.55c-.4883137-.0030708-.9462326-.2375554-1.2341537-.6319678-.287921-.3944124-.37171877-.9020055-.2258463-1.3680322 0 0 0 0 0-.06.08-.14.16-.27.25-.4 1.4220554-2.0490326 3.8844075-3.1126122 6.3510549-2.7432519 2.4666474.3693602 4.5094574 2.107551 5.2689451 4.4832519.0394273.1262595.0596532.2577281.06.39-.2654533.198216-.5887269.3036313-.92.3z" fill="#fce7d0" fill-rule="nonzero"/><g stroke="#1d1d1b" stroke-linecap="round" stroke-linejoin="round" stroke-width="1.4"><path d="m28.05 4.77v20c-.0109586 2.6519372-2.1580628 4.7990414-4.81 4.81h-14.63c-2.65810642-.0055148-4.81-2.1618879-4.81-4.82v-19.57c.01095856-2.6519372 2.1580628-4.79904144 4.81-4.81h15.05c2.4222487.00549888 4.3845011 1.96775132 4.39 4.39z"/><path d="m21.3 22.6100052h-9.55c-.4899434.0012692-.9508635-.2321722-1.2397408-.6278944-.2888772-.3957223-.3707669-.9058559-.2202592-1.3721108.1996235-.6141533.4858401-1.1966883.85-1.73 1.4220554-2.0490326 3.8844075-3.1126122 6.3510549-2.7432519 2.4666474.3693602 4.5094574 2.107551 5.2689451 4.4832519.1465783.4649754.0627847.97197-.2256095 1.3650553-.2883943.3930853-.7468587.6251958-1.2343905.6249499z"/><circle cx="16.52" cy="11.65" r="4.32"/><path d="m5 7.81h-3.28c-.57725551.06676673-1.14160646-.20364394-1.45125621-.69537431-.30964974-.49173037-.30964974-1.11752101 0-1.60925138.30964975-.49173037.8740007-.76214104 1.45125621-.69537431h3.28c.82183906.01046467 1.48857889.66837351 1.51 1.49-.00181147.40430477-.16784595.79051541-.46 1.07-.28207443.27370217-.6570687.43084263-1.05.44z" fill="#fce7d0" fill-rule="nonzero"/><path d="m5 15.8100054h-3.28c-.82842712 0-1.5-.6715783-1.5-1.5000054s.67157288-1.5 1.5-1.5h3.28c.40485654-.0080262.79618031.1458249 1.08716825.4274261.29098795.2816013.45758319.6676718.46283175 1.0725739-.00336859.401067-.16937057.7835933-.46 1.06-.29206505.283178-.68319456.4410652-1.09.4400054z" fill="#fce7d0" fill-rule="nonzero"/><path d="m5 23.81h-3.28c-.82842712 0-1.5-.6715729-1.5-1.5s.67157288-1.5 1.5-1.5h3.28c.40485654-.0080262.79618031.1458249 1.08716825.4274261.29098795.2816013.45758319.6676718.46283175 1.0725739-.00103731.4015577-.16741979.7849609-.46 1.06-.28962635.2869044-.68236293.4454403-1.09.44z" fill="#fce7d0" fill-rule="nonzero"/></g><path d="m17.02 16.3-1.49-.04"/><path d="m17.02 16.3-1.49-.04"/><path d="m17.02 16.3-1.49-.04"/></g></svg>