<svg xmlns="http://www.w3.org/2000/svg" width="22" height="33" viewBox="0 0 22 33">
    <g fill="none" fill-rule="evenodd">
        <g>
            <g>
                <g>
                    <g>
                        <g>
                            <path fill="#D5F3E8" d="M19.82 5.65v23.1c-.001.635-.148 1.261-.43 1.83-.706.476-1.539.727-2.39.72H5c-1.11.013-2.178-.418-2.967-1.198C1.244 29.322.8 28.26.8 27.15V4.86C.791 4.214.939 3.576 1.23 3c.686-.479 1.503-.734 2.34-.73h12.9c.895-.003 1.753.353 2.382.989.63.635.979 1.497.968 2.391z" transform="translate(-277 -3765) translate(3 2846) translate(253 696) translate(0 207) translate(21 17)"/>
                            <path stroke="#1D1D1B" stroke-linecap="round" stroke-linejoin="round" stroke-width="1.4" d="M12.87 1.4v8.87c.008.323-.23.6-.55.64h0c-.152.02-.305-.028-.42-.13L9.35 8.72c-.514-.434-1.266-.434-1.78 0l-2.39 2c-.185.168-.454.204-.676.09-.223-.113-.351-.352-.324-.6V1.4c-.005-.053-.005-.107 0-.16.064-.328.356-.561.69-.55h7.33c.183.005.356.083.482.216s.193.311.188.494z" transform="translate(-277 -3765) translate(3 2846) translate(253 696) translate(0 207) translate(21 17)"/>
                            <path stroke="#1D1D1B" stroke-linecap="round" stroke-linejoin="round" stroke-width="1.4" d="M21.19 4.86v22.29c.001 1.37-.672 2.653-1.8 3.43-.706.476-1.539.727-2.39.72H5c-1.11.013-2.178-.418-2.967-1.198C1.244 29.322.8 28.26.8 27.15V4.86C.791 4.214.939 3.576 1.23 3 1.94 1.573 3.407.682 5 .71h12c1.108-.01 2.173.422 2.96 1.201.787.78 1.23 1.841 1.23 2.949h0zM5.78 17.8L16.22 17.8M5.78 22.74L16.22 22.74M14.52 27.09L16.22 27.09" transform="translate(-277 -3765) translate(3 2846) translate(253 696) translate(0 207) translate(21 17)"/>
                        </g>
                    </g>
                </g>
            </g>
        </g>
    </g>
</svg>
