<svg xmlns="http://www.w3.org/2000/svg" width="32" height="33" viewBox="0 0 32 33">
    <g fill="none" fill-rule="evenodd">
        <path fill="#E0F1FA" fill-rule="nonzero" d="M26.81 14.9C24.54 12.37 16.76 4.2 14 1.34c-.164-.162-.368-.279-.59-.34l-.07.08C9.87 4.8.88 14.53.74 14.9h2.4v12.45c-.003.484.188.948.53 1.29.342.342.806.533 1.29.53H24.7c.23-.313.352-.692.35-1.08l.05-9.47V17c.005-.732.598-1.325 1.33-1.33h1c-.188-.271-.395-.529-.62-.77zm-6.27 3.8c-.7.73-3.54 3.09-5 4.28-.221.187-.52.254-.8.18-.138-.025-.266-.087-.37-.18-1.3-1.09-4.32-3.63-4.95-4.28-1.127-1.147-1.489-2.842-.93-4.35.089-.238.203-.466.34-.68.57-1.02 1.642-1.657 2.81-1.67 1.197.033 2.283.71 2.84 1.77.033.061.081.113.14.15.133.113.308.16.48.132.171-.029.322-.132.41-.282v-.05c.565-1.046 1.652-1.704 2.84-1.72 1.439.065 2.682 1.025 3.11 2.4.558 1.49.199 3.169-.92 4.3z" transform="translate(1 1.5)"/>
        <path stroke="#1D1D1B" stroke-linecap="round" stroke-linejoin="round" stroke-width="1.4" d="M29.16 15h-2.34v.89l-.05 11.56c.009.933-.7 1.717-1.63 1.8-.063.01-.127.01-.19 0H5c-.484.003-.948-.188-1.29-.53-.342-.342-.533-.806-.53-1.29L3.24 15H.84C1 14.63 10 4.9 13.44 1.16l.07-.08.34-.36c.246-.263.59-.413.95-.413s.704.15.95.413C18.94 4 29 14.61 29.16 15z" transform="translate(1 1.5)"/>
        <path stroke="#1D1D1B" stroke-linecap="round" stroke-linejoin="round" stroke-width="1.4" d="M20.54 18.7c-.7.73-3.54 3.09-5 4.28-.221.187-.52.254-.8.18-.138-.023-.267-.085-.37-.18-1.3-1.08-4.32-3.62-5-4.28-1.125-1.148-1.484-2.844-.92-4.35.091-.237.205-.465.34-.68.58-1.03 1.669-1.667 2.85-1.67 1.2.033 2.288.714 2.84 1.78 0 .07.09.1.14.14.131.114.306.163.477.136.172-.027.323-.128.413-.276v-.06c.57-1.041 1.653-1.697 2.84-1.72 1.437.068 2.68 1.027 3.11 2.4.558 1.49.199 3.169-.92 4.3h0z" transform="translate(1 1.5)"/>
    </g>
</svg>
