<svg xmlns="http://www.w3.org/2000/svg" width="32" height="32" viewBox="0 0 32 32">
    <g fill="none" fill-rule="evenodd">
        <g>
            <g>
                <g>
                    <g>
                        <g>
                            <g>
                                <g>
                                    <path fill="#FFF" fill-rule="nonzero" d="M30.49 8.33L28 10.15c-.83.311-1.716.444-2.6.39.016.203.016.407 0 .61.014.29.014.58 0 .87-.266.025-.534.025-.8 0 .015.206.015.414 0 .62-.001.673-.075 1.343-.22 2L22 25.25c-.038.178-.092.352-.16.52-.577.565-1.352.881-2.16.88h-7.74c-1.47-.017-2.724-1.066-3-2.51l-2.2-11.27c-.158-.773-.206-1.564-.14-2.35-1.195.1-2.394-.14-3.46-.69-1.038-.564-1.874-1.438-2.39-2.5C.697 7.223.65 7.113.61 7l.24-.07C2 6.65 3.208 6.745 4.3 7.2c.705.322 1.356.75 1.93 1.27.118.11.277.167.438.156.162-.011.31-.09.412-.216 1.62-2.26 4.61-3.55 8.1-3.55 3.49 0 6.44 1.29 8.06 3.51.094.128.239.21.397.225.159.016.316-.037.433-.145.577-.516 1.227-.944 1.93-1.27 1.095-.455 2.307-.55 3.46-.27.327.046.622.224.816.492.194.267.271.602.214.928z" transform="translate(-1124 -1058) translate(0 603) translate(755 163) translate(339 233) translate(8 37) translate(22 22) translate(0 3)"/>
                                    <path stroke="#1D1D1B" stroke-linecap="round" stroke-linejoin="round" stroke-width="1.4" d="M31.13 7.33c-.183.352-.397.686-.64 1-.457.631-1.057 1.145-1.75 1.5-.26.12-.52.23-.78.32-.83.311-1.716.444-2.6.39.016.203.016.407 0 .61.014.29.014.58 0 .87-.041.373-.101.743-.18 1.11l-2.45 11.1c-.316 1.406-1.56 2.409-3 2.42h-7.79c-1.47-.017-2.724-1.066-3-2.51l-2.2-11.27c-.158-.773-.206-1.564-.14-2.35-1.195.1-2.394-.14-3.46-.69-1.038-.564-1.874-1.438-2.39-2.5C.697 7.223.65 7.113.61 7c-.096-.34-.041-.704.15-1 .192-.297.501-.497.85-.55 1.16-.293 2.384-.205 3.49.25.923.42 1.745 1.034 2.41 1.8C9 4.89 12.2 3.38 16 3.38s6.91 1.51 8.43 4.07c.655-.738 1.455-1.334 2.35-1.75 1.095-.455 2.307-.55 3.46-.27.423.053.789.319.97.704.18.386.15.838-.08 1.196zM9.8 4.86c-2.176 0-3.94-1.764-3.94-3.94" transform="translate(-1124 -1058) translate(0 603) translate(755 163) translate(339 233) translate(8 37) translate(22 22) translate(0 3)"/>
                                    <path stroke="#1D1D1B" stroke-linecap="round" stroke-linejoin="round" stroke-width="1.4" d="M22.71 5.19c1.045 0 2.047-.415 2.786-1.154.739-.739 1.154-1.741 1.154-2.786M12.13 22.37L12.13 23.61M19.62 22.37L19.62 23.61" transform="translate(-1124 -1058) translate(0 603) translate(755 163) translate(339 233) translate(8 37) translate(22 22) translate(0 3)"/>
                                </g>
                            </g>
                        </g>
                    </g>
                </g>
            </g>
        </g>
    </g>
</svg>
