<svg xmlns="http://www.w3.org/2000/svg" width="32" height="33" viewBox="0 0 32 33">
    <g fill="none" fill-rule="evenodd" transform="translate(4 .5)">
        <path fill="#D5F3E8" fill-rule="nonzero" d="M22.93 13.34c0 3.91-4.14 11.2-7.53 16.48-.19.297-.41.571-.66.82-2.285 1.037-4.985.246-6.35-1.86C5 23.52.78 16.26.76 12.37.736 8.834 2.29 5.472 5 3.2c3.658-2.172 8.2-2.22 11.903-.126 3.704 2.095 6.003 6.011 6.027 10.266z"/>
        <path fill="#D5F3E8" fill-rule="nonzero" stroke="#1D1D1B" stroke-linecap="round" stroke-linejoin="round" stroke-width="1.4" d="M24.37 12.46c0 3.88-4.14 11.18-7.52 16.47-.94 1.446-2.55 2.319-4.275 2.319-1.726 0-3.334-.873-4.275-2.319C4.88 23.7.67 16.44.65 12.55.642 9.006 2.21 5.642 4.93 3.37h0C8.467.448 13.37-.174 17.525 1.772c4.154 1.945 6.815 6.11 6.835 10.698l.01-.01z"/>
        <circle cx="12.51" cy="16.88" r="1" fill="#1D1D1B" fill-rule="nonzero"/>
        <path stroke="#1D1D1B" stroke-linecap="round" stroke-linejoin="round" stroke-width="1.4" d="M9.61 14.48c.336-1.344 1.525-2.3 2.91-2.34 1.328.04 2.481.927 2.86 2.2"/>
        <path stroke="#1D1D1B" stroke-linecap="round" stroke-linejoin="round" stroke-width="1.4" d="M5.16 13.06c.964-3.29 3.934-5.586 7.36-5.69 3.61.144 6.675 2.689 7.48 6.21"/>
    </g>
</svg>
