<svg xmlns="http://www.w3.org/2000/svg" width="32" height="32" viewBox="0 0 32 32">
    <g fill="none" fill-rule="evenodd">
        <g>
            <g>
                <g>
                    <g>
                        <g transform="translate(-874 -5861) translate(0 5532) translate(844 299) translate(8 8) translate(22 22)">
                            <rect width="20" height="26" x="5" y="5" fill="#FFF" rx="4"/>
                            <path fill="#1D1D1D" fill-rule="nonzero" d="M8.8 2.32c-1.988 0-3.6 1.612-3.6 3.6v20.16c0 1.988 1.612 3.6 3.6 3.6h14.4c1.988 0 3.6-1.612 3.6-3.6V5.92c0-1.988-1.612-3.6-3.6-3.6H8.8zm0-1.44h14.4c2.784 0 5.04 2.256 5.04 5.04v20.16c0 2.784-2.256 5.04-5.04 5.04H8.8c-2.784 0-5.04-2.256-5.04-5.04V5.92C3.76 3.136 6.016.88 8.8.88z"/>
                            <path fill="#1D1D1D" fill-rule="nonzero" d="M21.76 22.48c.398 0 .72.322.72.72 0 .398-.322.72-.72.72H10.24c-.398 0-.72-.322-.72-.72 0-.398.322-.72.72-.72zm0-7.2c.398 0 .72.322.72.72 0 .398-.322.72-.72.72H10.24c-.398 0-.72-.322-.72-.72 0-.398.322-.72.72-.72zm0-7.2c.398 0 .72.322.72.72 0 .398-.322.72-.72.72H10.24c-.398 0-.72-.322-.72-.72 0-.398.322-.72.72-.72z"/>
                        </g>
                    </g>
                </g>
            </g>
        </g>
    </g>
</svg>
