<svg xmlns="http://www.w3.org/2000/svg" width="32" height="32" viewBox="0 0 32 32">
    <g fill="none" fill-rule="evenodd">
        <path fill="#FCE7D0" fill-rule="nonzero" d="M25.56 25.61c.087 1.195-.219 2.385-.87 3.39-2 1.13-4-1.38-7.89-1.38-6.17 0-12 2.4-12-2.92-.065-2.815 1.06-5.528 3.1-7.47 1.806-1.552 4.05-2.506 6.42-2.73 4.28-.06 11.24 4.94 11.24 11.11zM5.63 16c-1.39.44-3.26-1-4.28-3.24-.754-1.426-.846-3.11-.25-4.61 1.39-.44 3.26 1 4.28 3.24.754 1.426.846 3.11.25 4.61zM29.61 13.69c-.311.732-.74 1.407-1.27 2-.616.463-1.423.587-2.15.33-1.4-.63-1.68-3.07-.62-5.45.306-.699.717-1.346 1.22-1.92.618-.507 1.454-.658 2.21-.4 1.39.63 1.67 3.06.61 5.44zM12.75 9.46c-.163.07-.334.121-.51.15-1.69.26-3.38-1.65-3.78-4.26-.275-1.427-.011-2.906.74-4.15.167-.07.342-.12.52-.15C11.41.79 13.1 2.69 13.5 5.3c.286 1.432.018 2.918-.75 4.16zM23.28 6.45c-.2 1.015-.638 1.968-1.28 2.78-.5.321-1.106.436-1.69.32-1.67-.38-2.55-2.77-2-5.35.218-1.025.682-1.982 1.35-2.79.5-.306 1.095-.413 1.67-.3.372.074.717.247 1 .5.189.166.354.358.49.57.697 1.311.862 2.84.46 4.27z" transform="translate(0 1)"/>
        <path stroke="#1D1D1B" stroke-linecap="round" stroke-linejoin="round" stroke-width="1.4" d="M27.17 24.3c0 2.32-.71 3.58-1.91 4.26h0c-2 1.13-4.92-1.28-9.25-.92-5.21.42-11.18 3.85-11.18-3.34.112-2.908 1.444-5.635 3.67-7.51h0c2.37-2.24 5.37-3.63 7.46-3.63 4.25-.04 11.21 4.97 11.21 11.14zM5.81 16c-.057.029-.117.05-.18.06-1.39.44-3.26-1-4.28-3.24-.754-1.426-.846-3.11-.25-4.61.194-.378.512-.678.9-.85 1.41-.63 3.4.79 4.46 3.17s.75 4.82-.65 5.47zM30.65 12.8c-.477 1.154-1.28 2.144-2.31 2.85-.616.463-1.423.587-2.15.33-1.4-.63-1.68-3.07-.62-5.45.306-.699.717-1.346 1.22-1.92h0c1-1.14 2.27-1.67 3.23-1.24 1.41.63 1.69 3.05.63 5.43zM12.75 9.46h0c-.163.07-.334.121-.51.15-1.69.26-3.38-1.65-3.78-4.26-.275-1.427-.011-2.906.74-4.15h0c.352-.551.917-.931 1.56-1.05 1.69-.26 3.38 1.65 3.79 4.26.37 2.33-.42 4.44-1.8 5.05zM24.32 5.56c-.256 1.483-1.09 2.803-2.32 3.67-.5.321-1.106.436-1.69.32-1.67-.38-2.55-2.77-2-5.35.218-1.025.682-1.982 1.35-2.79.606-.877 1.653-1.34 2.71-1.2C24 .59 24.9 3 24.32 5.56z" transform="translate(0 1)"/>
    </g>
</svg>
