<svg xmlns="http://www.w3.org/2000/svg" width="32" height="32" viewBox="0 0 32 32">
    <g fill="none" fill-rule="evenodd">
        <path fill="#FFF" fill-rule="nonzero" d="M30.84 12.51l-9.23-9.27c-.976-.973-2.554-.973-3.53 0l-8.25 8.33s-5 5-7.25 7.34c-.596.533-.937 1.295-.937 2.095 0 .8.34 1.562.937 2.095l-.89-.88L10 30.39c.63.624 1.484.97 2.37.96.887-.01 1.733-.373 2.35-1.01l15.56-16c.324-.331.57-.731.72-1.17l-.16-.66zm-22.1 4.32c0-.856.694-1.55 1.55-1.55.856 0 1.55.694 1.55 1.55 0 .856-.694 1.55-1.55 1.55-.411 0-.805-.163-1.096-.454-.29-.29-.454-.685-.454-1.096zM12 26.2c-.856 0-1.55-.694-1.55-1.55 0-.856.694-1.55 1.55-1.55.856 0 1.55.694 1.55 1.55 0 .856-.694 1.55-1.55 1.55zm8.77-13.95c-.628 0-1.194-.379-1.433-.96-.24-.58-.105-1.247.34-1.69.446-.442 1.114-.572 1.693-.33.579.244.954.812.95 1.44-.005.844-.686 1.53-1.53 1.54h-.02z"/>
        <path stroke="#1D1D1B" stroke-linecap="round" stroke-linejoin="round" stroke-width="1.4" d="M31.11 12.83c-.134.572-.425 1.094-.84 1.51l-15.56 16c-.617.637-1.463 1-2.35 1.01-.886.01-1.74-.336-2.37-.96l-8.28-8.17c-1.295-1.303-1.295-3.407 0-4.71l8.1-8.19 7.66-7.72c.625-.628 1.474-.98 2.36-.98.886 0 1.735.352 2.36.98l8 8.09c.835.813 1.184 2.004.92 3.14zM22.34 22.07L9.62 9.51"/>
        <circle cx="20.79" cy="10.71" r="1.55" stroke="#1D1D1B" stroke-linecap="round" stroke-linejoin="round" stroke-width="1.4"/>
        <circle cx="10.29" cy="16.83" r="1.55" stroke="#1D1D1B" stroke-linecap="round" stroke-linejoin="round" stroke-width="1.4"/>
        <circle cx="12.03" cy="24.65" r="1.55" stroke="#1D1D1B" stroke-linecap="round" stroke-linejoin="round" stroke-width="1.4"/>
    </g>
</svg>
