<svg height="32" viewBox="0 0 32 32" width="32" xmlns="http://www.w3.org/2000/svg"><g fill="none" fill-rule="evenodd"><path d="m30.17 27-10.23-9.76c-.5129104-.5003341-.6987815-1.2476907-.48-1.93.3088312-.9698951.4640408-1.9821312.46-3 .0009842-2.69961512-1.0895665-5.28494369-3.0237383-7.1682658-1.9341718-1.88332212-4.5476306-2.90462399-7.2462617-2.8317342-3.57092606.1507574-6.79437992 2.18301756-8.47 5.34-.9853829 3.0309818-.45602249 6.3507436 1.42314905 8.9249512s4.87975078 4.0899796 8.06685095 4.0750488c.8469308.0014651 1.690528-.1060852 2.51-.32.6329245-.173201 1.3102375.0018349 1.78.46l2.56 2.52c.2646792.2604151.6300676.3919549 1 .36l1.78-.09c.3402589-.0162505.6727822.1048723.9228742.3361604s.3967846.5533499.4071258.8938396l.05 1.37c.0212873.6780454.5716995 1.2196509 1.25 1.23h1.48c.679925.0156134 1.228926.5602223 1.25 1.24v1.41c.0162957.6896585.580149 1.2400001 1.27 1.2400001h3.07c.1907704-.0014736.3787578-.045907.5500507-.1300001v-3.24c.003024-.3483964-.1338782-.6834465-.3800507-.93zm-22.11-16.3199778c-.91902847.0040264-1.74981699-.546467-2.10432284-1.39437934-.35450585-.84791233-.1627704-1.82591544.48565103-2.47720599.64842142-.65129054 1.62556849-.847342 2.4750377-.49658313.8494692.35075888 1.40363411 1.17910887 1.40363411 2.09814626 0 1.2497915-1.01022063 2.2644943-2.26 2.2700222z" fill="#fff" fill-rule="nonzero"/><g stroke="#1d1d1b" stroke-linecap="round" stroke-linejoin="round" stroke-width="1.4"><path d="m31.2900033 26.27v3.73c.0006075.4872497-.2797688.9311789-.7200033 1.14-.1712422.0840931-.3592296.1285265-.55.1300001h-3.1c-.689851 0-1.2537043-.5503416-1.27-1.2400001v-1.41c-.021074-.6797777-.570075-1.2243866-1.25-1.24h-1.51c-.6783005-.0103491-1.2287127-.5519546-1.25-1.23l-.05-1.37c-.0103412-.3404897-.1570338-.6625515-.4071258-.8938396s-.5826153-.3524109-.9228742-.3361604l-1.78.09c-.3699324.0319549-.7353208-.0995849-1-.36l-2.48-2.5c-.4697625-.4581651-1.1470755-.633201-1.78-.46-.819472.2139148-1.6630692.3214651-2.51.32-3.18710017.0149308-6.18767941-1.5008412-8.06685095-4.0750488s-2.40853195-5.8939694-1.42314905-8.9249512c1.31593696-3.9852796 4.95724201-6.74312046 9.15-6.93 3.2191842-.08469724 6.2821625 1.38607433 8.228901 3.95132859 1.9467386 2.56525427 2.5389807 5.91103581 1.591099 8.98867141-.2237248.6821366-.037197 1.4321341.48 1.93l10.23 9.78c.2497053.2367279.3907869.5659183.3900033.91z"/><circle cx="8.06" cy="8.41" r="2.26"/></g></g></svg>