<svg xmlns="http://www.w3.org/2000/svg" width="32" height="32" viewBox="0 0 32 32">
    <g fill="none" fill-rule="evenodd">
        <g>
            <g>
                <g>
                    <g>
                        <g>
                            <g>
                                <path fill="#FFF" fill-rule="nonzero" d="M20.84 25.45c-.027.115-.06.228-.1.34-.553 1.76-1.779 3.23-3.41 4.09h-.66c-2.738-.004-5.217-1.618-6.33-4.12-.05-.11-.093-.224-.13-.34l10.63.03z" transform="translate(-919 -813) translate(357 311) translate(498 478) translate(40) translate(24 24) translate(0 1)"/>
                                <path fill="#FFF" fill-rule="nonzero" d="M20.23 25.83c-.026.116-.063.23-.11.34H9.72c-.054-.11-.097-.223-.13-.34h10.64zM29.93 23.41c.004.483-.135.956-.4 1.36-.165.031-.332.048-.5.05-7.69.07-15.39 0-23.09 0H3.65c-1.403 0-2.54-1.137-2.54-2.54.001-.563.191-1.108.54-1.55.368-.216.705-.482 1-.79.813-.338 1.51-.909 2-1.64.679-1.432 1.134-2.96 1.35-4.53.4-2.66.39-3.27.86-5.91.365-1.945 1.38-3.708 2.88-5l.12-.07c3.064-1.42 6.596-1.42 9.66 0 2.427 1.24 4.144 3.532 4.65 6.21.47 2.64.46 3.25.86 5.91.21 1.569.658 3.097 1.33 4.53.518.758 1.249 1.346 2.1 1.69.889.413 1.46 1.3 1.47 2.28z" transform="translate(-919 -813) translate(357 311) translate(498 478) translate(40) translate(24 24) translate(0 1)"/>
                                <path stroke="#1D1D1B" stroke-linecap="round" stroke-linejoin="round" stroke-width="1.4" d="M22.8 25.07c-.744 2.834-3.174 4.905-6.09 5.19h0-.65c-2.738-.004-5.217-1.618-6.33-4.12h0c-.054-.11-.097-.223-.13-.34-.103-.247-.186-.5-.25-.76" transform="translate(-919 -813) translate(357 311) translate(498 478) translate(40) translate(24 24) translate(0 1)"/>
                                <path stroke="#1D1D1B" stroke-linecap="round" stroke-linejoin="round" stroke-width="1.4" d="M31.3 22.47c.018 1.228-.845 2.293-2.05 2.53-.165.032-.332.05-.5.05-7.68.07-15.38 0-23.08 0H3.38c-.68 0-1.333-.273-1.81-.758-.478-.485-.74-1.141-.73-1.822-.003-.563.188-1.11.54-1.55.252-.312.57-.565.93-.74l.1-.05c.814-.338 1.51-.908 2-1.64.668-1.42 1.116-2.935 1.33-4.49.4-2.66.39-3.27.85-5.91C6.94 6.112 7.96 4.314 9.48 3c.535-.469 1.126-.868 1.76-1.19 3.058-1.43 6.592-1.43 9.65 0 2.43 1.236 4.148 3.53 4.65 6.21.46 2.67.46 3.28.86 5.98.21 1.568.656 3.095 1.32 4.53.514.765 1.25 1.355 2.11 1.69.874.414 1.442 1.283 1.47 2.25z" transform="translate(-919 -813) translate(357 311) translate(498 478) translate(40) translate(24 24) translate(0 1)"/>
                            </g>
                        </g>
                    </g>
                </g>
            </g>
        </g>
    </g>
</svg>
