<svg width="26" height="28" viewBox="0 0 26 28" fill="none" xmlns="http://www.w3.org/2000/svg">
<path d="M18.85 9.27993C18.8587 10.8082 18.367 12.2973 17.45 13.5199C16.2293 14.3787 14.7985 14.8902 13.31 14.9999C9.31 14.9999 6.25 12.5199 6.25 8.56993C6.29658 6.69219 6.83073 4.85884 7.8 3.24993C8.95475 2.50025 10.3033 2.10404 11.68 2.10993C13.5824 2.10727 15.4077 2.86182 16.7529 4.20704C18.0981 5.55225 18.8527 7.37751 18.85 9.27993Z" fill="white"/>
<path d="M21.83 27.2301L3.19 27.1401C2.78072 27.1393 2.39227 26.9595 2.12687 26.6479C1.86146 26.3364 1.74569 25.9243 1.81 25.5201C2.18093 23.3276 2.99041 21.2324 4.19 19.3601C7.28189 16.6619 11.5669 15.7928 15.4657 17.0733C19.3645 18.3537 22.2999 21.5941 23.19 25.6001C23.2606 26.003 23.1502 26.4165 22.8882 26.7306C22.6261 27.0447 22.239 27.2274 21.83 27.2301Z" fill="white"/>
<path fill-rule="evenodd" clip-rule="evenodd" d="M20.16 8.21005C20.016 12.0631 16.8507 15.1123 12.995 15.1123C9.1393 15.1123 5.97397 12.0631 5.83 8.21005C5.84584 7.74593 5.90273 7.28413 6 6.83005C6.66128 3.48351 9.58879 1.06622 13 1.05005H13.31C17.1405 1.22118 20.1585 4.37571 20.16 8.21005Z" stroke="#1D1D1B" stroke-width="1.4" stroke-linecap="round" stroke-linejoin="round"/>
<path fill-rule="evenodd" clip-rule="evenodd" d="M22.18 26.9999C22.8554 27.0007 23.4937 26.6911 23.9114 26.1603C24.329 25.6294 24.4796 24.9362 24.32 24.2799C23.2466 19.8173 19.6509 16.4021 15.139 15.5597C10.627 14.7174 6.04125 16.6052 3.43 20.3799C2.6096 21.5564 2.0161 22.8756 1.68 24.2699C1.51675 24.9276 1.6657 25.6239 2.08377 26.1572C2.50183 26.6905 3.14235 27.0014 3.82 26.9999H22.18Z" stroke="#1D1D1B" stroke-width="1.4" stroke-linecap="round" stroke-linejoin="round"/>
<path d="M20 7.32007C19.9936 7.61489 19.9669 7.90893 19.92 8.20007C19.3832 11.0908 16.6144 13.0066 13.72 12.4901" stroke="#1D1D1B" stroke-width="1.4" stroke-linecap="round" stroke-linejoin="round"/>
</svg>
