<svg xmlns="http://www.w3.org/2000/svg" width="56" height="56" viewBox="0 0 56 56">
    <g fill="none" fill-rule="evenodd">
        <g>
            <g>
                <g transform="translate(-1022 -2470) translate(265 2358) translate(757 112)">
                    <circle cx="28" cy="28" r="28" fill="#FD8550"/>
                    <path fill="#FFF" fill-rule="nonzero" d="M33.012 27.332c.467 0 .859-.163 1.176-.49.317-.327.476-.723.476-1.19 0-.467-.159-.859-.476-1.176-.317-.317-.71-.476-1.176-.476h-10.36c-.467 0-.859.163-1.176.49-.317.327-.476.723-.476 1.19 0 .467.159.859.476 1.176.317.317.71.476 1.176.476h10.36zm0 5.6c.467 0 .859-.163 1.176-.49.317-.327.476-.723.476-1.19 0-.467-.159-.859-.476-1.176-.317-.317-.71-.476-1.176-.476h-10.36c-.467 0-.859.163-1.176.49-.317.327-.476.723-.476 1.19 0 .467.159.859.476 1.176.317.317.71.476 1.176.476h10.36z"/>
                </g>
            </g>
        </g>
    </g>
</svg>
