<?xml version="1.0" encoding="UTF-8"?>
<svg width="32px" height="25px" viewBox="0 0 32 25" version="1.1" xmlns="http://www.w3.org/2000/svg" xmlns:xlink="http://www.w3.org/1999/xlink">
    <title>Icon</title>
    <g id="Page-1" stroke="none" stroke-width="1" fill="none" fill-rule="evenodd">
        <g id="Group" transform="translate(0.000000, -4.000000)">
            <g id="20200406_ICON_ICON-371" transform="translate(0.000000, 4.000000)">
                <path d="M30.07,10.6 C29.59,18.6 23.8,23.5 15.74,23.6 C15.67,23.14 14.85,24.03 14.83,23.6 C14.83,23.38 14.83,23.16 14.75,23.6 C6.88109287,22.9435047 0.810570527,16.3960127 0.75,8.5 L1,8.5 C3.19763026,8.67480699 5.35060696,9.21558606 7.37,10.1 C7.71671602,10.2417566 8.10893065,10.2191885 8.4370988,10.0385989 C8.76526696,9.85800933 8.99421573,9.53875379 9.06,9.17 C9.06,9.09 10.06,8.95 10.13,8.88 C10.76,5.78 11.92,3.31 14.81,2.21 C18.2823878,3.54467399 20.6076432,6.84108859 20.7,10.56 L20.7,11.26 L20.4,11.78 L20.48,11.72 C22.840036,9.98756555 25.6923595,9.0554795 28.62,9.06 L28.62,9.06 C29.019745,9.06213714 29.4011299,9.22808841 29.6751639,9.51913139 C29.9491979,9.81017438 30.0919099,10.2008502 30.07,10.6 Z" id="Path" fill="#FFFFFF" fill-rule="nonzero"></path>
                <path d="M10.1099976,9.43 C10.1072325,5.62863852 12.4501311,2.21970117 16,0.86 C19.4741286,2.19243806 21.8003335,5.49019882 21.89,9.21 L21.89,9.9" id="Path" stroke="#1D1D1B" stroke-width="1.4" stroke-linecap="round" stroke-linejoin="round"></path>
                <path d="M31.28,8.32 C31.2804593,16.6968199 24.5363607,23.5122846 16.16,23.6 C16.0510324,22.9120724 15.9975269,22.2165 15.999918,21.52 C15.9955759,19.8080625 16.318014,18.1110195 16.95,16.52 C19.0143177,11.2173829 24.1197327,7.72378631 29.81,7.72 C30.2977212,7.72145148 30.7850402,7.74815389 31.27,7.8 C31.28,8 31.28,8.14 31.28,8.32 Z" id="Path" stroke="#1D1D1B" stroke-width="1.4" stroke-linecap="round" stroke-linejoin="round"></path>
                <path d="M16,20.89 C16.0001188,21.7962553 15.913051,22.7004203 15.74,23.59 C15.44,23.59 15.13,23.59 14.83,23.59 L14.75,23.59 C6.88109287,22.9335047 0.810570527,16.3860127 0.75,8.49 L0.75,8.37 C0.75,7.98 0.75,7.58 0.8,7.2 C1.27173804,7.15125166 1.74575459,7.12788465 2.22,7.12986829 C4.65070507,7.12606157 7.03882243,7.76795438 9.14,8.99 C9.51649973,9.20216569 9.8804384,9.43588778 10.23,9.69 C12.6504932,11.4109162 14.4527129,13.8653011 15.37,16.69 C15.7967235,18.0488144 16.0092694,19.4657867 16,20.89 L16,20.89 Z" id="Path" stroke="#1D1D1B" stroke-width="1.4" stroke-linecap="round" stroke-linejoin="round"></path>
            </g>
        </g>
    </g>
</svg>