<svg xmlns="http://www.w3.org/2000/svg" width="32" height="33" viewBox="0 0 32 33">
    <g fill="none" fill-rule="evenodd" transform="translate(0 .5)">
        <path fill="#FCE7D0" fill-rule="nonzero" d="M28.51 18.08c.007 3.342-1.313 6.55-3.67 8.92-4.934 3.685-11.797 3.31-16.3-.89-.497-.433-.958-.904-1.38-1.41-.547-.69-1.017-1.438-1.4-2.23C3.393 17.655 4.288 11.874 8 8c3.025-2.35 6.95-3.206 10.68-2.33.474.11.941.248 1.4.41l.45.17.87.39c.803.39 1.56.866 2.26 1.42 3.07 2.418 4.858 6.112 4.85 10.02z"/>
        <path stroke="#1D1D1B" stroke-linecap="round" stroke-linejoin="round" stroke-width="1.4" d="M29.93 16.83c0 4.002-1.887 7.77-5.09 10.17h0c-4.934 3.685-11.797 3.31-16.3-.89-.497-.433-.958-.904-1.38-1.41-.547-.69-1.017-1.438-1.4-2.23h0c-2.161-4.42-1.583-9.69 1.484-13.537C10.31 5.085 15.319 3.348 20.11 4.47c.474.11.942.246 1.4.41.165.031.329.071.49.12.3.12.59.25.87.39h0c.803.39 1.56.866 2.26 1.42h0c3.051 2.428 4.82 6.12 4.8 10.02h0z"/>
        <path stroke="#1D1D1B" stroke-linecap="round" stroke-linejoin="round" stroke-width="1.4" d="M18.69 4.17c.06.501.09 1.005.09 1.51 0 3.386-1.348 6.632-3.746 9.023C12.637 17.093 9.386 18.43 6 18.42c-.495 0-.989-.03-1.48-.09"/>
        <path stroke="#1D1D1B" stroke-linecap="round" stroke-linejoin="round" stroke-width="1.4" d="M22.39 5.39c.185.925.279 1.866.28 2.81.01 2.998-.925 5.923-2.67 8.36-2.7 3.769-7.054 6.003-11.69 6-.838-.002-1.674-.076-2.5-.22"/>
        <path stroke="#1D1D1B" stroke-linecap="round" stroke-linejoin="round" stroke-width="1.4" d="M26.26 8c.17.873.243 1.761.22 2.65 0 8.837-7.163 16-16 16h-.94"/>
        <path stroke="#1D1D1B" stroke-linecap="round" stroke-linejoin="round" stroke-width="1.4" d="M18.78 24.48c.283.94.415 1.919.39 2.9 0 .495-.03.989-.09 1.48M4.92 14.72c2.779-.334 5.59.256 8 1.68M7.13 9.06c.816-.167 1.648-.237 2.48-.21 2.704-.05 5.356.752 7.58 2.29M25.62 16c1.134 2.245 1.724 4.725 1.72 7.24v.94"/>
        <circle cx="2.07" cy="6.96" r="1.36" stroke="#1D1D1B" stroke-linecap="round" stroke-linejoin="round" stroke-width="1.4"/>
        <circle cx="7.51" cy="2.07" r="1.36" stroke="#1D1D1B" stroke-linecap="round" stroke-linejoin="round" stroke-width="1.4"/>
        <path stroke="#1D1D1B" stroke-linecap="round" stroke-linejoin="round" stroke-width="1.4" d="M23.63 28.09L25.66 31.3M8.16 3.68L9.88 6.39M27.77 23.93L31.3 26.2M3 7.93c.09.07 1.28.85 3.14 2.07"/>
    </g>
</svg>
