<svg height="32" viewBox="0 0 32 32" width="32" xmlns="http://www.w3.org/2000/svg"><g fill="none" fill-rule="evenodd" transform="translate(7)"><path d="m16.26 17.66-7.17 12 2.22-7.95c.0986727-.3594624.0261576-.7443408-.1965591-1.0432501-.2227168-.2989092-.5707733-.4784822-.9434409-.4867499l-7.12-.07c-.83631853-.0038437-1.62135219-.4037323-2.11618217-1.0779628s-.64092338-1.5430489-.39381783-2.3420372l4.33-14.22h7.4c1.61 0 1.6.42 1.14 1.65l-3.21 7.61c-.56 1.29-.14 2.78 1.33 2.81.75 0 1.8.1 3 .13 2.12.05 2.68 1.4 1.73 2.99z" fill="#fff" fill-rule="nonzero"/><path d="m18.5 16.51-8.75 14.57c-.14896323.2203772-.43820227.2961992-.67612013.1772403-.23791786-.118959-.35080366-.3958434-.26387987-.6472403l.28-1 2.22-7.95c.0986727-.3594624.0261576-.7443408-.1965591-1.0432501-.2227168-.2989092-.5707733-.4784822-.9434409-.4867499l-7.12-.07c-.83631853-.0038437-1.62135219-.4037323-2.11618217-1.0779628s-.64092338-1.5430489-.39381783-2.3420372l4.33-14.17.19-.63c.20151848-.67392283.82668785-1.13156316 1.53-1.1202142h7.78c.5712622.00253488 1.09618.3149674 1.370606.81600264.2744259.50103523.2550447 1.11159003-.050606 1.59421156l-3.31 7.82c-.2317172.3674447-.2467571.8314304-.0393225 1.2131101.2074346.3816796.6049507.6214501 1.0393225.6268899l3.12.07c.8536436.0293871 1.6285727.5066053 2.039021 1.2556734.4104483.7490682.3956184 1.659031-.039021 2.3943266z" stroke="#1d1d1b" stroke-linecap="round" stroke-linejoin="round" stroke-width="1.4"/></g></svg>