<svg xmlns="http://www.w3.org/2000/svg" width="32" height="32" viewBox="0 0 32 32">
    <g fill="none" fill-rule="evenodd">
        <g>
            <g>
                <g>
                    <g>
                        <g>
                            <path fill="#FFF" fill-rule="nonzero" d="M16.19 2.28H2.91c-.96.02-1.77.82-1.78 1.78v.01L.7 27.46c0 2.03 1.84 3.82 3.94 3.82h12.64c.55 0 .67-.39 1.15-.61.69-.65 1.03-2.23 1.03-2.75V5.43c0-2.02-1.17-3.15-3.27-3.15zm.83 22.07c-.42 1.19-1.57 2.22-2.66 3-2.78 2.01-8.04.96-9.52-2.05-.4-.81-1.06-1.41-1.39-2.2-.07-.14-.12-.29-.17-.44 0 0-.8-5.04 1.16-6.75 2.87-2.5 7-2.64 9.92-.43.06.11.16.19.28.22.29.24.57.51.83.8 1.09 1.21 1.73 2.66 1.94 4.15.03.24.05.48.06.71.05 1.02-.1 2.03-.45 2.99z" transform="translate(-419 -2235) translate(355 2211) translate(40) translate(24 24) translate(3)"/>
                            <path stroke="#1D1D1B" stroke-linecap="round" stroke-linejoin="round" stroke-width="1.4" d="M21.1 4.53v22.93c0 1.55-.93 2.89-2.26 3.49-.48.22-1.02.34-1.57.34H4.53C2.42 31.29.7 29.57.7 27.46V4.53c0-.54.12-1.06.33-1.53C1.62 1.64 2.97.7 4.53.7h12.74c2.11 0 3.83 1.72 3.83 3.83z" transform="translate(-419 -2235) translate(355 2211) translate(40) translate(24 24) translate(3)"/>
                            <path fill="#F5F5F5" fill-rule="nonzero" stroke="#1D1D1B" stroke-linecap="round" stroke-linejoin="round" stroke-width="1.4" d="M18.21 23.39l7.94 3.94h0c.3.12.54.36.65.69.2.61-.12 1.27-.73 1.47-.29.1-.59.07-.84-.05h0l-8.12-4.03" transform="translate(-419 -2235) translate(355 2211) translate(40) translate(24 24) translate(3)"/>
                            <path stroke="#1D1D1B" stroke-linecap="round" stroke-linejoin="round" stroke-width="1.4" d="M5.38 7.07L16.16 7.07" transform="translate(-419 -2235) translate(355 2211) translate(40) translate(24 24) translate(3)"/>
                            <g stroke="#1D1D1B" stroke-width="1.4">
                                <g stroke-linecap="round" stroke-linejoin="round">
                                    <path d="M2.57 2.2C1.36 2.23.39 2.99.41 3.91c.02.99 1.09 1.36 1.9 1.56.89.21 2.23.29 2.53 1.35l.03.14c.2 1.17-1.16 1.85-2.14 1.87M4.48 2.36L2.57 2.2 2.54.72M2.76 10.3L2.73 8.82M.6 8.63L2.73 8.82" transform="translate(-419 -2235) translate(355 2211) translate(40) translate(24 24) translate(3) translate(2 12) translate(6 3)"/>
                                </g>
                                <path d="M14.42 3.27c1.08 1.21 1.72 2.66 1.93 4.15.03.24.05.48.07.71.04 1.02-.1 2.03-.45 2.99-.42 1.18-1.13 2.29-2.13 3.19-3.22 2.89-8.16 2.62-11.05-.59-.6-.66-1.06-1.41-1.39-2.2-.07-.15-.13-.29-.18-.44l.01-.01C.22 8.19.97 4.84 3.38 2.68c3.21-2.89 8.16-2.62 11.04.59z" transform="translate(-419 -2235) translate(355 2211) translate(40) translate(24 24) translate(3) translate(2 12)"/>
                            </g>
                            <path fill="#E5E5E5" fill-rule="nonzero" d="M14.64 15.7c-.12-.03-.22-.11-.28-.22.09.07.19.14.28.22z" transform="translate(-419 -2235) translate(355 2211) translate(40) translate(24 24) translate(3)"/>
                        </g>
                    </g>
                </g>
            </g>
        </g>
    </g>
</svg>
