<svg xmlns="http://www.w3.org/2000/svg" width="32" height="33" viewBox="0 0 32 33">
    <g fill="none" fill-rule="evenodd" opacity=".75">
        <path fill="#E0F1FA" fill-rule="nonzero" d="M10.83 1.59c-2.11.002-4.182.568-6 1.64C2.1 5.494.528 8.863.55 12.41c0 3.89 4.23 11.15 7.63 16.4 1.36 2.113 4.065 2.906 6.35 1.86.25-.245.47-.517.66-.81 3.38-5.28 7.54-12.58 7.53-16.48-.044-6.532-5.358-11.801-11.89-11.79zm7.5 11c-.164 1.48-.878 2.843-2 3.82.39-.697.631-1.466.71-2.26v-.6-.61c-.225-2.204-1.667-4.096-3.733-4.896-2.066-.8-4.407-.372-6.057 1.106 1.265-2.214 3.807-3.367 6.306-2.86 2.499.506 4.391 2.558 4.694 5.09v.6c.11.21.1.42.08.62v-.01z" transform="translate(4 .5)"/>
        <path stroke="#1D1D1B" stroke-linecap="round" stroke-linejoin="round" stroke-width="1.4" d="M24.18 12.5C24.2 16.39 20 23.68 16.66 29c-.524.84-1.291 1.499-2.2 1.89-2.293 1.031-4.995.227-6.35-1.89C4.7 23.74.48 16.48.47 12.6.449 9.055 2.015 5.687 4.74 3.42h0C8.274.494 13.177-.133 17.333 1.808 21.49 3.749 24.156 7.912 24.18 12.5z" transform="translate(4 .5)"/>
        <path stroke="#1D1D1B" stroke-linecap="round" stroke-linejoin="round" stroke-width="1.4" d="M16.61 16.18v8.71c.008.137-.076.263-.205.31-.13.046-.274.001-.355-.11l-.89-.82-2.69-2.51-3.82 3.37c-.088.1-.228.135-.352.088-.125-.047-.207-.165-.208-.298V16" transform="translate(4 .5)"/>
        <path stroke="#1D1D1B" stroke-linecap="round" stroke-linejoin="round" stroke-width="1.4" d="M18.35 12v.61c-.212 2.336-1.79 4.324-4.018 5.06-2.228.736-4.68.08-6.242-1.67-.102-.102-.196-.213-.28-.33-.827-1.044-1.271-2.339-1.26-3.67-.009-3.146 2.453-5.745 5.595-5.908 3.141-.163 5.858 2.168 6.175 5.298.02.2.03.4.03.61z" transform="translate(4 .5)"/>
    </g>
</svg>
