<svg xmlns="http://www.w3.org/2000/svg" width="36" height="36" viewBox="0 0 36 36">
    <g fill="none" fill-rule="evenodd">
        <path fill="#FFF" fill-rule="nonzero" d="M12.184 1.789c-2.374.002-4.705.64-6.75 1.845C2.362 6.18.594 9.97.619 13.96c0 4.376 4.759 12.544 8.584 18.45 1.529 2.378 4.573 3.27 7.143 2.093.28-.276.53-.581.743-.911 3.802-5.94 8.482-14.153 8.471-18.54-.05-7.35-6.027-13.277-13.376-13.264zm8.437 12.375c-.184 1.664-.987 3.198-2.25 4.297.438-.783.71-1.649.799-2.542v-.675-.687c-.253-2.48-1.875-4.607-4.2-5.507-2.324-.9-4.957-.42-6.814 1.244C9.58 7.803 12.44 6.505 15.25 7.075c2.812.57 4.94 2.88 5.281 5.728v.674c.124.237.113.473.09.698v-.011z" transform="translate(4.5)"/>
        <path stroke="#1D1D1B" stroke-linecap="round" stroke-linejoin="round" stroke-width="1.4" d="M27.203 14.063c.022 4.376-4.703 12.577-8.46 18.562-.59.944-1.453 1.686-2.476 2.126-2.579 1.16-5.618.256-7.143-2.126C5.287 26.707.54 18.54.529 14.175.505 10.187 2.267 6.398 5.332 3.847h0C9.308.557 14.825-.15 19.5 2.035c4.676 2.184 7.675 6.867 7.703 12.029z" transform="translate(4.5)"/>
        <path stroke="#1D1D1B" stroke-linecap="round" stroke-linejoin="round" stroke-width="1.4" d="M18.686 18.203V28c.009.155-.085.296-.23.348-.146.052-.309.002-.4-.123l-1.001-.922-3.026-2.824-4.298 3.791c-.099.112-.256.152-.396.1-.14-.053-.233-.187-.234-.336V18" transform="translate(4.5)"/>
        <path stroke="#1D1D1B" stroke-linecap="round" stroke-linejoin="round" stroke-width="1.4" d="M20.644 13.5v.686c-.239 2.629-2.014 4.865-4.52 5.693-2.507.828-5.265.09-7.023-1.879-.114-.115-.22-.24-.315-.371-.93-1.174-1.43-2.631-1.417-4.129-.01-3.54 2.76-6.463 6.294-6.647 3.534-.183 6.59 2.44 6.947 5.96.023.226.034.45.034.687z" transform="translate(4.5)"/>
    </g>
</svg>
