<?xml version="1.0" encoding="UTF-8"?>
<svg width="100%" height="100%" viewBox="0 0 33 346" version="1.1" xmlns="http://www.w3.org/2000/svg" xmlns:xlink="http://www.w3.org/1999/xlink">
    <title>Group 2</title>
    <g id="Page-1" stroke="none" stroke-width="1" fill="none" fill-rule="evenodd">
        <g id="Artboard" transform="translate(-15.000000, -105.000000)">
            <g id="Group-2" transform="translate(16.000000, 106.000000)">
                <line x1="32" y1="4.5" x2="8" y2="4.5" id="Path" stroke="#5089FD" stroke-width="2" stroke-dasharray="8"></line>
                <circle id="Oval" stroke="#5089FD" stroke-width="2" fill="#FFFFFF" cx="4" cy="4" r="4"></circle>
                <rect id="Rectangle" fill="#5089FD" x="3" y="7" width="2" height="8"></rect>
                <rect id="Rectangle" fill="#5089FD" x="3" y="28" width="2" height="8"></rect>
                <rect id="Rectangle" fill="#5089FD" x="3" y="48" width="2" height="8"></rect>
                <rect id="Rectangle" fill="#5089FD" x="3" y="69" width="2" height="8"></rect>
                <rect id="Rectangle" fill="#5089FD" x="3" y="89" width="2" height="8"></rect>
                <line x1="32" y1="100.5" x2="8" y2="100.5" id="Path" stroke="#5089FD" stroke-width="2" stroke-dasharray="8"></line>
                <circle id="Oval" stroke="#5089FD" stroke-width="2" fill="#FFFFFF" cx="4" cy="100" r="4"></circle>
                <rect id="Rectangle" fill="#5089FD" x="3" y="103" width="2" height="8"></rect>
                <rect id="Rectangle" fill="#5089FD" x="3" y="125" width="2" height="8"></rect>
                <rect id="Rectangle" fill="#5089FD" x="3" y="147" width="2" height="8"></rect>
                <rect id="Rectangle" fill="#5089FD" x="3" y="169" width="2" height="8"></rect>
                <line x1="32" y1="180.5" x2="8" y2="180.5" id="Path" stroke="#5089FD" stroke-width="2" stroke-dasharray="8"></line>
                <circle id="Oval" stroke="#5089FD" stroke-width="2" fill="#FFFFFF" cx="4" cy="180" r="4"></circle>
                <rect id="Rectangle" fill="#5089FD" x="3" y="183" width="2" height="8"></rect>
                <rect id="Rectangle" fill="#5089FD" x="3" y="205" width="2" height="8"></rect>
                <rect id="Rectangle" fill="#5089FD" x="3" y="227" width="2" height="8"></rect>
                <rect id="Rectangle" fill="#5089FD" x="3" y="249" width="2" height="8"></rect>
                <line x1="32" y1="260.5" x2="8" y2="260.5" id="Path" stroke="#5089FD" stroke-width="2" stroke-dasharray="8"></line>
                <circle id="Oval" stroke="#5089FD" stroke-width="2" fill="#FFFFFF" cx="4" cy="260" r="4"></circle>
                <line x1="32" y1="340.5" x2="8" y2="340.5" id="Path" stroke="#5089FD" stroke-width="2" stroke-dasharray="8"></line>
                <circle id="Oval" stroke="#5089FD" stroke-width="2" fill="#FFFFFF" cx="4" cy="340" r="4"></circle>
                <rect id="Rectangle" fill="#5089FD" x="3" y="263" width="2" height="8"></rect>
                <rect id="Rectangle" fill="#5089FD" x="3" y="285" width="2" height="8"></rect>
                <rect id="Rectangle" fill="#5089FD" x="3" y="307" width="2" height="8"></rect>
                <rect id="Rectangle" fill="#5089FD" x="3" y="329" width="2" height="8"></rect>
            </g>
        </g>
    </g>
</svg>