<?xml version="1.0" encoding="UTF-8"?>
<svg width="100%" height="100%" viewBox="0 0 844 80" version="1.1" xmlns="http://www.w3.org/2000/svg" xmlns:xlink="http://www.w3.org/1999/xlink">
    <title>lines</title>
    <g id="Page-1" stroke="none" stroke-width="1" fill="none" fill-rule="evenodd">
        <g id="lines" transform="translate(422.000000, 40.000000) rotate(-270.000000) translate(-422.000000, -40.000000) translate(382.000000, -381.000000)">
            <line x1="80" y1="4" x2="56" y2="4" id="Path" stroke="#5089FD" stroke-width="2" stroke-dasharray="8"></line>
            <circle id="Oval" stroke="#5089FD" stroke-width="2" fill="#FFFFFF" cx="52" cy="4" r="4"></circle>
            <line x1="80" y1="282" x2="56" y2="282" id="Path" stroke="#5089FD" stroke-width="2" stroke-dasharray="8"></line>
            <circle id="Oval" stroke="#5089FD" stroke-width="2" fill="#FFFFFF" cx="52" cy="282" r="4"></circle>
            <g id="Group-11" transform="translate(51.000000, 7.000000)" fill="#5089FD">
                <rect id="Rectangle" x="4.54747351e-13" y="75" width="2" height="8"></rect>
                <rect id="Rectangle" x="3.18323146e-12" y="57" width="2" height="8"></rect>
                <rect id="Rectangle" x="5.00222086e-12" y="19" width="2" height="8"></rect>
                <rect id="Rectangle" x="8.18545232e-12" y="0" width="2" height="8"></rect>
                <rect id="Rectangle" x="1.36424205e-12" y="113" width="2" height="8"></rect>
                <rect id="Rectangle" x="2.22826202e-11" y="151" width="2" height="8"></rect>
                <rect id="Rectangle" x="2.22826202e-11" y="189" width="2" height="8"></rect>
                <rect id="Rectangle" x="2.22826202e-11" y="226" width="2" height="8"></rect>
                <rect id="Rectangle" x="2.36468622e-11" y="207" width="2" height="8"></rect>
                <rect id="Rectangle" x="2.54658516e-11" y="170" width="2" height="8"></rect>
                <rect id="Rectangle" x="2.72848411e-11" y="132" width="2" height="8"></rect>
                <rect id="Rectangle" x="2.95585778e-11" y="94" width="2" height="8"></rect>
                <rect id="Rectangle" x="3.18323146e-11" y="38" width="2" height="8"></rect>
                <rect id="Rectangle" x="2.22826202e-11" y="245" width="2" height="8"></rect>
                <rect id="Rectangle" x="2.31921149e-11" y="264" width="2" height="8"></rect>
            </g>
            <g id="Group-10" transform="translate(28.000000, 420.000000) rotate(-180.000000) translate(-28.000000, -420.000000) translate(0.000000, 416.000000)" stroke="#5089FD" stroke-width="2">
                <line x1="56" y1="4" x2="6" y2="4" id="Path" stroke-dasharray="8"></line>
                <circle id="Oval" fill="#FFFFFF" cx="4" cy="4" r="4"></circle>
            </g>
            <g id="Group-11" transform="translate(51.000000, 563.000000)" fill="#5089FD">
                <rect id="Rectangle" x="4.54747351e-13" y="75" width="2" height="8"></rect>
                <rect id="Rectangle" x="3.18323146e-12" y="57" width="2" height="8"></rect>
                <rect id="Rectangle" x="5.00222086e-12" y="19" width="2" height="8"></rect>
                <rect id="Rectangle" x="8.18545232e-12" y="0" width="2" height="8"></rect>
                <rect id="Rectangle" x="1.36424205e-12" y="113" width="2" height="8"></rect>
                <rect id="Rectangle" x="2.22826202e-11" y="151" width="2" height="8"></rect>
                <rect id="Rectangle" x="2.22826202e-11" y="189" width="2" height="8"></rect>
                <rect id="Rectangle" x="2.22826202e-11" y="226" width="2" height="8"></rect>
                <rect id="Rectangle" x="2.36468622e-11" y="207" width="2" height="8"></rect>
                <rect id="Rectangle" x="2.54658516e-11" y="170" width="2" height="8"></rect>
                <rect id="Rectangle" x="2.72848411e-11" y="132" width="2" height="8"></rect>
                <rect id="Rectangle" x="2.95585778e-11" y="94" width="2" height="8"></rect>
                <rect id="Rectangle" x="3.18323146e-11" y="38" width="2" height="8"></rect>
                <rect id="Rectangle" x="2.22826202e-11" y="245" width="2" height="8"></rect>
                <rect id="Rectangle" x="2.31921149e-11" y="264" width="2" height="8"></rect>
            </g>
            <line x1="80" y1="560" x2="56" y2="560" id="Path" stroke="#5089FD" stroke-width="2" stroke-dasharray="8"></line>
            <circle id="Oval" stroke="#5089FD" stroke-width="2" fill="#FFFFFF" cx="52" cy="560" r="4"></circle>
            <g id="Group-11" transform="translate(51.000000, 285.000000)" fill="#5089FD">
                <rect id="Rectangle" x="4.54747351e-13" y="75" width="2" height="8"></rect>
                <rect id="Rectangle" x="3.18323146e-12" y="57" width="2" height="8"></rect>
                <rect id="Rectangle" x="5.00222086e-12" y="19" width="2" height="8"></rect>
                <rect id="Rectangle" x="8.18545232e-12" y="0" width="2" height="8"></rect>
                <rect id="Rectangle" x="1.36424205e-12" y="113" width="2" height="8"></rect>
                <rect id="Rectangle" x="2.22826202e-11" y="151" width="2" height="8"></rect>
                <rect id="Rectangle" x="2.22826202e-11" y="189" width="2" height="8"></rect>
                <rect id="Rectangle" x="2.22826202e-11" y="226" width="2" height="8"></rect>
                <rect id="Rectangle" x="2.36468622e-11" y="207" width="2" height="8"></rect>
                <rect id="Rectangle" x="2.54658516e-11" y="170" width="2" height="8"></rect>
                <rect id="Rectangle" x="2.95585778e-11" y="94" width="2" height="8"></rect>
                <rect id="Rectangle" x="3.18323146e-11" y="38" width="2" height="8"></rect>
                <rect id="Rectangle" x="2.22826202e-11" y="245" width="2" height="8"></rect>
                <rect id="Rectangle" x="2.31921149e-11" y="264" width="2" height="8"></rect>
            </g>
            <line x1="80" y1="838.5" x2="56" y2="838.5" id="Path" stroke="#5089FD" stroke-width="2" stroke-dasharray="8"></line>
            <circle id="Oval" stroke="#5089FD" stroke-width="2" fill="#FFFFFF" cx="52" cy="838" r="4"></circle>
        </g>
    </g>
</svg>