<?xml version="1.0" encoding="UTF-8"?>
<svg width="33px" height="33px" viewBox="0 0 33 33" version="1.1" xmlns="http://www.w3.org/2000/svg" xmlns:xlink="http://www.w3.org/1999/xlink">
    <title>Icon</title>
    <g id="Page-1" stroke="none" stroke-width="1" fill="none" fill-rule="evenodd">
        <g id="20200406_ICON_ICON-374" transform="translate(1.000000, 0.000000)">
            <path d="M27.63,2.74 L27.88,3.16 L29.7,6.16 L30,29 L30,30.81 C30.0110222,30.8728538 30.0110222,30.9371462 30,31.0000695 L29.84,31.0000695 L26.84,31.0000695 C26.6473174,31.0026764 26.4616031,30.9280027 26.3244063,30.7926853 C26.1872095,30.6573679 26.1099814,30.4727012 26.11,30.28 L26.11,27.45 L25.86,6.45 L25.95,6.29 L27.52,3.11 L27.63,2.74 Z" id="Path" fill="#FFFFFF" fill-rule="nonzero"></path>
            <path d="M31,5.22 L31.27,28 L31.27,29.81 C31.2749173,29.8698992 31.2749173,29.9301008 31.27,29.99 C31.1892007,30.6925483 30.5971582,31.2245285 29.89,31.23 L27.53,31.23 C26.7573236,31.23 26.1263241,30.612504 26.11,29.84 L26.11,27.67 L25.84,5.28" id="Path" stroke="#1D1D1B" stroke-width="1.4" stroke-linecap="round" stroke-linejoin="round"></path>
            <polyline id="Path" stroke="#1D1D1B" stroke-width="1.4" stroke-linecap="round" stroke-linejoin="round" points="25.84 5.28 27.51 2.15 28.29 0.7 28.93 1.76 29.19 2.19 31.01 5.22"></polyline>
            <polyline id="Path" stroke="#1D1D1B" stroke-width="1.4" stroke-linecap="round" stroke-linejoin="round" points="26.16 4.81 27.3 5.9 28.42 4.79 29.57 5.87 30.7 4.76"></polyline>
            <line x1="26.1" y1="27.73" x2="30.91" y2="27.64" id="Path" stroke="#1D1D1B" stroke-width="1.4" stroke-linecap="round" stroke-linejoin="round"></line>
            <path d="M18.28,2.7 L2.87,2.78 C2.28744777,2.78252981 1.73037766,3.01918505 1.32412814,3.43671928 C0.917878631,3.8542535 0.696571518,4.41759707 0.71,5 L0.81,30.2 C1.23551188,30.8653188 1.97024871,31.268482 2.76,31.27 L20.24,31.27 C20.3397521,31.2799584 20.4402479,31.2799584 20.54,31.27 C20.5552729,31.150486 20.5552729,31.029514 20.54,30.91 L20.59,5.05 C20.63,3 20,2.7 18.28,2.7 Z M17.76,12.56 L4.49,12.56 L4.49,6.2 C4.49,5.99138681 4.57353248,5.79146011 4.72198084,5.64489085 C4.87042919,5.49832159 5.07140396,5.41732547 5.28,5.41993581 L17,5.41993581 C17.4268718,5.42547316 17.77,5.77309311 17.77,6.2 L17.76,12.56 Z" id="Shape" fill="#FFFFFF" fill-rule="nonzero"></path>
            <path d="M22.6401918,3.09 L22.59,29 C22.5889409,30.0813065 21.850157,31.0223273 20.8,31.28 C20.715687,31.3071696 20.6283764,31.3239601 20.54,31.33 C20.4402479,31.3399584 20.3397521,31.3399584 20.24,31.33 L2.76,31.33 C1.95841659,31.3155616 1.22109368,30.8882924 0.81,30.2 C0.549878328,29.816859 0.413737514,29.3630563 0.42,28.9 L0.42,3.05 C0.41627516,2.8786146 0.433061027,2.70739875 0.47,2.54 C0.707308998,1.43746977 1.70310566,0.665305413 2.83,0.71 L20.29,0.71 C20.9184916,0.709948785 21.520815,0.961651261 21.9623981,1.4088716 C22.4039812,1.85609193 22.6480233,2.46155964 22.6401918,3.09 Z" id="Path" stroke="#1D1D1B" stroke-width="1.4" stroke-linecap="round" stroke-linejoin="round"></path>
            <line x1="5.03" y1="21.09" x2="8.61" y2="21.09" id="Path" stroke="#1D1D1B" stroke-width="1.4" fill="#FFFFFF" fill-rule="nonzero" stroke-linecap="round" stroke-linejoin="round"></line>
            <line x1="5.03" y1="25.93" x2="8.61" y2="25.93" id="Path" stroke="#1D1D1B" stroke-width="1.4" fill="#FFFFFF" fill-rule="nonzero" stroke-linecap="round" stroke-linejoin="round"></line>
            <line x1="5.03" y1="16.79" x2="8.61" y2="16.79" id="Path" stroke="#1D1D1B" stroke-width="1.4" fill="#FFFFFF" fill-rule="nonzero" stroke-linecap="round" stroke-linejoin="round"></line>
            <line x1="13.54" y1="21.09" x2="17.13" y2="21.09" id="Path" stroke="#1D1D1B" stroke-width="1.4" fill="#FFFFFF" fill-rule="nonzero" stroke-linecap="round" stroke-linejoin="round"></line>
            <line x1="13.54" y1="25.93" x2="17.13" y2="25.93" id="Path" stroke="#1D1D1B" stroke-width="1.4" fill="#FFFFFF" fill-rule="nonzero" stroke-linecap="round" stroke-linejoin="round"></line>
            <line x1="13.54" y1="16.79" x2="17.13" y2="16.79" id="Path" stroke="#1D1D1B" stroke-width="1.4" fill="#FFFFFF" fill-rule="nonzero" stroke-linecap="round" stroke-linejoin="round"></line>
            <path d="M5.11,5.41 L17.11,5.41 C17.4579394,5.41 17.74,5.69206061 17.74,6.04 L17.74,12.56 L4.49,12.56 L4.49,6 C4.51086171,5.6715921 4.78096178,5.41456139 5.11,5.41 Z" id="Path" stroke="#1D1D1B" stroke-width="1.4" stroke-linecap="round" stroke-linejoin="round"></path>
        </g>
    </g>
</svg>