<svg xmlns="http://www.w3.org/2000/svg" width="36" height="36" viewBox="0 0 36 36">
    <g fill="none" fill-rule="evenodd">
        <path fill="#FFF" fill-rule="nonzero" d="M33.356 5.096V29.7c0 2.25 0 5.119-2.509 5.49H4.084c-1.864 0-3.375-1.511-3.375-3.375V5.074c.979-2.498 3.285-2.498 5.478-2.498h24.65c1.388.006 2.513 1.131 2.52 2.52z"/>
        <path stroke="#1D1D1B" stroke-linecap="round" stroke-linejoin="round" stroke-width="1.4" d="M35.156 4.095V31.86c0 1.842-1.477 3.344-3.319 3.375H4.072c-1.863 0-3.375-1.511-3.375-3.375V4.095C.729 2.253 2.23.776 4.074.776h27.764c1.82.03 3.29 1.499 3.32 3.319zM.743 17.977L35.258 17.977M18 1.451L18 35.224M9.563 4.939L9.54 14.557M14.366 9.765L4.747 9.742M29.599 23.288L22.781 30.071M29.587 30.082L22.804 23.265M31.005 9.754L21.386 9.731M5.794 30.082L12.578 23.265"/>
    </g>
</svg>
