<?xml version="1.0" encoding="UTF-8"?>
<svg width="31px" height="32px" viewBox="0 0 31 32" version="1.1" xmlns="http://www.w3.org/2000/svg" xmlns:xlink="http://www.w3.org/1999/xlink">
    <title>Icon</title>
    <g id="Page-1" stroke="none" stroke-width="1" fill="none" fill-rule="evenodd">
        <g id="Group" transform="translate(-1.000000, 0.000000)">
            <g id="20200406_ICON_ICON-311" transform="translate(1.000000, 1.000000)">
                <path d="M27.71,22.84 C27.698826,23.1277736 27.4847649,23.3670183 27.2,23.41 L23.79,23.94 L23.79,23.94 L22.86,24.08 L22.72,24.08 C22.72,24.08 22.72,24.08 22.72,24.08 C22.4112791,24.1897674 22.1759158,24.4438102 22.09,24.76 L22.09,24.76 C22.0657121,24.8855024 22.0657121,25.0144976 22.09,25.14 L22.62,28.72 L22.62,28.72 L22.62,28.72 L6.75,15.91 L6.86,14.31 L2.38,10.18 L0.6,8.54 L3.83,8 C4.16820743,7.93904547 4.45142297,7.70869683 4.58,7.39 L5.51,7.24 C5.99109253,7.15203267 6.33797625,6.72900373 6.33,6.24 L6,2 L10.39,5.6 L10.89,6.02 L10.89,6.02 L12.14,7.02 C12.14,7.02 16.58,10.62 16.84,10.82 C18.5511129,12.0028934 20.0690439,13.4432412 21.34,15.09 C21.5281362,15.3335708 21.6457485,15.6241425 21.68,15.93 C21.681473,16.0013098 21.6604829,16.071277 21.62,16.13 C21.45,16.36 20.62,16.06 19.62,15.59 C19.4699907,15.5338431 19.3013163,15.5935177 19.2199961,15.7315156 C19.1386759,15.8695135 19.1681953,16.0459807 19.29,16.15 L27.53,22.3 C27.6769967,22.4382737 27.7446331,22.641183 27.71,22.84 Z" id="Path" fill="#FFFFFF" fill-rule="nonzero"></path>
                <path d="M17.74,9.55 L6.84,0.61 C6.65921489,0.429058064 6.38243138,0.385211793 6.15457378,0.501419169 C5.92671618,0.617626545 5.79968743,0.86741707 5.84,1.12 L6,2 L6.38,6.22 C6.38797625,6.70900373 6.04109253,7.13203267 5.56,7.22 L4.63,7.37 L1.11,8 C0.900108111,8.0504364 0.734517086,8.21147296 0.678248007,8.41987696 C0.621978927,8.62828096 0.684016112,8.85077714 0.84,9 L2.38,10.15 L7.23,13.8" id="Path" stroke="#1D1D1B" stroke-width="1.4" stroke-linecap="round" stroke-linejoin="round"></path>
                <path d="M23.27,15.43 C22.8,16.07 19.93,14.71 16.84,12.43 C13.75,10.15 11.62,7.76 12.08,7.12 C12.54,6.48 15.41,7.85 18.49,10.12 C21.57,12.39 23.72,14.8 23.27,15.43 Z" id="Path" stroke="#1D1D1B" stroke-width="1.4" stroke-linecap="round" stroke-linejoin="round"></path>
                <path d="M17.5,12.89 L29.16,21.59 C29.351155,21.7355794 29.4370253,21.9811592 29.3782371,22.2141346 C29.3194489,22.44711 29.127341,22.6225458 28.89,22.66 L24.54,23.34 C24.0308944,23.4407014 23.6834289,23.9141231 23.74,24.43 L24.4,28.86 C24.4418858,29.0994633 24.3326085,29.3401036 24.1247406,29.4661512 C23.9168727,29.5921987 23.6529725,29.5778468 23.46,29.43 L11.54,20.54 C8.46,18.24 6,15.54 6.46,14.87 L12.08,7.09" id="Path" stroke="#1D1D1B" stroke-width="1.4" stroke-linecap="round" stroke-linejoin="round"></path>
            </g>
        </g>
    </g>
</svg>