<svg xmlns="http://www.w3.org/2000/svg" width="32" height="32" viewBox="0 0 32 32">
    <g fill="none" fill-rule="evenodd">
        <g>
            <g>
                <g>
                    <g>
                        <g>
                            <g>
                                <path fill="#FFF" fill-rule="nonzero" d="M16 10.26c-.111.201-.246.39-.4.56-.247.289-.545.53-.88.71-.52.29-.22.32-.81.3-.39.08-.37.39-.14.6.89.818 1.252 2.062.94 3.23-.786.964-2.057 1.389-3.265 1.092-1.207-.298-2.136-1.264-2.385-2.482-.06.296-.162.582-.3.85-.637 1.163-1.915 1.825-3.232 1.673-1.318-.151-2.412-1.086-2.768-2.363.45-1.06.63-1.89.09-1.93.038-.154.088-.304.15-.45.146-.266.332-.509.55-.72C1.93 11.128.713 9.753.71 8.12c-.002-.475.097-.946.29-1.38.944-.767 2.237-.94 3.35-.45.142.06.306.036.424-.063.118-.1.17-.257.136-.407-.04-.272-.043-.547-.01-.82.617.195 1.163.567 1.57 1.07L6.6 6c-.457-.567-.707-1.272-.71-2-.007-.403.064-.804.21-1.18.03-.033.064-.063.1-.09 1.066-.785 2.502-.844 3.63-.15.943.58 1.521 1.603 1.53 2.71-.002.143.069.277.188.356.12.08.271.092.402.034 1.267-.472 2.694-.11 3.583.907.89 1.019 1.055 2.481.417 3.673H16zM29.84 24.49c-.111.201-.246.39-.4.56-.121.145-.259.276-.41.39-.145.122-.303.23-.47.32-.04.029-.084.053-.13.07-.34.23-.15.25-.68.23-.53-.02-.37.39-.14.6.89.818 1.252 2.062.94 3.23-.786.964-2.057 1.389-3.265 1.092-1.207-.298-2.136-1.264-2.385-2.482-.06.296-.162.582-.3.85-.637 1.163-1.915 1.825-3.232 1.673-1.318-.151-2.412-1.086-2.768-2.363.43-1 .61-1.8.17-1.91h-.08c.05-.155.114-.306.19-.45.098-.19.222-.365.37-.52.055-.071.115-.138.18-.2-1.548-.187-2.747-1.445-2.86-3v-.18c0-.476.103-.947.3-1.38.072-.06.149-.113.23-.16.481-.325 1.04-.515 1.62-.55.51-.027 1.021.065 1.49.27.142.06.306.036.424-.063.118-.1.17-.257.136-.407-.02-.193-.02-.387 0-.58.62.188 1.17.557 1.58 1.06l.13-.09c-.454-.568-.705-1.273-.71-2 0-.518.124-1.029.36-1.49.979-.7 2.267-.799 3.34-.255 1.074.545 1.756 1.641 1.77 2.845-.002.143.069.277.188.356.12.08.271.092.402.034h.07c.052-.025.105-.045.16-.06 1.263-.388 2.635.026 3.471 1.05.837 1.022.97 2.45.339 3.61l-.03-.1z" transform="translate(-1124 -1163) translate(0 603) translate(755 163) translate(339 367) translate(8 8) translate(22 22)"/>
                                <path stroke="#1D1D1B" stroke-linecap="round" stroke-linejoin="round" stroke-width="1.4" d="M17.06 9.43c-.323.613-.84 1.102-1.47 1.39-.394.188-.823.294-1.26.31.142.118.27.252.38.4.847 1.008.99 2.433.36 3.59-.1.195-.224.376-.37.54-.786.964-2.057 1.389-3.265 1.092-1.207-.298-2.136-1.264-2.385-2.482-.06.296-.162.582-.3.85-.637 1.163-1.915 1.825-3.232 1.673-1.318-.151-2.412-1.086-2.768-2.363-.17-.637-.138-1.311.09-1.93.04-.154.094-.305.16-.45.146-.266.332-.509.55-.72C1.93 11.128.713 9.753.71 8.12c-.002-.475.097-.946.29-1.38.541-1.164 1.716-1.9 3-1.88.306-.001.61.046.9.14.617.195 1.163.567 1.57 1.07L6.6 6c-.457-.567-.707-1.272-.71-2-.007-.403.064-.804.21-1.18C6.657 1.346 8.19.484 9.74.775c1.548.29 2.665 1.65 2.65 3.225-.003.567-.159 1.123-.45 1.61 1.144-1.131 2.944-1.252 4.229-.283 1.284.968 1.664 2.732.891 4.143v-.04zM30.91 23.89c-.401.753-1.09 1.313-1.91 1.55-.275.09-.561.14-.85.15.09.072.174.152.25.24.954.997 1.174 2.488.55 3.718-.625 1.23-1.959 1.932-3.327 1.75-1.367-.181-2.471-1.207-2.753-2.558-.058.296-.159.583-.3.85-.828 1.53-2.715 2.138-4.28 1.377-1.565-.762-2.253-2.62-1.56-4.217.033-.082.07-.162.11-.24.146-.266.332-.509.55-.72h-.18c-1.548-.267-2.679-1.61-2.68-3.18v-.11c.018-.601.202-1.186.53-1.69h0c.592-.922 1.615-1.476 2.71-1.47.315 0 .629.047.93.14.62.188 1.17.557 1.58 1.06l.13-.09c-.454-.568-.705-1.273-.71-2 0-1.795 1.455-3.25 3.25-3.25s3.25 1.455 3.25 3.25c-.003.513-.13 1.017-.37 1.47-.02.049-.043.095-.07.14l.23-.2c1.202-.961 2.913-.945 4.096.04 1.183.983 1.51 2.664.784 4.02l.04-.03z" transform="translate(-1124 -1163) translate(0 603) translate(755 163) translate(339 367) translate(8 8) translate(22 22)"/>
                            </g>
                        </g>
                    </g>
                </g>
            </g>
        </g>
    </g>
</svg>
