<svg xmlns="http://www.w3.org/2000/svg" width="32" height="32" viewBox="0 0 32 32">
    <g fill="none" fill-rule="evenodd" opacity=".75">
        <path fill="#E6D7EA" fill-rule="nonzero" d="M14.88 1C10.784 1.005 6.862 2.66 4 5.59c-3.598 4.6-4.261 10.847-1.71 16.1 2.55 5.252 7.87 8.593 13.71 8.61 4.146.01 8.118-1.669 11-4.65 3.566-4.619 4.194-10.864 1.62-16.1C26.044 4.311 20.714.995 14.88 1zm4.3 18.77H14.1L10.79 15l2.05-5 6.37.4 2.53 3.73-2.56 5.64z" transform="translate(0 1)"/>
        <path stroke="#1D1D1B" stroke-linecap="round" stroke-linejoin="round" stroke-width="1.4" d="M31.29 15c.142 5.558-2.742 10.755-7.532 13.576-4.791 2.82-10.735 2.82-15.526 0C3.442 25.755.558 20.558.7 15 .912 6.705 7.697.091 15.995.091S31.078 6.705 31.29 15h0zM1.58 9.9L18.94 9.9M13.87 20.1L30.43 20.1M5.47 26.06L12.42 10.1M19.18 19.76L26.92 4.97M10.42 15L19.18 29.32M13.73.33L21.75 14.14" transform="translate(0 1)"/>
    </g>
</svg>
