<svg xmlns="http://www.w3.org/2000/svg" width="32" height="32" viewBox="0 0 32 32">
    <g fill="none" fill-rule="evenodd">
        <path fill="#D5F3E8" fill-rule="nonzero" d="M30.12 23.7c.005-1.211-.914-2.226-2.12-2.34-.897-.064-1.677-.64-2-1.48l-2.13-5.45c-.712-1.765-2.264-3.054-4.13-3.43v-.1c-.352-.076-.71-.116-1.07-.12l-17.8-.1c-.7 0-.1.93-.1 1.76l.09 14.99c0 .83 2.29 1.19 3 1.18 0 0 2.33 2.68 2.89 2.68 1.55 0 3.14-2.88 3.14-3h11.66s.29 1.29.31 1.33c.9 2 3.41 1.15 3.41 1.15l2.32-2.73c.7 0 2.54.48 2.54-.21l-.01-4.13zM20.17 22H4.3v-6l3.54-.77 2.15.77 2.33-1 2.15.92 2.15-.77 3.55.77V22zM9.73 1.79c-.89-.003-1.763.254-2.51.74-.578.759-.89 1.686-.89 2.64.039 1.661.974 3.17 2.444 3.945 1.47.775 3.244.692 4.636-.215.578-.759.89-1.686.89-2.64-.013-1.199-.502-2.343-1.36-3.182-.856-.838-2.011-1.301-3.21-1.288zm3.39 3.38c.003.59-.23 1.158-.647 1.576-.416.419-.982.654-1.573.654-.431-.008-.85-.148-1.2-.4-.63-.412-1.007-1.117-1-1.87-.005-.033-.005-.067 0-.1 0-1.226.994-2.22 2.22-2.22 1.226 0 2.22.994 2.22 2.22l-.02.14z"/>
        <path stroke="#1D1D1B" stroke-linecap="round" stroke-linejoin="round" stroke-width="1.4" d="M21.55 28.34c-.002.985.48 1.908 1.29 2.47.439.319.968.49 1.51.49.77-.023 1.497-.354 2.021-.917.525-.564.801-1.314.769-2.083.005-.063.005-.127 0-.19-.03-.559-.214-1.098-.53-1.56-.507-.747-1.347-1.199-2.25-1.21-1.535.043-2.764 1.285-2.79 2.82-.015.059-.022.12-.02.18h0zM4.3 28.34c-.004.983.474 1.906 1.28 2.47.44.317.968.489 1.51.49.771-.02 1.502-.35 2.028-.914.526-.564.804-1.315.772-2.086.005-.063.005-.127 0-.19-.036-.558-.218-1.096-.53-1.56-.512-.746-1.355-1.197-2.26-1.21-1.552.038-2.79 1.307-2.79 2.86-.008.046-.012.093-.01.14zM8.68 5.17c.013.742.395 1.429 1.02 1.83.355.236.773.362 1.2.36 1.232 0 2.23-.998 2.23-2.23.005-.047.005-.093 0-.14-.028-.425-.174-.833-.42-1.18-.444-.537-1.114-.836-1.81-.81-1.17-.003-2.141.903-2.22 2.07v.1zM9.89 28.34L21.31 28.2"/>
        <path stroke="#1D1D1B" stroke-linecap="round" stroke-linejoin="round" stroke-width="1.4" d="M27.6 28.09h2.44c.694-.01 1.25-.576 1.25-1.27v-4.2c.004-1.222-.932-2.24-2.15-2.34h0c-.897-.064-1.677-.64-2-1.48L25 13.35c-.842-2.162-2.92-3.59-5.24-3.6L2 9.64c-.762.069-1.328.737-1.27 1.5L.7 26.7c-.027.372.094.739.338 1.02.244.282.59.454.962.48h2.28"/>
        <path stroke="#1D1D1B" stroke-linecap="round" stroke-linejoin="round" stroke-width="1.4" d="M7.85 13.69c.027.593-.186 1.172-.59 1.606-.404.435-.967.689-1.56.704-.586-.016-1.142-.264-1.545-.69-.404-.425-.621-.994-.605-1.58v-4"/>
        <path stroke="#1D1D1B" stroke-linecap="round" stroke-linejoin="round" stroke-width="1.4" d="M7.85 13.69c-.027.593.186 1.172.59 1.606.404.435.967.689 1.56.704.586-.016 1.142-.264 1.545-.69.404-.425.621-.994.605-1.58M12.33 13.69c-.055.801.342 1.566 1.028 1.984.686.417 1.548.417 2.234 0 .686-.418 1.083-1.183 1.028-1.984"/>
        <path stroke="#1D1D1B" stroke-linecap="round" stroke-linejoin="round" stroke-width="1.4" d="M20.91 9.82v3.87c.055.801-.342 1.566-1.028 1.984-.686.417-1.548.417-2.234 0-.686-.418-1.083-1.183-1.028-1.984"/>
        <path stroke="#1D1D1B" stroke-linecap="round" stroke-linejoin="round" stroke-width="1.4" d="M20.17 15.8L20.17 21.99 6.4 21.99 4.13 21.99 4.09 15.17M15.46 5.17c-.002 1.512-.775 2.918-2.05 3.73-1.392.907-3.166.99-4.636.215-1.47-.774-2.405-2.284-2.444-3.945 0-.954.312-1.881.89-2.64C8.089 1.373 9.453.694 10.9.7c1.198-.013 2.352.45 3.207 1.289.856.839 1.342 1.983 1.353 3.181h0z"/>
    </g>
</svg>
