<?xml version="1.0" encoding="UTF-8"?>
<svg width="32px" height="33px" viewBox="0 0 32 33" version="1.1" xmlns="http://www.w3.org/2000/svg" xmlns:xlink="http://www.w3.org/1999/xlink">
    <title>Icon/32/Company Types/LLC</title>
    <g id="Icon/32/Company-Types/LLC" stroke="none" stroke-width="1" fill="none" fill-rule="evenodd">
        <g id="llc-ico" transform="translate(0.000000, 0.790000)">
            <circle id="Oval" fill="#DEF2FA" cx="14.5" cy="18.5" r="13.5"></circle>
            <circle id="Oval" stroke="#222222" stroke-width="1.5" cx="16" cy="16" r="15.25"></circle>
            <path d="M13.148,19 L13.148,17.848 L10.836,17.848 L10.836,13.336 L9.588,13.336 L9.588,19 L13.148,19 Z M17.444,19 L17.444,17.848 L15.132,17.848 L15.132,13.336 L13.884,13.336 L13.884,19 L17.444,19 Z M20.884,19.144 C21.2733333,19.144 21.652,19.064 22.02,18.904 C22.388,18.744 22.692,18.496 22.932,18.16 L22.932,18.16 L21.892,17.384 C21.764,17.576 21.6013333,17.7253333 21.404,17.832 C21.2066667,17.9386667 20.98,17.992 20.724,17.992 C20.5,17.992 20.2906667,17.9466667 20.096,17.856 C19.9013333,17.7653333 19.732,17.6386667 19.588,17.476 C19.444,17.3133333 19.3306667,17.1213333 19.248,16.9 C19.1653333,16.6786667 19.124,16.4346667 19.124,16.168 C19.124,15.9066667 19.1653333,15.664 19.248,15.44 C19.3306667,15.216 19.4453333,15.0226667 19.592,14.86 C19.7386667,14.6973333 19.912,14.5706667 20.112,14.48 C20.312,14.3893333 20.5293333,14.344 20.764,14.344 C20.9986667,14.344 21.2053333,14.384 21.384,14.464 C21.5626667,14.544 21.7133333,14.6586667 21.836,14.808 L21.836,14.808 L22.796,14.024 C22.6733333,13.8693333 22.5346667,13.7386667 22.38,13.632 C22.2253333,13.5253333 22.064,13.44 21.896,13.376 C21.728,13.312 21.5573333,13.2653333 21.384,13.236 C21.2106667,13.2066667 21.044,13.192 20.884,13.192 C20.4413333,13.192 20.0333333,13.2613333 19.66,13.4 C19.2866667,13.5386667 18.964,13.7373333 18.692,13.996 C18.42,14.2546667 18.208,14.568 18.056,14.936 C17.904,15.304 17.828,15.7146667 17.828,16.168 C17.828,16.6213333 17.904,17.032 18.056,17.4 C18.208,17.768 18.42,18.0813333 18.692,18.34 C18.964,18.5986667 19.2866667,18.7973333 19.66,18.936 C20.0333333,19.0746667 20.4413333,19.144 20.884,19.144 Z" id="LLC" fill="#222222" fill-rule="nonzero" opacity="0.900000036"></path>
        </g>
    </g>
</svg>