<svg xmlns="http://www.w3.org/2000/svg" width="32" height="32" viewBox="0 0 32 32">
    <g fill="none" fill-rule="evenodd">
        <path fill="#E6D7EA" fill-rule="nonzero" d="M29.89 24.42c.003 1.494-.435 2.955-1.26 4.2-2.604 2.075-6.25 2.23-9.021.383-2.77-1.846-4.031-5.27-3.119-8.473.223-.744.56-1.45 1-2.09.604-.488 1.278-.883 2-1.17 2.357-.905 5.008-.593 7.09.836 2.081 1.428 3.327 3.79 3.33 6.314h-.02z" transform="translate(0 1)"/>
        <path fill="#FFF" fill-rule="nonzero" d="M20.48 10.87h-.09c.045-.093.119-.17.21-.22-.061.06-.103.136-.12.22z" transform="translate(0 1)"/>
        <path fill="#E6D7EA" fill-rule="nonzero" d="M20.43 20.23H4.71c-.542.019-1.07-.183-1.46-.56-.39-.378-.61-.897-.61-1.44l-.06-6.17c.08 0 .28-.87.36-.87.64 0 2.47-.79 2.6-1.3l.07-.15c-.38 1.39.88 2.76 2.62 2.76.649-.009 1.285-.18 1.85-.5.53-.25.935-.704 1.12-1.26.185.553.585 1.007 1.11 1.26l.16.08c.522.261 1.097.398 1.68.4 1.75 0 2.82-.85 2.78-2-.615.436-1.357.654-2.11.62h-.48c.846-.361 1.744-.584 2.66-.66.176.455.491.843.9 1.11.498.33 1.083.504 1.68.5.304-.003.606-.043.9-.12-.02.13.52 8.58-.05 8.3z" transform="translate(0 1)"/>
        <path fill="#E6D7EA" fill-rule="nonzero" d="M22.23 9.89c-1.036.906-2.548 1.012-3.7.26-.457-.3-.791-.754-.94-1.28.09.587-.134 1.179-.59 1.56-.904.066-1.792.276-2.63.62-.479-.065-.943-.214-1.37-.44-.525-.25-.924-.706-1.1-1.26-.115.394-.35.743-.67 1-.142.111-.293.212-.45.3-.569.307-1.204.472-1.85.48-1.76 0-3-1.38-2.62-2.79-.004-.05-.004-.1 0-.15l-.55 1.2-.18.4c.019-.078.042-.155.07-.23v-.07c-.138.195-.3.373-.48.53-.478.427-1.09.675-1.73.7-.312.001-.622-.046-.92-.14v1c-.005-.57-.28-1.104-.74-1.44-.454-.362-.707-.92-.68-1.5-.006-.378.114-.747.34-1.05l3.66-5c.338-.457.872-.728 1.44-.73h9.08c.67.004 1.302.318 1.71.85l4.44 6.08c.186.227.307.5.35.79.01.15.12.19.11.31z" transform="translate(0 1)"/>
        <path stroke="#1D1D1B" stroke-linecap="round" stroke-linejoin="round" stroke-width="1.4" d="M17.56 8.66c.182.603.528 1.143 1 1.56.464.465 1.084.743 1.74.78.312.001.622-.046.92-.14.982-.278 1.69-1.134 1.78-2.15.016-.303-.031-.606-.14-.89L18.24 1l-.46-.67H5.94L.84 7.82c-.11.283-.155.587-.13.89.106 1.003.817 1.837 1.79 2.1.298.094.608.141.92.14.652-.026 1.273-.285 1.75-.73.477-.413.824-.954 1-1.56" transform="translate(0 1)"/>
        <path stroke="#1D1D1B" stroke-linecap="round" stroke-linejoin="round" stroke-width="1.4" d="M17.42 8.27c.59 1.55-.72 3.14-2.58 3.14h0c-1.28 0-2.81-.46-3-3.14 0 0-.3 3.31-2.93 3.14h0c-.815.083-1.618-.245-2.141-.875-.524-.63-.7-1.479-.469-2.265M16.49 20.53L3.04 20.53 3.04 10.95M21.13 11.22L21.1 15.48M18.88 22.65L28.84 22.62M23.87 17.65L23.85 27.62M31.52 22.63c.035 3.013-1.7 5.767-4.433 7.037-2.733 1.269-5.957.818-8.237-1.153-2.28-1.972-3.191-5.096-2.33-7.984.223-.744.56-1.45 1-2.09 1.851-2.844 5.352-4.131 8.605-3.163 3.252.967 5.48 3.96 5.475 7.353h-.08z" transform="translate(0 1)"/>
    </g>
</svg>
