<?xml version="1.0" encoding="UTF-8"?>
<svg width="32px" height="32px" viewBox="0 0 32 32" version="1.1" xmlns="http://www.w3.org/2000/svg" xmlns:xlink="http://www.w3.org/1999/xlink">
    <title>Icon</title>
    <g id="Page-1" stroke="none" stroke-width="1" fill="none" fill-rule="evenodd">
        <g id="20200406_ICON_ICON-310">
            <path d="M29.4700757,8.77 C29.4644826,11.0222263 28.565329,13.1801952 26.97,14.77 L15.28,26.06 C14.534581,26.7770255 13.4798515,27.0735509 12.47,26.85 L5.59,25.29 L3.8,16.29 C3.67,15.61 3.7,15.5 4.2,15.02 L17.26,2.85 C18.3008285,1.77508287 19.6983463,1.11721822 21.19,1 C23.29,1.06 25.36,1.13 26.97,2.73 C28.5789312,4.3270561 29.4795824,6.50302932 29.4700757,8.77 Z" id="Path" fill="#FFFFFF" fill-rule="nonzero"></path>
            <path d="M31.23,9.41 C31.2244826,11.6622263 30.325329,13.8201952 28.73,15.41 L16.4,27.33 C15.9255181,27.7877812 15.2559039,27.982306 14.61,27.85 L14.19,27.77 L5.59,26.05 L3.8,17.05 C3.66153244,16.3745837 3.8807135,15.6754717 4.38,15.2 L16.67,3.38 C19.1056388,0.945617615 22.7661574,0.214530898 25.9500397,1.52657032 C29.133922,2.83860973 31.2166063,5.93640091 31.23,9.38 L31.23,9.41 Z" id="Path" stroke="#1D1D1B" stroke-width="1.4" stroke-linecap="round" stroke-linejoin="round"></path>
            <line x1="23.39" y1="8.73" x2="0.7" y2="31.3" id="Path" stroke="#1D1D1B" stroke-width="1.4" stroke-linecap="round" stroke-linejoin="round"></line>
            <line x1="13.71" y1="18.66" x2="24.15" y2="19.8" id="Path" stroke="#1D1D1B" stroke-width="1.4" stroke-linecap="round" stroke-linejoin="round"></line>
        </g>
    </g>
</svg>