<svg xmlns="http://www.w3.org/2000/svg" width="32" height="33" viewBox="0 0 32 33">
    <g fill="none" fill-rule="evenodd">
        <path fill="#F9F2D7" fill-rule="nonzero" d="M20.34 31.3H1.28c-.153 0-.3-.061-.407-.17-.107-.11-.166-.257-.163-.41 0-.282.028-.563.08-.84.171-.272.373-.523.6-.75.847-.852 1.999-1.33 3.2-1.33h11.35c2.103-.002 3.929 1.45 4.4 3.5zM28.48 15H12l-.21-12.5h18.15l-5.22 5.23 2.05 2 2.74 2.75c.462.405.615 1.059.383 1.627-.232.569-.8.927-1.413.893z" transform="translate(1 .5)"/>
        <path stroke="#1D1D1B" stroke-linecap="round" stroke-linejoin="round" stroke-width="1.4" d="M10.33 26.2L10.22.86h19.1c.468.012.885.297 1.066.729.18.431.093.928-.226 1.271h0L25 8.05l2 2 3.15 3.17c.348.33.456.842.272 1.285-.184.443-.622.728-1.102.715H10.45" transform="translate(1 .5)"/>
        <path stroke="#1D1D1B" stroke-linecap="round" stroke-linejoin="round" stroke-width="1.4" d="M21.1 30.72c0 .316-.254.575-.57.58H1.28c-.153 0-.3-.061-.407-.17-.107-.11-.166-.257-.163-.41 0-.282.028-.563.08-.84.396-2.138 2.265-3.687 4.44-3.68h11.35c1.199 0 2.348.476 3.196 1.324.848.848 1.324 1.997 1.324 3.196h0z" transform="translate(1 .5)"/>
    </g>
</svg>
