<svg xmlns="http://www.w3.org/2000/svg" width="32" height="32" viewBox="0 0 32 32">
    <g fill="none" fill-rule="evenodd">
        <path fill="#FFF" fill-rule="nonzero" d="M30.76 4.84l-13 19.58c-.102.153-.212.3-.33.44-2.67 3.24-8 1.09-8-3.13v-5.51c.002-.98-.542-1.878-1.41-2.33l-4.83-2.56C1.489 10.446.51 8.604.73 6.7c.574-1.169 1.662-2.001 2.94-2.25.172-.036.345-.063.52-.08L27.57 2c.808-.081 1.612.18 2.219.72.606.54.958 1.308.971 2.12z" transform="translate(0 3)"/>
        <path stroke="#1D1D1B" stroke-linecap="round" stroke-linejoin="round" stroke-width="1.4" d="M30.77 4.82h0l-13 19.58c-.102.153-.212.3-.33.44-2.67 3.24-8 1.09-8-3.13v-5.49c.002-.98-.542-1.878-1.41-2.33l-4.84-2.56C1.489 10.446.51 8.604.73 6.7c.128-1.925 1.529-3.527 3.42-3.91.178-.037.359-.064.54-.08L28.07.35c1.11-.112 2.186.426 2.763 1.381.578.956.553 2.158-.063 3.089z" transform="translate(0 3)"/>
    </g>
</svg>
