<svg xmlns="http://www.w3.org/2000/svg" width="32" height="32" viewBox="0 0 32 32">
    <g fill="none" fill-rule="evenodd">
        <path fill="#FFF" fill-rule="nonzero" d="M29 4.59c-.951-1.425-2.557-2.275-4.27-2.26H3.77c-.905-.005-1.792.256-2.55.75-.335.613-.51 1.301-.51 2v21.79c-.007 1.702.897 3.277 2.37 4.13.808.48 1.73.732 2.67.73h20.51c.812.002 1.614-.186 2.34-.55.184-.09.361-.193.53-.31.416-.702.634-1.504.63-2.32V7.14c.003-.906-.262-1.793-.76-2.55zM11.88 14.81c1.533-1.494 3.931-1.636 5.63-.334 1.7 1.303 2.185 3.655 1.14 5.524-.195.185-.405.353-.63.5-1.66 1.067-3.833.874-5.278-.47-1.445-1.344-1.796-3.497-.852-5.23l-.01.01zm9.26 12.86c-.216.113-.456.172-.7.17h-9.55c-.49.001-.95-.232-1.24-.628-.289-.396-.37-.906-.22-1.372.167-.512.396-1.002.68-1.46 1.59-1.69 3.956-2.412 6.219-1.895 2.262.516 4.082 2.192 4.781 4.405.081.252.091.522.03.78z"/>
        <path stroke="#1D1D1B" stroke-linecap="round" stroke-linejoin="round" stroke-width="1.4" d="M20.77 27.65h-9.55c-.49.003-.95-.231-1.238-.628-.288-.396-.367-.907-.212-1.372.191-.618.478-1.201.85-1.73 1.422-2.049 3.884-3.113 6.351-2.743 2.467.37 4.51 2.107 5.269 4.483.147.467.062.976-.229 1.37-.29.393-.752.623-1.241.62h0z"/>
        <path stroke="#1D1D1B" stroke-linecap="round" stroke-linejoin="round" stroke-width="1.4" d="M31.3 5.51v21.36c-.015 1.597-.83 3.08-2.17 3.95-.169.117-.346.22-.53.31-.726.364-1.528.552-2.34.55H5.75c-.935.017-1.857-.218-2.67-.68-1.473-.853-2.377-2.428-2.37-4.13V5.09c0-.699.175-1.387.51-2 0 0 0 0 0 0C2.045 1.607 3.613.69 5.31.7h21c1.703.01 3.288.874 4.22 2.3.495.744.762 1.616.77 2.51z"/>
        <path stroke="#1D1D1B" stroke-linecap="round" stroke-linejoin="round" stroke-width="1.4" d="M20.32 16.69c-.003 1.472-.757 2.841-2 3.63-.69.448-1.497.684-2.32.68-2.386 0-4.32-1.934-4.32-4.32s1.934-4.32 4.32-4.32 4.32 1.934 4.32 4.32v.01zM.78 7.47L31.3 7.47"/>
        <circle cx="6.48" cy="4.2" r="1" fill="#1D1D1B" fill-rule="nonzero"/>
        <circle cx="8.93" cy="4.2" r="1" fill="#1D1D1B" fill-rule="nonzero"/>
        <circle cx="11.37" cy="4.2" r="1" fill="#1D1D1B" fill-rule="nonzero"/>
    </g>
</svg>
