<svg width="28" height="31" viewBox="0 0 28 31" fill="none" xmlns="http://www.w3.org/2000/svg">
<path d="M26.34 19.2299L15.34 20.7999C15.032 20.8423 14.7809 21.068 14.706 21.3698C14.6311 21.6715 14.7476 21.9884 15 22.1699L18.56 24.6999C18.7246 24.8197 18.8359 24.9992 18.87 25.1999C19.01 26.0199 19.59 28.0999 20.02 29.5899C20.0964 29.8701 20.3357 30.0754 20.6242 30.1085C20.9127 30.1415 21.1922 29.9955 21.33 29.7399C22.79 27.1099 25.77 21.7399 26.76 19.8399C26.831 19.7023 26.8205 19.5367 26.7327 19.4091C26.6449 19.2815 26.4939 19.2127 26.34 19.2299Z" fill="white"/>
<path d="M21.55 16.7399C20.702 19.1394 19.0573 21.1759 16.89 22.5099C11.4927 24.9253 5.1478 22.7245 2.40537 17.4858C-0.337058 12.2472 1.46972 5.77899 6.53 2.71988C8.45979 1.87782 10.5889 1.60042 12.67 1.91988C13.3824 2.02215 14.0827 2.19637 14.76 2.43988C15.09 2.55988 15.41 2.68988 15.76 2.82988C20.9944 5.27423 23.514 11.2962 21.58 16.7399H21.55Z" fill="white"/>
<path d="M15.8 22.7299C13.4891 23.5739 10.9591 23.6022 8.63 22.8099C2.80985 20.7392 -0.231248 14.3438 1.83611 8.52246C3.90346 2.70111 10.2971 -0.343678 16.1196 1.72031C21.9421 3.78431 24.9906 10.1762 22.93 15.9999C22.4222 17.4903 21.6004 18.8544 20.52 19.9999" stroke="#1D1D1B" stroke-width="1.4" stroke-linecap="round" stroke-linejoin="round"/>
<path d="M3.9 23.6799C7.01607 26.594 11.5133 27.4927 15.51 25.9999" stroke="#1D1D1B" stroke-width="1.4" stroke-linecap="round" stroke-linejoin="round"/>
<path d="M22.48 8.75977L20.67 10.0698C19.9652 10.5779 18.9824 10.4215 18.47 9.71977L18.41 9.61977C17.9281 8.96645 17.0314 8.78109 16.33 9.18977L14.57 10.1898C14.258 10.3722 14.0207 10.6591 13.9 10.9998L13.26 12.7298C13.0829 13.2167 13.1558 13.7595 13.455 14.1824C13.7543 14.6054 14.2419 14.8547 14.76 14.8498H14.84C15.5543 14.8409 16.1856 15.3124 16.38 15.9998V15.9998C16.537 16.5732 17.0062 17.0075 17.59 17.1198L18.17 17.2398C18.8203 17.3639 19.3214 17.8851 19.42 18.5398L19.66 20.0598" stroke="#1D1D1B" stroke-width="1.4" stroke-linecap="round" stroke-linejoin="round"/>
<path d="M8.86 2.25977L10.26 3.63977C10.3809 3.76243 10.4491 3.92751 10.45 4.09977V7.21977C10.4493 7.50497 10.2627 7.7564 9.99 7.83977L8.94 8.14977C8.23533 8.35687 7.50447 8.46128 6.77 8.45977C5.95 8.45977 5.46 10.4598 5.18 11.1398C5.08361 11.3356 5.01624 11.5445 4.98 11.7598C4.87 12.8198 5.65 14.1098 5.98 15.0998C6.31 16.0898 6.53 17.4398 5.51 18.1598C5.38 18.2598 3.73 19.3598 3.71 19.3198" stroke="#1D1D1B" stroke-width="1.4" stroke-linecap="round" stroke-linejoin="round"/>
<path fill-rule="evenodd" clip-rule="evenodd" d="M26.34 19.2299L15.34 20.7999C15.032 20.8423 14.7809 21.068 14.706 21.3698C14.6311 21.6715 14.7476 21.9884 15 22.1699L18.56 24.6999C18.7246 24.8197 18.8359 24.9992 18.87 25.1999C19.01 26.0199 19.59 28.0999 20.02 29.5899C20.0964 29.8701 20.3357 30.0754 20.6242 30.1085C20.9127 30.1415 21.1922 29.9955 21.33 29.7399C22.79 27.1099 25.77 21.7399 26.76 19.8399C26.831 19.7023 26.8205 19.5367 26.7327 19.4091C26.6449 19.2815 26.4939 19.2127 26.34 19.2299V19.2299Z" stroke="#1D1D1B" stroke-width="1.4" stroke-linecap="round" stroke-linejoin="round"/>
</svg>
