<svg xmlns="http://www.w3.org/2000/svg" width="32" height="32" viewBox="0 0 32 32">
    <g fill="none" fill-rule="evenodd">
        <g>
            <g transform="translate(-319 -1445) translate(319 1445)">
                <circle cx="15" cy="17" r="12" fill="#FFF"/>
                <path fill="#1D1D1D" fill-rule="nonzero" d="M15.75 1.5C23.62 1.5 30 7.88 30 15.75S23.62 30 15.75 30 1.5 23.62 1.5 15.75 7.88 1.5 15.75 1.5zm0 1.5C8.708 3 3 8.708 3 15.75S8.708 28.5 15.75 28.5 28.5 22.792 28.5 15.75 22.792 3 15.75 3zm0 3c5.385 0 9.75 4.365 9.75 9.75s-4.365 9.75-9.75 9.75S6 21.135 6 15.75 10.365 6 15.75 6zm0 1.5c-4.556 0-8.25 3.694-8.25 8.25S11.194 24 15.75 24 24 20.306 24 15.75 20.306 7.5 15.75 7.5zm0 3c2.9 0 5.25 2.35 5.25 5.25S18.65 21 15.75 21s-5.25-2.35-5.25-5.25 2.35-5.25 5.25-5.25zm0 1.5C13.679 12 12 13.679 12 15.75c0 2.071 1.679 3.75 3.75 3.75 2.071 0 3.75-1.679 3.75-3.75 0-2.071-1.679-3.75-3.75-3.75z"/>
                <path fill="#1D1D1D" fill-rule="nonzero" d="M28.06 4.5L16.28 16.28c-.293.293-.767.293-1.06 0-.293-.293-.293-.767 0-1.06L27 3.44V.75c0-.414.336-.75.75-.75s.75.336.75.75V3h2.25c.414 0 .75.336.75.75s-.336.75-.75.75h-2.69z"/>
            </g>
        </g>
    </g>
</svg>
