<svg xmlns="http://www.w3.org/2000/svg" width="32" height="32" viewBox="0 0 32 32">
    <g fill="none" fill-rule="evenodd">
        <path d="M0 0H32V32H0z"/>
        <path fill="#F44336" fill-rule="nonzero" d="M30 14L26.5 14 26.5 10.5 24.75 10.5 24.75 14 21.25 14 21.25 15.75 24.75 15.75 24.75 19.25 26.5 19.25 26.5 15.75 30 15.75zM10.75 17.5h4.95c-.722 2.037-2.668 3.5-4.95 3.5-2.894 0-5.25-2.355-5.25-5.25s2.356-5.25 5.25-5.25c1.255 0 2.462.45 3.4 1.267l2.3-2.639C14.875 7.756 12.852 7 10.75 7 5.925 7 2 10.925 2 15.75s3.925 8.75 8.75 8.75 8.75-3.925 8.75-8.75V14h-8.75v3.5z"/>
    </g>
</svg>
