<svg height="32" viewBox="0 0 32 32" width="32" xmlns="http://www.w3.org/2000/svg"><g fill="none" fill-rule="evenodd" transform="translate(2 1)"><path d="m24.64 1.77993295h-7.64c-.8314786-.00446125-1.6480942.22045407-2.36.65006705-.3197867.18232282-.6154298.40405513-.88.66-.291691.26912348-.5471644.57501925-.76.91-.153353.25709645-.4306411.41456918-.73.41456918s-.576647-.15747273-.73-.41456918c-.8658281-1.37034971-2.37910859-2.19508758-4-2.18h-6.54c-.28905809.00017258-.57615549.04745921-.85.14-.08101746.2588824-.12149618.52874055-.12004001.8v18.14c0 1.4911688 1.20887119 2.7 2.70004001 2.7h7.09c.9224997-.0232453 1.8374134.1720733 2.67.57.2474849.1454423.5087586.2660302.78.36.4027342.0310915.8072658.0310915 1.21 0 .3073042.0029915.610257-.0727467.88-.22.8482286-.4813213 1.8047825-.7393844 2.78-.75v6.29c-.0042397.1240076.0614397.2399124.17.3l1.36-1.82.21.27 1.52-2 1.66 2.14v-5.14s2.81.54 3-.14c.0810175-.2588824.1214962-.5287406.12004-.8v-19.3c0-.85722464-.6830901-1.55829815-1.54004-1.58006705z" fill="#fff" fill-rule="nonzero"/><g stroke="#1d1d1b" stroke-linecap="round" stroke-linejoin="round" stroke-width="1.4"><path d="m14 24.57v-.41"/><path d="m14 4.7c.0022878-.5498579-.0959954-1.09549912-.29-1.61-.6720967-1.85190539-2.4299101-3.08636976-4.4-3.09h-6.56c-1.1834638-.00046507-2.22934415.76967822-2.58 1.9-.08101746.2588824-.12149618.52874055-.12004001.8v18.2c0 1.4911688 1.20887119 2.7 2.70004001 2.7h7.09c.9224997-.0232453 1.8374134.1720733 2.67.57.2474849.1454423.5087586.2660302.78.36.4027342.0310915.8072658.0310915 1.21 0 .3073042.0029915.610257-.0727467.88-.22.8482286-.4813213 1.8047825-.7393844 2.78-.75h7.09c.2890581-.0001726.5761555-.0474592.85-.14 1.1094448-.3438758 1.8746364-1.3587615 1.9000777-2.52v-18.18c.0054425-.7282943-.2834979-1.4279303-.8013113-1.94009475-.5178133-.51216445-1.2205765-.79341349-1.9487664-.77990525h-6.57c-1.7004203-.00119319-3.2670987.9219596-4.09 2.41-.3928673.69887504-.5962548 1.48829437-.59 2.29"/><path d="m18.16 23.6v6.29c-.0042397.1240076.0614397.2399124.17.3.0738889.0541412.1664979.0761775.2568531.0611184.0903551-.0150592.1708113-.0659398.2231469-.1411184l1.09-1.47 1.52-2 1.66 2.14 1.08 1.4c.0928942.1263728.2569152.1780602.4054785.1277773.1485632-.050283.2474752-.1909631.2445859-.3477773v-6.36"/></g></g></svg>