<svg xmlns="http://www.w3.org/2000/svg" width="32" height="32" viewBox="0 0 32 32">
    <g fill="none" fill-rule="evenodd">
        <path fill="#FCE7D0" fill-rule="nonzero" d="M24.53 22.71c.004 2.938-1.018 5.785-2.89 8.05-.19.18-.39.36-.6.53H5c-5.387-4.422-6.183-12.368-1.78-17.77.38-.365.787-.7 1.22-1 .76-.56 1.582-1.03 2.45-1.4 1.58-.674 3.282-1.014 5-1 1.717-.007 3.418.333 5 1 .864.378 1.686.847 2.45 1.4 3.253 2.377 5.18 6.161 5.19 10.19z" transform="translate(3)"/>
        <path fill="#FCE7D0" fill-rule="nonzero" d="M22 8.57l-1.59 2.74c-.753-.548-1.561-1.017-2.41-1.4l.91-1.57c1.33-2.29.92-5.16-3-5.16h-5.9c-4.38 0-4.29 2.87-3 5.16L8 9.91c-.866.374-1.688.843-2.45 1.4L4 8.57c-.93-1.615-.934-3.603-.01-5.222C4.912 1.728 6.625.721 8.49.7h9c1.868.014 3.587 1.02 4.516 2.64.928 1.62.926 3.612-.006 5.23z" transform="translate(3)"/>
        <path stroke="#1D1D1B" stroke-linecap="round" stroke-linejoin="round" stroke-width="1.4" d="M25.63 21.53c.004 3.044-1.09 5.987-3.08 8.29-.798.931-1.963 1.468-3.19 1.47H6.63c-1.132.027-2.222-.428-3-1.25-4.217-4.64-4.4-11.668-.43-16.52.681-.831 1.464-1.574 2.33-2.21.765-.562 1.594-1.032 2.47-1.4 1.581-.67 3.283-1.011 5-1 1.717-.004 3.417.336 5 1 .86.385 1.681.854 2.45 1.4 3.258 2.386 5.182 6.182 5.18 10.22z" transform="translate(3)"/>
        <path stroke="#1D1D1B" stroke-linecap="round" stroke-linejoin="round" stroke-width="1.4" d="M22 8.57l-1.58 2.75c-.755-.551-1.566-1.02-2.42-1.4-1.582-.667-3.283-1.007-5-1-1.718-.014-3.42.326-5 1-.868.37-1.69.84-2.45 1.4L4 8.57c-.938-1.616-.944-3.61-.017-5.231C4.911 1.717 6.632.71 8.5.7h9c1.868.011 3.59 1.017 4.517 2.639.927 1.622.92 3.615-.017 5.231h0zM11.08 17.7L14.92 17.7 11.56 24.49" transform="translate(3)"/>
        <path stroke="#1D1D1B" stroke-linecap="round" stroke-linejoin="round" stroke-width="1.4" d="M18.91 8.34L18 9.92c-1.582-.667-3.283-1.007-5-1-1.718-.014-3.42.326-5 1l-.9-1.58c-1.33-2.29-1.42-5.15 3-5.15H16c3.83 0 4.24 2.86 2.91 5.15z" transform="translate(3)"/>
    </g>
</svg>
