<svg xmlns="http://www.w3.org/2000/svg" width="32" height="32" viewBox="0 0 32 32">
    <g fill="none" fill-rule="evenodd">
        <path fill="#FFF" fill-rule="nonzero" d="M25.09 4.76L31.17 17.98 31.06 18.04 25.46 5.88 24.97 4.81z" transform="translate(0 4)"/>
        <path fill="#F9F2D7" fill-rule="nonzero" d="M30.5 2.27l-5.4 2.48L31.18 18l.12-.06V2.18c-.27-.06-.55-.028-.8.09zM24.68 4.88l-9 2.66c-.835.242-1.733.138-2.49-.29L7.3 4.68l-.49-.21-5.52-2.54c-.192-.086-.4-.13-.61-.13v16l.5.22 12.44 5.68c.18.08 2.88 1.05 3.07 1.08.73.17 5.74-2.15 7.89-3.17l.33-1.52.06-.3.52-2.4c.52-2.92 1-3.28-.86-4.4l-2.16-.93c-1.07-.469-2.266-.57-3.4-.29l-5.28 1.29c-.607.193-1.267.135-1.83-.162-.565-.297-.986-.808-1.17-1.418.22.73 1.2.57 2.22.24.057.004.113.004.17 0l5.44-1.33L18 10l2-.71 7.05 3.25-1.62 8.66.13-.06 5.5-3.1-5.6-12.16c-.178-.39-.445-.732-.78-1z" transform="translate(0 4)"/>
        <path stroke="#1D1D1B" stroke-linecap="round" stroke-linejoin="round" stroke-width="1.4" d="M8 3.26l-.7 1.42L1.18 18l-.5-.22V1.28C1.026.67 1.78.423 2.42.71L8 3.26zM31.3.86v17.05l-.12.06L25.1 4.75l-.69-1.49L29.93.71c.45-.2.974-.143 1.37.15h0zM25.56 21.14l5.5-3.1.11-.06-6.08-13.22-.2-.43c-.177-.388-.44-.73-.77-1l-11.94 3.5-.31.09c-.612.183-1.127.602-1.43 1.165-.301.563-.366 1.224-.18 1.835.093.303.25.583.46.82h0c.456.537 1.125.848 1.83.85.23 0 .46-.033.68-.1L17.94 10 20 9.28" transform="translate(0 4)"/>
        <path stroke="#1D1D1B" stroke-linecap="round" stroke-linejoin="round" stroke-width="1.4" d="M20 9.28l5.74 2.49c1.81 1.13 1.38 1.49.87 4.41l-1.07 5-.13.06-.85.41c-2.15 1-7.16 3.34-7.89 3.17-.19 0-2.89-1-3.07-1.08L1.18 18 7.3 4.68 8 3.26 14.27 6" transform="translate(0 4)"/>
        <path stroke="#1D1D1B" stroke-linecap="round" stroke-linejoin="round" stroke-width="1.4" d="M4.25 19.32L5.87 16c.276-.574.786-1 1.4-1.169.613-.168 1.27-.063 1.8.289l6.63 4.39c.89.584 1.232 1.723.81 2.7l-.71 1.69" transform="translate(0 4)"/>
    </g>
</svg>
