<svg xmlns="http://www.w3.org/2000/svg" width="32" height="33" viewBox="0 0 32 33">
    <g fill="none" fill-rule="evenodd">
        <path fill="#FCE7D0" fill-rule="nonzero" d="M23.23 11.1v19.84c.002.123-.018.245-.06.36H11.05c-.644-.047-1.142-.584-1.14-1.23v-2.53c0-4.74-4.85-6.74-8.09-9.14-.703-.42-1.13-1.182-1.12-2-.01-.54.163-1.07.49-1.5.216-.03.434-.03.65 0 .68.123 1.335.356 1.94.69.89.38 1.79.73 2.69 1.07.38.14.65-.32.83-1.14l.69.26c1.79.67 1-11.95 1.25-13.51.022-.188.076-.37.16-.54.508.007 1.005.149 1.44.41 2.87 1.69 9.29 4.6 9.29 4.6l3.1 4.36z" transform="translate(0 .5)"/>
        <path stroke="#1D1D1B" stroke-linecap="round" stroke-linejoin="round" stroke-width="1.4" d="M24.74 12.89v17.17c0 .685-.555 1.24-1.24 1.24H11.05c-.644-.047-1.142-.584-1.14-1.23v-2.53c0-4.74-4.85-6.74-8.09-9.14-.703-.42-1.13-1.182-1.12-2-.014-.687.271-1.347.782-1.808.51-.46 1.196-.676 1.878-.592.676.124 1.328.357 1.93.69.667.28 1.333.55 2 .81l.69.26c1.79.67 1-11.95 1.25-13.51.022-.188.076-.37.16-.54.5-1.08 1.95-1 3-.46C15.23 3 23.74 6.87 23.74 6.87" transform="translate(0 .5)"/>
        <path fill="#1D1D1B" fill-rule="nonzero" d="M24.74 16.65c-.381.017-.708-.27-.74-.65 0-5.68-.84-6.67-5.67-6.67-.387 0-.7-.313-.7-.7 0-.387.313-.7.7-.7 4.83 0 5.67-1 5.67-6.67 0-.387.313-.7.7-.7.387 0 .7.313.7.7 0 5.67.85 6.67 5.68 6.67.387 0 .7.313.7.7 0 .387-.313.7-.7.7-4.83 0-5.68 1-5.68 6.67-.025.352-.308.63-.66.65zm-2-8.07c.922.418 1.641 1.184 2 2.13.364-.943 1.081-1.708 2-2.13-.918-.429-1.634-1.196-2-2.14-.354.942-1.06 1.71-1.97 2.14h-.03z" transform="translate(0 .5)"/>
    </g>
</svg>
