<svg xmlns="http://www.w3.org/2000/svg" width="40" height="41" viewBox="0 0 40 41">
    <path fill="#FD8550" d="M27.54 14.556c-.93-1.009-2.206-1.564-3.594-1.564-1.037 0-1.986.327-2.822.974-.422.326-.805.725-1.142 1.191-.336-.465-.719-.865-1.14-1.191-.837-.647-1.786-.974-2.823-.974-1.388 0-2.664.555-3.594 1.564-.919.996-1.425 2.358-1.425 3.834 0 1.52.566 2.91 1.782 4.377 1.087 1.312 2.65 2.644 4.46 4.187.618.527 1.319 1.124 2.046 1.76.192.168.439.26.694.26.256 0 .503-.092.695-.26.727-.636 1.428-1.234 2.046-1.76 1.81-1.543 3.373-2.875 4.46-4.187 1.216-1.466 1.782-2.857 1.782-4.377 0-1.476-.506-2.838-1.425-3.834z"/>
</svg>
