<svg xmlns="http://www.w3.org/2000/svg" width="32" height="33" viewBox="0 0 32 33">
    <g fill="none" fill-rule="evenodd" opacity=".75">
        <path fill="#F9F2D7" fill-rule="nonzero" d="M19 2.2H2.11c-.605-.002-1.202.142-1.74.42-.254.534-.381 1.119-.37 1.71v22.88c0 1.024.407 2.006 1.13 2.73.724.723 1.706 1.13 2.73 1.13h16.31c.602.002 1.196-.142 1.73-.42.269-.534.41-1.123.41-1.72V5.47c-.003-.873-.353-1.71-.975-2.324-.621-.613-1.462-.954-2.335-.946zM16.92 13c-.61.65-3.14 2.75-4.41 3.81-.195.169-.461.229-.71.16-.123-.02-.238-.076-.33-.16-1.15-1-3.84-3.22-4.41-3.81-.967-.99-1.3-2.438-.86-3.75.042-.283.112-.561.21-.83.079-.221.183-.433.31-.63.043-.01.087-.01.13 0 .093-.01.187-.01.28 0C7.627 7.294 8.298 7.011 9 7c.97.019 1.866.526 2.38 1.35.21-.145.44-.263.68-.35.269-.115.558-.176.85-.18.056-.01.114-.01.17 0 .51-.512 1.198-.805 1.92-.82 1.28.048 2.39.903 2.76 2.13.513 1.342.183 2.861-.84 3.87z" transform="translate(4 .5)"/>
        <path fill="#F9F2D7" fill-rule="nonzero" d="M16.92 13c-.61.65-3.14 2.75-4.41 3.81-.195.169-.461.229-.71.16-.123-.02-.238-.076-.33-.16-1.15-1-3.84-3.22-4.41-3.81-.967-.99-1.3-2.438-.86-3.75-.157 1.173.234 2.353 1.06 3.2.6.61 3.4 3 4.6 4 .096.086.214.144.34.17 1.21-1 2.47-2.11 2.9-2.56 1.077-1.056 1.43-2.648.9-4.06-.409-1.274-1.573-2.154-2.91-2.2.51-.502 1.194-.788 1.91-.8 1.28.048 2.39.903 2.76 2.13.513 1.342.183 2.861-.84 3.87z" transform="translate(4 .5)"/>
        <path fill="#F9F2D7" fill-rule="nonzero" d="M11.38 8.38c-.386.281-.707.643-.94 1.06-.099.169-.28.273-.475.273-.196 0-.376-.104-.475-.273-.474-.895-1.355-1.504-2.36-1.63C7.624 7.307 8.295 7.016 9 7c.976.025 1.873.545 2.38 1.38z" transform="translate(4 .5)"/>
        <path stroke="#1D1D1B" stroke-linecap="round" stroke-linejoin="round" stroke-width="1.4" d="M24 4.56v22.88c0 1.455-.82 2.786-2.12 3.44-.538.278-1.135.422-1.74.42H3.83C1.71 31.284 0 29.56 0 27.44V4.56c.003-.593.14-1.177.4-1.71C1.046 1.543 2.372.712 3.83.7h16.34C22.29.716 24 2.44 24 4.56zM13.7 26.15L18.79 26.15" transform="translate(4 .5)"/>
        <path stroke="#1D1D1B" stroke-linecap="round" stroke-linejoin="round" stroke-width="1.4" d="M16.93 13c-.62.64-3.15 2.75-4.41 3.81-.197.165-.463.222-.71.15-.125-.018-.242-.07-.34-.15-1.15-1-3.84-3.23-4.41-3.81-1.196-1.19-1.412-3.048-.52-4.48C7.034 7.614 7.97 7.037 9 7c1.064.04 2.027.642 2.53 1.58.03.052.07.097.12.13.117.102.273.146.426.12.152-.025.286-.116.364-.25h0C12.937 7.622 13.92 7.015 15 7c1.279.058 2.385.909 2.77 2.13.508 1.343.179 2.858-.84 3.87h0z" transform="translate(4 .5)"/>
    </g>
</svg>
