<svg xmlns="http://www.w3.org/2000/svg" width="16" height="16" viewBox="0 0 16 16">
    <g fill="none" fill-rule="evenodd">
        <g fill="#5089FD">
            <g>
                <g>
                    <g>
                        <g>
                            <g>
                                <path d="M8 0c4.422 0 8 3.578 8 8 0 4.422-3.578 8-8 8-4.422 0-8-3.578-8-8 0-4.422 3.578-8 8-8zm0 2C4.692 2 2 4.692 2 8s2.692 6 6 6 6-2.692 6-6-2.692-6-6-6zm-.2 8.5c.443 0 .811.369.811.81 0 .433-.358.812-.81.812-.454 0-.801-.38-.801-.811 0-.442.358-.811.8-.811zm.1-6.517c1.348 0 2.243.748 2.243 1.738s-.895 1.706-1.18 1.927c-.578.453-.589.769-.589 1.316 0 .2-.105.432-.621.432-.432 0-.58-.158-.58-.706 0-.905.4-1.337.706-1.6.348-.295.937-.621.937-1.19 0-.484-.42-.716-.947-.716-1.075 0-.843.81-1.412.81-.284 0-.631-.189-.631-.6 0-.568.653-1.41 2.074-1.41z" transform="translate(-698 -1132) translate(3 685) translate(255 13) translate(400) translate(40 430) translate(0 4)"/>
                            </g>
                        </g>
                    </g>
                </g>
            </g>
        </g>
    </g>
</svg>
