<svg height="32" viewBox="0 0 32 32" width="32" xmlns="http://www.w3.org/2000/svg"><g fill="none" fill-rule="evenodd" transform="translate(1)"><path d="m25.57 22.47c.0396233.2618428.0396233.5281572 0 .79-.168952.1323637-.3537017.2432135-.55.33l-13.97 7.11c-.74.33-2.62.88-3 .13l-6.33-15.29 4.61-2.54c1.15967491-.5778525 1.94136183-1.7107321 2.07-3 .07-.65.13-1 .13-1.38v-3.82c-.02804945-1.01808057.77205643-1.86735497 1.79-1.9.5431887.00770554 1.0611093.23069912 1.44.62.3926291.39220277.6122463.92504453.61 1.48l-.08 4.4c-.0051496.5533936.272553 1.0711266.7364236 1.3729463.4638705.3018197 1.0497185.3459602 1.5535764.1170537l12.88-5.89c2.24-.69 2.6.43 2.86 2.48l-5.89 3.76z" fill="#fff" fill-rule="nonzero"/><g stroke="#1d1d1b" stroke-linecap="round" stroke-linejoin="round" stroke-width="1.4"><path d="m5.35 11.13 7.83 18.4-3.65 1.65c-.36304811.169281-.778723.1863181-1.15440662.0473152-.37568362-.139003-.68016206-.4224968-.84559338-.7873152 0 0-6.61-15.78-6.62-15.82-.25587353-.7227837.08263136-1.5213081.78-1.84z"/><path d="m8.71 25.74 1.4 3.09"/><path d="m5.35 11.13 3.51-2.41.25-5.72c.07535054-1.33368354 1.2051711-2.36119747 2.54-2.31.6490824.02339398 1.2620514.30461074 1.7031424.78136434.4410909.4767536.6738981 1.10969497.6468576 1.75863566v4.61c-.0005345.30061991.1524274.58071298.4056314.74276351.2532039.16205052.5716119.18363417.8443686.05723649l12-5.4c1.2274357-.54876037 2.6692931-.03286644 3.27 1.17.39.86.5 2.28-.19 2.94s-5.94 3.54-5.89 3.91l1.31 10.38c.111844 1.0656687-.3531874 2.1100835-1.22 2.74-.1655868.1398037-.3509214.2543742-.55.34l-12.08 5.4"/></g></g></svg>