<svg xmlns="http://www.w3.org/2000/svg" width="32" height="32" viewBox="0 0 32 32">
    <g fill="none" fill-rule="evenodd">
        <g>
            <g>
                <g>
                    <g>
                        <g transform="translate(-879 -2657) translate(0 602) translate(855 2031) translate(24 24) translate(0 2)">
                            <path fill="#FFF" fill-rule="nonzero" d="M28.38 17.68H17.73c-.645.016-1.269-.23-1.73-.68-1.82-1.77-3.76-2.32-6.51-2.32-2.377.006-4.676.853-6.49 2.39l-.22.25c-.908 1.668-1.437 3.515-1.55 5.41-.02.334.101.66.333.902.231.24.553.374.887.368h10.22l-.1 1.54c-.04 1.25.93 2.3 2.18 2.36h13.7c.788-.114 1.348-.827 1.27-1.62V19c-.016-.73-.61-1.315-1.34-1.32zm-8.5 7.74h-4.49v-4.49h4.49v4.49zM15.78 8.13c.004 1.339-.424 2.643-1.22 3.72-1.015.658-2.2 1.006-3.41 1-2.366-.004-4.53-1.337-5.596-3.45-1.067-2.111-.856-4.644.546-6.55 1.011-.659 2.193-1.006 3.4-1 1.666 0 3.263.662 4.44 1.84 1.178 1.177 1.84 2.774 1.84 4.44z"/>
                            <circle cx="10.73" cy="6.98" r="6.28" stroke="#1D1D1B" stroke-linecap="round" stroke-linejoin="round" stroke-width="1.4"/>
                            <path stroke="#1D1D1B" stroke-linecap="round" stroke-linejoin="round" stroke-width="1.4" d="M12.23 23.46H2.42c-.52-.004-1.01-.24-1.336-.646-.326-.405-.452-.935-.344-1.444.284-1.33.828-2.59 1.6-3.71 1.902-2.758 5.04-4.403 8.39-4.4 2.564.02 5.029.998 6.91 2.74"/>
                            <path stroke="#1D1D1B" stroke-linecap="round" stroke-linejoin="round" stroke-width="1.4" d="M31.3 18.37v7.87c0 1.244-1.006 2.254-2.25 2.26H14.48c-1.244-.006-2.25-1.016-2.25-2.26v-7.87c.005-1.24 1.01-2.245 2.25-2.25h14.57c1.24.005 2.245 1.01 2.25 2.25zM22.82 23.17L27.25 23.17"/>
                            <path stroke="#1D1D1B" stroke-linecap="round" stroke-linejoin="round" stroke-width="1.4" d="M15.39 20.92H19.880000000000003V25.410000000000004H15.39z"/>
                        </g>
                    </g>
                </g>
            </g>
        </g>
    </g>
</svg>
