<svg xmlns="http://www.w3.org/2000/svg" width="32" height="33" viewBox="0 0 32 33">
    <g fill="none" fill-rule="evenodd">
        <g>
            <g>
                <g>
                    <g>
                        <g transform="translate(-779 -2235) translate(0 602) translate(755 168) translate(0 1442) translate(24 24)">
                            <path fill="#FFF" fill-rule="nonzero" d="M30.31 24.3c.004 1.253-.265 2.492-.79 3.63-2.271 2.993-6.2 4.202-9.76 3.003-3.562-1.198-5.96-4.536-5.96-8.293 0-1.257.272-2.5.8-3.64 2.275-2.986 6.2-4.188 9.757-2.988 3.557 1.2 5.952 4.534 5.953 8.288z"/>
                            <path fill="#FFF" fill-rule="nonzero" d="M18.2 24H2.45c-.34-.004-.663-.15-.89-.403-.229-.252-.34-.588-.31-.927.108-1.872.623-3.698 1.51-5.35.067-.095.148-.179.24-.25 2.706-2.272 6.401-2.966 9.747-1.832 3.346 1.135 5.857 3.933 6.623 7.382.049.342-.051.69-.275.953-.224.264-.55.419-.895.427zM15.78 8.13c.004 1.339-.424 2.643-1.22 3.72-1.015.658-2.2 1.006-3.41 1-2.366-.004-4.53-1.337-5.596-3.45-1.067-2.111-.856-4.644.546-6.55 1.011-.659 2.193-1.006 3.4-1 1.666 0 3.263.662 4.44 1.84 1.178 1.177 1.84 2.774 1.84 4.44z"/>
                            <circle cx="10.73" cy="6.98" r="6.28" stroke="#1D1D1B" stroke-linecap="round" stroke-linejoin="round" stroke-width="1.4"/>
                            <path stroke="#1D1D1B" stroke-linecap="round" stroke-linejoin="round" stroke-width="1.4" d="M13.84 23.46H2.42c-.52-.004-1.01-.24-1.336-.646-.326-.405-.452-.935-.344-1.444.284-1.33.828-2.59 1.6-3.71 1.902-2.758 5.04-4.403 8.39-4.4 2.255.057 4.44.792 6.27 2.11M25.1 18.53L20 26.85"/>
                            <circle cx="26.07" cy="25.51" r="1.34" stroke="#1D1D1B" stroke-linecap="round" stroke-linejoin="round" stroke-width="1.4"/>
                            <circle cx="19.03" cy="19.41" r="1.34" stroke="#1D1D1B" stroke-linecap="round" stroke-linejoin="round" stroke-width="1.4"/>
                            <path stroke="#1D1D1B" stroke-linecap="round" stroke-linejoin="round" stroke-width="1.4" d="M31.3 22.64c0 3.126-1.668 6.015-4.375 7.578-2.707 1.563-6.043 1.563-8.75 0S13.8 25.766 13.8 22.64c0-1.257.272-2.5.8-3.64 1.716-3.733 5.799-5.77 9.813-4.894 4.015.875 6.88 4.425 6.887 8.534h0z"/>
                        </g>
                    </g>
                </g>
            </g>
        </g>
    </g>
</svg>
