<svg xmlns="http://www.w3.org/2000/svg" width="32" height="32" viewBox="0 0 32 32">
    <g fill="none" fill-rule="evenodd">
        <g>
            <g>
                <g>
                    <g>
                        <path fill="#FFF" fill-rule="nonzero" d="M5.6 20.37L3.65 25l5-1.65-6.98 7.75 9.78-4.88c1.505-1.633 1.454-4.163-.117-5.733-1.57-1.57-4.1-1.622-5.733-.117z" transform="translate(-879 -1545) translate(0 602) translate(855 919) translate(24 24)"/>
                        <path fill="#F9F2D7" fill-rule="nonzero" d="M11.78 20.15c.985.971 1.41 2.376 1.13 3.73l-.27-.26-.76-.77-.42-.42-1.16-1.15-1-1-1.11-1.1-.08-.08-.05-.1c1.354-.264 2.75.168 3.72 1.15z" transform="translate(-879 -1545) translate(0 602) translate(855 919) translate(24 24)"/>
                        <path fill="#FFF" fill-rule="nonzero" d="M29.24 2.64L29 7l.22 2.78L24.61 14s-.1.25-.41 1.14c-.7 2-1.86 5.7-1.81 7.73.05 2.03.48 4.13-.19 6.13-.127.37-.284.727-.47 1.07l-7.89-7.87-1.77-1.76-.29-.29-.69-.69-1.37-1.38L.79 9s.43-.33 1-.68c1.923-.549 3.922-.788 5.92-.71 3.188-.17 6.36-.571 9.49-1.2l.48-.48 3.62-3.62.28.28-.06-.5h1L24 2l4.33-.22c.237-.014.468.07.64.234.173.162.27.389.27.626z" transform="translate(-879 -1545) translate(0 602) translate(855 919) translate(24 24)"/>
                        <path stroke="#1D1D1B" stroke-linecap="round" stroke-linejoin="round" stroke-width="1.4" d="M30.44 8.85l-3.94 3.94-2.3 2.3L17.28 22c-.933.929-2.415 1.006-3.44.18l-1.77-1.76-.29-.29-.69-.69-1.37-1.36h0c-.803-1.024-.717-2.487.2-3.41l9-9h0L22.51 2l.56-.56" transform="translate(-879 -1545) translate(0 602) translate(855 919) translate(24 24)"/>
                        <path stroke="#1D1D1B" stroke-linecap="round" stroke-linejoin="round" stroke-width="1.4" d="M26.5 12.79c-.14.36-2.39 6.36-2.32 9.17 0 2.12.47 4.13-.2 6.21-.384.945-.877 1.84-1.47 2.67l-.77-.77-7.9-7.87-1.77-1.76M19 5.58h0l-1.26.34h0c-2.672.766-5.417 1.252-8.19 1.45-2.12 0-4.13-.48-6.21.19-.545.2-1.065.461-1.55.78-.57.35-1 .68-1 .68l8.91 9h0l1.37 1.38M12.91 23.88c-.156.804-.55 1.542-1.13 2.12l-.2.09h0L2 30.86l7-7.71-5 1.65 1.94-4.66c.12-.118.246-.228.38-.33h0c.5-.409 1.095-.687 1.73-.81h0c1.354-.263 2.75.166 3.723 1.143.973.977 1.395 2.374 1.127 3.727l.01.01zM30.67 8.62l-3.51-3.51-3.86-3.86L30.11.9c.243-.011.48.08.652.25.173.171.267.407.258.65l-.35 6.82z" transform="translate(-879 -1545) translate(0 602) translate(855 919) translate(24 24)"/>
                    </g>
                </g>
            </g>
        </g>
    </g>
</svg>
