<svg xmlns="http://www.w3.org/2000/svg" width="32" height="33" viewBox="0 0 32 33">
    <g fill="none" fill-rule="evenodd" opacity=".75">
        <g>
            <g>
                <g transform="translate(-279 -1172) translate(279 1172.5) translate(0 3)">
                    <path fill="#FCE7D0" fill-rule="nonzero" d="M16.73 8.76c.004 1.49-.473 2.942-1.36 4.14-1.132.73-2.453 1.112-3.8 1.1-2.635-.005-5.044-1.49-6.233-3.843-1.189-2.352-.956-5.172.603-7.297 2.156-1.388 4.898-1.487 7.148-.257s3.647 3.593 3.642 6.157zM20 24.57H.9c-.01-2.143.64-4.238 1.86-6 2.838-2.483 6.79-3.25 10.351-2.009 3.56 1.241 6.18 4.3 6.859 8.009H20z"/>
                    <path stroke="#1D1D1B" stroke-linecap="round" stroke-linejoin="round" stroke-width="1.4" d="M14.45 25.18H2.28c-.46-.001-.894-.206-1.188-.56-.293-.353-.415-.818-.332-1.27.259-1.484.84-2.894 1.7-4.13 1.959-2.833 5.185-4.523 8.63-4.52 1.682-.005 3.34.4 4.83 1.18"/>
                    <circle cx="11.08" cy="7.62" r="6.92" stroke="#1D1D1B" stroke-linecap="round" stroke-linejoin="round" stroke-width="1.4"/>
                    <path fill="#FCE7D0" fill-rule="nonzero" d="M26.72 8.94c.002 1.5-.478 2.963-1.37 4.17-1.133.748-2.462 1.145-3.82 1.14-2.663 0-5.1-1.5-6.3-3.878-1.2-2.378-.96-5.228.62-7.372 2.172-1.392 4.931-1.489 7.195-.252C25.31 3.986 26.72 6.36 26.72 8.94zM30.15 24.68H10.58c-.001-2.185.669-4.318 1.92-6.11 1.958-1.718 4.475-2.664 7.08-2.66h.15l-.06.08 1.27 1.31-1.09 1.21 1.55 5.95 1.6-5.95-1.14-1.21.88-.92c3.824 1.17 6.68 4.369 7.41 8.3z"/>
                    <path stroke="#1D1D1B" stroke-linecap="round" stroke-linejoin="round" stroke-width="1.4" d="M29.74 25.18h-17.6c-.46-.002-.895-.207-1.19-.56-.295-.352-.42-.817-.34-1.27.9-5.01 5.266-8.65 10.355-8.635 5.09.015 9.434 3.68 10.305 8.695.067.445-.063.897-.358 1.237-.294.34-.722.535-1.172.533h0z"/>
                    <circle cx="20.94" cy="7.62" r="6.92" stroke="#1D1D1B" stroke-linecap="round" stroke-linejoin="round" stroke-width="1.4"/>
                    <path stroke="#1D1D1B" stroke-linecap="round" stroke-linejoin="round" stroke-width="1.4" d="M22.11 14.7L23.11 15.99 21.86 17.29 22.95 18.51 21.4 24.46 19.85 18.51 20.94 17.29 19.68 15.99 20.69 14.7z"/>
                </g>
            </g>
        </g>
    </g>
</svg>
