<svg xmlns="http://www.w3.org/2000/svg" width="32" height="32" viewBox="0 0 32 32">
    <g fill="none" fill-rule="evenodd">
        <g>
            <g>
                <g transform="translate(-779 -1861) translate(755 1837) translate(24 24)">
                    <rect width="25.579" height="27.474" x="1.789" y="3.684" fill="#FCE7D0" rx="4.737"/>
                    <path fill="#1D1D1D" fill-rule="nonzero" d="M29.68 9.52v-3.6c0-.398-.322-.72-.72-.72H3.04c-.398 0-.72.322-.72.72v3.6h27.36zm1.44-3.6v20.16c0 2.784-2.256 5.04-5.04 5.04H5.92c-2.784 0-5.04-2.256-5.04-5.04V5.92c0-1.193.967-2.16 2.16-2.16h25.92c1.193 0 2.16.967 2.16 2.16zm-28.8 5.04v15.12c0 1.988 1.612 3.6 3.6 3.6h20.16c1.988 0 3.6-1.612 3.6-3.6V10.96H2.32z"/>
                    <path fill="#1D1D1D" fill-rule="nonzero" d="M12.376 21.259c.277.285.27.741-.015 1.018L9.398 25.15c-.276.267-.714.27-.994.008l-1.537-1.444c-.29-.272-.304-.728-.032-1.018.272-.29.728-.304 1.018-.031l1.036.973 2.47-2.395c.285-.277.74-.27 1.017.016zm3.627 1.221l7.195.007c.4 0 .722.323.722.72 0 .398-.324.72-.723.72l-7.195-.007c-.4 0-.722-.323-.722-.72 0-.398.324-.72.723-.72zm-3.627-8.421c.277.285.27.741-.015 1.018L9.398 17.95c-.276.267-.714.27-.994.008l-1.537-1.444c-.29-.272-.304-.728-.032-1.018.272-.29.728-.304 1.018-.031l1.036.973 2.47-2.395c.285-.277.74-.27 1.017.016zm3.627 1.221l7.195.007c.4 0 .722.323.722.72 0 .398-.324.72-.723.72l-7.195-.007c-.4 0-.722-.323-.722-.72 0-.398.324-.72.723-.72zM24.64.88c.398 0 .72.322.72.72v4.32c0 .398-.322.72-.72.72-.398 0-.72-.322-.72-.72V1.6c0-.398.322-.72.72-.72zM8.8.88c.398 0 .72.322.72.72v4.32c0 .398-.322.72-.72.72-.398 0-.72-.322-.72-.72V1.6c0-.398.322-.72.72-.72z"/>
                </g>
            </g>
        </g>
    </g>
</svg>
