<svg xmlns="http://www.w3.org/2000/svg" width="32" height="32" viewBox="0 0 32 32">
    <g fill="none" fill-rule="evenodd">
        <g>
            <g>
                <g>
                    <g>
                        <g transform="translate(-779 -6234) translate(755 6126) translate(0 84) translate(24 24) translate(0 3)">
                            <path fill="#FFF" fill-rule="nonzero" d="M29.7 3.62c0-.292-.116-.572-.322-.778-.206-.206-.486-.322-.778-.322H.71v20.1c0 2.79 3 3.88 4.16 3.88H27c1.58-.188 2.771-1.528 2.77-3.12L29.7 3.62zm-1.87 6.97c0 .552-.448 1-1 1H5c-.552 0-1-.448-1-1V8.54c0-.552.448-1 1-1h21.84c.552 0 1 .448 1 1l-.01 2.05z"/>
                            <path fill="#FFF" fill-rule="nonzero" d="M12.73 22v.38c0 .552-.448 1-1 1H3.65c-.552 0-1-.448-1-1v-6.5c0-.552.448-1 1-1H4c-.015.106-.015.214 0 .32v5.17c.008.437.19.852.505 1.155.315.302.738.466 1.175.455h6.72c.11.017.22.023.33.02z"/>
                            <path stroke="#1D1D1B" stroke-linecap="round" stroke-linejoin="round" stroke-width="1.4" d="M31.3.93v22.52c-.005 1.12-.684 2.126-1.72 2.55-.369.16-.768.243-1.17.24H3.76c-.754.016-1.483-.27-2.026-.793-.542-.524-.854-1.243-.864-1.997V.93H31.3zM1.14 5.23L31.29 5.23"/>
                            <circle cx="3.05" cy="3.1" r="1" stroke="#1D1D1B" stroke-linecap="round" stroke-linejoin="round" stroke-width="1.4"/>
                            <circle cx="5.15" cy="3.1" r="1" stroke="#1D1D1B" stroke-linecap="round" stroke-linejoin="round" stroke-width="1.4"/>
                            <circle cx="7.24" cy="3.1" r="1" stroke="#1D1D1B" stroke-linecap="round" stroke-linejoin="round" stroke-width="1.4"/>
                            <rect width="23.83" height="4.04" x="4" y="7.99" stroke="#1D1D1B" stroke-linecap="round" stroke-linejoin="round" stroke-width="1.4" rx="1"/>
                        </g>
                    </g>
                </g>
            </g>
        </g>
    </g>
</svg>
