<svg xmlns="http://www.w3.org/2000/svg" width="32" height="33" viewBox="0 0 32 33">
    <g fill="none" fill-rule="evenodd">
        <g>
            <g>
                <g>
                    <g>
                        <g>
                            <g>
                                <g transform="translate(-779 -6727) translate(0 602) translate(755 168) translate(0 4538) translate(0 1396) translate(24 24) translate(0 2)">
                                    <path fill="#FCE7D0" fill-rule="nonzero" d="M12.68 22.61c.35 0 .1 1.07.32 1.3H2.45c-.34-.002-.664-.145-.893-.396-.23-.25-.345-.585-.317-.924.117-1.875.635-3.703 1.52-5.36.068-.088.149-.166.24-.23 2.69-2.256 6.356-2.96 9.69-1.86.21.07-2.36 1-2.86 2-1.07 2.1 2.85 5.47 2.85 5.47zM15.78 8c.002 1.339-.425 2.643-1.22 3.72-1.015.658-2.2 1.006-3.41 1-2.363-.011-4.52-1.345-5.585-3.455C4.5 7.156 4.706 4.628 6.1 2.72c1.933-1.237 4.387-1.323 6.402-.224 2.015 1.1 3.271 3.209 3.278 5.504z"/>
                                    <circle cx="10.73" cy="6.86" r="6.28" stroke="#1D1D1B" stroke-linecap="round" stroke-linejoin="round" stroke-width="1.4"/>
                                    <path stroke="#1D1D1B" stroke-linecap="round" stroke-linejoin="round" stroke-width="1.4" d="M13.43 23.34h-11c-.522 0-1.015-.237-1.343-.642C.759 22.292.63 21.76.74 21.25c.284-1.33.828-2.59 1.6-3.71 1.902-2.758 5.04-4.403 8.39-4.4 1.181-.028 2.355.186 3.45.63 2.562 1.14 4.51 3.325 5.35 6"/>
                                    <path fill="#FCE7D0" fill-rule="nonzero" d="M31.24 14.44L19.7 26.82c-.31.345-.731.571-1.19.64-.708.125-1.43-.125-1.91-.66l-6.77-7.44L11 18.14c1-.9 1.16-1.31 2.31.09l3.26 3.93.57.69c.202.245.5.392.817.403.317.012.624-.113.843-.343l.72-.75 2.93-3.06 7.33-7.68c.226-.24.574-.32.882-.2.307.118.512.41.518.74l.06 2.48z"/>
                                    <path stroke="#1D1D1B" stroke-linecap="round" stroke-linejoin="round" stroke-width="1.4" d="M31.42 14.65l-.05.05h0L19.84 27.09c-.318.336-.735.56-1.19.64-.708.12-1.428-.128-1.91-.66L10 19.63l-.26-.29-.08-.09c-.072-.076-.136-.16-.19-.25-.302-.637-.152-1.396.37-1.87l1.31-1.36c.669-.602 1.696-.557 2.31.1l4.63 5.58L29.93 9c.227-.233.57-.308.874-.19.303.118.506.405.516.73l.1 5.11z"/>
                                </g>
                            </g>
                        </g>
                    </g>
                </g>
            </g>
        </g>
    </g>
</svg>
