<svg xmlns="http://www.w3.org/2000/svg" width="32" height="33" viewBox="0 0 32 33">
    <g fill="none" fill-rule="evenodd">
        <g>
            <g>
                <g>
                    <g>
                        <g>
                            <g>
                                <g transform="translate(-779 -8043) translate(0 602) translate(755 168) translate(0 6785) translate(0 465) translate(24 24) translate(0 5)">
                                    <path fill="#FFF" fill-rule="nonzero" d="M30 10.33v.74c0 1.418-.342 2.814-1 4.07-1.585 1.694-3.8 2.656-6.12 2.66l.74 1.56c-.65.17.64 2.14-.06 2.14h-1.13l-5.66-3.7h-7.6C4.49 17.767.722 13.95.75 9.27v-.74c-.006-1.421.338-2.822 1-4.08 1.585-1.7 3.806-2.663 6.13-2.66h13.66c2.255.008 4.415.913 6.002 2.515 1.587 1.602 2.471 3.77 2.458 6.025z"/>
                                    <path stroke="#1D1D1B" stroke-linecap="round" stroke-linejoin="round" stroke-width="1.4" d="M22.83 0H9.16c-3.1.013-5.94 1.73-7.39 4.47h0C1.105 5.723.76 7.121.77 8.54v.74c-.022 4.664 3.726 8.47 8.39 8.52h7.6l5.67 3.71.22.14c.366.164.794.093 1.088-.179.294-.272.397-.694.262-1.071l-.47-1-.74-1.57c2.357.019 4.612-.958 6.21-2.69h0c1.48-1.596 2.302-3.693 2.3-5.87v-.74c.01-2.255-.876-4.422-2.465-6.022C27.245.908 25.085.005 22.83 0z"/>
                                    <path stroke="#1D1D1B" stroke-linecap="round" stroke-linejoin="round" stroke-width="1.4" d="M13.8 6.57c.031-1.454 1.197-2.628 2.65-2.67h.67c1.17.07 2.167.876 2.48 2.006.311 1.13-.13 2.334-1.1 2.994-.91.58-2.68.81-2.73 2.67v1.17"/>
                                    <circle cx="15.72" cy="15.22" r="1" fill="#1D1D1B" fill-rule="nonzero"/>
                                </g>
                            </g>
                        </g>
                    </g>
                </g>
            </g>
        </g>
    </g>
</svg>
