<svg xmlns="http://www.w3.org/2000/svg" width="32" height="33" viewBox="0 0 32 33">
    <g fill="none" fill-rule="evenodd" opacity=".75">
        <g>
            <g>
                <g>
                    <g transform="translate(-279 -1141) translate(255 1118) translate(24 23.5) translate(3)">
                        <circle cx="21.65" cy="16.36" r="1" fill="#E4232A" fill-rule="nonzero"/>
                        <path fill="#E0F1FA" fill-rule="nonzero" d="M24.63 14.15l-.16 13.15c-.02 1.95-1.64 3.51-3.65 3.59-.07.01-.13.01-.2.01l-16.03-.18c-1.49-.02-2.79-.78-3.51-1.92-.09-.14-.17-.38-.24-.68-.24-1.04-.36-2.79-.35-3.39l.13-10.37c.03-2.49 2.16-4.47 4.76-4.44l5.34.07-.04 3.17 9.54.12-.07-3.17c0-.03 1.48.19 1.62.23.8.19 1.57.63 2.08 1.27.6.73.68 1.64.78 2.54z"/>
                        <path stroke="#1D1D1B" stroke-linecap="round" stroke-linejoin="round" stroke-width="1.4" d="M20.08 8.49h1.93c.81 0 1.58.25 2.22.69 1.18.8 1.97 2.22 1.97 3.83v14.16c0 1.51-.75 2.82-1.87 3.55-.57.37-1.24.58-1.95.58H4.98c-1.5 0-2.81-.85-3.54-2.13-.09-.16-.17-.31-.25-.48-.26-.58-.39-1.23-.39-1.92V13.01c0-.88.23-1.72.65-2.42.74-1.26 2.05-2.1 3.53-2.1h5.55v4.55M5.88 26.39L8.79 26.39M5.88 21.92L8.79 21.92M12.76 26.39L15.67 26.39M12.76 21.92L15.67 21.92M19.14 26.39L22.04 26.39M19.14 21.92L22.04 21.92"/>
                        <path fill="#FFF" fill-rule="nonzero" d="M22.21 16.7v1.48H5.65v-2.21c0-.04 0-.09.01-.13h15.69c.48-.01.86.38.86.86z"/>
                        <path stroke="#1D1D1B" stroke-linecap="round" stroke-linejoin="round" stroke-width="1.4" d="M20.04 4.12L20 13.08h-9.33V4.75c0-2.64 2.19-4.04 4.83-4.04h7.19c0-.01-2.35.21-2.65 3.41zM22.69 16.49v2.21H5.17v-2.21c0-.04 0-.09.01-.13.07-.59.57-1.06 1.18-1.06H21.5c.66.01 1.19.54 1.19 1.19zM7.66 13.08L23.47 13.08"/>
                    </g>
                </g>
            </g>
        </g>
    </g>
</svg>
