<svg xmlns="http://www.w3.org/2000/svg" width="32" height="33" viewBox="0 0 32 33">
    <g fill="none" fill-rule="evenodd">
        <g>
            <g>
                <g>
                    <g>
                        <g>
                            <g>
                                <g>
                                    <path fill="#FFF" fill-rule="nonzero" d="M20.59 25.52V30c0 .59-.48 1.07-1.07 1.07h-8.09c-.59 0-1.07-.48-1.07-1.07 0-.59-.48-1.07-1.07-1.07H5c-1.236.013-2.425-.469-3.303-1.339C.82 26.721.327 25.536.33 24.3V4.08c0-.273.03-.544.09-.81.08-.397.379-.715.77-.82.295-.072.597-.11.9-.11h12.32c.835-.097 1.669.193 2.263.787.594.594.884 1.428.787 2.263v9.77c-.423-.121-.86-.182-1.3-.18-2.554-.009-4.686 1.945-4.9 4.49v2.14c0 .59.48 1.07 1.07 1.07h.27c.283.003.555-.108.756-.307.201-.199.314-.47.314-.753v-2.14c.2-1.207 1.246-2.092 2.47-2.09.46-.003.91.125 1.3.37v5.62c0 .59.48 1.07 1.07 1.07h1c.286-.003.56.109.763.31.203.2.317.474.317.76z" transform="translate(-779 -8700) translate(0 602) translate(755 168) translate(0 6785) translate(0 1122) translate(24 24) translate(5)"/>
                                    <path stroke="#1D1D1B" stroke-linecap="round" stroke-linejoin="round" stroke-width="1.4" d="M7.24 7.07c-1.6 0-2.89 1-2.89 2.18 0 1.18 1.38 1.82 2.44 2.1s2.92.46 3.28 1.86c.005.06.005.12 0 .18.22 1.54-1.58 2.39-2.87 2.39M9.73 7.35L7.24 7.07 7.24 5.13M7.24 17.73L7.24 15.78M4.44 15.46L7.24 15.78" transform="translate(-779 -8700) translate(0 602) translate(755 168) translate(0 6785) translate(0 1122) translate(24 24) translate(5)"/>
                                    <path stroke="#1D1D1B" stroke-linecap="round" stroke-linejoin="round" stroke-width="1.4" d="M9.6 29.1H3.69c-1.962 0-3.554-1.588-3.56-3.55V4.26C.13 2.294 1.724.7 3.69.7h11.82c1.966 0 3.56 1.594 3.56 3.56v11.2" transform="translate(-779 -8700) translate(0 602) translate(755 168) translate(0 6785) translate(0 1122) translate(24 24) translate(5)"/>
                                    <path stroke="#1D1D1B" stroke-linecap="round" stroke-linejoin="round" stroke-width="1.4" d="M21.08 22.68v-2.79c.076-2.683-2.016-4.93-4.698-5.045-2.682-.115-4.959 1.945-5.112 4.625v3.21h2.41v-3.2c.113-1.38 1.324-2.408 2.705-2.295 1.38.113 2.408 1.324 2.295 2.705v2.79M10.26 23.75v5.58c0 1.105.895 2 2 2h7.84c1.105 0 2-.895 2-2v-5.58c0-.504-.406-.915-.91-.92h-10c-.246-.003-.482.093-.657.266-.175.173-.273.408-.273.654h0z" transform="translate(-779 -8700) translate(0 602) translate(755 168) translate(0 6785) translate(0 1122) translate(24 24) translate(5)"/>
                                </g>
                            </g>
                        </g>
                    </g>
                </g>
            </g>
        </g>
    </g>
</svg>
