<svg xmlns="http://www.w3.org/2000/svg" width="32" height="32" viewBox="0 0 32 32">
    <g fill="none" fill-rule="evenodd">
        <g>
            <g>
                <g>
                    <g>
                        <path fill="#FFF" fill-rule="nonzero" d="M26.37 7.44v2.08c.002 2.312-.899 4.533-2.51 6.19l-.06.06-1.46 1.47.24.24.35.35h-1.12L14.61 25l-.31.3-.21.21-.25.22c-.55.451-1.139.853-1.76 1.2l1.42-.4-1.77 4c-.44 0-2.3.48-2.65.14l-3.85-3.9-3.84-3.83c-.523-.527-.667-1.323-.36-2l3.56-1.52v.16c.14-.274.293-.541.46-.8l1.35-.56c.419-.816.958-1.565 1.6-2.22l.34-.34-3.29-8.81c-.578-1.556-.338-3.299.64-4.64.834-.192 1.708.062 2.31.67l6.29 6.29 1.41-1.43.1-.09c.568-.563 1.215-1.042 1.92-1.42 1.31-.725 2.783-1.104 4.28-1.1h2.08c1.268.011 2.29 1.042 2.29 2.31z" transform="translate(-279 -1545) translate(0 602) translate(255 919) translate(24 24)"/>
                        <path fill="#FFF" fill-rule="nonzero" d="M28.82 26.87c-1.169.491-2.48.52-3.67.08l-8.77-3.26-.31.3c-.398.372-.826.71-1.28 1.01h-.18L18 22.07l4.92-4.22 5.7 5.7c.896.897.981 2.322.2 3.32z" transform="translate(-279 -1545) translate(0 602) translate(255 919) translate(24 24)"/>
                        <path stroke="#1D1D1B" stroke-linecap="round" stroke-linejoin="round" stroke-width="1.4" d="M28.14 6.16v2.08c.005 2.345-.919 4.596-2.57 6.26L24.11 16l-1.53 1.52L18 22.05h0l-1.62 1.62-.31.3c-.397.379-.825.723-1.28 1.03-.22.15-.45.3-.7.44h0c-2.85 1.73-7.12 3-8.85 1.28-1-1-.51-5.34 1.15-8.55.426-.8.969-1.53 1.61-2.17l9.5-9.5.25-.23c1.63-1.517 3.773-2.363 6-2.37h2.08c1.259-.006 2.288 1.001 2.31 2.26z" transform="translate(-279 -1545) translate(0 602) translate(255 919) translate(24 24)"/>
                        <path stroke="#1D1D1B" stroke-linecap="round" stroke-linejoin="round" stroke-width="1.4" d="M8.31 15.62L5.05 6.85c-.578-1.556-.338-3.299.64-4.64.15-.219.321-.423.51-.61.47-.47 1.11-.735 1.775-.735.666 0 1.304.264 1.775.735l6.05 6.05.24.24 7.82 7.82.25.25.6.6M16.38 23.69L25.15 27c1.19.44 2.501.411 3.67-.08.594-.269 1.13-.649 1.58-1.12.47-.47.735-1.11.735-1.775 0-.666-.264-1.304-.735-1.775l-5.69-5.69M5.23 26.77l3.83 3.84c.325.323.762.51 1.22.52.757.033 1.45-.422 1.72-1.13l1.85-4.33h0v-.08M6.38 18.22L5 18.78 2 20c-.415.173-.748.499-.93.91-.307.677-.163 1.473.36 2l3.84 3.83" transform="translate(-279 -1545) translate(0 602) translate(255 919) translate(24 24)"/>
                    </g>
                </g>
            </g>
        </g>
    </g>
</svg>
