<svg xmlns="http://www.w3.org/2000/svg" width="32" height="33" viewBox="0 0 32 33">
    <g fill="none" fill-rule="evenodd">
        <g>
            <g>
                <g>
                    <g>
                        <g>
                            <g>
                                <g transform="translate(-779 -6463) translate(0 602) translate(755 168) translate(0 4538) translate(0 1132) translate(24 24) translate(0 2)">
                                    <path fill="#FCE7D0" fill-rule="nonzero" d="M12.11 19.28v4.25c.336 0 .657.138.89.38H2.45c-.34-.002-.664-.145-.893-.396-.23-.25-.345-.585-.317-.924.117-1.875.635-3.703 1.52-5.36.068-.088.149-.166.24-.23 1.822-1.534 4.128-2.374 6.51-2.37 1.809-.018 3.589.456 5.15 1.37.934.546 1.772 1.242 2.48 2.06h-3.79c-.01.677-.563 1.22-1.24 1.22zM15.78 8c.002 1.339-.425 2.643-1.22 3.72-1.015.658-2.2 1.006-3.41 1-2.363-.011-4.52-1.345-5.585-3.455C4.5 7.156 4.706 4.628 6.1 2.72c1.933-1.237 4.387-1.323 6.402-.224 2.015 1.1 3.271 3.209 3.278 5.504z"/>
                                    <circle cx="10.73" cy="6.86" r="6.28" stroke="#1D1D1B" stroke-linecap="round" stroke-linejoin="round" stroke-width="1.4"/>
                                    <path stroke="#1D1D1B" stroke-linecap="round" stroke-linejoin="round" stroke-width="1.4" d="M13.43 23.34h-11c-.522 0-1.015-.237-1.343-.642C.759 22.292.63 21.76.74 21.25c.284-1.33.828-2.59 1.6-3.71 1.902-2.758 5.04-4.403 8.39-4.4 2.069.084 4.067.78 5.74 2"/>
                                    <path fill="#FCE7D0" fill-rule="nonzero" d="M29.56 20.8l-.14 2.85h-9.91l.09 3.24c-.08.9-.75 1.15-1.4.51l-6.93-6.79 2.32-2.24 4.29-4.2-.05 3.05c-.013.62.222 1.22.655 1.666.432.445 1.024.699 1.645.704l8.27.08c.625.01 1.134.506 1.16 1.13z"/>
                                    <path stroke="#1D1D1B" stroke-linecap="round" stroke-linejoin="round" stroke-width="1.4" d="M31.27 18.19v3.49c-.003.596-.244 1.166-.671 1.581-.427.416-1.003.642-1.599.629h0l-9.49-.28v3.61c-.006.35-.218.664-.542.798-.323.135-.696.065-.948-.178l-.77-.76-2-2-2.41-2.38L11 20.92h0l4.29-4.19L18 14c.254-.244.628-.313.953-.176.324.137.535.454.537.806v3.31h.79l10.99.25z"/>
                                </g>
                            </g>
                        </g>
                    </g>
                </g>
            </g>
        </g>
    </g>
</svg>
