<svg xmlns="http://www.w3.org/2000/svg" width="32" height="33" viewBox="0 0 32 33">
    <g fill="none" fill-rule="evenodd">
        <path fill="#FFF" fill-rule="nonzero" d="M18.2 24H2.45c-.34-.004-.663-.15-.89-.403-.229-.252-.34-.588-.31-.927.108-1.872.623-3.698 1.51-5.35.067-.095.148-.179.24-.25 2.706-2.272 6.401-2.966 9.747-1.832 3.346 1.135 5.857 3.933 6.623 7.382.049.342-.051.69-.275.953-.224.264-.55.419-.895.427zM15.78 8.13c.004 1.339-.424 2.643-1.22 3.72-1.015.658-2.2 1.006-3.41 1-2.366-.004-4.53-1.337-5.596-3.45-1.067-2.111-.856-4.644.546-6.55 1.011-.659 2.193-1.006 3.4-1 1.666 0 3.263.662 4.44 1.84 1.178 1.177 1.84 2.774 1.84 4.44z"/>
        <circle cx="10.73" cy="6.98" r="6.28" stroke="#1D1D1B" stroke-linecap="round" stroke-linejoin="round" stroke-width="1.4"/>
        <path stroke="#1D1D1B" stroke-linecap="round" stroke-linejoin="round" stroke-width="1.4" d="M16.53 23.46H2.42c-.52-.004-1.01-.24-1.336-.646-.326-.405-.452-.935-.344-1.444.284-1.33.828-2.59 1.6-3.71 1.902-2.758 5.04-4.403 8.39-4.4 2.255.057 4.44.792 6.27 2.11"/>
        <path fill="#FFF" fill-rule="nonzero" d="M30 19.41c0 2.68-2.85 7.7-5.17 11.33-.134.202-.288.39-.46.56-1.577.719-3.442.164-4.37-1.3-2.34-3.61-5.24-8.6-5.25-11.28-.013-2.437 1.066-4.752 2.94-6.31 1.24-.736 2.657-1.123 4.1-1.12 2.167-.016 4.25.832 5.791 2.355 1.54 1.524 2.411 3.598 2.419 5.765z"/>
        <path stroke="#1D1D1B" stroke-linecap="round" stroke-linejoin="round" stroke-width="1.4" d="M31.23 18.36c0 2.67-2.85 7.69-5.18 11.33-.362.577-.888 1.033-1.51 1.31-1.575.707-3.431.16-4.37-1.29-2.34-3.61-5.24-8.6-5.25-11.28-.013-2.437 1.066-4.752 2.94-6.31h0c2.428-2.018 5.804-2.453 8.663-1.115 2.86 1.338 4.69 4.208 4.697 7.365l.01-.01z"/>
    </g>
</svg>
