<svg xmlns="http://www.w3.org/2000/svg" width="23" height="32" viewBox="0 0 23 32">
    <g fill="none" fill-rule="evenodd">
        <g>
            <g>
                <g>
                    <g>
                        <path fill="#EDE0FA" d="M19.31 11.33v17.84c-.07.23-.18.55-.26.77-.368.432-.83.774-1.35 1-.428.196-.89.308-1.36.33H4.23c-2.106.006-3.819-1.694-3.83-3.8V4.54c-.015-.183-.015-.367 0-.55.044-.346.141-.684.29-1l.06-.12c.602-.366 1.296-.554 2-.54H10c1.753-.046 3.455.597 4.74 1.79 1.06 1.12 2.26 2.4 3.33 3.45.879 1.049 1.323 2.394 1.24 3.76z" transform="translate(-300 -2143) translate(231 2119) translate(40) translate(30 24)"/>
                        <path stroke="#1D1D1B" stroke-linecap="round" stroke-linejoin="round" stroke-width="1.4" d="M20.8 9.43v18c.003.78-.238 1.543-.69 2.18-.699 1.037-1.86 1.668-3.11 1.69H4.23c-1.016 0-1.99-.404-2.708-1.122C.804 29.46.4 28.486.4 27.47V4.54c-.015-.183-.015-.367 0-.55.044-.346.141-.684.29-1l.06-.12C1.386 1.53 2.747.685 4.23.71H12c1.338-.001 2.619.54 3.55 1.5 1.22 1.24 2.73 2.82 3.92 4 .85.857 1.327 2.014 1.33 3.22h0z" transform="translate(-300 -2143) translate(231 2119) translate(40) translate(30 24)"/>
                        <path stroke="#1D1D1B" stroke-linecap="round" stroke-linejoin="round" stroke-width="1.4" d="M14.12 1.31v4.36c0 1.04.84 1.884 1.88 1.89h4.11M6.67 23.57L14.6 23.57M6.32 16.59L9.38 19.84 16.51 12.79" transform="translate(-300 -2143) translate(231 2119) translate(40) translate(30 24)"/>
                    </g>
                </g>
            </g>
        </g>
    </g>
</svg>
