<svg xmlns="http://www.w3.org/2000/svg" width="32" height="33" viewBox="0 0 32 33">
    <g fill="none" fill-rule="evenodd">
        <g>
            <g>
                <g>
                    <g>
                        <g>
                            <g>
                                <g>
                                    <path fill="#FFF" fill-rule="nonzero" d="M29.62 9.58v14.08c-.003.393-.074.782-.21 1.15-.475.25-1.003.38-1.54.38H26V12.6c0-.85-.48-1.53-1.08-1.53h-2.5c-.6 0-1.08.68-1.08 1.53v12.59H17v-19c.003-.227-.086-.446-.245-.608-.16-.161-.378-.252-.605-.252H13.2c-.227 0-.445.09-.605.252-.16.162-.248.38-.245.608v19H8.8v-8.7c-.005-.622-.508-1.125-1.13-1.13H5.28c-.624 0-1.13.506-1.13 1.13v5.71c0 1.05.52 2.032 1.39 2.62C2.646 23.858.695 21.15.7 18.1V7.76C.69 6.431 1.057 5.127 1.76 4c1.254-.992 2.81-1.525 4.41-1.51h16.36c3.916 0 7.09 3.174 7.09 7.09z" transform="translate(-795 -4014) translate(0 602) translate(755 168) translate(0 2612) translate(0 577) translate(40 56) translate(0 3)"/>
                                    <path stroke="#1D1D1B" stroke-linecap="round" stroke-linejoin="round" stroke-width="1.4" d="M17.01 25.36h-4.65V6.22c0-.47.38-.85.85-.85h2.95c.47 0 .85.38.85.85v19.14zM8.8 16.49v8.87H7.31c-.839.003-1.644-.33-2.237-.923-.594-.593-.926-1.398-.923-2.237v-5.71c.005-.622.508-1.125 1.13-1.13h2.39c.3 0 .587.12.799.331.212.212.331.5.331.799zM26 12.6v12.76h-4.68V12.6c0-.84.48-1.53 1.07-1.53h2.51c.59 0 1.1.69 1.1 1.53z" transform="translate(-795 -4014) translate(0 602) translate(755 168) translate(0 2612) translate(0 577) translate(40 56) translate(0 3)"/>
                                    <path stroke="#1D1D1B" stroke-linecap="round" stroke-linejoin="round" stroke-width="1.4" d="M31.22 7.93V22c.012 1.262-.688 2.422-1.81 3-.473.245-.998.372-1.53.37H7.79C3.874 25.37.7 22.196.7 18.28V7.93C.711 4.02 3.88.855 7.79.85h16.35c3.91 0 7.08 3.17 7.08 7.08z" transform="translate(-795 -4014) translate(0 602) translate(755 168) translate(0 2612) translate(0 577) translate(40 56) translate(0 3)"/>
                                </g>
                            </g>
                        </g>
                    </g>
                </g>
            </g>
        </g>
    </g>
</svg>
