<svg xmlns="http://www.w3.org/2000/svg" width="32" height="32" viewBox="0 0 32 32">
    <g fill="none" fill-rule="evenodd">
        <g>
            <g>
                <g transform="translate(-795 -1359) translate(755 1303) translate(40 56)">
                    <path fill="#F9F2D7" fill-rule="nonzero" d="M12.19 1.93c-2.096.003-4.159.528-6 1.53-1.453.782-2.734 1.846-3.77 3.13C2 7.89.65 11.86.65 13.3c-.003 3.346 1.325 6.556 3.69 8.923s5.574 3.697 8.92 3.697c2.17 0 5.77-1.54 7.55-2.52 1.45-.77 2.29-3.11 3.33-4.38.45-1.446.67-2.955.65-4.47.003-3.344-1.323-6.553-3.686-8.92-2.363-2.366-5.57-3.697-8.914-3.7zm5.53 16.12c.09-.14.18-.3.26-.45.13-.253.243-.513.34-.78l.12-.33v-.15c0-.05.06-.21.08-.31.005-.06.005-.12 0-.18 0-.12 0-.25.07-.38s0-.27 0-.41v-.18-.37-.34c.005-.09.005-.18 0-.27v-.49c-.062-.34-.152-.675-.27-1-.913-2.696-3.443-4.51-6.29-4.51h-.52c-.306.018-.61.062-.91.13L10.5 8l-.39.12c-.15 0-.29.1-.43.15-.175.065-.346.142-.51.23-.14.06-.28.14-.41.21l-.12.07-.34.23c-.14.091-.273.191-.4.3 1.4-2.246 3.999-3.45 6.618-3.065 2.619.384 4.762 2.283 5.458 4.836.697 2.554-.185 5.278-2.246 6.939l-.01.03z"/>
                    <path stroke="#1D1D1B" stroke-width="1.4" d="M25.86 13.31c-.006 2.494-.75 4.93-2.14 7-.23.33-.46.63-.7.93-3.873 4.694-10.546 5.952-15.862 2.99-5.316-2.96-7.76-9.296-5.808-15.06.075-.245.165-.486.27-.72h0C3.932 2.904 9.837-.238 15.728.944c5.89 1.182 10.128 6.358 10.122 12.366h.01z"/>
                    <path fill="#F9F2D7" fill-rule="nonzero" stroke="#1D1D1B" stroke-linecap="round" stroke-linejoin="round" stroke-width="1.4" d="M30.94 30.78h0c-.567.63-1.537.684-2.17.12l-8-7.17L23 21.6l7.82 7c.306.273.49.656.513 1.065.023.41-.119.81-.393 1.115h0z"/>
                    <circle cx="13.25" cy="13.31" r="6.65" stroke="#1D1D1B" stroke-linecap="round" stroke-linejoin="round" stroke-width="1.4"/>
                    <path stroke="#1D1D1B" stroke-linecap="round" stroke-linejoin="round" stroke-width="1.4" d="M11.56 16.4v-6.32h1.71c.893.032 1.6.766 1.6 1.66 0 .94-.76 1.704-1.7 1.71h-1.51M15.21 16.4L13.35 13.57"/>
                </g>
            </g>
        </g>
    </g>
</svg>
