<svg xmlns="http://www.w3.org/2000/svg" width="32" height="32" viewBox="0 0 32 32">
    <g fill="none" fill-rule="evenodd">
        <g>
            <g>
                <g>
                    <g transform="translate(-879 -2101) translate(0 602) translate(855 1475) translate(24 24)">
                        <circle cx="13.44" cy="22.31" r="1" fill="#E4232A" fill-rule="nonzero"/>
                        <path fill="#FFF" fill-rule="nonzero" d="M22.22 7.04v2.78c0 .66-.43 1.23-1.04 1.42h-.01c-.14.04-.29.07-.44.07H9.05c-.82 0-1.78-.61-1.78-1.43V7.74c0-.82.96-1.55 1.78-1.55h1.91c.88 0 1.52-.53 1.75-1.39.18-.66.85-2.18 2.18-2.18 1.98 0 2.16 1.5 2.41 2.19.29.81.42 1.38 1.28 1.38h2.8c.45 0 .84.38.84.85z"/>
                        <path fill="#FFF" fill-rule="nonzero" d="M29.74 13.27V25.8c0 1.73-.42 3.14-1.12 4.18-.7.34-1.19 1.3-2.04 1.3l-21.09-.4c-.98 0-1.89-.26-2.66-.71-1.42-.83-2.02-2.64-2.02-4.3V11.29c0-.72.19-1.4.53-1.99.72-.43 1.57-.68 2.49-.68h3.61v1.02c0 .79.64 1.43 1.43 1.43H20.1c.15 0 .29-.02.43-.06h.01c.58-.18 1-.73 1-1.36V8.62h3.18c1.8 0 3.3 0 4.54 1.79.48.71.48 1.96.48 2.86z"/>
                        <path fill="#FFF" fill-rule="nonzero" d="M14.21 17.37c0 .95-.31 1.84-.84 2.56-.67.44-1.48.7-2.34.7-2.39 0-4.32-1.94-4.32-4.32 0-.96.32-1.85.85-2.57.67-.44 1.47-.68 2.34-.68 2.38-.01 4.31 1.92 4.31 4.31zM16.39 27.26H4.49c0-1.38.43-2.66 1.16-3.72 1.15-1.01 2.66-1.62 4.31-1.62 3.2 0 5.87 2.3 6.43 5.34z"/>
                        <path stroke="#1D1D1B" stroke-linecap="round" stroke-linejoin="round" stroke-width="1.4" d="M15.81 27.26H6.26c-1.04 0-1.78-1.01-1.46-1.99.2-.62.49-1.2.85-1.73 1.18-1.7 3.15-2.82 5.38-2.82 2.92 0 5.4 1.91 6.24 4.56.31.98-.43 1.98-1.46 1.98z"/>
                        <circle cx="11.03" cy="16.3" r="4.32" stroke="#1D1D1B" stroke-linecap="round" stroke-linejoin="round" stroke-width="1.4"/>
                        <path stroke="#1D1D1B" stroke-linecap="round" stroke-linejoin="round" stroke-width="1.4" d="M8.93 7.04H5.31c-1.76 0-3.29.95-4.07 2.33C.9 9.99.7 10.69.7 11.43v15.05c0 1.72.95 3.23 2.37 4.08.77.46 1.69.74 2.67.74h20.51c.85 0 1.64-.2 2.34-.55 1.61-.81 2.7-2.42 2.7-4.26V11.85c0-.93-.28-1.81-.77-2.55-.89-1.36-2.47-2.26-4.27-2.26h-3.19M19.97 22.31L26.58 22.31M19.97 16.84L26.58 16.84"/>
                        <path stroke="#1D1D1B" stroke-linecap="round" stroke-linejoin="round" stroke-width="1.4" d="M23.01 6.01v2.05c0 .64-.42 1.18-1 1.36H22c-.13.04-.28.06-.43.06H10.34c-.79 0-1.43-.64-1.43-1.43V6.02c0-.79.64-1.43 1.43-1.43h1.34c1 0 1.75-.84 1.74-1.84v-.02c0-1.4 1.13-2.53 2.53-2.53 1.39 0 2.52 1.13 2.52 2.53v.02c-.01 1 .74 1.84 1.74 1.84h1.35c.81-.01 1.45.63 1.45 1.42zM15.35 16.3c0 1.52-.79 2.86-1.97 3.62-.67.44-1.48.7-2.34.7-2.39 0-4.32-1.94-4.32-4.32 0-.96.32-1.85.85-2.57.79-1.06 2.05-1.75 3.47-1.75 2.38 0 4.31 1.94 4.31 4.32z"/>
                    </g>
                </g>
            </g>
        </g>
    </g>
</svg>
