<svg xmlns="http://www.w3.org/2000/svg" width="32" height="32" viewBox="0 0 32 32">
    <g fill="none" fill-rule="evenodd">
        <g>
            <g>
                <g>
                    <g>
                        <path fill="#FFF" fill-rule="nonzero" d="M23.37 27.06l.5 1.89-10.42-10.73-1.61 5.32-2.28 6.07c-.96.916-2.233 1.434-3.56 1.45H1.8l5.85-16.13 1.52-4.16 14.15 16.09.05.2z" transform="translate(-779 -6992) translate(755 6126) translate(0 842) translate(24 24)"/>
                        <path fill="#FFF" fill-rule="nonzero" d="M29.44 30.8h-3.5l-.43-1.87-.94-4L10 8.3l1.1-3c.639-1.758 2.31-2.929 4.18-2.93h.59c1.938.01 3.67 1.215 4.35 3.03l9.22 25.4z" transform="translate(-779 -6992) translate(755 6126) translate(0 842) translate(24 24)"/>
                        <path stroke="#1D1D1B" stroke-linecap="round" stroke-linejoin="round" stroke-width="1.4" d="M7.33 15.18L1.48 31.32h4.15c1.345-.003 2.637-.522 3.61-1.45.604-.582 1.07-1.293 1.36-2.08l1.4-3.65.93-2.48M25.58 31.3h5.72l-9.82-27C20.712 2.147 18.676.706 16.39.7h0c-2.278.002-4.312 1.428-5.09 3.57L9.65 8.81" transform="translate(-779 -6992) translate(755 6126) translate(0 842) translate(24 24)"/>
                        <path fill="#FFF" fill-rule="nonzero" d="M24.51 30.69l-4.36-1.41L1.8 8.17 4 6c.16-.151.374-.23.593-.22.22.012.424.113.567.28L7.3 8.54l16 18.19.05.21 1.16 3.75z" transform="translate(-779 -6992) translate(755 6126) translate(0 842) translate(24 24)"/>
                        <path stroke="#1D1D1B" stroke-linecap="round" stroke-linejoin="round" stroke-width="1.4" d="M19.91 29.47L2.5 9.7 1.12 8.13C1.077 8.09 1.036 8.047 1 8c-.485-.687-.387-1.628.23-2.2l2-1.86c.309-.292.724-.446 1.148-.425.425.02.823.214 1.102.535l1.63 1.87 17.14 19.47M19.91 29.47L23.74 30.71 24.28 30.88 25.58 31.3 25.62 31.32 25.62 31.3 25.19 29.43 24.25 25.39" transform="translate(-779 -6992) translate(755 6126) translate(0 842) translate(24 24)"/>
                        <path stroke="#1D1D1B" stroke-linecap="round" stroke-linejoin="round" stroke-width="1.4" d="M24.25 25.93L22.62 26.1 22.35 27.72 20.71 27.89 20.45 29.52M8.64 7.66L4.18 11.61" transform="translate(-779 -6992) translate(755 6126) translate(0 842) translate(24 24)"/>
                    </g>
                </g>
            </g>
        </g>
    </g>
</svg>
