<svg xmlns="http://www.w3.org/2000/svg" width="32" height="32" viewBox="0 0 32 32">
    <g fill="none" fill-rule="evenodd">
        <path fill="#FFF" fill-rule="nonzero" d="M23.06 7.27h-2c-1.027 0-1.86-.833-1.86-1.86V3.67c0-.664-.536-1.205-1.2-1.21H2.67c-1.156 0-2.094.934-2.1 2.09V31.3H24.2V8.41c0-.302-.12-.592-.334-.806-.214-.214-.504-.334-.806-.334z" transform="translate(3)"/>
        <path stroke="#1D1D1B" stroke-linecap="round" stroke-linejoin="round" stroke-width="1.4" d="M21 2.93V31.3H.57V2.93c.001-.158.018-.315.05-.47C.838 1.436 1.744.706 2.79.71h16c.588 0 1.152.234 1.566.65.415.417.647.982.644 1.57zM4.71 5.8L9.08 5.8M12.32 5.8L16.7 5.8M4.71 12.63L9.08 12.63M12.32 12.63L16.7 12.63M4.71 19.46L9.08 19.46M12.32 19.46L16.7 19.46" transform="translate(3)"/>
        <path stroke="#1D1D1B" stroke-linecap="round" stroke-linejoin="round" stroke-width="1.4" d="M26.06 7.89V31.3H21V5.75h3c1.15.043 2.06.989 2.06 2.14h0zM23.49 9.47L23.49 13.81M5.67 26.2H15.87V31.299999999999997H5.67z" transform="translate(3)"/>
    </g>
</svg>
