<?xml version="1.0" encoding="UTF-8"?>
<svg width="32px" height="33px" viewBox="0 0 32 33" version="1.1" xmlns="http://www.w3.org/2000/svg" xmlns:xlink="http://www.w3.org/1999/xlink">
    <title>Icon</title>
    <g id="Manage-your-company" stroke="none" stroke-width="1" fill="none" fill-rule="evenodd">
        <g id="manage-your-company@2x" transform="translate(-1110.000000, -1489.000000)">
            <g id="Providing-everything-you-need-when-you-need-it" transform="translate(0.000000, 780.000000)">
                <g id="Modul/Icon-Box/Simple-Copy-3" transform="translate(1086.000000, 685.000000)">
                    <g id="20200406_ICON_ICON-101" transform="translate(24.000000, 24.000000)">
                        <path d="M23.61,15.83 C23.1069994,15.680703 22.5915896,15.5769516 22.07,15.52 C22.7167956,15.3166807 23.3920937,15.2187625 24.07,15.23 L24.07,13.7 C24.1636641,12.720064 23.9945291,11.7328679 23.58,10.84 C22.5,9.28 21.22,8.3 19.72,8.28 L19.72,6.81 C19.6931708,6.34683347 19.3037987,5.98843423 18.84,6 L16,6 C15.14,6 15,5.43 14.72,4.63 C14.44,3.83 14.29,2.44 12.32,2.44 C10.98,2.44 10.32,3.95 10.13,4.62 C9.96282356,5.42941478 9.2464645,6.00752911 8.42,6 L6.52,6 C5.63573674,6.00165442 4.88061498,6.63865657 4.73,7.51 L4.73,8.39 L3.84,9.17 C2.96374762,9.16708669 2.10314186,9.40211156 1.35,9.85 C1.00098737,10.4586474 0.818205893,11.1483888 0.82,11.85 L0.82,26.41 C0.696616808,28.0930426 1.45334127,29.7200002 2.82,30.71 C3.62692563,31.1821255 4.54510375,31.4306549 5.48,31.43 L19.78,31.69 L20.86,31.69 C21.2344714,31.6815866 21.5918243,31.5314984 21.86,31.27 L22.14,31.27 C24.8874706,31.2810315 27.4802096,29.9994776 29.14,27.81 C29.4948154,27.0358011 29.7340333,26.2137 29.85,25.37 C29.9018568,24.9754294 29.9285774,24.5779612 29.93,24.18 C29.9118821,20.3018471 27.3375027,16.9005706 23.61,15.83 Z M5.34,14.29 C6.03221381,13.8365225 6.84247955,13.5965725 7.67,13.5999535 C8.81827952,13.5946684 9.9212135,14.0477763 10.7341166,14.8588021 C11.5470198,15.6698278 12.0026766,16.7717112 12,17.92 C12.0072484,18.8421947 11.7122046,19.7413758 11.16,20.48 C10.4646916,20.9348186 9.65083735,21.1748012 8.82,21.1700707 C7.18927704,21.1738088 5.69604588,20.2569333 4.9616877,18.8009148 C4.22732952,17.3448963 4.37761285,15.5990971 5.35,14.29 L5.34,14.29 Z M13.4,27 C13.2597018,27.3107956 13.0107956,27.5597018 12.7,27.7 C12.5079291,27.7853117 12.3001645,27.8295894 12.09,27.83 L3.92,27.83 C3.46162515,27.8242697 3.0325551,27.6035874 2.76129729,27.2340477 C2.49003947,26.8645081 2.40809262,26.3890225 2.54,25.95 C2.71305547,25.3695946 2.96903118,24.817226 3.3,24.31 C3.38399935,24.1775422 3.48865614,24.0593813 3.61,23.96 C4.77573619,23.0080046 6.23493052,22.4886304 7.74,22.49 C9.12091278,22.4841858 10.4671239,22.9224055 11.58,23.74 C11.7777875,23.8792711 11.9649681,24.0330265 12.14,24.2 C12.6088521,24.6219578 13.0131691,25.1105075 13.34,25.65 C13.5921138,26.0593444 13.6148053,26.5699037 13.4,27 L13.4,27 Z" id="Shape" fill="#E6D7EA" fill-rule="nonzero"></path>
                        <circle id="Oval" fill="#E4232A" fill-rule="nonzero" cx="13.45" cy="22.86" r="1"></circle>
                        <path d="M13.82,27.8100642 L4.27,27.8100642 C3.78005658,27.8112744 3.31913647,27.577833 3.03025921,27.1821108 C2.74138195,26.7863885 2.65949234,26.2762549 2.81,25.81 C3.67651125,23.0945446 6.19964215,21.2512057 9.05,21.2512057 C11.9003579,21.2512057 14.4234887,23.0945446 15.29,25.81 C15.4410726,26.2779403 15.3580339,26.7899737 15.0668178,27.1861861 C14.7756017,27.5823984 14.3117019,27.814499 13.82,27.8100642 Z" id="Path" stroke="#1D1D1B" stroke-width="1.4" stroke-linecap="round" stroke-linejoin="round"></path>
                        <circle id="Oval" stroke="#1D1D1B" stroke-width="1.4" stroke-linecap="round" stroke-linejoin="round" cx="9.05" cy="16.85" r="4.32"></circle>
                        <path d="M25.75,15.24 L25.75,12.4 C25.7564367,11.5107038 25.5398349,10.6339821 25.12,9.85 C24.4687038,8.50059356 23.11787,7.6283409 21.62,7.59 L21.1,7.59" id="Path" stroke="#1D1D1B" stroke-width="1.4" stroke-linecap="round" stroke-linejoin="round"></path>
                        <path d="M5.53,7.59 L4.53,7.59 C3.05090095,7.61252963 1.72488001,8.5070053 1.15,9.87 C0.859354649,10.4966418 0.709182164,11.1792366 0.71,11.87 L0.71,26.59 C0.681442537,28.1564885 1.40218371,29.6425528 2.65,30.59 C3.28783224,31.0509841 4.05305591,31.3025645 4.84,31.31 L21.62,31.31" id="Path" stroke="#1D1D1B" stroke-width="1.4" stroke-linecap="round" stroke-linejoin="round"></path>
                        <path d="M21.1,6.56 L21.1,8.61 C21.0921979,9.26960642 20.6401587,9.84081966 20,10 L20,10 C19.8499856,10.0402085 19.695309,10.0603837 19.54,10.06 L7.36,10.06 C6.96041849,10.0762078 6.57090795,9.93218412 6.27799023,9.65992086 C5.98507251,9.38765759 5.81300176,9.00969867 5.8,8.61 L5.8,6.61 C5.8050745,6.20503976 5.97368458,5.81933925 6.2674916,5.54059925 C6.56129862,5.26185926 6.95533336,5.11376853 7.36,5.13 L8.82,5.13 C9.31581427,5.14072945 9.79517632,4.95194085 10.1505209,4.60599696 C10.5058654,4.26005308 10.7074354,3.78592372 10.71,3.29 L10.71,3.29 C10.7334297,2.58789243 11.0357261,1.92407676 11.5499772,1.44548536 C12.0642284,0.966893949 12.7480207,0.712999389 13.45,0.74 C14.9046701,0.683638391 16.1304347,1.81545753 16.19,3.27 L16.19,3.27 C16.1898165,3.76678623 16.3905216,4.24253727 16.7464794,4.58907821 C17.1024372,4.93561915 17.5833972,5.12349966 18.08,5.11 L19.55,5.11 C19.9478851,5.09651587 20.3348099,5.24175816 20.6255408,5.51373225 C20.9162717,5.78570633 21.086958,6.16210017 21.1,6.56 Z" id="Path" stroke="#1D1D1B" stroke-width="1.4" stroke-linecap="round" stroke-linejoin="round"></path>
                        <path d="M31.3001518,23 C31.320189,26.3416846 29.324886,29.3663069 26.2449152,30.6628575 C23.1649444,31.959408 19.6071909,31.2724112 17.2313741,28.9223563 C14.8555573,26.5723013 14.1298141,23.0222491 15.3927093,19.9283261 C16.6556044,16.8344031 19.6582939,14.8062438 23,14.79 C25.1905713,14.7740345 27.2973357,15.6310043 28.8547656,17.1715463 C30.4121955,18.7120884 31.2920826,20.8093848 31.3001518,23 L31.3001518,23 Z" id="Path" stroke="#1D1D1B" stroke-width="1.4" stroke-linecap="round" stroke-linejoin="round"></path>
                        <line x1="23.04" y1="19.89" x2="23.04" y2="26.2" id="Path" stroke="#1D1D1B" stroke-width="1.4" stroke-linecap="round" stroke-linejoin="round"></line>
                        <line x1="19.89" y1="23.04" x2="26.2" y2="23.04" id="Path" stroke="#1D1D1B" stroke-width="1.4" stroke-linecap="round" stroke-linejoin="round"></line>
                    </g>
                </g>
            </g>
        </g>
    </g>
</svg>