<svg xmlns="http://www.w3.org/2000/svg" width="32" height="33" viewBox="0 0 32 33">
    <g fill="none" fill-rule="evenodd" opacity=".75">
        <g>
            <g>
                <g>
                    <g>
                        <path fill="#FCE7D2" fill-rule="nonzero" d="M29.52 29.05L24.75 27.95 3.66 7.96 0.69 5.14 4.19 1.42 7.04 4.12 27.85 23.8 28.07 24.48z" transform="translate(-279 -967) translate(255 944) translate(24 23.5) translate(0 1)"/>
                        <path stroke="#1D1D1B" stroke-linecap="round" stroke-linejoin="round" stroke-width="1.4" d="M29.28 23L28 24.3l-3.27 3.48L3.68 7.79 1.77 6c-.288-.27-.456-.643-.467-1.038-.011-.394.135-.776.407-1.062l2.5-2.65h0c.268-.287.64-.455 1.032-.466.393-.012.774.135 1.058.406L8.52 3.3 29.28 23z" transform="translate(-279 -967) translate(255 944) translate(24 23.5) translate(0 1)"/>
                        <path stroke="#1D1D1B" stroke-linecap="round" stroke-linejoin="round" stroke-width="1.4" d="M31.3 29.3L29.49 28.88 24.77 27.78 28.03 24.3 29.28 22.98zM10.37 5.06L5.71 9.72M2.48 6.99L.98 8.62 12.78 19.66" transform="translate(-279 -967) translate(255 944) translate(24 23.5) translate(0 1)"/>
                    </g>
                </g>
            </g>
        </g>
    </g>
</svg>
