<svg xmlns="http://www.w3.org/2000/svg" width="32" height="32" viewBox="0 0 32 32">
    <g fill="none" fill-rule="evenodd">
        <g>
            <g>
                <g>
                    <g>
                        <path fill="#E0F1FA" fill-rule="nonzero" d="M29.5 13.71v11.42c-.004.742-.175 1.473-.5 2.14-.054.109-.141.196-.25.25-.67.326-1.405.494-2.15.49H5c-2.21 0-4-1.79-4-4V12.56c0-.74.164-1.471.48-2.14.057-.11.149-.197.26-.25.671-.321 1.406-.489 2.15-.49h21.58c1.071-.008 2.101.414 2.859 1.171.757.758 1.18 1.788 1.171 2.859z" transform="translate(-779 -1773) translate(755 1749) translate(24 24) translate(0 2)"/>
                        <path stroke="#1D1D1B" stroke-linecap="round" stroke-linejoin="round" stroke-width="1.4" d="M31.3 13v10.47c-.01 1.842-1.033 3.528-2.66 4.39-.711.378-1.505.573-2.31.57H5.67c-1.326 0-2.598-.527-3.536-1.464C1.197 26.028.67 24.756.67 23.43V13c0-2.761 2.239-5 5-5h20.66c2.75.016 4.97 2.25 4.97 5z" transform="translate(-779 -1773) translate(755 1749) translate(24 24) translate(0 2)"/>
                        <path stroke="#1D1D1B" stroke-linecap="round" stroke-linejoin="round" stroke-width="1.4" d="M29.8 10.06l-12.48 9.47c-.887.673-2.113.673-3 0L1.8 10M20.35 17.23L29.5 27.12M11.21 17.23L2.41 26.74M15.8.13L15.8 4.98M6.74 1.1L8.55 4.98M24.34 1.1L22.52 4.98" transform="translate(-779 -1773) translate(755 1749) translate(24 24) translate(0 2)"/>
                    </g>
                </g>
            </g>
        </g>
    </g>
</svg>
