<svg xmlns="http://www.w3.org/2000/svg" width="32" height="33" viewBox="0 0 32 33">
    <g fill="none" fill-rule="evenodd">
        <g>
            <g>
                <g>
                    <g>
                        <g>
                            <g>
                                <g>
                                    <path fill="#FFF" fill-rule="nonzero" d="M29.23 7.72C28 5.87 26.48 5.87 24.68 5.87H3.73c-.879-.001-1.74.241-2.49.7C.888 7.2.702 7.909.7 8.63v15c.014 1.68.916 3.228 2.37 4.07.811.482 1.737.737 2.68.74h20.5c.815.002 1.62-.187 2.35-.55.781-1.302 1.17-2.802 1.12-4.32v-12.9c.094-1.01-.075-2.025-.49-2.95zm-17.32 3.43c.694-.46 1.508-.703 2.34-.7 1.166.016 2.278.495 3.09 1.332.813.836 1.259 1.962 1.24 3.128.007.944-.287 1.865-.84 2.63-.693.471-1.512.722-2.35.72-2.426-.038-4.363-2.034-4.33-4.46 0-.95.297-1.877.85-2.65zM9 23.44c.207-.775.545-1.51 1-2.17 1.182-1.076 2.722-1.671 4.32-1.67 3.197.038 5.908 2.358 6.44 5.51H10.38c-.424.013-.83-.17-1.1-.497-.27-.326-.373-.76-.28-1.173z" transform="translate(-779 -8358) translate(0 602) translate(755 168) translate(0 6785) translate(0 780) translate(24 24) translate(0 1)"/>
                                    <path stroke="#1D1D1B" stroke-linecap="round" stroke-linejoin="round" stroke-width="1.4" d="M20.18 25.11H10.6c-.495-.011-.957-.255-1.244-.659-.288-.404-.368-.92-.216-1.391.197-.636.486-1.24.86-1.79 1.193-1.814 3.218-2.908 5.39-2.91 2.894.028 5.431 1.937 6.26 4.71.148.472.065.987-.224 1.388-.29.402-.751.643-1.246.652z" transform="translate(-779 -8358) translate(0 602) translate(755 168) translate(0 6785) translate(0 780) translate(24 24) translate(0 1)"/>
                                    <path stroke="#1D1D1B" stroke-linecap="round" stroke-linejoin="round" stroke-width="1.4" d="M27 4.28c1.44.2 2.725 1.009 3.53 2.22.492.742.759 1.61.77 2.5v14.67c-.024 1.816-1.068 3.464-2.7 4.26-.73.363-1.535.552-2.35.55H5.75c-.943-.003-1.869-.258-2.68-.74C1.616 26.898.714 25.35.7 23.67v-15c.002-.721.188-1.43.54-2.06.677-1.212 1.863-2.056 3.23-2.3L27 4.28z" transform="translate(-779 -8358) translate(0 602) translate(755 168) translate(0 6785) translate(0 780) translate(24 24) translate(0 1)"/>
                                    <path stroke="#1D1D1B" stroke-linecap="round" stroke-linejoin="round" stroke-width="1.4" d="M19.72 13.8c.003 1.503-.748 2.908-2 3.74-.693.471-1.512.722-2.35.72-2.426-.038-4.363-2.034-4.33-4.46 0-.95.297-1.877.85-2.65.802-1.127 2.097-1.8 3.48-1.81 1.169.013 2.284.49 3.1 1.328.816.836 1.266 1.963 1.25 3.132z" transform="translate(-779 -8358) translate(0 602) translate(755 168) translate(0 6785) translate(0 780) translate(24 24) translate(0 1)"/>
                                    <path fill="#FFF" fill-rule="nonzero" stroke="#1D1D1B" stroke-linecap="round" stroke-linejoin="round" stroke-width="1.4" d="M26 2.43v3.62c.049.63-.26 1.233-.798 1.562-.538.33-1.216.33-1.754 0S22.6 6.68 22.65 6.05V2.43c-.017-.935.725-1.708 1.66-1.73.45 0 .88.185 1.19.51.32.326.499.764.5 1.22h0zM8.92 2.83v3.62c0 .6-.32 1.155-.84 1.455-.52.3-1.16.3-1.68 0s-.84-.855-.84-1.455V2.83c-.008-.452.165-.888.48-1.21.316-.324.748-.507 1.2-.51.445 0 .87.18 1.18.5.321.325.5.763.5 1.22z" transform="translate(-779 -8358) translate(0 602) translate(755 168) translate(0 6785) translate(0 780) translate(24 24) translate(0 1)"/>
                                </g>
                            </g>
                        </g>
                    </g>
                </g>
            </g>
        </g>
    </g>
</svg>
