<svg xmlns="http://www.w3.org/2000/svg" width="32" height="32" viewBox="0 0 32 32">
    <g fill="none" fill-rule="evenodd">
        <g>
            <g>
                <g>
                    <path fill="#E0F1FA" fill-rule="nonzero" d="M17.27 2.37H2.2c-.45 0-.88.09-1.26.26-.16.38-.25.78-.25 1.21v22.38c0 1.7 1.38 3.08 3.08 3.08h14.1c.35 0 .68-.06.99-.17.42-.61.66-1.36.66-2.16V4.61c0-1.24-1.01-2.24-2.25-2.24zm-3.26 20.22c-.38.46-.85.85-1.39 1.13-.65.36-1.4.56-2.19.56-2.56 0-4.63-2.07-4.63-4.63 0-.53.08-1.04.25-1.52.38-.47.85-.85 1.39-1.14.66-.36 1.41-.56 2.2-.56 2.55 0 4.63 2.07 4.63 4.63 0 .54-.09 1.04-.26 1.53z" transform="translate(-279 -1086) translate(279 1086) translate(5 1)"/>
                    <path stroke="#1D1D1B" stroke-linecap="round" stroke-linejoin="round" stroke-width="1.4" d="M21.09 3.84v22.23c0 1.43-.93 2.65-2.22 3.06-.31.11-.65.16-1 .16H3.77c-1.7 0-3.08-1.38-3.08-3.08V3.84c0-.43.09-.84.25-1.21C1.41 1.53 2.5.76 3.77.76h14.24c1.7.01 3.08 1.38 3.08 3.08z" transform="translate(-279 -1086) translate(279 1086) translate(5 1)"/>
                    <path stroke="#1D1D1B" stroke-linecap="round" stroke-linejoin="round" stroke-width="1.4" d="M15.05 19.66c0 .96-.29 1.85-.79 2.59-.08.12-.17.23-.25.34-.38.46-.85.85-1.38 1.14-.65.36-1.4.56-2.2.56-2.56 0-4.63-2.07-4.63-4.63 0-.53.09-1.04.26-1.52.03-.09.06-.18.1-.26h.01c.7-1.67 2.35-2.85 4.27-2.85 2.54 0 4.61 2.07 4.61 4.63zM13.92 23.08L17.27 26.43M4.48 6.25L17.42 6.25M4.48 10.54L17.42 10.54" transform="translate(-279 -1086) translate(279 1086) translate(5 1)"/>
                </g>
            </g>
        </g>
    </g>
</svg>
