<svg xmlns="http://www.w3.org/2000/svg" width="32" height="33" viewBox="0 0 32 33">
    <g fill="none" fill-rule="evenodd">
        <g>
            <g>
                <g>
                    <g>
                        <g>
                            <g>
                                <path fill="#FFF" fill-rule="nonzero" d="M17.39 23.15c.004 2.659-1.154 5.186-3.17 6.92-4.135 2.252-9.304 1.01-11.964-2.875S.306 18.042 3.9 15c2.85-1.509 6.282-1.414 9.044.25 2.761 1.665 4.449 4.655 4.446 7.88v.02zM29.64 3l-1.12 13.18c-.042.507-.363.948-.832 1.144-.47.195-1.009.113-1.398-.214l-2.62-2.62c-.63-.63-1.35-.93-2-.41-.055.025-.103.063-.14.11l-3.91 3.59-.25.23-3.7-4.09-.6-.66c1.34-1.177 2.612-2.429 3.81-3.75.337-.67.2-1.48-.34-2l-1.47-1.45-.07-.28-.12-.29c-1-1-1.5-3.14.89-2.92L28.18 1.5c.406-.044.81.102 1.095.395.285.293.42.7.365 1.105z" transform="translate(-779 -9066) translate(0 602) translate(755 168) translate(0 6785) translate(0 1488) translate(24 24)"/>
                                <path stroke="#1D1D1B" stroke-linecap="round" stroke-linejoin="round" stroke-width="1.4" d="M13 13.27h0c1.34-1.177 2.612-2.429 3.81-3.75.337-.67.2-1.48-.34-2l-.74-.74-.73-.73-1.06-1.12c-.464-.449-.639-1.12-.45-1.737.187-.618.705-1.079 1.34-1.193L29.23.77c.545-.104 1.106.06 1.51.44.45.396.648 1.005.52 1.59L30 17.22c-.077.396-.293.75-.61 1l-.14.1c-.676.454-1.58.362-2.15-.22l-2.6-2.61c-.63-.63-1.36-.94-2-.42-.05 0-4.25 3.9-4.29 3.94M9.74 19.34c-.966-.108-1.846.56-2 1.52 0 .91 1 1.26 1.7 1.46.7.2 2 .32 2.28 1.29v.12c.15 1.08-1.1 1.67-2 1.67M11.47 19.54L9.74 19.34 9.74 17.99M9.74 26.75L9.74 25.4M7.8 25.17L9.74 25.4" transform="translate(-779 -9066) translate(0 602) translate(755 168) translate(0 6785) translate(0 1488) translate(24 24)"/>
                                <path stroke="#1D1D1B" stroke-linecap="round" stroke-linejoin="round" stroke-width="1.4" d="M18.7 22.09c-.164 4.96-4.232 8.897-9.195 8.897S.474 27.05.31 22.09c-.005-2.671 1.165-5.21 3.2-6.94 2.717-2.353 6.556-2.904 9.825-1.41 3.269 1.493 5.365 4.756 5.365 8.35z" transform="translate(-779 -9066) translate(0 602) translate(755 168) translate(0 6785) translate(0 1488) translate(24 24)"/>
                            </g>
                        </g>
                    </g>
                </g>
            </g>
        </g>
    </g>
</svg>
