<svg xmlns="http://www.w3.org/2000/svg" width="32" height="32" viewBox="0 0 32 32">
    <g fill="none" fill-rule="evenodd">
        <g>
            <g>
                <g>
                    <g>
                        <g transform="translate(-279 -2101) translate(0 602) translate(255 1475) translate(24 24) translate(7)">
                            <path fill="#FFF" fill-rule="nonzero" d="M14.5 7.3c-.031.048-.068.091-.11.13-.67.7-3.43 3-4.8 4.15-.332.28-.818.28-1.15 0-1.25-1.05-4.18-3.51-4.8-4.15-1.053-1.072-1.416-2.644-.94-4.07.565-.632 1.372-.995 2.22-1 1.148.012 2.2.638 2.76 1.64.1.183.292.296.5.296.208 0 .4-.113.5-.296.541-1.03 1.598-1.684 2.76-1.71 1.381.077 2.573.995 3 2.31.338.865.36 1.821.06 2.7z"/>
                            <path stroke="#1D1D1B" stroke-linecap="round" stroke-linejoin="round" stroke-width="1.4" d="M14.5 7.3c-.031.048-.068.091-.11.13-.67.7-3.43 3-4.8 4.15-.332.28-.818.28-1.15 0-1.25-1.05-4.18-3.51-4.8-4.15-1.053-1.072-1.416-2.644-.94-4.07.012-.051.029-.102.05-.15.422-1.319 1.617-2.239 3-2.31 1.161.03 2.216.684 2.76 1.71.104.177.294.286.5.286.206 0 .396-.109.5-.286.54-1.03 1.597-1.686 2.76-1.71 1.382.074 2.575.993 3 2.31.529 1.4.232 2.978-.77 4.09z"/>
                            <path fill="#FFF" fill-rule="nonzero" d="M16.34 18.49v2.59h-1.19c-.397.001-.74.28-.82.67l-1.43 7.31c-.215 1.123-1.196 1.937-2.34 1.94H4.22L1.87 20.62l-1.49-.48-.07-1v-1.51h15.17c.475 0 .86.385.86.86z"/>
                            <path stroke="#1D1D1B" stroke-linecap="round" stroke-linejoin="round" stroke-width="1.4" d="M16.13 20.17l-.05.21-.21 1L14 30.3c-.135.586-.658 1.001-1.26 1H5.2c-.606.006-1.134-.41-1.27-1L1.76 19.49"/>
                            <rect width="17.94" height="3.45" x=".05" y="16.03" stroke="#1D1D1B" stroke-linecap="round" stroke-linejoin="round" stroke-width="1.4" rx=".75"/>
                            <path stroke="#1D1D1B" stroke-linecap="round" stroke-linejoin="round" stroke-width="1.4" d="M9.01 15.58L9.01 14.18 9.01 11.88"/>
                        </g>
                    </g>
                </g>
            </g>
        </g>
    </g>
</svg>
