<svg xmlns="http://www.w3.org/2000/svg" width="32" height="32" viewBox="0 0 32 32">
    <g fill="none" fill-rule="evenodd" opacity=".75">
        <g>
            <g>
                <g transform="translate(-279 -825) translate(279 825) translate(0 1)">
                    <path fill="#E0F1FA" fill-rule="nonzero" d="M28.13 11.36l-6.36-.92c-.792-.115-1.476-.612-1.83-1.33l-2.85-5.77c-.307-.63-.874-1.095-1.552-1.274-.678-.178-1.4-.053-1.978.344-.352.23-.635.552-.82.93l-2.59 5.24-.26.53c-.35.716-1.031 1.214-1.82 1.33l-3.91.36c-1.151.11-2.232.602-3.07 1.4-.117.118-.244.225-.38.32l.08-.83c-.218.83.03 1.715.65 2.31l4.61 4.49c.57.559.829 1.363.69 2.15L5.66 27c-.154.91.22 1.828.967 2.37.746.544 1.735.617 2.553.19l5.69-3c.708-.37 1.552-.37 2.26 0l5.69 3c.76.41 1.682.375 2.41-.09.07-.31 1.46-1.06 1.4-1.41l-.86-4.38c-.13-.79-1.47-3.14-.9-3.7l.46-.45 4.15-4c.29-.275.507-.619.63-1 .223-.686.13-1.435-.251-2.047-.382-.611-1.015-1.022-1.729-1.123zm-10.81 8.9c-.583.277-1.215.433-1.86.46h-.3c-2.807-.022-5.07-2.303-5.07-5.11-.001-.573.097-1.141.29-1.68 0-.1.06-.19.1-.29 0-.06 0-.11.07-.17.304-.696.913-1.213 1.65-1.4.38-.064.765-.088 1.15-.07 1.9-.006 3.645 1.042 4.533 2.721.888 1.68.771 3.713-.303 5.279-.061.094-.128.184-.2.27l-.06-.01z"/>
                    <path stroke="#1D1D1B" stroke-linecap="round" stroke-linejoin="round" stroke-width="1.4" d="M18.79 19.13L22.53 22.87M30.56 13.84l-.45.43h0l-4.15 4c-.29.276-.505.62-.63 1-.113.366-.137.753-.07 1.13l1.08 6.34c.171.973-.269 1.952-1.11 2.47-.728.465-1.65.5-2.41.09l-5.69-3c-.708-.37-1.552-.37-2.26 0l-5.69 3c-.818.427-1.807.354-2.553-.19-.747-.542-1.121-1.46-.967-2.37l1.08-6.34c.139-.787-.12-1.591-.69-2.15l-4.61-4.41c-.63-.601-.88-1.5-.65-2.34h0c.24-.949 1.03-1.657 2-1.79l6.36-.92c.357-.058.698-.19 1-.39.365-.233.66-.561.85-.95l2.58-5.23.26-.53C14.249.86 15.094.334 16.02.334c.926 0 1.771.526 2.18 1.356L21 7.45c.357.715 1.04 1.212 1.83 1.33l6.37.92c.916.13 1.678.769 1.966 1.647.29.879.054 1.845-.606 2.493z"/>
                    <circle cx="15.03" cy="15.73" r="4.9" stroke="#1D1D1B" stroke-width="1.4"/>
                </g>
            </g>
        </g>
    </g>
</svg>
