<svg xmlns="http://www.w3.org/2000/svg" width="32" height="33" viewBox="0 0 32 33">
    <g fill="none" fill-rule="evenodd">
        <g>
            <g>
                <g>
                    <g>
                        <g>
                            <g transform="translate(-779 -1509) translate(0 602) translate(755 168) translate(0 716) translate(24 24) translate(4)">
                                <path fill="#FFF" fill-rule="nonzero" d="M19.18 2.28H1.41c-.377-.004-.75.079-1.09.24-.174.383-.263.8-.26 1.22v25c-.022.732.249 1.443.751 1.975.503.533 1.197.844 1.929.865h17.77c.38 0 .756-.086 1.1-.25.165-.36.25-.753.25-1.15v-25c.032-.74-.232-1.464-.736-2.008-.503-.545-1.203-.866-1.944-.892zM6.88 6.6c1.158-.748 2.633-.802 3.843-.14 1.21.66 1.961 1.931 1.957 3.31.023.798-.216 1.581-.68 2.23-.594.392-1.288.604-2 .61-1.414-.015-2.7-.82-3.332-2.084C6.035 9.262 6.164 7.75 7 6.61l-.12-.01zM4.37 17c.171-.668.46-1.301.85-1.87 1.542-1.35 3.69-1.769 5.625-1.097 1.936.673 3.362 2.332 3.735 4.347H5.44c-.34-.002-.662-.16-.87-.43-.21-.27-.283-.62-.2-.95z"/>
                                <path stroke="#1D1D1B" stroke-linecap="round" stroke-linejoin="round" stroke-width="1.4" d="M23.51 3.53v25c.005 1.077-.605 2.063-1.57 2.54-.344.164-.72.25-1.1.25H3.06C1.534 31.271.335 29.996.38 28.47v-25c0-.421.093-.838.27-1.22C1.058 1.277 2.005.64 3.06.63h17.78c.74.029 1.437.35 1.938.895.501.544.764 1.266.732 2.005z"/>
                                <path stroke="#1D1D1B" stroke-linecap="round" stroke-linejoin="round" stroke-width="1.4" d="M14.07 18.39H5.75c-.426.002-.828-.201-1.08-.546-.25-.344-.321-.788-.19-1.194.173-.536.422-1.045.74-1.51 1.236-1.794 3.386-2.726 5.54-2.403 2.154.323 3.935 1.846 4.59 3.923.123.406.047.846-.205 1.187-.252.341-.65.542-1.075.543z"/>
                                <circle cx="9.91" cy="8.83" r="3.76" stroke="#1D1D1B" stroke-linecap="round" stroke-linejoin="round" stroke-width="1.4"/>
                                <path stroke="#1D1D1B" stroke-linecap="round" stroke-linejoin="round" stroke-width="1.4" d="M13.67 8.83c.02 1.272-.609 2.467-1.67 3.17-.592.395-1.288.607-2 .61-1.526.004-2.903-.912-3.49-2.32-.587-1.409-.267-3.032.81-4.112 1.078-1.08 2.7-1.405 4.11-.822 1.41.583 2.33 1.958 2.33 3.484l-.09-.01zM4.21 22.82L19.15 22.82M4.21 27.26L19.15 27.26"/>
                            </g>
                        </g>
                    </g>
                </g>
            </g>
        </g>
    </g>
</svg>
