<svg xmlns="http://www.w3.org/2000/svg" width="32" height="32" viewBox="0 0 32 32">
    <g fill="none" fill-rule="evenodd">
        <g>
            <g>
                <g>
                    <g>
                        <g>
                            <path fill="#FFF" fill-rule="nonzero" d="M27 5l-5.7 21.84c-.114.4-.357.751-.69 1-.202-.068-.391-.17-.56-.3l-4.76-3.64c-1.225-.923-2.797-1.252-4.29-.9l-.74.17c-.336 0-.672.036-1 .11L7 23.74c-.533-.05-1.018-.327-1.333-.759-.316-.432-.431-.978-.317-1.501l.49-2.43c.376-1.822-.258-3.706-1.66-4.93L1.42 11.3c-.71-.7-.85-2.75.52-3.28L24.19 1c.938.084 1.792.577 2.333 1.348.542.77.716 1.74.477 2.652z" transform="translate(-279 -989) translate(0 602) translate(255 363) translate(24 24) translate(1.5 2)"/>
                            <path stroke="#1D1D1B" stroke-linecap="round" stroke-linejoin="round" stroke-width="1.4" d="M7 23.74c.201.04.409.04.61 0l2.61-.59L11 23c1.5-.338 3.073.01 4.29.95L20 27.57c.169.13.358.232.56.3h0c.499.17 1.045.124 1.508-.127.464-.25.801-.683.932-1.193l5.72-21.88c.304-1.16-.064-2.392-.954-3.196C26.876.671 25.613.43 24.49.85l-.3.1L1.94 8c-1.37.53-1.23 2.58-.52 3.28l2.8 2.82c1.402 1.224 2.036 3.108 1.66 4.93l-.49 2.43c-.12.52-.013 1.065.294 1.5.308.436.786.72 1.316.78M8.65 15.98L21.82 6.29" transform="translate(-279 -989) translate(0 602) translate(255 363) translate(24 24) translate(1.5 2)"/>
                        </g>
                    </g>
                </g>
            </g>
        </g>
    </g>
</svg>
