<?xml version="1.0" encoding="UTF-8"?>
<svg width="32px" height="29px" viewBox="0 0 32 29" version="1.1" xmlns="http://www.w3.org/2000/svg" xmlns:xlink="http://www.w3.org/1999/xlink">
    <title>Icon</title>
    <g id="Manage-your-company" stroke="none" stroke-width="1" fill="none" fill-rule="evenodd">
        <g id="manage-your-company@2x" transform="translate(-279.000000, -1758.000000)" fill-rule="nonzero">
            <g id="Providing-everything-you-need-when-you-need-it" transform="translate(0.000000, 780.000000)">
                <g id="Modul/Icon-Box/Simple-Copy-8" transform="translate(255.000000, 952.000000)">
                    <g id="Group" transform="translate(24.000000, 24.000000)">
                        <g id="20200406_ICON_ICON-102" transform="translate(0.000000, 2.000000)">
                            <path d="M27.9,5.23 C28.3101125,5.22722176 28.7039447,5.39028758 28.9920555,5.68216456 C29.2801663,5.97404155 29.4381039,6.36995812 29.43,6.78 L29.52,18.93 C29.487095,19.9857874 29.1075634,21.001386 28.44,21.82 C27.3283887,23.2152546 25.6535592,24.0435073 23.87,24.08 L4.87,24.08 C2.40025895,24.0091373 0.449568451,21.9602427 0.5,19.49 L0.5,8.29 C0.5,6.59448582 1.87448582,5.22 3.57,5.22 L27.9,5.23 Z" id="Path" fill="#F6C4C6"></path>
                            <path d="M19.56,24.61 L16.56,24.61 C16.1734007,24.61 15.8600001,24.2965993 15.8600001,23.91 C15.8600001,23.5234007 16.1734007,23.21 16.56,23.21 L19.56,23.21 C19.9465993,23.21 20.2599999,23.5234007 20.2599999,23.91 C20.2599999,24.2965993 19.9465993,24.61 19.56,24.61 L19.56,24.61 Z" id="Path" fill="#1D1D1B"></path>
                            <path d="M12.82,24.61 L7.2,24.61 C6.8134007,24.61 6.50000006,24.2965993 6.50000006,23.91 C6.50000006,23.5234007 6.8134007,23.21 7.2,23.21 L12.82,23.21 C13.0700859,23.21 13.3011749,23.3434192 13.4262178,23.56 C13.5512608,23.7765807 13.5512608,24.0434193 13.4262178,24.26 C13.3011749,24.4765808 13.0700859,24.61 12.82,24.61 L12.82,24.61 Z M3.45,24.61 L3.39,24.61 C1.45766109,24.4379892 -0.0180708261,22.8098956 -3.11437074e-17,20.87 L-3.11437074e-17,19.74 C5.76077879e-09,19.3534007 0.313400679,19.04 0.7,19.04 C1.08659932,19.04 1.39999999,19.3534007 1.4,19.74 L1.4,20.87 C1.39508004,22.0790837 2.31582627,23.0910359 3.52,23.2 C3.90659931,23.21933 4.20432992,23.5484007 4.18499996,23.935 C4.16566999,24.3215993 3.83659931,24.6193299 3.45,24.6 L3.45,24.61 Z M0.7,16.69 C0.317272485,16.69 0.00546753397,16.3826885 -5.55165722e-16,16 L-5.55165722e-16,10.37 C0.00537631463,9.98564964 0.315649643,9.67537631 0.7,9.67 C0.885651543,9.67 1.06369928,9.74374979 1.19497475,9.87502525 C1.32625021,10.0063007 1.4,10.1843485 1.4,10.37 L1.4,16 C1.39453247,16.3826885 1.08272752,16.69 0.7,16.69 Z" id="Shape" fill="#1D1D1B"></path>
                            <path d="M0.7,7.32 C0.313400675,7.32 0,7.00659932 0,6.62 L0,3.62 C0,3.23340068 0.313400675,2.92 0.7,2.92 L3.7,2.92 C4.08659931,2.92 4.39999997,3.23340069 4.39999997,3.62 C4.39999997,4.00659931 4.08659931,4.31999998 3.7,4.32 L1.4,4.32 L1.4,6.62 C1.4,7.00659932 1.08659932,7.32 0.7,7.32 L0.7,7.32 Z" id="Path" fill="#1D1D1B"></path>
                            <path d="M24,4.32 L17.93,4.32 C17.5434007,4.32 17.23,4.00659932 17.23,3.62 C17.23,3.23340068 17.5434007,2.92 17.93,2.92 L24,2.92 C24.3865993,2.92 24.7,3.23340069 24.7,3.62 C24.7,4.00659931 24.3865993,4.32 24,4.32 L24,4.32 Z M13.84,4.32 L7.77,4.32 C7.38340068,4.32 7.07,4.00659932 7.07,3.62 C7.07,3.23340068 7.38340068,2.92 7.77,2.92 L13.86,2.92 C14.1100859,2.92 14.3411748,3.05341923 14.4662178,3.26999999 C14.5912608,3.48658075 14.5912608,3.75341925 14.4662178,3.97000001 C14.3411748,4.18658077 14.1100859,4.32 13.86,4.32 L13.84,4.32 Z" id="Shape" fill="#1D1D1B"></path>
                            <path d="M31.09,7.32 C30.7034007,7.32 30.39,7.00659932 30.39,6.62 L30.39,4.32 L28.09,4.32 C27.7034007,4.32 27.39,4.00659932 27.39,3.62 C27.39,3.23340068 27.7034007,2.92 28.09,2.92 L31.09,2.92 C31.4765993,2.92 31.79,3.23340068 31.79,3.62 L31.79,6.62 C31.79,7.00659932 31.4765993,7.32 31.09,7.32 Z" id="Path" fill="#1D1D1B"></path>
                            <path d="M31.09,12.45 C30.7034007,12.45 30.39,12.1365993 30.39,11.75 L30.39,8.67 C30.39,8.41991407 30.5234192,8.18882514 30.74,8.06378217 C30.9565807,7.9387392 31.2234193,7.9387392 31.44,8.06378217 C31.6565808,8.18882514 31.79,8.41991407 31.79,8.67 L31.79,11.75 C31.79,12.1365993 31.4765993,12.45 31.09,12.45 Z" id="Path" fill="#1D1D1B"></path>
                            <path d="M31.09,17.5 C30.7034007,17.5 30.39,17.1865993 30.39,16.8 L30.39,13.8 C30.39,13.5499141 30.5234192,13.3188251 30.74,13.1937822 C30.9565807,13.0687392 31.2234193,13.0687392 31.44,13.1937822 C31.6565808,13.3188251 31.79,13.5499141 31.79,13.8 L31.79,16.8 C31.79,17.1865993 31.4765993,17.5 31.09,17.5 Z" id="Path" fill="#1D1D1B"></path>
                            <path d="M27.42,10 L4.3,10 C3.91340068,10 3.6,10.3134007 3.6,10.7 C3.6,11.0865993 3.91340068,11.4 4.3,11.4 L11.46,11.4 L11.46,12.89 C11.46,13.9614324 12.3285676,14.83 13.4,14.83 L18.32,14.83 C19.3914324,14.83 20.26,13.9614324 20.26,12.89 L20.26,11.38 L27.42,11.38 C27.8065993,11.38 28.12,11.0665993 28.12,10.68 C28.12,10.2934007 27.8065993,9.98 27.42,9.98 L27.42,10 Z M18.86,12.89 C18.86,13.1882338 18.6182338,13.43 18.32,13.43 L13.4,13.43 C13.2567831,13.43 13.119432,13.3731073 13.0181623,13.2718377 C12.9168927,13.170568 12.86,13.0332169 12.86,12.89 L12.86,11.38 L18.86,11.38 L18.86,12.89 Z" id="Shape" fill="#1D1D1B"></path>
                            <path d="M10.83,4.32 C11.2143504,4.31462369 11.5246237,4.00435036 11.53,3.62 L11.53,2.23 C11.53,1.76055796 11.910558,1.38 12.38,1.38 L19.38,1.38 C19.849442,1.38 20.23,1.76055796 20.23,2.23 L20.23,3.62 C20.23,4.00659932 20.5434007,4.32 20.93,4.32 C21.3165993,4.32 21.63,4.00659932 21.63,3.62 L21.63,2.23 C21.6191403,1.00293137 20.6270686,0.0108596504 19.4,0 L12.4,0 C11.1573593,0 10.1499999,1.00735931 10.1499999,2.25 L10.1499999,3.62 C10.1498453,3.99892163 10.451233,4.3091737 10.83,4.32 L10.83,4.32 Z" id="Path" fill="#1D1D1B"></path>
                            <path d="M24.3,28.23 C23.9134007,28.23 23.6,27.9165993 23.6,27.53 C23.6,22.23 22.67,21.3 17.37,21.3 C16.9834007,21.3 16.67,20.9865993 16.67,20.6 C16.67,20.2134007 16.9834007,19.9 17.37,19.9 C22.67,19.9 23.6,18.97 23.6,13.67 C23.6,13.2834007 23.9134007,12.97 24.3,12.97 C24.6865993,12.97 25,13.2834007 25,13.67 C25,18.97 25.93,19.9 31.23,19.9 C31.6165993,19.9 31.93,20.2134007 31.93,20.6 C31.93,20.9865993 31.6165993,21.3 31.23,21.3 C25.93,21.3 25,22.23 25,27.53 C25,27.9165993 24.6865993,28.23 24.3,28.23 L24.3,28.23 Z M22.21,20.6 C23.1479491,21.004284 23.895716,21.7520509 24.3,22.69 C24.704284,21.7520509 25.4520509,21.004284 26.39,20.6 C25.4520509,20.195716 24.704284,19.4479491 24.3,18.51 C23.895716,19.4479491 23.1479491,20.195716 22.21,20.6 Z" id="Shape" fill="#1D1D1B"></path>
                        </g>
                    </g>
                </g>
            </g>
        </g>
    </g>
</svg>