<svg xmlns="http://www.w3.org/2000/svg" width="32" height="33" viewBox="0 0 32 33">
    <g fill="none" fill-rule="evenodd">
        <g>
            <g>
                <g>
                    <g>
                        <g>
                            <g transform="translate(-779 -1880) translate(0 602) translate(755 168) translate(0 1087) translate(24 24) translate(0 1)">
                                <path fill="#FFF" fill-rule="nonzero" d="M15.78 8c.004 1.339-.424 2.643-1.22 3.72-1.015.658-2.2 1.006-3.41 1-2.366-.004-4.53-1.337-5.596-3.45-1.067-2.111-.856-4.644.546-6.55 1.011-.659 2.193-1.006 3.4-1 1.666 0 3.263.662 4.44 1.84 1.178 1.177 1.84 2.774 1.84 4.44zM22.05 22.57v4.05c0 1.105-.895 2-2 2h-8.73l-.12-5H1.05c0-2.15.55-5.25 1.69-6.9 1.86-1.627 4.249-2.523 6.72-2.52 3.014-.071 5.911 1.17 7.94 3.4 1.5 1.58 1.67 3.39 2.19 3.14h1.08c.71 0 1.38.66 1.38 1.83z"/>
                                <circle cx="10.73" cy="6.8" r="6.28" stroke="#1D1D1B" stroke-linecap="round" stroke-linejoin="round" stroke-width="1.4"/>
                                <path stroke="#1D1D1B" stroke-linecap="round" stroke-linejoin="round" stroke-width="1.4" d="M21 20.28v-2.93c0-2.844 2.306-5.15 5.15-5.15 2.844 0 5.15 2.306 5.15 5.15h-2.54c0-1.447-1.173-2.62-2.62-2.62s-2.62 1.173-2.62 2.62v2.93M10.73 23.28H2.42c-.52-.004-1.01-.24-1.336-.646-.326-.405-.452-.935-.344-1.444.284-1.33.828-2.59 1.6-3.71 1.902-2.758 5.04-4.403 8.39-4.4 4.56.113 8.608 2.951 10.27 7.2"/>
                                <path stroke="#1D1D1B" stroke-linecap="round" stroke-linejoin="round" stroke-width="1.4" d="M11.21 20.28v6.84c0 1.105.895 2 2 2h8.32c1.105 0 2-.895 2-2v-6.84H11.21zM17.39 23.34L17.39 26.08"/>
                            </g>
                        </g>
                    </g>
                </g>
            </g>
        </g>
    </g>
</svg>
