<svg xmlns="http://www.w3.org/2000/svg" width="32" height="33" viewBox="0 0 32 33">
    <g fill="none" fill-rule="evenodd">
        <g>
            <g>
                <g>
                    <g>
                        <g>
                            <g>
                                <g>
                                    <path fill="#FCE7D0" fill-rule="nonzero" d="M28.38 13.91v9.19c.005.087.005.173 0 .26-.167.04-.338.06-.51.06h-3.55l.36 3.09L22.74 25l.05.42-3.56-2H12c-.534.03-1.058-.155-1.454-.514-.397-.359-.633-.862-.656-1.396V14H8.68l-5.45 3.07.36-3.07H2.22c-.536.03-1.06-.157-1.458-.518-.396-.36-.631-.866-.652-1.402v-9.2c-.005-.087-.005-.173 0-.26.167-.04.338-.06.51-.06h15.84c.534-.03 1.058.155 1.454.514.397.359.633.862.656 1.396V12h7.7c.534-.03 1.058.155 1.454.514.397.359.633.862.656 1.396z" transform="translate(-779 -6551) translate(0 602) translate(755 168) translate(0 4538) translate(0 1220) translate(24 24) translate(1 3)"/>
                                    <path stroke="#1D1D1B" stroke-linecap="round" stroke-linejoin="round" stroke-width="1.4" d="M20.14 2.88v9.18c-.015.545-.252 1.06-.656 1.427-.404.366-.94.551-1.484.513H8.68l-5.45 3.07.36-3.07H2.22c-.536.03-1.06-.157-1.458-.518-.396-.36-.631-.866-.652-1.402v-9.2c-.005-.087-.005-.173 0-.26C.327 1.64 1.217.957 2.22 1H18c.534-.038 1.061.139 1.463.492.402.354.646.854.677 1.388zM15.86 5.09L4.23 5.09M15.86 8.65L4.23 8.65M25.76 17.95L14.13 17.95" transform="translate(-779 -6551) translate(0 602) translate(755 168) translate(0 4538) translate(0 1220) translate(24 24) translate(1 3)"/>
                                    <path stroke="#1D1D1B" stroke-linecap="round" stroke-linejoin="round" stroke-width="1.4" d="M30 12.32v9.19c-.05.909-.708 1.67-1.6 1.85-.167.04-.338.06-.51.06h-3.57l.19 1.58.17 1.5-1.89-1.08-3.56-2H12c-.534.03-1.058-.155-1.454-.514-.397-.359-.633-.862-.656-1.396V14H18c.534.027 1.056-.16 1.451-.521s.628-.865.649-1.399v-1.67h7.71c.547-.053 1.092.122 1.506.484.414.36.662.877.684 1.426z" transform="translate(-779 -6551) translate(0 602) translate(755 168) translate(0 4538) translate(0 1220) translate(24 24) translate(1 3)"/>
                                </g>
                            </g>
                        </g>
                    </g>
                </g>
            </g>
        </g>
    </g>
</svg>
