<?xml version="1.0" encoding="UTF-8"?>
<svg width="32px" height="32px" viewBox="0 0 32 32" version="1.1" xmlns="http://www.w3.org/2000/svg" xmlns:xlink="http://www.w3.org/1999/xlink">
    <title>Icon</title>
    <g id="Manage-your-company" stroke="none" stroke-width="1" fill="none" fill-rule="evenodd">
        <g id="manage-your-company@2x" transform="translate(-695.000000, -1756.000000)">
            <g id="Providing-everything-you-need-when-you-need-it" transform="translate(0.000000, 780.000000)">
                <g id="Modul/Icon-Box/Simple-Copy-7" transform="translate(671.000000, 952.000000)">
                    <g id="Group" transform="translate(24.000000, 24.000000)">
                        <g id="20200406_ICON_ICON-103" transform="translate(0.000000, 1.000000)">
                            <path d="M28.13,11.36 L21.77,10.44 C20.9782474,10.3249592 20.2938561,9.82756009 19.94,9.11 L17.09,3.34 C16.7825675,2.70991752 16.2159993,2.24494152 15.5380487,2.0663313 C14.860098,1.88772107 14.1379753,2.0131836 13.56,2.41 C13.2080162,2.64062876 12.9247382,2.96190742 12.74,3.34 L10.15,8.58 L9.89,9.11 C9.53945445,9.8260651 8.85871183,10.3235309 8.07,10.44 L4.16,10.8 C3.00869291,10.9094449 1.92752873,11.402484 1.09,12.2 C0.972889168,12.3175241 0.845739574,12.4245975 0.71,12.52 L0.79,11.69 C0.572022798,12.5208966 0.820711386,13.4046976 1.44,14 L6.05,18.49 C6.62074198,19.0488664 6.87893382,19.8533772 6.74,20.64 L5.66,27 C5.50598443,27.9097139 5.88046071,28.8281761 6.6266486,29.3708582 C7.37283648,29.9135403 8.36199587,29.9868132 9.18,29.56 L14.87,26.56 C15.5779242,26.1900906 16.4220758,26.1900906 17.13,26.56 L22.82,29.56 C23.5801889,29.9693645 24.5024608,29.9349228 25.23,29.47 C25.3,29.16 26.69,28.41 26.63,28.06 L25.77,23.68 C25.64,22.89 24.3,20.54 24.87,19.98 L25.33,19.53 L29.48,15.53 C29.7707425,15.2549415 29.9874236,14.9110032 30.11,14.53 L30.11,14.53 C30.3327823,13.8442356 30.240848,13.095051 29.8588688,12.4834984 C29.4768895,11.8719457 28.8439842,11.4606547 28.13,11.36 Z M17.32,20.26 C16.7371226,20.5365181 16.1045749,20.6929547 15.46,20.72 L15.16,20.72 C12.3534584,20.6980303 10.0899847,18.4166276 10.0899847,15.61 C10.088575,15.0374254 10.1867027,14.4689618 10.38,13.93 C10.38,13.83 10.44,13.74 10.48,13.64 L10.48,13.64 C10.48,13.58 10.48,13.53 10.55,13.47 C10.8541999,12.7735013 11.4632619,12.2567214 12.2,12.07 C12.5797226,12.0055701 12.9652661,11.9821023 13.35,12 C15.2493922,11.994188 16.9953085,13.0422777 17.883147,14.7214048 C18.7709854,16.4005319 18.6542301,18.4335535 17.58,20 C17.5190249,20.0940798 17.4522279,20.1842556 17.38,20.27 L17.32,20.26 Z" id="Shape" fill="#E0F1FA" fill-rule="nonzero"></path>
                            <line x1="18.79" y1="19.13" x2="22.53" y2="22.87" id="Path" stroke="#1D1D1B" stroke-width="1.4" stroke-linecap="round" stroke-linejoin="round"></line>
                            <path d="M30.56,13.84 L30.11,14.27 L30.11,14.27 L25.96,18.27 C25.6709015,18.5464053 25.4545009,18.8898982 25.33,19.27 C25.2168857,19.6356945 25.1928846,20.0231408 25.26,20.4 L26.34,26.74 C26.5112665,27.7130234 26.0713117,28.6920219 25.23,29.21 C24.5024608,29.6749228 23.5801889,29.7093645 22.82,29.3 L17.13,26.3 C16.4220758,25.9300906 15.5779242,25.9300906 14.87,26.3 L9.18,29.3 C8.36199587,29.7268132 7.37283648,29.6535403 6.6266486,29.1108582 C5.88046071,28.5681761 5.50598443,27.6497139 5.66,26.74 L6.74,20.4 C6.87893382,19.6133772 6.62074198,18.8088664 6.05,18.25 L1.44,13.84 C0.809787506,13.2387119 0.56019577,12.3401816 0.79,11.5 L0.79,11.5 C1.02953159,10.5514743 1.82081757,9.84327336 2.79,9.71 L9.15,8.79 C9.50722805,8.73242112 9.84811198,8.59947639 10.15,8.4 C10.5151122,8.16729853 10.8091737,7.8386415 11,7.45 L13.58,2.22 L13.84,1.69 C14.2489723,0.859518597 15.0942799,0.333545528 16.02,0.333545528 C16.9457201,0.333545528 17.7910277,0.859518597 18.2,1.69 L21,7.45 C21.3565541,8.16528158 22.0395816,8.6616896 22.83,8.78 L29.2,9.7 C30.1155521,9.83021981 30.8778329,10.4688237 31.166447,11.347399 C31.4550611,12.2259744 31.2199758,13.1922155 30.56,13.84 Z" id="Path" stroke="#1D1D1B" stroke-width="1.4" stroke-linecap="round" stroke-linejoin="round"></path>
                            <circle id="Oval" stroke="#1D1D1B" stroke-width="1.4" cx="15.03" cy="15.73" r="4.9"></circle>
                        </g>
                    </g>
                </g>
            </g>
        </g>
    </g>
</svg>