<svg xmlns="http://www.w3.org/2000/svg" width="32" height="33" viewBox="0 0 32 33">
    <g fill="none" fill-rule="evenodd">
        <g>
            <g>
                <g>
                    <g>
                        <g>
                            <g transform="translate(-779 -2622) translate(0 602) translate(755 168) translate(0 1829) translate(24 24) translate(0 3)">
                                <path fill="#FFF" fill-rule="nonzero" d="M12.11 19.28v4.25c.336 0 .657.138.89.38H2.45c-.34-.002-.664-.145-.893-.396-.23-.25-.345-.585-.317-.924.117-1.875.635-3.703 1.52-5.36.068-.088.149-.166.24-.23 1.822-1.534 4.128-2.374 6.51-2.37 1.809-.018 3.589.456 5.15 1.37.934.546 1.772 1.242 2.48 2.06h-3.79c-.01.677-.563 1.22-1.24 1.22zM15.78 8c.002 1.339-.425 2.643-1.22 3.72-1.015.658-2.2 1.006-3.41 1-2.363-.011-4.52-1.345-5.585-3.455C4.5 7.156 4.706 4.628 6.1 2.72c1.933-1.237 4.387-1.323 6.402-.224 2.015 1.1 3.271 3.209 3.278 5.504z"/>
                                <circle cx="10.73" cy="6.86" r="6.28" stroke="#1D1D1B" stroke-linecap="round" stroke-linejoin="round" stroke-width="1.4"/>
                                <path stroke="#1D1D1B" stroke-linecap="round" stroke-linejoin="round" stroke-width="1.4" d="M12.11 23.34H2.42c-.52-.004-1.01-.24-1.336-.646-.326-.405-.452-.935-.344-1.444.284-1.33.828-2.59 1.6-3.71 1.902-2.758 5.04-4.403 8.39-4.4 2.49.094 4.853 1.114 6.63 2.86"/>
                                <path fill="#FFF" fill-rule="nonzero" d="M9.81 16v10.82h21.48V16H9.81zM29 23.53c-.328 0-.642.13-.873.364-.231.233-.36.548-.357.876H13.35c.003-.322-.123-.632-.35-.86-.233-.242-.554-.38-.89-.38v-4.25c.68 0 1.235-.55 1.24-1.23h14.41c0 .328.13.642.364.873.233.231.548.36.876.357v4.25z"/>
                                <path stroke="#1D1D1B" stroke-linecap="round" stroke-linejoin="round" stroke-width="1.4" d="M9.81 15.99H31.29V26.82H9.81z"/>
                                <path stroke="#1D1D1B" stroke-linecap="round" stroke-linejoin="round" stroke-width="1.4" d="M27 24.61H14c0-.85-.69-1.54-1.54-1.54v-3.28c.85 0 1.54-.69 1.54-1.54h13c0 .85.69 1.54 1.54 1.54v3.28c-.85 0-1.54.69-1.54 1.54z"/>
                            </g>
                        </g>
                    </g>
                </g>
            </g>
        </g>
    </g>
</svg>
