<svg xmlns="http://www.w3.org/2000/svg" width="32" height="32" viewBox="0 0 32 32">
    <g fill="none" fill-rule="evenodd">
        <g>
            <g>
                <g>
                    <g>
                        <g>
                            <path fill="#FFF" fill-rule="nonzero" d="M30.352 16.756c.262.037.48.22.561.473.081.252.01.529-.183.71l-.31.301-.146.145-1.707 1.659.107.64.417 2.414c.052.252-.05.512-.26.66-.21.15-.489.16-.71.029l-2.182-1.145-.533-.339-2.676 1.406c-.23.106-.5.078-.702-.074-.203-.152-.306-.403-.268-.653l.504-2.977-1.94-1.862-.251-.242c-.186-.185-.252-.458-.172-.707.08-.25.292-.433.55-.476l2.909-.427h.048l1.184-2.395.155-.31c.114-.24.356-.39.62-.39.265 0 .506.15.62.39l1.34 2.705 3.025.465z" transform="translate(-779 -7355) translate(755 6126) translate(0 1205) translate(24 24) translate(0 4)"/>
                            <path fill="#FFF" fill-rule="nonzero" d="M25.396 4.247c-.895-1.172-2.297-1.846-3.772-1.813H3.2c-.74-.003-1.47.177-2.124.524C.84 3.39.707 3.87.688 4.364v12.12c.038 1.394.84 2.654 2.085 3.278.724.393 1.534.6 2.357.602l17.3-.126 3.635-2.105V6.293c-.001-.735-.236-1.451-.669-2.046zM12.606 14.75c-.765.005-1.455-.461-1.736-1.173l-.795-2.046H7.67l-.795 2.046c-.278.71-.962 1.18-1.726 1.183H3.714l3.879-10.24h2.618l3.879 10.24-1.484-.01z" transform="translate(-779 -7355) translate(755 6126) translate(0 1205) translate(24 24) translate(0 4)"/>
                            <path stroke="#1D1D1B" stroke-linecap="round" stroke-linejoin="round" stroke-width="1.4" d="M22.38 20.364H5.13c-.823 0-1.632-.203-2.357-.592-1.248-.626-2.05-1.89-2.085-3.287V4.364c.001-.488.114-.97.33-1.406h0c.034-.085.077-.166.126-.243C1.941 1.514 3.3.807 4.742.844h18.473c1.474-.033 2.876.64 3.772 1.813.433.594.667 1.31.669 2.046v11.782M17.261 9.842L22.836 9.842" transform="translate(-779 -7355) translate(755 6126) translate(0 1205) translate(24 24) translate(0 4)"/>
                            <path stroke="#1D1D1B" stroke-linecap="round" stroke-linejoin="round" stroke-width="1.4" d="M8.824 11.52H7.67l-.795 2.056c-.278.71-.962 1.18-1.726 1.183H3.714L7.098 5.74c.287-.733.988-1.22 1.775-1.232h0c.796-.013 1.515.476 1.794 1.222l3.384 9.018h-1.445c-.765.005-1.455-.461-1.736-1.173l-.795-2.046H8.921M30.536 16.902c.26.036.477.216.56.466.081.249.015.523-.172.707l-.31.31-.156.146-1.706 1.658.116.63.417 2.454c.052.252-.05.511-.26.66-.21.15-.489.16-.71.028h0l-2.133-1.173-.572-.3-2.677 1.405h0c-.23.107-.5.078-.702-.074-.202-.152-.305-.403-.267-.653l.514-2.977-1.94-1.862-.262-.252c-.187-.184-.253-.458-.171-.707.082-.25.3-.43.56-.466l2.908-.427h.059l1.183-2.395.155-.31c.116-.234.355-.38.615-.38.261 0 .5.146.616.38l1.348 2.715 2.987.417z" transform="translate(-779 -7355) translate(755 6126) translate(0 1205) translate(24 24) translate(0 4)"/>
                        </g>
                    </g>
                </g>
            </g>
        </g>
    </g>
</svg>
