<?xml version="1.0" encoding="UTF-8"?>
<svg width="28px" height="32px" viewBox="0 0 28 32" version="1.1" xmlns="http://www.w3.org/2000/svg" xmlns:xlink="http://www.w3.org/1999/xlink">
    <title>Icon</title>
    <g id="Manage-your-company" stroke="none" stroke-width="1" fill="none" fill-rule="evenodd">
        <g id="manage-your-company@2x" transform="translate(-1112.000000, -1198.000000)">
            <g id="Providing-everything-you-need-when-you-need-it" transform="translate(0.000000, 780.000000)">
                <g id="Modul/Icon-Box/Simple-Copy-2" transform="translate(1086.000000, 394.000000)">
                    <g id="Group" transform="translate(24.000000, 24.000000)">
                        <g id="20200414_ICON_icon_0-98" transform="translate(3.000000, 0.000000)">
                            <path d="M20.88,17.74 C20.0320294,20.1395417 18.3873288,22.1760058 16.22,23.51 C10.8227317,25.9253819 4.47779718,23.7246137 1.73537032,18.4859431 C-1.00705653,13.2472725 0.799721129,6.77910974 5.86,3.72 C7.78979695,2.87793516 9.91886331,2.60053238 12,2.92 C12.7126759,3.02109833 13.4130399,3.19535158 14.09,3.44 C14.42,3.56 14.74,3.69 15.09,3.83 C20.3244062,6.27434911 22.8440342,12.2963466 20.91,17.74 L20.88,17.74 Z" id="Path" fill="#D5F3E8" fill-rule="nonzero"></path>
                            <path d="M22.26,17 C20.7470891,21.2717492 16.809052,24.2108273 12.2834019,24.4458417 C7.75775177,24.6808562 3.53646831,22.1654869 1.58922926,18.0734213 C-0.358009784,13.9813558 0.352585211,9.11911644 3.38944609,5.75545525 C6.42630697,2.39179406 11.1908859,1.18966928 15.46,2.71 C18.2584076,3.70094534 20.5477948,5.76419371 21.8234016,8.44484388 C23.0990084,11.125494 23.2560852,14.2034178 22.26,17 Z" id="Path" stroke="#1D1D1B" stroke-width="1.4" stroke-linecap="round" stroke-linejoin="round"></path>
                            <line x1="11.08" y1="27.35" x2="11.08" y2="31.25" id="Path" stroke="#1D1D1B" stroke-width="1.4" stroke-linecap="round" stroke-linejoin="round"></line>
                            <path d="M15.5,2.48 L16.17,0.7 L16.85,0.95 L16.85,0.95 C23.6874029,3.60119442 27.1814961,11.2049434 24.74,18.12 C23.5806734,21.5708222 21.0476898,24.3896711 17.74,25.91 C14.7266765,27.3033317 11.2819069,27.4365151 8.17,26.28 L7.52,26 C7.25062169,25.8773299 7.13020064,25.5606672 7.25,25.29 L7.93,23.8" id="Path" stroke="#1D1D1B" stroke-width="1.4" stroke-linecap="round" stroke-linejoin="round"></path>
                            <path d="M21.81,9.76 L20,11.07 C19.2951746,11.5780867 18.3123547,11.421729 17.8,10.72 L17.74,10.62 C17.2581068,9.96668861 16.3614395,9.78131988 15.66,10.19 L13.9,11.19 C13.5880127,11.3723979 13.3506615,11.6593449 13.23,12 L12.59,13.73 C12.4128976,14.2169102 12.4857736,14.7597107 12.7850336,15.1826649 C13.0842937,15.6056191 13.5719053,15.8549745 14.09,15.85 L14.17,15.85 C14.8842742,15.841137 15.515649,16.3126182 15.71,17 L15.71,17 C15.866978,17.5733921 16.3362073,18.0077202 16.92,18.12 L17.5,18.24 C18.1503116,18.3641813 18.6514068,18.8853203 18.75,19.54 L19,21.1" id="Path" stroke="#1D1D1B" stroke-width="1.4" stroke-linecap="round" stroke-linejoin="round"></path>
                            <path d="M8.19,3.26 L9.59,4.64 C9.71093484,4.76266401 9.7791215,4.9277475 9.78,5.1 L9.78,8.22 C9.77929294,8.50520435 9.59274896,8.75663319 9.32,8.84 L8.27,9.15 C7.56532803,9.3571032 6.83447399,9.46151092 6.1,9.46 C5.28,9.46 4.79,11.46 4.51,12.14 C4.41360902,12.33587 4.34623633,12.5447253 4.31,12.76 C4.2,13.82 4.98,15.11 5.31,16.1 C5.64,17.09 5.86,18.44 4.84,19.16 C4.71,19.26 3.06,20.36 3.04,20.32" id="Path" stroke="#1D1D1B" stroke-width="1.4" stroke-linecap="round" stroke-linejoin="round"></path>
                            <line x1="7.73" y1="31.25" x2="14.44" y2="31.25" id="Path" stroke="#1D1D1B" stroke-width="1.4" fill="#FEF7ED" fill-rule="nonzero" stroke-linecap="round" stroke-linejoin="round"></line>
                        </g>
                    </g>
                </g>
            </g>
        </g>
    </g>
</svg>