<svg width="32" height="32" viewBox="0 0 32 32" fill="none" xmlns="http://www.w3.org/2000/svg">
<path d="M29.59 11.2299V24.5099C29.5926 25.1496 29.4417 25.7806 29.15 26.3499C28.6931 26.577 28.1903 26.6967 27.68 26.6999H4.82C2.79098 26.624 1.20685 24.9191 1.28 22.8899V9.59993C1.27909 8.97119 1.4264 8.35108 1.71 7.78993C2.17126 7.55393 2.68187 7.43056 3.2 7.42993H26.06C28.081 7.51125 29.6576 9.2084 29.59 11.2299Z" fill="white"/>
<path fill-rule="evenodd" clip-rule="evenodd" d="M31.21 9.60004V22.89C31.2316 24.3398 30.4348 25.6781 29.15 26.35C28.6931 26.5771 28.1903 26.6968 27.68 26.7H4.82C2.79098 26.6241 1.20685 24.9192 1.28 22.89V9.60004C1.27909 8.9713 1.4264 8.35119 1.71 7.79004C2.28302 6.58712 3.48775 5.81237 4.82 5.79004H27.68C29.7051 5.87133 31.2832 7.57467 31.21 9.60004Z" stroke="#1D1D1B" stroke-width="1.4" stroke-linecap="round" stroke-linejoin="round"/>
<path d="M18.62 16.25H27.13" stroke="#1D1D1B" stroke-width="1.4" stroke-linecap="round" stroke-linejoin="round"/>
<path d="M18.62 20.8301H27.13" stroke="#1D1D1B" stroke-width="1.4" stroke-linecap="round" stroke-linejoin="round"/>
<path d="M7 13.3599C7.03157 11.9025 8.20267 10.727 9.66 10.6899H10.32C11.5206 10.7299 12.5552 11.5473 12.8719 12.7062C13.1885 13.865 12.7134 15.0949 11.7 15.7399C10.79 16.3199 9.03 16.5499 8.98 18.4099V19.5799" stroke="#1D1D1B" stroke-width="1.4" stroke-linecap="round" stroke-linejoin="round"/>
<path d="M8.92 21.58V21.82" stroke="#1D1D1B" stroke-width="1.4" stroke-linecap="round" stroke-linejoin="round"/>
</svg>
