<svg xmlns="http://www.w3.org/2000/svg" width="32" height="32" viewBox="0 0 32 32">
    <g fill="none" fill-rule="evenodd">
        <path fill="#FFF" fill-rule="nonzero" d="M28.85 8.87h-2.7c-2.056.003-4.005.919-5.32 2.5-.322.37-.6.776-.83 1.21l-1.18 2.25-.41.77c-.41.73-.75 0-.75 0l-1-1.85-.62-1.19c-1.09-2.08-3.162-3.462-5.5-3.67-.086-.015-.174-.015-.26 0h-9.1c-.158.01-.314.047-.46.11.02.199.085.39.19.56l2.7 4.54c-.333.25-.53.643-.53 1.06v13.06c0 .74.6 1.34 1.34 1.34h23.51c.417.006.812-.183 1.07-.51l-.29-13.52c.052-.423.153-.84.3-1.24.24-.8.58-1.77.83-2.44l.27-.74c.294-.453.313-1.031.048-1.502-.264-.47-.768-.755-1.308-.738zm-14.3 14c-.137.124-.223.296-.24.48v3.36l-2.69-1.31c-.229-.12-.501-.12-.73 0l-1.85.92c-.257.094-.545.046-.758-.126-.212-.172-.32-.443-.282-.714l.4-2c.049-.25-.03-.509-.21-.69l-1.5-1.51-.05-.06.15-1.12 2.42-.4c.256-.028.481-.182.6-.41l.47-.91c.304-.001.581.174.71.45l.87 1.88c.11.232.327.396.58.44l2 .35c.41.067.694.448.64.86l-.53.51z" transform="translate(0 1)"/>
        <path stroke="#1D1D1B" stroke-linecap="round" stroke-linejoin="round" stroke-width="1.4" d="M18.87 15.11v14.45H4.42c-.74 0-1.34-.6-1.34-1.34V15.11c0-.417.197-.81.53-1.06.229-.185.516-.284.81-.28h13.11c.632 0 1.178.442 1.31 1.06h0c.02.092.03.186.03.28h0z" transform="translate(0 1)"/>
        <path stroke="#1D1D1B" stroke-linecap="round" stroke-linejoin="round" stroke-width="1.4" d="M29.27 15.11v13.11c0 .74-.6 1.34-1.34 1.34h-9.06V15.11c-.015-.444.2-.864.57-1.11.224-.171.498-.263.78-.26h7.71c.415 0 .806.192 1.06.52.187.243.286.543.28.85zM18.67 14.06l-1.59-3C15.902 8.784 13.563 7.345 11 7.32H2.16c-.425.001-.829.187-1.105.51C.778 8.153.656 8.58.72 9c.02.199.085.39.19.56l2.7 4.54h0" transform="translate(0 1)"/>
        <path stroke="#1D1D1B" stroke-linecap="round" stroke-linejoin="round" stroke-width="1.4" d="M28.77 13.76l2.32-4.25c.265-.45.269-1.007.01-1.461-.257-.454-.738-.736-1.26-.739h-2.7C24.566 7.303 22.201 8.724 21 11l-1.6 3M10.79.13c2.02-.106 4 .597 5.501 1.954 1.502 1.356 2.4 3.255 2.499 5.276M27.7 1.75c-2.242-.021-4.38.948-5.84 2.65M7.15 20l2.06-.25c.254-.034.476-.186.6-.41l1-1.84c.131-.267.403-.436.7-.436.297 0 .569.17.7.436l.79 1.86c.11.232.327.396.58.44l2 .35c.292.05.531.261.616.546.085.284.001.592-.216.794l-1.43 1.41c-.191.175-.281.434-.24.69l.3 2c.045.294-.081.589-.326.759-.244.17-.564.186-.824.041l-1.81-1c-.229-.12-.501-.12-.73 0l-1.85.92c-.259.107-.555.067-.776-.105-.22-.171-.333-.448-.294-.725l.4-2c.049-.254-.03-.515-.21-.7l-1.5-1.51c-.18-.213-.231-.506-.136-.768.094-.262.322-.453.596-.502h0z" transform="translate(0 1)"/>
    </g>
</svg>
