<svg height="32" viewBox="0 0 32 32" width="32" xmlns="http://www.w3.org/2000/svg"><g fill="none" fill-rule="evenodd" transform="translate(0 3)"><path d="m24.61 12.91c-.5688079-4.43579396-3.4252566-8.24701658-7.5231694-10.03780448-4.0979128-1.79078789-8.83520165-1.29802856-12.4768306 1.29780448-4.69535231 4.6929213-5.0000819 12.2048207-.70028063 17.2626417 4.29980127 5.0578209 11.76280643 5.9661423 17.15028063 2.0873583 2.7600055-2.7976413 4.0706131-6.7146965 3.55-10.61zm-7.86 1.87c-.5280648.5218822-.7703523 1.2673823-.65 2l.24 1.41-3.2-1-3.69 1.3.35-4-3.18-2.96 1.91-.21c.80627449-.0894696 1.5093914-.5884558 1.86-1.32l1.75-3.54 2 4.1c.1937383.3889085.5689616.655317 1 .71l4.51.66z" fill="#fff" fill-rule="nonzero"/><g stroke="#1d1d1b" stroke-linecap="round" stroke-linejoin="round" stroke-width="1.4"><path d="m26.1900039 13.34c-.0110456 7.0266687-5.7133104 12.7155105-12.7399856 12.7099961-7.02667519-.0055223-12.72000258-5.7033135-12.72000258-12.7299909 0-7.02667736 5.69330907-12.72447675 12.71998428-12.7300052 3.3805914 0 6.6225766 1.34361773 9.0120778 3.73499445 2.3895011 2.39137672 3.7305757 5.63441519 3.7279261 9.01500555z"/><path d="m23.87 6.01h7.43"/><path d="m22.97 21.82h8.33"/><path d="m13.88 6.12 1.78 3.61c.0651006.13803832.190803.23786082.34.27l4 .58c.1806261.0233949.3314746.1490413.3871402.3224612.0556657.1734199.0061257.3633884-.1271402.4875388l-2.89 2.82c-.1101797.1098529-.1588553.2671125-.13.42l.68 4c.0258077.1796454-.0497937.3588418-.1964802.4657134-.1466866.1068716-.3404301.1239122-.5035198.0442866l-3.57-1.88c-.1384208-.0695526-.3015792-.0695526-.44 0l-3.55 1.85c-.15906676.0599103-.33781883.0331063-.47231745-.0708245-.13449863-.1039307-.20552849-.27014-.18768255-.4391755l.69-4c.01969977-.1540121-.03183295-.3086102-.14-.42l-2.93-2.79c-.13382653-.1255027-.18239143-.317405-.12437378-.4914579.05801765-.174053.21201091-.2984358.39437378-.3185421l4-.58c.1560076-.02786283.2895695-.12803429.36-.27l1.75-3.61c.0763035-.17501428.2490753-.28816674.44-.28816674s.3636965.11315246.44.28816674z"/></g></g></svg>