<svg height="32" viewBox="0 0 32 32" width="32" xmlns="http://www.w3.org/2000/svg"><g fill="none" fill-rule="evenodd" transform="translate(1)"><path d="m15 6.11v11.38c.009884.109778.009884.220222 0 .33-.1565042.7473523-.8164392 1.2819832-1.58 1.28h-4.77c.33445598.3309577.56698113.7508912.67 1.21.13039621.4609558.13039621.9490442 0 1.41-1.16846787.244541-2.35933252-.304326-2.93242875-1.35155-.57309622-1.047224-.3934251-2.3461204.44242875-3.19845h-4.33c-1.1045695 0-2-.8954305-2-2v-1.77c.16869023-.0053874.33631585-.028855.5-.07.82-.21-.53-1.1-.2-1.81.07-.14 2.1 0 2.14-.11h.1c.7737209-.2172689 1.41110261-.7667359 1.74-1.5.28344925-.55882684.36132635-1.19954297.22-1.81-.16791344-.70548258-.61157558-1.31423449-1.23175653-1.69010173-.62018094-.37586724-1.36513443-.48748843-2.06824347-.30989827-.40588555.10746669-.7820298.30579729-1.1.58v-1.41c.00529226-1.48835864 1.20179159-2.69820182 2.69-2.72001407h8.14c.9459021-.00264297 1.8539732.37125408 2.5237671 1.03917179s1.0462329 1.57493641 1.0462329 2.52084228z" fill="#fff" fill-rule="nonzero"/><path d="m28.81 19c-3.15 2.12-7.1 4.16-7.1 8.44v.56c-.317535 1.1209454-.528472 2.2693799-.63 3.43 0 0-6.26-.41-10.49-.24-2 .07-3.45.06-3.45-.16v-.33l-.14-14.19 9.45-.3.62-12 3.2-1.28c.3978127.00254244.7778519.16513 1.0544111.45109589.2765591.28596588.4263489.6712288.4155889 1.06890411v11.53c-.0140526.5605028.2443998 1.0930586.6934193 1.4288298s1.0329181.433115 1.5665807.2611702l.22-.09c1.4474577-.6314096 2.9378609-1.1594 4.46-1.58.7724868-.1496894 1.5645752.1386923 2.06.75.26.32-1.38 1.53-1.93 2.25z" fill="#fff" fill-rule="nonzero"/><g stroke="#1d1d1b" stroke-linecap="round" stroke-linejoin="round" stroke-width="1.4"><path d="m17.05 2.29c.47-.16 3.49-1.39 3.89-1.44 1.49-.2 2.51 1 2.66 2.48 0 .12-.35 12.63-.12 12.54.68-.26 2-.64 2.7-.92.6018703-.3326713 1.2536389-.565687 1.93-.69.684115-.0845529 1.3711447.1329327 1.8819817.5957588.5108371.462826.7948577 1.1251266.7780183 1.8142412.009139.8184644-.4173865 1.580117-1.12 2l-1 .7c-3.15 2.12-7.1 4.16-7.1 8.44v2.49c.0017306.6456608-.4960674 1.1827587-1.14 1.23h-12.41c-.39352853.010584-.76722039-.172525-1-.49-.17067704-.2124735-.2625447-.4774763-.26005148-.75v-9.26"/><path d="m.55 2.72c.04861741-.76092117.52565603-1.42799956 1.23-1.72.2613067-.130497.54802491-.20217655.84-.21001406h10.86c.9459021-.00264298 1.8539732.37125407 2.5237671 1.03917178s1.0462366 1.57493641 1.0462329 2.52084228v11.37c.0107654.1097366.0107654.2202634 0 .33-.1558789.7492055-.8147556 1.2871491-1.58 1.29h-4.77c.3362913.3295642.5691362.7500751.67 1.21.0590205.2354746.0892415.4772426.09.72-.007883.3841369-.0964668.7623217-.26 1.11-.3388966.7332725-.9883099 1.2762847-1.77 1.48h-.13c-1.16846787.244541-2.35933252-.304326-2.93242875-1.35155-.57309622-1.047224-.3934251-2.3461204.44242875-3.19845h-4.31c-1.1045695 0-2-.8954305-2-2v-4.31c.32089264.2888016.70961038.4917604 1.13.59.40660904.1054396.83339096.1054396 1.24 0h.1c.78854753-.1996866 1.44569186-.7430238 1.79-1.48.29740731-.56491559.38255288-1.2176983.24-1.84-.16791344-.70548258-.61157558-1.31423449-1.23175653-1.69010173-.62018094-.37586724-1.36513443-.48748843-2.06824347-.30989827-.40588555.10746669-.7820298.30579729-1.1.58v-4c-.0052804-.05320263-.0052804-.10679737 0-.16"/></g></g></svg>