<svg xmlns="http://www.w3.org/2000/svg" width="32" height="33" viewBox="0 0 32 33">
    <g fill="none" fill-rule="evenodd" opacity=".75">
        <path fill="#FCE7D0" fill-rule="nonzero" d="M29.87 5.91l-7.08 1.95-3.61 9.94c-.081.254-.203.494-.36.71-.212.057-.43.084-.65.08l-15.89.76c-.832-.005-1.505-.678-1.51-1.51V2.51l27.48-.1c2.37.3 2.23 1.49 1.62 3.5z" transform="translate(0 6.5)"/>
        <path stroke="#1D1D1B" stroke-linecap="round" stroke-linejoin="round" stroke-width="1.4" d="M6.36.76v18.59H2.28c-.832-.005-1.505-.678-1.51-1.51V2.14c.063-.781.716-1.383 1.5-1.38h4.09zM22.79 7.06l-3.13 10.18c-.355 1.022-1.22 1.781-2.28 2-.212.057-.43.084-.65.08H6.36V.76h22.4c1.381.005 2.508 1.109 2.54 2.49 0 1-.5 2.33-1.41 2.65-1.07.38-6.99.8-7.1 1.16zM3.76 13.8L3.76 17.24" transform="translate(0 6.5)"/>
    </g>
</svg>
