<svg height="32" viewBox="0 0 32 32" width="32" xmlns="http://www.w3.org/2000/svg"><g fill="none" fill-rule="evenodd" transform="translate(2 1)"><circle cx="26.26" cy="27.92" fill="#fff" fill-rule="nonzero" r="2.06"/><path d="m25 23.79-.12.09c-1.5471786 1.0391565-3.4840454 1.3153258-5.26.75-.5069721-.1594876-1.060442-.0113759-1.42.38-1.2549105 1.3178171-3.0289996 2.0122238-4.8450486 1.896429-1.816049-.1157949-3.48757623-1.0299008-4.5649514-2.496429-.57649908-.7968405-.95680669-1.7184869-1.11-2.69-.12559837-.6407177-.67740834-1.1095487-1.33-1.13-2.21933796-.1840855-4.1642692-1.5573055-5.08046648-3.5870668s-.65952573-4.3967447.67046648-6.1829332c.48523803-.3525646 1.02140021-.6290759 1.59-.82.58487748-.19394331 1.03480094-.66636295 1.2-1.26.04842388-.18266678.07196979-.37103402.07-.56-.04398404-2.01670788.91024328-3.9251625 2.55-5.1.24305935-.18085963.50059583-.34140185.77-.48 1.9976556-1.01288784 4.3880205-.85965932 6.24.4.6500356.44067304 1.2072383 1.00467082 1.64 1.66.3894099.58579643 1.1174531.84610236 1.79.64 2.4626867-.82216488 5.1762172-.00373296 6.7736117 2.04299898s1.7321528 4.87779512.3363883 7.06700102c-.3861718.641489-.3425995 1.4535182.11 2.05.1862393.257417.353354.5281427.5.81 1.0737241 2.0954928.8764938 4.6169476-.51 6.52z" fill="#fff" fill-rule="nonzero"/><g stroke="#1d1d1b" stroke-linecap="round" stroke-linejoin="round" stroke-width="1.4"><path d="m25 23.79-.12.09c-1.5471786 1.0391565-3.4840454 1.3153258-5.26.75-.5069721-.1594876-1.060442-.0113759-1.42.38-1.2549105 1.3178171-3.0289996 2.0122238-4.8450486 1.896429-1.816049-.1157949-3.48757623-1.0299008-4.5649514-2.496429-.57649908-.7968405-.95680669-1.7184869-1.11-2.69-.12559837-.6407177-.67740834-1.1095487-1.33-1.13-2.21933796-.1840855-4.1642692-1.5573055-5.08046648-3.5870668s-.65952573-4.3967447.67046648-6.1829332c.15270252-.2112354.31976403-.4117092.5-.6.64466151-.67067541 1.43507474-1.18393076 2.31-1.5.21562474-.08033303.43605326-.14712955.66-.2.50960123-.11009852.84910714-.59324155.78-1.11-.17285478-1.53794573.24144859-3.08444022 1.16-4.33.56125865-.7463505 1.28214373-1.35790703 2.11-1.79 2.8278362-1.44234766 6.2886175-.50361072 8 2.17.3385538.53568492 1.0060741.76097304 1.6.54 2.5557515-.94119842 5.4260187-.08326911 7.046043 2.1060781 1.6200244 2.18934722 1.6012684 5.1850315-.046043 7.3539219-.3033172.3690019-.3033172.9009981 0 1.27.3228203.3638384.5983388.7670362.82 1.2 1.3971055 2.7251536.5989906 6.0619533-1.88 7.86z"/><circle cx="26.26" cy="27.92" r="2.06"/><path d="m10.9 13.35 3.16 3.2 6.29-6.76"/></g></g></svg>