<svg xmlns="http://www.w3.org/2000/svg" width="52" height="56" viewBox="-13 -13 52 56">
    <g fill="none" fill-rule="evenodd">
        <g>
            <g>
                <g>
                    <g>
                        <g>
                            <path fill="#FFF" fill-rule="nonzero" d="M18.47 12l-1.1 1.08c-.046.044-.08.1-.1.16l.27 4.54L13.83 16c-.135-.07-.295-.07-.43 0L10 17.74c-.154.076-.337.061-.476-.04-.138-.1-.21-.27-.184-.44l.66-3.79c.031-.147-.018-.3-.13-.4L6.76 10l3.7-.84.7-.1c.148-.028.276-.12.35-.25l1.3-1.92 1.67 3.38c.065.136.191.233.34.26l3.81.55c.3.04-.06.66-.16.92z" transform="translate(-617 -1696) translate(0 1164) translate(525 316) translate(40 182) translate(53 34)"/>
                            <path fill="#FFF" fill-rule="nonzero" d="M20.17 2.49H6.9c-1.21 0-2.19.98-2.19 2.19v2.21H3v20h15.09v-1.76h.59c1.149 0 2.08-.931 2.08-2.08v-20c-.01-.316-.273-.566-.59-.56zm-.05 7.9L18.47 12c-.015.066-.05.125-.1.17l-1.1 1.07c-.02.079-.02.161 0 .24l.65 3.79c.025.17-.046.34-.184.44-.14.101-.322.116-.476.04L15.78 17l-2-1c-.135-.07-.295-.07-.43 0L10 17.74c-.154.076-.337.061-.476-.04-.138-.1-.21-.27-.184-.44l.66-3.79c.031-.147-.018-.3-.13-.4l-2-2-.7-.68c-.122-.122-.166-.302-.114-.466.053-.165.194-.286.364-.314l3.1-.45 1-2c.075-.155.233-.254.405-.254.172 0 .33.099.405.254v.06l.91-1.84c.078-.154.237-.251.41-.251s.332.097.41.251l1.7 3.45c.067.132.194.225.34.25l3.8.55c.161.035.29.156.336.315.046.158.002.33-.116.445z" transform="translate(-617 -1696) translate(0 1164) translate(525 316) translate(40 182) translate(53 34)"/>
                            <path fill="#FFF" fill-rule="nonzero" d="M16.1 26.75v2.48c0 .554-.222 1.085-.617 1.474-.395.39-.929.604-1.483.596H2.36c-1.149 0-2.08-.931-2.08-2.08V10.33c-.003-.47.185-.92.52-1.248.336-.328.79-.506 1.26-.492l2.65.06L5 24.56l11.1 2.19z" transform="translate(-617 -1696) translate(0 1164) translate(525 316) translate(40 182) translate(53 34)"/>
                            <path stroke="#1D1D1B" stroke-linecap="round" stroke-linejoin="round" stroke-width="1.4" d="M14 5.36l1.7 3.44c.06.138.19.234.34.25l3.8.55c.175.02.322.142.376.31.054.168.005.351-.126.47l-2.75 2.68c-.102.11-.15.26-.13.41l.65 3.78c.03.171-.04.345-.179.448-.14.104-.326.12-.481.042L13.83 16c-.135-.07-.295-.07-.43 0L10 17.74c-.155.078-.341.062-.481-.042-.14-.103-.209-.277-.179-.448l.66-3.78c.029-.15-.02-.304-.13-.41l-2.75-2.68c-.122-.122-.166-.302-.114-.466.053-.165.194-.286.364-.314l3.8-.55c.152-.019.283-.113.35-.25l1.7-3.44c.084-.134.231-.216.39-.216s.306.082.39.216z" transform="translate(-617 -1696) translate(0 1164) translate(525 316) translate(40 182) translate(53 34)"/>
                            <path stroke="#1D1D1B" stroke-linecap="round" stroke-linejoin="round" stroke-width="1.4" d="M22.52 2.67v20.5c-.018.998-.769 1.83-1.76 1.95H6.67c-.483-.003-.948-.18-1.31-.5-.132-.122-.25-.26-.35-.41-.187-.3-.29-.646-.3-1V2.67c-.005-.06-.005-.12 0-.18.11-1.003.951-1.766 1.96-1.78h13.9c1.07.027 1.929.89 1.95 1.96z" transform="translate(-617 -1696) translate(0 1164) translate(525 316) translate(40 182) translate(53 34)"/>
                            <path stroke="#1D1D1B" stroke-linecap="round" stroke-linejoin="round" stroke-width="1.4" d="M4.71 6.89H2.36c-.973.017-1.804.707-2 1.66-.015.14-.015.28 0 .42v20.25c0 1.118.883 2.037 2 2.08H16.1c1.117-.043 2-.962 2-2.08v-4.09" transform="translate(-617 -1696) translate(0 1164) translate(525 316) translate(40 182) translate(53 34)"/>
                        </g>
                    </g>
                </g>
            </g>
        </g>
    </g>
</svg>
