<svg width="32" height="32" viewBox="0 0 32 32" fill="none" xmlns="http://www.w3.org/2000/svg">
<path d="M28.65 11.9999C28.6075 12.3102 28.4591 12.5963 28.23 12.8099L23.94 16.9999L23.35 17.5799C23 17.9199 23.72 18.7999 23.8 19.2799L24 24.7699C24 24.8499 24.06 25.7699 24.06 25.8599C23.7085 25.9694 23.328 25.9371 23 25.7699L21.3 24.8799V30.4099L20.3 30.2099L16.45 26.7399L11.98 30.7399C11.878 30.8581 11.7128 30.8995 11.5671 30.8435C11.4214 30.7874 11.3265 30.646 11.33 30.4899V24.8899L9.57 25.8099C9.07608 26.0715 8.47618 26.0281 8.025 25.6982C7.57383 25.3684 7.35056 24.8099 7.45 24.2599L8.56 17.4999C8.63691 17.0243 8.48066 16.5406 8.14 16.1999L3.25 11.4499C2.97944 11.1861 2.82172 10.8276 2.81 10.4499L3.05 10.3899L9.8 9.38989C10.2768 9.3224 10.6889 9.02265 10.9 8.58989L11.28 7.82989L13.92 2.46989C14.0573 2.18959 14.2819 1.96148 14.56 1.81989C14.91 1.63325 15.3209 1.59708 15.6982 1.71969C16.0754 1.84229 16.3866 2.11313 16.56 2.46989L19.56 8.58989C19.7711 9.02265 20.1833 9.3224 20.66 9.38989L27.41 10.3899C28.1932 10.4987 28.7448 11.2149 28.65 11.9999Z" fill="white"/>
<path d="M11.26 25.6599V30.9199C11.2565 31.076 11.3514 31.2174 11.4971 31.2735C11.6428 31.3295 11.808 31.2881 11.91 31.1699L16.38 27.1699L20.59 31.0799C20.6908 31.1966 20.8535 31.2386 20.9982 31.1851C21.1429 31.1317 21.2392 30.9941 21.24 30.8399V25.9999" stroke="#1D1D1B" stroke-width="1.4" stroke-linecap="round" stroke-linejoin="round"/>
<path d="M12.39 15.0799L15.02 18.3299L21.32 11.6899" stroke="#1D1D1B" stroke-width="1.4" stroke-linecap="round" stroke-linejoin="round"/>
<path fill-rule="evenodd" clip-rule="evenodd" d="M18.07 1.92994L20.48 6.81994C20.7605 7.44029 21.3295 7.88196 22 7.99994L27.4 8.77994C28.1741 8.89428 28.8165 9.43729 29.0583 10.1815C29.3 10.9257 29.0992 11.7426 28.54 12.2899L24.63 16.0999C24.1494 16.5748 23.9294 17.2535 24.04 17.9199L25 23.2499C25.1349 24.0257 24.8158 24.8105 24.1778 25.272C23.5398 25.7335 22.6946 25.7909 22 25.4199L17.17 22.8799C16.5675 22.5702 15.8525 22.5702 15.25 22.8799L10.43 25.4199C9.73545 25.7909 8.89021 25.7335 8.25222 25.272C7.61423 24.8105 7.29511 24.0257 7.43 23.2499L8.35 17.8699C8.47509 17.2025 8.25291 16.5171 7.76 16.0499L3.86 12.2399C3.30084 11.6926 3.10005 10.8757 3.34175 10.1315C3.58346 9.38729 4.22593 8.84428 5 8.72994L10.41 7.99994C11.1067 7.90381 11.7062 7.4589 12 6.81994L14.42 1.92994C14.7755 1.25094 15.4786 0.825439 16.245 0.825439C17.0114 0.825439 17.7145 1.25094 18.07 1.92994Z" stroke="#1D1D1B" stroke-width="1.4" stroke-linecap="round" stroke-linejoin="round"/>
</svg>
