<svg xmlns="http://www.w3.org/2000/svg" width="32" height="33" viewBox="0 0 32 33">
    <g fill="none" fill-rule="evenodd" opacity=".75">
        <path fill="#F9F2D7" fill-rule="nonzero" d="M20.89 11.36c-.471-4.092-3.266-7.542-7.17-8.853-3.905-1.31-8.215-.245-11.06 2.733-2.648 3.791-2.547 8.858.25 12.54 1.531 1.91 2.386 4.273 2.43 6.72v.35c-.003.211.08.415.228.565.148.15.35.235.562.235h.2v1c.005.747.613 1.35 1.36 1.35-.373.264-.622.668-.69 1.12 0 1.193.967 2.16 2.16 2.16h4.37c1.193 0 2.16-.967 2.16-2.16-.068-.452-.317-.856-.69-1.12.362 0 .71-.145.965-.402.256-.257.398-.606.395-.968v-1h-.05c.323.001.615-.192.74-.49.004-.026.004-.054 0-.08l-.05-.82c0-2.46-.05-3 1.51-4.94 1.84-2.213 2.698-5.08 2.38-7.94z" transform="translate(5 .5)"/>
        <path stroke="#1D1D1B" stroke-width="1.4" d="M19.56 18.07c-1.565 1.89-2.424 4.266-2.43 6.72v.05c.014.08.014.16 0 .24.004.026.004.054 0 .08-.125.298-.417.491-.74.49H6.13c-.211 0-.414-.085-.562-.235-.149-.15-.23-.354-.228-.565v-.35c-.044-2.447-.899-4.81-2.43-6.72C-.457 13.371.136 7.113 4.272 3.416 8.41-.281 14.694-.172 18.7 3.667c4.005 3.84 4.38 10.114.861 14.403h0z" transform="translate(5 .5)"/>
        <path stroke="#1D1D1B" stroke-linecap="round" stroke-linejoin="round" stroke-width="1.4" d="M7.33 13.37L10.49 16.56 16.78 9.81M7.26 28.42c-.557-.427-.898-1.079-.93-1.78v-1h10v1c0 .76-.47 1.83-.9 1.83 0 0 .22 0 .22.65h0c0 1.193-.967 2.16-2.16 2.16H9.17c-.575.003-1.127-.224-1.534-.63C7.23 30.247 7 29.696 7 29.12h0c0-.61.26-.7.26-.7z" transform="translate(5 .5)"/>
    </g>
</svg>
