<svg xmlns="http://www.w3.org/2000/svg" width="32" height="32" viewBox="0 0 32 32">
    <g fill="none" fill-rule="evenodd">
        <path fill="#E0F1FA" fill-rule="nonzero" d="M20.501 5.586v22.256c.004.504-.11 1.003-.334 1.463-.52.213-1.082.324-1.652.323H5.227c-1.062 0-2.08-.383-2.831-1.065-.751-.683-1.173-1.608-1.173-2.573V4.238c-.002-.5.112-.996.335-1.454.495-.206 1.033-.316 1.578-.323h13.926c.938-.087 1.87.214 2.537.82.667.606.998 1.453.902 2.305z" transform="translate(5)"/>
        <path stroke="#1D1D1B" stroke-linecap="round" stroke-linejoin="round" stroke-width="1.4" d="M22.164 4.015V25.93c.015 1.453-.913 2.777-2.363 3.372-.515.216-1.075.327-1.641.325H4.84c-1.068-.002-2.091-.394-2.843-1.088-.751-.694-1.169-1.633-1.16-2.61V4.016c0-.504.118-1.002.344-1.462C1.807 1.215 3.248.35 4.841.355H18.16c2.209.006 3.998 1.64 4.004 3.66z" transform="translate(5)"/>
        <g stroke="#1D1D1B" stroke-linecap="round" stroke-linejoin="round" stroke-width="1.4">
            <path d="M-2.091 4.663L6.105 4.663" transform="translate(5) translate(8.364 5.227) rotate(90 2.007 4.663)"/>
            <path d="M.624 8.886L6.502 8.886M.624.523L3.366.523M6.523 7.302v1.584" transform="translate(5) translate(8.364 5.227)"/>
        </g>
        <path fill="#E0F1FA" d="M14.636 25.091H17.772V30.318H14.636z" transform="translate(5)"/>
        <path stroke="#1D1D1B" stroke-linecap="round" stroke-linejoin="round" stroke-width="1.4" d="M14.636 27.136L14.636 28.073 14.636 27.793 14.636 30.769 14.636 31.068 15.383 30.355 16.31 29.473 16.702 29.902 17.773 31.06 17.773 27.609 17.773 27.386 17.773 28.849M19.479 22.217c.17.03.31.157.363.33.052.171.009.36-.114.487l-.204.208-.103.1-1.118 1.146.07.435.275 1.674c.034.175-.033.354-.172.457-.138.103-.322.11-.468.019l-1.438-.79-.371-.208-1.771.971c-.152.073-.33.054-.463-.051-.134-.105-.201-.278-.177-.451l.34-2.056-1.28-1.286-.166-.174c-.123-.126-.167-.315-.115-.486.053-.172.194-.298.365-.325l1.918-.294h.038l.819-1.628.102-.214c.077-.161.234-.263.406-.263.172 0 .329.102.406.263l.882 1.868 1.976.268zM4.182 19.864L8.552 19.864M4.182 24.045L6.367 24.045" transform="translate(5)"/>
    </g>
</svg>
