<svg xmlns="http://www.w3.org/2000/svg" width="32" height="32" viewBox="0 0 32 32">
    <g fill="none" fill-rule="evenodd">
        <path fill="#E6D7EA" fill-rule="nonzero" d="M27.28 13.3c1.07 1.74-.08 3.49-1.82 5.23l-.71.69-.26.27-7.68 7.54-2.57 2.53c-.115.147-.25.278-.4.39l-.09.09c-.323.228-.698.372-1.09.42-.68.1-.46-.44-1-1l-2.81-2.8c-.05-.06-.7.59-.76.55-.67-.51-1.79 1.41-2.16 1.48 0 0-1.47-.65-1.49-.67L4 27.57c-.382-.376-.597-.89-.597-1.425 0-.536.215-1.05.597-1.425L7.72 21v-.05l-2.61 2.51-3.61-3.61c-.877-.874-.938-2.274-.14-3.22.076-.096.164-.184.26-.26L12.9 4.75c.93-1.115 2.203-1.889 3.62-2.2.238.149.456.327.65.53l.57.57c.195-.206.41-.394.64-.56.194.14.375.297.54.47l.58.57C21.837 2.024 24.855.83 28 .77c.199.123.383.267.55.43 1.84 1.85-.46 8-1.44 10.41-.202.494-.169 1.053.09 1.52l.08.17z" transform="translate(0 1)"/>
        <path stroke="#1D1D1B" stroke-linecap="round" stroke-linejoin="round" stroke-width="1.4" d="M27.84 12.47c1.996-2.236 3.183-5.078 3.37-8.07.066-.993-.265-1.971-.92-2.72-.628-.57-1.442-.894-2.29-.91h0c-2.86-.18-6.77 1.63-8.5 3.36M1.36 16.63c.079-.094.166-.181.26-.26L12.91 4.75c.924-1.116 2.195-1.89 3.61-2.2.666-.057 1.329.135 1.86.54.195.142.38.3.55.47l.57.57L9.07 14.56" transform="translate(0 1)"/>
        <path stroke="#1D1D1B" stroke-linecap="round" stroke-linejoin="round" stroke-width="1.4" d="M15.49 30.53L27.21 19c2-2 3.22-4 1.22-6l-.56-.57-10.34 10.36M26.58 6.69c-.123 1.37-.676 2.664-1.58 3.7l-13.9 13.9-.1-.05L7.72 21v-.05L21.57 7c.94-.94 3.75-2.22 4.68-1.29.235.27.353.623.33.98zM14.77 13.8l-9.66 9.66-3.61-3.61c-.877-.874-.938-2.274-.14-3.22.076-.096.164-.184.26-.26.331-.289.736-.48 1.17-.55l11.98-2.02z" transform="translate(0 1)"/>
        <path stroke="#1D1D1B" stroke-linecap="round" stroke-linejoin="round" stroke-width="1.4" d="M14 21.48L18.48 17l-2 12c-.155.866-.775 1.577-1.612 1.847-.838.27-1.756.056-2.388-.557l-3.67-3.63L14 21.48M11 24.24l-3 3-.8.81c-.759.766-1.989.793-2.78.06-.016-.034-.023-.072-.02-.11l-.4-.43c-.382-.376-.597-.89-.597-1.425 0-.536.215-1.05.597-1.425L7.72 21 11 24.24z" transform="translate(0 1)"/>
    </g>
</svg>
