<svg xmlns="http://www.w3.org/2000/svg" width="32" height="32" viewBox="0 0 32 32">
    <g fill="none" fill-rule="evenodd">
        <path fill="#E0F1FA" fill-rule="nonzero" d="M29.58 4.15v9.34c.01.11.01.22 0 .33-.133.037-.272.054-.41.05-.636-.002-1.247-.253-1.7-.7-.448-.448-.7-1.056-.7-1.69V9.32L23 13c-.25.245-.483.506-.7.78l-1 1c-.83.81-1.09 3.21-1.14 5.41-.081 2.364-2.025 4.237-4.39 4.23-1.163 0-2.279-.463-3.1-1.286-.822-.824-1.283-1.94-1.28-3.104V19c-.022-2.308-.952-4.514-2.59-6.14L5.26 9.32v2c.008.421-.081.839-.26 1.22-.548.367-1.06.786-1.53 1.25-.751.211-1.558 0-2.11-.55-.245-.242-.427-.541-.53-.87-.069-.213-.103-.436-.1-.66V2.37C.721 2.247.724 2.123.74 2c.136-.015.274-.015.41 0h9.33c.159 0 .317.02.47.06.989.213 1.694 1.089 1.69 2.1 0 .182-.02.363-.06.54-.2.052-.404.08-.61.08H9.81l1.5 1.53c-.329.165-.692.25-1.06.25H9c-.14-.006-.272.067-.34.19-.13.31.37.75.37.75l4 4.09c.305.32.728.5 1.17.5.424 0 .83-.17 1.13-.47l5.12-5h-.09l1.84-1.85h-2c-1.075.018-2.052-.625-2.46-1.62-.128-.37-.152-.767-.07-1.15.136-.015.274-.015.41 0h9.34c1.189 0 2.154.961 2.16 2.15z" transform="translate(0 4)"/>
        <path stroke="#1D1D1B" stroke-linecap="round" stroke-linejoin="round" stroke-width="1.4" d="M31.3 2.37v9.34c0 .937-.607 1.767-1.5 2.05-.08.03-.165.05-.25.06-.133.037-.272.054-.41.05-.636-.002-1.247-.253-1.7-.7-.448-.448-.7-1.056-.7-1.69V9.32L23 13c-.25.245-.483.506-.7.78-1.225 1.52-1.905 3.408-1.93 5.36v1c-.054 2.38-2 4.28-4.38 4.28h-.21c-1.163 0-2.279-.463-3.1-1.286-.822-.824-1.283-1.94-1.28-3.104V19c-.024-2.31-.959-4.515-2.6-6.14L5.26 9.32v2c.008.421-.081.839-.26 1.22-.237.496-.64.892-1.14 1.12-.125.057-.256.1-.39.13-.751.211-1.558 0-2.11-.55-.245-.242-.427-.541-.53-.87-.069-.213-.103-.436-.1-.66V2.37C.721 2.247.724 2.123.74 2 .912.96 1.816.2 2.87.21h9.33c.159 0 .317.02.47.06.989.213 1.694 1.089 1.69 2.1.004 1.088-.728 2.042-1.78 2.32-.2.052-.404.08-.61.08H9.81l1.5 1.53 3.44 3.5c.304.307.718.479 1.15.479.432 0 .846-.172 1.15-.479h0l3.31-3.25 1.84-1.78h-2c-1.075.018-2.052-.625-2.46-1.62-.128-.37-.152-.767-.07-1.15v-.12c.09-.401.29-.769.58-1.06.403-.41.955-.641 1.53-.64h9.34c.582-.005 1.14.224 1.551.636.41.412.637.972.63 1.554z" transform="translate(0 4)"/>
    </g>
</svg>
