<svg width="137" height="623" viewBox="0 0 137 623" fill="none" xmlns="http://www.w3.org/2000/svg">
<path d="M93 555H2L2 0" stroke="#FD8550" stroke-width="4"/>
<g filter="url(#filter0_d)">
<path fill-rule="evenodd" clip-rule="evenodd" d="M93 567C99.6274 567 105 561.627 105 555C105 548.373 99.6274 543 93 543C86.3726 543 81 548.373 81 555C81 561.627 86.3726 567 93 567Z" fill="white"/>
</g>
<path fill-rule="evenodd" clip-rule="evenodd" d="M93 559C95.2091 559 97 557.209 97 555C97 552.791 95.2091 551 93 551C90.7909 551 89 552.791 89 555C89 557.209 90.7909 559 93 559Z" fill="#FD8550"/>
<defs>
<filter id="filter0_d" x="49" y="535" width="88" height="88" filterUnits="userSpaceOnUse" color-interpolation-filters="sRGB">
<feFlood flood-opacity="0" result="BackgroundImageFix"/>
<feColorMatrix in="SourceAlpha" type="matrix" values="0 0 0 0 0 0 0 0 0 0 0 0 0 0 0 0 0 0 127 0"/>
<feOffset dy="24"/>
<feGaussianBlur stdDeviation="16"/>
<feColorMatrix type="matrix" values="0 0 0 0 0 0 0 0 0 0 0 0 0 0 0 0 0 0 0.502021 0"/>
<feBlend mode="normal" in2="BackgroundImageFix" result="effect1_dropShadow"/>
<feBlend mode="normal" in="SourceGraphic" in2="effect1_dropShadow" result="shape"/>
</filter>
</defs>
</svg>
