<svg width="112" height="429" viewBox="0 0 112 429" fill="none" xmlns="http://www.w3.org/2000/svg">
<path d="M68 20H2L2 429" stroke="#FD8550" stroke-width="4"/>
<g filter="url(#filter0_d)">
<path fill-rule="evenodd" clip-rule="evenodd" d="M68 32C74.6274 32 80 26.6274 80 20C80 13.3726 74.6274 8 68 8C61.3726 8 56 13.3726 56 20C56 26.6274 61.3726 32 68 32Z" fill="white"/>
</g>
<path fill-rule="evenodd" clip-rule="evenodd" d="M68 24C70.2091 24 72 22.2091 72 20C72 17.7909 70.2091 16 68 16C65.7909 16 64 17.7909 64 20C64 22.2091 65.7909 24 68 24Z" fill="#FD8550"/>
<defs>
<filter id="filter0_d" x="24" y="0" width="88" height="88" filterUnits="userSpaceOnUse" color-interpolation-filters="sRGB">
<feFlood flood-opacity="0" result="BackgroundImageFix"/>
<feColorMatrix in="SourceAlpha" type="matrix" values="0 0 0 0 0 0 0 0 0 0 0 0 0 0 0 0 0 0 127 0"/>
<feOffset dy="24"/>
<feGaussianBlur stdDeviation="16"/>
<feColorMatrix type="matrix" values="0 0 0 0 0 0 0 0 0 0 0 0 0 0 0 0 0 0 0.502021 0"/>
<feBlend mode="normal" in2="BackgroundImageFix" result="effect1_dropShadow"/>
<feBlend mode="normal" in="SourceGraphic" in2="effect1_dropShadow" result="shape"/>
</filter>
</defs>
</svg>
