<svg width="88" height="623" viewBox="0 0 88 623" fill="none" xmlns="http://www.w3.org/2000/svg">
<path d="M43.5 555V0" stroke="#FD8550" stroke-width="4"/>
<g filter="url(#filter0_d)">
<path fill-rule="evenodd" clip-rule="evenodd" d="M44 567C50.6274 567 56 561.627 56 555C56 548.373 50.6274 543 44 543C37.3726 543 32 548.373 32 555C32 561.627 37.3726 567 44 567Z" fill="white"/>
</g>
<path fill-rule="evenodd" clip-rule="evenodd" d="M44 559C46.2091 559 48 557.209 48 555C48 552.791 46.2091 551 44 551C41.7909 551 40 552.791 40 555C40 557.209 41.7909 559 44 559Z" fill="#FD8550"/>
<defs>
<filter id="filter0_d" x="0" y="535" width="88" height="88" filterUnits="userSpaceOnUse" color-interpolation-filters="sRGB">
<feFlood flood-opacity="0" result="BackgroundImageFix"/>
<feColorMatrix in="SourceAlpha" type="matrix" values="0 0 0 0 0 0 0 0 0 0 0 0 0 0 0 0 0 0 127 0"/>
<feOffset dy="24"/>
<feGaussianBlur stdDeviation="16"/>
<feColorMatrix type="matrix" values="0 0 0 0 0 0 0 0 0 0 0 0 0 0 0 0 0 0 0.502021 0"/>
<feBlend mode="normal" in2="BackgroundImageFix" result="effect1_dropShadow"/>
<feBlend mode="normal" in="SourceGraphic" in2="effect1_dropShadow" result="shape"/>
</filter>
</defs>
</svg>
