<svg width="126" height="533" viewBox="0 0 126 533" fill="none" xmlns="http://www.w3.org/2000/svg">
<path d="M83 465H2L2 0" stroke="#FD8550" stroke-width="4"/>
<g filter="url(#filter0_d)">
<path fill-rule="evenodd" clip-rule="evenodd" d="M82 477C88.6274 477 94 471.627 94 465C94 458.373 88.6274 453 82 453C75.3726 453 70 458.373 70 465C70 471.627 75.3726 477 82 477Z" fill="white"/>
</g>
<path fill-rule="evenodd" clip-rule="evenodd" d="M82 469C84.2092 469 86 467.209 86 465C86 462.791 84.2092 461 82 461C79.7909 461 78 462.791 78 465C78 467.209 79.7909 469 82 469Z" fill="#FD8550"/>
<defs>
<filter id="filter0_d" x="38" y="445" width="88" height="88" filterUnits="userSpaceOnUse" color-interpolation-filters="sRGB">
<feFlood flood-opacity="0" result="BackgroundImageFix"/>
<feColorMatrix in="SourceAlpha" type="matrix" values="0 0 0 0 0 0 0 0 0 0 0 0 0 0 0 0 0 0 127 0"/>
<feOffset dy="24"/>
<feGaussianBlur stdDeviation="16"/>
<feColorMatrix type="matrix" values="0 0 0 0 0 0 0 0 0 0 0 0 0 0 0 0 0 0 0.502021 0"/>
<feBlend mode="normal" in2="BackgroundImageFix" result="effect1_dropShadow"/>
<feBlend mode="normal" in="SourceGraphic" in2="effect1_dropShadow" result="shape"/>
</filter>
</defs>
</svg>
