<svg xmlns="http://www.w3.org/2000/svg" width="32" height="32" viewBox="0 0 32 32">
    <g fill="none" fill-rule="evenodd">
        <path d="M0 0H32V32H0z"/>
        <g fill="#1976D2" fill-rule="nonzero" transform="translate(6 6)">
            <path d="M0 6.25H4.473V20H0zM16.655 6.411c-.047-.015-.093-.031-.143-.045-.06-.013-.12-.025-.18-.035-.238-.047-.498-.081-.803-.081-2.608 0-4.261 1.896-4.806 2.629V6.25H6.25V20h4.473v-7.5s3.38-4.707 4.806-1.25V20H20v-9.279c0-2.077-1.424-3.809-3.345-4.31z"/>
            <circle cx="2.188" cy="2.188" r="2.188"/>
        </g>
    </g>
</svg>
