<svg xmlns="http://www.w3.org/2000/svg" width="32" height="32" viewBox="0 0 32 32">
    <g fill="none" fill-rule="evenodd" opacity=".75">
        <g>
            <g>
                <g>
                    <g>
                        <g>
                            <path fill="#FCE7D0" fill-rule="nonzero" d="M8.54 8l2 7.08 9.94 3.61c.254.081.494.203.71.36.057.212.084.43.08.65L22 30c-.005.832-.678 1.505-1.51 1.51H8.27c-1.73 0-3.134-1.4-3.14-3.13L5 9.59C5.34 7.23 6.53 7.36 8.54 8z" transform="translate(-279 -1177) translate(255 801) translate(0 352) translate(24 24) translate(5)"/>
                            <path stroke="#1D1D1B" stroke-linecap="round" stroke-linejoin="round" stroke-width="1.4" d="M9.69 15.05l10.18 3.13c1.022.355 1.781 1.22 2 2.28.057.212.084.43.08.65v10.37H6.86c-.922 0-1.806-.367-2.457-1.02-.651-.653-1.016-1.538-1.013-2.46V9.07c.01-1.376 1.115-2.493 2.49-2.52 1 0 2.33.49 2.65 1.4.38 1.05.8 6.99 1.16 7.1zM6.06.7L6.06 3.13M.54 1.96L2.02 3.88M11.12 1.96L9.64 3.88M9.69 15.05L10.38 19.54M14.88 16.65L15.85 20.5" transform="translate(-279 -1177) translate(255 801) translate(0 352) translate(24 24) translate(5)"/>
                        </g>
                    </g>
                </g>
            </g>
        </g>
    </g>
</svg>
