<svg xmlns="http://www.w3.org/2000/svg" width="32" height="32" viewBox="0 0 32 32">
    <g fill="none" fill-rule="evenodd" transform="translate(5)">
        <path fill="#FFF" fill-rule="nonzero" d="M14.12 7.55c-.001 1.218-.394 2.402-1.12 3.38-.92.604-1.999.924-3.1.92-2.16.005-4.136-1.209-5.11-3.136-.973-1.928-.776-4.24.51-5.974.92-.598 1.993-.914 3.09-.91 1.519-.003 2.976.599 4.051 1.672 1.075 1.073 1.679 2.53 1.679 4.048zM17.46 21.38h-15c-1.07 0-1.81-.41-1.66-1.47.155-1.507.632-2.964 1.4-4.27 2.47-2.153 5.892-2.843 9.004-1.817 3.111 1.026 5.451 3.617 6.156 6.817.06.08.08.64.1.74z"/>
        <circle cx="9.55" cy="6.42" r="5.71" stroke="#1D1D1B" stroke-linecap="round" stroke-linejoin="round" stroke-width="1.4"/>
        <path stroke="#1D1D1B" stroke-linecap="round" stroke-linejoin="round" stroke-width="1.4" d="M9.55 21.1H2c-.463.01-.905-.192-1.201-.548-.296-.357-.414-.829-.319-1.282.249-1.178.739-2.291 1.44-3.27 1.784-2.431 4.62-3.868 7.635-3.868 3.016 0 5.851 1.437 7.635 3.868"/>
        <path fill="#FFF" fill-rule="nonzero" d="M20.87 19.67c.195.039.334.211.33.41v3.49c0 1.906-.637 3.757-1.81 5.26l-2.62 2-2.9-2.17c-2.177-1.621-3.46-4.176-3.46-6.89V19c.28-.277.483-.621.59-1 .052-.2.079-.404.08-.61h7.19c.334.005.622.235.7.56.273.877 1 1.536 1.9 1.72z"/>
        <path stroke="#1D1D1B" stroke-linecap="round" stroke-linejoin="round" stroke-width="1.4" d="M22.44 18.46v3.88c0 2.662-1.233 5.173-3.34 6.8l-.14.12-2.62 2-2.91-2.18c-2.157-1.617-3.428-4.154-3.43-6.85v-3.77c.192.003.384-.02.57-.07.406-.102.776-.313 1.07-.61.264-.254.46-.57.57-.92.125-.445.538-.747 1-.73h6.09c.46-.018.872.279 1 .72.07.205.168.4.29.58.416.62 1.104 1.003 1.85 1.03h0z"/>
    </g>
</svg>
