<svg xmlns="http://www.w3.org/2000/svg" width="32" height="33" viewBox="0 0 32 33">
    <g fill="none" fill-rule="evenodd" opacity=".75">
        <path fill="#F6C4C6" fill-rule="nonzero" d="M23.74 2.33H11.56c-.195 0-.39.02-.58.06-.128.318-.192.657-.19 1v5l-4.07-.13-5.78 2.37-.09.13v20.48c.006.107.077.199.179.232.101.033.213 0 .281-.082l3.42-1.64L6.24 29l.48-.23h13.43c.256-.002.512-.036.76-.1 0-.11 2.17-1.08 2.17-1.19l-.48-2.76c.16 0 .15-.78.48-1.62.12-.3 2.18-.69 2.18-1V3.85c0-.84-.68-1.52-1.52-1.52z" transform="translate(2 .5)"/>
        <path stroke="#1D1D1B" stroke-linecap="round" stroke-linejoin="round" stroke-width="1.4" d="M15.18 11.41L18.34 14.61 23.7 8.84" transform="translate(2 .5)"/>
        <path stroke="#1D1D1B" stroke-linecap="round" stroke-linejoin="round" stroke-width="1.4" d="M27.15 3.37v17.1c-.002 1.246-.865 2.325-2.08 2.6-.19.04-.385.06-.58.06h-11c-1.47 0-2.66-1.19-2.66-2.66V3.37c.005-1.451 1.169-2.633 2.62-2.66h11c.712-.01 1.4.265 1.907.765.507.5.793 1.183.793 1.895h0z" transform="translate(2 .5)"/>
        <path stroke="#1D1D1B" stroke-linecap="round" stroke-linejoin="round" stroke-width="1.4" d="M10.79 6.38H6.72V28.8h13.43c.256-.002.512-.036.76-.1 1.28-.344 2.17-1.504 2.17-2.83v-2.74" transform="translate(2 .5)"/>
        <path stroke="#1D1D1B" stroke-linecap="round" stroke-linejoin="round" stroke-width="1.4" d="M6.72 6.38l-5.3 2.09c-.364.38-.568.884-.57 1.41v21.36c.006.107.077.199.179.232.101.033.213 0 .281-.082l3.42-1.64L6.24 29l.48-.23" transform="translate(2 .5)"/>
    </g>
</svg>
