<svg xmlns="http://www.w3.org/2000/svg" width="32" height="32" viewBox="0 0 32 32">
    <g fill="none" fill-rule="evenodd">
        <path fill="#FFF" fill-rule="nonzero" d="M27.62 5.93h-5.17c.003-.96-.378-1.883-1.057-2.563-.68-.68-1.602-1.06-2.563-1.057h-7.6c-.962-.005-1.886.374-2.566 1.054-.68.68-1.06 1.604-1.054 2.566H3.32c-1.236.005-2.24 1.004-2.25 2.24L.93 24.65c-.014 1.082.411 2.123 1.178 2.886.767.763 1.81 1.183 2.892 1.164h22.6c1.168-.016 2.11-.962 2.12-2.13V8c-.016-1.148-.952-2.07-2.1-2.07z" transform="translate(0 1)"/>
        <path stroke="#1D1D1B" stroke-linecap="round" stroke-linejoin="round" stroke-width="1.4" d="M24.07 4.33h5.2c1.145 0 2.074.925 2.08 2.07V25c-.038 2.213-1.837 3.99-4.05 4H4.69c-1.07.013-2.1-.402-2.86-1.154C1.067 27.095.64 26.07.64 25V6.4c-.005-.047-.005-.093 0-.14.07-1.094.983-1.943 2.08-1.93h5.86" transform="translate(0 1)"/>
        <path stroke="#1D1D1B" stroke-linecap="round" stroke-linejoin="round" stroke-width="1.4" d="M12.2.7h7.6c2.016 0 3.65 1.634 3.65 3.65S21.816 8 19.8 8h-7.6c-2.016 0-3.65-1.634-3.65-3.65S10.184.7 12.2.7zM8.9 17c0-1.392 1.128-2.52 2.52-2.52h0c.87.006 1.655.528 1.998 1.328.342.8.178 1.728-.418 2.362l-4 4.65h5M18.06 17c0-1.392 1.128-2.52 2.52-2.52h0c.838.053 1.572.58 1.89 1.358.317.777.161 1.668-.4 2.292l-4.05 4.65h5" transform="translate(0 1)"/>
    </g>
</svg>
