<?xml version="1.0" encoding="UTF-8"?>
<svg width="32px" height="32px" viewBox="0 0 32 32" version="1.1" xmlns="http://www.w3.org/2000/svg" xmlns:xlink="http://www.w3.org/1999/xlink">
    <title>icon/review-entity-types/white/llc-operating-agreements</title>
    <g id="icon/review-entity-types/white/llc-operating-agreements" stroke="none" stroke-width="1" fill="none" fill-rule="evenodd">
        <g id="20200406_ICON_ICON-155" transform="translate(2.000000, 1.000000)">
            <path d="M26.46,20.51 L24.7,17.63 C24.1996296,16.806733 24.1996296,15.773267 24.7,14.95 L26.44,12.06 C26.8979138,11.3217245 26.943262,10.3996448 26.56,9.62 C26.2692342,9.0005294 25.9350691,8.40237383 25.56,7.83 C25.0606327,7.11930661 24.2382676,6.70624651 23.37,6.73 L20,6.81 C19.0397451,6.84220372 18.1429023,6.33193111 17.68,5.49 L16,2.52 C15.5860124,1.75809242 14.8144811,1.25753793 13.95,1.19 C13.2574006,1.14488563 12.5625994,1.14488563 11.87,1.19 C11.5576142,1.2129131 11.2523162,1.29432589 10.97,1.43 C10.4830239,1.67018908 10.0815847,2.05417438 9.82,2.53 L8.22,5.45 L8.22,5.52 C7.76,6.36 7.58,6 6.62,5.98 L3.3,6 C2.89,6 1.67,6.94 1.3,7.11 C1.16379282,7.29829351 1.04018967,7.49539042 0.93,7.7 C0.750913524,8.00144079 0.587366429,8.3118465 0.44,8.63 C0.098398207,9.39681107 0.154446618,10.282376 0.59,11 L2.36,13.9 C2.85409169,14.7214251 2.85409169,15.7485749 2.36,16.57 L0.62,19.48 C0.173060361,20.2180229 0.127948747,21.1315331 0.5,21.91 C0.792582734,22.5285364 1.126679,23.1265687 1.5,23.7 C1.99463315,24.4173242 2.81903368,24.835171 3.69,24.81 L7.09,24.72 C8.0501007,24.698939 8.94304259,25.2108411 9.41,26.05 L11.05,29.05 C11.4686545,29.8121604 12.2430764,30.3121512 13.11,30.38 C13.7990914,30.4300764 14.4909086,30.4300764 15.18,30.38 C15.4923858,30.3570869 15.7976838,30.2756741 16.08,30.14 L17.67,27.21 C17.9267196,26.7353144 18.3301479,26.3564426 18.82,26.13 L18.82,26.07 C19.278267,25.2295291 20.1627606,24.7103698 21.12,24.72 L24.51,24.78 C24.9144084,24.7807381 25.3139662,24.6919475 25.68,24.52 C25.8133333,24.32 25.9333333,24.12 26.04,23.92 C26.22,23.62 26.38,23.31 26.53,23 C26.9412291,22.2142941 26.9147209,21.2713619 26.46,20.51 Z M19.19,21.68 C20.9288208,19.3818039 21.3562287,16.3481029 20.3200592,13.6589477 C19.2838896,10.9697925 16.9313554,9.00724253 14.1,8.47 C13.4739116,8.32746718 12.8314196,8.27028203 12.19,8.3 C10.4830569,8.37148175 8.83911714,8.96483582 7.48,10 C8.98555383,8.0069246 11.3042974,6.79251937 13.8,6.69 C14.4441897,6.66199112 15.0893317,6.71575295 15.72,6.85 C18.9513183,7.47183523 21.5149258,9.93555164 22.2646298,13.139618 C23.0143338,16.3436843 21.8099656,19.6890511 19.19,21.68 L19.19,21.68 Z" id="Shape" fill="#FFFFFF" fill-rule="nonzero"></path>
            <path d="M22.44,14.83 C22.6040918,18.5507346 20.2725991,21.9262462 16.7347418,23.090015 C13.1968845,24.2537839 9.31679339,22.9215565 7.24,19.83 C6.38379152,18.6245173 5.8784219,17.2053286 5.78,15.73 C5.62978765,13.480374 6.39460091,11.2654475 7.90089494,9.58781252 C9.40718896,7.91017754 11.5272457,6.91208014 13.78,6.82 C14.4185148,6.79542332 15.0574599,6.85595496 15.68,7 C19.4850846,7.71157715 22.2911644,10.9618145 22.44,14.83 L22.44,14.83 Z" id="Path" stroke="#1D1D1B" stroke-width="1.4" stroke-linecap="round" stroke-linejoin="round"></path>
            <path d="M27.78,21.81 C27.63,22.12 27.47,22.42 27.29,22.72 C27.11,23.02 26.94,23.32 26.75,23.61 C26.5019348,23.9830308 26.1559607,24.2805686 25.75,24.47 C25.3839662,24.6419475 24.9844084,24.7307381 24.58,24.73 L21.19,24.67 C20.2370208,24.6563844 19.3535616,25.1672543 18.89,26 L18.89,26.06 L17.27,29 C17.0084153,29.4758256 16.6069761,29.8598109 16.12,30.1 C15.8376838,30.2356741 15.5323858,30.3170869 15.22,30.34 C14.5309086,30.3900764 13.8390914,30.3900764 13.15,30.34 C12.2810433,30.2700505 11.5061782,29.766012 11.09,29 L9.45,26 C8.98304259,25.1608411 8.0901007,24.648939 7.13,24.67 L3.73,24.76 C2.86839056,24.7964805 2.04591906,24.3983893 1.54,23.7 C1.166679,23.1265687 0.832582734,22.5285364 0.54,21.91 C0.167948747,21.1315331 0.213060361,20.2180229 0.66,19.48 L2.41,16.57 C2.90409169,15.7485749 2.90409169,14.7214251 2.41,13.9 L0.59,11 C0.136618244,10.2654109 0.0839820722,9.35179733 0.45,8.57 C0.597366429,8.2518465 0.760913524,7.94144079 0.94,7.64 C1.05018967,7.43539042 1.17379282,7.23829351 1.31,7.05 L1.48,6.77 C1.97071832,6.05870782 2.78605312,5.64164716 3.65,5.66 L7.05,5.72 C7.45568372,5.72215352 7.85628415,5.62970726 8.22,5.45 C8.70695405,5.22298923 9.107018,4.84398127 9.36,4.37 L11,1.44 L11,1.44 C11.4033045,0.689400632 12.1524161,0.187495867 13,0.1 C13.6924319,0.0499997107 14.3875681,0.0499997107 15.08,0.1 C15.9430479,0.16364173 16.7149193,0.660651573 17.13,1.42 L18.78,4.42 C19.2469574,5.25915892 20.1398993,5.77106095 21.1,5.75 L24.49,5.66 C25.3609663,5.63482898 26.1853669,6.05267583 26.68,6.77 C27.0549998,7.33894334 27.3891717,7.93376927 27.68,8.55 C28.063262,9.32964478 28.0179138,10.2517245 27.56,10.99 L25.82,13.89 C25.3191303,14.7095308 25.3191303,15.7404692 25.82,16.56 L27.58,19.44 C28.0352724,20.1480509 28.1101766,21.0356665 27.78,21.81 L27.78,21.81 Z" id="Path" stroke="#1D1D1B" stroke-width="1.4" stroke-linecap="round" stroke-linejoin="round"></path>
            <polyline id="Path" stroke="#1D1D1B" stroke-width="1.4" stroke-linecap="round" stroke-linejoin="round" points="19.35 12.5 13.69 17.98 10.54 14.73"></polyline>
        </g>
    </g>
</svg>