<svg xmlns="http://www.w3.org/2000/svg" width="32" height="32" viewBox="0 0 32 32">
    <g fill="none" fill-rule="evenodd" opacity=".75">
        <g>
            <g>
                <g>
                    <g transform="translate(-679 -1059) translate(0 780) translate(655 255) translate(24 24)">
                        <circle cx="14.5" cy="18.5" r="13.5" fill="#DEF2FA"/>
                        <circle cx="16" cy="16" r="15.25" stroke="#222" stroke-width="1.5"/>
                        <path fill="#222" fill-rule="nonzero" d="M13.148 19v-1.152h-2.312v-4.512H9.588V19h3.56zm4.296 0v-1.152h-2.312v-4.512h-1.248V19h3.56zm3.44.144c.39 0 .768-.08 1.136-.24.368-.16.672-.408.912-.744l-1.04-.776c-.128.192-.29.341-.488.448-.197.107-.424.16-.68.16-.224 0-.433-.045-.628-.136-.195-.09-.364-.217-.508-.38-.144-.163-.257-.355-.34-.576-.083-.221-.124-.465-.124-.732 0-.261.041-.504.124-.728.083-.224.197-.417.344-.58.147-.163.32-.29.52-.38.2-.09.417-.136.652-.136.235 0 .441.04.62.12.179.08.33.195.452.344l.96-.784c-.123-.155-.261-.285-.416-.392-.155-.107-.316-.192-.484-.256-.168-.064-.339-.11-.512-.14-.173-.03-.34-.044-.5-.044-.443 0-.85.07-1.224.208-.373.139-.696.337-.968.596-.272.259-.484.572-.636.94-.152.368-.228.779-.228 1.232 0 .453.076.864.228 1.232.152.368.364.681.636.94.272.259.595.457.968.596.373.139.781.208 1.224.208z" opacity=".9"/>
                    </g>
                </g>
            </g>
        </g>
    </g>
</svg>
