<svg xmlns="http://www.w3.org/2000/svg" width="32" height="32" viewBox="0 0 32 32">
    <g fill="none" fill-rule="evenodd">
        <g>
            <g>
                <g>
                    <path fill="#FFF" d="M8 14H27V31H8z" transform="translate(-287 -1141) translate(255 1117) translate(32 24)"/>
                    <g fill="#1D1D1D" fill-rule="nonzero">
                        <path d="M21 32H3c-1.653 0-3-1.345-3-3V15c0-1.655 1.347-3 3-3h18c1.653 0 3 1.345 3 3v14c0 1.655-1.347 3-3 3zM3 14c-.55 0-1 .448-1 1v14c0 .552.45 1 1 1h18c.55 0 1-.448 1-1V15c0-.552-.45-1-1-1H3z" transform="translate(-287 -1141) translate(255 1117) translate(32 24) translate(4)"/>
                        <path d="M19 14c-.552 0-1-.448-1-1V8c0-3.308-2.692-6-6-6S6 4.692 6 8v5c0 .552-.448 1-1 1s-1-.448-1-1V8c0-4.412 3.588-8 8-8s8 3.588 8 8v5c0 .552-.448 1-1 1z" transform="translate(-287 -1141) translate(255 1117) translate(32 24) translate(4)"/>
                    </g>
                </g>
            </g>
        </g>
    </g>
</svg>
