<svg xmlns="http://www.w3.org/2000/svg" width="32" height="32" viewBox="0 0 32 32">
    <g fill="none" fill-rule="evenodd">
        <path fill="#FFF" fill-rule="nonzero" d="M29.57 3.21v3.43c0 .136-.02.27-.06.4l-2 19.26.78 1.88-.68 1.38-1.05.38h-3.63c-.972 0-1.76-.788-1.76-1.76V26.3H20l-.3-2.84h-7.39L12.14 25l-.09.9-.8.38v1.88l-.72 1.41-1 .35H5.91c-.97-.005-1.755-.79-1.76-1.76V26.3H3L.8 5.3c-.04-.13-.06-.264-.06-.4V2.46H11.8c.414 0 .75.336.75.75v3.43c-.005.135-.025.27-.06.4l-.53 5c-.05.52-1.48 14.23-1.48 14.23-.06 2.47 1.13-.17 1.13-.17L14 12.26c.84 0 2.69.66 2.61-.18h1.89l-.71-6.8c-.04-.13-.06-.264-.06-.4V2.46h11.09c.414 0 .75.336.75.75z" transform="translate(0 1)"/>
        <path stroke="#1D1D1B" stroke-linecap="round" stroke-linejoin="round" stroke-width="1.4" d="M14.28 2.22v2.66c0 .136-.02.27-.06.4-.174.663-.775 1.124-1.46 1.12H2.22C1.537 6.403.94 5.942.77 5.28c-.04-.13-.06-.264-.06-.4V2.22c0-.834.676-1.51 1.51-1.51h10.54c.836 0 1.515.674 1.52 1.51h0z" transform="translate(0 1)"/>
        <path stroke="#1D1D1B" stroke-linecap="round" stroke-linejoin="round" stroke-width="1.4" d="M14.28 4.71L14.22 5.28 13.51 12.08 13.51 12.08 13.35 13.65 12.35 23.46 12.14 25 12 26.3 3 26.3.8 5.3.71 4.71M11.25 26.3v1.88c0 .96-.77 1.744-1.73 1.76H5.91c-.972 0-1.76-.788-1.76-1.76V26.3h7.1zM31.3 2.22v2.66c0 .136-.02.27-.06.4-.173.66-.768 1.12-1.45 1.12H19.24c-.682 0-1.277-.46-1.45-1.12-.04-.13-.06-.264-.06-.4V2.22c.005-.832.678-1.505 1.51-1.51h10.55c.832.005 1.505.678 1.51 1.51h0z" transform="translate(0 1)"/>
        <path stroke="#1D1D1B" stroke-linecap="round" stroke-linejoin="round" stroke-width="1.4" d="M31.3 4.71L31.24 5.28 29.04 26.3 28.27 26.3 27.49 26.3 21.17 26.3 19.99 26.3 19.69 23.45 18.5 12.07 17.79 5.28 17.73 4.71M28.27 26.3v1.88c0 .96-.77 1.744-1.73 1.76h-3.61c-.972 0-1.76-.788-1.76-1.76V26.3h7.1zM18.5 12.08L13.5 12.08M19.69 23.46L12.31 23.46M16 16.65L16 19.05" transform="translate(0 1)"/>
    </g>
</svg>
