<svg xmlns="http://www.w3.org/2000/svg" width="32" height="32" viewBox="0 0 32 32">
    <g fill="none" fill-rule="evenodd">
        <path fill="#FFF" fill-rule="nonzero" d="M19.61 5.54V29c-.001.528-.114 1.049-.33 1.53-.493.225-1.028.341-1.57.34H5c-2.115 0-3.83-1.715-3.83-3.83V4.13c-.01-.525.093-1.047.3-1.53.479-.224 1.001-.34 1.53-.34h13.32c.896-.091 1.785.224 2.423.86.637.636.956 1.524.867 2.42z" transform="translate(5)"/>
        <path stroke="#1D1D1B" stroke-linecap="round" stroke-linejoin="round" stroke-width="1.4" d="M21.19 24.28v3.16c0 1.504-.88 2.87-2.25 3.49-.493.224-1.028.34-1.57.34H4.63C2.517 31.265.805 29.553.8 27.44V4.51c0-.52.109-1.035.32-1.51C1.72 1.594 3.101.681 4.63.68h12.74c1.015 0 1.988.404 2.705 1.122.716.719 1.118 1.693 1.115 2.708v19.77h0z" transform="translate(5)"/>
        <path stroke="#1D1D1B" stroke-linecap="round" stroke-linejoin="round" stroke-width="1.4" d="M5.85 10.35h2.2c.8 0 1.45.65 1.45 1.45v15.91H4.4V11.8c0-.8.65-1.45 1.45-1.45zM14 18.77h2.2c.8 0 1.45.65 1.45 1.45v7.49H12.5v-7.49c0-.393.16-.77.442-1.043.283-.274.665-.42 1.058-.407zM5.22 6.33L16.98 6.33" transform="translate(5)"/>
    </g>
</svg>
