<svg xmlns="http://www.w3.org/2000/svg" width="32" height="32" viewBox="0 0 32 32">
    <g fill="none" fill-rule="evenodd">
        <path fill="#F9F2D7" fill-rule="nonzero" d="M12.15 1.94C8.353 1.932 4.756 3.646 2.37 6.6 1.92 7.89.6 11.86.6 13.31c-.003 3.348 1.326 6.56 3.693 8.927 2.368 2.367 5.58 3.696 8.927 3.693 2.17 0 5.76-1.55 7.55-2.52 1.45-.78 2.29-3.12 3.33-4.38.451-1.45.67-2.962.65-4.48.003-3.343-1.324-6.55-3.687-8.916C18.7 3.269 15.493 1.94 12.15 1.94zm1.21 18.32s-4.73-5.08-4.73-7.69c-.08-1.74.803-3.383 2.297-4.277 1.495-.894 3.36-.894 4.856 0 1.494.894 2.377 2.537 2.297 4.277 0 2.61-4.72 7.69-4.72 7.69z"/>
        <path stroke="#1D1D1B" stroke-width="1.4" d="M25.82 13.31c.006 2.515-.743 4.975-2.15 7.06-.22.32-.45.63-.69.92-3.375 4.136-8.988 5.699-14.015 3.902C3.94 23.395.588 18.628.6 13.29c-.001-1.407.239-2.804.71-4.13.072-.248.159-.492.26-.73h0C3.882 2.884 9.787-.258 15.678.924 21.568 2.106 25.806 7.282 25.8 13.29l.02.02z"/>
        <circle cx="13.12" cy="12.22" r="1.7" fill="#F9F2D7" fill-rule="nonzero" stroke="#1D1D1B" stroke-width="1.4"/>
        <path stroke="#1D1D1B" stroke-width="1.4" d="M17.94 12.45c0 2.61-4.73 7.68-4.73 7.68s-4.72-5.07-4.72-7.68c-.08-1.74.803-3.383 2.297-4.277 1.495-.894 3.36-.894 4.856 0 1.494.894 2.377 2.537 2.297 4.277z"/>
        <path fill="#F9F2D7" fill-rule="nonzero" stroke="#1D1D1B" stroke-linecap="round" stroke-linejoin="round" stroke-width="1.4" d="M30.9 30.78h0c-.27.305-.652.49-1.06.512-.408.023-.807-.118-1.11-.392l-8-7.17L23 21.6l7.82 7c.303.277.482.663.497 1.073.015.41-.135.809-.417 1.107h0z"/>
    </g>
</svg>
