<svg xmlns="http://www.w3.org/2000/svg" width="36" height="36" viewBox="0 0 36 36">
    <g fill="none" fill-rule="evenodd">
        <path fill="#FFF" fill-rule="nonzero" d="M29.531 12.375v20.07c-.078.259-.202.619-.292.866-.414.486-.934.871-1.519 1.125-.481.221-1 .347-1.53.372H12.566c-1.143.002-2.241-.45-3.05-1.26-.809-.808-1.261-1.906-1.258-3.05V16.876L4.95 13.399l3.308-3.274V4.736c-.018-.206-.018-.413 0-.619.049-.39.159-.769.326-1.124l.067-.135c.674-.41 1.45-.621 2.239-.608h8.156c1.974-.048 3.888.679 5.333 2.025 1.203 1.249 2.621 2.689 3.746 3.87.993 1.178 1.496 2.692 1.406 4.23z" transform="translate(2.25)"/>
        <path stroke="#1D1D1B" stroke-linecap="round" stroke-linejoin="round" stroke-width="1.4" d="M8.01 8.021V5.096c-.017-.206-.017-.413 0-.619.048-.39.158-.77.326-1.125l.068-.135C9.13 1.695 10.689.746 12.375.8h8.786c1.484.01 2.902.613 3.938 1.676 1.372 1.406 3.026 3.15 4.41 4.534.93.963 1.451 2.25 1.451 3.588v20.25c.004.879-.268 1.737-.776 2.453-.432.678-1.043 1.224-1.767 1.575-.557.244-1.158.37-1.766.371H12.375c-2.38 0-4.309-1.929-4.309-4.309V18.922" transform="translate(2.25)"/>
        <path stroke="#1D1D1B" stroke-linecap="round" stroke-linejoin="round" stroke-width="1.4" d="M23.445 1.474v4.905c.006 1.17.956 2.115 2.126 2.115h4.624M13.601 17.258L25.346 17.258M13.601 22.815L25.346 22.815M23.434 27.698L25.346 27.698" transform="translate(2.25)"/>
        <path fill="#1D1D1B" fill-rule="nonzero" d="M8.01 22.5c-.435 0-.787-.353-.787-.788 0-6.378-.957-7.503-6.39-7.503-.435 0-.788-.353-.788-.788 0-.435.353-.787.787-.787 5.434 0 6.39-1.125 6.39-7.504 0-.281.15-.541.394-.682.244-.14.544-.14.788 0 .243.14.394.4.393.682 0 6.379.957 7.504 6.39 7.504.435 0 .788.352.788.787 0 .435-.353.788-.787.788-5.434 0-6.39 1.125-6.39 7.503 0 .435-.353.788-.788.788zm-2.25-9.079c1.033.476 1.84 1.336 2.25 2.397.412-1.06 1.219-1.919 2.25-2.397-1.031-.478-1.838-1.337-2.25-2.396-.407 1.046-1.2 1.896-2.216 2.374l-.034.022z" transform="translate(2.25)"/>
    </g>
</svg>
