<svg xmlns="http://www.w3.org/2000/svg" width="32" height="32" viewBox="0 0 32 32">
    <g fill="none" fill-rule="evenodd">
        <path fill="#FFF" fill-rule="nonzero" d="M27.66 10.931c-.479-.221-1.001-.335-1.53-.334V6.875c0-.658.19-2.21-1.26-1.729l-1 .472v-.59.63c-.146-.705-.392-1.386-.73-2.024-.7-1.034-1.876-1.66-3.14-1.67H3c-.652-.002-1.294.164-1.86.482C.839 3.022.688 3.663.7 4.312v5.892c.002 1.239.599 2.403 1.61 3.143.595.433 1.31.68 2.05.707h.2l-.48 3.625 5.86-3.516h.5c.36 1.933 2.004 3.383 4 3.525h.28v1.552h2.85V17.68h1.72l7.8 3.29.19.078v-.226c0-.697 0-3.084.36-3.26v-1.218c.59-.001 1.171-.146 1.69-.422.274-.52.414-1.096.41-1.68.007-1.403-.8-2.687-2.08-3.31z" transform="translate(0 2.946)"/>
        <path fill="#FFF" fill-rule="nonzero" d="M14.74 23.483c0 .737 2 1.346 2.69 1.404l.16-5.696h-2.85v4.292z" transform="translate(0 2.946)"/>
        <path stroke="#1D1D1B" stroke-linecap="round" stroke-linejoin="round" stroke-width="1.4" d="M19.31 14.113V7.73h-4.85c-1.172.015-2.275.55-3 1.454-.502.606-.86 1.314-1.05 2.072-.121.469-.182.95-.18 1.434-.002.48.058.96.18 1.424h-.5L4.08 17.68l.48-3.516h-.2c-.74-.028-1.455-.275-2.05-.708C1.282 12.703.683 11.513.7 10.254V4.36c0-.637.158-1.264.46-1.827C1.817 1.284 3.127.496 4.56.49h17c1.239 0 2.4.595 3.11 1.591.485.664.745 1.462.74 2.279v.55" transform="translate(0 2.946)"/>
        <path stroke="#1D1D1B" stroke-linecap="round" stroke-linejoin="round" stroke-width="1.4" d="M10.44 14.113h0c.36 1.934 2.004 3.384 4 3.526h4.85v-3.526M27.66 5.264v14.84c-.001.281-.134.545-.36.717-.055.05-.12.086-.19.108-.222.103-.478.103-.7 0l-.28-.137-6.82-3.113v-9.95l4.55-2.111h0l1.54-.707 1-.472c.28-.115.602-.084.855.082.253.165.405.444.405.743zM31.3 12.69c.004 1.347-.744 2.588-1.95 3.23-.519.277-1.1.422-1.69.423V9.036c.976.01 1.908.4 2.59 1.086.683.685 1.06 1.609 1.05 2.567zM17.59 17.679v5.843c0 .776-.64 1.405-1.43 1.405h-.11c-.743-.052-1.317-.663-1.31-1.395V17.68h2.85z" transform="translate(0 2.946)"/>
    </g>
</svg>
