<svg xmlns="http://www.w3.org/2000/svg" width="32" height="32" viewBox="0 0 32 32">
    <g fill="none" fill-rule="evenodd">
        <path fill="#1D1D1D" fill-rule="nonzero" d="M25.5 6c2.872 0 5.25 1.981 5.25 4.5S28.372 15 25.5 15v-1.5c2.098 0 3.75-1.376 3.75-3s-1.652-3-3.75-3zm-3.75-4.5c.414 0 .75.336.75.75v6c0 .414-.336.75-.75.75S21 8.664 21 8.25v-6c0-.414.336-.75.75-.75z" transform="translate(1 3)"/>
        <path fill="#FFF" d="M25.875 1.025c-.093 10.43-.093 16.092 0 16.989.051.494.155 1.636-.375 1.988-.288.19-1.028.19-2.219 0l-9.292-3.118-4.15-.374V4.95l4.15-.848 7.761-2.238 4.125-.839z" transform="translate(1 3)"/>
        <path fill="#1D1D1D" fill-rule="nonzero" d="M9 5.555l-4.152.448C2.943 6.208 1.5 7.816 1.5 9.73v1.541c0 1.914 1.44 3.52 3.343 3.728L9 15.461V5.555zm1.5-.162v10.235l3.06.34 10.962 3.497c.074.023.15.035.228.035.414 0 .75-.336.75-.75V2.25c0-.077-.012-.154-.036-.228-.126-.395-.548-.612-.943-.486l-10.96 3.512-.149.031-2.912.314zm.131 11.748l1.299 7.213c.22 1.223-.593 2.393-1.816 2.613-.131.023-.265.035-.399.035h-.839c-.927 0-1.759-.568-2.096-1.431l-3.72-9.526C1.24 15.21 0 13.373 0 11.272v-1.54c0-2.682 2.02-4.933 4.687-5.22l8.488-.916L24.064.108c1.183-.38 2.45.273 2.829 1.456.07.222.107.454.107.687v16.5c0 1.242-1.007 2.25-2.25 2.25-.232 0-.463-.037-.684-.107L13.25 17.427l-2.619-.286zm-5.779-.63l3.326 8.514c.112.288.39.477.698.477h.84c.044 0 .088-.004.132-.011.408-.074.679-.464.606-.872l-1.378-7.648-4.224-.46z" transform="translate(1 3)"/>
    </g>
</svg>
