<?xml version="1.0" encoding="UTF-8"?>
<svg width="33px" height="31px" viewBox="0 0 33 31" version="1.1" xmlns="http://www.w3.org/2000/svg" xmlns:xlink="http://www.w3.org/1999/xlink">
    <title>Icon</title>
    <g id="Page-1" stroke="none" stroke-width="1" fill="none" fill-rule="evenodd">
        <g id="20200406_ICON_ICON-210" transform="translate(0.000000, 1.000000)">
            <path d="M26.18,9.15 C25.6712907,8.9933411 25.1422791,8.91247308 24.61,8.91 L24.61,3.59 C24.6105696,3.16024885 24.3954415,2.7588921 24.0372487,2.52143841 C23.6790558,2.28398472 23.2256076,2.24212793 22.83,2.41 L21.83,2.69 L21.83,2.69 L21.63,2.75 L21.63,2.75 L9.2,6.17 L7,4.84 C6.68,4.84 5.75,6.91 5.43,6.92 C5.28305875,6.92097774 5.13746096,6.9480657 5,7 C4.83919977,7.06240104 4.69532727,7.16174157 4.58,7.29 C4.51274326,7.35072006 4.45538507,7.42157429 4.41,7.5 L1.48,7.78 C1.2789683,8.30356974 1.11849524,8.84182312 1,9.39 L0.89,9.39 C0.91031927,9.51251268 0.950872523,9.630793 1.01,9.74 L1.79,11.11 C2.02467729,11.4900228 2.02467729,11.9699772 1.79,12.35 L0.9,13.68 C0.6773497,14.0160152 0.643343799,14.4429781 0.81,14.81 C0.942164675,15.1024221 1.09245701,15.3863076 1.26,15.66 C1.48029088,15.997826 1.85669703,16.2010853 2.26,16.2 L3.84,16.2 C4.28832648,16.2066117 4.69624183,16.4605968 4.9,16.86 L5.01,17.08 L4.6,16.86 L4.6,27.4 C4.59733818,27.87912 4.78580476,28.3395302 5.12365917,28.6792616 C5.46151359,29.018993 5.92087265,29.2100074 6.4,29.21 L6.84,29.21 C6.91597307,29.2245843 6.99402693,29.2245843 7.07,29.21 C7.97786851,29.097203 8.65239912,28.3145746 8.63,27.4 L8.63,19.26 L8.63,19.26 L24.4,23.63 L24.61,23.7 L25.56,23.55 C26.1,23.55 25.68,19.13 26.18,18.98 L26.18,17.13 C27.3478175,17.1319623 28.4809346,16.7330768 29.39,16 L29.39,16 C29.6432126,15.388175 29.7723784,14.7321486 29.7700323,14.07 C29.7752161,11.8223002 28.3221068,9.83085241 26.18,9.15 Z M7.27,14.59 C5.83716418,14.5483099 4.68665652,13.3942073 4.6494368,11.9612484 C4.61221709,10.5282895 5.70126046,9.3160167 7.13,9.2 C8.12682973,9.1190553 9.08674771,9.59575363 9.6246862,10.4388691 C10.1626247,11.2819846 10.1904534,12.35339 9.69700894,13.2232946 C9.20356448,14.0931993 8.2696877,14.6190871 7.27,14.59 Z" id="Shape" fill="#FFFFFF" fill-rule="nonzero"></path>
            <path d="M8.63,19.26 L24.4,23.63 L24.61,23.7 C24.9908748,23.7885971 25.391355,23.6982308 25.6972782,23.4546614 C26.0032014,23.211092 26.1810037,22.8410423 26.1800042,22.45 L26.1800042,1.51 C26.1788968,1.08045116 25.9640557,0.679630252 25.6069572,0.44089588 C25.2498588,0.202161507 24.797355,0.156836084 24.4,0.32 L7.93,4.87" id="Path" stroke="#1D1D1B" stroke-width="1.4" stroke-linecap="round" stroke-linejoin="round"></path>
            <path d="M31.3300389,12 C31.3305518,13.5601924 30.6155327,15.0344586 29.39,16 L29.39,16 C28.4809346,16.7330768 27.3478175,17.1319623 26.18,17.1300072 L26.18,6.82 C27.5502556,6.82264524 28.8631898,7.37020242 29.8292907,8.34193107 C30.7953916,9.31365972 31.3353136,10.6297521 31.3300389,12 L31.3300389,12 Z" id="Path" stroke="#1D1D1B" stroke-width="1.4" stroke-linecap="round" stroke-linejoin="round"></path>
            <path d="M8.63,19 L8.63,27.4 C8.6363288,28.3065742 7.96026744,29.0730641 7.06,29.18 C6.98402693,29.1945843 6.90597307,29.1945843 6.83,29.18 L6.39,29.18 C5.91087265,29.1800074 5.45151359,28.988993 5.11365917,28.6492616 C4.77580476,28.3095302 4.58733818,27.84912 4.58997218,27.37 L4.58997218,16.87" id="Path" stroke="#1D1D1B" stroke-width="1.4" stroke-linecap="round" stroke-linejoin="round"></path>
            <path d="M9.93,11.78 C9.96544548,12.5095642 9.70157473,13.2219878 9.19943847,13.75244 C8.69730221,14.2828922 8.00041037,14.5854096 7.27,14.59 C5.83716418,14.5483099 4.68665652,13.3942073 4.6494368,11.9612484 C4.61221709,10.5282895 5.70126046,9.3160167 7.13,9.2 C7.8435907,9.17022207 8.53973086,9.42544726 9.06496741,9.90941522 C9.59020395,10.3933832 9.90141536,11.0663605 9.93,11.78 L9.93,11.78 Z" id="Path" stroke="#1D1D1B" stroke-width="1.4" stroke-linecap="round" stroke-linejoin="round"></path>
            <path d="M13.46,14 C13.6557348,14.3547947 13.6557348,14.7852053 13.46,15.14 L13.22,15.56 C13.13,15.7 13.05,15.83 12.95,15.96 C12.7207505,16.2816641 12.3446758,16.4659407 11.95,16.45 L10.37,16.37 C9.92157287,16.3655455 9.50685087,16.6074667 9.29,17 L8.49,18.36 C8.28569368,18.7222507 7.90577712,18.9502006 7.49,18.96 C7.15701879,18.9816679 6.82298121,18.9816679 6.49,18.96 C6.08763981,18.9142782 5.73482527,18.6703107 5.55,18.31 L4.83,16.91 C4.62624183,16.5105968 4.21832648,16.2566117 3.77,16.25 L2.26,16.25 C1.85669703,16.2510853 1.48029088,16.047826 1.26,15.71 C1.09245701,15.4363076 0.942164675,15.1524221 0.81,14.86 C0.624200616,14.4793717 0.658623676,14.0280471 0.9,13.68 L1.75,12.35 C1.98467729,11.9699772 1.98467729,11.4900228 1.75,11.11 L1,9.74 C0.940872523,9.630793 0.90031927,9.51251268 0.88,9.39 C0.828460458,9.12394881 0.870874645,8.84825659 1,8.61 L1.24,8.19 L1.51,7.79 C1.74045414,7.46975902 2.11571061,7.28588335 2.51,7.3 L4.09,7.38 C4.25720999,7.38932985 4.4244401,7.36202697 4.58,7.3 C4.73979318,7.23109787 4.8829975,7.12880907 5,7 C5.0701697,6.9356119 5.1307819,6.86153032 5.18,6.78 L6,5.43 C6.20384335,5.0686593 6.58514391,4.84369197 7,4.84 C7.33257981,4.80830295 7.66742019,4.80830295 8,4.84 C8.40058824,4.87602426 8.75324747,5.11871448 8.93,5.48 L9.27,6.14 L9.65,6.89 C9.85646944,7.28552717 10.2638502,7.53533614 10.71,7.54 L12.29,7.54 C12.69476,7.54294556 13.0707599,7.74974547 13.29,8.09 C13.459516,8.35909898 13.6098873,8.63979212 13.74,8.93 C13.9065132,9.30045856 13.8725815,9.73025945 13.65,10.07 L12.79,11.38 C12.5603301,11.7650177 12.5603301,12.2449823 12.79,12.63 L13.46,14 Z" id="Path" stroke="#1D1D1B" stroke-width="1.4" stroke-linecap="round" stroke-linejoin="round"></path>
        </g>
    </g>
</svg>