<svg xmlns="http://www.w3.org/2000/svg" width="32" height="32" viewBox="0 0 32 32">
    <g fill="none" fill-rule="evenodd">
        <g>
            <g>
                <g>
                    <g>
                        <g>
                            <g>
                                <path fill="#FFF" fill-rule="nonzero" d="M29.69 15.28V25c.003.377-.068.75-.21 1.1-.21.064-.43.098-.65.1H23.6c-1.45-.102-2.55-1.349-2.47-2.8v-3.48H15c-.005.568.158 1.125.47 1.6.82.52 1.556 1.165 2.18 1.91.41.6 0 1.19 0 1.29H8.49v-1c.385-.307.675-.716.84-1.18 1.112-.39 1.839-1.462 1.79-2.64H3.18c-1.355.006-2.459-1.085-2.47-2.44V3.14c0-.255.04-.508.12-.75.24-.073.49-.11.74-.11h20.54c2.24 0 2.42.75 2.46 2.46v6.14c.005.88.72 1.59 1.6 1.59h1c2.06-.07 2.46.86 2.52 2.81z" transform="translate(-421 -956) translate(357 311) translate(0 621) translate(40) translate(24 24) translate(0 3)"/>
                                <path stroke="#1D1D1B" stroke-linecap="round" stroke-linejoin="round" stroke-width="1.4" d="M31.3 13.68v9.69c.041 1.196-.694 2.283-1.82 2.69h0c-.21.064-.43.098-.65.1H23.6c-1.45-.102-2.55-1.349-2.47-2.8v-9.68c-.086-1.453 1.017-2.704 2.47-2.8h5.23c.699.044 1.352.363 1.815.888.463.526.699 1.213.655 1.912z" transform="translate(-421 -956) translate(357 311) translate(0 621) translate(40) translate(24 24) translate(0 3)"/>
                                <path stroke="#1D1D1B" stroke-linecap="round" stroke-linejoin="round" stroke-width="1.4" d="M21.13 19.92H3.18c-.654.003-1.282-.255-1.746-.717C.971 18.741.71 18.114.71 17.46V3.14c0-.255.04-.508.12-.75C1.154 1.367 2.107.674 3.18.68h20.54c1.359 0 2.46 1.101 2.46 2.46v7.74" transform="translate(-421 -956) translate(357 311) translate(0 621) translate(40) translate(24 24) translate(0 3)"/>
                                <path stroke="#1D1D1B" stroke-linecap="round" stroke-linejoin="round" stroke-width="1.4" d="M17.64 23.43v1.29H8.49v-1.29c.008-.39.28-.723.66-.81.061-.015.122-.036.18-.06 1.112-.39 1.839-1.462 1.79-2.64H15c-.005.568.158 1.125.47 1.6.349.55.897.945 1.53 1.1.372.095.634.427.64.81h0z" transform="translate(-421 -956) translate(357 311) translate(0 621) translate(40) translate(24 24) translate(0 3)"/>
                            </g>
                        </g>
                    </g>
                </g>
            </g>
        </g>
    </g>
</svg>
