<svg xmlns="http://www.w3.org/2000/svg" width="32" height="33" viewBox="0 0 32 33">
    <g fill="none" fill-rule="evenodd">
        <path fill="#F9F2D7" fill-rule="nonzero" d="M29.28 2.81c-.272-.27-.621-.449-1-.51h-2.63l-11.58-.15c-2.844-.004-5.668.462-8.36 1.38l-.63.22-3.7.36c0 .06-.68 1.3-.68 1.36v16.85c.022.934.785 1.68 1.72 1.68H21s6-2.17 8.64-3.27c.005-.016.005-.034 0-.05V3.87c-.006-.382-.132-.753-.36-1.06zM12.54 16.22l-.13.13H8.25c-.843-.005-1.525-.687-1.53-1.53v-9.2h3.67c1.187 0 2.15.963 2.15 2.15v8.45z" transform="translate(0 4.5)"/>
        <path stroke="#1D1D1B" stroke-linecap="round" stroke-linejoin="round" stroke-width="1.4" d="M21 5.47V24H2.42c-.935 0-1.698-.746-1.72-1.68V5.47c-.005-.06-.005-.12 0-.18.054-.468.296-.894.67-1.18.285-.226.636-.353 1-.36h16.9c.828-.02 1.553.551 1.73 1.36h0c.01.12.01.24 0 .36z" transform="translate(0 4.5)"/>
        <path stroke="#1D1D1B" stroke-linecap="round" stroke-linejoin="round" stroke-width="1.4" d="M31.26 2.26v16.85c-.006.386-.14.759-.38 1.06-.396.24-.815.441-1.25.6C27 21.87 21 24 21 24V5.47c.044-.668.358-1.289.87-1.72.14-.1 1.92-.79 3.77-1.48L29.89.69c.38.06.73.238 1 .51.231.306.36.677.37 1.06zM1.9 3.83l5.43-1.92C10.023.999 12.847.533 15.69.53l14.19.16M7.14 3.83h7.22v10.75c0 .845-.685 1.53-1.53 1.53H8.67c-.845 0-1.53-.685-1.53-1.53V3.83zM19.86 3.75L22.31 3.55" transform="translate(0 4.5)"/>
    </g>
</svg>
