<svg xmlns="http://www.w3.org/2000/svg" width="32" height="32" viewBox="0 0 32 32">
    <g fill="none" fill-rule="evenodd">
        <g>
            <g>
                <g>
                    <g>
                        <g>
                            <g>
                                <g>
                                    <path fill="#FFF" fill-rule="nonzero" d="M23.73 6.65v3.44h-.16L22 11.58v.05l-.16.16-1.39 1.35-.68.67-.23.7c.427 1.243.607 2.558.53 3.87l-1.56-.33-2.69-1.42L11 19.19l.93-5.42-3.79-3.68H8v3H.73L4.36 8.9 2.22 6.43h4.07V4.72H8V2.49h13c.552 0 1 .448 1 1v2.18c0 .552.448 1 1 1l.73-.02zM28 8.31c.26-.295.322-.714.16-1.072-.162-.357-.517-.588-.91-.588h-3.33v6.65H28l-1.58-1.82c-.326-.376-.326-.934 0-1.31L28 8.31z" transform="translate(-785 -1163) translate(0 603) translate(755 163) translate(0 367) translate(8 8) translate(22 22) translate(0 6)"/>
                                    <path stroke="#1D1D1B" stroke-linecap="round" stroke-linejoin="round" stroke-width="1.4" d="M8.13 10.09L7.97 10.09 7.97 9.93zM7.97 9.93L7.97.79 23.73.79 23.73 9.93 22.04 9.68M23.73 9.93L23.73 10.09 23.57 10.09zM27.55 9.12L31.16 13.3 23.91 13.3 23.91 4.95 31.16 4.95zM7.97 4.72L7.97 13.08.72 13.08 4.36 8.9 2.21 6.43.72 4.72z" transform="translate(-785 -1163) translate(0 603) translate(755 163) translate(0 367) translate(8 8) translate(22 22) translate(0 6)"/>
                                    <path stroke="#1D1D1B" stroke-linecap="round" stroke-linejoin="round" stroke-width="1.4" d="M23.73 9.93l-.16.16L22 11.58l-1.51 1.52-.69.67h0l.65 3.85c.055.289-.061.583-.299.756-.237.174-.553.195-.811.054l-.8-.42-2.34-1.23c-.222-.12-.488-.12-.71 0l-3.13 1.65c-.262.131-.574.105-.81-.068-.237-.173-.356-.463-.31-.752l.6-3.48c.042-.25-.044-.506-.23-.68l-3.48-3.4L8 9.93l5-.73c.252-.033.47-.19.58-.42l1.57-3.17c.128-.268.398-.439.695-.439.297 0 .567.171.695.439l1.56 3.17c.113.227.33.384.58.42l1.8.26 1.55.22 1.7.25z" transform="translate(-785 -1163) translate(0 603) translate(755 163) translate(0 367) translate(8 8) translate(22 22) translate(0 6)"/>
                                </g>
                            </g>
                        </g>
                    </g>
                </g>
            </g>
        </g>
    </g>
</svg>
