<svg xmlns="http://www.w3.org/2000/svg" width="32" height="32" viewBox="0 0 32 32">
    <g fill="none" fill-rule="evenodd" opacity=".75">
        <g>
            <g>
                <g>
                    <g transform="translate(-679 -1169) translate(0 780) translate(655 365) translate(24 24)">
                        <circle cx="14.5" cy="18.5" r="13.5" fill="#F1D9D9"/>
                        <circle cx="16" cy="16" r="15.25" stroke="#222" stroke-width="1.5"/>
                        <path fill="#222" fill-rule="nonzero" d="M12.044 19v-4.032h.016L14.532 19h1.632v-5.664h-1.248v3.936H14.9l-2.408-3.936h-1.696V19h1.248zm6.52 0v-2.208h.912c.299 0 .576-.028.832-.084.256-.056.477-.15.664-.284.187-.133.333-.312.44-.536.107-.224.16-.501.16-.832 0-.336-.057-.615-.172-.836-.115-.221-.27-.397-.464-.528-.195-.13-.423-.223-.684-.276-.261-.053-.539-.08-.832-.08h-2.104V19h1.248zm.832-3.264h-.832v-1.344h.64c.117 0 .24.007.368.02.128.013.244.044.348.092.104.048.19.116.256.204.067.088.1.204.1.348 0 .133-.025.244-.076.332-.05.088-.117.157-.2.208-.083.05-.176.087-.28.108-.104.021-.212.032-.324.032z" opacity=".9"/>
                    </g>
                </g>
            </g>
        </g>
    </g>
</svg>
