<svg width="33" height="31" viewBox="0 0 33 31" fill="none" xmlns="http://www.w3.org/2000/svg">
<path d="M30.08 18.1799L26.3 29.5099C26.2187 29.7643 26.0972 30.004 25.94 30.2199C25.7281 30.2767 25.5093 30.3036 25.29 30.2999H3.21C2.37832 30.2945 1.70545 29.6216 1.7 28.7899V13.7299C1.69504 13.6867 1.69504 13.6431 1.7 13.5999C1.82592 13.5591 1.95762 13.5388 2.09 13.5399H8.38V13.4699C8.63504 13.0125 8.95129 12.5919 9.32 12.2199C9.6 11.8999 9.89 11.5999 10.12 11.3099C11.5613 9.59941 12.8971 7.80275 14.12 5.92992C14.98 4.52992 15.57 2.63992 17.36 2.34992C17.5196 2.33421 17.6804 2.33421 17.84 2.34992C18.7733 2.32406 19.6654 2.73417 20.2534 3.45936C20.8413 4.18455 21.0582 5.14216 20.84 6.04992C20.84 6.04992 20.39 7.30992 18.65 11.2299C17.92 12.8799 19.1 12.8299 21.12 13.2299L27.12 14.2299C29.51 14.4199 30.69 16.1699 30.08 18.1799Z" fill="white"/>
<path fill-rule="evenodd" clip-rule="evenodd" d="M10 12.22V30.3H3.21C2.37832 30.2945 1.70545 29.6217 1.7 28.79V13.73C1.69504 13.6868 1.69504 13.6432 1.7 13.6C1.7627 12.8187 2.41626 12.2175 3.2 12.22H10Z" stroke="#1D1D1B" stroke-width="1.4" stroke-linecap="round" stroke-linejoin="round"/>
<path fill-rule="evenodd" clip-rule="evenodd" d="M32 16.8599L28.22 28.1899C27.8653 29.2117 26.9992 29.9714 25.94 30.1899C25.7281 30.2467 25.5093 30.2736 25.29 30.2699H10V13.5299C9.99908 13.0514 10.1086 12.5792 10.32 12.1499C10.8362 11.3839 11.4184 10.6645 12.06 9.99993C13.5011 8.28927 14.8369 6.49262 16.06 4.61993C16.5 3.89993 16.87 3.04993 17.38 2.35993C17.8948 1.50116 18.8289 0.98262 19.83 0.999933C20.7633 0.974076 21.6554 1.38418 22.2434 2.10938C22.8313 2.83457 23.0482 3.79217 22.83 4.69993C22.83 4.69993 22.36 5.99993 20.62 9.86993C19.89 11.5199 21.08 11.4699 23.09 11.8699L29.09 12.8699C31.43 13.0999 32.6 14.8499 32 16.8599Z" stroke="#1D1D1B" stroke-width="1.4" stroke-linecap="round" stroke-linejoin="round"/>
<path d="M5.85 24.27V27.71" stroke="#1D1D1B" stroke-width="1.4" stroke-linecap="round" stroke-linejoin="round"/>
</svg>
