<svg xmlns="http://www.w3.org/2000/svg" width="32" height="33" viewBox="0 0 32 33">
    <g fill="none" fill-rule="evenodd" transform="translate(0 2.5)">
        <path fill="#E0F1FA" fill-rule="nonzero" d="M21.42 26.93v.68H9.66v-1.87c-.005-.077-.005-.153 0-.23.495-.232.917-.595 1.22-1.05.106-.031.21-.071.31-.12 1.242-.57 2.093-1.751 2.24-3.11h3.81c.091.896.35 1.768.76 2.57.06.12.127.237.2.35.51.796 1.304 1.368 2.22 1.6.568.112.983.601 1 1.18zM13.35 20.36h-7.8c-2.58 0-4.67-2.09-4.67-4.67V4.63c-.002-.733.17-1.456.5-2.11.692-.355 1.462-.534 2.24-.52h22.54c1.872 0 3.39 1.518 3.39 3.39v12.29c-.01.738-.198 1.462-.55 2.11-.681.37-1.445.563-2.22.56H13.35v.01z"/>
        <path stroke="#1D1D1B" stroke-linecap="round" stroke-linejoin="round" stroke-width="1.4" d="M22.66 25.74v1.87H9.34v-1.87c-.005-.077-.005-.153 0-.23.093-.487.46-.877.94-1l.26-.09h0c.106-.031.21-.071.31-.12 1.242-.57 2.093-1.751 2.24-3.11.015-.2.015-.4 0-.6h5.71c-.007.696.158 1.383.48 2 .06.12.127.237.2.35.51.796 1.304 1.368 2.22 1.6.56.13.956.626.96 1.2h0z"/>
        <path stroke="#1D1D1B" stroke-linecap="round" stroke-linejoin="round" stroke-width="1.4" d="M31.29 4.9V16c.003 1.709-.93 3.282-2.43 4.1h0c-.681.37-1.445.563-2.22.56H5.37C2.795 20.66.706 18.575.7 16V4.9c-.003-1.24.488-2.429 1.365-3.305C2.94.718 4.13.227 5.37.23h21.26c2.575.006 4.66 2.095 4.66 4.67h0z"/>
        <circle cx="16.06" cy="18.14" r="1" fill="#1D1D1B" fill-rule="nonzero"/>
    </g>
</svg>
