<svg xmlns="http://www.w3.org/2000/svg" width="32" height="32" viewBox="0 0 32 32">
    <g fill="none" fill-rule="evenodd">
        <g>
            <g>
                <g>
                    <g>
                        <g>
                            <path fill="#FFF" fill-rule="nonzero" d="M29.66 4.2v14.91c-.06 1.187-.777 2.24-1.86 2.73l-2.47.94c.05-.08.1-.16.14-.24.713-1.303 1.084-2.765 1.08-4.25.007-3.502-2.04-6.683-5.232-8.127-3.191-1.443-6.932-.88-9.558 1.437-.19.16-.37.33-.54.51l-.22.29c2.806-2.234 6.682-2.557 9.82-.82 2.839 1.574 4.6 4.564 4.6 7.81.012 1.242-.24 2.473-.74 3.61-2 .74-3.67 1.35-3.67 1.35H2.44c-.942 0-1.709-.758-1.72-1.7V5.8c0-.06.67-1.3.68-1.36l3.7-.36.63-.22c2.692-.918 5.516-1.384 8.36-1.38l11.56.12h2.63c.379.061.728.24 1 .51.24.313.374.695.38 1.09z" transform="translate(-919 -2235) translate(355 2211) translate(500) translate(40) translate(24 24)"/>
                            <path stroke="#1D1D1B" stroke-linecap="round" stroke-linejoin="round" stroke-width="1.4" d="M21 24.38H2.44c-.95 0-1.72-.77-1.72-1.72V5.81c-.005-.06-.005-.12 0-.18.057-.47.302-.895.68-1.18.285-.226.636-.353 1-.36h16.89c.82-.01 1.535.559 1.71 1.36h0c.01.113.01.227 0 .34V9.3" transform="translate(-919 -2235) translate(355 2211) translate(500) translate(40) translate(24 24)"/>
                            <path stroke="#1D1D1B" stroke-linecap="round" stroke-linejoin="round" stroke-width="1.4" d="M21 9.3V5.81c.044-.668.358-1.289.87-1.72C22 4 23.8 3.3 25.65 2.61L29.9 1c.38.06.73.238 1 .51.228.307.354.678.36 1.06v16.88c-.006.386-.14.759-.38 1.06-.396.24-.815.441-1.25.6C27 22.21 21 24.38 21 24.38V13.13M1.92 4.17l5.43-1.92c2.693-.913 5.517-1.379 8.36-1.38L29.9 1M19.88 4.09L22.33 3.89" transform="translate(-919 -2235) translate(355 2211) translate(500) translate(40) translate(24 24)"/>
                            <path fill="#FFF" fill-rule="nonzero" d="M25.33 22.78c-.07.13-.14.25-.22.37-.282.29-.586.558-.91.8.066-.1.126-.203.18-.31.11-.2.21-.41.3-.62l.65-.24z" transform="translate(-919 -2235) translate(355 2211) translate(500) translate(40) translate(24 24)"/>
                            <path fill="#FFF" fill-rule="nonzero" d="M25.46 19.39c.004 1.485-.367 2.947-1.08 4.25-.054.107-.114.21-.18.31-.05.1-.12.2-.18.3-.492.502-1.042.941-1.64 1.31-.14.108-.29.202-.45.28h-.06c-3.23 1.752-7.206 1.34-10.01-1.036C9.058 22.428 8 18.574 9.2 15.1c.06-.17.12-.34.19-.51 0-.13.11-.26.17-.38.161-.347.348-.681.56-1 .17-.18.35-.35.54-.51.116-.108.24-.209.37-.3 2.806-2.234 6.682-2.557 9.82-.82 2.843 1.571 4.608 4.562 4.61 7.81z" transform="translate(-919 -2235) translate(355 2211) translate(500) translate(40) translate(24 24)"/>
                            <path stroke="#1D1D1B" stroke-linecap="round" stroke-linejoin="round" stroke-width="1.4" d="M31 30.84c-.562.619-1.518.668-2.14.11l-6.11-5.46c.728-.447 1.374-1.015 1.91-1.68.111-.127.215-.26.31-.4l5.91 5.29c.616.561.67 1.513.12 2.14h0zM26.53 18c.002 1.782-.531 3.524-1.53 5l-.13.19c-.109.16-.225.313-.35.46-.163.203-.336.396-.52.58-.492.502-1.042.941-1.64 1.31-.14.108-.29.202-.45.28h-.06c-3.226 1.739-7.188 1.325-9.985-1.044C9.068 22.408 8.007 18.57 9.19 15.1c.06-.17.12-.34.19-.51h0c0-.13.11-.26.17-.38.161-.347.348-.681.56-1 2.13-3.336 6.205-4.867 10.005-3.759 3.8 1.109 6.413 4.59 6.415 8.549z" transform="translate(-919 -2235) translate(355 2211) translate(500) translate(40) translate(24 24)"/>
                        </g>
                    </g>
                </g>
            </g>
        </g>
    </g>
</svg>
