<svg xmlns="http://www.w3.org/2000/svg" width="32" height="32" viewBox="0 0 32 32">
    <g fill="none" fill-rule="evenodd">
        <path fill="#FFF" fill-rule="nonzero" d="M19.61 5.47v23.012c.003.52-.106 1.036-.32 1.513-.496.22-1.035.334-1.58.334H5c-1.016 0-1.99-.397-2.708-1.102-.718-.706-1.122-1.662-1.122-2.66V4.076c-.002-.518.107-1.03.32-1.503.474-.213.988-.327 1.51-.334h13.32c.898-.09 1.789.221 2.427.848.638.627.955 1.502.863 2.384z" transform="translate(5)"/>
        <path stroke="#1D1D1B" stroke-linecap="round" stroke-linejoin="round" stroke-width="1.4" d="M5.12 7.268L16.88 7.268M21.2 4.45v22.53c.014 1.493-.873 2.854-2.26 3.466-.493.222-1.028.336-1.57.334H4.63c-1.022-.002-2-.405-2.72-1.118-.718-.714-1.118-1.679-1.11-2.683V4.45c.001-.518.114-1.03.33-1.503C1.729 1.571 3.107.682 4.63.687h12.74c2.113.006 3.825 1.687 3.83 3.762z" transform="translate(5)"/>
        <path stroke="#1D1D1B" stroke-linecap="round" stroke-linejoin="round" stroke-width="1.4" d="M5.12 13.102H9.45V17.355H5.12zM12.7 15.223L16.88 15.223M5.12 21.067H9.45V25.32H5.12zM12.7 23.188L16.88 23.188" transform="translate(5)"/>
    </g>
</svg>
