<svg width="32" height="32" viewBox="0 0 32 32" fill="none" xmlns="http://www.w3.org/2000/svg">
<path fill-rule="evenodd" clip-rule="evenodd" d="M22.87 3.36031L26.73 7.21031C27.6512 8.148 27.6423 9.65362 26.71 10.5803L26.17 11.1203L25 12.2903C25.8175 13.2573 25.743 14.693 24.83 15.5703C22.1239 18.2677 20.3839 21.7829 19.88 25.5703C19.6895 27.0195 18.5412 28.1555 17.09 28.3303L3.61 29.8603C3.22951 29.8346 2.87257 29.6669 2.61 29.3903C2.25479 29.0485 2.08074 28.5597 2.14 28.0703L3.91 12.7803C4.07799 11.3258 5.21741 10.174 6.67 9.99031C10.4651 9.47711 13.9824 7.71845 16.67 4.99031C16.7935 4.86358 16.935 4.75575 17.09 4.67031C17.3462 4.76364 17.5833 4.90254 17.79 5.08031L18.58 4.30031C19.0766 4.34017 19.5469 4.5402 19.92 4.87031L21.65 3.14031C21.77 3.01382 21.9082 2.90596 22.06 2.82031C22.3628 2.9455 22.638 3.12897 22.87 3.36031ZM16.33 20.2203C16.7091 19.8337 16.9873 19.3598 17.14 18.8403C17.3178 18.2399 17.3178 17.6008 17.14 17.0003C16.8023 15.9252 15.9255 15.1059 14.83 14.8417C13.7344 14.5775 12.5806 14.9072 11.79 15.7103C11.6659 15.8305 11.5521 15.9609 11.45 16.1003C11.3571 16.2379 11.2736 16.3815 11.2 16.5303C12.4319 15.9141 13.9201 16.1582 14.8906 17.1355C15.8611 18.1129 16.0948 19.6028 15.47 20.8303C15.7911 20.6805 16.0824 20.4738 16.33 20.2203Z" fill="white"/>
<path fill-rule="evenodd" clip-rule="evenodd" d="M27 15.3301V15.3301C24.2939 18.0275 22.5539 21.5427 22.05 25.3301C21.8697 26.7844 20.7161 27.9256 19.26 28.0901L3.93 29.8601C3.83359 29.8701 3.7364 29.8701 3.64 29.8601C3.25951 29.8344 2.90257 29.6667 2.64 29.3901V29.3901C2.28479 29.0483 2.11074 28.5595 2.17 28.0701L3.89 12.7501C4.07499 11.3112 5.21041 10.1799 6.65 10.0001C10.4451 9.4869 13.9624 7.72825 16.65 5.0001V5.0001C16.7735 4.87337 16.915 4.76555 17.07 4.6801C17.513 4.39764 18.0363 4.26771 18.56 4.3101C19.0566 4.34996 19.5269 4.54999 19.9 4.8801L20.05 5.0001L23.52 8.4701L26.17 11.1201L26.99 11.9401L27.12 12.0801C27.9177 13.0345 27.8659 14.4371 27 15.3301Z" stroke="#1D1D1B" stroke-width="1.4" stroke-linecap="round" stroke-linejoin="round"/>
<path d="M11.8 20.2002L2.61999 29.3902H2.60999V29.4002" stroke="#1D1D1B" stroke-width="1.4" stroke-linecap="round" stroke-linejoin="round"/>
<path fill-rule="evenodd" clip-rule="evenodd" d="M14.07 21.13C15.8373 21.13 17.27 19.6973 17.27 17.93C17.27 16.1627 15.8373 14.73 14.07 14.73C12.3027 14.73 10.87 16.1627 10.87 17.93C10.87 19.6973 12.3027 21.13 14.07 21.13Z" stroke="#1D1D1B" stroke-width="1.4" stroke-linecap="round" stroke-linejoin="round"/>
<path fill-rule="evenodd" clip-rule="evenodd" d="M28.86 10.3502L27.14 12.0702V12.0702L19.92 4.87018L21.65 3.14018C21.7699 3.01369 21.9081 2.90583 22.06 2.82018C22.9954 2.23115 24.2132 2.36371 25 3.14018L28.86 7.00018C29.7789 7.92779 29.7789 9.42257 28.86 10.3502V10.3502Z" stroke="#1D1D1B" stroke-width="1.4" stroke-linecap="round" stroke-linejoin="round"/>
</svg>
