<svg width="32" height="32" viewBox="0 0 32 32" fill="none" xmlns="http://www.w3.org/2000/svg">
<path d="M29.44 28.62V30.17C29.4376 30.5715 29.3195 30.9638 29.1 31.3H2.75001C1.64544 31.3 0.750008 30.4046 0.750008 29.3V27.71C0.699956 25.5621 1.78721 23.5472 3.61001 22.41C4.10164 22.2334 4.60657 22.0963 5.12001 22C6.06976 21.8351 6.9693 21.4554 7.75001 20.89C10.285 20.1835 12.0287 17.8614 12 15.23C12 13.23 10.66 11.7 9.92001 9.94999C9.36071 8.60676 9.2588 7.11685 9.63001 5.70999C10.0399 4.1608 10.9815 2.80507 12.29 1.87999C12.844 1.70779 13.42 1.61685 14 1.60999H14.32C16.5059 1.69928 18.5105 2.85011 19.6898 4.69274C20.869 6.53537 21.0745 8.83769 20.24 10.86C19.5 12.61 18.16 14.15 18.16 16.14C18.1463 19.0597 20.2737 21.5488 23.16 21.99C26.61 22.63 29.44 24.83 29.44 28.62Z" fill="white"/>
<path fill-rule="evenodd" clip-rule="evenodd" d="M31.29 27.71V29.26C31.29 30.3645 30.3946 31.26 29.29 31.26H2.75001C1.64544 31.26 0.750008 30.3645 0.750008 29.26V27.71C0.699956 25.5621 1.78721 23.5472 3.61001 22.41C4.63758 21.7403 5.79119 21.2877 7.00001 21.08C7.26496 21.0344 7.52581 20.9675 7.78001 20.88C10.2995 20.1632 12.0278 17.8492 12 15.23C12 13.23 10.66 11.7 9.92001 9.94995C9.36071 8.60673 9.2588 7.11682 9.63001 5.70995C10.0399 4.16076 10.9815 2.80503 12.29 1.87995C13.33 1.14293 14.5658 0.73215 15.84 0.699951H16.16C18.3592 0.783033 20.3773 1.94081 21.5591 3.79732C22.7409 5.65384 22.9356 7.97234 22.08 9.99995C21.34 11.7 20 13.24 20 15.23C19.9863 18.1497 22.1137 20.6388 25 21.08C28.46 21.72 31.29 23.92 31.29 27.71Z" stroke="#1D1D1B" stroke-width="1.4" stroke-linecap="round" stroke-linejoin="round"/>
<path d="M1.32001 26.0699H30.59" stroke="#1D1D1B" stroke-width="1.4" stroke-linecap="round" stroke-linejoin="round"/>
</svg>
