<svg xmlns="http://www.w3.org/2000/svg" width="32" height="32" viewBox="0 0 32 32">
    <g fill="none" fill-rule="evenodd">
        <path d="M0 0H32V32H0z"/>
        <path fill="#D32F2F" fill-rule="nonzero" d="M16.396 6C10.915 6 8 9.512 8 13.342c0 1.777.992 3.992 2.581 4.694.241.109.373.063.426-.161.048-.17.257-.989.358-1.375.031-.124.015-.231-.085-.348-.528-.61-.946-1.72-.946-2.763 0-2.672 2.123-5.265 5.737-5.265 3.125 0 5.311 2.03 5.311 4.933 0 3.282-1.736 5.552-3.992 5.552-1.249 0-2.179-.98-1.884-2.193.356-1.444 1.055-2.996 1.055-4.037 0-.934-.527-1.707-1.605-1.707-1.271 0-2.302 1.26-2.302 2.95 0 1.073.38 1.798.38 1.798l-1.492 6.029c-.395 1.606.054 4.207.093 4.43.024.125.162.163.24.062.124-.162 1.644-2.331 2.07-3.899.155-.57.791-2.887.791-2.887.419.756 1.628 1.39 2.915 1.39 3.83 0 6.598-3.366 6.598-7.544C24.235 8.996 20.807 6 16.396 6"/>
    </g>
</svg>
