<svg xmlns="http://www.w3.org/2000/svg" width="32" height="32" viewBox="0 0 32 32">
    <g fill="none" fill-rule="evenodd">
        <path fill="#D5F3E8" fill-rule="nonzero" d="M25.52 6.6v2.08c0 2.313-.905 4.534-2.52 6.19l-.06.06-1.45 1.47.24.24.35.35h-1.12l-7.2 7.2-.31.3-.21.21-.25.22c-.55.451-1.139.853-1.76 1.2l1.42-.4-1.77 4c-.43 0-2.3.48-2.65.14l-3.85-3.93L.54 22.1c-.523-.527-.667-1.323-.36-2l3.56-1.52v.16c.14-.274.293-.541.46-.8l1.35-.56c.412-.83.948-1.592 1.59-2.26l.34-.34L4.2 6c-.578-1.556-.338-3.299.64-4.64.823-.192 1.686.05 2.29.64l6.29 6.29 1.43-1.39.1-.09c.568-.563 1.215-1.042 1.92-1.42 1.307-.724 2.776-1.102 4.27-1.1h2.08c1.272.006 2.3 1.038 2.3 2.31z" transform="translate(1 1)"/>
        <path fill="#D5F3E8" fill-rule="nonzero" d="M28 26c-1.169.491-2.48.52-3.67.08l-8.77-3.26-.31.3c-.396.386-.824.737-1.28 1.05l-.18-.07 3.39-2.9 4.9-4.2 5.7 5.7c.89.89.984 2.3.22 3.3z" transform="translate(1 1)"/>
        <path stroke="#1D1D1B" stroke-linecap="round" stroke-linejoin="round" stroke-width="1.4" d="M27.29 5.32V7.4c.005 2.345-.919 4.596-2.57 6.26l-1.46 1.46-1.53 1.52-4.57 4.57h0l-1.62 1.62-.31.3c-.396.386-.824.737-1.28 1.05-.22.15-.45.3-.7.44h0c-2.85 1.73-7.12 3-8.85 1.28-1-1-.51-5.34 1.15-8.55.412-.83.948-1.592 1.59-2.26l9.5-9.5.25-.23c1.63-1.517 3.773-2.363 6-2.37H25c.613.003 1.2.25 1.63.688.43.437.668 1.029.66 1.642z" transform="translate(1 1)"/>
        <path stroke="#1D1D1B" stroke-linecap="round" stroke-linejoin="round" stroke-width="1.4" d="M7.46 14.78L4.2 6c-.578-1.556-.338-3.299.64-4.64.15-.219.321-.423.51-.61C5.82.28 6.46.015 7.125.015c.666 0 1.304.264 1.775.735l6 6.05.24.24L23 14.87l.25.25.6.6M15.53 22.85l8.77 3.26c1.202.438 2.526.399 3.7-.11.573-.236 1.099-.575 1.55-1 .47-.47.735-1.11.735-1.775 0-.666-.264-1.304-.735-1.775l-5.69-5.69M4.38 25.93l3.83 3.84c.325.323.762.51 1.22.52.736.026 1.41-.409 1.69-1.09L13 24.87h0v-.08M5.53 17.38l-1.35.56-3.07 1.25c-.415.173-.748.499-.93.91-.307.677-.163 1.473.36 2l3.84 3.83" transform="translate(1 1)"/>
    </g>
</svg>
