<?xml version="1.0" encoding="UTF-8"?>
<svg width="14px" height="14px" viewBox="0 0 14 14" version="1.1" xmlns="http://www.w3.org/2000/svg" xmlns:xlink="http://www.w3.org/1999/xlink">
    <title>Combined Shape</title>
    <g id="Review-entity-type/limited-liability-company" stroke="none" stroke-width="1" fill="none" fill-rule="evenodd">
        <g id="review-entity-type/limited-liability-company@2x" transform="translate(-1083.000000, -1652.000000)" fill="#FFFFFF">
            <g id="Should-you-form-an-LLC?" transform="translate(1.000000, 603.000000)">
                <g id="General-information" transform="translate(754.000000, 163.000000)">
                    <g id="form" transform="translate(0.000000, 817.000000)">
                        <g id="Modul/Icon-Box/Color/Left-Copy" transform="translate(311.000000, 0.000000)">
                            <g id="Multiply" transform="translate(0.000000, 51.500000)">
                                <path d="M24,17.5 C24.8284271,17.5 25.5,18.1715729 25.5,19 L25.5,23 L29.5,23 C30.3284271,23 31,23.6715729 31,24.5 C31,25.3284271 30.3284271,26 29.5,26 L25.5,26 L25.5,30 C25.5,30.8284271 24.8284271,31.5 24,31.5 C23.1715729,31.5 22.5,30.8284271 22.5,30 L22.5,26 L18.5,26 C17.6715729,26 17,25.3284271 17,24.5 C17,23.6715729 17.6715729,23 18.5,23 L22.5,23 L22.5,19 C22.5,18.1715729 23.1715729,17.5 24,17.5 Z" id="Combined-Shape"></path>
                            </g>
                        </g>
                    </g>
                </g>
            </g>
        </g>
    </g>
</svg>