<svg xmlns="http://www.w3.org/2000/svg" width="56" height="56" viewBox="0 0 56 56">
    <g fill="none" fill-rule="evenodd">
        <g>
            <g>
                <g transform="translate(-622 -2470) translate(265 2358) translate(357 112)">
                    <circle cx="28" cy="28" r="28" fill="#FD8550"/>
                    <path fill="#FFF" fill-rule="nonzero" d="M27.832 34.664c.485 0 .882-.159 1.19-.476.308-.317.462-.71.462-1.176v-3.5h3.528c.467 0 .859-.163 1.176-.49.317-.327.476-.723.476-1.19 0-.467-.159-.859-.476-1.176-.317-.317-.71-.476-1.176-.476h-3.528v-3.528c0-.467-.159-.859-.476-1.176-.317-.317-.71-.476-1.176-.476-.467 0-.859.159-1.176.476-.317.317-.476.71-.476 1.176v3.528h-3.528c-.467 0-.859.159-1.176.476-.317.317-.476.71-.476 1.176 0 .467.159.863.476 1.19.317.327.71.49 1.176.49h3.528v3.5c0 .467.159.859.476 1.176.317.317.71.476 1.176.476z"/>
                </g>
            </g>
        </g>
    </g>
</svg>
