<svg xmlns="http://www.w3.org/2000/svg" width="32" height="32" viewBox="0 0 32 32">
    <g fill="none" fill-rule="evenodd">
        <g>
            <g>
                <g>
                    <g>
                        <path fill="#FFF" fill-rule="nonzero" d="M23.84 17.36c.003 1.726-.497 3.415-1.44 4.86-.492.502-1.042.941-1.64 1.31-.14.108-.29.202-.45.28h-.06c-3.23 1.752-7.206 1.34-10.01-1.036-2.803-2.376-3.86-6.23-2.66-9.704.06-.17.12-.34.19-.51 0-.13.11-.26.17-.38.161-.347.348-.681.56-1 2.517-2.63 6.382-3.462 9.758-2.101 3.376 1.361 5.583 4.64 5.572 8.281h.01z" transform="translate(-379 -1081) translate(355 1057) translate(24 24) translate(0 1)"/>
                        <path stroke="#1D1D1B" stroke-linecap="round" stroke-linejoin="round" stroke-width="1.4" d="M30.64 29.5c-.63.7-1.708.758-2.41.13l-6.91-6.18c.822-.503 1.553-1.142 2.16-1.89.125-.147.241-.3.35-.46l6.68 6c.688.632.746 1.697.13 2.4zM24.92 16c.004 1.781-.525 3.523-1.52 5l-.13.19c-.109.16-.225.313-.35.46-.163.203-.336.396-.52.58-.492.502-1.042.941-1.64 1.31-.14.108-.29.202-.45.28h-.06c-3.233 1.755-7.212 1.344-10.017-1.036-2.804-2.38-3.859-6.239-2.653-9.714.06-.17.12-.34.19-.51h0c0-.13.11-.26.17-.38.161-.347.348-.681.56-1 2.133-3.34 6.216-4.871 10.02-3.755 3.803 1.117 6.411 4.611 6.4 8.575zM16 .7L16 4.6M4.6 16L.7 16M4.6 16L.7 16M7.94 7.94L5.18 5.18M5.18 26.82L7.94 24.06M24.06 7.94L26.82 5.18" transform="translate(-379 -1081) translate(355 1057) translate(24 24) translate(0 1)"/>
                    </g>
                </g>
            </g>
        </g>
    </g>
</svg>
