<svg height="32" viewBox="0 0 32 32" width="32" xmlns="http://www.w3.org/2000/svg"><g fill="none" fill-rule="evenodd" transform="translate(6)"><path d="m19.31 11.33v17.84c-.07.23-.18.55-.26.77-.3678576.4319164-.8296326.7739719-1.35 1-.4279697.1962156-.8896962.3082522-1.36.3300135h-12.11c-2.10584181.005528-3.8189819-1.6941932-3.83-3.8000135v-22.93c-.015258-.18301587-.015258-.36698413 0-.55.04363413-.34647732.14149678-.68393472.29-1l.06-.12c.60186836-.36625351 1.29558295-.55355645 2-.54h7.25c1.7532129-.0457143 3.4546437.59680916 4.74 1.79 1.06 1.12 2.26 2.4 3.33 3.45.8789444 1.04865098 1.3226936 2.39421311 1.24 3.76z" fill="#fff" fill-rule="nonzero"/><g stroke="#1d1d1b" stroke-linecap="round" stroke-linejoin="round" stroke-width="1.4"><path d="m20.8000319 9.43v18c.0031931.7808811-.238087 1.5431864-.6900319 2.18-.6985783 1.037298-1.8595906 1.6682018-3.11 1.69h-12.77c-1.01577916 0-1.98995464-.4035167-2.70821897-1.121781-.71826433-.7182644-1.12178103-1.6924398-1.12178103-2.708219v-22.93c-.015258-.18301587-.015258-.36698413 0-.55.04363413-.34647732.14149678-.68393472.29-1l.06-.12c.63560598-1.3405325 1.99663157-2.185307 3.48-2.16h7.77c1.3376102-.00123969 2.6185469.54000121 3.55 1.5 1.22 1.24 2.73 2.82 3.92 4 .8492707.85683939 1.3270589 2.0135897 1.3300319 3.22z"/><path d="m14.12 1.31v4.36c0 1.03992537.8400892 1.88449775 1.88 1.89h4.11"/><path d="m6.67 23.57h7.93"/><path d="m6.32 16.59 3.06 3.25 7.13-7.05"/></g></g></svg>