<svg xmlns="http://www.w3.org/2000/svg" width="32" height="33" viewBox="0 0 32 33">
    <g fill="none" fill-rule="evenodd" opacity=".75">
        <path fill="#FCE7D0" fill-rule="nonzero" d="M28.77 17.85c-.413 4.791-3.068 9.104-7.16 11.63-.17.11-.35.21-.53.31-1.1.474-2.256.81-3.44 1-6.794 1.1-13.478-2.504-16.292-8.785C-1.465 15.725.296 8.336 5.64 4c.69-.57 1.434-1.072 2.22-1.5.665-.279 1.35-.506 2.05-.68h.12c1.84-.44 4.17.14 4.15 3l-.55 9.77c0 1 .48 2.25 2.14 2.1l10.43-3c2.98-.58 2.73 2.31 2.57 4.16z" transform="translate(1 1.5)"/>
        <path fill="#FCE7D0" fill-rule="nonzero" d="M25.65 9.71l-5.51 2.23c-.09 0-.18.06-.27.09-.558.127-1.143-.028-1.565-.416-.421-.387-.625-.957-.545-1.524L18 8.7l.51-3.64.27-2c.036-.25.125-.488.26-.7.329.028.642.154.9.36l5.64 4.39c.386.316.616.785.63 1.284.013.499-.191.98-.56 1.316z" transform="translate(1 1.5)"/>
        <path stroke="#1D1D1B" stroke-linecap="round" stroke-linejoin="round" stroke-width="1.4" d="M30.4 16.4c-.422 4.78-3.076 9.08-7.16 11.6-.688.426-1.41.794-2.16 1.1-1.1.474-2.256.81-3.44 1-6.778 1.077-13.435-2.525-16.243-8.787C-1.411 15.052.327 7.685 5.64 3.34c.69-.57 1.434-1.072 2.22-1.5C9.014 1.185 10.252.69 11.54.37h.12c1.84-.44 4.17.15 4.15 3l-.55 9.77c0 1 .48 2.25 2.14 2.1l10.43-3c2.98-.58 2.73 2.26 2.57 4.16z" transform="translate(1 1.5)"/>
        <path stroke="#1D1D1B" stroke-linecap="round" stroke-linejoin="round" stroke-width="1.4" d="M26.75 9.27l-1.1.44-5.51 2.23c-.09 0-.18.06-.27.09-.558.127-1.143-.028-1.565-.416-.421-.387-.625-.957-.545-1.524L18 8.7l.51-3.64.27-2c.036-.25.125-.488.26-.7.263-.413.687-.695 1.17-.777.482-.082.976.044 1.36.347l5.64 4.39c.47.391.7 1 .606 1.605-.094.605-.499 1.115-1.066 1.345h0z" transform="translate(1 1.5)"/>
    </g>
</svg>
