<svg xmlns="http://www.w3.org/2000/svg" width="32" height="33" viewBox="0 0 32 33">
    <g fill="none" fill-rule="evenodd" opacity=".75">
        <path fill="#E6D7EA" fill-rule="nonzero" d="M29.92 16.3L24 26.52c-.66.815-1.68 1.252-2.726 1.168-1.045-.084-1.982-.678-2.504-1.588l-1.28-2.23L14.13 18H3.89c-1.138-.002-2.188-.61-2.757-1.595s-.57-2.199-.003-3.185L7 3c.663-.81 1.681-1.245 2.725-1.16 1.044.083 1.98.674 2.505 1.58l1.28 2.23L16 10l.89 1.54h10.27c1.132.006 2.175.61 2.743 1.59.567.979.574 2.185.017 3.17z" transform="translate(0 2.5)"/>
        <path stroke="#1D1D1B" stroke-linecap="round" stroke-linejoin="round" stroke-width="1.4" d="M18.94 11.83h0l.81 1.41c.556.983.55 2.188-.015 3.166C19.17 17.384 18.13 17.99 17 18H3.89c-1.138-.002-2.188-.61-2.757-1.595s-.57-2.199-.003-3.185L7 3l.65-1.12C8.22.896 9.272.29 10.41.29c1.138 0 2.19.606 2.76 1.59l1.29 2.23L17.87 10" transform="translate(0 2.5)"/>
        <path stroke="#1D1D1B" stroke-linecap="round" stroke-linejoin="round" stroke-width="1.4" d="M12.24 14.76c-.557-.985-.55-2.191.017-3.17.568-.98 1.611-1.584 2.743-1.59h13.1c1.138.002 2.188.61 2.757 1.595s.57 2.199.003 3.185L24.31 26.1c-.089.145-.185.286-.29.42-.66.815-1.68 1.252-2.726 1.168-1.045-.084-1.982-.678-2.504-1.588l-1.28-2.23L14.13 18" transform="translate(0 2.5)"/>
    </g>
</svg>
