<svg xmlns="http://www.w3.org/2000/svg" width="32" height="33" viewBox="0 0 32 33">
    <g fill="none" fill-rule="evenodd" opacity=".75">
        <path fill="#D5F3E8" fill-rule="nonzero" d="M19.76 12.78V13c.001.21-.03.419-.09.62-.204.06-.417.091-.63.09h-5.55v1.59h-.2c.2 0 .09 5 .09 5.8l-1.53-.24c0 .21-.028.417-.08.62-.206.052-.418.08-.63.08H11c-.631.008-1.24-.237-1.688-.68-.45-.444-.702-1.049-.702-1.68v-5.54H3.07c-1.303 0-2.36-1.057-2.36-2.36v-.17c0-.21.028-.417.08-.62.204-.06.417-.091.63-.09l1.64-1.64c.9 0 3.92.9 3.92 0h1.63V3.22c0-.206.028-.41.08-.61.208-.06.423-.091.64-.09h.17c.623 0 1.221.248 1.662.688.44.441.688 1.039.688 1.662v4.34c0 .32.127.629.354.856.227.227.535.354.856.354h4.35c1.3.006 2.35 1.06 2.35 2.36zM29.81 29.42v1.72c-.275.104-.566.158-.86.16H13c-1.294.022-2.363-1.006-2.39-2.3v-.4c0-.247.038-.493.11-.73h17.49c.864 0 1.573.686 1.6 1.55z" transform="translate(0 .5)"/>
        <path stroke="#1D1D1B" stroke-linecap="round" stroke-linejoin="round" stroke-width="1.4" d="M31.3 28.55V29c.001.967-.59 1.836-1.49 2.19-.275.104-.566.158-.86.16H13c-.63.01-1.238-.232-1.688-.674-.449-.442-.702-1.046-.702-1.676v-.4c0-.247.038-.493.11-.73.303-1.003 1.233-1.684 2.28-1.67h16c1.278.027 2.3 1.071 2.3 2.35h0zM21.4 11.13v.17c.001 1.06-.707 1.99-1.73 2.27-.204.06-.417.091-.63.09h-5.55v5.55c0 1.056-.703 1.984-1.72 2.27-.206.052-.418.08-.63.08H11c-1.3 0-2.354-1.05-2.36-2.35v-5.55H3.06C1.76 13.654.71 12.6.71 11.3v-.17c0-.21.028-.417.08-.62C1.07 9.487 2 8.779 3.06 8.78h5.55V3.22c0-.206.028-.41.08-.61C8.973 1.57 9.923.855 11 .87h.17c1.298 0 2.35 1.052 2.35 2.35v5.56H19c.631-.01 1.24.232 1.691.673.451.442.706 1.046.709 1.677z" transform="translate(0 .5)"/>
    </g>
</svg>
