<svg xmlns="http://www.w3.org/2000/svg" width="32" height="33" viewBox="0 0 32 33">
    <g fill="none" fill-rule="evenodd">
        <path fill="#E0F1FA" fill-rule="nonzero" d="M16 20.91c-.005.182.099.35.263.427.164.078.36.052.497-.067" transform="translate(0 3.5)"/>
        <path fill="#E0F1FA" fill-rule="nonzero" d="M29.76 6.68v16.53c0 .165-.02.33-.06.49-.432.188-.899.283-1.37.28h-7.77c-1.26-.064-2.511.242-3.6.88-.465.23-.813.643-.96 1.14-.09-.62-.57-.84-1-1.1-1.074-.64-2.311-.952-3.56-.9H3.66c-1.507.145-2.847-.954-3-2.46V5c0-.162.02-.323.06-.48.786-.55 1.508-1.187 2.15-1.9.29-.364.685-.633 1.13-.77.242-.08.495-.12.75-.12h8c.933 0 1.69.757 1.69 1.69-.002-.883.68-1.617 1.56-1.68h8.19c1.37.05 2.49 1.113 2.61 2.48.431 0 .859.082 1.26.24.3.114.58.277.83.48.539.418.859 1.058.87 1.74z" transform="translate(0 3.5)"/>
        <path d="M16 21.38L16 24.48" transform="translate(0 3.5)"/>
        <path stroke="#1D1D1B" stroke-linecap="round" stroke-linejoin="round" stroke-width="1.4" d="M16 24c.19-2.41.91-2.8 1-2.85.787-.471 1.694-.704 2.61-.67h6.13c.618 0 1.21-.245 1.648-.682.437-.437.682-1.03.682-1.648V2.37c.01-.627-.231-1.231-.672-1.677-.44-.446-1.041-.696-1.668-.693h-5.68c-1.085-.014-2.13.414-2.893 1.185-.764.771-1.182 1.82-1.157 2.905v16.82" transform="translate(0 3.5)"/>
        <path stroke="#1D1D1B" stroke-linecap="round" stroke-linejoin="round" stroke-width="1.4" d="M16 20.91c-.005.182.099.35.263.427.164.078.36.052.497-.067" transform="translate(0 3.5)"/>
        <path stroke="#1D1D1B" stroke-linecap="round" stroke-linejoin="round" stroke-width="1.4" d="M16 24c0 .4.11-2.11-.76-2.68-.06 0-.12-.1-.19-.14-.792-.496-1.716-.74-2.65-.7H6.27c-.627 0-1.227-.252-1.665-.7-.439-.448-.678-1.053-.665-1.68V2.37c-.01-.625.23-1.228.668-1.673C5.046.25 5.645 0 6.27 0H12c1.077 0 2.108.433 2.86 1.203.754.77 1.164 1.81 1.14 2.887v16.82M28.33 2.53c.724-.073 1.448.146 2.01.608.563.461.92 1.128.99 1.852v16.53c-.05.99-.694 1.852-1.63 2.18-.432.188-.899.283-1.37.28h-7.77c-1.26-.064-2.511.242-3.6.88-.465.23-.813.643-.96 1.14" transform="translate(0 3.5)"/>
        <path stroke="#1D1D1B" stroke-linecap="round" stroke-linejoin="round" stroke-width="1.4" d="M3.66 2.53c-.252 0-.503.028-.75.08-1.02.17-1.855.908-2.15 1.9C.72 4.67.7 4.835.7 5v16.52c.153 1.506 1.493 2.605 3 2.46h7.78c1.257-.064 2.505.242 3.59.88.4.26.88.48 1 1.1M16 21.38L16 24.48" transform="translate(0 3.5)"/>
    </g>
</svg>
