<svg xmlns="http://www.w3.org/2000/svg" width="32" height="33" viewBox="0 0 32 33">
    <g fill="none" fill-rule="evenodd" opacity=".75">
        <path fill="#D5F3E8" fill-rule="nonzero" d="M10.63 29.73c-.26.27-1 .93-1.76 1.55-.078-.012-.151-.047-.21-.1-.73-.61-2.43-2-2.79-2.41-.635-.646-.838-1.602-.52-2.45.05-.133.113-.26.19-.38h.08c.675.018 1.288.4 1.6 1 .058.106.169.173.29.173.121 0 .232-.067.29-.173.225-.395.577-.702 1-.87.164-.072.341-.11.52-.11h.1c.806.037 1.504.571 1.75 1.34.31.846.098 1.795-.54 2.43zM16.64 10.35c.012 2.478-1.054 4.84-2.92 6.47-.233.203-.476.394-.73.57-.441.24-.895.458-1.36.65-1 .45-.54 1.08-.5 2.11l-.63 1.38c0 .35-1 .24-1.12.51-.066.01-.134.01-.2 0-1.077 0-1.95-.873-1.95-1.95v-2c-.014-1.02.412-1.997 1.17-2.68.77-.39 1.55-.68 2.14-1.05.247-.157.478-.338.69-.54.273-.122.537-.262.79-.42 1.799-1.123 2.647-3.294 2.087-5.34-.56-2.045-2.397-3.48-4.517-3.53H8.41c-1.189.031-2.323.506-3.18 1.33-1.3.52-1.42 1.06-1.85 2.4 0 .14-1 .82-1.07.94-.06.01-.12.01-.18 0C1.097 9.171.257 8.36.19 7.33c0-.203.03-.405.09-.6.517-1.62 1.502-3.05 2.83-4.11.737-.379 1.525-.649 2.34-.8.49-.1.99-.151 1.49-.15h1.15c.497 0 .993.05 1.48.15 4.099.778 7.066 4.358 7.07 8.53z" transform="translate(7 .5)"/>
        <path stroke="#1D1D1B" stroke-linecap="round" stroke-linejoin="round" stroke-width="1.4" d="M12.11 28.77c-.39.41-2 1.74-2.79 2.41-.124.106-.293.144-.45.1-.078-.012-.151-.047-.21-.1-.73-.61-2.43-2-2.79-2.41-.635-.646-.838-1.602-.52-2.45.05-.133.113-.26.19-.38.302-.59.898-.972 1.56-1 .675.018 1.288.4 1.6 1 .018.034.046.062.08.08.074.064.172.092.269.077.096-.016.18-.073.231-.157h0c.309-.593.912-.975 1.58-1 .809.038 1.508.577 1.75 1.35.344.852.147 1.827-.5 2.48zM18.12 9.39c.018 2.805-1.342 5.44-3.64 7.05-.245.143-.499.27-.76.38-.765.257-1.475.657-2.09 1.18 0 0 0 0 0 0-.32.291-.499.707-.49 1.14v1c-.02.982-.772 1.794-1.75 1.89-.066.01-.134.01-.2 0-1.077 0-1.95-.873-1.95-1.95v-2c-.014-1.02.412-1.997 1.17-2.68.859-.668 1.813-1.204 2.83-1.59.273-.122.537-.262.79-.42 1.799-1.123 2.647-3.294 2.087-5.34-.56-2.045-2.397-3.48-4.517-3.53H8.41C6.373 4.608 4.609 5.964 4 7.91c-.232.755-.903 1.29-1.69 1.35-.06.01-.12.01-.18 0C1.076 9.229.226 8.384.19 7.33c0-.203.03-.405.09-.6.517-1.62 1.502-3.05 2.83-4.11C4.216 1.722 5.53 1.117 6.93.86c.492-.09.99-.14 1.49-.15h1.15c.497.01.992.06 1.48.15 4.099.778 7.066 4.358 7.07 8.53h0z" transform="translate(7 .5)"/>
    </g>
</svg>
