<svg xmlns="http://www.w3.org/2000/svg" width="16" height="16" viewBox="0 0 16 16">
    <g fill="none" fill-rule="evenodd">
        <g fill="#FD8550" fill-rule="nonzero">
            <g>
                <path d="M8 0C3.578 0 0 3.578 0 8c0 4.422 3.578 8 8 8 4.422 0 8-3.578 8-8 0-4.422-3.578-8-8-8zm0 14c-3.308 0-6-2.692-6-6s2.692-6 6-6 6 2.692 6 6-2.692 6-6 6z" transform="translate(-499 -153) translate(499 153)"/>
                <path stroke="#FD8550" stroke-width=".5" d="M7.8 10.5c-.442 0-.8.369-.8.81 0 .433.348.812.8.812.453 0 .811-.38.811-.811 0-.442-.368-.811-.81-.811zM7.9 3.983c-1.421 0-2.074.843-2.074 1.411 0 .411.347.6.631.6.57 0 .337-.81 1.412-.81.526 0 .947.232.947.716 0 .569-.59.895-.937 1.19-.305.263-.705.695-.705 1.6 0 .548.147.706.579.706.516 0 .621-.232.621-.432 0-.547.01-.863.59-1.316.284-.221 1.18-.937 1.18-1.927S9.247 3.983 7.9 3.983z" transform="translate(-499 -153) translate(499 153)"/>
            </g>
        </g>
    </g>
</svg>
