<svg xmlns="http://www.w3.org/2000/svg" width="32" height="33" viewBox="0 0 32 33">
    <g fill="none" fill-rule="evenodd">
        <path fill="#D5F3E8" fill-rule="nonzero" d="M29.64 7.34V31c.006.026.006.054 0 .08-.297.113-.612.17-.93.17H26.2v-8.63h-5.1v8.67H10.91v-8.67h-5.1v8.67h-2.5c-.69.003-1.353-.27-1.841-.759-.489-.488-.762-1.15-.759-1.841V7.09c.01-.799.404-1.544 1.06-2l4.6-3.22c.218-.017.437.028.63.13l6.69 4.27c.39.261.9.261 1.29 0l.83-.58L21 2.05c.197-.136.43-.21.67-.21.22 0 .435.062.62.18l6.81 4.34c.335.214.538.583.54.98z" transform="translate(0 .5)"/>
        <path stroke="#1D1D1B" stroke-linecap="round" stroke-linejoin="round" stroke-width="1.4" d="M16 5.8v25.49H3.31c-.69.003-1.353-.27-1.841-.759-.489-.488-.762-1.15-.759-1.841V7.09c.01-.799.404-1.544 1.06-2l4.6-3.22h0l.86-.6c.469-.315 1.081-.315 1.55 0l7 4.48.22.05zM5.16 10.9L11.48 10.9M5.16 16L11.48 16" transform="translate(0 .5)"/>
        <path stroke="#1D1D1B" stroke-linecap="round" stroke-linejoin="round" stroke-width="1.4" d="M5.81 22.62H10.91V31.29H5.81zM31.3 7.16v21.53c.003.69-.27 1.353-.759 1.841-.488.489-1.15.762-1.841.759H16V5.8l5.67-4 .86-.6c.469-.315 1.081-.315 1.55 0l6.07 3.87c.717.453 1.15 1.242 1.15 2.09h0zM20.45 10.9L26.77 10.9M20.45 16L26.77 16" transform="translate(0 .5)"/>
        <path stroke="#1D1D1B" stroke-linecap="round" stroke-linejoin="round" stroke-width="1.4" d="M21.1 22.62H26.200000000000003V31.29H21.1z" transform="translate(0 .5)"/>
    </g>
</svg>
