<svg xmlns="http://www.w3.org/2000/svg" width="32" height="32" viewBox="0 0 32 32">
    <g fill="none" fill-rule="evenodd">
        <path fill="#FFF" fill-rule="nonzero" d="M17.34 10.11c.007 2.644-1.14 5.16-3.14 6.89-1.31.703-2.773 1.07-4.26 1.07-3.83.015-7.261-2.365-8.59-5.958C.024 8.519 1.082 4.48 4 2 5.32 1.32 6.786.976 8.27 1c5.016.022 9.07 4.094 9.07 9.11zM28 30.72L14.86 29.6c-.505-.027-.95-.34-1.146-.807-.196-.466-.108-1.003.226-1.383l2.6-2.59c.62-.62.93-1.34.41-2-.028-.053-.065-.1-.11-.14l-3.8-4.1 5.7-5.11c.49.48 3.2 4.12 3.38 3.93l.38-.14 2.68-1.06.28-.11c1-1 2.62-1.49 2.9.87l1.07 12.29c.043.394-.092.787-.369 1.072-.276.284-.666.43-1.061.398z"/>
        <path stroke="#1D1D1B" stroke-linecap="round" stroke-linejoin="round" stroke-width="1.4" d="M12.93 18.38c0 .05 3.88 4.19 3.91 4.24.51.63.21 1.34-.42 2l-2.6 2.58c-.574.563-.662 1.456-.21 2.12.03.049.063.096.1.14.249.317.604.534 1 .61L29 31.26c.58.127 1.183-.068 1.58-.51.374-.4.537-.952.44-1.49L29.8 15c-.12-.621-.575-1.125-1.18-1.31-.606-.183-1.263-.018-1.71.43L25.07 16l-.74.73c-.513.516-1.296.648-1.95.33-1.316-1.197-2.567-2.462-3.75-3.79"/>
        <path stroke="#1D1D1B" stroke-linecap="round" stroke-linejoin="round" stroke-width="1.4" d="M9.86 18.86c-3.348-.012-6.42-1.858-8-4.81C1.133 12.747.744 11.282.73 9.79c.023-3.794 2.393-7.177 5.95-8.495C10.238-.024 14.24.998 16.73 3.86c2.343 2.685 2.892 6.495 1.403 9.732-1.49 3.238-4.74 5.3-8.303 5.268h.03z"/>
        <path fill="#F2F8F3" fill-rule="nonzero" stroke="#1D1D1B" stroke-linecap="round" stroke-linejoin="round" stroke-width="1.4" d="M11.67 6.17L7.63 12.86"/>
        <ellipse cx="12.43" cy="11.79" fill="#F2F8F3" fill-rule="nonzero" stroke="#1D1D1B" stroke-linecap="round" stroke-linejoin="round" stroke-width="1.4" rx="1.06" ry="1.08"/>
        <ellipse cx="6.86" cy="6.87" fill="#F2F8F3" fill-rule="nonzero" stroke="#1D1D1B" stroke-linecap="round" stroke-linejoin="round" stroke-width="1.4" rx="1.06" ry="1.08"/>
    </g>
</svg>
