<svg xmlns="http://www.w3.org/2000/svg" width="32" height="32" viewBox="0 0 32 32">
    <g fill="none" fill-rule="evenodd">
        <path fill="#FFF" fill-rule="nonzero" d="M29.63 8.05c-1.155.871-2.69 1.051-4.015.47-1.325-.58-2.233-1.83-2.375-3.27-.087-.874.117-1.753.58-2.5.58-.442 1.274-.712 2-.78 1.517-.153 2.989.569 3.795 1.862.807 1.294.81 2.933.005 4.228l.01-.01zM8.7 23.28L8.7 23.28 8 23.53zM8.77 21.81l.71-.25-.71.25zM19.19 18.1l-9.71 3.46-.71.26-7.16 2.54C.917 22.399.708 20.3 1 18.24c.135-1.025.386-2.032.75-3C3.138 12.693 5.338 10.683 8 9.53c.205-.096.415-.18.63-.25L9.5 9c6.243-1.852 12.905 1.118 15.7 7l-6.01 2.1z"/>
        <path stroke="#1D1D1B" stroke-linecap="round" stroke-linejoin="round" stroke-width="1.4" d="M26.45 15.74l-1.32.47-6 2.15-9.72 3.46-.71.25-7.15 2.56c-.71-1.957-.935-4.057-.66-6.12.127-1.027.38-2.034.75-3 1.253-3.33 3.8-6.014 7.06-7.44.28-.12.56-.24.85-.34l.68-.22c6.734-1.992 13.851 1.62 16.22 8.23zM8.7 22.08l.72-.25-.72.25z"/>
        <path stroke="#1D1D1B" stroke-linecap="round" stroke-linejoin="round" stroke-width="1.4" d="M26.45 15.74l-1.32.47-6 2.15-9.7 3.47h0c-.497-.805-.91-1.66-1.23-2.55-.706-1.958-.93-4.057-.65-6.12.16-1.245.496-2.46 1-3.61.256-.589.557-1.157.9-1.7.264-.125.534-.235.81-.33 6.721-1.975 13.818 1.628 16.19 8.22z"/>
        <path stroke="#1D1D1B" stroke-linecap="round" stroke-linejoin="round" stroke-width="1.4" d="M19.12 18.36L8.7 22.07h0l-7.15 2.55c-.71-1.954-.936-4.05-.66-6.11.583-4.607 3.545-8.569 7.8-10.43C9 8 10 7.58 10.24 7.51c3.833 1.289 6.86 4.268 8.21 8.08.322.897.547 1.825.67 2.77zM14.49 20.17L19.5 31.3M9.09 31.3L31.27 31.3M29.7 7.91h0c-.577.45-1.271.725-2 .79-1.06.112-2.121-.205-2.948-.879-.826-.674-1.349-1.65-1.452-2.711-.087-.874.117-1.753.58-2.5h0c.85-1.357 2.427-2.077 4.01-1.83 1.581.248 2.863 1.415 3.257 2.968.395 1.552-.175 3.19-1.447 4.162h0zM9.55 7.73L8.72 5.8"/>
    </g>
</svg>
