<?xml version="1.0" encoding="UTF-8"?>
<svg width="32px" height="24px" viewBox="0 0 32 24" version="1.1" xmlns="http://www.w3.org/2000/svg" xmlns:xlink="http://www.w3.org/1999/xlink">
    <title>Icon</title>
    <g id="Page-1" stroke="none" stroke-width="1" fill="none" fill-rule="evenodd">
        <g id="Group" transform="translate(0.000000, -5.000000)">
            <g id="20200406_ICON_ICON-375" transform="translate(0.000000, 5.000000)">
                <path d="M30.6101517,11.16 L30.6101517,11.9 C30.6108927,13.3175952 30.267739,14.7142308 29.61,15.97 L29.61,15.97 C28.0248159,17.6636932 25.8097829,18.6264363 23.49,18.63 L24.23,20.19 C23.58,20.36 24.87,22.33 24.17,22.33 L23.07,22.33 L17.41,18.63 L9.81,18.63 C5.13050622,18.5969716 1.3622914,14.7795283 1.38984816,10.1 L1.38984816,9.36 C1.38424975,7.93863705 1.7276387,6.53761012 2.39,5.28 L2.39,5.28 C3.97543503,3.58075752 6.19599025,2.61718869 8.52,2.61999387 L22.18,2.61999387 C26.8650166,2.65302854 30.6377085,6.47494892 30.6101517,11.16 L30.6101517,11.16 Z" id="Path" fill="#FFFFFF" fill-rule="nonzero"></path>
                <path d="M22.83,0.81 L9.16,0.81 C6.06218973,0.818364514 3.22105411,2.53304176 1.77,5.27 L1.77,5.27 C1.10413896,6.52627994 0.760531558,7.92819813 0.76978113,9.35 L0.76978113,10.09 C0.736730694,14.7695473 4.50049288,18.5914889 9.18,18.63 L16.78,18.63 L22.45,22.33 L22.67,22.47 C23.0294959,22.6164621 23.4412724,22.5416424 23.7262664,22.2780766 C24.0112603,22.0145108 24.117973,21.6098254 24,21.24 L23.53,20.24 L22.79,18.67 C25.1435627,18.6938674 27.398152,17.7245029 29,16 L29,16 C30.4786616,14.4028775 31.3000622,12.3065202 31.3,10.13 L31.3,9.39 C31.3267082,7.12542051 30.4464613,4.94424786 28.8554152,3.33253884 C27.2643691,1.72082982 25.0947356,0.812513189 22.83,0.81 Z" id="Path" stroke="#1D1D1B" stroke-width="1.4" stroke-linecap="round" stroke-linejoin="round"></path>
                <path d="M21.24,12.23 C21.1900661,12.3515749 21.1298476,12.4686664 21.06,12.58 L20.85,12.92 C20.7564683,13.063182 20.6248773,13.1774584 20.47,13.25 C20.3298347,13.3179235 20.1757409,13.3521666 20.02,13.35 L18.72,13.35 C18.3499704,13.3453049 18.0075987,13.5453423 17.83,13.87 L17.83,13.87 L17.21,15 C17.1105039,15.1822926 16.9567208,15.3290856 16.77,15.42 C16.6597673,15.4710068 16.5411643,15.5015048 16.42,15.51 C16.1568821,15.5250654 15.8931179,15.5250654 15.63,15.51 C15.2981788,15.4821338 15.0019967,15.2909277 14.84,15 L14.21,13.86 C14.0297586,13.5392035 13.687903,13.3433087 13.32,13.35 L12.01,13.35 C11.6775855,13.3583656 11.3627562,13.2009509 11.17,12.93 C11.0212559,12.7092856 10.8876173,12.478759 10.77,12.24 C10.6324808,11.940685 10.6511819,11.5928453 10.82,11.31 L11.49,10.19 C11.6686328,9.88059892 11.6686328,9.49940108 11.49,9.19 L10.81,8.08 C10.6344466,7.79629363 10.6119422,7.44372411 10.75,7.14 C10.8073314,7.02017373 10.8707474,6.9033548 10.94,6.79 C10.9807251,6.70987086 11.0275287,6.63297924 11.08,6.56 L11.15,6.45 C11.3378633,6.16465205 11.6583999,5.99495621 12,6 L13.31,6 C13.4665423,5.99906142 13.6206777,5.96138386 13.76,5.89 C13.9415603,5.80005261 14.0915137,5.65707379 14.19,5.48 L14.8,4.35 L14.8,4.35 C14.9600531,4.06183424 15.2518351,3.87105369 15.58,3.84 C15.8462915,3.81999687 16.1137085,3.81999687 16.38,3.84 C16.7118212,3.86786617 17.0080033,4.05907232 17.17,4.35 L17.8,5.49 C17.9802414,5.81079654 18.322097,6.00669129 18.69,6 L20,6 C20.3342764,5.99390181 20.6494864,6.15525933 20.84,6.43 C20.9865546,6.64862542 21.1201187,6.87568444 21.24,7.11 C21.3810708,7.41207767 21.36232,7.76459205 21.19,8.05 L20.53,9.16 C20.3513672,9.46940108 20.3513672,9.85059892 20.53,10.16 L21.2,11.26 C21.3799161,11.55474 21.3950381,11.9214474 21.24,12.23 Z" id="Path" stroke="#1D1D1B" stroke-width="1.4" stroke-linecap="round" stroke-linejoin="round"></path>
                <circle id="Oval" fill="#1D1D1B" fill-rule="nonzero" cx="16" cy="9.69" r="1"></circle>
            </g>
        </g>
    </g>
</svg>