<svg xmlns="http://www.w3.org/2000/svg" width="32" height="32" viewBox="0 0 32 32">
    <g fill="none" fill-rule="evenodd">
        <path fill="#FFF" fill-rule="nonzero" d="M28.27 8.86c-.936-.96-2.219-1.504-3.56-1.51h-2.19c-.482 0-.875-.388-.88-.87V3.21c0-.48-.39-.87-.87-.87h-9c-.48 0-.87.39-.87.87V6.5c.003.232-.088.454-.252.618-.164.164-.386.255-.618.252H4.18c-.336.001-.67.035-1 .1-.345.075-.68.19-1 .34-.22.097-.431.214-.63.35-.046.063-.086.13-.12.2-.374.709-.57 1.498-.57 2.3v9.55c.016 3.187 2.593 5.768 5.78 5.79h19.67c.802.005 1.593-.191 2.3-.57l.37-.22c.445-.758.68-1.62.68-2.5V12.29c-.008-1.279-.505-2.507-1.39-3.43zm-8.93 7.21l-.1.08L16 17.71c-.34.159-.742.082-1-.19l-1.32-1.42c-.152-.16-.237-.37-.24-.59l-.14-7.86c-.029-.323.136-.633.42-.79.32-.14.31-.48.25-.94-.034-.25.04-.503.205-.694.164-.191.403-.303.655-.306h1.8c.368.014.684.265.78.62.232.83.97 1.418 1.83 1.46h.1v9.07z" transform="translate(0 3)"/>
        <path stroke="#1D1D1B" stroke-linecap="round" stroke-linejoin="round" stroke-width="1.4" d="M11.14 5.7H5.77c-.336.001-.67.035-1 .1-1.374.277-2.564 1.129-3.27 2.34-.046.063-.086.13-.12.2-.374.709-.57 1.498-.57 2.3v10.42c.033 2.722 2.237 4.918 4.96 4.94h20.54c.802.005 1.593-.191 2.3-.57l.37-.22c1.422-.9 2.283-2.467 2.28-4.15V10.64c-.033-2.738-2.262-4.94-5-4.94h-2.9" transform="translate(0 3)"/>
        <path stroke="#1D1D1B" stroke-linecap="round" stroke-linejoin="round" stroke-width="1.4" d="M1.93 7.62L6.91 11.43 8.75 12.85 11.14 14.68 13.44 16.45 15.85 18.29 20.84 14.5 20.94 14.43 23.24 12.68 23.41 12.55 24.93 11.4 29.77 7.72M20.37 14.85L29.47 24.7M11.28 14.85L2.53 24.32" transform="translate(0 3)"/>
        <path stroke="#1D1D1B" stroke-linecap="round" stroke-linejoin="round" stroke-width="1.4" d="M23.24 0.69L23.24 12.68 20.94 14.43 20.84 14.5 15.85 18.29 13.44 16.45 11.14 14.68 11.14 0.69z" transform="translate(0 3)"/>
        <path stroke="#1D1D1B" stroke-linecap="round" stroke-linejoin="round" stroke-width="1.4" d="M20.94 5.3v9.13l-.1.07-5 3.79-2.41-1.84V5.3c1.105 0 2-.895 2-2h3.44c0 1.074.847 1.957 1.92 2h.15z" transform="translate(0 3)"/>
    </g>
</svg>
