<svg xmlns="http://www.w3.org/2000/svg" width="32" height="32" viewBox="0 0 32 32">
    <g fill="none" fill-rule="evenodd" transform="translate(0 1)">
        <path fill="#FFF" fill-rule="nonzero" d="M28.12 2.19H2.26C1.405 2.195.71 2.885.7 3.74v13.84h.69v4.63c.85.85 5.08 1.91 9.25 2.18l-.08 2.44c2 2 8.18 4.16 14.29 1.48 0 0 .06-5 .06-5.94 0-1.44-3.11-2.62-7.16-2.82v-3.31h12V3.74c-.002-.424-.177-.83-.485-1.122-.308-.293-.721-.447-1.145-.428zM27.23 11c-.289-.002-.574.067-.83.2l-1 1.26c-1 0-.64-.6-.64.38 0 0-4.38.2-9.14.38v-1.58c0-1.13-7-2.39-10.34-2.39-.56 0-1.09 0-1.6.09L4 8.5c1 0 .21-2.41.21-3.38h1.51c.372-.342.583-.825.58-1.33h19.09c0 1.016.824 1.84 1.84 1.84V11z"/>
        <path stroke="#1D1D1B" stroke-linecap="round" stroke-linejoin="round" stroke-width="1.4" d="M.71 10.37V2.3c0-.95.77-1.72 1.72-1.72H29.5c.95 0 1.72.77 1.72 1.72v11.94c.01.463-.166.91-.49 1.242-.323.331-.767.518-1.23.518H17.93"/>
        <path stroke="#1D1D1B" stroke-linecap="round" stroke-linejoin="round" stroke-width="1.4" d="M17.74 12.82h7.65c-.003-.692.383-1.326 1-1.64.256-.133.541-.202.83-.2V5.63c-1.016 0-1.84-.824-1.84-1.84H6.3c-.01 1.012-.828 1.83-1.84 1.84v2.19"/>
        <path stroke="#1D1D1B" stroke-linecap="round" stroke-linejoin="round" stroke-width="1.4" d="M17.4 11.17c0 1.58-3.74 2.85-8.35 2.85-4.61 0-8.35-1.27-8.35-2.85C.7 10.25 2 9.43 4 8.91c1.655-.408 3.355-.606 5.06-.59 4.6 0 8.34 1.28 8.34 2.85zM17.4 16.18c0 1.57-3.74 2.85-8.35 2.85-4.61 0-8.35-1.28-8.35-2.85M17.4 11.6L17.4 16.44 17.4 17.43M.7 9.88L.7 21.62M9.05 24.56C4.44 24.56.7 23.29.7 21.71"/>
        <ellipse cx="18.2" cy="21.03" stroke="#1D1D1B" stroke-linecap="round" stroke-linejoin="round" stroke-width="1.4" rx="8.35" ry="2.85"/>
        <path stroke="#1D1D1B" stroke-linecap="round" stroke-linejoin="round" stroke-width="1.4" d="M26.55 26.56c0 1.57-3.74 2.85-8.35 2.85-4.61 0-8.35-1.28-8.35-2.85M26.55 21.03L26.55 26.56M9.85 21.03L9.85 26.56"/>
    </g>
</svg>
