<svg xmlns="http://www.w3.org/2000/svg" width="32" height="32" viewBox="0 0 32 32">
    <g fill="none" fill-rule="evenodd">
        <path fill="#F9F2D7" fill-rule="nonzero" d="M4.87 20.22l-1.95 4.66 5-1.65-6.98 7.71 9.78-4.87c1.505-1.633 1.454-4.163-.117-5.733-1.57-1.57-4.1-1.622-5.733-.117z" transform="translate(1 1)"/>
        <path fill="#F9F2D7" fill-rule="nonzero" d="M11.05 20c.985.971 1.41 2.376 1.13 3.73l-.27-.26-.76-.77-.42-.42-1.16-1.15-1-1L7.48 19H7.4l-.07-.09c1.344-.28 2.739.13 3.72 1.09z" transform="translate(1 1)"/>
        <path fill="#F9F2D7" fill-rule="nonzero" d="M28.51 2.48l-.22 4.33.22 2.79-4.63 4.19s-.1.25-.41 1.14c-.7 2-1.86 5.7-1.81 7.73.05 2.03.48 4.13-.19 6.2-.127.37-.284.727-.47 1.07L13.11 22l-1.77-1.76-.29-.24-.69-.69L9 17.92l-8.91-9s.43-.33 1-.68c1.917-.568 3.912-.828 5.91-.77 3.189-.177 6.36-.584 9.49-1.22l.51-.48 3.61-3.62.28.28-.06-.5 1-.05 1.5-.08 4.33-.22c.233.002.456.1.616.27.16.17.245.397.234.63z" transform="translate(1 1)"/>
        <path stroke="#1D1D1B" stroke-linecap="round" stroke-linejoin="round" stroke-width="1.4" d="M29.71 8.69l-3.94 3.94h0l-2.29 2.28-6.92 6.93c-.933.929-2.415 1.006-3.44.18l-1.77-1.76-.3-.26-.69-.69L9 17.92h0c-.803-1.024-.717-2.487.2-3.41l9-9h0l3.54-3.54.56-.56" transform="translate(1 1)"/>
        <path stroke="#1D1D1B" stroke-linecap="round" stroke-linejoin="round" stroke-width="1.4" d="M25.77 12.63h0c-.14.36-2.39 6.36-2.32 9.17 0 2.12.47 4.13-.2 6.21-.384.945-.877 1.84-1.47 2.67l-.78-.75L13.11 22l-1.77-1.76M18.24 5.42h0L17 5.77h0c-2.67.762-5.41 1.245-8.18 1.44-2.12 0-4.13-.48-6.21.19-.545.2-1.065.461-1.55.78-.57.35-1 .68-1 .68l8.91 9h0l1.37 1.38M12.18 23.72c-.158.8-.551 1.535-1.13 2.11l-.2.09h0L1.28 30.7 8.22 23l-5 1.65L5.2 20c.12-.118.246-.228.38-.33h0c.502-.405 1.096-.68 1.73-.8h0c1.354-.263 2.75.166 3.723 1.143.973.977 1.395 2.374 1.127 3.727l.02-.02zM29.94 8.46L26.42 5l-3.86-3.91 6.82-.35c.244-.012.481.08.653.254.172.174.261.412.247.656l-.34 6.81z" transform="translate(1 1)"/>
    </g>
</svg>
