<svg xmlns="http://www.w3.org/2000/svg" width="32" height="32" viewBox="0 0 32 32">
    <g fill="none" fill-rule="evenodd">
        <path fill="#FFF" fill-rule="nonzero" d="M29.24 1.11c-2.91-.38-5.75.62-8.53 1.69-2.27.87-3.59 2.2-5.42 4-.472.547-.904 1.129-1.29 1.74-.21.26-1.73.43-1.91.7.52-.204 1.065-.335 1.62-.39l-2.64 6.09-1.39.17s1.23-4.28 2.41-5.87c.5-.67-3.33.46-3.33.46-.595.04-1.185.14-1.76.3-.601.379-1.153.833-1.64 1.35L.89 16.16l10.82-.85 4.9 5-.51 9.89 2.59-2.6c1.461-1.467 2.327-3.422 2.43-5.49l.14-2.66v-.2c1.082-.699 2.088-1.51 3-2.42 3.822-3.848 5.723-9.204 5.18-14.6-.02-.15-.18-.96-.2-1.12zm-3.69 9.57c-.434.601-1.082 1.013-1.81 1.15.045-.036.082-.08.11-.13.95-1.32.674-3.156-.62-4.14-.656-.496-1.496-.682-2.3-.51.98-1.218 2.75-1.439 4-.5 1.288.983 1.563 2.812.62 4.13z"/>
        <path stroke="#1D1D1B" stroke-linecap="round" stroke-linejoin="round" stroke-width="1.4" d="M16.4 20.28l-.51 9.88-.05 1.14 4.62-4.64c1.458-1.469 2.323-3.423 2.43-5.49L23 18.3M13.79 8.53l-3.26.25c-2.051.16-3.968 1.084-5.37 2.59L.68 16.15l10.82-.84M8.57 22.73L2.6 28.14M6.78 19L3.79 21.7M13.43 23.39L10.45 26.1"/>
        <path stroke="#1D1D1B" stroke-linecap="round" stroke-linejoin="round" stroke-width="1.4" d="M26 15.88c-.908.915-1.914 1.727-3 2.42-.64.417-1.308.788-2 1.11-1.317.634-2.708 1.1-4.14 1.39l-.51-.52-4.9-5-.17-.18c1.085-5.264 4.457-9.772 9.2-12.3h0C23.748 1.049 27.485.37 31.16.86c.681 5.534-1.222 11.073-5.16 15.02z"/>
        <ellipse cx="22.98" cy="8.92" stroke="#1D1D1B" stroke-linecap="round" stroke-linejoin="round" stroke-width="1.4" rx="2.93" ry="2.96"/>
    </g>
</svg>
