<svg xmlns="http://www.w3.org/2000/svg" width="32" height="32" viewBox="0 0 32 32">
    <g fill="none" fill-rule="evenodd" opacity=".75">
        <g>
            <g>
                <g>
                    <g transform="translate(-1079 -1059) translate(0 780) translate(1055 255) translate(24 24)">
                        <circle cx="14.5" cy="18.5" r="13.5" fill="#E4F9F0"/>
                        <circle cx="16" cy="16" r="15.25" stroke="#222" stroke-width="1.5"/>
                        <path fill="#222" fill-rule="nonzero" d="M11.836 19.144c.293 0 .572-.037.836-.112.264-.075.496-.19.696-.344.2-.155.359-.35.476-.584.117-.235.176-.51.176-.824 0-.33-.064-.595-.192-.792-.128-.197-.29-.355-.484-.472-.195-.117-.404-.208-.628-.272-.224-.064-.433-.128-.628-.192s-.356-.141-.484-.232c-.128-.09-.192-.221-.192-.392 0-.107.027-.197.08-.272.053-.075.123-.135.208-.18.085-.045.176-.079.272-.1.096-.021.19-.032.28-.032.155 0 .319.03.492.092.173.061.31.156.412.284l.856-.936c-.24-.213-.51-.365-.808-.456-.299-.09-.608-.136-.928-.136-.277 0-.547.039-.808.116-.261.077-.492.193-.692.348-.2.155-.36.347-.48.576-.12.23-.18.496-.18.8 0 .315.065.568.196.76.13.192.295.347.492.464.197.117.41.21.64.28.23.07.443.139.64.208.197.07.361.153.492.252.13.099.196.233.196.404 0 .101-.025.19-.076.264-.05.075-.117.136-.2.184-.083.048-.176.084-.28.108-.104.024-.207.036-.308.036-.208 0-.41-.047-.604-.14-.195-.093-.356-.225-.484-.396l-.888.976c.272.25.565.432.88.544.315.112.656.168 1.024.168zm4.704-1.656v-.96h-1.968v.96h1.968zm3.528 1.656c.39 0 .768-.08 1.136-.24.368-.16.672-.408.912-.744l-1.04-.776c-.128.192-.29.341-.488.448-.197.107-.424.16-.68.16-.224 0-.433-.045-.628-.136-.195-.09-.364-.217-.508-.38-.144-.163-.257-.355-.34-.576-.083-.221-.124-.465-.124-.732 0-.261.041-.504.124-.728.083-.224.197-.417.344-.58.147-.163.32-.29.52-.38.2-.09.417-.136.652-.136.235 0 .441.04.62.12.179.08.33.195.452.344l.96-.784c-.123-.155-.261-.285-.416-.392-.155-.107-.316-.192-.484-.256-.168-.064-.339-.11-.512-.14-.173-.03-.34-.044-.5-.044-.443 0-.85.07-1.224.208-.373.139-.696.337-.968.596-.272.259-.484.572-.636.94-.152.368-.228.779-.228 1.232 0 .453.076.864.228 1.232.152.368.364.681.636.94.272.259.595.457.968.596.373.139.781.208 1.224.208z" opacity=".9"/>
                    </g>
                </g>
            </g>
        </g>
    </g>
</svg>
