<svg xmlns="http://www.w3.org/2000/svg" width="32" height="33" viewBox="0 0 32 33">
    <g fill="none" fill-rule="evenodd">
        <g>
            <g>
                <g>
                    <g>
                        <path fill="#D5F3E8" fill-rule="nonzero" d="M16.1 2.64V31h-1.45V16.52h-1.91V9.89h1.91V2h.82c.169 0 .33.068.45.188.117.12.183.283.18.452z" transform="translate(-279 -880) translate(0 602) translate(255 255) translate(24 23.5)"/>
                        <path fill="#D5F3E8" fill-rule="nonzero" d="M13.43 11.8L13.43 16.38 4.27 16.38 0.99 13.15 2.36 11.8z" transform="translate(-279 -880) translate(0 602) translate(255 255) translate(24 23.5)"/>
                        <path stroke="#1D1D1B" stroke-linecap="round" stroke-linejoin="round" stroke-width="1.4" d="M17.68 2.4v28.9h-3.36V2.4c0-.928.752-1.68 1.68-1.68h0c.928 0 1.68.752 1.68 1.68zM14.32 10.21v6.63H4.67c-.375-.005-.734-.156-1-.42L.8 13.61l-.1-.09 3-2.9c.27-.258.627-.404 1-.41h9.62z" transform="translate(-279 -880) translate(0 602) translate(255 255) translate(24 23.5)"/>
                        <path fill="#D5F3E8" fill-rule="nonzero" d="M18.35 4.51L18.35 9.08 27.52 9.08 30.8 5.86 29.42 4.51z" transform="translate(-279 -880) translate(0 602) translate(255 255) translate(24 23.5)"/>
                        <path stroke="#1D1D1B" stroke-linecap="round" stroke-linejoin="round" stroke-width="1.4" d="M17.68 2.92v6.62h9.76c.309 0 .606-.118.83-.33l3-3-3-3c-.22-.22-.52-.341-.83-.34l-9.76.05zM11.3 31.3L20.87 31.3" transform="translate(-279 -880) translate(0 602) translate(255 255) translate(24 23.5)"/>
                    </g>
                </g>
            </g>
        </g>
    </g>
</svg>
