<?xml version="1.0" encoding="UTF-8"?>
<svg width="23px" height="32px" viewBox="0 0 23 32" version="1.1" xmlns="http://www.w3.org/2000/svg" xmlns:xlink="http://www.w3.org/1999/xlink">
    <title>Icon</title>
    <g id="Page-1" stroke="none" stroke-width="1" fill="none" fill-rule="evenodd">
        <g id="Group" transform="translate(-5.000000, 0.000000)">
            <g id="20200406_ICON_ICON-308" transform="translate(6.000000, 0.000000)">
                <path d="M18.86,9 C18.86,11.06 18.94,27.58 18.77,28.86 C18.5571772,30.0480998 17.4722607,30.876976 16.27,30.77 L3.27,30.77 C2.41097626,30.7887992 1.58048172,30.4613505 0.965437886,29.8613536 C0.350394049,29.2613567 0.0024794117,28.4392258 0,27.58 L0,8.48 C0.00605966951,7.9197788 0.168873241,7.37244807 0.47,6.9 L3.14,5.29 C3.14,5.18 6.69,3.65 6.69,3.64 C6.69,3.14 8.05,3.76 8.11,3.31 C8.25,2.19 9.11,1.31 10.22,2.26 C10.5024089,2.48542238 10.6648138,2.82868727 10.66,3.19 L10.66,3.31 C10.66,4.2985897 11.4614103,5.1 12.45,5.1 L13.45,5.1 C13.8879176,5.1054744 14.2400342,5.46204816 14.24,5.9 L14.24,6.76 L16.64,6.76 C17.8670251,6.77635015 18.854655,7.77287766 18.86,9 L18.86,9 Z" id="Path" fill="#FFFFFF" fill-rule="nonzero"></path>
                <path d="M15.68,5.27 L15.68,6.88 C15.7002866,7.38592116 15.3815603,7.84357939 14.9,8 L14.9,8 C14.7871789,8.01523918 14.6728211,8.01523918 14.56,8 L5.74,8 C5.11982699,7.99451153 4.61995529,7.49019729 4.61995529,6.87 L4.61995529,5.28 C4.61733229,4.98122868 4.73415321,4.69377655 4.9444838,4.48156801 C5.15481438,4.26935948 5.44121677,4.14998809 5.74,4.15 L6.8,4.15 C7.17224804,4.14220802 7.52580859,3.98539964 7.78145884,3.71471113 C8.0371091,3.44402262 8.17347469,3.08208568 8.16,2.71 L8.16,2.71 C8.16,1.6054305 9.0554305,0.71 10.16,0.71 C11.2645695,0.71 12.16,1.6054305 12.16,2.71 L12.16,2.71 C12.146498,3.07871542 12.2801447,3.43767106 12.5314933,3.70777704 C12.7828419,3.97788301 13.1312674,4.1369751 13.5,4.15 L14.56,4.15 C15.1785589,4.15 15.68,4.65144108 15.68,5.27 Z" id="Path" stroke="#1D1D1B" stroke-width="1.4" stroke-linecap="round" stroke-linejoin="round"></path>
                <path d="M4.45,5.81 L3.05,5.81 C1.99348716,5.83915546 1.021502,6.39457555 0.46,7.29 C0.138102321,7.80073156 -0.0222165883,8.39669969 4.33680869e-19,9 L4.33680869e-19,28.1 C4.33680869e-19,29.8673112 1.4326888,31.3 3.2,31.3 L17.2,31.3 C18.9634047,31.2944893 20.39,29.8634133 20.39,28.1 L20.39,9 C20.39,8.1539594 20.0539117,7.34257042 19.4556706,6.74432937 C18.8574296,6.14608832 18.0460406,5.81 17.2,5.81 L16,5.81" id="Path" stroke="#1D1D1B" stroke-width="1.4" stroke-linecap="round" stroke-linejoin="round"></path>
                <polyline id="Path" stroke="#1D1D1B" stroke-width="1.4" stroke-linecap="round" stroke-linejoin="round" points="6.78 18.74 9.94 21.93 16.23 15.17"></polyline>
            </g>
        </g>
    </g>
</svg>