<?xml version="1.0" encoding="UTF-8"?>
<svg width="30px" height="32px" viewBox="0 0 30 32" version="1.1" xmlns="http://www.w3.org/2000/svg" xmlns:xlink="http://www.w3.org/1999/xlink">
    <title>Icon</title>
    <g id="Page-1" stroke="none" stroke-width="1" fill="none" fill-rule="evenodd">
        <g id="Group" transform="translate(-1.000000, 0.000000)">
            <g id="20200406_ICON_ICON-376" transform="translate(2.000000, 0.000000)">
                <path d="M25.42,3.63 C25.4173588,3.3090846 25.2873369,3.00236353 25.0585401,2.77731752 C24.8297434,2.55227151 24.5209152,2.42733685 24.2,2.42995828 L3.61,2.51 C2.91614997,2.50462107 2.24915642,2.77787481 1.75851561,3.26851561 C1.26787481,3.75915642 0.994621075,4.42614997 0.999922066,5.12 L1.14,29.3 C1.64,30.07 3.06,31.3 4.05,31.3 L24.73,31.67 C24.85,31.67 25.44,30.62 25.56,30.6 C25.5929025,30.4556363 25.6096719,30.3080653 25.61,30.16 L25.42,3.63 Z M22.23,22.63 L3.8,22.53 L3.8,8.38 C3.83177983,7.85127612 4.27032275,7.43904577 4.8,7.43999835 L21.3,7.43999835 C21.8152382,7.44548157 22.23,7.86473264 22.23,8.38 L22.23,22.63 Z" id="Shape" fill="#FFFFFF" fill-rule="nonzero"></path>
                <path d="M27.33,3.57 L27.27,28.48 C27.275099,29.7779645 26.3905416,30.9105286 25.13,31.22 C25.0287518,31.2495739 24.924971,31.2696605 24.82,31.28 C24.7002071,31.2899711 24.5797929,31.2899711 24.46,31.28 L3.46,31.28 C2.51832723,31.2691488 1.64421846,30.7889517 1.13,30 C0.827063822,29.532622 0.6671884,28.9869602 0.669963544,28.43 L0.73,3.53 C0.724172612,3.32494922 0.744332953,3.11998576 0.79,2.92 C1.0704593,1.61844639 2.22866398,0.694391393 3.56,0.709805223 L24.56,0.709805223 C25.3070435,0.720515522 26.019145,1.0280962 26.5389253,1.56476466 C27.0587056,2.10143313 27.3433679,2.82300208 27.33,3.57 Z" id="Path" stroke="#1D1D1B" stroke-width="1.4" stroke-linecap="round" stroke-linejoin="round"></path>
                <rect id="Rectangle" stroke="#1D1D1B" stroke-width="1.4" stroke-linecap="round" stroke-linejoin="round" x="3.76" y="5.47" width="20.48" height="17.39" rx="1.44"></rect>
                <polyline id="Path" stroke="#1D1D1B" stroke-width="1.4" stroke-linecap="round" stroke-linejoin="round" points="3.76 18.59 9.69 12.24 14.23 17.33 17.92 14.69 23.77 22.25"></polyline>
                <circle id="Oval" stroke="#1D1D1B" stroke-width="1.4" stroke-linecap="round" stroke-linejoin="round" cx="19.65" cy="9.74" r="1.37"></circle>
                <line x1="11.36" y1="27.24" x2="16.28" y2="27.24" id="Path" stroke="#1D1D1B" stroke-width="1.4" stroke-linecap="round" stroke-linejoin="round"></line>
            </g>
        </g>
    </g>
</svg>