<svg xmlns="http://www.w3.org/2000/svg" width="32" height="32" viewBox="0 0 32 32">
    <g fill="none" fill-rule="evenodd">
        <path fill="#FFF" fill-rule="nonzero" d="M26.33 18.53c.004 2.751-.848 5.436-2.44 7.68-2.47 2.768-5.99 4.368-9.7 4.41H14c-4.98.01-9.547-2.766-11.832-7.19C-.118 19.006.26 13.676 3.15 9.62 3.689 9.03 4.278 8.488 4.91 8 7.226 6.209 10.072 5.238 13 5.24c.46 0 1.41 12.54 1.33 12.7h11.98c.017.196.023.393.02.59z" transform="translate(1 1)"/>
        <path fill="#FFF" fill-rule="nonzero" d="M17.51 14.59c.08-.16.06-7.82 0-12.58 6.52.689 11.56 6.032 11.87 12.58H17.51z" transform="translate(1 1)"/>
        <path stroke="#1D1D1B" stroke-linecap="round" stroke-linejoin="round" stroke-width="1.4" d="M24.65 17.94c.8 0 1.552.376 2.033 1.015.48.64.63 1.467.407 2.235-1.702 5.602-6.865 9.433-12.72 9.44h-.18c-4.94-.05-9.442-2.84-11.684-7.241C.264 18.987.655 13.704 3.52 9.68c.415-.598.88-1.16 1.39-1.68 1.957-1.996 4.494-3.322 7.25-3.79.556-.094 1.125.061 1.555.426.43.364.677.9.675 1.464v9.3c0 .686.277 1.343.769 1.821.491.479 1.155.738 1.841.719h7.65z" transform="translate(1 1)"/>
        <path stroke="#1D1D1B" stroke-linecap="round" stroke-linejoin="round" stroke-width="1.4" d="M30.71 12.54c.063.517-.098 1.036-.442 1.428-.343.39-.837.617-1.358.622h-9c-.617 0-1.209-.246-1.644-.683-.435-.437-.679-1.03-.676-1.647V2.67c.003-.526.234-1.025.633-1.368.399-.343.926-.497 1.447-.422 5.877.973 10.39 5.738 11.04 11.66h0z" transform="translate(1 1)"/>
    </g>
</svg>
