<svg xmlns="http://www.w3.org/2000/svg" width="32" height="33" viewBox="0 0 32 33">
    <g fill="none" fill-rule="evenodd" opacity=".75" transform="translate(1 .5)">
        <circle cx="26.06" cy="28.2" r="2.06" fill="#E0F1FA" fill-rule="nonzero"/>
        <path fill="#E0F1FA" fill-rule="nonzero" d="M24.78 24.07l-.12.09c-1.547 1.04-3.484 1.315-5.26.75-.507-.16-1.06-.011-1.42.38-1.255 1.318-3.029 2.012-4.845 1.896-1.816-.115-3.488-1.03-4.565-2.496-.576-.797-.957-1.718-1.11-2.69-.126-.64-.677-1.11-1.33-1.13-2.22-.184-4.164-1.557-5.08-3.587-.917-2.03-.66-4.397.67-6.183.49-.361 1.033-.645 1.61-.84.585-.194 1.035-.666 1.2-1.26.048-.183.072-.371.07-.56-.037-2.01.916-3.91 2.55-5.08.243-.18.5-.341.77-.48 1.994-1.019 4.384-.873 6.24.38.666.442 1.238 1.014 1.68 1.68.39.586 1.117.846 1.79.64 2.463-.822 5.176-.004 6.774 2.043 1.597 2.047 1.732 4.878.336 7.067-.364.63-.32 1.414.11 2 .186.257.353.528.5.81 1.077 2.12.856 4.667-.57 6.57z"/>
        <path stroke="#1D1D1B" stroke-linecap="round" stroke-linejoin="round" stroke-width="1.4" d="M24.78 24.07l-.12.09c-1.547 1.04-3.484 1.315-5.26.75-.507-.16-1.06-.011-1.42.38-1.255 1.318-3.029 2.012-4.845 1.896-1.816-.115-3.488-1.03-4.565-2.496-.576-.797-.957-1.718-1.11-2.69-.126-.64-.677-1.11-1.33-1.13-2.22-.184-4.164-1.557-5.08-3.587-.917-2.03-.66-4.397.67-6.183.153-.211.32-.412.5-.6.645-.67 1.435-1.184 2.31-1.5.216-.08.436-.147.66-.2.522-.097.877-.584.81-1.11-.176-1.537.235-3.083 1.15-4.33.561-.746 1.282-1.358 2.11-1.79 2.828-1.442 6.289-.504 8 2.17.33.552 1.006.79 1.61.57 2.556-.941 5.426-.083 7.046 2.106 1.62 2.19 1.601 5.185-.046 7.354-.285.36-.289.866-.01 1.23.323.364.598.767.82 1.2 1.399 2.732.591 6.077-1.9 7.87z"/>
        <circle cx="26.06" cy="28.2" r="2.06" stroke="#1D1D1B" stroke-linecap="round" stroke-linejoin="round" stroke-width="1.4"/>
        <path stroke="#1D1D1B" stroke-linecap="round" stroke-linejoin="round" stroke-width="1.4" d="M12.33 11c.042-1.453 1.216-2.619 2.67-2.65h.66c1.194.056 2.213.88 2.52 2.034.306 1.155-.171 2.375-1.18 3.016-.91.57-2.67.81-2.73 2.67v1.17"/>
        <circle cx="14.26" cy="19.67" r="1" fill="#1D1D1B" fill-rule="nonzero"/>
    </g>
</svg>
