<svg xmlns="http://www.w3.org/2000/svg" width="32" height="33" viewBox="0 0 32 33">
    <g fill="none" fill-rule="evenodd">
        <g>
            <g>
                <g>
                    <g>
                        <path fill="#F6C4C6" fill-rule="nonzero" d="M30.27 7.68V17l-5.59 5.64L20 24l-.09 6.51c.002.227-.032.453-.1.67h-.06c-.17.043-.345.066-.52.07l-16.31-.1C1.682 31.101.712 30.069.74 28.83L.88 3c0-.172.02-.343.06-.51-.005-.05-.005-.1 0-.15.187-.06.383-.091.58-.09l16.31.09c.605.023 1.176.286 1.586.73.411.446.628 1.035.604 1.64L20.2 16 19 17.82l-1.1 6.35 2.3-5.93L30.06 7.6c.033-.038.086-.05.133-.033.046.018.077.063.077.113z" transform="translate(-279 -1054) translate(0 161) translate(255 870) translate(24 23.5)"/>
                        <path stroke="#1D1D1B" stroke-linecap="round" stroke-linejoin="round" stroke-width="1.4" d="M21.71 14.49l-.12-11.33c.024-.604-.193-1.192-.604-1.635C20.575 1.082 20.004.82 19.4.8L3.09.7C2.096.728 1.242 1.415 1 2.38c-.005.05-.005.1 0 .15-.057.152-.097.31-.12.47L.74 28.83c-.024.604.193 1.192.604 1.635.411.443.982.704 1.586.725l16.31.1c.175-.004.35-.027.52-.07h.06c.982-.312 1.643-1.23 1.63-2.26l.05-5" transform="translate(-279 -1054) translate(0 161) translate(255 870) translate(24 23.5)"/>
                        <path stroke="#1D1D1B" stroke-linecap="round" stroke-linejoin="round" stroke-width="1.4" d="M31.67 3.68L31.67 15.31 24.68 22.59 20.74 18.97 20.59 18.82 19.03 17.39z" transform="translate(-279 -1054) translate(0 161) translate(255 870) translate(24 23.5)"/>
                        <path stroke="#1D1D1B" stroke-linecap="round" stroke-linejoin="round" stroke-width="1.4" d="M19.03 17.38L17.18 24.89 18.58 24.46 19.26 24.25 23.67 22.91 23.82 22.86 24.68 22.6 20.74 18.97z" transform="translate(-279 -1054) translate(0 161) translate(255 870) translate(24 23.5)"/>
                        <path fill="#1D1D1B" fill-rule="nonzero" d="M5.83 26.13c2.95-.62 6.43-3.5 6.21-6.8 0-.938-.743-1.708-1.68-1.74-.94.085-1.784.608-2.28 1.41-1.228 1.48-1.684 3.452-1.23 5.32.288 1.008 1.183 1.722 2.23 1.78 1.132-.065 2.2-.546 3-1.35l-1.19-.49c0 1.89 2 2.27 3.5 2.18 1.36-.09 3.26.18 3.85-1.37.33-.84-1-1.2-1.35-.37-.1.27-.65.24-.87.24l-1.43.06c-.64.05-2.29.25-2.29-.76-.005-.282-.177-.533-.437-.642-.26-.108-.56-.052-.763.142-.59.48-1.47 1.19-2.29.88-.82-.31-.81-1.22-.74-1.86.051-.866.32-1.705.78-2.44.19-.3 1.23-1.81 1.71-1.23.34.41-.07 1.53-.25 1.93-.302.64-.715 1.223-1.22 1.72-.99 1.006-2.251 1.7-3.63 2-.89.19-.51 1.54.37 1.35v.04z" transform="translate(-279 -1054) translate(0 161) translate(255 870) translate(24 23.5)"/>
                        <path stroke="#1D1D1B" stroke-linecap="round" stroke-linejoin="round" stroke-width="1.4" d="M4.19 6.93H18.04V11.53H4.19z" transform="translate(-279 -1054) translate(0 161) translate(255 870) translate(24 23.5)"/>
                    </g>
                </g>
            </g>
        </g>
    </g>
</svg>
