<svg width="28" height="33" viewBox="0 0 28 33" fill="none" xmlns="http://www.w3.org/2000/svg">
<path d="M24.12 7.16006C24.5761 7.23378 24.911 7.62804 24.91 8.09006V15.0001C24.9125 18.8218 23.6385 22.535 21.29 25.5501L14.29 31.0801L8.44999 26.7301C4.09999 23.4901 1.73999 17.0801 1.73999 11.6401V5.94006C1.84838 5.8298 1.96918 5.73249 2.09999 5.65006C2.28298 5.63004 2.46375 5.59322 2.63999 5.54006C3.45598 5.3464 4.20102 4.92709 4.78999 4.33006C5.29314 3.83484 5.67329 3.22865 5.89999 2.56006H19.25C19.7885 2.57064 20.2448 2.95989 20.34 3.49006C20.7238 5.3752 22.2243 6.83209 24.12 7.16006Z" fill="white"/>
<path fill-rule="evenodd" clip-rule="evenodd" d="M26.5 5.54001V13.33C26.5115 18.6801 24.0356 23.7316 19.8 27L19.51 27.23L14.27 31.32L8.42997 26.96C4.05965 23.6991 1.48968 18.5628 1.49997 13.11V5.54001C1.69967 5.55558 1.90027 5.55558 2.09997 5.54001C2.28296 5.51999 2.46373 5.48316 2.63997 5.43001C3.46214 5.22929 4.20877 4.79521 4.78997 4.18001C5.29095 3.68696 5.67088 3.08454 5.89997 2.42001C5.90421 2.39016 5.90421 2.35986 5.89997 2.33001C6.17555 1.45829 6.98573 0.866854 7.89997 0.870008H20.11C21.0035 0.876297 21.7911 1.4579 22.06 2.31001C22.1927 2.72541 22.3846 3.11948 22.63 3.48001C23.4975 4.76715 24.9478 5.53915 26.5 5.54001Z" stroke="#1D1D1B" stroke-width="1.4" stroke-linecap="round" stroke-linejoin="round"/>
<path fill-rule="evenodd" clip-rule="evenodd" d="M22.66 8.77007V14.1701C22.6572 17.8725 20.9356 21.3638 18 23.6201L17.8 23.7801L14.16 26.6101L10.16 23.6101C7.12046 21.3522 5.33202 17.7865 5.33999 14.0001V8.77007C5.47982 8.77988 5.62016 8.77988 5.75999 8.77007C5.8852 8.75298 6.00891 8.72624 6.12999 8.69007C6.69601 8.55636 7.21259 8.26513 7.61999 7.85007C7.96903 7.50962 8.23284 7.09163 8.38999 6.63007V6.57007C8.57877 5.98157 9.12202 5.57916 9.73999 5.57007H18.22C18.8374 5.57405 19.3805 5.97929 19.56 6.57007C19.6567 6.85666 19.7912 7.12906 19.96 7.38007C20.5725 8.26397 21.5847 8.78509 22.66 8.77007Z" stroke="#1D1D1B" stroke-width="1.4" stroke-linecap="round" stroke-linejoin="round"/>
</svg>
