<svg xmlns="http://www.w3.org/2000/svg" width="32" height="32" viewBox="0 0 32 32">
    <g fill="none" fill-rule="evenodd" opacity=".75">
        <path fill="#FCE7D0" fill-rule="nonzero" d="M22.21 13.06v3.21c-.009.34-.177.656-.455.853-.277.196-.631.251-.955.147-.687-.22-1.422-.241-2.12-.06-.33.083-.646.21-.94.38-1.702.943-2.436 3.006-1.712 4.812.724 1.807 2.68 2.792 4.562 2.298.394-.093.808.002 1.123.256.315.254.495.64.487 1.044v3.6c.007.34-.047.68-.16 1-.376.173-.786.262-1.2.26H5.33c-1.349.003-2.644-.531-3.599-1.484C.777 28.423.24 27.129.24 25.78V9.56c-.015-.156-.015-.314 0-.47.224-.066.457-.096.69-.09h4.45c.426.003.83-.19 1.093-.525.264-.334.359-.771.257-1.185H9.3c-.49-.47-.838-1.07-1-1.73-.231-.868-.146-1.79.24-2.6.29-.162.599-.286.92-.37.996-.255 2.052-.102 2.936.423.883.525 1.522 1.38 1.774 2.377.203.708.26 1.45.17 2.18-.066.355.03.721.263.998.232.277.576.435.937.432h2.64c1.077-.008 2.11.418 2.87 1.182.758.764 1.176 1.802 1.16 2.878z" transform="translate(4 1)"/>
        <path stroke="#1D1D1B" stroke-linecap="round" stroke-linejoin="round" stroke-width="1.4" d="M6.73 7.26H9.3c-.49-.47-.838-1.07-1-1.73-.231-.868-.146-1.79.24-2.6.65-1.39 2.062-2.263 3.596-2.224 1.533.04 2.899.984 3.476 2.405.578 1.422.26 3.05-.812 4.149H21c.757 0 1.482.302 2.015.839.533.537.83 1.264.825 2.021v6.21h0c-.455-.412-1.004-.704-1.6-.85-.63-.165-1.29-.165-1.92 0-2.077.516-3.341 2.618-2.825 4.695.516 2.077 2.618 3.341 4.695 2.825.583-.152 1.124-.436 1.58-.83h0v5.71c.005 1.176-.691 2.242-1.77 2.71-.376.173-.786.262-1.2.26H5.33c-1.349.003-2.644-.531-3.599-1.484C.777 28.413.24 27.119.24 25.77V9.56c-.015-.156-.015-.314 0-.47.226-1.084 1.193-1.853 2.3-1.83h4.19" transform="translate(4 1)"/>
    </g>
</svg>
