<svg xmlns="http://www.w3.org/2000/svg" width="52" height="54" viewBox="0 0 52 54">
    <g fill="none" fill-rule="evenodd" transform="translate(1)">
        <path fill="#FFF" fill-rule="nonzero" d="M17.88 10.6C16.247 8.069 13.83 6.14 11 5.11c-.043-1.008-.626-1.914-1.526-2.37-.9-.457-1.976-.391-2.814.17-.35.23-.46.69-.85.64-.23 0-.16-.21-.29-.41C4.83 2.097 3.536 1.633 2.34 2c-.52.837-.561 1.885-.11 2.76.19.36.46.82.46.82-.397.146-.779.33-1.14.55-.2.136-.384.294-.55.47l.12.2-.36.2c-.62.933-.62 2.147 0 3.08.304.45.736.798 1.24 1-.1 2.982.762 5.917 2.46 8.37C8 24.63 14 26.83 18.07 24.48c3.06-3.12 3.07-9-.19-13.88zm-1.46 11c-.24.16-.495.297-.76.41 2.28-2.19 2.33-6.42 0-9.92S9.38 7 6.49 8.29c.196-.2.414-.378.65-.53 2.92-2 7.36-.44 9.92 3.39 2.56 3.83 2.28 8.52-.64 10.47v-.02z"/>
        <path fill="#FFF" fill-rule="nonzero" d="M18.8 23.57l4.59 5.15c.42.357.64.897.586 1.446-.054.549-.374 1.036-.856 1.304 0 0-.7.48-1.43-.61l-3.87-6.09.98-1.2z"/>
        <circle cx="5.38" cy="4.61" r="1" fill="#1D1D1B" fill-rule="nonzero"/>
        <ellipse cx="11.98" cy="14.344" stroke="#1D1D1B" stroke-linecap="round" stroke-linejoin="round" stroke-width="1.402" rx="6.368" ry="8.35" transform="rotate(-34.007 11.98 14.344)"/>
        <path stroke="#1D1D1B" stroke-linecap="round" stroke-linejoin="round" stroke-width="1.4" d="M18.51 24.21c-.14.1-.288.19-.44.27C14 26.83 8 24.63 4.48 19.42 2.775 16.969 1.906 14.034 2 11.05c-.504-.202-.936-.55-1.24-1C.153 9.124.153 7.926.76 7c.08-.12.17-.24.26-.35.16-.168.338-.319.53-.45.36-.237.741-.438 1.14-.6 0 0-.27-.46-.46-.82-.459-.88-.417-1.938.11-2.78.096-.159.21-.307.34-.44C3.267.958 4.093.652 4.93.725 5.767.8 6.527 1.245 7 1.94c.14.21.06.39.3.42.39 0 .5-.42.85-.65.617-.41 1.37-.558 2.097-.412.726.146 1.364.575 1.773 1.192.286.42.445.912.46 1.42 2.843 1.029 5.27 2.96 6.91 5.5 3.61 5.41 3.24 12.04-.88 14.8z"/>
        <path stroke="#1D1D1B" stroke-linecap="round" stroke-linejoin="round" stroke-width="1.4" d="M20.4 22.33l4.6 5.16c.42.474.623 1.1.562 1.73-.06.63-.38 1.205-.882 1.59h0c-.498.382-1.132.541-1.752.439-.62-.102-1.17-.457-1.518-.979l-3.57-5.5"/>
    </g>
</svg>
