<svg xmlns="http://www.w3.org/2000/svg" width="55" height="52" viewBox="0 0 55 52">
    <g fill="none" fill-rule="evenodd" transform="translate(1)">
        <path fill="#FFF" fill-rule="nonzero" d="M29.4 17.21c-.465-2.486-1.161-4.924-2.08-7.28-1.27-3.45-6-7.77-13-7.81-7 0-10.13 4.22-11.41 7.68-.907 2.264-1.604 4.608-2.08 7-.45 3-1.15 7.64 1.76 9 2.68 1.21 2.81 1.07 4.64-.43 0 0 1.39-1.19 1.42-1.19.03 0 6.5 2.55 7.44 2.26 1.42-.45 4.27-.49 5.31-1.48l1.58-1.2c1.83 1.49 2.6 3.76 5.27 2.55 2.83-1.31 1.6-6.1 1.15-9.1z"/>
        <path stroke="#1D1D1B" stroke-linecap="round" stroke-linejoin="round" stroke-width="1.4" d="M16 13.85c.63-.003 1.234.246 1.679.691.445.445.694 1.05.691 1.679l-1.62 1.63c-.195.205-.467.317-.75.31"/>
        <circle cx="20.72" cy="11.79" r="1" fill="#1D1D1B" fill-rule="nonzero"/>
        <path stroke="#1D1D1B" stroke-linecap="round" stroke-linejoin="round" stroke-width="1.4" d="M21.34 18.52c-.12 1.407-1.234 2.524-2.64 2.65-1.38-.113-2.485-1.192-2.63-2.57M15.68 18.52c-.127 1.419-1.26 2.539-2.68 2.65-1.365-.134-2.45-1.206-2.6-2.57M15.68 13.85c-.63-.003-1.234.246-1.679.691-.445.445-.694 1.05-.691 1.679l1.62 1.63c.195.205.467.317.75.31"/>
        <circle cx="10.96" cy="11.79" r="1" fill="#1D1D1B" fill-rule="nonzero"/>
        <path stroke="#1D1D1B" stroke-linecap="round" stroke-linejoin="round" stroke-width="1.4" d="M5.48 11.12c0 2.45.11 4.41.24 5.89.28 4.127 3.02 7.68 6.94 9 .987.23 1.99.384 3 .46 1.123-.074 2.24-.23 3.34-.47 3.944-1.301 6.71-4.857 7-9 .13-1.48.24-3.44.24-5.89"/>
        <path stroke="#1D1D1B" stroke-linecap="round" stroke-linejoin="round" stroke-width="1.4" d="M8.56 24.17c-1.83 1.49-3 3-5.7 1.82C0 24.67.68 19 1.13 16c.467-2.478 1.16-4.908 2.07-7.26C4.48 5.28 8.64 1 15.65.92h0c7 0 11.77 4.36 13 7.82.949 2.347 1.676 4.777 2.17 7.26.45 3 1.18 8.66-1.73 10-2.68 1.21-4.37-.75-6.2-2.24"/>
    </g>
</svg>
