<svg xmlns="http://www.w3.org/2000/svg" width="54" height="53" viewBox="0 0 54 53">
    <g fill="none" fill-rule="evenodd">
        <path fill="#FFF" fill-rule="nonzero" d="M29.46 24.7l-10.23 5.11c-1.854.932-4.045.91-5.88-.06l-11.45-6c-.566-.293-.977-.817-1.127-1.437-.15-.62-.023-1.274.347-1.793L14.27 1.67c.745-.107 1.487.214 1.92.83l13.36 19.62c.515.793.48 1.824-.09 2.58z"/>
        <path stroke="#1D1D1B" stroke-linecap="round" stroke-linejoin="round" stroke-width="1.4" d="M30.08 24.39l-10.85 5.42c-1.854.932-4.045.91-5.88-.06l-11.45-6c-.566-.293-.977-.817-1.127-1.437-.15-.62-.023-1.274.347-1.793L14.27 1.67l.09-.12c.377-.512.975-.813 1.61-.813.635 0 1.233.301 1.61.813l13.35 19.64c.35.527.458 1.18.296 1.791-.163.612-.58 1.125-1.146 1.409zM15.98.7L16.09 30.48"/>
    </g>
</svg>
