<svg xmlns="http://www.w3.org/2000/svg" width="54" height="53" viewBox="0 0 54 53">
    <g fill="none" fill-rule="evenodd">
        <path fill="#FFF" fill-rule="nonzero" d="M19.39 21.78L3.27 29.51c-.198.095-.406.17-.62.22-.758-.363-1.337-1.018-1.602-1.816-.266-.797-.197-1.669.192-2.414l8-15.69C10.166 8 11.971 6.805 14 6.66c.894.244 1.715.704 2.39 1.34l1.15 1.09 2.9 2.76.45.43c1.402 1.319 2.06 3.245 1.76 5.146-.3 1.901-1.52 3.531-3.26 4.354zM27.71 8.05c-.37-.17-.94.1-1.22-.24-.28-.34.38-1.58.38-1.58.999-1.057.959-2.722-.09-3.73-.155-.15-.33-.277-.52-.38-.428.131-.814.373-1.12.7l-1.5 1.1v-.59c0-.372-.077-.74-.23-1.08-.136.095-.263.202-.38.32 0 0-1.16.77-1.48.54-.8-.56-.54-1.84-1.35-2.29-1.1.35-1.846 1.375-1.84 2.53l1.29 6.2-1.17-1.09c-.388-.396-.833-.733-1.32-1l5.36 4.8.13.12 4 .63h.37c1.14-.198 2.017-1.114 2.166-2.26.149-1.147-.465-2.257-1.516-2.74l.04.04z"/>
        <path stroke="#1D1D1B" stroke-linecap="round" stroke-linejoin="round" stroke-width="1.4" d="M21.48 22.21L5.35 29.94c-.85.428-1.85.428-2.7 0-.758-.363-1.337-1.018-1.602-1.816-.266-.797-.197-1.669.192-2.414L9.28 10c.924-1.791 2.71-2.976 4.72-3.13 1.086-.082 2.173.14 3.14.64.487.267.932.604 1.32 1l1.15 1.09 2.89 2.76.13.12.32.31c1.369 1.316 2.01 3.217 1.716 5.093-.292 1.875-1.482 3.49-3.186 4.327zM19.64 9.62v-.07l-1.29-6.2c-.008-1.152.733-2.176 1.83-2.53.265-.083.542-.124.82-.12 1.041-.004 1.988.603 2.42 1.55.153.34.23.708.23 1.08v.59L25.1 2.8c.306-.327.692-.569 1.12-.7 1.148-.36 2.394.104 3.03 1.125.635 1.022.5 2.344-.33 3.215L27.67 8H28.56c1.458-.066 2.694 1.062 2.76 2.52.066 1.458-1.062 2.694-2.52 2.76L27.06 13l-4.54-.71h-.06M9.11 10.5L12.83 14.62M8.36 24.94L10.19 26.99"/>
    </g>
</svg>
