<svg xmlns="http://www.w3.org/2000/svg" width="53" height="54" viewBox="0 0 53 54">
    <g fill="none" fill-rule="evenodd">
        <path fill="#FFF" fill-rule="nonzero" d="M24.4 8L14.28 2.18c-1.107-.63-2.463-.63-3.57 0l-8.83 5.1c-.023.005-.047.005-.07 0C.936 7.96.424 9.003.42 10.11v11.73c-.002 1.28.68 2.462 1.79 3.1l10.12 5.84c1.104.64 2.466.64 3.57 0l8.72-5c.98-.657 1.565-1.76 1.56-2.94V11.12c.01-1.284-.67-2.474-1.78-3.12zm-1.91 6.14l-.83.81c.094-.172.097-.38.01-.555-.088-.175-.256-.296-.45-.325l-5-.74c-.197-.026-.366-.15-.45-.33l-2.31-4.54c-.09-.179-.262-.302-.46-.33l.31-.63c.104-.206.314-.336.545-.336.23 0 .441.13.545.336l2.25 4.57c.087.181.26.306.46.33l5 .74c.237.015.443.168.526.391.082.223.025.474-.146.639v-.03z" transform="translate(1)"/>
        <path stroke="#1D1D1B" stroke-linecap="round" stroke-linejoin="round" stroke-width="1.4" d="M14.65 7l2.26 4.57c.088.176.256.3.45.33l5.05.73c.214.043.388.196.458.402.07.206.025.434-.118.598l-3.66 3.56c-.139.139-.202.336-.17.53l.86 5c.037.227-.058.455-.243.59-.186.135-.432.155-.637.05l-4.51-2.38c-.176-.09-.384-.09-.56 0l-4.52 2.38c-.205.105-.45.085-.637-.05-.185-.135-.28-.363-.243-.59l.86-5c.037-.194-.027-.394-.17-.53l-3.65-3.48c-.143-.163-.19-.389-.122-.595.068-.205.24-.36.452-.405l5.05-.73c.198-.028.37-.151.46-.33L13.56 7c.104-.206.314-.336.545-.336.23 0 .441.13.545.336z" transform="translate(1)"/>
        <path stroke="#1D1D1B" stroke-linecap="round" stroke-linejoin="round" stroke-width="1.4" d="M27.8 21.84V10.16c0-1.28-.687-2.46-1.8-3.09L15.89 1.22c-1.107-.63-2.463-.63-3.57 0L2.2 7.07C1.096 7.707.418 8.886.42 10.16v11.68c-.002 1.274.676 2.453 1.78 3.09l10.12 5.85c1.107.63 2.463.63 3.57 0L26 24.93c1.113-.63 1.8-1.81 1.8-3.09z" transform="translate(1)"/>
    </g>
</svg>
