<svg xmlns="http://www.w3.org/2000/svg" width="53" height="54" viewBox="0 0 53 54">
    <g fill="none" fill-rule="evenodd">
        <path fill="#FFF" fill-rule="nonzero" d="M24.4 8L14.28 2.18c-1.107-.63-2.463-.63-3.57 0l-8.83 5.1c-.023.005-.047.005-.07 0C.936 7.96.424 9.003.42 10.11v11.73c-.002 1.28.68 2.462 1.79 3.1l10.12 5.84c1.104.64 2.466.64 3.57 0l8.72-5c.98-.657 1.565-1.76 1.56-2.94V11.12c.01-1.284-.67-2.474-1.78-3.12zm-1.92 6.15l-.82.81c.094-.174.096-.382.006-.558-.09-.176-.26-.296-.456-.322l-5-.74c-.2-.024-.373-.149-.46-.33l-2.29-4.54c-.09-.179-.262-.302-.46-.33l.32-.63c.104-.206.314-.336.545-.336.23 0 .441.13.545.336l2.25 4.57c.084.184.259.31.46.33l5 .74c.234.022.433.178.51.4.078.221.02.467-.15.63v-.03z" transform="translate(1)"/>
        <path stroke="#1D1D1B" stroke-linecap="round" stroke-linejoin="round" stroke-width="1.4" d="M14.85 7.45l2 4.05c.123.246.358.418.63.46l4.48.65c.302.052.55.266.647.557.096.29.024.611-.187.833l-3.24 3.15c-.2.19-.29.469-.24.74l.76 4.46c.058.312-.068.629-.325.815-.256.186-.597.207-.875.055l-4-2.1c-.24-.13-.53-.13-.77 0l-4 2.1c-.28.15-.619.127-.876-.058s-.387-.5-.334-.812l.76-4.46c.048-.27-.037-.546-.23-.74L5.8 14c-.229-.22-.312-.552-.214-.854.098-.302.36-.522.674-.566l4.47-.58c.273-.039.51-.211.63-.46l2-4c.121-.293.4-.492.717-.511.317-.02.617.144.773.421z" transform="translate(1)"/>
        <path stroke="#1D1D1B" stroke-linecap="round" stroke-linejoin="round" stroke-width="1.4" d="M27.8 21.84V10.16c0-1.28-.687-2.46-1.8-3.09L15.89 1.22c-1.107-.63-2.463-.63-3.57 0L2.2 7.07C1.096 7.707.418 8.886.42 10.16v11.68c-.002 1.274.676 2.453 1.78 3.09l10.12 5.85c1.107.63 2.463.63 3.57 0L26 24.93c1.113-.63 1.8-1.81 1.8-3.09z" transform="translate(1)"/>
        <path stroke="#1D1D1B" stroke-linecap="round" stroke-linejoin="round" stroke-width="1.4" d="M8.46 12.29l-.24-2.42c-.048-.471.132-.937.483-1.255.351-.318.833-.45 1.297-.355l2.68.56M20.29 12.29l.24-2.42c.048-.471-.132-.937-.483-1.255-.351-.318-.833-.45-1.297-.355l-2.68.56M21.2 15.4l1.54 1.88c.297.369.403.857.285 1.316-.118.459-.446.835-.885 1.014l-2.54 1M6.85 15.4l-1.54 1.88c-.302.366-.412.854-.296 1.315.117.46.446.837.886 1.015l2.54 1M11.27 22.67l1.36 2c.267.39.703.631 1.175.65.472.02.926-.184 1.225-.55l1.7-2.15" transform="translate(1)"/>
    </g>
</svg>
