<svg xmlns="http://www.w3.org/2000/svg" width="53" height="54" viewBox="0 0 53 54">
    <g fill="none" fill-rule="evenodd">
        <path fill="#FFF" fill-rule="nonzero" d="M24.4 8L14.28 2.18c-1.107-.63-2.463-.63-3.57 0l-8.83 5.1c-.023.005-.047.005-.07 0C.936 7.96.424 9.003.42 10.11v11.73c-.002 1.28.68 2.462 1.79 3.1l10.12 5.84c1.104.64 2.466.64 3.57 0l8.72-5c.98-.657 1.565-1.76 1.56-2.94V11.12c.01-1.284-.67-2.474-1.78-3.12zm-9.25 4.82l-1.3-3.29c-.088-.219-.271-.385-.498-.451-.226-.066-.47-.025-.662.111l.59-1.51c.117-.292.4-.484.715-.484.315 0 .598.192.715.484L16 11c.149.371.557.567.94.45l3.39-1c.302-.09.629.012.825.258.196.247.222.588.065.862l-.78 1.36c-.027-.228-.155-.431-.35-.554-.194-.122-.433-.15-.65-.076l-3.38 1c-.373.095-.76-.096-.91-.45v-.03zM22.31 19l-1 .15-2.47-1.7c-.328-.22-.432-.655-.24-1l.78-1.36c.032.212.147.403.32.53l2.92 2c.249.18.366.492.3.792-.068.3-.308.531-.61.588z" transform="translate(1)"/>
        <path fill="#E5E5E5" fill-rule="nonzero" d="M11.71 11.34l.7-1.78c.05-.143.15-.263.28-.34L12 11c-.054.144-.157.264-.29.34zM20.37 13.39l-1 1.71c-.03-.169.002-.343.09-.49l1-1.71c.024.169-.007.34-.09.49z" transform="translate(1)"/>
        <path stroke="#1D1D1B" stroke-linecap="round" stroke-linejoin="round" stroke-width="1.4" d="M27.69 21.84V10.16c.003-1.277-.681-2.457-1.79-3.09L15.79 1.22c-1.11-.63-2.47-.63-3.58 0L2.1 7.07C.991 7.703.307 8.883.31 10.16v11.68c-.003 1.277.681 2.457 1.79 3.09l10.11 5.85c1.11.63 2.47.63 3.58 0l10.11-5.85c1.109-.633 1.793-1.813 1.79-3.09z" transform="translate(1)"/>
        <path stroke="#1D1D1B" stroke-linecap="round" stroke-linejoin="round" stroke-width="1.4" d="M14.72 7.71L16 11c.145.375.555.576.94.46l3.38-1c.304-.09.632.014.83.262.197.249.225.591.07.868l-1.74 3.01c-.18.345-.082.769.23 1l2.92 2c.254.183.373.5.303.806-.07.305-.315.539-.623.594l-3.49.53c-.4.061-.685.417-.66.82l.26 3.53c.027.319-.147.621-.436.759-.289.138-.633.082-.864-.139l-2.59-2.4c-.3-.272-.76-.272-1.06 0l-2.59 2.4c-.231.221-.575.277-.864.139-.29-.138-.463-.44-.436-.759l.26-3.53c.025-.403-.26-.759-.66-.82L5.69 19c-.314-.051-.565-.287-.635-.597-.07-.31.054-.632.315-.813l2.92-2c.312-.231.41-.655.23-1l-1.76-3.05c-.155-.277-.127-.62.07-.868.198-.248.526-.351.83-.262l3.38 1c.378.134.796-.044.96-.41l1.3-3.28c.118-.287.397-.475.707-.477.31-.002.591.182.713.467h0z" transform="translate(1)"/>
    </g>
</svg>
