<svg xmlns="http://www.w3.org/2000/svg" width="53" height="54" viewBox="0 0 53 54">
    <g fill="none" fill-rule="evenodd">
        <path fill="#FFF" fill-rule="nonzero" d="M24.4 8L14.28 2.18c-1.107-.63-2.463-.63-3.57 0l-8.83 5.1c-.023.005-.047.005-.07 0C.936 7.96.424 9.003.42 10.11v11.73c-.002 1.28.68 2.462 1.79 3.1l10.12 5.84c1.104.64 2.466.64 3.57 0l8.72-5c.98-.657 1.565-1.76 1.56-2.94V11.12c.01-1.284-.67-2.474-1.78-3.12zm-3.22 9.16l-.39.21c-.04-.207-.167-.386-.35-.49l-4.29-2.34c-.122-.067-.223-.168-.29-.29L13.5 10c-.165-.32-.548-.46-.88-.32L13 9c.127-.23.368-.371.63-.371s.503.142.63.371l2.36 4.29c.065.124.166.225.29.29l4.29 2.35c.227.13.366.374.362.636-.005.262-.15.5-.382.624v-.03z" transform="translate(1)"/>
        <path stroke="#1D1D1B" stroke-linecap="round" stroke-linejoin="round" stroke-width="1.4" d="M27.8 10.16v11.68c.002 1.282-.686 2.466-1.8 3.1l-1.38.8-8.72 5c-1.104.64-2.466.64-3.57 0l-10.12-5.8C1.1 24.302.418 23.12.42 21.84V10.16c.004-1.107.516-2.15 1.39-2.83.023.005.047.005.07 0l.33-.21 10.12-5.89c1.104-.64 2.466-.64 3.57 0L26 7.07c1.111.632 1.798 1.812 1.8 3.09z" transform="translate(1)"/>
        <path stroke="#1D1D1B" stroke-linecap="round" stroke-linejoin="round" stroke-width="1.4" d="M14.72 8.67L17.06 13c.07.12.17.22.29.29l4.29 2.35c.23.127.371.368.371.63s-.142.503-.371.63l-4.29 2.3c-.12.07-.22.17-.29.29l-2.34 4.29c-.13.229-.372.37-.635.37s-.505-.141-.635-.37l-2.34-4.29c-.07-.12-.17-.22-.29-.29l-4.29-2.34c-.23-.127-.371-.368-.371-.63s.142-.503.371-.63l4.29-2.35c.12-.07.22-.17.29-.29l2.34-4.29c.13-.229.372-.37.635-.37s.505.141.635.37h0z" transform="translate(1)"/>
    </g>
</svg>
