<svg xmlns="http://www.w3.org/2000/svg" width="54" height="55" viewBox="0 0 54 55">
    <g fill="none" fill-rule="evenodd">
        <path fill="#FFF" fill-rule="nonzero" d="M30.27 30.24c-.103.01-.207.01-.31 0h-8.17c-1.626 0-3.19-.622-4.37-1.74L2 16C.834 14.89.407 13.212.9 11.68L6.85 3c.328-.347.782-.55 1.26-.56.621.015 1.185.368 1.47.92 1.519 2.627 4.6 3.923 7.54 3.17l1.39-.36c2.42-.22 4.75 17.59 4.75 17.59.032.689.6 1.23 1.29 1.23 5.12.08 5.69 3.78 5.72 5.25z" transform="translate(0 1)"/>
        <path stroke="#1D1D1B" stroke-linecap="round" stroke-linejoin="round" stroke-width="1.4" d="M31.4 28.84c-.003.674-.472 1.255-1.13 1.4-.103.01-.207.01-.31 0h-8.17c-1.626 0-3.19-.622-4.37-1.74L2 16c-1.486-1.422-1.727-3.71-.57-5.41L8 1c.33-.35.789-.552 1.27-.56.621.015 1.185.368 1.47.92 1.519 2.627 4.6 3.923 7.54 3.17l1.39-.36c2.42-.22 4.75 17.59 4.75 17.59.032.689.6 1.23 1.29 1.23 6.39.11 5.69 5.85 5.69 5.85zM14.53 12.67L22.84 12.67M19.15 18.51L23.82 18.51" transform="translate(0 1)"/>
    </g>
</svg>
