<svg xmlns="http://www.w3.org/2000/svg" width="32" height="33" viewBox="0 0 32 33">
    <g fill="none" fill-rule="evenodd" transform="translate(4 .5)">
        <path fill="#E6D7EA" fill-rule="nonzero" d="M18.77 9.19c.005 1.61-.51 3.178-1.47 4.47-1.407.971-3.031 1.58-4.73 1.77-4.213-.055-7.592-3.497-7.57-7.71C5 6 6.21 4.09 7.13 2.83c2.325-1.498 5.283-1.605 7.71-.28 2.427 1.327 3.935 3.874 3.93 6.64zM12.05 20.26l-1.68 1.87L12 28.27H.84c0-2.58.67-6.32 2-8.3 2.241-1.946 5.112-3.012 8.08-3h.17l-1 1.3 1.96 1.99zM21.9 28.27h-8.36l1.6-6.14-1.68-1.87 1.93-2-.51-.66c4.08 1.374 7.138 4.792 8.05 9 0 0 0 .23.06.47.028.307-.074.611-.281.84-.207.228-.5.358-.809.36z"/>
        <path stroke="#1D1D1B" stroke-linecap="round" stroke-linejoin="round" stroke-width="1.4" d="M11.21 28.07H2.42c-.622-.007-1.208-.293-1.596-.78-.388-.487-.536-1.122-.404-1.73 1.208-5.663 6.21-9.71 12-9.71s10.792 4.047 12 9.71c.122.604-.031 1.23-.418 1.71-.386.479-.966.761-1.582.77h-8.14"/>
        <circle cx="12.57" cy="8.26" r="7.55" stroke="#1D1D1B" stroke-linecap="round" stroke-linejoin="round" stroke-width="1.4"/>
        <path stroke="#1D1D1B" stroke-linecap="round" stroke-linejoin="round" stroke-width="1.4" d="M13.85 16.27L15.39 18.25 13.46 20.26 15.14 22.13 13.54 28.27 12.75 31.29 11.97 28.27 10.37 22.13 12.05 20.26 10.11 18.25 11.66 16.27z"/>
    </g>
</svg>
