<?xml version="1.0" encoding="UTF-8"?>
<svg width="18px" height="18px" viewBox="0 0 18 18" version="1.1" xmlns="http://www.w3.org/2000/svg" xmlns:xlink="http://www.w3.org/1999/xlink">
    <title>icon/18/star</title>
    <g id="icon/18/star" stroke="none" stroke-width="1" fill="none" fill-rule="evenodd">
        <path d="M10.0595175,4.29848337 L10.8745551,6.06659983 C11.0399015,6.42529706 11.3755065,6.67597941 11.7663773,6.73275226 L13.7125832,7.01543303 C14.3502244,7.10804858 14.7920551,7.70003867 14.6994395,8.33767991 C14.6635894,8.58450129 14.549584,8.81333753 14.3741481,8.99061773 L12.8839588,10.4964729 C12.619504,10.7637078 12.50004,11.1420099 12.5630578,11.5126575 L12.9159789,13.5884082 C13.023979,14.2236247 12.5965857,14.8261207 11.9613692,14.9341208 C11.6978283,14.9789283 11.4268932,14.931872 11.1938949,14.8008251 L9.57188425,13.8885463 C9.21678108,13.6888231 8.78321189,13.6888106 8.42809722,13.8885133 L6.80573911,14.8008646 C6.24412161,15.1166965 5.53280834,14.9174479 5.21697645,14.3558304 C5.08593239,14.1228057 5.03889503,13.8518435 5.08373555,13.5882863 L5.43686245,11.5127274 C5.49992938,11.1420416 5.38047042,10.763682 5.11598329,10.4964144 L3.62585192,8.99061773 C3.17262877,8.53262998 3.17649125,7.79394761 3.63447899,7.34072446 C3.81175919,7.16528857 4.04059544,7.05128312 4.28741681,7.01543303 L6.23362266,6.73275226 C6.62449346,6.67597941 6.96009847,6.42529706 7.12544489,6.06659983 L7.94048249,4.29848337 C8.2102179,3.713328 8.9032438,3.45762961 9.48839917,3.72736502 C9.74069918,3.84366618 9.94321635,4.04618335 10.0595175,4.29848337 Z" id="Mask" fill="#FFD662" fill-rule="nonzero"></path>
    </g>
</svg>