<?xml version="1.0" encoding="UTF-8"?>
<svg width="32px" height="32px" viewBox="0 0 32 32" version="1.1" xmlns="http://www.w3.org/2000/svg" xmlns:xlink="http://www.w3.org/1999/xlink">
    <title>Icon</title>
    <g id="Page-1" stroke="none" stroke-width="1" fill="none" fill-rule="evenodd">
        <g id="20200406_ICON_ICON-288">
            <path d="M29.680055,27 L29.680055,31.3 L0.7,31.3 L0.7,24.55 L8.37,24.55 C8.87810197,24.55 9.29,24.138102 9.29,23.63 L9.29,22.93 L10.9,22.93 L10.9,19.45 L18.57,19.45 C19.0725791,19.45 19.48,19.8574209 19.48,20.36 L19.48,25.17 C19.4854807,25.6741924 19.8957778,26.0800298 20.4,26.08 L28.77,26.08 C29.0130897,26.0799853 29.2460802,26.1772315 29.4170287,26.3500586 C29.5879772,26.5228856 29.6826713,26.756925 29.680055,27 Z" id="Path" fill="#FFFFFF" fill-rule="nonzero"></path>
            <path d="M22.43,8.26 L20.2,10.44 L19.26,11.35 C19.134201,11.4673222 19.0775432,11.6410726 19.11,11.81 L19.66,15.01 L16.24,13.21 C16.0864713,13.1299645 15.9035287,13.1299645 15.75,13.21 L11.83,15.27 C11.651892,15.3590504 11.438899,15.3407526 11.2785889,15.2226294 C11.1182788,15.1045062 11.0377073,14.9064933 11.07,14.71 L11.82,10.35 C11.8470114,10.1784375 11.7914025,10.0041964 11.67,9.88 L8.91,7.19 L12.1,6.72 C12.2709452,6.69729856 12.4201583,6.59284935 12.5,6.44 L13.08,5.27 L14.46,2.47 C14.5461093,2.27875881 14.7405183,2.15973286 14.95,2.17 C15.1428774,2.18226678 15.3144932,2.29667733 15.4,2.47 L17.4,6.47 C17.4785018,6.62402029 17.6284132,6.72895829 17.8,6.75 L22.18,7.39 C22.3725186,7.4159832 22.5345002,7.54711116 22.6,7.73 L22.6,7.73 C22.6481244,7.92459984 22.5823377,8.12969932 22.43,8.26 Z" id="Path" fill="#FFFFFF" fill-rule="nonzero"></path>
            <path d="M31.2900303,26.12 L31.2900303,31.3 L0.7,31.3 L0.7,24.55 C0.716411344,23.6465621 1.45643053,22.9243747 2.36,22.93 L10.9,22.93 L10.9,19.38 C10.8973165,18.9680976 11.0597577,18.572288 11.3510229,18.2810229 C11.642288,17.9897577 12.0380976,17.8273165 12.45,17.8299673 L19.55,17.8299673 C20.4060414,17.8299673 21.1,18.5239586 21.1,19.38 L21.1,24.46 L29.64,24.46 C30.0793453,24.4599919 30.5005519,24.6352028 30.810276,24.946804 C31.1200001,25.2584052 31.2926627,25.6806627 31.2900303,26.12 Z" id="Path" stroke="#1D1D1B" stroke-width="1.4" stroke-linecap="round" stroke-linejoin="round"></path>
            <path d="M23.5,6.79 L22.56,7.7 L22.56,7.7 L20.33,9.88 C20.2041325,10.0014663 20.1477676,10.1780763 20.18,10.35 L20.18,10.44 L20.9,14.71 C20.9322927,14.9064933 20.8517212,15.1045062 20.6914111,15.2226294 C20.531101,15.3407526 20.318108,15.3590504 20.14,15.27 L19.64,15.01 L16.22,13.21 C16.0664713,13.1299645 15.8835287,13.1299645 15.73,13.21 L11.81,15.27 C11.631892,15.3590504 11.418899,15.3407526 11.2585889,15.2226294 C11.0982788,15.1045062 11.0177073,14.9064933 11.05,14.71 L11.8,10.35 C11.8270114,10.1784375 11.7714025,10.0041964 11.65,9.88 L8.91,7.19 L8.5,6.79 C8.35631594,6.65181313 8.30427992,6.44364556 8.36604091,6.25410322 C8.4278019,6.06456087 8.59248759,5.9270105 8.79,5.9 L13.08,5.27 L13.17,5.27 C13.3436743,5.2468926 13.4940361,5.13788027 13.57,4.98 L15,2.17 L15.53,1 C15.6159994,0.818326873 15.7989999,0.702485955 16,0.702485955 C16.2010001,0.702485955 16.3840006,0.818326873 16.47,1 L18.47,5 C18.5426221,5.15637592 18.6893373,5.26547186 18.86,5.29 L23.25,5.93 C23.4282483,5.97558256 23.5691408,6.11196323 23.6204986,6.28863413 C23.6718564,6.46530503 23.6260335,6.65596344 23.5,6.79 L23.5,6.79 Z" id="Path" stroke="#1D1D1B" stroke-width="1.4" stroke-linecap="round" stroke-linejoin="round"></path>
        </g>
    </g>
</svg>