<?xml version="1.0" encoding="UTF-8"?>
<svg width="32px" height="28px" viewBox="0 0 32 28" version="1.1" xmlns="http://www.w3.org/2000/svg" xmlns:xlink="http://www.w3.org/1999/xlink">
    <title>Icon</title>
    <g id="Page-1" stroke="none" stroke-width="1" fill="none" fill-rule="evenodd">
        <g id="Group" transform="translate(0.000000, -2.000000)">
            <g id="20200406_ICON_ICON-309" transform="translate(0.000000, 3.000000)">
                <path d="M30.2500544,21.74 L30.2500544,23.67 C30.2529802,24.2226421 30.1334477,24.7690765 29.9,25.27 C29.2146895,25.8477716 28.3463594,26.1632058 27.45,26.1600242 L4.55,26.1600242 C2.42598421,26.1545045 0.705495541,24.4340158 0.699963814,22.31 L0.699963814,20.38 C0.693519851,17.4827459 1.557522,14.6503518 3.18,12.25 C5.95223459,9.00090212 10.0089437,7.12969934 14.28,7.13 L15.64,7.13 C23.7088802,7.13 30.2500544,13.6711198 30.2500544,21.74 L30.2500544,21.74 Z" id="Path" fill="#FFFFFF" fill-rule="nonzero"></path>
                <circle id="Oval" fill="#FFFFFF" fill-rule="nonzero" cx="15.7" cy="3.33" r="2.21"></circle>
                <path d="M31.2902405,20.38 L31.2902405,22.31 C31.3029516,23.4684837 30.7921703,24.5708895 29.9,25.31 C29.2146895,25.8877716 28.3463594,26.2032058 27.45,26.2000242 L4.55,26.2000242 C3.52277958,26.1973698 2.53897566,25.7854039 1.81638219,25.055303 C1.09378872,24.325202 0.692013028,23.3371927 0.699883158,22.31 L0.699883158,20.38 C0.693519851,17.4827459 1.557522,14.6503518 3.18,12.25 C5.88760796,8.19360325 10.4429627,5.75832711 15.32,5.75999914 L16.68,5.75999914 C20.5565461,5.75999914 24.2741731,7.30063517 27.0143672,10.0427049 C29.7545613,12.7847745 31.2926534,16.5034548 31.2902405,20.38 Z" id="Path" stroke="#1D1D1B" stroke-width="1.4" stroke-linecap="round" stroke-linejoin="round"></path>
                <circle id="Oval" stroke="#1D1D1B" stroke-width="1.4" stroke-linecap="round" stroke-linejoin="round" cx="15.89" cy="2.87" r="2.21"></circle>
                <path d="M22.6,7 C22.1,9.34 19.28,11.13 15.89,11.13 C12.5,11.13 9.89,9.45 9.24,7.22" id="Path" stroke="#1D1D1B" stroke-width="1.4" stroke-linecap="round" stroke-linejoin="round"></path>
            </g>
        </g>
    </g>
</svg>