<svg xmlns="http://www.w3.org/2000/svg" width="36" height="36" viewBox="0 0 36 36">
    <g fill="none" fill-rule="evenodd">
        <path fill="#FFF" fill-rule="nonzero" d="M33.255 5.839v20.25c-.21-.01-.419-.047-.619-.113-10.249-3.555-20.486 6.852-30.735 1.857-.663-.327-1.125-2.655-1.125-3.375V5.793c.219 0 .436.038.641.112 15 4.248 20.464-6.817 30.724-1.811.673.322 1.105.998 1.114 1.744z" transform="translate(0 3.375)"/>
        <path stroke="#1D1D1B" stroke-linecap="round" stroke-linejoin="round" stroke-width="1.4" d="M35.213 3.791v20.453c0 .512-.209 1.002-.578 1.357-.37.355-.868.543-1.38.521-.21-.009-.419-.046-.619-.112-3.007-.943-6.218-1.025-9.27-.236-3.375.72-6.671 1.968-10.001 2.745-3.814.9-7.639 1.125-11.464-.686-.677-.325-1.113-1.004-1.125-1.755V5.625c.006-.627.32-1.21.838-1.563.518-.352 1.176-.428 1.761-.203C13.613 7.447 23.85-2.96 34.099 2.036c.677.324 1.11 1.005 1.114 1.755z" transform="translate(0 3.375)"/>
        <path stroke="#1D1D1B" stroke-linecap="round" stroke-linejoin="round" stroke-width="1.4" d="M27.337 12.668l-1.035 1h0l-2.452 2.397c-.14.133-.203.328-.169.517v.102l.788 4.702c.038.216-.05.435-.227.564-.177.129-.412.146-.606.044l-.551-.282-3.735-1.98c-.169-.09-.371-.09-.54 0l-4.32 2.25c-.194.103-.429.086-.606-.044-.177-.129-.265-.347-.226-.563l.82-4.804c.031-.19-.032-.382-.168-.517l-3.06-2.948-.45-.438c-.155-.157-.209-.387-.14-.595.069-.21.249-.362.466-.396l4.714-.686h.101c.192-.027.357-.15.439-.326l1.519-3.082.641-1.283c.095-.2.297-.326.518-.326.22 0 .422.127.517.326l2.16 4.365c.076.176.238.3.428.326L27 11.69c.215.033.393.182.464.387.071.206.022.433-.127.591h0z" transform="translate(0 3.375)"/>
    </g>
</svg>
