<svg xmlns="http://www.w3.org/2000/svg" width="32" height="33" viewBox="0 0 32 33">
    <g fill="none" fill-rule="evenodd" opacity=".75">
        <path fill="#D5F3E8" fill-rule="nonzero" d="M29.56 5.19v18c-.187-.008-.372-.042-.55-.1-9.11-3.16-18.21 6.09-27.32 1.65-.59-.29-1-2.36-1-3V5.15c.194 0 .387.034.57.1C14.593 9.026 19.45-.81 28.57 3.64c.598.286.982.887.99 1.55z" transform="translate(0 3.5)"/>
        <path stroke="#1D1D1B" stroke-linecap="round" stroke-linejoin="round" stroke-width="1.4" d="M31.3 3.37v18.18c0 .455-.185.891-.514 1.206-.328.316-.771.483-1.226.464-.187-.008-.372-.042-.55-.1-2.673-.838-5.528-.91-8.24-.21-3 .64-5.93 1.75-8.89 2.44-3.39.8-6.79 1-10.19-.61-.602-.288-.99-.892-1-1.56V5c.005-.557.284-1.076.744-1.39.461-.312 1.046-.38 1.566-.18 9.1 3.19 18.2-6.06 27.31-1.62.602.287.986.893.99 1.56z" transform="translate(0 3.5)"/>
        <path stroke="#1D1D1B" stroke-linecap="round" stroke-linejoin="round" stroke-width="1.4" d="M24.3 11.26l-.92.89h0l-2.18 2.13c-.124.118-.18.291-.15.46v.09l.7 4.18c.034.192-.044.386-.202.5-.157.116-.366.13-.538.04l-.49-.25-3.32-1.76c-.15-.08-.33-.08-.48 0l-3.84 2c-.172.09-.381.076-.538-.04-.158-.114-.236-.308-.202-.5l.73-4.27c.027-.169-.029-.34-.15-.46L10 11.65l-.4-.39c-.138-.139-.186-.343-.125-.529.062-.186.222-.321.415-.351l4.19-.61h.09c.17-.025.317-.134.39-.29l1.35-2.74.57-1.14c.085-.177.264-.29.46-.29s.375.113.46.29l1.92 3.88c.068.156.212.266.38.29l4.3.62c.19.03.35.162.413.344.063.183.02.385-.113.526h0z" transform="translate(0 3.5)"/>
    </g>
</svg>
