<svg xmlns="http://www.w3.org/2000/svg" width="32" height="33" viewBox="0 0 32 33">
    <g fill="none" fill-rule="evenodd" opacity=".75">
        <path fill="#FCE7D0" fill-rule="nonzero" d="M25.54 3H3.31c-.734.001-1.454.194-2.09.56-.332.615-.507 1.302-.51 2v22.21c-.013 1.117.421 2.193 1.206 2.988C2.702 31.553 3.773 32 4.89 32h22.23c.734.002 1.455-.191 2.09-.56.333-.614.509-1.301.51-2V7.15C29.704 4.853 27.837 3 25.54 3zM9.28 23.82H5.94V13.21h2.69c.36.005.65.3.65.66v9.95zm8.1 0H14V8.11h2.69c.36.005.65.3.65.66l.04 15.05zm8.1 0h-3.34v-7.29h2.68c.365 0 .66.295.66.66v6.63z" transform="translate(0 .5)"/>
        <path stroke="#1D1D1B" stroke-linecap="round" stroke-linejoin="round" stroke-width="1.4" d="M31.3 4.88v22.23c0 1.109-.44 2.172-1.224 2.956-.784.784-1.847 1.224-2.956 1.224H4.89c-1.109 0-2.172-.44-2.956-1.224C1.15 29.282.71 28.219.71 27.11V4.88c.003-.698.178-1.385.51-2C1.952 1.536 3.36.7 4.89.7h22.23c1.109 0 2.172.44 2.956 1.224.784.784 1.224 1.847 1.224 2.956zM5.8 26.2L27.23 26.2" transform="translate(0 .5)"/>
        <path stroke="#1D1D1B" stroke-linecap="round" stroke-linejoin="round" stroke-width="1.4" d="M7.39 10.9h2.2c.785.022 1.41.665 1.41 1.45v10.81H5.94V12.35c0-.8.65-1.45 1.45-1.45zM15.49 5.8h2.2c.8 0 1.45.65 1.45 1.45v15.91H14V7.25c0-.392.158-.767.439-1.04.28-.273.66-.42 1.051-.41zM23.59 14.22h2.2c.8 0 1.45.65 1.45 1.45v7.49h-5.1v-7.49c0-.8.65-1.45 1.45-1.45z" transform="translate(0 .5)"/>
    </g>
</svg>
