<svg xmlns="http://www.w3.org/2000/svg" width="32" height="33" viewBox="0 0 32 33">
    <g fill="none" fill-rule="evenodd" transform="translate(0 .5)">
        <path fill="#D5F3E8" fill-rule="nonzero" d="M30.28 8.38l-3.23-2.93-.05-.07-1.64-1.46c-1.147-1.042-2.64-1.62-4.19-1.62h-.85c-.767 2.063-2.74 3.428-4.94 3.42-2.206.01-4.186-1.354-4.96-3.42h-.84c-1.58 0-3.69.12-4.83 1.16L.7 7.65v6c-.013.458.237.883.643 1.096.406.213.898.175 1.267-.096l3.23-2.35v15.44c.005.947.386 1.853 1.06 2.519.673.665 1.583 1.036 2.53 1.031h13.14c1.156.001 2.242-.553 2.92-1.49.59-1.32.66-15.49.66-15.49v-2.06l3.23 2.35c.377.278.882.31 1.29.08V9.25c-.004-.331-.145-.646-.39-.87zm-13.6 8.33h-.15c-.895.238-1.85.049-2.587-.512-.737-.562-1.174-1.432-1.183-2.358v-.3c-.006-.047-.006-.093 0-.14-.005-.02-.005-.04 0-.06-.01-.066-.01-.134 0-.2-.005-.057-.005-.113 0-.17l.06-.17c.02-.069.047-.136.08-.2-.005-.026-.005-.054 0-.08.383-.174.8-.263 1.22-.26 1.657 0 3 1.343 3 3 .066.447.025.903-.12 1.33-.103.05-.21.09-.32.12z"/>
        <path fill="#FFF" fill-rule="nonzero" d="M17.29 15.26c.013.463-.087.923-.29 1.34-.924.407-1.99.323-2.838-.225-.848-.548-1.364-1.486-1.372-2.495.002-.469.111-.93.32-1.35.387-.173.806-.261 1.23-.26 1.633.027 2.945 1.356 2.95 2.99z"/>
        <circle cx="15.74" cy="13.88" r="2.98" stroke="#1D1D1B" stroke-linecap="round" stroke-linejoin="round" stroke-width="1.4"/>
        <path stroke="#1D1D1B" stroke-linecap="round" stroke-linejoin="round" stroke-width="1.4" d="M31.29 7.65v6c-.01.421-.247.804-.62 1-.408.23-.913.198-1.29-.08l-3.23-2.35v15.52c.004.74-.227 1.46-.66 2.06-.678.937-1.764 1.491-2.92 1.49H9.43c-.947.005-1.857-.366-2.53-1.031-.674-.666-1.055-1.572-1.06-2.519V12.25L2.61 14.6c-.37.271-.861.309-1.267.096C.937 14.483.687 14.058.7 13.6v-6c0-.33.138-.645.38-.87L6 2.32C7.15 1.275 8.647.698 10.2.7h.85c.766 2.068 2.745 3.435 4.95 3.42h0c2.202.011 4.175-1.355 4.94-3.42h.85c1.556-.003 3.057.575 4.21 1.62l4.92 4.46c.238.226.372.541.37.87z"/>
    </g>
</svg>
