<?xml version="1.0" encoding="UTF-8"?>
<svg width="29px" height="32px" viewBox="0 0 29 32" version="1.1" xmlns="http://www.w3.org/2000/svg" xmlns:xlink="http://www.w3.org/1999/xlink">
    <title>Icon</title>
    <g id="Page-1" stroke="none" stroke-width="1" fill="none" fill-rule="evenodd">
        <g id="Group" transform="translate(-2.000000, -1.000000)">
            <g id="20200406_ICON_ICON-313" transform="translate(2.000000, 1.000000)">
                <path d="M15.21,30.64 C14.4648769,30.6780264 13.75599,30.3159605 13.35,29.69 L1.77,15.94 C1.44825539,15.1857166 1.29797352,14.3694128 1.33,13.55 L8.15,12.61 C9.33188936,12.61 10.29,11.6518894 10.29,10.47 L10.29,4.19 C10.29,3.19 10.76,3.19 11.29,2.42 C11.76,2.24 12.1,1.28 12.64,1.28 C14,1.28 15.16,-0.51 16,0.37 C16.9261726,1.27096685 17.4490721,2.5078947 17.45,3.8 L17.45,12.38 C17.4499938,12.9493002 17.6768296,13.4951385 18.0803229,13.896755 C18.4838161,14.2983716 19.0307061,14.5226603 19.6,14.52 L24.19,14.52 C27.26,14.52 26.91,16.43 25.97,17.86 L15.21,30.64 Z" id="Path" fill="#FFFFFF" fill-rule="nonzero"></path>
                <path d="M14.66,30.76 C13.9057941,30.7832256 13.1965929,30.4019346 12.8,29.76 L1.22,16.06 C0.940591691,15.642714 0.823237244,15.1377342 0.89,14.64 C0.993448165,13.5534185 1.90851626,12.7250867 3,12.73 L7.59,12.73 C8.77741221,12.73 9.74,11.7674122 9.74,10.58 L9.74,5.74 C9.74257677,4.79132217 10.0204887,3.86379109 10.54,3.07 C11.7173718,1.28538593 13.9261858,0.484693841 15.9736389,1.10031321 C18.0210921,1.71593258 19.4220631,3.60199919 19.42,5.74 L19.42,10.58 C19.42,11.7674122 20.3825878,12.73 21.57,12.73 L26.14,12.73 C26.9331611,12.7224536 27.6648154,13.1562639 28.0387386,13.8557944 C28.4126618,14.5553249 28.3669075,15.4046869 27.92,16.06 L16.36,29.81 C15.9785919,30.3810967 15.3462732,30.7344512 14.66,30.76 Z" id="Path" stroke="#1D1D1B" stroke-width="1.4" stroke-linecap="round" stroke-linejoin="round"></path>
                <polyline id="Path" stroke="#1D1D1B" stroke-width="1.4" stroke-linecap="round" stroke-linejoin="round" points="10.76 19.56 13.92 22.76 20.2 16"></polyline>
            </g>
        </g>
    </g>
</svg>