<svg xmlns="http://www.w3.org/2000/svg" width="32" height="32" viewBox="0 0 32 32">
    <g fill="none" fill-rule="evenodd">
        <path fill="#FFF" fill-rule="nonzero" d="M29.76 18v4.87c.008 1.282-.395 2.533-1.15 3.57-.543.37-1.145.644-1.78.81-.533.153-1.085.23-1.64.23h-1.32l.19 1 .1.55c-.193.01-.387.01-.58 0h-1.32l.07.35-.54-.34-2.52-1.58h-2.11c-3.382-.01-6.127-2.738-6.16-6.12l-.12-1.25H8.36c-1.738-.022-3.27-1.141-3.82-2.79L2.2 10.51h.17c-.88-.005-1.59-.72-1.59-1.6V8.4h21c.409 0 .74.331.74.74v1.37c-.02.838-.683 1.518-1.52 1.56h.17L20.48 14h5.23c2.217 0 4.023 1.783 4.05 4z" transform="translate(0 1)"/>
        <path stroke="#1D1D1B" stroke-linecap="round" stroke-linejoin="round" stroke-width="1.4" d="M24.18 8.42v.49c0 .424-.169.831-.469 1.131-.3.3-.707.469-1.131.469H2.37c-.88-.005-1.59-.72-1.59-1.6V8.4c.01-.87.72-1.57 1.59-1.57h20.21c.88 0 1.595.71 1.6 1.59zM22.75 10.51l-.66 1.91-.55 1.58-1.15 3.32c-.53 1.656-2.07 2.78-3.81 2.78H8.36c-1.74-.023-3.274-1.147-3.82-2.8L2.2 10.51h20.55zM9.33.07L4.25 6.83M15.39.07L20.46 6.83" transform="translate(0 1)"/>
        <path stroke="#1D1D1B" stroke-linecap="round" stroke-linejoin="round" stroke-width="1.4" d="M22.09 12.42h3.1c1.639 0 3.21.651 4.37 1.81 1.159 1.16 1.81 2.731 1.81 4.37v2.74c.001 2.068-1.036 3.999-2.76 5.14-.543.37-1.145.644-1.78.81-.533.153-1.085.23-1.64.23h-1.32l.19 1 .1.55.05.24c.044.257-.066.516-.28.664-.214.148-.495.158-.72.026l-.87-.55-.54-.34-2.52-1.58h-2.12c-3.41-.011-6.166-2.78-6.16-6.19v-.72" transform="translate(0 1)"/>
    </g>
</svg>
