<svg width="32" height="33" viewBox="0 0 32 33" fill="none" xmlns="http://www.w3.org/2000/svg">
<path d="M26.27 6.59994L25.66 2.25994C25.57 1.55994 24.81 1.52994 24.36 1.98994L22.47 4.12994C22.1073 4.54207 21.8682 5.04809 21.78 5.58994L22 10.7899L26.27 6.59994Z" fill="white"/>
<path d="M26.27 6.6001L30.53 7.0001C31.21 7.0601 31.53 7.7001 30.88 8.2501L28.71 10.1401C28.3007 10.5011 27.7983 10.7401 27.26 10.8301L22 10.7901L26.27 6.6001Z" fill="white"/>
<path fill-rule="evenodd" clip-rule="evenodd" d="M3 8.92003C5.90013 5.34044 10.263 3.26374 14.87 3.27003H14.9C20.4379 3.28073 25.5377 6.28313 28.2342 11.1202C30.9307 15.9573 30.8029 21.8739 27.9 26.59C22.8433 32.9354 13.7108 34.2259 7.09384 29.5303C0.476876 24.8346 -1.32004 15.7881 3 8.92003ZM19.5406 13.4694C22.0168 15.9456 22.3421 19.8481 20.31 22.7C22.6293 21.0475 23.7507 18.179 23.1672 15.3916C22.5837 12.6042 20.4058 10.4264 17.6185 9.84285C14.8311 9.25933 11.9626 10.3808 10.31 12.7C13.1619 10.668 17.0645 10.9932 19.5406 13.4694Z" fill="white"/>
<path d="M22.84 3.30994C16.1252 -0.0380461 7.97291 1.98844 3.60725 8.09081C-0.758406 14.1932 -0.0437613 22.5631 5.29323 27.837C10.6302 33.1109 19.008 33.726 25.0581 29.2882C31.1081 24.8503 33.0376 16.6745 29.61 9.99994" stroke="#1D1D1B" stroke-width="1.4" stroke-linecap="round" stroke-linejoin="round"/>
<path d="M25.3 11.3602C28.1222 16.0257 27.0396 22.0614 22.7717 25.4552C18.5039 28.849 12.3794 28.5443 8.46944 24.7438C4.55947 20.9432 4.08113 14.8299 7.3524 10.4674C10.6237 6.105 16.6263 4.85149 21.37 7.54016" stroke="#1D1D1B" stroke-width="1.4" stroke-linecap="round" stroke-linejoin="round"/>
<path d="M22.04 10.79L16 17" stroke="#1D1D1B" stroke-width="1.4" stroke-linecap="round" stroke-linejoin="round"/>
<path fill-rule="evenodd" clip-rule="evenodd" d="M16 24.1701C19.9599 24.1701 23.17 20.96 23.17 17.0001C23.17 13.0402 19.9599 9.83008 16 9.83008C12.0401 9.83008 8.83 13.0402 8.83 17.0001C8.83 20.96 12.0401 24.1701 16 24.1701Z" stroke="#1D1D1B" stroke-width="1.4" stroke-linecap="round" stroke-linejoin="round"/>
<path fill-rule="evenodd" clip-rule="evenodd" d="M26.27 6.59994L25.66 2.25994C25.57 1.55994 24.81 1.52994 24.36 1.98994L22.47 4.12994C22.1073 4.54207 21.8682 5.04809 21.78 5.58994L22 10.7899L26.27 6.59994Z" stroke="#1D1D1B" stroke-width="1.4" stroke-linecap="round" stroke-linejoin="round"/>
<path fill-rule="evenodd" clip-rule="evenodd" d="M26.27 6.6001L30.53 7.0001C31.21 7.0601 31.53 7.7001 30.88 8.2501L28.71 10.1401C28.3007 10.5011 27.7983 10.7401 27.26 10.8301L22 10.7901L26.27 6.6001Z" stroke="#1D1D1B" stroke-width="1.4" stroke-linecap="round" stroke-linejoin="round"/>
</svg>
