<svg width="32" height="32" viewBox="0 0 32 32" fill="none" xmlns="http://www.w3.org/2000/svg">
<path fill-rule="evenodd" clip-rule="evenodd" d="M28.31 14.18C29.0797 14.5673 29.5969 15.3224 29.68 16.18C29.6892 16.2815 29.7013 16.3896 29.7136 16.4997C29.7412 16.7475 29.77 17.0053 29.77 17.22V18.22C29.7136 19.085 29.2299 19.8651 28.48 20.3L26.48 21.44L25.53 22C24.7026 22.4911 24.2141 23.3989 24.26 24.36L24.41 27.74C24.4507 28.4576 24.1855 29.1589 23.68 29.67C23.509 29.7796 23.332 29.8798 23.15 29.97C22.3776 30.3627 21.4586 30.3364 20.71 29.9L17.77 28.21C16.9412 27.7337 15.9165 27.7569 15.11 28.27L12.25 30.1C11.5217 30.5754 10.6002 30.6434 9.81 30.28C9.1845 29.9885 8.57974 29.6543 8 29.28C7.24776 28.801 6.80325 27.9614 6.83 27.07V23.68C6.82067 22.7249 6.28645 21.8525 5.44 21.41L2.44 19.85C1.6716 19.4612 1.15494 18.7069 1.07 17.85C1 17.55 1 17.17 1 16.85V15.85C1.02998 15.2696 1.26781 14.7194 1.67 14.3L3.67 13.12C3.89114 12.9924 4.09314 12.8341 4.27 12.65L5.27 12.09C6.0997 11.6098 6.59316 10.7077 6.55 9.74999L6.4 6.36999C6.36564 5.65819 6.62608 4.96368 7.12 4.44999C7.3 4.33999 7.49 4.23999 7.68 4.13999C8.17937 3.88489 8.75068 3.8073 9.3 3.91999C9.57341 3.95221 9.83634 4.0444 10.07 4.18999L13 5.87999C13.8398 6.3549 14.8722 6.33187 15.69 5.81999L18.53 3.99999C19.2528 3.5124 20.1774 3.43661 20.97 3.79999C21.5952 4.08587 22.197 4.42022 22.77 4.79999C23.512 5.2684 23.9527 6.09279 23.93 6.96999V10.33C23.9277 11.2907 24.4595 12.1731 25.31 12.62L28.31 14.18ZM16.2989 25.0355C17.9245 25.1266 18.9249 25.1827 20.25 24.07V24.03C23.1392 22.427 24.8661 19.3211 24.7031 16.0209C24.5401 12.7208 22.5155 9.80023 19.4823 8.48977C16.4491 7.1793 12.9348 7.70679 10.42 9.84999C7.7 11.38 7.37 13.65 7.48 17C7.45867 19.1082 8.27987 21.1377 9.76127 22.6379C11.2427 24.1381 13.2617 24.9848 15.37 24.99C15.7028 25.002 16.0107 25.0193 16.2989 25.0355Z" fill="white"/>
<path d="M23.34 17.36C23.3706 19.9474 22.2359 22.4113 20.25 24.07C18.8912 24.8368 17.3497 25.2205 15.79 25.18C11.2227 25.0179 7.54557 21.3755 7.34 16.81C7.24848 14.1526 8.38429 11.6007 10.42 9.89003C11.6965 9.16108 13.14 8.77522 14.61 8.77003C16.9076 8.74872 19.1193 9.64242 20.757 11.2539C22.3948 12.8655 23.3242 15.0624 23.34 17.36Z" fill="white"/>
<path fill-rule="evenodd" clip-rule="evenodd" d="M31.28 16.15C31.28 16.5 31.28 16.85 31.28 17.15C31.2444 18.0292 30.7615 18.829 30 19.27L29.07 19.81L27.07 20.97C26.845 21.096 26.6423 21.2582 26.47 21.45C26.0032 21.9492 25.7611 22.6177 25.8 23.3L26 26.68C26.044 27.5436 25.6491 28.3711 24.95 28.88C24.5526 29.1644 24.1385 29.4249 23.71 29.66C23.539 29.7696 23.362 29.8698 23.18 29.96C22.4076 30.3527 21.4886 30.3264 20.74 29.89L17.76 28.2C16.9312 27.7237 15.9065 27.7469 15.1 28.26L12.24 30.09C11.5117 30.5654 10.5902 30.6334 9.8 30.27C9.17449 29.9785 8.56974 29.6443 7.99 29.27C7.26685 28.7994 6.83336 27.9927 6.84 27.13V23.75C6.83067 22.7949 6.29645 21.9225 5.45 21.48L2.45 19.92C1.6816 19.5312 1.16494 18.777 1.08 17.92C1.08 17.58 1.02 17.23 1.01 16.92C0.999999 16.61 1.01 16.23 1.01 15.92C1.0325 15.334 1.26703 14.7761 1.67 14.35C1.84838 14.151 2.05774 13.9822 2.29 13.85L4.29 12.7L5.29 12.14C6.12009 11.6324 6.59233 10.6995 6.51 9.72999L6.36 6.34999C6.32564 5.63819 6.58608 4.94369 7.08 4.42999C7.18062 4.32613 7.29114 4.23235 7.41 4.14999C7.97865 3.75915 8.56966 3.40187 9.18 3.07999C9.9524 2.68724 10.8714 2.7136 11.62 3.14999L14.56 4.82999C15.3877 5.31081 16.4149 5.28764 17.22 4.76999L20.08 2.99999C20.8084 2.5268 21.7271 2.45527 22.52 2.80999C23.1412 3.10373 23.7424 3.43778 24.32 3.80999C25.0257 4.27335 25.4562 5.05592 25.47 5.89999V9.26999C25.4669 10.2284 25.9995 11.1082 26.85 11.55L29.85 13.1C30.6172 13.492 31.1359 14.2436 31.23 15.1C31.26 15.46 31.28 15.81 31.28 16.15Z" stroke="#1D1D1B" stroke-width="1.4" stroke-linecap="round" stroke-linejoin="round"/>
<path fill-rule="evenodd" clip-rule="evenodd" d="M24.81 16.44C24.8324 18.7875 23.9008 21.0435 22.2286 22.6912C20.5564 24.3389 18.2869 25.2371 15.94 25.18C11.3709 25.0183 7.69063 21.3772 7.48 16.81C7.32949 13.6615 8.89966 10.6794 11.5807 9.02174C14.2618 7.3641 17.6313 7.29217 20.3806 8.83386C23.13 10.3756 24.826 13.288 24.81 16.44V16.44Z" stroke="#1D1D1B" stroke-width="1.4" stroke-linecap="round" stroke-linejoin="round"/>
<path d="M18.38 12.85L13.62 20.6" stroke="#1D1D1B" stroke-width="1.4" stroke-linecap="round" stroke-linejoin="round"/>
<path fill-rule="evenodd" clip-rule="evenodd" d="M19.28 20.6C19.9704 20.6 20.53 20.0403 20.53 19.35C20.53 18.6596 19.9704 18.1 19.28 18.1C18.5896 18.1 18.03 18.6596 18.03 19.35C18.03 20.0403 18.5896 20.6 19.28 20.6Z" stroke="#1D1D1B" stroke-width="1.4" stroke-linecap="round" stroke-linejoin="round"/>
<path fill-rule="evenodd" clip-rule="evenodd" d="M12.72 14.91C13.4104 14.91 13.97 14.3504 13.97 13.66C13.97 12.9697 13.4104 12.41 12.72 12.41C12.0296 12.41 11.47 12.9697 11.47 13.66C11.47 14.3504 12.0296 14.91 12.72 14.91Z" stroke="#1D1D1B" stroke-width="1.4" stroke-linecap="round" stroke-linejoin="round"/>
<path fill-rule="evenodd" clip-rule="evenodd" d="M24.81 16.44C24.8324 18.7875 23.9008 21.0435 22.2286 22.6912C20.5564 24.3389 18.2869 25.2371 15.94 25.18C11.3709 25.0183 7.69063 21.3772 7.48 16.81C7.32949 13.6615 8.89966 10.6794 11.5807 9.02174C14.2618 7.3641 17.6313 7.29217 20.3806 8.83386C23.13 10.3756 24.826 13.288 24.81 16.44V16.44Z" stroke="#1D1D1B" stroke-width="1.4" stroke-linecap="round" stroke-linejoin="round"/>
</svg>
