<svg width="37" height="36" viewBox="0 0 37 36" fill="none" xmlns="http://www.w3.org/2000/svg">
<path d="M34.7503 15.3447C34.7555 17.3909 34.2074 19.4006 33.1641 21.1609C32.8773 21.6292 32.5578 22.0765 32.2078 22.4997C30.1709 24.2583 27.575 25.2352 24.8841 25.2559V26.7297C24.5128 26.7297 24.5466 29.9359 24.5466 29.9359C24.5466 29.9359 23.4216 30.8022 23.3541 30.9484C21.3516 32.1409 17.5941 32.9397 13.2291 32.9397C6.88408 32.9734 1.68658 31.2072 1.68658 29.0134V21.3747C1.68519 21.2211 1.71187 21.0686 1.76533 20.9247C4.57783 17.4259 11.9691 17.8309 11.9691 17.4484C12.3966 17.4484 12.8353 17.4484 13.2853 17.4484H13.8141C13.4874 16.2858 13.2986 15.0889 13.2516 13.8822C13.2355 11.2458 14.134 8.68536 15.7941 6.63716C16.3117 6.19833 16.8648 5.80322 17.4478 5.45591C19.2031 4.42145 21.2041 3.87749 23.2416 3.88091C26.2888 3.87195 29.2145 5.07541 31.3735 7.22593C33.5324 9.37645 34.7473 12.2974 34.7503 15.3447Z" fill="white"/>
<path fill-rule="evenodd" clip-rule="evenodd" d="M24.8841 21.375C24.8841 23.5575 19.6978 25.3237 13.2853 25.3237C6.87283 25.3237 1.68658 23.5237 1.68658 21.375C1.68519 21.2214 1.71187 21.0689 1.76533 20.925C2.36157 19.0912 6.61408 17.6512 11.9691 17.4487C12.3966 17.4487 12.8353 17.4487 13.2853 17.4487H13.8141C19.9791 17.4825 24.8841 19.2037 24.8841 21.375Z" stroke="#1D1D1B" stroke-width="1.4" stroke-linecap="round" stroke-linejoin="round"/>
<path d="M1.68652 29.0137C1.68652 31.2074 6.88402 32.9737 13.2853 32.9737C17.594 32.9737 21.3515 32.1749 23.4103 30.9824C24.389 30.3974 24.9403 29.7337 24.9403 29.0137" stroke="#1D1D1B" stroke-width="1.4" stroke-linecap="round" stroke-linejoin="round"/>
<path d="M24.8838 29.0134V26.7634V25.2897V21.5547" stroke="#1D1D1B" stroke-width="1.4" stroke-linecap="round" stroke-linejoin="round"/>
<path d="M1.68652 29.0138V21.3413" stroke="#1D1D1B" stroke-width="1.4" stroke-linecap="round" stroke-linejoin="round"/>
<path d="M13.8145 17.3923C13.4878 16.2298 13.299 15.0328 13.252 13.8261C13.2489 11.209 14.1467 8.67057 15.7945 6.63734C16.6694 5.55673 17.7282 4.63892 18.922 3.92609C20.6773 2.89163 22.6783 2.34768 24.7157 2.35109V2.35109C31.0488 2.35109 36.1845 7.48177 36.1907 13.8148V13.8148C36.1959 15.8611 35.6478 17.8708 34.6045 19.6311C34.2098 20.3009 33.7501 20.9302 33.232 21.5098L32.6132 22.1286L32.197 22.5223C30.1601 24.281 27.5642 25.2579 24.8732 25.2786" stroke="#1D1D1B" stroke-width="1.4" stroke-linecap="round" stroke-linejoin="round"/>
<path d="M27.4038 9.69727L22.0488 18.4273" stroke="#1D1D1B" stroke-width="1.4" stroke-linecap="round" stroke-linejoin="round"/>
<path fill-rule="evenodd" clip-rule="evenodd" d="M28.417 18.4272C29.1936 18.4272 29.8232 17.7976 29.8232 17.021C29.8232 16.2443 29.1936 15.6147 28.417 15.6147C27.6403 15.6147 27.0107 16.2443 27.0107 17.021C27.0107 17.7976 27.6403 18.4272 28.417 18.4272Z" stroke="#1D1D1B" stroke-width="1.4" stroke-linecap="round" stroke-linejoin="round"/>
<path fill-rule="evenodd" clip-rule="evenodd" d="M21.0361 12.0259C21.8128 12.0259 22.4424 11.3963 22.4424 10.6196C22.4424 9.84298 21.8128 9.21338 21.0361 9.21338C20.2595 9.21338 19.6299 9.84298 19.6299 10.6196C19.6299 11.3963 20.2595 12.0259 21.0361 12.0259Z" stroke="#1D1D1B" stroke-width="1.4" stroke-linecap="round" stroke-linejoin="round"/>
</svg>
