<svg xmlns="http://www.w3.org/2000/svg" width="36" height="36" viewBox="0 0 36 36">
    <g fill="none" fill-rule="evenodd">
        <rect width="29.842" height="33.039" x=".947" y="2.013" fill="#FFF" rx="4.737"/>
        <path fill="#1D1D1D" fill-rule="nonzero" d="M18.81 7.47h2.43c.447 0 .81.363.81.81v.613c0 .448-.363.81-.81.81-.38 0-.698-.26-.786-.613h-4.051c-.448 0-.81.363-.81.81v.811c0 .448.362.81.81.81h3.217c1.342 0 2.43 1.088 2.43 2.43v.809c0 1.342-1.088 2.43-2.43 2.43h-.81v.796c0 .447-.363.81-.81.81-.447 0-.81-.363-.81-.81v-.796h-2.43c-.457 0-.824-.378-.81-.835l.023-.742c.014-.447.387-.799.834-.785.416.012.75.337.783.742h4.03c.447 0 .81-.363.81-.81v-.809c0-.447-.363-.81-.81-.81h-3.217c-1.342 0-2.43-1.088-2.43-2.43V9.9c0-1.342 1.088-2.43 2.43-2.43h.787v-.81c0-.447.363-.81.81-.81.447 0 .81.363.81.81v.81z"/>
        <path fill="#1D1D1D" fill-rule="nonzero" d="M6.66 2.61c-2.237 0-4.05 1.813-4.05 4.05V18c0 2.237 1.813 4.05 4.05 4.05h22.68c2.237 0 4.05-1.813 4.05-4.05V6.66c0-2.237-1.813-4.05-4.05-4.05H6.66zM.99 29.34V6.66C.99 3.529 3.529.99 6.66.99h22.68c3.131 0 5.67 2.539 5.67 5.67v22.68c0 3.131-2.539 5.67-5.67 5.67H6.66c-3.131 0-5.67-2.539-5.67-5.67zm1.62-.892v.892c0 2.237 1.813 4.05 4.05 4.05h22.68c2.237 0 4.05-1.813 4.05-4.05v-.892c-1.03 1.05-2.463 1.702-4.05 1.702H6.66c-1.587 0-3.02-.652-4.05-1.702zm0-6.48v2.512c0 2.237 1.813 4.05 4.05 4.05h22.68c2.237 0 4.05-1.813 4.05-4.05v-2.512c-1.03 1.05-2.463 1.702-4.05 1.702H6.66c-1.587 0-3.02-.652-4.05-1.702z"/>
    </g>
</svg>
