<svg width="36" height="36" viewBox="0 0 36 36" fill="none" xmlns="http://www.w3.org/2000/svg">
<path d="M33.7493 13.5791C33.7545 15.6254 33.2064 17.635 32.1631 19.3954C31.8845 19.8707 31.5724 20.3256 31.2293 20.7566C29.3255 22.5054 26.8394 23.4837 24.2543 23.5016L23.9056 24.9866C23.5343 24.9866 23.5681 28.1929 23.5681 28.1929C23.5681 28.1929 23.7481 31.8491 23.7031 31.9954C20.2775 33.8165 16.4774 34.8214 12.5993 34.9316C6.15309 34.9429 0.786836 33.4466 0.786836 31.2529L0.663086 19.5754C0.663086 19.4291 1.23684 14.9516 1.29309 14.8054C4.10559 11.3066 12.2281 12.0604 12.2281 12.0604C12.225 9.44327 13.1228 6.90485 14.7706 4.87162C15.2882 4.43279 15.8414 4.03769 16.4243 3.69037C18.1797 2.65591 20.1806 2.11196 22.2181 2.11537C25.2692 2.10041 28.2007 3.30123 30.3645 5.4524C32.5284 7.60357 33.7464 10.5279 33.7493 13.5791Z" fill="white"/>
<path d="M12.2734 11.8127C12.3638 9.34794 13.2521 6.97914 14.8047 5.06272C15.6797 3.98211 16.7384 3.0643 17.9322 2.35147C19.6897 1.32488 21.6906 0.788737 23.7259 0.798972V0.798972C26.7693 0.795987 29.6892 2.00209 31.8433 4.15197C33.9974 6.30184 35.2092 9.21936 35.2122 12.2627V12.2627C35.2174 14.309 34.6693 16.3186 33.6259 18.079C33.2313 18.7488 32.7716 19.3781 32.2534 19.9577L31.6347 20.5765L31.2184 20.9702C29.2841 22.7205 26.7733 23.6976 24.1647 23.7152" stroke="#1D1D1B" stroke-width="1.4" stroke-linecap="round" stroke-linejoin="round"/>
<path d="M0.787109 31.2529C0.787109 33.4467 5.98461 35.2129 12.3746 35.2129C16.6834 35.2129 20.4409 34.4142 22.4996 33.2217C23.4784 32.6367 24.0296 31.9729 24.0296 31.2529" stroke="#1D1D1B" stroke-width="1.4" stroke-linecap="round" stroke-linejoin="round"/>
<path d="M23.9844 31.2528V29.0028V27.529V24.3115" stroke="#1D1D1B" stroke-width="1.4" stroke-linecap="round" stroke-linejoin="round"/>
<path d="M0.787109 31.2526V23.5801" stroke="#1D1D1B" stroke-width="1.4" stroke-linecap="round" stroke-linejoin="round"/>
<path fill-rule="evenodd" clip-rule="evenodd" d="M23.9847 15.7504C23.9847 17.9329 18.7984 19.6992 12.3859 19.6992C5.97341 19.6992 0.787161 18.0004 0.787161 15.7504C0.785772 15.5969 0.81246 15.4444 0.865911 15.3004C1.46216 13.5004 5.71466 12.0604 11.0697 11.8579C11.4972 11.8579 11.9359 11.8579 12.3859 11.8579H12.9147C19.1247 11.9254 23.9847 13.6467 23.9847 15.7504Z" stroke="#1D1D1B" stroke-width="1.4" stroke-linecap="round" stroke-linejoin="round"/>
<path d="M0.787109 23.4565C0.787109 25.6503 5.98461 27.4165 12.3746 27.4165C16.6834 27.4165 20.4409 26.6178 22.4996 25.4253C23.4784 24.8403 24.0296 24.1765 24.0296 23.4565" stroke="#1D1D1B" stroke-width="1.4" stroke-linecap="round" stroke-linejoin="round"/>
<path d="M23.9844 23.4563V21.2063V19.7326V15.9976" stroke="#1D1D1B" stroke-width="1.4" stroke-linecap="round" stroke-linejoin="round"/>
<path d="M0.787109 23.4562V15.7837" stroke="#1D1D1B" stroke-width="1.4" stroke-linecap="round" stroke-linejoin="round"/>
<path d="M26.4149 8.14502L22.8486 14.0625" stroke="#1D1D1B" stroke-width="1.4" stroke-linecap="round" stroke-linejoin="round"/>
<path fill-rule="evenodd" clip-rule="evenodd" d="M27.4268 16.875C28.2034 16.875 28.833 16.2454 28.833 15.4688C28.833 14.6921 28.2034 14.0625 27.4268 14.0625C26.6501 14.0625 26.0205 14.6921 26.0205 15.4688C26.0205 16.2454 26.6501 16.875 27.4268 16.875Z" stroke="#1D1D1B" stroke-width="1.4" stroke-linecap="round" stroke-linejoin="round"/>
<path fill-rule="evenodd" clip-rule="evenodd" d="M20.0469 10.4741C20.8235 10.4741 21.4531 9.84452 21.4531 9.06787C21.4531 8.29122 20.8235 7.66162 20.0469 7.66162C19.2702 7.66162 18.6406 8.29122 18.6406 9.06787C18.6406 9.84452 19.2702 10.4741 20.0469 10.4741Z" stroke="#1D1D1B" stroke-width="1.4" stroke-linecap="round" stroke-linejoin="round"/>
</svg>
