<svg xmlns="http://www.w3.org/2000/svg" width="32" height="33" viewBox="0 0 32 33">
    <g fill="none" fill-rule="evenodd">
        <path fill="#E0EFEA" fill-rule="nonzero" d="M24.3 26.54l-3.42 4.16c-.239.298-.592.481-.973.504-.382.023-.755-.116-1.027-.384l-4.36-4.11c-.25-.24-.584-.372-.93-.37H6.27c-1.196.031-2.306-.615-2.87-1.67-.15-.29-.33-1.48-.62-1.62-1.07-.49-2-.52-2-1.62V5.06c0-.64.72-2.77 2.71-2.76 1.99.01 9.32 0 9.32 0 .648-.004 1.284.18 1.83.53.444.266.794.665 1 1.14.142.335.418.596.76.72 1.122.762 1.813 2.014 1.86 3.37v12.11c-.015.377.135.742.41 1l5.63 5.37z" transform="translate(3 .5)"/>
        <path stroke="#1D1D1B" stroke-linecap="round" stroke-linejoin="round" stroke-width="1.4" d="M17.37 3.23C17.209 1.756 15.942.655 14.46.7H4c-1.214-.03-2.34.633-2.9 1.71-.03.033-.064.064-.1.09-.144.314-.219.655-.22 1v17c.113 1.176.89 2.184 2 2.59M5.9 9.32L16.44 9.32M5.9 12.65L16.44 12.65" transform="translate(3 .5)"/>
        <path stroke="#1D1D1B" stroke-linecap="round" stroke-linejoin="round" stroke-width="1.4" d="M19.94 19.94V6.59c-.086-1.654-1.496-2.925-3.15-2.84H6.27c-1.207-.026-2.326.632-2.89 1.7-.176.354-.268.744-.27 1.14v17c.003.23.037.459.1.68.424 1.32 1.674 2.199 3.06 2.15h7.9" transform="translate(3 .5)"/>
        <path stroke="#1D1D1B" stroke-linecap="round" stroke-linejoin="round" stroke-width="1.4" d="M24.45 27.27l-3 3.12c-.798.827-2.113.858-2.95.07l-7.27-6.85.33-5.84 5.55-.4 1.24 1.17 6.07 5.73c.407.39.64.93.645 1.494.006.564-.216 1.107-.615 1.506h0z" transform="translate(3 .5)"/>
        <path stroke="#1D1D1B" stroke-linecap="round" stroke-linejoin="round" stroke-width="1.4" d="M16.11 22.63c-.621.552-.696 1.497-.17 2.14.57.51 1.35.1 1.89-.25.54-.35 1.35-1.12 2.11-.73l.09.06c.77.51.44 1.64-.07 2.21M17.22 21.64L16.11 22.63 15.25 21.87M20.82 26.82L19.96 26.06M18.72 27.17L19.96 26.06M9.97 16.24L12.89 19.38" transform="translate(3 .5)"/>
    </g>
</svg>
