<svg width="36" height="36" viewBox="0 0 36 36" fill="none" xmlns="http://www.w3.org/2000/svg">
<path d="M23.7374 23.7262C23.7291 24.2342 23.6915 24.7413 23.6249 25.2449C23.4171 26.7663 22.9085 28.231 22.1287 29.5537C21.734 30.2235 21.2743 30.8528 20.7562 31.4324L20.1374 32.0512C19.9456 32.2429 19.7428 32.4232 19.5299 32.5912C14.9697 36.2653 8.37451 35.9161 4.22783 31.781C0.0811365 27.6458 -0.286473 21.0516 3.37491 16.4812C4.23353 15.4202 5.27804 14.5244 6.45741 13.8374C7.77026 13.069 9.22394 12.5716 10.7324 12.3749C11.2358 12.3069 11.7432 12.2731 12.2512 12.2737C18.5842 12.2675 23.725 17.3931 23.7374 23.7262Z" fill="white"/>
<path d="M33.5812 13.8826C33.5736 16.5153 32.6689 19.0669 31.0162 21.1163C28.9711 22.804 26.4002 23.7233 23.7487 23.7151C23.7363 17.382 18.5955 12.2563 12.2624 12.2626C11.7505 12.2652 11.2393 12.3028 10.7324 12.3751L12.8699 8.55006L14.8274 5.04006C15.2855 4.66712 15.7705 4.32869 16.2787 4.02756C19.8273 1.94643 24.2185 1.92417 27.788 3.96923C31.3576 6.01428 33.5593 9.8137 33.5587 13.9276L33.5812 13.8826Z" fill="white"/>
<path fill-rule="evenodd" clip-rule="evenodd" d="M23.7374 23.7262V23.7262C23.7291 24.2342 23.6915 24.7413 23.6249 25.2449C23.4171 26.7663 22.9085 28.231 22.1287 29.5537C21.734 30.2235 21.2743 30.8528 20.7562 31.4324L20.1374 32.0512C19.9456 32.2429 19.7428 32.4232 19.5299 32.5912V32.5912C14.9697 36.2653 8.37451 35.9161 4.22783 31.781C0.0811365 27.6458 -0.286473 21.0516 3.37491 16.4812C4.23353 15.4203 5.27804 14.5244 6.45741 13.8374C7.77026 13.069 9.22394 12.5716 10.7324 12.3749C11.2358 12.3069 11.7432 12.2731 12.2512 12.2737V12.2737C18.5842 12.2675 23.725 17.3931 23.7374 23.7262Z" stroke="#1D1D1B" stroke-width="1.4" stroke-linecap="round" stroke-linejoin="round"/>
<path fill-rule="evenodd" clip-rule="evenodd" d="M35.2015 12.2625C35.2066 14.3088 34.6585 16.3184 33.6152 18.0788C33.2206 18.7486 32.7609 19.3779 32.2427 19.9575L31.624 20.5763C31.4322 20.768 31.2293 20.9483 31.0165 21.1163V21.1163C28.9714 22.804 26.4005 23.7233 23.749 23.715C23.7366 17.382 18.5958 12.2563 12.2627 12.2625V12.2625C12.2579 9.62569 13.1684 7.06893 14.839 5.02878V5.02878C15.7021 3.96604 16.7455 3.06352 17.9215 2.36253C21.4701 0.281392 25.8613 0.259134 29.4308 2.30419C33.0004 4.34924 35.2021 8.14866 35.2015 12.2625V12.2625Z" stroke="#1D1D1B" stroke-width="1.4" stroke-linecap="round" stroke-linejoin="round"/>
<path d="M14.94 19.6201L9.58496 28.3389" stroke="#1D1D1B" stroke-width="1.4" stroke-linecap="round" stroke-linejoin="round"/>
<path fill-rule="evenodd" clip-rule="evenodd" d="M15.9521 28.3389C16.7288 28.3389 17.3584 27.7093 17.3584 26.9326C17.3584 26.156 16.7288 25.5264 15.9521 25.5264C15.1755 25.5264 14.5459 26.156 14.5459 26.9326C14.5459 27.7093 15.1755 28.3389 15.9521 28.3389Z" stroke="#1D1D1B" stroke-width="1.4" stroke-linecap="round" stroke-linejoin="round"/>
<path fill-rule="evenodd" clip-rule="evenodd" d="M8.57227 21.9375C9.34892 21.9375 9.97852 21.3079 9.97852 20.5312C9.97852 19.7546 9.34892 19.125 8.57227 19.125C7.79562 19.125 7.16602 19.7546 7.16602 20.5312C7.16602 21.3079 7.79562 21.9375 8.57227 21.9375Z" stroke="#1D1D1B" stroke-width="1.4" stroke-linecap="round" stroke-linejoin="round"/>
<path d="M26.4032 8.14502L21.6895 15.8288" stroke="#1D1D1B" stroke-width="1.4" stroke-linecap="round" stroke-linejoin="round"/>
<path fill-rule="evenodd" clip-rule="evenodd" d="M27.416 16.8638C28.1927 16.8638 28.8223 16.2342 28.8223 15.4575C28.8223 14.6809 28.1927 14.0513 27.416 14.0513C26.6394 14.0513 26.0098 14.6809 26.0098 15.4575C26.0098 16.2342 26.6394 16.8638 27.416 16.8638Z" stroke="#1D1D1B" stroke-width="1.4" stroke-linecap="round" stroke-linejoin="round"/>
<path fill-rule="evenodd" clip-rule="evenodd" d="M20.0361 10.4624C20.8128 10.4624 21.4424 9.8328 21.4424 9.05615C21.4424 8.2795 20.8128 7.6499 20.0361 7.6499C19.2595 7.6499 18.6299 8.2795 18.6299 9.05615C18.6299 9.8328 19.2595 10.4624 20.0361 10.4624Z" stroke="#1D1D1B" stroke-width="1.4" stroke-linecap="round" stroke-linejoin="round"/>
</svg>
