<svg xmlns="http://www.w3.org/2000/svg" width="32" height="32" viewBox="0 0 32 32">
    <g fill="none" fill-rule="evenodd">
        <rect width="26.526" height="29.368" x=".842" y="1.789" fill="#FFF" rx="4.737"/>
        <path fill="#1D1D1D" fill-rule="nonzero" d="M16.72 6.64h2.16c.398 0 .72.322.72.72v.545c0 .398-.322.72-.72.72-.337 0-.62-.232-.699-.545h-3.6c-.399 0-.72.322-.72.72v.721c0 .398.321.72.72.72h2.859c1.193 0 2.16.967 2.16 2.16v.719c0 1.193-.967 2.16-2.16 2.16h-.72v.707c0 .398-.322.72-.72.72-.398 0-.72-.322-.72-.72v-.707h-2.16c-.406 0-.732-.336-.72-.742l.02-.66c.013-.397.345-.71.742-.698.37.012.666.3.696.66h3.582c.398 0 .72-.322.72-.72v-.719c0-.398-.322-.72-.72-.72h-2.86c-1.193 0-2.16-.967-2.16-2.16V8.8c0-1.193.967-2.16 2.16-2.16h.7v-.72c0-.398.322-.72.72-.72.398 0 .72.322.72.72v.72z"/>
        <path fill="#1D1D1D" fill-rule="nonzero" d="M5.92 2.32c-1.988 0-3.6 1.612-3.6 3.6V16c0 1.988 1.612 3.6 3.6 3.6h20.16c1.988 0 3.6-1.612 3.6-3.6V5.92c0-1.988-1.612-3.6-3.6-3.6H5.92zM.88 26.08V5.92C.88 3.136 3.136.88 5.92.88h20.16c2.784 0 5.04 2.256 5.04 5.04v20.16c0 2.784-2.256 5.04-5.04 5.04H5.92c-2.784 0-5.04-2.256-5.04-5.04zm1.44-.793v.793c0 1.988 1.612 3.6 3.6 3.6h20.16c1.988 0 3.6-1.612 3.6-3.6v-.793c-.915.934-2.19 1.513-3.6 1.513H5.92c-1.41 0-2.685-.58-3.6-1.513zm0-5.76v2.233c0 1.988 1.612 3.6 3.6 3.6h20.16c1.988 0 3.6-1.612 3.6-3.6v-2.233c-.915.934-2.19 1.513-3.6 1.513H5.92c-1.41 0-2.685-.58-3.6-1.513z"/>
    </g>
</svg>
