<svg xmlns="http://www.w3.org/2000/svg" width="32" height="32" viewBox="0 0 32 32">
    <g fill="none" fill-rule="evenodd">
        <path fill="#FCE7D0" fill-rule="nonzero" d="M28 22v4.9c.005.097.005.193 0 .29h-1.35c-1.068 1.008-2.07 2.083-3 3.22-.766.399-1.617.605-2.48.6H9.64c-3 0-5.47-3.82-5.47-3.82H2.94C1.711 27.196.698 26.228.65 25v-4.94-.3L2 18c.293-.141.615-.213.94-.21h1.23v-5.74c-.004-1.72.555-3.396 1.59-4.77.624-.385 1.296-.685 2-.89.727-.214 1.482-.322 2.24-.32h7.4c3.91 0 7.08 3.17 7.08 7.08v6.61h1.24c1.244 0 2.258.996 2.28 2.24z" transform="translate(1)"/>
        <path stroke="#1D1D1B" stroke-linecap="round" stroke-linejoin="round" stroke-width="1.4" d="M26.24 12.29v13.53c.006 1.344-.49 2.642-1.39 3.64-.448.51-.991.929-1.6 1.23-.766.399-1.617.605-2.48.6H9.23c-1.452.003-2.844-.573-3.87-1.6-1.027-1.026-1.603-2.418-1.6-3.87V12.29c0-4.418 3.582-8 8-8h6.54c4.395.033 7.94 3.605 7.94 8z" transform="translate(1)"/>
        <path stroke="#1D1D1B" stroke-linecap="round" stroke-linejoin="round" stroke-width="1.4" d="M11.39 4.32c0-1.994 1.616-3.61 3.61-3.61 1.994 0 3.61 1.616 3.61 3.61M22.38 5.8v8.85c-.003 1.158-.466 2.268-1.288 3.084-.821.816-1.934 1.271-3.092 1.266h-6.32c-2.408 0-4.36-1.952-4.36-4.36v-9M9.9 24.14L19.74 24.14M3.76 18v9.46H2.53c-.606.003-1.189-.236-1.619-.664-.43-.428-.671-1.01-.671-1.616V20.3 20c.103-.785.607-1.459 1.33-1.78.298-.148.627-.223.96-.22h1.23zM27.47 27.49h-1.23v-9.46h1.23c1.265 0 2.29 1.025 2.29 2.29v4.87c.003.61-.237 1.194-.667 1.626-.43.431-1.014.674-1.623.674z" transform="translate(1)"/>
    </g>
</svg>
