<svg xmlns="http://www.w3.org/2000/svg" width="32" height="32" viewBox="0 0 32 32">
    <g fill="none" fill-rule="evenodd">
        <g>
            <g>
                <g>
                    <g>
                        <g>
                            <g>
                                <g>
                                    <path fill="#FFF" fill-rule="nonzero" d="M22.25 6.32L19 9.46c-.351.334-.51.823-.42 1.3l.48 2.78-3.23-1.7-3.33 1.76c-.284.15-.629.126-.888-.064-.26-.19-.388-.51-.332-.826L11.92 9l-3.2-3.14 3.38-.49.44-.89 2-2.62.38-.6 1.71 3.49c.191.393.567.663 1 .72l4.76.69-.14.16zM31.33 10.35c-.077 1.128-1.014 2.003-2.145 2.003-1.13 0-2.068-.875-2.145-2.003 0-1.19 1.21-3.83 2.4-3.84 1.19-.01 1.88 2.65 1.89 3.84zM5 10.35c-.077 1.128-1.014 2.003-2.145 2.003-1.13 0-2.068-.875-2.145-2.003 0-1.19 1.21-3.83 2.39-3.84C4.28 6.5 4.94 9.16 5 10.35zM11 21.85c-.26 1.154-1.406 1.88-2.56 1.62-1.154-.26-1.88-1.406-1.62-2.56.26-1.16 2-3.46 3.19-3.2 1.19.26 1.29 2.98.99 4.14zM20.58 22.13c.308 1.102 1.425 1.769 2.541 1.518 1.116-.25 1.84-1.33 1.649-2.458-.26-1.16-2-3.46-3.2-3.2-1.2.26-1.25 3.01-.99 4.14z" transform="translate(-785 -1058) translate(0 603) translate(755 163) translate(0 262) translate(8 8) translate(22 22) translate(0 3)"/>
                                    <path stroke="#1D1D1B" stroke-linecap="round" stroke-linejoin="round" stroke-width="1.4" d="M29.07 13c.132 4.78-2.342 9.253-6.46 11.681-4.119 2.429-9.231 2.429-13.35 0C5.143 22.253 2.669 17.78 2.8 13M31.33 10.35c-.077 1.128-1.014 2.003-2.145 2.003-1.13 0-2.068-.875-2.145-2.003 0-1.19 1.21-3.83 2.4-3.84 1.19-.01 1.88 2.65 1.89 3.84zM5 10.35c-.077 1.128-1.014 2.003-2.145 2.003-1.13 0-2.068-.875-2.145-2.003 0-1.19 1.21-3.83 2.39-3.84C4.28 6.5 4.94 9.16 5 10.35z" transform="translate(-785 -1058) translate(0 603) translate(755 163) translate(0 262) translate(8 8) translate(22 22) translate(0 3)"/>
                                    <path stroke="#1D1D1B" stroke-linecap="round" stroke-linejoin="round" stroke-width="1.4" d="M11 21.85c-.26 1.154-1.406 1.88-2.56 1.62-1.154-.26-1.88-1.406-1.62-2.56.26-1.16 2-3.46 3.19-3.2 1.19.26 1.29 2.98.99 4.14zM20.58 22.13c.308 1.102 1.425 1.769 2.541 1.518 1.116-.25 1.84-1.33 1.649-2.458-.26-1.16-2-3.46-3.2-3.2-1.2.26-1.25 3.01-.99 4.14zM16.36.86l1.58 3.21c.106.212.306.36.54.4L22 5c.272.039.499.229.584.49.085.262.013.549-.184.74l-2.57 2.5c-.17.166-.248.405-.21.64l.61 3.53c.04.27-.073.54-.294.7-.22.16-.512.183-.756.06L16.05 12c-.21-.11-.46-.11-.67 0l-3.17 1.67c-.244.123-.535.1-.756-.06-.22-.16-.334-.43-.294-.7l.61-3.53c.038-.235-.04-.474-.21-.64L9 6.21c-.185-.191-.25-.469-.168-.722.081-.253.296-.441.558-.488l3.55-.51c.234-.04.434-.188.54-.4L15.06.88c.121-.246.37-.404.644-.408.274-.004.527.146.656.388z" transform="translate(-785 -1058) translate(0 603) translate(755 163) translate(0 262) translate(8 8) translate(22 22) translate(0 3)"/>
                                </g>
                            </g>
                        </g>
                    </g>
                </g>
            </g>
        </g>
    </g>
</svg>
