<svg xmlns="http://www.w3.org/2000/svg" width="32" height="32" viewBox="0 0 32 32">
    <g fill="none" fill-rule="evenodd">
        <path fill="#FFF" fill-rule="nonzero" d="M15.56 10.38V28c.002.402-.09.8-.27 1.16-.406.165-.841.25-1.28.25H3.57c-.8.038-1.58-.245-2.17-.786-.59-.54-.939-1.295-.97-2.094V9.32c.002-.399.094-.792.27-1.15.62-.85 2.45-1.66 3-2.51l.17-1.09c.77 0 2.23.44 2.22-.33.19-.932 1.009-1.602 1.96-1.602.951 0 1.77.67 1.96 1.602-.014.375.127.74.39 1.008.263.269.624.418 1 .412h1c.613 0 1.11.497 1.11 1.11V8c1.22.096 2.136 1.158 2.05 2.38z" transform="translate(3)"/>
        <path stroke="#1D1D1B" stroke-linecap="round" stroke-linejoin="round" stroke-width="1.4" d="M15.27 29.19c-.408.17-.847.256-1.29.25H3.55C1.9 29.52.496 28.25.41 26.6V9.54C.407 9.144.5 8.753.68 8.4 1.135 7.5 2.002 6.88 3 6.74M14.55 6.74c1.488.27 2.57 1.567 2.57 3.08v4.92" transform="translate(3)"/>
        <path fill="#FFF" fill-rule="nonzero" d="M25.05 24.42c.005 1.286-.296 2.554-.88 3.7-1.556 2.142-4.097 3.345-6.74 3.19-4.52 0-8.23-3.26-8.23-7.78-.003-1.29.302-2.562.89-3.71 2.008-3.006 5.75-4.34 9.207-3.282 3.456 1.058 5.81 4.257 5.793 7.872l-.04.01z" transform="translate(3)"/>
        <path stroke="#1D1D1B" stroke-linecap="round" stroke-linejoin="round" stroke-width="1.4" d="M25.59 22.94c0 1.629-.488 3.22-1.4 4.57h0c-2.275 3.357-6.664 4.544-10.321 2.79-3.657-1.753-5.48-5.918-4.286-9.794 1.193-3.876 5.043-6.295 9.053-5.688 4.01.607 6.971 4.057 6.964 8.112l-.01.01z" transform="translate(3)"/>
        <path stroke="#1D1D1B" stroke-linecap="round" stroke-linejoin="round" stroke-width="1.4" d="M17.14 20.52L17.14 23.93 19.1 23.93M14.34 5.21V6.8c0 .486-.316.916-.78 1.06h0c-.11.015-.22.015-.33 0h-8.7c-.596 0-1.088-.465-1.12-1.06V5.22c0-.296.118-.58.329-.788.21-.209.495-.325.791-.322h1c.377.003.738-.148 1-.418.263-.27.404-.636.39-1.012h0c-.172-.798.158-1.621.835-2.079.677-.457 1.563-.457 2.24 0 .677.458 1.007 1.28.835 2.079h0c-.016.37.118.731.372 1 .255.27.607.425.978.43h1.05c.61 0 1.105.49 1.11 1.1z" transform="translate(3)"/>
    </g>
</svg>
