<svg height="32" viewBox="0 0 32 32" width="32" xmlns="http://www.w3.org/2000/svg"><g fill="none" fill-rule="evenodd" transform="translate(0 2)"><path d="m16.55 1.92988539c-3.6661471-.01493625-7.1826264 1.45296844-9.75 4.07011461-1.10554016 1.49141659-1.89499012 3.19281736-2.32 5v.46h6.34c.3740522-.0103673.7307226-.1601688 1-.42v.38c0 .8394728-.6805272 1.52-1.52 1.52h-6.87c-.71882376-.0015158-1.41941189.2261753-2 .65l-.13 2.79 3.26 1.3c1.2596829 4.7254509 4.95951512 8.4107133 9.6898996 9.6517412 4.7303844 1.2410278 9.7628577-.1532931 13.1801004-3.6517412 3.0848361-4.120996 3.5785682-9.6305237 1.2755999-14.23434375-2.3029684-4.60382002-7.0079-7.51282075-12.1555999-7.51577086zm8.07 14.07011461c-.094246-.3716797-.3220792-.69563-.64-.91l-9.75-8.2c-.5733419-.41420203-1.3588755-.36823996-1.8800479.11v-.34c-.0044139-.56171189.3032987-1.07947303.7988262-1.34403431s1.0969555-.23218882 1.5612217.08403431l9.75 8.19c.3185817.218163.5462482.5454336.64.92.0098272.0964169.0098272.1935831 0 .29.0308387.4521855-.1458165.8938234-.48 1.2z" fill="#fff" fill-rule="nonzero"/><g stroke="#1d1d1b" stroke-linecap="round" stroke-linejoin="round" stroke-width="1.4"><path d="m.82 14.64c.00077451 1.1513817.5791811 2.2255653 1.54 2.86.14012405.0914514.28724755.1717006.44.24.45556262.2071165.94958052.3161411 1.45.32h6.92c.8394728 0 1.52.6805272 1.52 1.52v3.26c-.0029538.7746986.5882495 1.422414 1.36 1.49.1225249.0199706.2474751.0199706.37 0 .2253523-.0252636.4413771-.1041298.63-.23l9.75-8.2c.4431423-.2886821.6985601-.7918932.67-1.32.0098272-.0964169.0098272-.1935831 0-.29-.094246-.3716797-.3220792-.69563-.64-.91l-9.75-8.2c-.4671055-.30973216-1.0667561-.33728523-1.5602969-.07169336-.4935407.26559186-.8008813.78122912-.7997031 1.34169336v3.24c0 .8394728-.6805272 1.52-1.52 1.52h-6.95c-1.89433669 0-3.43 1.5356633-3.43 3.43z"/><path d="m4.48 11c.43343056-1.77301203 1.21527309-3.44207587 2.3-4.91 3.00953-4.11062623 8.064071-6.19452163 13.096185-5.39931909 5.0321141.79520254 9.1977898 4.33612766 10.7931581 9.17444542 1.5953683 4.83831777.352846 10.16252127-3.2193431 13.79487367-3.3102828 3.4019719-8.1538695 4.8335021-12.7816713 3.7776444s-8.37117309-4.4465482-9.8783287-8.9476444"/></g></g></svg>