<svg height="32" viewBox="0 0 32 32" width="32" xmlns="http://www.w3.org/2000/svg"><g fill="none" fill-rule="evenodd" transform="translate(1 3)"><path d="m21.68 11.82c-.0777843.572178-.3845441 1.0882562-.85 1.43l-.16.11-1.23.91c.5194761 1.4121598.7275611 2.9199233.61 4.42-.1110408 1.3468042-.4955397 2.6568228-1.13 3.85-3.2895488 4.0021152-9.05835564 4.8991008-13.4077875 2.0847625-4.34943186-2.8143383-5.89500976-8.444161-3.5922125-13.0847625 2.97581635-3.76862135 8.1771914-4.95131992 12.49-2.84.4436666.2123552.9688995.15828711 1.36-.14l1.06-.79c.933911-.68258496 2.2439678-.4813817 2.93.45l1.56 2.13c.2985341.4282247.4268759.9522871.36 1.47z" fill="#fff" fill-rule="nonzero"/><g stroke="#1d1d1b" stroke-linecap="round" stroke-linejoin="round" stroke-width="1.4"><path d="m21.85 11.48-.17.13-1.22.89c.08.21.15.43.21.65.3620781 1.2217673.4976419 2.4994561.4 3.77-.1707359 1.9751276-.9184047 3.8564709-2.15 5.41-2.9359636 3.7612765-8.0887891 4.9816155-12.39984139 2.9366432-4.31105227-2.0449723-6.62582001-6.8076069-5.57029394-11.4608798 1.05552606-4.6532728 5.19867324-7.95102502 9.97013533-7.9357634 1.8144026-.00433771 3.5966025.4792049 5.16 1.4l1.73-1.27c.447653-.33047781 1.0086081-.46880653 1.5585845-.38433916s1.0435669.38475701 1.3714155.83433916l1.56 2.12c.6747744.92894037.4738473 2.2282692-.45 2.91z"/><path d="m21.98 7.78 3.28-2.18"/><path d="m25.59.34v2.97"/><path d="m30.97 5.91-3.23.03"/><path d="m30.07 2.03-2.33 1.99"/></g></g></svg>