<svg height="32" viewBox="0 0 32 32" width="32" xmlns="http://www.w3.org/2000/svg"><g fill="none" fill-rule="evenodd"><g fill="#fff" fill-rule="nonzero"><circle cx="16" cy="28.1" r="3.51"/><path d="m29.2300063 10.6c.0027751 2.3057951-.9109522 4.5181662-2.5400063 6.15-3.744899 2.3830167-8.6823128 1.5725852-11.468937-1.8825215-2.7866243-3.4551067-2.533085-8.45216303.588937-11.6074785 1.4031082-.90668305 3.0394464-1.38611974 4.71-1.38005786 2.3117693 0 4.5287087.919087 6.1624383 2.55469231 1.6337296 1.63560532 2.5502159 3.85359779 2.547568 6.16536555z"/><path d="m29.87 22.24c-.2250563.1025557-.4645039.1700057-.71.2l-25.65 3.3c-.67100515.0849122-1.34825705-.1002311-1.88274581-.5146943-.53448875-.4144632-.88242459-1.0242901-.96725419-1.6953057 0-.11 0-.22 0-.33-.01524862-.1629774-.01524862-.3270226 0-.49l27.34-3.51c.3846745-.0510482.773846.053141 1.0815607.2895559s.5086546.5856041.5584393.9704441z"/></g><circle cx="16" cy="27.79" r="3.51" stroke="#1d1d1b" stroke-linecap="round" stroke-linejoin="round" stroke-width="1.4"/><path d="m30.6900006 9.42c.001135 2.9648812-1.5060063 5.7267176-4.0000006 7.33-3.3509343 2.1571375-7.7379245 1.7680147-10.6568573-.9452554-2.9189328-2.71327-3.6269789-7.06019653-1.7199826-10.55953475s5.9437301-5.26055357 9.806016-4.27833658c3.862286.98221699 6.5672241 4.45790529 6.5708245 8.44312673z" stroke="#1d1d1b" stroke-linecap="round" stroke-linejoin="round" stroke-width="1.4"/><path d="m31.38 19.91c-.0043916 1.0051242-.5943392 1.9154408-1.51 2.33-.2250563.1025557-.4645039.1700057-.71.2l-25.65 3.3c-.67100515.0849122-1.34825705-.1002311-1.88274581-.5146943-.53448875-.4144632-.88242459-1.0242901-.96725419-1.6953057 0-.11 0-.22 0-.33-.01524862-.1629774-.01524862-.3270226 0-.49.22214649-1.0615893 1.09385094-1.8650035 2.17-2l25.65-3.3c1.3938678-.1770939 2.6683519.8067184 2.85 2.2.04.08.05.19.05.3z" stroke="#1d1d1b" stroke-linecap="round" stroke-linejoin="round" stroke-width="1.4"/></g></svg>