<svg height="32" viewBox="0 0 32 32" width="32" xmlns="http://www.w3.org/2000/svg"><g fill="none" fill-rule="evenodd" transform="translate(1)"><g fill="#fff" fill-rule="nonzero"><path d="m13.27 22.86c-.24 0-.47 0-.7 0v-.35z"/><path d="m13.27 22.86 2.42-1.32v1c-.7909668.2030611-1.6034389.3104954-2.42.32z"/><path d="m23.4700114 3.59v9.07c.003366 2.2511814-.742485 4.4394803-2.1200114 6.22-1.1513515.9257367-2.4935176 1.5848666-3.93 1.93-3.0420081.7429443-6.2567006.0474156-8.71953374-1.8865524-2.46283313-1.933968-3.90084578-4.8920295-3.90046626-8.0234476v-8.11c-.01030511-.10641777-.01030511-.21358223 0-.32h17.54c.6201973 0 1.1245115.49982699 1.1300114 1.12z"/><path d="m18.37 31.26v.19h-8.47002772v-1.95c-.00157386-.3726008.06624976-.7422395.20002772-1.09.23-.09.74-1.1.74-1.1.4700411-.4623028 1.076823-.7604327 1.73-.85v-4l.35-2.07 2.77 1.13v5c.0264134.8661668.4942997 1.658555 1.24 2.1.9182431.5585247 1.4675503 1.565588 1.44 2.64z"/></g><path d="m25.2000508 2.79v8.11c.0097888 3.1156205-1.4090459 6.0638484-3.8500508 8-1.1513515.9257367-2.4935176 1.5848666-3.93 1.93-3.0454212.7437851-6.2637108.0458317-8.72741087-1.8927215-2.46370007-1.9385533-3.89911766-4.902352-3.89258913-8.0372785v-8.11c-.01030511-.10641777-.01030511-.21358223 0-.32.15962262-1.02614654 1.05165726-1.7773336 2.09-1.76h16.22c1.1503811-.00001317 2.0844958.92963203 2.0900508 2.08z" stroke="#1d1d1b" stroke-linecap="round" stroke-linejoin="round" stroke-width="1.4"/><path d="m12.57 21.1v4.31c.0143542.5379181-.2921187 1.0329897-.78 1.26-.3541288.1516332-.6764415.3687702-.95.64-.3256117.3068938-.5784514.6827366-.74 1.1-.13377796.3477605-.20160158.7173992-.20002772 1.09v1.95h10.20004112v-1.95c.0035666-1.2120541-.7108832-2.3112076-1.8200134-2.8-.5057214-.2025456-.8433824-.6854793-.86-1.23v-4.37" stroke="#1d1d1b" stroke-linecap="round" stroke-linejoin="round" stroke-width="1.4"/><path d="m25.39 5.89h2.44c.3889549 0 .7618352.15518382 1.0359276.43115356s.4267365.64990063.4241067 1.03884644v2.25c.0007087 3.0324634-2.1300072 5.6478126-5.1000343 6.26" stroke="#1d1d1b" stroke-linecap="round" stroke-linejoin="round" stroke-width="1.4"/><path d="m4.48 5.89h-2.48c-.79619585.02167316-1.43029493.67350928-1.4300001 1.47v2.25c.00409876 3.0341471 2.13812358 5.6484319 5.1100001 6.26" stroke="#1d1d1b" stroke-linecap="round" stroke-linejoin="round" stroke-width="1.4"/></g></svg>