<svg height="32" viewBox="0 0 32 32" width="32" xmlns="http://www.w3.org/2000/svg"><g fill="none" fill-rule="evenodd" transform="translate(0 5)"><path d="m21.54 1.79h-13.66c-2.31554606 0-4.52757187.95953415-6.11 2.65-.6623613 1.25761012-1.00575025 2.65863705-1.00021405 4.08v.74c-.01575536 2.2490527.8623911 4.4123279 2.44145953 6.0139008 1.57906842 1.601573 3.72970103 2.5102424 5.97875452 2.5260992h7.6l5.66 3.7h1.08c.7 0-.59-2 .06-2.14l-.74-1.56c2.3287032.0073301 4.5559508-.9523782 6.15-2.65.657739-1.2557692 1.0008927-2.6524048 1.0002127-4.07v-.74c.0157512-2.25687576-.8675585-4.42722806-2.4549845-6.03154156-1.587426-1.60431349-3.7483099-2.51053987-6.0052282-2.51845844zm-.81 9.86c-1.06061 1.1591293-2.1857287 2.257539-3.37 3.29-.3301358.2753063-.8098642.2753063-1.14 0-1.22-1.04-4.22-3.5-4.8-4.14-1.06-1.11-2.07-1.9-1.49-3.43.51-1.37.85-1.54 2.17-1.54 1.1610723.03050971 2.2157348.68394195 2.76 1.71.1000074.18270953.2917111.29632136.5.29632136s.3999926-.11361183.5-.29632136c.5426648-1.02755331 1.5983014-1.68158903 2.76-1.71 1.3820154.07407451 2.5751816.99281251 3 2.31.58 1.53.17 2.4-.89 3.51z" fill="#fff" fill-rule="nonzero"/><g stroke="#1d1d1b" stroke-linecap="round" stroke-linejoin="round" stroke-width="1.4"><path d="m22.83 0h-13.67c-3.09934746.01254171-5.93996166 1.73074814-7.39 4.47-.66543242 1.25284574-1.00906494 2.6514301-1.0001748 4.07v.74c-.02208772 4.6640302 3.72635359 8.4705522 8.3901748 8.52h7.6l5.67 3.71.22.14c.3657642.1637427.7939559.0933142 1.0880056-.178954.2940496-.2722682.3971592-.6937853.2619944-1.071046l-.47-1-.74-1.57c2.3566268.0187213 4.6116897-.9581095 6.21-2.69 1.4803679-1.5960517 2.3020418-3.6931063 2.3000945-5.87v-.74c.0105368-2.25514878-.8765022-4.42186749-2.4655129-6.0221344-1.5890106-1.60026692-3.749414-2.50257812-6.0045816-2.5078656z"/><path d="m11.07 10.44c.62.64 3.55 3.1 4.81 4.15.3301358.2753063.8098642.2753063 1.14 0 1.37-1.16 4.13-3.45 4.8-4.15 1.1020675-1.1123097 1.4537849-2.76538127.9-4.23-.4296571-1.31377441-1.6200477-2.23037522-3-2.31-1.1484817.03848477-2.1875076.69169592-2.72 1.71-.1000074.18270953-.2917111.29632136-.5.29632136s-.3999926-.11361183-.5-.29632136c-.5426648-1.02755331-1.5983014-1.68158903-2.76-1.71-1.3820154.07407451-2.5751816.99281251-3 2.31-.57173558 1.45122646-.24774064 3.10242963.83 4.23z"/></g></g></svg>