<svg xmlns="http://www.w3.org/2000/svg" width="32" height="33" viewBox="0 0 32 33">
    <g fill="none" fill-rule="evenodd">
        <path fill="#D5F3E8" fill-rule="nonzero" d="M16 18.21l-3 .8h-.08c-.13-.665.17-1.34.75-1.69.364-.214.8-.275 1.208-.168.41.107.76.373.972.738.065.099.116.207.15.32zM20 16.41l-.16.09-2.31 1.36-.1.06c-.104-.65.201-1.299.77-1.633.568-.334 1.282-.285 1.8.123z" transform="translate(0 .5)"/>
        <path fill="#D5F3E8" fill-rule="nonzero" d="M28.43 9.73l-3.18-.56.33 1.83-.33-.06.11.61L17 16.41c-.18-.26-.35-.52-.51-.8.06.24.12.48.16.72L7 18.93l-1.26-1.81-1.84 2.65-2.13.58c2.424-3.567 6.82-5.237 11-4.18l-4-2c1.31-.194 2.645-.13 3.93.19l-5-2.49-2.89-1.39-1-.49c2.145-.606 4.43-.487 6.5.34.08.013.159.04.23.08l.55.25c1.82.894 3.33 2.311 4.34 4.07-.19-.736-.293-1.49-.31-2.25-.03-.383-.03-.767 0-1.15.09-.794.268-1.575.53-2.33.937-2.872 3.097-5.182 5.9-6.31.22-.087.44-.167.66-.24l-1 3.15-1 3.06-.7 2.11-1.09 3.3c2.223-3.837 6.663-5.807 11-4.88l-.99.54zM19.93 19.29c.756-.445 1.01-1.418.565-2.175-.443-.756-1.416-1.01-2.174-.568-.757.443-1.013 1.415-.571 2.173.447.756 1.42 1.01 2.18.57zM15.43 20.39c-.76.44-1.733.186-2.18-.57-.068-.104-.119-.22-.15-.34-.257-.779.12-1.625.872-1.954.751-.33 1.63-.033 2.028.684.214.364.275.8.168 1.208-.107.41-.373.76-.738.972z" transform="translate(0 .5)"/>
        <path stroke="#1D1D1B" stroke-linecap="round" stroke-linejoin="round" stroke-width="1.4" d="M31.29 8.05l-1.94 1.14-.92.54-3.18-.56.33 1.83.07.38-.29.17L17 16.41c.156-1.465.623-2.88 1.37-4.15.315-.526.672-1.024 1.07-1.49 2.937-3.39 7.73-4.49 11.85-2.72h0z" transform="translate(0 .5)"/>
        <path stroke="#1D1D1B" stroke-linecap="round" stroke-linejoin="round" stroke-width="1.4" d="M22.21.7l-.66 2-.38 1.16-1 3.06-1.77 5.35-1.4 4.14c-.18-.26-.35-.52-.51-.8-.468-.817-.818-1.695-1.04-2.61-.143-.537-.237-1.086-.28-1.64-.122-1.382.042-2.774.48-4.09C16.661 4.158 19.1 1.716 22.21.7zM16.67 16.33L7 18.93l-1.26-1.81-1.84 2.65-2.13.58-1.07.29c1.181-3.046 3.744-5.345 6.9-6.19.401-.107.809-.19 1.22-.25 1.31-.194 2.645-.13 3.93.19 1.429.363 2.765 1.024 3.92 1.94z" transform="translate(0 .5)"/>
        <path stroke="#1D1D1B" stroke-linecap="round" stroke-linejoin="round" stroke-width="1.4" d="M16.67 16.33l-3.92-1.94-5-2.49-2.94-1.42-1-.49-2-1c4.67-2.426 10.417-.922 13.3 3.48.11.16.21.32.31.49.472.824.829 1.709 1.06 2.63.09.26.15.5.19.74zM16.67 17.16L16.67 31.3M19.81 19c-.76.44-1.733.186-2.18-.57-.097-.156-.161-.329-.19-.51-.1-.647.204-1.29.768-1.622.564-.333 1.274-.289 1.792.112.155.12.284.27.38.44.068.104.119.22.15.34.197.697-.098 1.44-.72 1.81h0zM15.31 20.13c-.757.44-1.727.185-2.17-.57-.004-.027-.004-.053 0-.08-.069-.129-.12-.267-.15-.41-.13-.665.17-1.34.75-1.69.364-.214.8-.275 1.208-.168.41.107.76.373.972.738.05.082.09.169.12.26h0c.25.732-.057 1.539-.73 1.92h0zM13.79 31.3L19.56 31.3" transform="translate(0 .5)"/>
    </g>
</svg>
