<svg xmlns="http://www.w3.org/2000/svg" width="32" height="32" viewBox="0 0 32 32">
    <g fill="none" fill-rule="evenodd" opacity=".75">
        <g>
            <g>
                <g>
                    <g>
                        <g>
                            <path fill="#F9F2D7" fill-rule="nonzero" d="M26.25 11v17.84c-.07.23-.18.55-.26.77-.368.432-.83.774-1.35 1-.428.196-.89.308-1.36.33H11.17c-1.017.003-1.992-.4-2.711-1.119-.719-.719-1.122-1.694-1.119-2.711V15L4.4 11.91 7.34 9V4.21c-.015-.183-.015-.367 0-.55.044-.346.141-.684.29-1l.06-.12c.599-.364 1.289-.552 1.99-.54h7.25c1.755-.043 3.456.603 4.74 1.8C22.74 4.91 24 6.19 25 7.24c.883 1.047 1.33 2.393 1.25 3.76z" transform="translate(-279 -1265) translate(255 801) translate(0 440) translate(24 24) translate(2)"/>
                            <path stroke="#1D1D1B" stroke-linecap="round" stroke-linejoin="round" stroke-width="1.4" d="M7.12 7.13v-2.6c-.015-.183-.015-.367 0-.55.043-.347.14-.684.29-1l.06-.12C8.116 1.507 9.501.663 11 .71h7.81c1.319.008 2.58.545 3.5 1.49C23.53 3.45 25 5 26.23 6.23c.827.856 1.29 2 1.29 3.19v18c.003.78-.238 1.543-.69 2.18-.384.603-.927 1.088-1.57 1.4-.495.217-1.03.329-1.57.33H11c-2.115 0-3.83-1.715-3.83-3.83V16.82" transform="translate(-279 -1265) translate(255 801) translate(0 440) translate(24 24) translate(2)"/>
                            <path stroke="#1D1D1B" stroke-linecap="round" stroke-linejoin="round" stroke-width="1.4" d="M20.84 1.31v4.36c.006 1.04.85 1.88 1.89 1.88h4.11M12.09 15.34L22.53 15.34M12.09 20.28L22.53 20.28M20.83 24.62L22.53 24.62" transform="translate(-279 -1265) translate(255 801) translate(0 440) translate(24 24) translate(2)"/>
                            <path fill="#1D1D1B" fill-rule="nonzero" d="M7.12 20c-.387 0-.7-.313-.7-.7 0-5.67-.85-6.67-5.68-6.67-.387 0-.7-.313-.7-.7 0-.387.313-.7.7-.7 4.83 0 5.68-1 5.68-6.67 0-.25.133-.481.35-.606.217-.125.483-.125.7 0 .217.125.35.356.35.606 0 5.67.85 6.67 5.68 6.67.387 0 .7.313.7.7 0 .387-.313.7-.7.7-4.83 0-5.68 1-5.68 6.67 0 .387-.313.7-.7.7zm-2-8.07c.918.423 1.635 1.187 2 2.13.366-.942 1.083-1.705 2-2.13-.917-.425-1.634-1.188-2-2.13-.362.93-1.067 1.685-1.97 2.11l-.03.02z" transform="translate(-279 -1265) translate(255 801) translate(0 440) translate(24 24) translate(2)"/>
                        </g>
                    </g>
                </g>
            </g>
        </g>
    </g>
</svg>
