<svg xmlns="http://www.w3.org/2000/svg" width="32" height="32" viewBox="0 0 32 32">
    <g fill="none" fill-rule="evenodd">
        <path d="M0 0H32V32H0z"/>
        <path fill="#03A9F4" fill-rule="nonzero" d="M27.154 9.13c-.824.362-1.702.602-2.617.718.941-.562 1.66-1.445 1.998-2.51-.878.523-1.847.893-2.88 1.1C22.82 7.55 21.633 7 20.337 7 17.823 7 15.8 9.04 15.8 11.543c0 .36.03.706.105 1.036-3.776-.185-7.117-1.994-9.362-4.751-.391.68-.621 1.458-.621 2.296 0 1.573.81 2.967 2.017 3.774-.73-.014-1.445-.226-2.052-.56v.05c0 2.208 1.574 4.04 3.639 4.463-.37.101-.773.15-1.19.15-.292 0-.585-.017-.86-.078.588 1.799 2.258 3.121 4.243 3.164-1.545 1.209-3.507 1.937-5.631 1.937-.373 0-.73-.016-1.087-.062C7.012 24.259 9.396 25 11.967 25c8.358 0 12.927-6.923 12.927-12.924 0-.2-.007-.395-.016-.587.9-.64 1.658-1.439 2.276-2.358z"/>
    </g>
</svg>
