<svg xmlns="http://www.w3.org/2000/svg" width="32" height="33" viewBox="0 0 32 33">
    <g fill="none" fill-rule="evenodd" opacity=".75" transform="translate(7 1.5)">
        <path fill="#E0F1FA" fill-rule="nonzero" d="M17.57 18H13.5c-1.064-.002-2.063-.511-2.69-1.37l-2-2.78-6.25 4.55c-.284.2-.655.226-.965.07-.31-.158-.508-.473-.515-.82v-4c-.002-.238.021-.476.07-.71L4 9.79l1.19-.86L.74 2.71h4.48c.79-.017 1.539.357 2 1L9 6.18l.5.7 7.8-5.62v6.35l-.68.67-4 3 .4.59L17.57 18z"/>
        <path stroke="#1D1D1B" stroke-linecap="round" stroke-linejoin="round" stroke-width="1.4" d="M10.16 5.33l-2-2.82c-.627-.883-1.647-1.403-2.73-1.39h-4c-.347.003-.664.198-.821.507-.158.31-.13.68.071.963l.07.09L5.18 8.9M8.82 13.9l2 2.78c.627.859 1.626 1.368 2.69 1.37h4.07c.35.005.673-.19.832-.502.16-.312.127-.687-.082-.968l-4-5.58-.5-.69"/>
        <path stroke="#1D1D1B" stroke-linecap="round" stroke-linejoin="round" stroke-width="1.4" d="M11.42 12l-.32.23-2.28 1.64-6.26 4.53c-.284.2-.655.226-.965.07-.31-.158-.508-.473-.515-.82v-4c-.002-.238.021-.476.07-.71.17-.805.633-1.518 1.3-2L4 9.79l1.19-.86L7.5 7.25 7.82 7"/>
        <path stroke="#1D1D1B" stroke-linecap="round" stroke-linejoin="round" stroke-width="1.4" d="M7.5 7.26l9-6.49c.283-.22.666-.257.986-.097.32.16.52.49.514.847v4.07c.006 1.066-.505 2.068-1.37 2.69l-5.51 4M8.82 13.88L8.82 13.9 8.82 16.43 8.82 30.3"/>
        <circle cx="9.24" cy="9.7" r="2.08" stroke="#1D1D1B" stroke-linecap="round" stroke-linejoin="round" stroke-width="1.4"/>
    </g>
</svg>
