<svg xmlns="http://www.w3.org/2000/svg" width="32" height="33" viewBox="0 0 32 33">
    <g fill="none" fill-rule="evenodd" opacity=".75">
        <path fill="#E0F1FA" fill-rule="nonzero" d="M14.38 30.65c0 .175-.02.35-.06.52-.238.081-.488.122-.74.12H3.13c-1.337 0-2.42-1.083-2.42-2.42V18.42c0-.175.02-.35.06-.52.238-.08.488-.12.74-.12 1.48 0 2.68 1.2 2.68 2.68v2.42l4.54-4.55c.357-.352.838-.55 1.34-.55 1.144-.003 2.242.45 3.05 1.26.81.808 1.263 1.906 1.26 3.05-.001.284-.066.564-.19.82-.09.193-.211.368-.36.52l-2.77 2.76L9.28 28h2.42c1.468 0 2.664 1.182 2.68 2.65zM29.67 3.56v11.79c0 .175-.02.35-.06.52-.238.081-.488.122-.74.12-.712.005-1.397-.275-1.901-.779s-.784-1.189-.779-1.901v-2.42l-4.54 4.55c-.356.354-.838.552-1.34.55-1.144.003-2.242-.45-3.05-1.26-.81-.808-1.263-1.906-1.26-3.05 0-.289.068-.573.2-.83l3.28-3.27h-.16L21.1 5.8h-2.42C17.2 5.8 16 4.6 16 3.12c0-.175.02-.35.06-.52.238-.081.488-.122.74-.12h11.79c.286 0 .561.114.764.316.202.203.316.478.316.764z" transform="translate(0 .5)"/>
        <path stroke="#1D1D1B" stroke-linecap="round" stroke-linejoin="round" stroke-width="1.4" d="M16 28.87c.003.642-.253 1.259-.71 1.71-.278.279-.622.482-1 .59-.238.081-.488.122-.74.12H3.13c-1.337 0-2.42-1.083-2.42-2.42V18.42c0-.175.02-.35.06-.52.237-1.113 1.222-1.906 2.36-1.9 1.48 0 2.68 1.2 2.68 2.68v2.42l4.53-4.54c.357-.36.843-.56 1.35-.56 1.144-.003 2.242.45 3.05 1.26.81.808 1.263 1.906 1.26 3.05 0 .507-.2.993-.56 1.35l-1.25 1.25-3.29 3.28h2.42c1.48 0 2.68 1.2 2.68 2.68h0zM31.29 3.12v10.45c.005 1.052-.676 1.984-1.68 2.3-.238.081-.488.122-.74.12-.712.005-1.397-.275-1.901-.779s-.784-1.189-.779-1.901v-2.42l-4.54 4.55c-.356.354-.838.552-1.34.55-1.144.003-2.242-.45-3.05-1.26-.81-.808-1.263-1.906-1.26-3.05 0-.289.068-.573.2-.83.086-.192.208-.365.36-.51L21.1 5.8h-2.42C17.2 5.8 16 4.6 16 3.12c0-.175.02-.35.06-.52.244-1.108 1.225-1.898 2.36-1.9h10.45c.642 0 1.257.255 1.711.709.454.454.709 1.07.709 1.711h0z" transform="translate(0 .5)"/>
    </g>
</svg>
