<svg xmlns="http://www.w3.org/2000/svg" width="32" height="32" viewBox="0 0 32 32">
    <g fill="none" fill-rule="evenodd">
        <path fill="#FFF" fill-rule="nonzero" d="M31 29c-.63.7-1.708.758-2.41.13l-4.4-3.78c.822-.503 1.553-1.142 2.16-1.89.125-.147.241-.3.35-.46l4.17 3.58c.7.634.759 1.715.13 2.42zM26.72 19.31c.003 1.726-.497 3.415-1.44 4.86-.492.502-1.042.941-1.64 1.31-.14.108-.29.202-.45.28h-.06c-2.404 1.31-5.277 1.442-7.79.356-2.513-1.086-4.387-3.268-5.08-5.916h10.32c.59.28.39-7.56.38-7.69-.01-.13.12-1.24.19-1.5.355.11.692.272 1 .48 2.83 1.583 4.58 4.577 4.57 7.82z" transform="translate(0 1)"/>
        <path stroke="#1D1D1B" stroke-linecap="round" stroke-linejoin="round" stroke-width="1.4" d="M31 29c-.63.7-1.708.758-2.41.13l-4.4-3.78c.822-.503 1.553-1.142 2.16-1.89.125-.147.241-.3.35-.46l4.17 3.58c.7.634.759 1.715.13 2.42h0zM23.19 10.14c2.187 1.215 3.765 3.291 4.35 5.724.586 2.432.125 4.999-1.27 7.076l-.13.19c-.109.16-.225.313-.35.46-.163.203-.336.396-.52.58-.492.502-1.042.941-1.64 1.31-.14.108-.29.202-.45.28h-.06c-2.563 1.402-5.65 1.462-8.265.16-2.615-1.301-4.428-3.8-4.855-6.69" transform="translate(0 1)"/>
        <path fill="#FFF" fill-rule="nonzero" d="M20.63 10.85h-.09c.045-.093.119-.17.21-.22-.061.06-.103.136-.12.22zM20.58 20.21H4.86c-.542.019-1.07-.183-1.46-.56-.39-.378-.61-.897-.61-1.44L2.73 12c.08 0 .28-.87.36-.87.64 0 2.47-.79 2.6-1.3l.07-.15c-.38 1.39.88 2.76 2.62 2.76.644.01 1.28-.141 1.85-.44.53-.25.935-.704 1.12-1.26.185.553.585 1.007 1.11 1.26l.16.08c.522.261 1.097.398 1.68.4 1.75 0 2.82-.85 2.78-2-.615.436-1.357.654-2.11.62-.16.01-.32.01-.48 0 .838-.344 1.726-.554 2.63-.62.176.455.491.843.9 1.11.498.33 1.083.504 1.68.5.304-.003.606-.043.9-.12.01.03.57 8.52-.02 8.24z" transform="translate(0 1)"/>
        <path fill="#FFF" fill-rule="nonzero" d="M22.38 9.87c-1.036.906-2.548 1.012-3.7.26-.457-.3-.791-.754-.94-1.28.082.593-.153 1.185-.62 1.56-.904.066-1.792.276-2.63.62-.476-.07-.937-.222-1.36-.45-.535-.24-.944-.694-1.13-1.25-.115.394-.35.743-.67 1-.142.111-.293.212-.45.3-.569.307-1.204.472-1.85.48-1.76 0-3-1.38-2.62-2.79-.004-.05-.004-.1 0-.15l-.55 1.2-.18.4c.019-.078.042-.155.07-.23v-.07c-.138.195-.3.373-.48.53-.478.427-1.09.675-1.73.7-.312.001-.622-.046-.92-.14v1c.037-.563-.193-1.111-.62-1.48-.465-.341-.74-.883-.74-1.46.005-.36.124-.71.34-1l3.66-5c.338-.457.872-.728 1.44-.73h9.08c.67.004 1.302.318 1.71.85l4.44 6.08c.186.227.307.5.35.79 0 .1.11.14.1.26z" transform="translate(0 1)"/>
        <path stroke="#1D1D1B" stroke-linecap="round" stroke-linejoin="round" stroke-width="1.4" d="M17.71 8.64c.179.601.526 1.14 1 1.55.473.452 1.096.715 1.75.74.312 0 .622-.047.92-.14.973-.263 1.684-1.097 1.79-2.1.018-.306-.04-.612-.17-.89L18.38 1l-.46-.68H6.09L1 7.79c-.112.286-.156.594-.13.9.107.999.812 1.831 1.78 2.1.301.093.615.14.93.14.651-.025 1.27-.289 1.74-.74.473-.412.82-.95 1-1.55" transform="translate(0 1)"/>
        <path stroke="#1D1D1B" stroke-linecap="round" stroke-linejoin="round" stroke-width="1.4" d="M17.56 8.25c.233.776.064 1.618-.449 2.245s-1.304.959-2.111.885h0c-1.28 0-2.81-.45-3-3.13 0 0-.3 3.3-2.93 3.13H9c-1.86 0-3.17-1.59-2.58-3.13" transform="translate(0 1)"/>
        <path stroke="#1D1D1B" stroke-linecap="round" stroke-linejoin="round" stroke-width="1.4" d="M21.27 11.2L21.27 20.5 3.19 20.5 3.19 10.93" transform="translate(0 1)"/>
    </g>
</svg>
