<svg height="32" viewBox="0 0 32 32" width="32" xmlns="http://www.w3.org/2000/svg"><g fill="none" fill-rule="evenodd"><path d="m9.24 4.19v26.8102579h-6.45c-.46850931.0077587-.92087399-.1713827-1.25686802-.4979914s-.52787581-.7737181-.53313198-1.2422665v-26.83002845h6.47c.46851125-.00263359.91874744.1816186 1.25097744.5119716.33223.33035299.51902256.77953804.51902256 1.24805685z" fill="#fff" fill-rule="nonzero"/><path d="m19.44 4.19v26.8101138h-6.44c-.4685112.0025482-.9187474-.1817039-1.2509774-.5120569s-.5190302-.7795381-.5190226-1.2480569c.0000304.470267-.1881406.9209877-.5225429 1.2516327-.3344024.330645-.78722046.5137112-1.2574571.5084811h-.21v-26.8101138c0-.97202116.7879788-1.76002845 1.76-1.76002845h6.66c.4694354-.00263122.9206998.18130442 1.2545162.51137006.3338163.33006564.5228391.77922286.5254838 1.24865839z" fill="#fff" fill-rule="nonzero"/><path d="m29.63 4.19v26.8100284h-6.45c-.466781 0-.9144439-.1854564-1.2445079-.5155205-.3300641-.330064-.5154921-.7777269-.5154921-1.2445079.0000076.4685188-.1867926.9177039-.5190226 1.2480569s-.7824662.5146051-1.2509774.5119715h-.21v-26.8100284c0-.97202116.7879788-1.76 1.76-1.76h6.67c.9720212 0 1.76.78797884 1.76 1.76z" fill="#fff" fill-rule="nonzero"/><g stroke="#1d1d1b" stroke-linecap="round" stroke-linejoin="round" stroke-width="1.4"><path d="m10.9 2.47v27.06c0 .4685188-.1867926.9177039-.5190226 1.2480569s-.78246615.5146051-1.2509774.5119715h-6.66c-.46851125.0026336-.91874744-.1816185-1.25097744-.5119715s-.51902256-.7795381-.51902256-1.2480569v-27.06c0-.97754401.79245599-1.77 1.77-1.77h6.66c.46943319 0 .9196396.18648161 1.251579.518421s.518421.78214581.518421 1.251579z"/><path d="m.7 26.2h10.2"/><path d="m.7 5.8h10.2"/><path d="m21.1 2.47v27.06c0 .4685188-.1867926.9177039-.5190226 1.2480569s-.7824662.5146051-1.2509774.5119715h-6.66c-.4685112.0026336-.9187474-.1816185-1.2509774-.5119715s-.5190226-.7795381-.5190226-1.2480569v-27.06c0-.97754401.792456-1.77 1.77-1.77h6.66c.4694332 0 .9196396.18648161 1.251579.518421s.518421.78214581.518421 1.251579z"/><path d="m10.9 26.53h10.2"/><path d="m10.9 21.05h10.2"/><path d="m31.2900284 2.47v27.06c0 .466781-.1854564.9144439-.5155205 1.2445079-.330064.3300641-.7777269.5154921-1.2445079.5154921h-6.67c-.466781 0-.9144439-.185428-1.2445079-.5154921-.3300641-.330064-.5155205-.7777269-.5155205-1.2445079v-27.06c-.0026336-.46851125.1816185-.91874744.5119715-1.25097744s.7795381-.51902256 1.2480569-.51902256h6.67c.4685188 0 .9177039.18679256 1.2480569.51902256s.5146051.78246619.5119715 1.25097744z"/><path d="m21.1 26.2h10.2"/><path d="m21.1 5.8h10.2"/></g></g></svg>