<svg height="32" viewBox="0 0 32 32" width="32" xmlns="http://www.w3.org/2000/svg"><g fill="none" fill-rule="evenodd" transform="translate(0 1)"><path d="m18.7 5.93-7.7-3.48c-1.32848063-.59072191-2.82932824-.66558604-4.21-.21-.69542838.24240676-1.33971431.61202342-1.9 1.09-1.2 1 .15 2.34 1.19 3.53l5.21 6z" fill="#fff" fill-rule="nonzero"/><path d="m29.72 22.45c.0508327.6356775-.0100881 1.2753458-.18 1.89-.1627739.2732207-.3502231.5309633-.56.77-1.046797 1.1896952-2.8547366 1.3188338-4.06.29l-6.52-5.59 7.2-7.3 3.63 8c.2818789.6108075.4480221 1.268599.49 1.94z" fill="#fff" fill-rule="nonzero"/><path d="m26.11 11.92c-1.67 2-3.59 3.79-5.45 5.62-1.8439881 1.6987484-3.7802618 3.2945049-5.8 4.78-2.07 1.46-5.62 2.34-7.21.77s-1.32-3.61.15-5.67c.19612535-.2733257.41346339-.5307877.65-.77l11.25-11.1c1.81-1.79 8.39-5.44 10.12-3.55 1.47 1.58-.34 4.74-1.14 6.22-.7293401 1.31706919-1.5904153 2.5567494-2.57 3.7z" fill="#fff" fill-rule="nonzero"/><path d="m14.4 24-.86 5.6c-.4343079.4631131-1.0375232.7307893-1.6723218.7420914-.6347987.011302-1.2471601-.2347319-1.6976782-.6820914l-2.52-6.57-6.26-2.16c-.48433469-.4640348-.73407173-1.1214309-.68-1.79.33918717-.3715812.79359069-.6181567 1.29-.7l5.6-1h.19c-.11.16-.23.33-.33.51-.06254678.0965518-.11931308.1967276-.17.3-.11192168.19725-.21209609.400938-.3.61-.0584568.1162989-.10858282.2366013-.15.36-.15.34.34 2.55.24 2.91-.44 1.62 5.27 2.44 7.34 1z" fill="#fff" fill-rule="nonzero"/><path d="m20.23 8.67-8.02 7.93"/><g stroke="#1d1d1b" stroke-linecap="round" stroke-linejoin="round" stroke-width="1.4"><path d="m19.34 4.49-7.73-3.49c-.6167176-.275031-1.2765278-.44082945-1.95-.49-.76185505-.05506822-1.52700712.04355138-2.25.29-.69594976.23656847-1.34068759.60305102-1.9 1.08-.57026855.49111011-.92143271 1.18914089-.97585283 1.93976317-.05442011.75062228.1923865 1.49200594.68585283 2.06023683l6.05 6.91"/><path d="m17.94 19.42.44.37 6.52 5.59c.5788795.5092644 1.3367262.7670479 2.1060668.716384.7693405-.0506638 1.4868371-.4056041 1.9939332-.986384.2097769-.2390367.3972261-.4967793.56-.77.2224972-.3463207.4005607-.7192463.53-1.11.2453197-.7161895.3373097-1.4759585.27-2.23-.0493083-.6702356-.2151258-1.3267373-.49-1.94l-3.47-7.51v-.12"/><path d="m26.75 10.47c-1.67 2-3.59 3.79-5.45 5.62l-5.66 5.59c-.2426132.2336842-.5034363.4476929-.78.64-2.07 1.46-5.62 2.34-7.21.77s-.65-5.09.79-7.09c.19569165-.2736632.41305787-.5311586.65-.77l11.25-11.13c1.81-1.79 8.38-5.43 10.12-3.57 1.47 1.58-.34 4.74-1.14 6.21-.7322365 1.32462741-1.5930513 2.57398125-2.57 3.73z"/><path d="m15 22.51-.1.68-.79 5.13c-.0701594.466485-.2832849.8997238-.61 1.24-.4343079.4631131-1.0375232.7307893-1.6723218.7420914-.6347987.011302-1.2471601-.2347319-1.6976782-.6820914l-2.48-6.52-6.26-2.17c-.48433469-.4640348-.73407173-1.1214309-.68-1.79.06860684-1.0748475.86792133-1.9611341 1.93-2.14l5.79-1c-.32555755.4607396-.60364162.95325-.83 1.47l-.08.17c-.09.22-.18.43-.25.65-.07.19-.12.37-.17.55-.44 1.62-.4 3.29.56 4.24 1.58 1.56 5.14.68 7.21-.77z"/><path d="m21.05 6.61-8.02 7.94"/></g></g></svg>