<svg height="32" viewBox="0 0 32 32" width="32" xmlns="http://www.w3.org/2000/svg"><g fill="none" fill-rule="evenodd" transform="translate(4)"><path d="m18.49 7.19v22.45c-.0024001.6042872-.2104854 1.1897475-.59 1.66-.1682207.0314787-.3388688.0482089-.51.05h-13.64c-1.42098786-.0055077-2.57-1.1590015-2.57-2.58v-21.58c.09-3.14 1.19-5.66 4.36-5.66 1.44754694-.01762615 2.84935853.5067156 3.93 1.47.5653981.5574498 1.4257616.68670628 2.13.32 1.3921526-.76656722 3.0817823-.75844203 4.466498.02147875s2.2674552 2.2206447 2.333502 3.80852125z" fill="#fff" fill-rule="nonzero"/><g stroke="#1d1d1b" stroke-linecap="round" stroke-linejoin="round" stroke-width="1.4"><path d="m1.19 6.31c-.00497202.05321745-.00497202.10678255 0 .16z"/><path d="m1.19 6.31c-.00497202.05321745-.00497202.10678255 0 .16v22.3c-.00001067 1.4209985 1.14901214 2.5744923 2.57 2.58h13.62c.1711312-.0017911.3417793-.0185213.51-.05 1.2181609-.2297175 2.1027532-1.2903897 2.11-2.53v-22.46"/><path d="m20 12.57h1.89c1.9329966 0 3.5 1.5670034 3.5 3.5v5.52c0 1.9329966-1.5670034 3.5-3.5 3.5h-1.89z"/><path d="m19.87 6.31h-3v9.9c.0276647 1.3451274-.9570217 2.4975115-2.29 2.68-.7183556.0736284-1.4342466-.1607671-1.9699495-.6449968-.5357029-.4842296-.8409821-1.1728847-.8400505-1.8950032v-7c-.032599-1.66263208-1.3870562-2.99488507-3.05-3h-7.53c.05353963-2.57194523 1.78925077-4.80364567 4.26885887-5.48870949s5.11482963.3390394 6.48114113 2.51870949c1.2547166-1.36360465 3.2086583-1.83456198 4.9468395-1.1923336 1.7381813.64222838 2.9164935 2.27050023 2.9831605 4.1223336z"/></g></g></svg>