<svg height="32" viewBox="0 0 32 32" width="32" xmlns="http://www.w3.org/2000/svg"><g fill="none" fill-rule="evenodd" transform="translate(0 1)"><path d="m14.14 13.61c.3951418-1.0162755.3951418-2.1437245 0-3.16-.4726423-1.51916807-1.8502767-2.57642233-3.44-2.64-1.29529381.03641637-2.47295155.76054248-3.09 1.9v.06c-.09672015.17246159-.26772642.2905325-.46327038.3198641-.19554397.0293316-.39366613-.0333701-.53672962-.1698641-.06691655-.03318814-.12256814-.08536151-.16-.15-.59908623-1.18889062-1.79942911-1.95588287-3.13-2-.93674047.02617097-1.82198541.43446761-2.45 1.13.0983827-.26335302.22583758-.51490871.38-.75.59864563-1.14543541 1.76820266-1.87927512 3.06-1.92 1.31912455.03639584 2.51588141.78197919 3.13 1.95.03029694.06887448.08322132.12532715.15.16.14752288.12830234.3443378.1845961.53739316.15370724s.36248053-.14578102.46260684-.31370724c0 0 0 0 0-.06.62318715-1.14168617 1.8095911-1.86268405 3.11-1.89 1.5811916.07473199 2.9472979 1.1292702 3.42 2.64.628417 1.6356908.2455298 3.4876147-.98 4.74z" fill="#fff" fill-rule="nonzero"/><path d="m26.16 9.2c-.5107281-.14312811-1.0396997-.21051303-1.57-.2v-5.36c.0005696-.42975115-.2145585-.8311079-.5727513-1.06856159-.3581929-.23745369-.8116411-.27931048-1.2072487-.11143841l-1 .28-.2.06-12.43 3.42s-3.18 1.08-3.33.72c.65719113.21750756 1.21893877.65560007 1.59 1.24.03029694.06887448.08322132.12532715.15.16.14752288.12830234.3443378.1845961.53739316.15370724s.36248053-.14578102.46260684-.31370724c0 0 0 0 0-.06.62318715-1.14168617 1.8095911-1.86268405 3.11-1.89 1.5811916.07473199 2.9472979 1.1292702 3.42 2.64.6424134 1.6539982.2505163 3.5311854-1 4.79-.76.8-3.89 3.4-5.45 4.71-.24662528.1992593-.57313295.2697553-.88.19-.15313417-.0190354-.29648667-.085467-.41-.19-1.45-1.19-2.54-1.63-3.25-2.37.28952799.2647236.54182607.5674813.75.9l.11.21-.41-.21v10.55c-.00266182.47912.18580476.9395302.52365917 1.2792616.33785442.3397314.79721348.5307458 1.27634083.5307384h.44c.07597307.0145843.15402693.0145843.23 0 .90026744-.1069359 1.5763288-.8734258 1.57-1.78v-8.17l15.77 4.37.21.07.95-.15c.54 0 .12-4.42.62-4.57v-1.85c1.1678175.0019623 2.3009346-.3969232 3.21-1.13.2532126-.611825.3823784-1.2678514.3800323-1.93.0038069-2.2504035-1.4539684-4.2426964-3.6000323-4.92z" fill="#fff" fill-rule="nonzero"/><g stroke="#1d1d1b" stroke-linecap="round" stroke-linejoin="round" stroke-width="1.4"><path d="m8.61 19.31 15.77 4.37.21.07c.3808748.0885971.781355-.0017692 1.0872782-.2453386s.4837255-.6136191.482726-1.0046614v-20.94c-.0011074-.42954884-.2159485-.83036975-.573047-1.06910412-.3570984-.23873437-.8096022-.2840598-1.2069572-.12089588l-21.28 6.1"/><path d="m31.3100003 12c.0005515 1.5601924-.7144676 3.0344586-1.9400003 4-.9090654.7330768-2.0421825 1.1319623-3.21 1.1300072v-10.2600072c2.8342132.0054448 5.1335272 2.2958294 5.1500003 5.13z"/><path d="m8.61 19v8.43c.01465928.9279745-.68614102 1.7114779-1.61 1.8-.07597307.0145843-.15402693.0145843-.23 0h-.4c-.47912735.0000074-.93848641-.191007-1.27634083-.5307384-.33785441-.3397314-.52632099-.8001416-.52368699-1.2792616v-11.42"/><path d="m14.14 13.61v.05c-.76.8-3.89 3.4-5.45 4.71-.24662528.1992593-.57313295.2697553-.88.19-.15313417-.0190354-.29648667-.085467-.41-.19-1.43-1.19-4.75-4-5.46-4.71-1.21351836-1.2662819-1.60136664-3.1124397-1-4.76.0983827-.26335302.22583758-.51490871.38-.75.58629527-1.12436855 1.72363407-1.85469982 2.99-1.92 1.31912455.03639584 2.51588141.78197919 3.13 1.95.03029694.06887448.08322132.12532715.15.16.14752288.12830234.3443378.1845961.53739316.15370724s.36248053-.14578102.46260684-.31370724c0 0 0 0 0-.06.62318715-1.14168617 1.8095911-1.86268405 3.11-1.89 1.5811916.07473199 2.9472979 1.1292702 3.42 2.64.628417 1.6356908.2455298 3.4876147-.98 4.74z"/></g></g></svg>