<svg xmlns="http://www.w3.org/2000/svg" width="32" height="32" viewBox="0 0 32 32">
    <g fill="none" fill-rule="evenodd">
        <path fill="#FFF" fill-rule="nonzero" d="M26.52 6.11V25c0 1.237-.493 2.423-1.369 3.295-.876.873-2.064 1.36-3.301 1.355L8.61 29.6c-1.28 0-2.509-.51-3.412-1.42-.903-.908-1.406-2.14-1.398-3.42V5.19c.051-.513.208-1.01.46-1.46.566-1.134 1.733-1.842 3-1.82h15.1c2.304.022 4.16 1.896 4.16 4.2z" transform="translate(2 1)"/>
        <path stroke="#1D1D1B" stroke-linecap="round" stroke-linejoin="round" stroke-width="1.4" d="M28.05 4.77v20c-.011 2.652-2.158 4.799-4.81 4.81H8.61c-2.658-.006-4.81-2.162-4.81-4.82V5.19C3.811 2.538 5.958.391 8.61.38h15.05c2.422.005 4.385 1.968 4.39 4.39z" transform="translate(2 1)"/>
        <path fill="#FFF" fill-rule="nonzero" stroke="#1D1D1B" stroke-linecap="round" stroke-linejoin="round" stroke-width="1.4" d="M5 7.81H1.72c-.577.067-1.142-.204-1.451-.695-.31-.492-.31-1.118 0-1.61.31-.491.874-.762 1.451-.695H5c.822.01 1.489.668 1.51 1.49-.002.404-.168.79-.46 1.07-.282.274-.657.43-1.05.44h0zM5 15.81H1.72c-.828 0-1.5-.672-1.5-1.5s.672-1.5 1.5-1.5H5c.405-.008.796.146 1.087.427.291.282.458.668.463 1.073-.003.401-.17.784-.46 1.06-.292.283-.683.441-1.09.44zM5 23.81H1.72c-.828 0-1.5-.672-1.5-1.5s.672-1.5 1.5-1.5H5c.405-.008.796.146 1.087.427.291.282.458.668.463 1.073-.001.402-.167.785-.46 1.06-.29.287-.682.445-1.09.44h0z" transform="translate(2 1)"/>
        <path d="M17.02 16.3L15.53 16.26" transform="translate(2 1)"/>
        <path stroke="#1D1D1B" stroke-linecap="round" stroke-linejoin="round" stroke-width="1.4" d="M16.28 10.64c-1.6 0-2.89 1-2.89 2.18 0 1.18 1.38 1.83 2.44 2.11 1.06.28 2.92.45 3.28 1.85.005.06.005.12 0 .18.22 1.55-1.58 2.4-2.87 2.4M18.77 10.92L16.28 10.64 16.28 8.7M16.28 21.3L16.28 19.36M13.48 19.04L16.28 19.36" transform="translate(2 1)"/>
    </g>
</svg>
