<?xml version="1.0" encoding="UTF-8"?>
<svg width="30px" height="31px" viewBox="0 0 30 31" version="1.1" xmlns="http://www.w3.org/2000/svg" xmlns:xlink="http://www.w3.org/1999/xlink">
    <title>Icon</title>
    <g id="Page-1" stroke="none" stroke-width="1" fill="none" fill-rule="evenodd">
        <g id="Group" transform="translate(-2.000000, 0.000000)">
            <g id="20200406_ICON_ICON-302" transform="translate(2.000000, 1.000000)">
                <path d="M27.36,23.26 C27.4582683,24.8272827 27.0930964,26.3888271 26.31,27.75 C24.08,29.34 20.31,29.13 15.6,29.13 C7.97,29.13 0.85,29.7 0.85,22.06 C0.989757685,16.8640079 3.37997766,11.9850398 7.4,8.69 C8.52592571,7.93197803 9.77931331,7.38319751 11.1,7.07 C11.57,6.96 11.88,6.66 11.75,6.36 C12.700797,6.07363013 13.6870876,5.92215205 14.68,5.91 L10.58,2.45 C10.5284846,2.40844792 10.4815521,2.36151536 10.44,2.31 L16.15,2.31 C17.05,2.31 17.66,2.83 17.66,3.38 L17.66,3.38 C17.648683,3.64424478 17.5204252,3.88976696 17.31,4.05 L15.1,5.92 L14.25,6.64 C14.1644446,6.71513322 14.1329073,6.83459311 14.1702284,6.94216567 C14.2075495,7.04973823 14.3062956,7.12399772 14.42,7.13 C21.68,7.69 27.36,15.89 27.36,23.26 Z" id="Path" fill="#FFFFFF" fill-rule="nonzero"></path>
                <path d="M28.51,22.06 C28.51,25.06 27.72,26.75 26.31,27.75 C24.08,29.34 20.31,29.13 15.6,29.13 C7.97,29.13 0.85,29.7 0.85,22.06 C0.989757685,16.8640079 3.37997766,11.9850398 7.4,8.69 C8.68457437,7.63767978 10.1622015,6.84621512 11.75,6.36 C12.700797,6.07363013 13.6870876,5.92215205 14.68,5.91 L15.1,5.91 C22.59,6.16 28.51,14.53 28.51,22.06 Z" id="Path" stroke="#1D1D1B" stroke-width="1.4" stroke-linecap="round" stroke-linejoin="round"></path>
                <path d="M18.77,2.45 L17.66,3.38 L17.66,3.38 L14.66,5.9 L10.56,2.44 C10.5084846,2.39844792 10.4615521,2.35151536 10.42,2.3 C9.83,1.62 10.52,0.69 11.72,0.69 L17.59,0.69 C18.89,0.7 19.59,1.75 18.77,2.45 Z" id="Path" stroke="#1D1D1B" stroke-width="1.4" stroke-linecap="round" stroke-linejoin="round"></path>
                <line x1="16.94" y1="14.95" x2="12.41" y2="22.34" id="Path" stroke="#1D1D1B" stroke-width="1.4" stroke-linecap="round" stroke-linejoin="round"></line>
                <circle id="Oval" stroke="#1D1D1B" stroke-width="1.4" stroke-linecap="round" stroke-linejoin="round" cx="17.8" cy="21.15" r="1.19"></circle>
                <circle id="Oval" stroke="#1D1D1B" stroke-width="1.4" stroke-linecap="round" stroke-linejoin="round" cx="11.55" cy="15.73" r="1.19"></circle>
            </g>
        </g>
    </g>
</svg>