<?xml version="1.0" encoding="UTF-8"?>
<svg width="32px" height="32px" viewBox="0 0 32 32" version="1.1" xmlns="http://www.w3.org/2000/svg" xmlns:xlink="http://www.w3.org/1999/xlink">
    <title>Icon</title>
    <g id="Page-1" stroke="none" stroke-width="1" fill="none" fill-rule="evenodd">
        <g id="Group" transform="translate(-1.000000, -1.000000)">
            <g id="20200406_ICON_ICON-305" transform="translate(1.000000, 1.000000)">
                <path d="M26.33,18.53 C26.3343953,21.2813389 25.4815495,23.9657061 23.89,26.21 C21.4199793,28.9776914 17.8993637,30.5783011 14.19,30.6200237 L14,30.6200237 C9.02046915,30.6293842 4.45348259,27.8543522 2.16777402,23.4304001 C-0.11793455,19.006448 0.261183703,13.6759285 3.15,9.62 C3.68881366,9.03021799 4.27767921,8.48819401 4.91,8 C7.22626331,6.20884201 10.071977,5.23799284 13,5.23999689 C13.46,5.23999689 14.41,17.78 14.33,17.94 L26.31,17.94 C26.3268176,18.1361913 26.3334931,18.3331202 26.33,18.53 Z" id="Path" fill="#FFFFFF" fill-rule="nonzero"></path>
                <path d="M17.51,14.59 C17.59,14.43 17.57,6.77 17.51,2.01 C24.0293487,2.69874268 29.0707277,8.04167009 29.38,14.59 L17.51,14.59 Z" id="Path" fill="#FFFFFF" fill-rule="nonzero"></path>
                <path d="M24.65,17.94 C25.4494836,17.9396064 26.2024952,18.3156491 26.6825002,18.9549999 C27.1625051,19.5943507 27.3134778,20.4223856 27.09,21.19 C25.3876861,26.791796 20.2247372,30.6234184 14.37,30.63 L14.19,30.63 C9.25058309,30.5808579 4.74792958,27.790187 2.50613058,23.3885292 C0.264331584,18.9868714 0.655049977,13.7039677 3.52,9.68 C3.93546868,9.08206227 4.40043714,8.520086 4.91,8 C6.86681224,6.00411821 9.40428283,4.67763358 12.16,4.21 C12.7157692,4.11554796 13.2848766,4.27143689 13.7149337,4.63592477 C14.1449908,5.00041265 14.3920658,5.53626577 14.39,6.1 C14.39,8.83 14.39,13.53 14.39,15.4 C14.3897395,16.0859554 14.6669334,16.7428534 15.1585246,17.2212602 C15.6501158,17.6996669 16.3143051,17.9589043 17,17.94 L24.65,17.94 Z" id="Path" stroke="#1D1D1B" stroke-width="1.4" stroke-linecap="round" stroke-linejoin="round"></path>
                <path d="M30.71,12.54 C30.7726283,13.0569935 30.6120237,13.5761827 30.268417,13.9675125 C29.9248104,14.3588423 29.4307513,14.5852423 28.91,14.59 L19.91,14.59 C19.2929612,14.59 18.7013396,14.3442056 18.2659666,13.906956 C17.8305936,13.4697064 17.5873404,12.8770331 17.5899784,12.26 C17.5899784,10.34 17.5899784,5.44 17.5899784,2.67 C17.5932744,2.14391793 17.8240342,1.64498926 18.2227958,1.30182422 C18.6215575,0.958659179 19.1493052,0.804833772 19.67,0.88 C25.547428,1.85295065 30.0593183,6.61822612 30.71,12.54 L30.71,12.54 Z" id="Path" stroke="#1D1D1B" stroke-width="1.4" stroke-linecap="round" stroke-linejoin="round"></path>
            </g>
        </g>
    </g>
</svg>