<?xml version="1.0" encoding="UTF-8"?>
<svg width="23px" height="32px" viewBox="0 0 23 32" version="1.1" xmlns="http://www.w3.org/2000/svg" xmlns:xlink="http://www.w3.org/1999/xlink">
    <title>Icon</title>
    <g id="Page-1" stroke="none" stroke-width="1" fill="none" fill-rule="evenodd">
        <g id="Group" transform="translate(-5.000000, 0.000000)">
            <g id="20200406_ICON_ICON-301" transform="translate(5.000000, 1.000000)">
                <path d="M19.74,2.12 L19.74,29.44 L16.64,27.77 C16.3847371,27.6294406 16.0752629,27.6294406 15.82,27.77 L12.73,29.44 C11.7304468,29.9751175 10.5295532,29.9751175 9.53,29.44 L6.43,27.77 C6.17914686,27.640124 5.88085314,27.640124 5.63,27.77 L2.07,29.63 C1.80362565,29.7699554 1.48347576,29.7605109 1.22581487,29.6050964 C0.968153978,29.4496819 0.810459796,29.170903 0.81,28.87 L0.92,1.53 L4,3.21 C4.25526295,3.35055944 4.56473705,3.35055944 4.82,3.21 L7.91,1.54 C8.90818435,0.999452867 10.1118156,0.999452867 11.11,1.54 L14.2,3.21 C14.4552629,3.35055944 14.7647371,3.35055944 15.02,3.21 L18.44,1.36 C18.7090258,1.19967509 19.0439378,1.19826796 19.3143013,1.35632664 C19.5846649,1.51438532 19.747734,1.80691987 19.74,2.12 Z" id="Path" fill="#FFFFFF" fill-rule="nonzero"></path>
                <path d="M21.3200174,1.15 L21.3200174,28.86 C21.3219262,29.1615677 21.1639189,29.4415779 20.9047786,29.5958281 C20.6456384,29.7500782 20.3241684,29.7554712 20.06,29.61 L19.74,29.44 L16.64,27.77 C16.3847371,27.6294406 16.0752629,27.6294406 15.82,27.77 L12.73,29.44 C11.7304468,29.9751175 10.5295532,29.9751175 9.53,29.44 L6.43,27.77 C6.17914686,27.640124 5.88085314,27.640124 5.63,27.77 L2.07,29.63 C1.80362565,29.7699554 1.48347576,29.7605109 1.22581487,29.6050964 C0.968153978,29.4496819 0.810459796,29.170903 0.81,28.87 L0.92,1.53 L0.92,1.14 C0.922095359,0.837908779 1.08254319,0.559069446 1.34266856,0.405452102 C1.60279393,0.251834757 1.92444666,0.245969035 2.19,0.39 L5.62,2.24 C5.87526295,2.38055944 6.18473705,2.38055944 6.44,2.24 L9.53,0.57 C10.5281844,0.0294528667 11.7318156,0.0294528667 12.73,0.57 L15.82,2.24 C16.0752629,2.38055944 16.3847371,2.38055944 16.64,2.24 L20.06,0.39 C20.3263744,0.25004462 20.6465242,0.259489094 20.9041851,0.4149036 C21.161846,0.570318105 21.3195402,0.849097039 21.3200174,1.15 L21.3200174,1.15 Z" id="Path" stroke="#1D1D1B" stroke-width="1.4" stroke-linecap="round" stroke-linejoin="round"></path>
                <line x1="6.98" y1="9.48" x2="14.99" y2="9.48" id="Path" stroke="#1D1D1B" stroke-width="1.4" stroke-linecap="round" stroke-linejoin="round"></line>
                <line x1="6.98" y1="15" x2="14.99" y2="15" id="Path" stroke="#1D1D1B" stroke-width="1.4" stroke-linecap="round" stroke-linejoin="round"></line>
                <line x1="6.98" y1="20.51" x2="14.99" y2="20.51" id="Path" stroke="#1D1D1B" stroke-width="1.4" stroke-linecap="round" stroke-linejoin="round"></line>
            </g>
        </g>
    </g>
</svg>