<?xml version="1.0" encoding="UTF-8"?>
<svg width="33px" height="26px" viewBox="0 0 33 26" version="1.1" xmlns="http://www.w3.org/2000/svg" xmlns:xlink="http://www.w3.org/1999/xlink">
    <title>Icon</title>
    <g id="Page-1" stroke="none" stroke-width="1" fill="none" fill-rule="evenodd">
        <g id="Group" transform="translate(1.000000, -3.000000)">
            <g id="20200406_ICON_ICON-303" transform="translate(0.000000, 4.000000)">
                <path d="M29.55,4.64 L29.55,21.21 C29.3630696,21.2009737 29.1781441,21.1673509 29,21.11 C19.9,17.92 10.79,27.17 1.69,22.73 C1.08612521,22.4436171 0.698096375,21.8382921 0.69,21.17 L0.69,4.6 C0.881103771,4.60004213 1.07069276,4.63389731 1.25,4.7 C10.35,7.89 19.45,-1.36 28.56,3.09 C29.1617196,3.37203616 29.5471374,3.97546808 29.55,4.64 L29.55,4.64 Z" id="Path" fill="#FFFFFF" fill-rule="nonzero"></path>
                <path d="M31.2900429,2.82 L31.2900429,19.54 C31.293279,19.9962107 31.1086533,20.4336622 30.7795024,20.7495714 C30.4503515,21.0654806 30.0056918,21.2319984 29.55,21.21 C29.3630696,21.2009737 29.1781441,21.1673509 29,21.11 C19.9,17.92 10.79,27.17 1.69,22.73 C1.08612521,22.4436171 0.698096375,21.8382921 0.69,21.17 L0.69,4.45 C0.695491454,3.89293346 0.973573706,3.37390623 1.43432336,3.06075603 C1.89507302,2.74760583 2.48001621,2.68007464 3,2.88 C12.1,6.07 21.21,-3.18 30.31,1.26 C30.9077351,1.55022426 31.2879946,2.15553529 31.2900429,2.82 L31.2900429,2.82 Z" id="Path" stroke="#1D1D1B" stroke-width="1.4" stroke-linecap="round" stroke-linejoin="round"></path>
            </g>
        </g>
    </g>
</svg>