<svg xmlns="http://www.w3.org/2000/svg" width="32" height="33" viewBox="0 0 32 33">
    <g fill="none" fill-rule="evenodd" transform="translate(1 7.5)">
        <path fill="#F6C4C6" fill-rule="nonzero" d="M11.68 11.62c-.059.312-.174.61-.34.88.128.393.162.811.1 1.22-.16.161-.35.29-.56.38l-7.4 3C2.11 17.66.7 16.43.7 14.68V9.46c0-.395.078-.786.23-1.15-.138-.574-.089-1.176.14-1.72l1.71-3.46c.249-.684.861-1.17 1.584-1.256.723-.087 1.433.24 1.836.846l5.09 7.1c.184.253.31.543.37.85.076.311.083.636.02.95z"/>
        <path stroke="#1D1D1B" stroke-linecap="round" stroke-linejoin="round" stroke-width="1.4" d="M11.44 13.72c-.16.161-.35.29-.56.38l-7.4 3C2.11 17.66.7 16.43.7 14.68V9.46c0-.395.078-.786.23-1.15.158-.516.518-.947.998-1.193.48-.247 1.04-.29 1.552-.117l7.4 3c.319.13.59.353.78.64.132.177.23.377.29.59.307.86.11 1.82-.51 2.49z"/>
        <path stroke="#1D1D1B" stroke-linecap="round" stroke-linejoin="round" stroke-width="1.4" d="M12 11.26c-.06-.213-.158-.413-.29-.59-.19-.287-.461-.51-.78-.64l-7.4-3c-.514-.19-1.083-.16-1.574.082-.492.242-.863.675-1.026 1.198-.138-.574-.089-1.176.14-1.72.022-.068.05-.135.08-.2L3.38 1.9c.249-.684.861-1.17 1.584-1.256.723-.087 1.433.24 1.836.846l5.09 7.09c.563.793.606 1.843.11 2.68z"/>
        <path fill="#F6C4C6" fill-rule="nonzero" d="M19.68 11.62c.059.312.174.61.34.88-.128.393-.162.811-.1 1.22.163.163.357.293.57.38l7.39 3c1.37.55 2.78-.68 2.78-2.43V9.46c.004-.395-.074-.787-.23-1.15.143-.573.094-1.177-.14-1.72l-1.71-3.46c-.249-.684-.861-1.17-1.584-1.256-.723-.087-1.433.24-1.836.846l-5.09 7.1c-.184.253-.31.543-.37.85-.076.311-.083.636-.02.95z"/>
        <path stroke="#1D1D1B" stroke-linecap="round" stroke-linejoin="round" stroke-width="1.4" d="M19.92 13.72c.163.163.357.293.57.38l7.39 3c1.37.55 2.78-.68 2.78-2.43V9.46c.004-.395-.074-.787-.23-1.15-.158-.516-.518-.947-.998-1.193-.48-.247-1.04-.29-1.552-.117l-7.39 3c-.323.126-.6.35-.79.64-.132.177-.23.377-.29.59-.307.86-.11 1.82.51 2.49z"/>
        <path stroke="#1D1D1B" stroke-linecap="round" stroke-linejoin="round" stroke-width="1.4" d="M19.41 11.26c.06-.213.158-.413.29-.59.19-.29.467-.514.79-.64l7.39-3c.51-.173 1.066-.134 1.546.11.48.242.842.667 1.004 1.18.143-.573.094-1.177-.14-1.72-.022-.068-.05-.135-.08-.2L28 1.9c-.249-.684-.861-1.17-1.584-1.256-.723-.087-1.433.24-1.836.846l-5.09 7.09c-.554.799-.585 1.85-.08 2.68h0z"/>
        <rect width="7.32" height="9.24" x="11.72" y="6.82" fill="#F6C4C6" fill-rule="nonzero" rx="3.37"/>
        <rect width="7.32" height="9.24" x="11.72" y="6.89" stroke="#1D1D1B" stroke-linecap="round" stroke-linejoin="round" stroke-width="1.4" rx="3.37"/>
    </g>
</svg>
