<svg xmlns="http://www.w3.org/2000/svg" width="32" height="32" viewBox="0 0 32 32">
    <g fill="none" fill-rule="evenodd">
        <path fill="#FFF" fill-rule="nonzero" d="M11.73 18.17c1.27 1.856 1.87-.118 2.27 5.205-.094.17-.228.314-.39.422l-4 2.613C8.25 27.294 5.3 25.29 3 21.93c-1.102-1.574-1.858-3.357-2.22-5.235.094-.171.228-.32.39-.432l2.65-1.748L5 13.75h.12c.042-.04.094-.067.15-.079 1.42-.726 4.24 1.267 6.46 4.499zM26.48 17.296L26.6 17.197 26.6 17.197z" transform="translate(0 1.964)"/>
        <path fill="#FFF" fill-rule="nonzero" d="M27.09 14.948l-.37.236c-1.15.756-3.48-.59-5.56-3.074l-8.2 5.402-.96-1.326c.62.903 1.149 1.864 1.58 2.868l-1.51.982-1.07-1.13-.79-1.709-1.21.099v-1.267c-.27-.501 9.44-5.608 9.23-6.08l.93-.619c-.696-1.177-1.183-2.463-1.44-3.8.097-.168.23-.312.39-.423l.1-.059c.216-.108.458-.155.7-.137h.33c.094.014.188.033.28.059.113.027.223.063.33.108l.24.098.29.137c.325.166.636.357.93.57.125.089.245.184.36.285.278.213.542.442.79.687.137.12.268.248.39.383.207.203.407.42.6.649.11.117.22.245.32.373.34.412.67.854 1 1.316.19.285.37.57.54.845.17.275.33.56.48.834.15.275.15.295.22.442.068.12.128.245.18.374.07.137.13.275.19.402.06.128.16.393.23.59.07.196.14.383.19.57.038.095.068.193.09.294 0 .157.08.304.11.442.03.137.06.285.08.422.02.138 0 .108.01.157z" transform="translate(0 1.964)"/>
        <path fill="#FFF" fill-rule="nonzero" d="M31 12.198c-.097.164-.23.305-.39.413l-3.54 2.327c.005-.049.005-.098 0-.147 0-.137-.05-.275-.08-.412-.03-.138-.06-.285-.11-.442-.022-.1-.052-.2-.09-.295-.05-.187-.12-.373-.19-.57-.07-.196-.15-.393-.23-.589-.08-.196-.12-.265-.19-.403-.052-.128-.112-.252-.18-.373-.07-.147-.14-.295-.22-.442-.08-.147-.31-.56-.48-.835-.17-.275-.35-.56-.54-.844-.32-.462-.65-.904-1-1.316-.1-.128-.21-.256-.32-.374-.11-.117-.39-.442-.6-.648-.12-.131-.246-.256-.38-.373-.248-.245-.512-.475-.79-.688-.115-.104-.235-.202-.36-.294-.294-.214-.605-.404-.93-.57-.093-.054-.19-.1-.29-.137l-.24-.098c-.107-.045-.217-.081-.33-.109-.092-.028-.185-.051-.28-.068h-.33c-.23-.005-.458.049-.66.157-.037.012-.071.032-.1.059l2.65-1.768 1.3-.855c.9-.54 2.33.02 3.9 1.366 1.038.922 1.955 1.968 2.73 3.113 1.112 1.567 1.885 3.342 2.27 5.215z" transform="translate(0 1.964)"/>
        <path stroke="#1D1D1B" stroke-linecap="round" stroke-linejoin="round" stroke-width="1.4" d="M27.09 14.84s0 0 0 0h0c-.09.15-.208.28-.35.383 0 0 0 0 0 0-1.15.756-3.48-.59-5.56-3.074l1.69-1.11c.792-.523 1.003-1.578.47-2.357-.536-.768-1.602-.97-2.39-.452L19.2 9.41c-.696-1.178-1.183-2.463-1.44-3.801-.2-1.188 0-2.102.59-2.504.59-.403 1.46-.236 2.45.333.528.308 1.024.667 1.48 1.071.134.11.26.228.38.354.876.823 1.66 1.735 2.34 2.72.19.285.38.57.55.855.17.284.32.55.47.825.22.422.42.825.59 1.227.09.197.16.393.23.58.07.186.07.196.1.294.03.099.07.187.1.275h0c.417 1.025.435 2.165.05 3.202h0z" transform="translate(0 1.964)"/>
        <path stroke="#1D1D1B" stroke-linecap="round" stroke-linejoin="round" stroke-width="1.4" d="M31 12.277c-.097.164-.23.305-.39.412l-3.54 2.328h0l-.37.236c.142-.104.26-.234.35-.383h0s0 0 0 0c.392-1.046.375-2.198-.05-3.232h0c0-.088-.06-.186-.1-.275-.094-.297-.204-.588-.33-.874-.17-.402-.37-.805-.59-1.227-.15-.275-.3-.55-.47-.825-.17-.275-.36-.58-.51-.855-.683-.968-1.467-1.864-2.34-2.671-.12-.126-.246-.244-.38-.354-.454-.421-.95-.796-1.48-1.12-1-.57-1.87-.716-2.45-.333L22.3.51c1.36-.904 4.31 1.11 6.62 4.468C31 7.946 31.78 10.99 31 12.277zM9.7 26.518c-1.36.884-4.31-1.12-6.61-4.479-1.13-1.558-1.917-3.331-2.31-5.205-.19-1.188 0-2.112.59-2.505.59-.392 1.46-.235 2.45.325 1.675 1.068 3.1 2.474 4.18 4.125 2.28 3.368 3.05 6.816 1.7 7.739z" transform="translate(0 1.964)"/>
        <path stroke="#1D1D1B" stroke-linecap="round" stroke-linejoin="round" stroke-width="1.4" d="M14 23.454c-.094.169-.228.313-.39.422L9.7 26.518c1.35-.894.58-4.341-1.71-7.71-1.073-1.66-2.495-3.077-4.17-4.154-1-.56-1.87-.708-2.45-.325l4-2.602c1.3-.923 4.24 1.04 6.54 4.41h0l.07.108c.62.903 1.149 1.864 1.58 2.867.79 1.876.98 3.477.44 4.342z" transform="translate(0 1.964)"/>
        <path stroke="#1D1D1B" stroke-linecap="round" stroke-linejoin="round" stroke-width="1.4" d="M23.54 10.028c-.092.439-.354.826-.73 1.08l-1.69 1.11-8.2 5.402-.92-1.356-.07-.108h0L11 14.811l7.26-4.783.93-.62L20.88 8.3c.788-.518 1.854-.317 2.39.452.254.375.351.833.27 1.277h0z" transform="translate(0 1.964)"/>
    </g>
</svg>
