<svg xmlns="http://www.w3.org/2000/svg" width="32" height="32" viewBox="0 0 32 32">
    <g fill="none" fill-rule="evenodd">
        <g>
            <g>
                <g>
                    <g>
                        <g>
                            <g transform="translate(-919 -516) translate(357 311) translate(498 181) translate(40) translate(24 24) translate(0 3)">
                                <path fill="#FFF" fill-rule="nonzero" d="M28.68 2H.79v20.87c.033 1.565 1.325 2.808 2.89 2.78h24.65c.359.004.715-.06 1.05-.19.113-.294.17-.605.17-.92V2.88c.005-.233-.084-.459-.248-.625-.164-.166-.389-.258-.622-.255zm-8.39 18.61c-2.834 2.236-6.893 1.998-9.445-.555-2.553-2.552-2.791-6.611-.555-9.445 2.828-2.29 6.929-2.075 9.502.498 2.573 2.573 2.788 6.674.498 9.502z"/>
                                <path stroke="#1D1D1B" stroke-linecap="round" stroke-linejoin="round" stroke-width="1.4" d="M31.22.35v22.52c-.01 1.116-.687 2.117-1.72 2.54l-.12.05c-.335.13-.691.194-1.05.19H3.68c-1.565.028-2.857-1.215-2.89-2.78V.35h30.43zM1.05 4.65L31.21 4.65"/>
                                <circle cx="2.97" cy="2.52" r="1" stroke="#1D1D1B" stroke-linecap="round" stroke-linejoin="round" stroke-width="1.4"/>
                                <circle cx="5.06" cy="2.52" r="1" stroke="#1D1D1B" stroke-linecap="round" stroke-linejoin="round" stroke-width="1.4"/>
                                <circle cx="7.15" cy="2.52" r="1" stroke="#1D1D1B" stroke-linecap="round" stroke-linejoin="round" stroke-width="1.4"/>
                                <circle cx="16.13" cy="15.01" r="7.11" stroke="#1D1D1B" stroke-linecap="round" stroke-linejoin="round" stroke-width="1.4"/>
                                <ellipse cx="16.14" cy="15.01" stroke="#1D1D1B" stroke-linecap="round" stroke-linejoin="round" stroke-width="1.4" rx="3.88" ry="7.11"/>
                                <path stroke="#1D1D1B" stroke-linecap="round" stroke-linejoin="round" stroke-width="1.4" d="M9.02 15.01L23.24 15.01"/>
                            </g>
                        </g>
                    </g>
                </g>
            </g>
        </g>
    </g>
</svg>
