<svg xmlns="http://www.w3.org/2000/svg" width="32" height="32" viewBox="0 0 32 32">
    <g fill="none" fill-rule="evenodd">
        <path fill="#FFF" fill-rule="nonzero" d="M20.48 15.15c2.313 1.067 5.004.92 7.187-.394 2.183-1.313 3.573-3.623 3.713-6.166V6.44l-4.92 5c-.141.147-.336.23-.54.23-.204 0-.399-.083-.54-.23l-4.33-4.68 4.33-4.21c-2.193-.454-4.475.068-6.251 1.432-1.776 1.363-2.871 3.432-2.999 5.668-.05.725.01 1.453.18 2.16.09.43 1.13-.34 1.26.82-.678-.042-1.357.05-2 .27l-8-8.16c-.215-.212-.474-.373-.76-.47L2.52 2.85l-.58-.19.16.62 1.11 4.48 9 9.13c.172.17.268.403.268.645s-.096.474-.268.645L1.38 28.89c-.293.313-.502.695-.61 1.11.134.265.314.506.53.71 1.07 1.002 2.75.953 3.76-.11l10.45-10.37 8.71 8.84 1.67 1.69c.05.06.111.111.18.15l.15-.14L29.11 28c.179-.175.28-.415.28-.665 0-.25-.101-.49-.28-.665L26.51 24l-6.11-6.17c-.684-.696-.71-1.803-.06-2.53l.14-.15z"/>
        <path stroke="#1D1D1B" stroke-linecap="round" stroke-linejoin="round" stroke-width="1.4" d="M11.24 16.12L2.57 7.36M20.79 15.92l8.26 8.36L30.76 26c.058.056.109.12.15.19.582.746.5 1.812-.19 2.46l-2.28 2.19c-.743.732-1.937.732-2.68 0l-2-2.05-7.72-8M7.57 2.56L16.62 11.71M2.57 7.36L1.3 2.82.7.7 2.33 1.14 2.96 1.32 7.57 2.56M23.02 27.66L27.7 22.89M31.27 8.86c-.14 2.543-1.53 4.853-3.713 6.166-2.183 1.314-4.874 1.461-7.187.394-.774-.348-1.481-.829-2.09-1.42-.098-.088-.192-.182-.28-.28-.092-.088-.179-.182-.26-.28l-.31-.38-.18-.25c-.11-.15-.22-.32-.32-.49-.182-.32-.34-.655-.47-1-.203-.449-.358-.918-.46-1.4-.58-2.838.483-5.76 2.752-7.562C21.02.557 24.107.183 26.74 1.39l-1.47 1.43L20.94 7 22 8.1l2.66 2.74 5.9-5.73c.546 1.171.79 2.46.71 3.75h0z"/>
        <path stroke="#1D1D1B" stroke-linecap="round" stroke-linejoin="round" stroke-width="1.4" d="M20.37 15.42l-1.18 1.17h0L5.29 30.3c-.48.515-1.148.816-1.852.837-.704.02-1.388-.241-1.898-.727-.532-.5-.832-1.2-.83-1.93 0-.676.257-1.327.72-1.82l14.76-14.58.4-.39c.1.224.213.44.34.65.1.17.21.34.32.49l.18.25.31.38c.081.098.168.192.26.28.088.098.182.192.28.28.61.584 1.318 1.058 2.09 1.4h0zM7.95 3.53L6.08 3.77 5.76 5.63 3.88 5.88 3.56 7.74"/>
    </g>
</svg>
