<svg xmlns="http://www.w3.org/2000/svg" width="32" height="33" viewBox="0 0 32 33">
    <g fill="none" fill-rule="evenodd" opacity=".75">
        <path fill="#D5F3E8" fill-rule="nonzero" d="M26.91 18.92l-.26.24c-3.293 2.864-7.998 3.435-11.88 1.44L6.32 28c-.757.654-1.743.98-2.74.908-.999-.074-1.927-.54-2.58-1.298-1.07-1.216-1.224-2.987-.38-4.37l8-6.93-.07-.18 1.19-1c-1.409-3.446-.887-7.38 1.37-10.34l.09-.12c2.725-2.56 6.592-3.504 10.19-2.49.403.101.744.37.935.74.192.369.215.802.065 1.19-.082.23-.224.433-.41.59l-3.2 2.8-.51.44c-.545.471-.88 1.14-.93 1.859-.05.719.187 1.428.66 1.971L19.06 13c.998 1.13 2.72 1.246 3.86.26L26.63 10c.407-.355.975-.463 1.484-.28.508.183.878.627.966 1.16.404 2.864-.38 5.768-2.17 8.04z" transform="translate(1 2.5)"/>
        <path stroke="#1D1D1B" stroke-linecap="round" stroke-linejoin="round" stroke-width="1.4" d="M26.91 18.92l-.26.24c-3.293 2.864-7.998 3.435-11.88 1.44L6.32 28c-.757.654-1.743.98-2.74.908-.999-.074-1.927-.54-2.58-1.298-1.07-1.216-1.224-2.987-.38-4.37.198-.331.448-.628.74-.88l7.14-6.23 1.19-1c-1.394-3.455-.854-7.39 1.42-10.34l.09-.12C13.874 1.269 18.338-.18 22.5 1c.522.147.92.568 1.037 1.097.117.53-.066 1.08-.477 1.433l-.71.62-3 2.62c-.248.218-.454.479-.61.77-.534.995-.39 2.217.36 3.06l1.08 1.23c1 1.125 2.718 1.24 3.86.26l3.71-3.24c.404-.356.97-.465 1.477-.285.507.181.876.624.963 1.155.474 3.418-.75 6.853-3.28 9.2z" transform="translate(1 2.5)"/>
    </g>
</svg>
