<svg height="32" viewBox="0 0 32 32" width="32" xmlns="http://www.w3.org/2000/svg"><g fill="none" fill-rule="evenodd" transform="translate(1 1)"><path d="m28.4400033 3.56v9.11c-.0006028.1585687-.0971512.3009882-.2442278.3602578-.1470765.0592697-.3153968.0235884-.4257755-.0902578l-1.06-1.06c-.1555374-.1524572-.4044626-.1524572-.56 0l-10.54 10.54c-.9546273.9550659-2.249643 1.4916532-3.6 1.4916532s-2.64537272-.5365873-3.6-1.4916532c-.95506586-.9546273-1.49165316-2.249643-1.49165316-3.6s.5365873-2.6453727 1.49165316-3.6l8-8c.0220792-.0189493.0392358-.04296851.05-.07l2.52-2.52c.0757611-.07345511.1185226-.1744756.1185226-.28s-.0427615-.20654489-.1185226-.28l-1-1c-.1152234-.11163779-.1503244-.28244807-.0884618-.43047656.0618627-.1480285.2080659-.24306983.3684618-.23961938h9.1c.6092136.04220921 1.0814539.54943021 1.0800033 1.16009594z" fill="#fff" fill-rule="nonzero"/><g stroke="#1d1d1b" stroke-linecap="round" stroke-linejoin="round" stroke-width="1.4"><path d="m26.43 11.6-10.82 10.82c-1.9913888 1.990015-5.2186112 1.990015-7.21 0-1.99001502-1.9913888-1.99001502-5.2186112 0-7.21l10.82-10.82z"/><path d="m30 2.63v11.15c-.0016999.2360237-.1439023.4483218-.3615175.5397202-.2176153.0913984-.4687614.0443066-.6384825-.1197202l-12.37-12.39c-.1548461-.17266119-.1963162-.41910237-.1065073-.63293306.0898089-.21383068.2948118-.35675324.5265073-.36706694h11.15c.9928242.02153206 1.7894394.82699851 1.8 1.82z"/><path d="m.41 21.83 3.63-1.46"/><path d="m11 27.5-2.2 3.23"/><path d="m6.41 24.58-4.75 4.74"/><path d="m11.11 12.52-.67 11.14"/><path d="m18.53 5.08-.88 14.61"/></g></g></svg>