<svg xmlns="http://www.w3.org/2000/svg" width="32" height="32" viewBox="0 0 32 32">
    <g fill="none" fill-rule="evenodd">
        <path fill="#FFF" fill-rule="nonzero" d="M30.61 10.705v.727c0 1.392-.342 2.764-1 3.997-1.585 1.664-3.8 2.61-6.12 2.613l.74 1.532c-.65.167.64 2.102-.06 2.102h-1.1l-5.66-3.634h-7.6c-2.25-.016-4.4-.908-5.979-2.481-1.579-1.573-2.457-3.698-2.441-5.907v-.716C1.384 7.534 1.73 6.15 2.4 4.91c1.587-1.66 3.802-2.598 6.12-2.593h13.66c4.685.032 8.458 3.786 8.43 8.387z" transform="translate(0 4.91)"/>
        <path stroke="#1D1D1B" stroke-linecap="round" stroke-linejoin="round" stroke-width="1.4" d="M22.83.54H9.16C6.064.546 3.224 2.226 1.77 4.91h0C1.105 6.146.76 7.522.77 8.919v.727c-.016 2.209.862 4.333 2.441 5.906 1.58 1.573 3.73 2.466 5.979 2.481h7.6l5.67 3.634.22.138c.352.131.75.057 1.029-.192.278-.248.391-.63.291-.987l-.47-.982-.74-1.542c2.36.013 4.615-.953 6.21-2.662h0c1.48-1.567 2.302-3.627 2.3-5.765v-.736c.016-2.219-.869-4.352-2.458-5.928C27.252 1.434 25.089.545 22.83.54z" transform="translate(0 4.91)"/>
        <path stroke="#1D1D1B" stroke-linecap="round" stroke-linejoin="round" stroke-width="1.4" d="M12.16 9.654L14.8 12.837 21.1 6.325" transform="translate(0 4.91)"/>
    </g>
</svg>
