<svg xmlns="http://www.w3.org/2000/svg" width="33" height="32" viewBox="0 0 33 32">
    <g fill="none">
        <path fill="red" d="M22.526 2.52C22.261 1.535 21.484.758 20.5.493 18.7 0 11.5 0 11.5 0S4.302 0 2.502.474C1.535.739.739 1.534.474 2.52 0 4.32 0 8.052 0 8.052s0 3.751.474 5.532c.265.985 1.042 1.762 2.027 2.027 1.819.493 8.999.493 8.999.493s7.2 0 9-.474c.984-.265 1.761-1.042 2.026-2.027C23 11.803 23 8.07 23 8.07s.019-3.751-.474-5.551z" transform="translate(5.5 8)"/>
        <path fill="#FFF" d="M9.208 11.5L15.194 8.052 9.208 4.604z" transform="translate(5.5 8)"/>
    </g>
</svg>
