<?xml version="1.0" encoding="UTF-8"?>
<svg width="23px" height="30px" viewBox="0 0 23 30" version="1.1" xmlns="http://www.w3.org/2000/svg" xmlns:xlink="http://www.w3.org/1999/xlink">
    <title>Icon 4</title>
    <g id="incfile-vs-legalzoom" stroke="none" stroke-width="1" fill="none" fill-rule="evenodd">
        <g id="Group" transform="translate(-4.000000, -1.000000)">
            <g id="IKONA" transform="translate(5.000000, 1.000000)">
                <path d="M17.27,2.37 L2.2,2.37 C1.75,2.37 1.32,2.46 0.94,2.63 C0.78,3.01 0.69,3.41 0.69,3.84 L0.69,26.22 C0.69,27.92 2.07,29.3 3.77,29.3 L17.87,29.3 C18.22,29.3 18.55,29.24 18.86,29.13 C19.28,28.52 19.52,27.77 19.52,26.97 L19.52,4.61 C19.52,3.37 18.51,2.37 17.27,2.37 Z M14.01,22.59 C13.63,23.05 13.16,23.44 12.62,23.72 C11.97,24.08 11.22,24.28 10.43,24.28 C7.87,24.28 5.8,22.21 5.8,19.65 C5.8,19.12 5.88,18.61 6.05,18.13 C6.43,17.66 6.9,17.28 7.44,16.99 C8.1,16.63 8.85,16.43 9.64,16.43 C12.19,16.43 14.27,18.5 14.27,21.06 C14.27,21.6 14.18,22.1 14.01,22.59 Z" id="Shape" fill="#E0F1FA" fill-rule="nonzero"></path>
                <path d="M21.09,3.84 L21.09,26.07 C21.09,27.5 20.16,28.72 18.87,29.13 C18.56,29.24 18.22,29.29 17.87,29.29 L3.77,29.29 C2.07,29.29 0.69,27.91 0.69,26.21 L0.69,3.84 C0.69,3.41 0.78,3 0.94,2.63 C1.41,1.53 2.5,0.76 3.77,0.76 L18.01,0.76 C19.71,0.77 21.09,2.14 21.09,3.84 Z" id="Path" stroke="#1D1D1B" stroke-width="1.4" stroke-linecap="round" stroke-linejoin="round"></path>
                <path d="M15.05,19.66 C15.05,20.62 14.76,21.51 14.26,22.25 C14.18,22.37 14.09,22.48 14.01,22.59 C13.63,23.05 13.16,23.44 12.63,23.73 C11.98,24.09 11.23,24.29 10.43,24.29 C7.87,24.29 5.8,22.22 5.8,19.66 C5.8,19.13 5.89,18.62 6.06,18.14 C6.09,18.05 6.12,17.96 6.16,17.88 L6.17,17.88 C6.87,16.21 8.52,15.03 10.44,15.03 C12.98,15.03 15.05,17.1 15.05,19.66 Z" id="Path" stroke="#1D1D1B" stroke-width="1.4" stroke-linecap="round" stroke-linejoin="round"></path>
                <line x1="13.92" y1="23.08" x2="17.27" y2="26.43" id="Path" stroke="#1D1D1B" stroke-width="1.4" stroke-linecap="round" stroke-linejoin="round"></line>
                <line x1="4.48" y1="6.25" x2="17.42" y2="6.25" id="Path" stroke="#1D1D1B" stroke-width="1.4" stroke-linecap="round" stroke-linejoin="round"></line>
                <line x1="4.48" y1="10.54" x2="17.42" y2="10.54" id="Path" stroke="#1D1D1B" stroke-width="1.4" stroke-linecap="round" stroke-linejoin="round"></line>
            </g>
        </g>
    </g>
</svg>