<?xml version="1.0" encoding="UTF-8"?>
<svg width="23px" height="33px" viewBox="0 0 23 33" version="1.1" xmlns="http://www.w3.org/2000/svg" xmlns:xlink="http://www.w3.org/1999/xlink">
    <title>Icon 3</title>
    <g id="incfile-vs-legalzoom" stroke="none" stroke-width="1" fill="none" fill-rule="evenodd">
        <g id="Group" transform="translate(-5.000000, 0.500000)">
            <g id="20200406_ICON_ICON-211" transform="translate(5.000000, 0.000000)">
                <path d="M20.89,11.36 C20.4187034,7.26837833 17.6241534,3.81821313 13.719628,2.50742346 C9.81510257,1.1966338 5.50477061,2.26161645 2.66,5.24 C0.0120847402,9.03100159 0.113092434,14.0975475 2.91,17.78 C4.44125204,19.689415 5.29587902,22.0528278 5.34,24.5 L5.34,24.85 C5.33732576,25.0612483 5.41937559,25.2647665 5.56782017,25.4150901 C5.71626475,25.5654137 5.9187348,25.6500169 6.13,25.65 L6.33,25.65 L6.33,26.65 C6.33549426,27.3971991 6.94278072,28.0000202 7.69,28 C7.31732032,28.2640211 7.06819668,28.6683957 7,29.12 L7,29.12 C7,30.3129351 7.96706494,31.28 9.16,31.28 L13.53,31.28 C14.7229351,31.28 15.69,30.3129351 15.69,29.12 L15.69,29.12 C15.6218033,28.6683957 15.3726797,28.2640211 15,28 C15.3624337,28.0000098 15.7098792,27.8553526 15.9652181,27.5981362 C16.220557,27.3409198 16.362665,26.9924239 16.36,26.63 L16.36,25.63 L16.31,25.63 C16.632961,25.6310103 16.9248536,25.4377301 17.05,25.14 C17.0544757,25.1135211 17.0544757,25.0864789 17.05,25.06 L17,24.24 C17,21.78 16.95,21.24 18.51,19.3 C20.3492075,17.0866471 21.2084478,14.220106 20.89,11.36 L20.89,11.36 Z" id="Path" fill="#F9F2D7" fill-rule="nonzero"></path>
                <path d="M19.56,18.07 C17.9951588,19.9603905 17.1361325,22.3359693 17.13,24.79 L17.13,24.84 C17.1444451,24.9193479 17.1444451,25.0006521 17.13,25.08 C17.1344757,25.1064789 17.1344757,25.1335211 17.13,25.16 C17.0048536,25.4577301 16.712961,25.6510103 16.39,25.6500039 L6.13,25.6500039 C5.9187348,25.6500039 5.71626475,25.5654137 5.56782017,25.4150901 C5.41937559,25.2647665 5.33732576,25.0612483 5.34,24.85 L5.34,24.5 C5.29587902,22.0528278 4.44125204,19.689415 2.91,17.78 C-0.45748188,13.371098 0.136032663,7.11307331 4.27230571,3.41583164 C8.40857875,-0.281410022 14.6937318,-0.171938887 18.6987423,3.66710291 C22.7037527,7.50614471 23.0789761,13.7810424 19.56,18.07 L19.56,18.07 Z" id="Path" stroke="#1D1D1B" stroke-width="1.4"></path>
                <polyline id="Path" stroke="#1D1D1B" stroke-width="1.4" stroke-linecap="round" stroke-linejoin="round" points="7.33 13.37 10.49 16.56 16.78 9.81"></polyline>
                <path d="M7.26,28.42 C6.70258637,27.9929187 6.36222631,27.3414769 6.33,26.64 L6.33,25.64 L16.33,25.64 L16.33,26.64 C16.33,27.4 15.86,28.47 15.43,28.47 C15.43,28.47 15.65,28.47 15.65,29.12 L15.65,29.12 C15.65,30.3129351 14.6829351,31.2800232 13.49,31.2800232 L9.17,31.2800232 C8.59540171,31.2826602 8.04342475,31.0562643 7.63618078,30.6508971 C7.22893682,30.2455298 6.99999384,29.6946044 7,29.12 L7,29.12 C7,28.51 7.26,28.42 7.26,28.42 Z" id="Path" stroke="#1D1D1B" stroke-width="1.4" stroke-linecap="round" stroke-linejoin="round"></path>
            </g>
        </g>
    </g>
</svg>