<?xml version="1.0" encoding="UTF-8"?>
<svg width="34px" height="31px" viewBox="0 0 34 31" version="1.1" xmlns="http://www.w3.org/2000/svg" xmlns:xlink="http://www.w3.org/1999/xlink">
    <title>Icon 5</title>
    <g id="incfile-vs-legalzoom" stroke="none" stroke-width="1" fill="none" fill-rule="evenodd">
        <g id="Group" transform="translate(1.000000, -0.500000)">
            <g id="20200406_ICON_ICON-225" transform="translate(0.000000, 1.000000)">
                <path d="M30.9,16.54 C30.79,15.03 29.08,13.8 28.64,12.43 C28.2,11.06 28.86,8.87 27.97,7.64 C27.08,6.41 24.86,6.43 23.62,5.53 C22.38,4.63 21.74,2.53 20.27,2.04 C18.8,1.55 17.08,2.89 15.5,2.89 C13.92,2.89 12.16,1.58 10.74,2 C9.32,2.42 8.61,4.63 7.39,5.53 C6.17,6.43 4,6.4 3.06,7.62 L3.06,7.62 C2.35,8.62 2.64,10.08 2.56,11.39 C2.54494436,11.7290851 2.48784079,12.0649884 2.39,12.39 C1.89326347,13.3804487 1.29326613,14.3156401 0.6,15.18 C0.73,16.67 2.42,17.91 2.86,19.27 C3.3,20.63 2.64,22.83 3.53,24.06 C4.42,25.29 6.64,25.27 7.88,26.17 C9.12,27.07 9.76,29.17 11.23,29.66 C12.7,30.15 14.42,28.81 16,28.81 C17.58,28.81 19.34,30.12 20.76,29.66 C22.18,29.2 22.89,27.06 24.11,26.17 C25.33,25.28 27.53,25.3 28.44,24.08 C28.3829669,23.0390696 28.4501063,21.9950509 28.64,20.97 C28.7177415,20.730816 28.8252516,20.5023572 28.96,20.29 C29.64,19.13 30.91,18.03 30.91,16.7 C30.9116557,16.6464716 30.9083078,16.5929056 30.9,16.54 L30.9,16.54 Z M21.14,17.81 L21.2,18.18 L21.8,21.65 C21.8571913,21.9829117 21.774954,22.3246925 21.5725837,22.59515 C21.3702134,22.8656076 21.0655221,23.0409368 20.73,23.08 C20.4841454,23.1270258 20.2298347,23.0991562 20,23 L16.56,21.18 C16.2002681,20.9897663 15.7697319,20.9897663 15.41,21.18 L12,23 C11.5853421,23.215821 11.0841853,23.1779366 10.7066836,22.9022332 C10.329182,22.6265297 10.1405933,22.1606674 10.22,21.7 L10.88,17.86 C10.9420864,17.4599303 10.8081484,17.0543958 10.52,16.77 L7.7,14 L7.7,14 L11.31,13.48 C11.7105218,13.4200797 12.0552043,13.1653144 12.23,12.8 L13.96,9.31 C14.162974,8.88684592 14.5906837,8.61763624 15.06,8.61763624 C15.5293163,8.61763624 15.957026,8.88684592 16.16,9.31 L17.89,12.8 C18.0667131,13.1679814 18.4157583,13.4231973 18.82,13.48 L22.67,14.04 C23.0778508,14.0877589 23.4308103,14.3458369 23.6,14.72 L21.52,16.72 C21.2201201,16.9976433 21.0777224,17.4060999 21.14,17.81 Z" id="Shape" fill="#FCE7D0" fill-rule="nonzero"></path>
                <path d="M31.41,15 C31.3846522,15.5504284 31.2082004,16.0832436 30.9,16.54 C30.2164572,17.3858182 29.6232316,18.3007933 29.13,19.27 C29.0321592,19.5950116 28.9750556,19.9309149 28.96,20.27 C28.88,21.58 29.17,23.07 28.46,24.04 L28.46,24.04 C27.55,25.26 25.36,25.24 24.13,26.13 C22.9,27.02 22.25,29.13 20.78,29.62 C19.31,30.11 17.59,28.77 16.02,28.77 C14.45,28.77 12.68,30.08 11.25,29.62 C9.82,29.16 9.13,27.02 7.9,26.13 C6.67,25.24 4.45,25.26 3.55,24.02 C2.65,22.78 3.36,20.7 2.88,19.23 C2.4,17.76 0.73,16.67 0.6,15.18 C0.595037399,15.1201026 0.595037399,15.0598974 0.6,15 C0.6,13.67 1.87,12.57 2.6,11.41 C2.73474842,11.1976428 2.84225846,10.969184 2.92,10.73 C3.10989368,9.70494912 3.17703314,8.66093042 3.12,7.62 C3.10245528,7.02526852 3.26638992,6.43928937 3.59,5.94 C4.49,4.7 6.7,4.73 7.94,3.83 C9.18,2.93 9.82,0.83 11.29,0.34 C12.76,-0.15 14.48,1.19 16.06,1.19 C17.64,1.19 19.4,-0.12 20.82,0.34 C22.24,0.8 22.95,2.93 24.17,3.83 C25.39,4.73 27.62,4.7 28.52,5.94 C29.42,7.18 28.72,9.26 29.19,10.73 C29.66,12.2 31.41,13.42 31.41,15 Z" id="Path" stroke="#1D1D1B" stroke-width="1.4" stroke-linecap="round" stroke-linejoin="round"></path>
                <path d="M17.1,6.72 L18.83,10.21 C19.0047957,10.5753144 19.3494782,10.8300797 19.75,10.89 L23.61,11.45 C24.0738992,11.5172829 24.4592269,11.8423919 24.6036317,12.2883478 C24.7480365,12.7343038 24.6264109,13.2235691 24.29,13.55 L21.5,16.26 C21.2110537,16.5435885 21.080167,16.9512071 21.15,17.35 L21.81,21.19 C21.8980934,21.6593757 21.7065283,22.1373165 21.3186382,22.4159117 C20.9307481,22.6945068 20.4166563,22.7233913 20,22.49 L16.55,20.68 C16.1938057,20.4897775 15.7661943,20.4897775 15.41,20.68 L12,22.49 C11.5846299,22.7115637 11.0792308,22.6766071 10.6983196,22.3999677 C10.3174083,22.1233282 10.1278101,21.6535382 10.21,21.19 L10.87,17.35 C10.939833,16.9512071 10.8089463,16.5435885 10.52,16.26 L7.71,13.55 C7.37358906,13.2235691 7.25196354,12.7343038 7.39636833,12.2883478 C7.54077311,11.8423919 7.9261008,11.5172829 8.39,11.45 L12.25,10.89 C12.6505218,10.8300797 12.9952043,10.5753144 13.17,10.21 L14.9,6.72 C15.102974,6.29684592 15.5306837,6.02763624 16,6.02763624 C16.4693163,6.02763624 16.897026,6.29684592 17.1,6.72 Z" id="Path" stroke="#1D1D1B" stroke-width="1.4" stroke-linecap="round" stroke-linejoin="round"></path>
            </g>
        </g>
    </g>
</svg>