<?xml version="1.0" encoding="UTF-8"?>
<svg width="30px" height="30px" viewBox="0 0 30 30" version="1.1" xmlns="http://www.w3.org/2000/svg" xmlns:xlink="http://www.w3.org/1999/xlink">
    <title>Icon 2</title>
    <g id="incfile-vs-legalzoom" stroke="none" stroke-width="1" fill="none" fill-rule="evenodd">
        <g id="Group" transform="translate(-1.000000, -1.000000)">
            <g id="20200406_ICON_ICON-163" transform="translate(2.000000, 1.000000)">
                <path d="M26.68,23.4 C26.7752435,24.9682844 26.4065779,26.5298961 25.62,27.89 C23.39,29.48 19.62,29.26 14.91,29.26 C7.28,29.26 0.16,29.82 0.169989479,22.18 C0.307176499,16.9839548 2.7024397,12.1057968 6.73,8.82 C7.85592571,8.06197803 9.10931331,7.51319751 10.43,7.2 C10.9,7.09 11.21,6.79 11.08,6.49 C12.025862,6.19188537 13.0086373,6.02696762 14,6 L9.91,2.58 L9.77,2.44 L15.48,2.44 C16.38,2.44 16.99,2.96 16.99,3.51 C16.9788666,3.77706989 16.8508754,4.02573851 16.64,4.19 L14.43,6.05 L13.58,6.77 C13.4944446,6.84513322 13.4629073,6.96459311 13.5002284,7.07216567 C13.5375495,7.17973823 13.6362956,7.25399772 13.75,7.26 C21,7.82 26.68,16 26.68,23.4 Z" id="Path" fill="#D5F3E8" fill-rule="nonzero"></path>
                <path d="M14.25,12.6 C12.25,12.53 10.58,13.7 10.53,15.22 C10.48,16.74 12.19,17.57 13.53,17.97 C14.87,18.37 17.18,18.66 17.53,20.44 L17.53,20.67 C17.75,22.62 15.44,23.61 13.82,23.55" id="Path" stroke="#1D1D1B" stroke-width="1.4" stroke-linecap="round" stroke-linejoin="round"></path>
                <polyline id="Path" stroke="#1D1D1B" stroke-width="1.4" stroke-linecap="round" stroke-linejoin="round" points="17.38 13.06 14.25 12.6 14.33 10.16"></polyline>
                <line x1="13.8" y1="26" x2="13.88" y2="23.55" id="Path" stroke="#1D1D1B" stroke-width="1.4" stroke-linecap="round" stroke-linejoin="round"></line>
                <line x1="10.38" y1="23.03" x2="13.88" y2="23.55" id="Path" stroke="#1D1D1B" stroke-width="1.4" stroke-linecap="round" stroke-linejoin="round"></line>
                <path d="M27.83,22.2 C27.83,25.2 27.03,26.89 25.62,27.89 C23.39,29.48 19.62,29.26 14.91,29.26 C7.28,29.26 0.16,29.82 0.169989479,22.18 C0.307176499,16.9839548 2.7024397,12.1057968 6.73,8.82 C8.01457437,7.76767978 9.49220152,6.97621512 11.08,6.49 C12.025862,6.19188537 13.0086373,6.02696762 14,6 L14.41,6 C21.92,6.3 27.83,14.67 27.83,22.2 Z" id="Path" stroke="#1D1D1B" stroke-width="1.4" stroke-linecap="round" stroke-linejoin="round"></path>
                <path d="M18.09,2.63 L17,3.57 L14,6.1 L9.9,2.64 L9.76,2.5 C9.17,1.81 9.86,0.89 11.06,0.89 L16.93,0.89 C18.21,0.89 18.91,1.94 18.09,2.63 Z" id="Path" stroke="#1D1D1B" stroke-width="1.4" stroke-linecap="round" stroke-linejoin="round"></path>
            </g>
        </g>
    </g>
</svg>