<svg xmlns="http://www.w3.org/2000/svg" width="32" height="33" viewBox="0 0 32 33">
    <g fill="none" fill-rule="evenodd" opacity=".75">
        <g>
            <g>
                <path fill="#FCE7D0" fill-rule="nonzero" d="M26.77 30.74l-.6-.19-4.34-1.35L2.06 7.49.49 5.77c-.05-.06-.1-.12-.14-.18l.15-.14 2.89-2.64c.38-.34.98-.32 1.32.06l2.46 2.7 18.18 19.97.06.23 1.2 4.4.16.57z" transform="translate(-24 -23) translate(24 23.5)"/>
                <path stroke="#1D1D1B" stroke-linecap="round" stroke-linejoin="round" stroke-width="1.4" d="M21.82 29.19L2.06 7.49.49 5.77c-.05-.06-.1-.12-.14-.18-.51-.73-.42-1.75.27-2.37l2.24-2.05C3.6.5 4.75.56 5.41 1.3l1.88 2.05 19.45 21.37" transform="translate(-24 -23) translate(24 23.5)"/>
                <path stroke="#1D1D1B" stroke-linecap="round" stroke-linejoin="round" stroke-width="1.4" d="M26.74 24.72L27.8 29.15 28.3 31.22 26.77 30.74 26.16 30.55 21.82 29.19" transform="translate(-24 -23) translate(24 23.5)"/>
                <path stroke="#1D1D1B" stroke-linecap="round" stroke-linejoin="round" stroke-width="1.4" d="M26.72 25.32L24.91 25.48 24.57 27.28 22.75 27.45 22.4 29.25M7.39 3.63L2.75 7.55" transform="translate(-24 -23) translate(24 23.5)"/>
            </g>
        </g>
    </g>
</svg>
